<svg width="341" height="225" viewBox="0 0 341 225" fill="none" xmlns="http://www.w3.org/2000/svg">
<path d="M10 0.5H331C336.247 0.5 340.5 4.75329 340.5 10V215C340.5 220.247 336.247 224.5 331 224.5H10C4.7533 224.5 0.5 220.247 0.5 215V10C0.5 4.7533 4.7533 0.5 10 0.5Z" fill="url(#paint0_linear_2104_5436)" fill-opacity="0.6"/>
<path d="M10 0.5H331C336.247 0.5 340.5 4.75329 340.5 10V215C340.5 220.247 336.247 224.5 331 224.5H10C4.7533 224.5 0.5 220.247 0.5 215V10C0.5 4.7533 4.7533 0.5 10 0.5Z" stroke="url(#paint1_linear_2104_5436)"/>
<rect x="24" y="32" width="74" height="74" rx="37" stroke="#FFFF00" stroke-width="1.5"/>
<path d="M75.4372 74.0533V69.6171C76.8347 69.4616 78.1307 68.8124 79.092 67.7863C80.0533 66.7602 80.6168 65.4246 80.6808 64.02C80.7449 62.6154 80.3055 61.2341 79.4417 60.1247C78.5778 59.0153 77.3463 58.2507 75.9688 57.9687C75.6973 56.6359 74.9734 55.4381 73.9197 54.5781C72.866 53.7182 71.5473 53.249 70.1872 53.2502C69.5683 53.2505 68.953 53.3457 68.3629 53.5324C67.6108 52.2472 66.5354 51.1813 65.2437 50.4405C63.9519 49.6998 62.4888 49.3101 60.9997 49.3101C59.5107 49.3101 58.0476 49.6998 56.7558 50.4405C55.4641 51.1813 54.3887 52.2472 53.6366 53.5324C53.0465 53.3457 52.4312 53.2505 51.8122 53.2502C50.4522 53.249 49.1335 53.7182 48.0798 54.5781C47.0261 55.4381 46.3022 56.6359 46.0307 57.9687C44.6532 58.2507 43.4217 59.0153 42.5578 60.1247C41.694 61.2341 41.2545 62.6154 41.3186 64.02C41.3827 65.4246 41.9462 66.7602 42.9075 67.7863C43.8688 68.8124 45.1648 69.4616 46.5622 69.6171V86.719C46.5622 86.893 46.6314 87.0599 46.7545 87.183C46.8775 87.3061 47.0444 87.3752 47.2185 87.3752H58.2304C58.6182 87.3729 58.9977 87.4872 59.3197 87.7033L60.6388 88.5762C60.7464 88.6489 60.8732 88.6877 61.003 88.6877C61.1328 88.6877 61.2597 88.6489 61.3672 88.5762L62.6338 87.7165C62.9605 87.4933 63.3472 87.3743 63.7429 87.3752H76.0935C76.2675 87.3752 76.4345 87.3061 76.5575 87.183C76.6806 87.0599 76.7497 86.893 76.7497 86.719V80.8127H78.7185C78.8375 80.8136 78.9543 80.7815 79.0562 80.7202C79.1581 80.6588 79.2411 80.5705 79.296 80.4649C79.3538 80.3615 79.3814 80.2439 79.3756 80.1255C79.3698 80.0072 79.3309 79.8928 79.2632 79.7955L75.4372 74.0533ZM46.5622 63.094V68.2915C45.4596 68.133 44.4522 67.5789 43.7278 66.7326C43.0034 65.8862 42.6116 64.8054 42.6252 63.6914C42.6389 62.5775 43.0571 61.5066 43.802 60.6782C44.5469 59.8499 45.5676 59.3207 46.6738 59.1893C46.822 59.1747 46.9606 59.1091 47.0659 59.0038C47.1712 58.8985 47.2367 58.76 47.2513 58.6118C47.3378 57.899 47.5898 57.2163 47.9872 56.6183C48.3846 56.0203 48.9164 55.5236 49.54 55.1677C50.1636 54.8119 50.8619 54.6069 51.5789 54.5691C52.2959 54.5313 53.0118 54.6617 53.6694 54.9499C53.8249 55.0189 54.001 55.0253 54.161 54.9679C54.3211 54.9104 54.453 54.7935 54.5291 54.6415C55.1258 53.435 56.0479 52.4194 57.1913 51.7093C58.3347 50.9992 59.6538 50.6229 60.9997 50.6229C62.3457 50.6229 63.6648 50.9992 64.8082 51.7093C65.9516 52.4194 66.8737 53.435 67.4704 54.6415C67.5465 54.7935 67.6784 54.9104 67.8384 54.9679C67.9985 55.0253 68.1746 55.0189 68.3301 54.9499C68.9877 54.6617 69.7036 54.5313 70.4206 54.5691C71.1376 54.6069 71.8358 54.8119 72.4595 55.1677C73.0831 55.5236 73.6149 56.0203 74.0123 56.6183C74.4097 57.2163 74.6617 57.899 74.7482 58.6118C74.7628 58.76 74.8283 58.8985 74.9336 59.0038C75.0389 59.1091 75.1775 59.1747 75.3257 59.1893C76.4319 59.3207 77.4526 59.8499 78.1975 60.6782C78.9424 61.5066 79.3606 62.5775 79.3743 63.6914C79.3879 64.8054 78.996 65.8862 78.2717 66.7326C77.5473 67.5789 76.5399 68.133 75.4372 68.2915V63.094C75.4372 62.9199 75.3681 62.753 75.245 62.6299C75.122 62.5069 74.955 62.4377 74.781 62.4377H72.8122V60.469C72.8122 60.2949 72.7431 60.128 72.62 60.0049C72.497 59.8819 72.33 59.8127 72.156 59.8127H63.6247C63.1136 59.8147 62.61 59.9362 62.1543 60.1675C61.6985 60.3988 61.3031 60.7335 60.9997 61.1449C60.6964 60.7335 60.301 60.3988 59.8452 60.1675C59.3894 59.9362 58.8859 59.8147 58.3747 59.8127H49.8435C49.6694 59.8127 49.5025 59.8819 49.3795 60.0049C49.2564 60.128 49.1872 60.2949 49.1872 60.469V62.4377H47.2185C47.0444 62.4377 46.8775 62.5069 46.7545 62.6299C46.6314 62.753 46.5622 62.9199 46.5622 63.094ZM74.1247 63.7502V72.0846L74.0132 71.9205C73.9504 71.8351 73.8684 71.7656 73.7737 71.7177C73.6791 71.6698 73.5745 71.6449 73.4685 71.6449C73.3624 71.6449 73.2579 71.6698 73.1633 71.7177C73.0686 71.7656 72.9866 71.8351 72.9238 71.9205L72.8122 72.0846V63.7502H74.1247ZM60.3435 63.094V84.1793L60.0679 83.989C59.5274 83.6293 58.8927 83.4376 58.2435 83.4377H50.4997V61.1252H58.3747C58.8964 61.1268 59.3963 61.3347 59.7651 61.7036C60.134 62.0725 60.3419 62.5723 60.3435 63.094ZM70.1872 86.0627H63.7429C63.0855 86.0619 62.4431 86.2585 61.8988 86.6271L60.9932 87.244L60.0482 86.614C59.5114 86.2518 58.8779 86.0597 58.2304 86.0627H47.8747V63.7502H49.1872V84.094C49.1872 84.268 49.2564 84.4349 49.3795 84.558C49.5025 84.6811 49.6694 84.7502 49.8435 84.7502H58.2435C58.6318 84.7512 59.011 84.8677 59.3329 85.0849L60.6322 85.9512C60.7417 86.0225 60.8691 86.0612 60.9997 86.0627C61.1305 86.0621 61.2582 86.0233 61.3672 85.9512L62.6272 85.0915C62.954 84.8683 63.3406 84.7493 63.7363 84.7502H70.1872V86.0627ZM70.1872 83.4377H63.7363C63.079 83.4369 62.4365 83.6335 61.8922 84.0021L61.656 84.1662V63.094C61.6576 62.5723 61.8655 62.0725 62.2343 61.7036C62.6032 61.3347 63.1031 61.1268 63.6247 61.1252H71.4997V74.0533L67.6738 79.7955C67.6061 79.8928 67.5672 80.0072 67.5614 80.1255C67.5556 80.2439 67.5832 80.3615 67.641 80.4649C67.6959 80.5705 67.7788 80.6588 67.8808 80.7202C67.9827 80.7815 68.0995 80.8136 68.2185 80.8127H70.1872V83.4377ZM76.0935 79.5002C75.9194 79.5002 75.7525 79.5694 75.6295 79.6924C75.5064 79.8155 75.4372 79.9824 75.4372 80.1565V86.0627H71.4997V80.1565C71.4997 79.9824 71.4306 79.8155 71.3075 79.6924C71.1845 79.5694 71.0175 79.5002 70.8435 79.5002H69.4457L73.4685 73.4627L77.4913 79.5002H76.0935Z" fill="#FFFF00"/>
<path d="M63.625 74.25H69.5312C69.7053 74.25 69.8722 74.1809 69.9953 74.0578C70.1184 73.9347 70.1875 73.7678 70.1875 73.5938C70.1875 73.4197 70.1184 73.2528 69.9953 73.1297C69.8722 73.0066 69.7053 72.9375 69.5312 72.9375H63.625C63.451 72.9375 63.284 73.0066 63.161 73.1297C63.0379 73.2528 62.9688 73.4197 62.9688 73.5938C62.9688 73.7678 63.0379 73.9347 63.161 74.0578C63.284 74.1809 63.451 74.25 63.625 74.25Z" fill="#FFFF00"/>
<path d="M63.625 71.625H69.5312C69.7053 71.625 69.8722 71.5559 69.9953 71.4328C70.1184 71.3097 70.1875 71.1428 70.1875 70.9688C70.1875 70.7947 70.1184 70.6278 69.9953 70.5047C69.8722 70.3816 69.7053 70.3125 69.5312 70.3125H63.625C63.451 70.3125 63.284 70.3816 63.161 70.5047C63.0379 70.6278 62.9688 70.7947 62.9688 70.9688C62.9688 71.1428 63.0379 71.3097 63.161 71.4328C63.284 71.5559 63.451 71.625 63.625 71.625Z" fill="#FFFF00"/>
<path d="M66.9062 78.1875H63.625C63.451 78.1875 63.284 78.2566 63.161 78.3797C63.0379 78.5028 62.9688 78.6697 62.9688 78.8438C62.9688 79.0178 63.0379 79.1847 63.161 79.3078C63.284 79.4309 63.451 79.5 63.625 79.5H66.9062C67.0803 79.5 67.2472 79.4309 67.3703 79.3078C67.4934 79.1847 67.5625 79.0178 67.5625 78.8438C67.5625 78.6697 67.4934 78.5028 67.3703 78.3797C67.2472 78.2566 67.0803 78.1875 66.9062 78.1875Z" fill="#FFFF00"/>
<path d="M68.875 76.2188C68.875 76.0447 68.8059 75.8778 68.6828 75.7547C68.5597 75.6316 68.3928 75.5625 68.2188 75.5625H63.625C63.451 75.5625 63.284 75.6316 63.161 75.7547C63.0379 75.8778 62.9688 76.0447 62.9688 76.2188C62.9688 76.3928 63.0379 76.5597 63.161 76.6828C63.284 76.8059 63.451 76.875 63.625 76.875H68.2188C68.3928 76.875 68.5597 76.8059 68.6828 76.6828C68.8059 76.5597 68.875 76.3928 68.875 76.2188Z" fill="#FFFF00"/>
<path d="M63.625 69H69.5312C69.7053 69 69.8722 68.9309 69.9953 68.8078C70.1184 68.6847 70.1875 68.5178 70.1875 68.3438C70.1875 68.1697 70.1184 68.0028 69.9953 67.8797C69.8722 67.7566 69.7053 67.6875 69.5312 67.6875H63.625C63.451 67.6875 63.284 67.7566 63.161 67.8797C63.0379 68.0028 62.9688 68.1697 62.9688 68.3438C62.9688 68.5178 63.0379 68.6847 63.161 68.8078C63.284 68.9309 63.451 69 63.625 69Z" fill="#FFFF00"/>
<path d="M65.5938 80.8125H63.625C63.451 80.8125 63.284 80.8816 63.161 81.0047C63.0379 81.1278 62.9688 81.2947 62.9688 81.4688C62.9688 81.6428 63.0379 81.8097 63.161 81.9328C63.284 82.0559 63.451 82.125 63.625 82.125H65.5938C65.7678 82.125 65.9347 82.0559 66.0578 81.9328C66.1809 81.8097 66.25 81.6428 66.25 81.4688C66.25 81.2947 66.1809 81.1278 66.0578 81.0047C65.9347 80.8816 65.7678 80.8125 65.5938 80.8125Z" fill="#FFFF00"/>
<path d="M63.625 63.75H69.5312C69.7053 63.75 69.8722 63.6809 69.9953 63.5578C70.1184 63.4347 70.1875 63.2678 70.1875 63.0938C70.1875 62.9197 70.1184 62.7528 69.9953 62.6297C69.8722 62.5066 69.7053 62.4375 69.5312 62.4375H63.625C63.451 62.4375 63.284 62.5066 63.161 62.6297C63.0379 62.7528 62.9688 62.9197 62.9688 63.0938C62.9688 63.2678 63.0379 63.4347 63.161 63.5578C63.284 63.6809 63.451 63.75 63.625 63.75Z" fill="#FFFF00"/>
<path d="M63.625 66.375H69.5312C69.7053 66.375 69.8722 66.3059 69.9953 66.1828C70.1184 66.0597 70.1875 65.8928 70.1875 65.7188C70.1875 65.5447 70.1184 65.3778 69.9953 65.2547C69.8722 65.1316 69.7053 65.0625 69.5312 65.0625H63.625C63.451 65.0625 63.284 65.1316 63.161 65.2547C63.0379 65.3778 62.9688 65.5447 62.9688 65.7188C62.9688 65.8928 63.0379 66.0597 63.161 66.1828C63.284 66.3059 63.451 66.375 63.625 66.375Z" fill="#FFFF00"/>
<path d="M52.4688 69H58.375C58.549 69 58.716 68.9309 58.839 68.8078C58.9621 68.6847 59.0312 68.5178 59.0312 68.3438V63.0938C59.0312 62.9197 58.9621 62.7528 58.839 62.6297C58.716 62.5066 58.549 62.4375 58.375 62.4375H52.4688C52.2947 62.4375 52.1278 62.5066 52.0047 62.6297C51.8816 62.7528 51.8125 62.9197 51.8125 63.0938V68.3438C51.8125 68.5178 51.8816 68.6847 52.0047 68.8078C52.1278 68.9309 52.2947 69 52.4688 69ZM53.125 63.75H57.7188V67.6875H53.125V63.75Z" fill="#FFFF00"/>
<path d="M52.4688 79.5H58.375C58.549 79.5 58.716 79.4309 58.839 79.3078C58.9621 79.1847 59.0312 79.0178 59.0312 78.8438C59.0312 78.6697 58.9621 78.5028 58.839 78.3797C58.716 78.2566 58.549 78.1875 58.375 78.1875H52.4688C52.2947 78.1875 52.1278 78.2566 52.0047 78.3797C51.8816 78.5028 51.8125 78.6697 51.8125 78.8438C51.8125 79.0178 51.8816 79.1847 52.0047 79.3078C52.1278 79.4309 52.2947 79.5 52.4688 79.5Z" fill="#FFFF00"/>
<path d="M52.4688 76.875H58.375C58.549 76.875 58.716 76.8059 58.839 76.6828C58.9621 76.5597 59.0312 76.3928 59.0312 76.2188C59.0312 76.0447 58.9621 75.8778 58.839 75.7547C58.716 75.6316 58.549 75.5625 58.375 75.5625H52.4688C52.2947 75.5625 52.1278 75.6316 52.0047 75.7547C51.8816 75.8778 51.8125 76.0447 51.8125 76.2188C51.8125 76.3928 51.8816 76.5597 52.0047 76.6828C52.1278 76.8059 52.2947 76.875 52.4688 76.875Z" fill="#FFFF00"/>
<path d="M52.4688 74.25H58.375C58.549 74.25 58.716 74.1809 58.839 74.0578C58.9621 73.9347 59.0312 73.7678 59.0312 73.5938C59.0312 73.4197 58.9621 73.2528 58.839 73.1297C58.716 73.0066 58.549 72.9375 58.375 72.9375H52.4688C52.2947 72.9375 52.1278 73.0066 52.0047 73.1297C51.8816 73.2528 51.8125 73.4197 51.8125 73.5938C51.8125 73.7678 51.8816 73.9347 52.0047 74.0578C52.1278 74.1809 52.2947 74.25 52.4688 74.25Z" fill="#FFFF00"/>
<path d="M52.4688 71.625H58.375C58.549 71.625 58.716 71.5559 58.839 71.4328C58.9621 71.3097 59.0312 71.1428 59.0312 70.9688C59.0312 70.7947 58.9621 70.6278 58.839 70.5047C58.716 70.3816 58.549 70.3125 58.375 70.3125H52.4688C52.2947 70.3125 52.1278 70.3816 52.0047 70.5047C51.8816 70.6278 51.8125 70.7947 51.8125 70.9688C51.8125 71.1428 51.8816 71.3097 52.0047 71.4328C52.1278 71.5559 52.2947 71.625 52.4688 71.625Z" fill="#FFFF00"/>
<path d="M59.0312 81.4688C59.0312 81.2947 58.9621 81.1278 58.839 81.0047C58.716 80.8816 58.549 80.8125 58.375 80.8125H52.4688C52.2947 80.8125 52.1278 80.8816 52.0047 81.0047C51.8816 81.1278 51.8125 81.2947 51.8125 81.4688C51.8125 81.6428 51.8816 81.8097 52.0047 81.9328C52.1278 82.0559 52.2947 82.125 52.4688 82.125H58.375C58.549 82.125 58.716 82.0559 58.839 81.9328C58.9621 81.8097 59.0312 81.6428 59.0312 81.4688Z" fill="#FFFF00"/>
<path d="M31.6987 157.322C29.9047 157.322 28.4327 156.816 27.2827 155.804C26.1327 154.792 25.5577 153.435 25.5577 151.733V140.9H28.7087V151.48C28.7087 152.323 28.9464 152.99 29.4217 153.481C29.9124 153.972 30.6714 154.217 31.6987 154.217C32.726 154.217 33.4774 153.972 33.9527 153.481C34.4434 152.99 34.6887 152.323 34.6887 151.48V140.9H37.8627V151.733C37.8627 153.435 37.2877 154.792 36.1377 155.804C34.9877 156.816 33.508 157.322 31.6987 157.322ZM47.2771 145.178C48.8257 145.178 50.1444 145.768 51.2331 146.949C52.3371 148.114 52.8891 149.548 52.8891 151.25C52.8891 152.952 52.3371 154.393 51.2331 155.574C50.1444 156.739 48.8257 157.322 47.2771 157.322C45.6671 157.322 44.4251 156.762 43.5511 155.643V161.6H40.5841V145.5H43.5511V146.857C44.4251 145.738 45.6671 145.178 47.2771 145.178ZM44.4481 153.596C45.0461 154.194 45.8051 154.493 46.7251 154.493C47.6451 154.493 48.4041 154.194 49.0021 153.596C49.6154 152.983 49.9221 152.201 49.9221 151.25C49.9221 150.299 49.6154 149.525 49.0021 148.927C48.4041 148.314 47.6451 148.007 46.7251 148.007C45.8051 148.007 45.0461 148.314 44.4481 148.927C43.8501 149.525 43.5511 150.299 43.5511 151.25C43.5511 152.201 43.8501 152.983 44.4481 153.596ZM54.9815 157V140.21H57.9485V157H54.9815ZM70.4621 155.574C69.2815 156.739 67.8401 157.322 66.1381 157.322C64.4361 157.322 62.9948 156.739 61.8141 155.574C60.6488 154.393 60.0661 152.952 60.0661 151.25C60.0661 149.548 60.6488 148.114 61.8141 146.949C62.9948 145.768 64.4361 145.178 66.1381 145.178C67.8401 145.178 69.2815 145.768 70.4621 146.949C71.6428 148.114 72.2331 149.548 72.2331 151.25C72.2331 152.952 71.6428 154.393 70.4621 155.574ZM63.9071 153.527C64.5051 154.125 65.2488 154.424 66.1381 154.424C67.0275 154.424 67.7711 154.125 68.3691 153.527C68.9671 152.929 69.2661 152.17 69.2661 151.25C69.2661 150.33 68.9671 149.571 68.3691 148.973C67.7711 148.375 67.0275 148.076 66.1381 148.076C65.2488 148.076 64.5051 148.375 63.9071 148.973C63.3245 149.571 63.0331 150.33 63.0331 151.25C63.0331 152.17 63.3245 152.929 63.9071 153.527ZM83.0604 145.5H86.0274V157H83.0604V155.643C82.171 156.762 80.9214 157.322 79.3114 157.322C77.778 157.322 76.4594 156.739 75.3554 155.574C74.2667 154.393 73.7224 152.952 73.7224 151.25C73.7224 149.548 74.2667 148.114 75.3554 146.949C76.4594 145.768 77.778 145.178 79.3114 145.178C80.9214 145.178 82.171 145.738 83.0604 146.857V145.5ZM77.5864 153.596C78.1844 154.194 78.9434 154.493 79.8634 154.493C80.7834 154.493 81.5424 154.194 82.1404 153.596C82.7537 152.983 83.0604 152.201 83.0604 151.25C83.0604 150.299 82.7537 149.525 82.1404 148.927C81.5424 148.314 80.7834 148.007 79.8634 148.007C78.9434 148.007 78.1844 148.314 77.5864 148.927C76.9884 149.525 76.6894 150.299 76.6894 151.25C76.6894 152.201 76.9884 152.983 77.5864 153.596ZM97.4348 140.9H100.402V157H97.4348V155.643C96.5608 156.762 95.3188 157.322 93.7088 157.322C92.1602 157.322 90.8338 156.739 89.7298 155.574C88.6412 154.393 88.0968 152.952 88.0968 151.25C88.0968 149.548 88.6412 148.114 89.7298 146.949C90.8338 145.768 92.1602 145.178 93.7088 145.178C95.3188 145.178 96.5608 145.738 97.4348 146.857V140.9ZM91.9608 153.596C92.5742 154.194 93.3408 154.493 94.2608 154.493C95.1808 154.493 95.9398 154.194 96.5378 153.596C97.1358 152.983 97.4348 152.201 97.4348 151.25C97.4348 150.299 97.1358 149.525 96.5378 148.927C95.9398 148.314 95.1808 148.007 94.2608 148.007C93.3408 148.007 92.5742 148.314 91.9608 148.927C91.3628 149.525 91.0638 150.299 91.0638 151.25C91.0638 152.201 91.3628 152.983 91.9608 153.596ZM121.584 157H117.927L112.177 149.456V157H109.003V140.9H112.177V148.007L117.697 140.9H121.354L115.397 148.72L121.584 157ZM129.41 145.178C130.667 145.178 131.702 145.6 132.515 146.443C133.343 147.286 133.757 148.452 133.757 149.939V157H130.79V150.307C130.79 149.54 130.583 148.958 130.169 148.559C129.755 148.145 129.203 147.938 128.513 147.938C127.746 147.938 127.133 148.176 126.673 148.651C126.213 149.126 125.983 149.839 125.983 150.79V157H123.016V145.5H125.983V146.788C126.703 145.715 127.846 145.178 129.41 145.178ZM146.088 155.574C144.907 156.739 143.466 157.322 141.764 157.322C140.062 157.322 138.621 156.739 137.44 155.574C136.275 154.393 135.692 152.952 135.692 151.25C135.692 149.548 136.275 148.114 137.44 146.949C138.621 145.768 140.062 145.178 141.764 145.178C143.466 145.178 144.907 145.768 146.088 146.949C147.269 148.114 147.859 149.548 147.859 151.25C147.859 152.952 147.269 154.393 146.088 155.574ZM139.533 153.527C140.131 154.125 140.875 154.424 141.764 154.424C142.653 154.424 143.397 154.125 143.995 153.527C144.593 152.929 144.892 152.17 144.892 151.25C144.892 150.33 144.593 149.571 143.995 148.973C143.397 148.375 142.653 148.076 141.764 148.076C140.875 148.076 140.131 148.375 139.533 148.973C138.95 149.571 138.659 150.33 138.659 151.25C138.659 152.17 138.95 152.929 139.533 153.527ZM162.446 145.5H165.597L161.94 157H159.111L156.995 150.031L154.879 157H152.05L148.393 145.5H151.544L153.499 152.561L155.592 145.5H158.398L160.491 152.584L162.446 145.5ZM167.196 157V140.21H170.163V157H167.196ZM175.386 152.469C175.785 153.91 176.866 154.631 178.629 154.631C179.764 154.631 180.622 154.248 181.205 153.481L183.597 154.861C182.462 156.502 180.791 157.322 178.583 157.322C176.682 157.322 175.156 156.747 174.006 155.597C172.856 154.447 172.281 152.998 172.281 151.25C172.281 149.517 172.848 148.076 173.983 146.926C175.118 145.761 176.574 145.178 178.353 145.178C180.04 145.178 181.427 145.761 182.516 146.926C183.62 148.091 184.172 149.533 184.172 151.25C184.172 151.633 184.134 152.04 184.057 152.469H175.386ZM175.34 150.169H181.205C181.036 149.387 180.684 148.804 180.147 148.421C179.626 148.038 179.028 147.846 178.353 147.846C177.556 147.846 176.896 148.053 176.375 148.467C175.854 148.866 175.509 149.433 175.34 150.169ZM194.87 140.9H197.837V157H194.87V155.643C193.996 156.762 192.754 157.322 191.144 157.322C189.596 157.322 188.269 156.739 187.165 155.574C186.077 154.393 185.532 152.952 185.532 151.25C185.532 149.548 186.077 148.114 187.165 146.949C188.269 145.768 189.596 145.178 191.144 145.178C192.754 145.178 193.996 145.738 194.87 146.857V140.9ZM189.396 153.596C190.01 154.194 190.776 154.493 191.696 154.493C192.616 154.493 193.375 154.194 193.973 153.596C194.571 152.983 194.87 152.201 194.87 151.25C194.87 150.299 194.571 149.525 193.973 148.927C193.375 148.314 192.616 148.007 191.696 148.007C190.776 148.007 190.01 148.314 189.396 148.927C188.798 149.525 188.499 150.299 188.499 151.25C188.499 152.201 188.798 152.983 189.396 153.596ZM209.36 145.5H212.258V156.448C212.258 158.227 211.668 159.584 210.487 160.519C209.322 161.454 207.911 161.922 206.255 161.922C205.013 161.922 203.917 161.684 202.966 161.209C202.031 160.734 201.31 160.036 200.804 159.116L203.334 157.667C203.917 158.74 204.921 159.277 206.347 159.277C207.282 159.277 208.018 159.032 208.555 158.541C209.092 158.05 209.36 157.353 209.36 156.448V155.206C208.486 156.371 207.259 156.954 205.68 156.954C204.055 156.954 202.69 156.387 201.586 155.252C200.497 154.102 199.953 152.707 199.953 151.066C199.953 149.441 200.505 148.053 201.609 146.903C202.713 145.753 204.07 145.178 205.68 145.178C207.259 145.178 208.486 145.761 209.36 146.926V145.5ZM203.817 153.343C204.43 153.926 205.205 154.217 206.14 154.217C207.075 154.217 207.842 153.926 208.44 153.343C209.053 152.745 209.36 151.986 209.36 151.066C209.36 150.161 209.053 149.418 208.44 148.835C207.842 148.237 207.075 147.938 206.14 147.938C205.205 147.938 204.43 148.237 203.817 148.835C203.219 149.418 202.92 150.161 202.92 151.066C202.92 151.986 203.219 152.745 203.817 153.343ZM217.455 152.469C217.854 153.91 218.935 154.631 220.698 154.631C221.833 154.631 222.692 154.248 223.274 153.481L225.666 154.861C224.532 156.502 222.86 157.322 220.652 157.322C218.751 157.322 217.225 156.747 216.075 155.597C214.925 154.447 214.35 152.998 214.35 151.25C214.35 149.517 214.918 148.076 216.052 146.926C217.187 145.761 218.644 145.178 220.422 145.178C222.109 145.178 223.497 145.761 224.585 146.926C225.689 148.091 226.241 149.533 226.241 151.25C226.241 151.633 226.203 152.04 226.126 152.469H217.455ZM217.409 150.169H223.274C223.106 149.387 222.753 148.804 222.216 148.421C221.695 148.038 221.097 147.846 220.422 147.846C219.625 147.846 218.966 148.053 218.444 148.467C217.923 148.866 217.578 149.433 217.409 150.169ZM239.698 157.322C238.103 157.322 236.761 156.969 235.673 156.264C234.584 155.543 233.817 154.57 233.373 153.343L236.087 151.756C236.715 153.397 237.95 154.217 239.79 154.217C240.679 154.217 241.331 154.056 241.745 153.734C242.159 153.412 242.366 153.006 242.366 152.515C242.366 151.948 242.113 151.511 241.607 151.204C241.101 150.882 240.196 150.537 238.893 150.169C238.172 149.954 237.559 149.74 237.053 149.525C236.562 149.31 236.064 149.027 235.558 148.674C235.067 148.306 234.691 147.846 234.431 147.294C234.17 146.742 234.04 146.098 234.04 145.362C234.04 143.905 234.553 142.748 235.581 141.889C236.623 141.015 237.873 140.578 239.33 140.578C240.633 140.578 241.775 140.9 242.757 141.544C243.753 142.173 244.528 143.054 245.08 144.189L242.412 145.73C241.768 144.35 240.74 143.66 239.33 143.66C238.67 143.66 238.149 143.813 237.766 144.12C237.398 144.411 237.214 144.795 237.214 145.27C237.214 145.776 237.421 146.19 237.835 146.512C238.264 146.819 239.077 147.156 240.273 147.524C240.763 147.677 241.131 147.8 241.377 147.892C241.637 147.969 241.982 148.099 242.412 148.283C242.856 148.452 243.194 148.613 243.424 148.766C243.669 148.919 243.945 149.126 244.252 149.387C244.558 149.648 244.788 149.916 244.942 150.192C245.11 150.468 245.248 150.805 245.356 151.204C245.478 151.587 245.54 152.009 245.54 152.469C245.54 153.956 244.995 155.137 243.907 156.011C242.833 156.885 241.43 157.322 239.698 157.322ZM257.584 155.574C256.404 156.739 254.962 157.322 253.26 157.322C251.558 157.322 250.117 156.739 248.936 155.574C247.771 154.393 247.188 152.952 247.188 151.25C247.188 149.548 247.771 148.114 248.936 146.949C250.117 145.768 251.558 145.178 253.26 145.178C254.962 145.178 256.404 145.768 257.584 146.949C258.765 148.114 259.355 149.548 259.355 151.25C259.355 152.952 258.765 154.393 257.584 155.574ZM251.029 153.527C251.627 154.125 252.371 154.424 253.26 154.424C254.15 154.424 254.893 154.125 255.491 153.527C256.089 152.929 256.388 152.17 256.388 151.25C256.388 150.33 256.089 149.571 255.491 148.973C254.893 148.375 254.15 148.076 253.26 148.076C252.371 148.076 251.627 148.375 251.029 148.973C250.447 149.571 250.155 150.33 250.155 151.25C250.155 152.17 250.447 152.929 251.029 153.527ZM269.032 145.5H271.999V157H269.032V155.712C268.312 156.785 267.169 157.322 265.605 157.322C264.348 157.322 263.305 156.9 262.477 156.057C261.665 155.214 261.258 154.048 261.258 152.561V145.5H264.225V152.193C264.225 152.96 264.432 153.55 264.846 153.964C265.26 154.363 265.812 154.562 266.502 154.562C267.269 154.562 267.882 154.324 268.342 153.849C268.802 153.374 269.032 152.661 269.032 151.71V145.5ZM277.684 147.478C277.96 146.742 278.412 146.19 279.041 145.822C279.685 145.454 280.398 145.27 281.18 145.27V148.582C280.275 148.475 279.463 148.659 278.742 149.134C278.037 149.609 277.684 150.399 277.684 151.503V157H274.717V145.5H277.684V147.478ZM287.962 157.322C286.23 157.322 284.781 156.739 283.615 155.574C282.465 154.409 281.89 152.967 281.89 151.25C281.89 149.533 282.465 148.091 283.615 146.926C284.781 145.761 286.23 145.178 287.962 145.178C289.082 145.178 290.101 145.446 291.021 145.983C291.941 146.52 292.639 147.24 293.114 148.145L290.561 149.64C290.331 149.165 289.979 148.789 289.503 148.513C289.043 148.237 288.522 148.099 287.939 148.099C287.05 148.099 286.314 148.398 285.731 148.996C285.149 149.579 284.857 150.33 284.857 151.25C284.857 152.155 285.149 152.906 285.731 153.504C286.314 154.087 287.05 154.378 287.939 154.378C288.537 154.378 289.066 154.248 289.526 153.987C290.002 153.711 290.354 153.335 290.584 152.86L293.16 154.332C292.654 155.237 291.941 155.965 291.021 156.517C290.101 157.054 289.082 157.322 287.962 157.322ZM297.057 152.469C297.456 153.91 298.537 154.631 300.3 154.631C301.435 154.631 302.293 154.248 302.876 153.481L305.268 154.861C304.133 156.502 302.462 157.322 300.254 157.322C298.353 157.322 296.827 156.747 295.677 155.597C294.527 154.447 293.952 152.998 293.952 151.25C293.952 149.517 294.519 148.076 295.654 146.926C296.789 145.761 298.245 145.178 300.024 145.178C301.711 145.178 303.098 145.761 304.187 146.926C305.291 148.091 305.843 149.533 305.843 151.25C305.843 151.633 305.805 152.04 305.728 152.469H297.057ZM297.011 150.169H302.876C302.707 149.387 302.355 148.804 301.818 148.421C301.297 148.038 300.699 147.846 300.024 147.846C299.227 147.846 298.567 148.053 298.046 148.467C297.525 148.866 297.18 149.433 297.011 150.169ZM310.202 148.766C310.202 149.073 310.401 149.326 310.8 149.525C311.214 149.709 311.712 149.878 312.295 150.031C312.878 150.169 313.46 150.353 314.043 150.583C314.626 150.798 315.116 151.166 315.515 151.687C315.929 152.208 316.136 152.86 316.136 153.642C316.136 154.823 315.691 155.735 314.802 156.379C313.928 157.008 312.832 157.322 311.513 157.322C309.152 157.322 307.542 156.41 306.683 154.585L309.259 153.136C309.596 154.133 310.348 154.631 311.513 154.631C312.571 154.631 313.1 154.301 313.1 153.642C313.1 153.335 312.893 153.09 312.479 152.906C312.08 152.707 311.59 152.53 311.007 152.377C310.424 152.224 309.842 152.032 309.259 151.802C308.676 151.572 308.178 151.212 307.764 150.721C307.365 150.215 307.166 149.586 307.166 148.835C307.166 147.7 307.58 146.811 308.408 146.167C309.251 145.508 310.294 145.178 311.536 145.178C312.471 145.178 313.322 145.393 314.089 145.822C314.856 146.236 315.461 146.834 315.906 147.616L313.376 148.996C313.008 148.214 312.395 147.823 311.536 147.823C311.153 147.823 310.831 147.907 310.57 148.076C310.325 148.245 310.202 148.475 310.202 148.766Z" fill="white"/>
<path d="M27.0786 182.144H29.2226C30.8866 182.144 31.5906 181.36 31.5906 180.112C31.5906 178.816 30.8866 178.048 29.2226 178.048H27.0786V182.144ZM33.0786 180.112C33.0786 181.808 31.9906 183.344 29.2226 183.344H27.0786V188H25.6226V176.848H29.2226C31.8466 176.848 33.0786 178.288 33.0786 180.112ZM38.3602 176.848C42.0243 176.848 44.2803 178.992 44.2803 182.448C44.2803 185.904 42.0243 188 38.3602 188H34.8883V176.848H38.3602ZM36.3443 186.8H38.3602C41.2723 186.8 42.7923 185.168 42.7923 182.448C42.7923 179.728 41.2723 178.032 38.3602 178.032H36.3443V186.8ZM46.2008 188V176.848H52.5048V178.032H47.6568V181.792H51.5928V182.976H47.6568V188H46.2008ZM60.5673 185.616C60.5673 187.056 59.3033 188.144 57.3673 188.144C55.3193 188.144 53.8793 187.024 53.7833 185.424H55.2873C55.3673 186.272 56.1193 186.912 57.3513 186.912C58.5033 186.912 59.1433 186.336 59.1433 185.616C59.1433 183.664 53.9593 184.8 53.9593 181.536C53.9593 180.192 55.2233 179.088 57.1753 179.088C59.1113 179.088 60.3913 180.128 60.4873 181.84H59.0313C58.9673 180.96 58.2953 180.32 57.1273 180.32C56.0553 180.32 55.4153 180.832 55.4153 181.536C55.4153 183.616 60.5033 182.48 60.5673 185.616ZM61.3586 190.288L62.5266 185.984H64.1266L62.3346 190.288H61.3586ZM69.5161 183.584C69.5161 180.848 71.3241 179.088 73.6921 179.088C75.0681 179.088 76.3321 179.792 76.9401 180.8V176.16H78.4121V188H76.9401V186.352C76.4121 187.328 75.2761 188.144 73.6761 188.144C71.3241 188.144 69.5161 186.304 69.5161 183.584ZM76.9401 183.6C76.9401 181.568 75.5641 180.352 73.9641 180.352C72.3641 180.352 71.0041 181.52 71.0041 183.584C71.0041 185.648 72.3641 186.864 73.9641 186.864C75.5641 186.864 76.9401 185.664 76.9401 183.6ZM89.1926 183.6C89.1926 186.384 87.1926 188.144 84.6966 188.144C82.2166 188.144 80.3286 186.384 80.3286 183.6C80.3286 180.832 82.2806 179.088 84.7606 179.088C87.2566 179.088 89.1926 180.832 89.1926 183.6ZM81.8166 183.6C81.8166 185.824 83.1766 186.864 84.6966 186.864C86.2166 186.864 87.7046 185.824 87.7046 183.6C87.7046 181.392 86.2486 180.352 84.7446 180.352C83.2086 180.352 81.8166 181.392 81.8166 183.6ZM90.563 183.6C90.563 180.848 92.339 179.088 94.835 179.088C97.011 179.088 98.435 180.208 98.883 182.048H97.315C97.011 180.992 96.131 180.32 94.835 180.32C93.235 180.32 92.051 181.456 92.051 183.6C92.051 185.776 93.235 186.912 94.835 186.912C96.131 186.912 96.995 186.288 97.315 185.184H98.883C98.435 186.928 97.011 188.144 94.835 188.144C92.339 188.144 90.563 186.384 90.563 183.6ZM107.13 185.616C107.13 187.056 105.866 188.144 103.93 188.144C101.882 188.144 100.442 187.024 100.346 185.424H101.85C101.93 186.272 102.682 186.912 103.914 186.912C105.066 186.912 105.706 186.336 105.706 185.616C105.706 183.664 100.522 184.8 100.522 181.536C100.522 180.192 101.786 179.088 103.738 179.088C105.674 179.088 106.954 180.128 107.05 181.84H105.594C105.53 180.96 104.858 180.32 103.69 180.32C102.618 180.32 101.978 180.832 101.978 181.536C101.978 183.616 107.066 182.48 107.13 185.616ZM107.921 190.288L109.089 185.984H110.689L108.897 190.288H107.921ZM116.623 188V179.232H118.079V188H116.623ZM117.375 177.808C116.815 177.808 116.383 177.376 116.383 176.816C116.383 176.256 116.815 175.824 117.375 175.824C117.903 175.824 118.335 176.256 118.335 176.816C118.335 177.376 117.903 177.808 117.375 177.808ZM133.216 188V183.04C133.216 181.248 132.256 180.336 130.816 180.336C129.344 180.336 128.336 181.28 128.336 183.168V188H126.896V183.04C126.896 181.248 125.936 180.336 124.496 180.336C123.024 180.336 122.016 181.28 122.016 183.168V188H120.56V179.232H122.016V180.496C122.592 179.568 123.632 179.072 124.784 179.072C126.224 179.072 127.424 179.712 128 181.024C128.512 179.76 129.76 179.072 131.104 179.072C133.104 179.072 134.656 180.32 134.656 182.832V188H133.216ZM136.501 183.584C136.501 180.848 138.309 179.088 140.661 179.088C142.293 179.088 143.413 179.92 143.925 180.832V179.232H145.397V188H143.925V186.368C143.397 187.312 142.261 188.144 140.645 188.144C138.309 188.144 136.501 186.304 136.501 183.584ZM143.925 183.6C143.925 181.568 142.549 180.352 140.949 180.352C139.349 180.352 137.989 181.52 137.989 183.584C137.989 185.648 139.349 186.864 140.949 186.864C142.549 186.864 143.925 185.664 143.925 183.6ZM147.313 183.584C147.313 180.848 149.121 179.088 151.473 179.088C153.073 179.088 154.225 179.888 154.737 180.832V179.232H156.209V188.192C156.209 190.608 154.593 192.32 152.017 192.32C149.713 192.32 148.065 191.152 147.777 189.28H149.217C149.537 190.336 150.577 191.056 152.017 191.056C153.569 191.056 154.737 190.064 154.737 188.192V186.352C154.209 187.296 153.073 188.144 151.473 188.144C149.121 188.144 147.313 186.304 147.313 183.584ZM154.737 183.6C154.737 181.568 153.361 180.352 151.761 180.352C150.161 180.352 148.801 181.52 148.801 183.584C148.801 185.648 150.161 186.864 151.761 186.864C153.361 186.864 154.737 185.664 154.737 183.6ZM162.398 180.32C160.974 180.32 159.789 181.264 159.63 182.976H165.166C165.182 181.264 163.902 180.32 162.398 180.32ZM166.494 185.296C166.046 186.896 164.638 188.144 162.462 188.144C159.966 188.144 158.126 186.384 158.126 183.6C158.126 180.832 159.902 179.088 162.462 179.088C165.006 179.088 166.67 180.88 166.67 183.28C166.67 183.6 166.654 183.856 166.622 184.16H159.614C159.726 185.936 160.974 186.912 162.462 186.912C163.774 186.912 164.606 186.24 164.926 185.296H166.494ZM174.895 185.616C174.895 187.056 173.631 188.144 171.695 188.144C169.647 188.144 168.207 187.024 168.111 185.424H169.615C169.695 186.272 170.447 186.912 171.679 186.912C172.831 186.912 173.471 186.336 173.471 185.616C173.471 183.664 168.287 184.8 168.287 181.536C168.287 180.192 169.551 179.088 171.503 179.088C173.439 179.088 174.719 180.128 174.815 181.84H173.359C173.295 180.96 172.623 180.32 171.455 180.32C170.383 180.32 169.743 180.832 169.743 181.536C169.743 183.616 174.831 182.48 174.895 185.616ZM175.687 190.288L176.855 185.984H178.455L176.663 190.288H175.687ZM185.844 180.848C186.372 179.92 187.524 179.088 189.124 179.088C191.476 179.088 193.284 180.848 193.284 183.584C193.284 186.304 191.476 188.144 189.124 188.144C187.524 188.144 186.388 187.28 185.844 186.384V192.16H184.388V179.232H185.844V180.848ZM191.796 183.584C191.796 181.52 190.436 180.352 188.82 180.352C187.236 180.352 185.844 181.568 185.844 183.6C185.844 185.664 187.236 186.864 188.82 186.864C190.436 186.864 191.796 185.648 191.796 183.584ZM202.977 179.232V188H201.521V186.704C200.961 187.616 199.889 188.128 198.721 188.128C196.705 188.128 195.121 186.88 195.121 184.368V179.232H196.561V184.176C196.561 185.952 197.537 186.864 199.009 186.864C200.513 186.864 201.521 185.936 201.521 184.048V179.232H202.977ZM206.891 180.864C207.451 179.888 208.619 179.088 210.171 179.088C212.539 179.088 214.331 180.848 214.331 183.584C214.331 186.304 212.523 188.144 210.171 188.144C208.571 188.144 207.435 187.344 206.891 186.384V188H205.435V176.16H206.891V180.864ZM212.843 183.584C212.843 181.52 211.483 180.352 209.867 180.352C208.283 180.352 206.891 181.568 206.891 183.6C206.891 185.664 208.283 186.864 209.867 186.864C211.483 186.864 212.843 185.648 212.843 183.584ZM216.248 188V176.16H217.704V188H216.248ZM220.185 188V179.232H221.641V188H220.185ZM220.937 177.808C220.377 177.808 219.945 177.376 219.945 176.816C219.945 176.256 220.377 175.824 220.937 175.824C221.465 175.824 221.897 176.256 221.897 176.816C221.897 177.376 221.465 177.808 220.937 177.808ZM223.579 183.6C223.579 180.848 225.355 179.088 227.851 179.088C230.027 179.088 231.451 180.208 231.899 182.048H230.331C230.027 180.992 229.147 180.32 227.851 180.32C226.251 180.32 225.067 181.456 225.067 183.6C225.067 185.776 226.251 186.912 227.851 186.912C229.147 186.912 230.011 186.288 230.331 185.184H231.899C231.451 186.928 230.027 188.144 227.851 188.144C225.355 188.144 223.579 186.384 223.579 183.6ZM237.563 183.584C237.563 180.848 239.371 179.088 241.739 179.088C243.115 179.088 244.379 179.792 244.987 180.8V176.16H246.459V188H244.987V186.352C244.459 187.328 243.323 188.144 241.723 188.144C239.371 188.144 237.563 186.304 237.563 183.584ZM244.987 183.6C244.987 181.568 243.611 180.352 242.011 180.352C240.411 180.352 239.051 181.52 239.051 183.584C239.051 185.648 240.411 186.864 242.011 186.864C243.611 186.864 244.987 185.664 244.987 183.6ZM248.376 183.584C248.376 180.848 250.184 179.088 252.536 179.088C254.168 179.088 255.288 179.92 255.8 180.832V179.232H257.272V188H255.8V186.368C255.272 187.312 254.136 188.144 252.52 188.144C250.184 188.144 248.376 186.304 248.376 183.584ZM255.8 183.6C255.8 181.568 254.424 180.352 252.824 180.352C251.224 180.352 249.864 181.52 249.864 183.584C249.864 185.648 251.224 186.864 252.824 186.864C254.424 186.864 255.8 185.664 255.8 183.6ZM260.052 185.6V180.432H258.916V179.232H260.052V177.024H261.508V179.232H263.796V180.432H261.508V185.6C261.508 186.464 261.828 186.768 262.724 186.768H263.796V188H262.484C260.932 188 260.052 187.36 260.052 185.6ZM265.016 183.584C265.016 180.848 266.824 179.088 269.176 179.088C270.808 179.088 271.928 179.92 272.44 180.832V179.232H273.912V188H272.44V186.368C271.912 187.312 270.776 188.144 269.16 188.144C266.824 188.144 265.016 186.304 265.016 183.584ZM272.44 183.6C272.44 181.568 271.064 180.352 269.464 180.352C267.864 180.352 266.504 181.52 266.504 183.584C266.504 185.648 267.864 186.864 269.464 186.864C271.064 186.864 272.44 185.664 272.44 183.6ZM282.677 185.616C282.677 187.056 281.413 188.144 279.477 188.144C277.429 188.144 275.989 187.024 275.893 185.424H277.397C277.477 186.272 278.229 186.912 279.461 186.912C280.613 186.912 281.253 186.336 281.253 185.616C281.253 183.664 276.069 184.8 276.069 181.536C276.069 180.192 277.333 179.088 279.285 179.088C281.221 179.088 282.501 180.128 282.597 181.84H281.141C281.077 180.96 280.405 180.32 279.237 180.32C278.165 180.32 277.525 180.832 277.525 181.536C277.525 183.616 282.613 182.48 282.677 185.616ZM288.46 180.32C287.036 180.32 285.852 181.264 285.692 182.976H291.228C291.244 181.264 289.964 180.32 288.46 180.32ZM292.556 185.296C292.108 186.896 290.7 188.144 288.524 188.144C286.028 188.144 284.188 186.384 284.188 183.6C284.188 180.832 285.964 179.088 288.524 179.088C291.068 179.088 292.732 180.88 292.732 183.28C292.732 183.6 292.716 183.856 292.684 184.16H285.676C285.788 185.936 287.036 186.912 288.524 186.912C289.836 186.912 290.668 186.24 290.988 185.296H292.556ZM294.974 185.6V180.432H293.838V179.232H294.974V177.024H296.43V179.232H298.718V180.432H296.43V185.6C296.43 186.464 296.75 186.768 297.646 186.768H298.718V188H297.406C295.854 188 294.974 187.36 294.974 185.6ZM306.786 185.616C306.786 187.056 305.522 188.144 303.586 188.144C301.538 188.144 300.098 187.024 300.002 185.424H301.506C301.586 186.272 302.338 186.912 303.57 186.912C304.722 186.912 305.362 186.336 305.362 185.616C305.362 183.664 300.178 184.8 300.178 181.536C300.178 180.192 301.442 179.088 303.394 179.088C305.33 179.088 306.61 180.128 306.706 181.84H305.25C305.186 180.96 304.514 180.32 303.346 180.32C302.274 180.32 301.634 180.832 301.634 181.536C301.634 183.616 306.722 182.48 306.786 185.616Z" fill="white"/>
<defs>
<linearGradient id="paint0_linear_2104_5436" x1="341" y1="209.765" x2="-22.3177" y2="149.27" gradientUnits="userSpaceOnUse">
<stop offset="0.254808" stop-color="#464646"/>
<stop offset="1" stop-color="#43430D"/>
</linearGradient>
<linearGradient id="paint1_linear_2104_5436" x1="97.5345" y1="1.20688e-06" x2="291.398" y2="170.5" gradientUnits="userSpaceOnUse">
<stop stop-color="#9F9F00"/>
<stop offset="0.509615" stop-color="#4D4D00"/>
</linearGradient>
</defs>
</svg>
