<svg width="332" height="225" viewBox="0 0 332 225" fill="none" xmlns="http://www.w3.org/2000/svg">
<path d="M10 0.5H322C327.247 0.5 331.5 4.75329 331.5 10V215C331.5 220.247 327.247 224.5 322 224.5H10C4.7533 224.5 0.5 220.247 0.5 215V10C0.5 4.7533 4.7533 0.5 10 0.5Z" fill="url(#paint0_linear_2104_5462)" fill-opacity="0.6"/>
<path d="M10 0.5H322C327.247 0.5 331.5 4.75329 331.5 10V215C331.5 220.247 327.247 224.5 322 224.5H10C4.7533 224.5 0.5 220.247 0.5 215V10C0.5 4.7533 4.7533 0.5 10 0.5Z" stroke="url(#paint1_linear_2104_5462)"/>
<rect x="24" y="32" width="74" height="74" rx="37" stroke="#FFFF00" stroke-width="1.5"/>
<path fill-rule="evenodd" clip-rule="evenodd" d="M63.6019 56.3182C66.4197 57.3034 68.5062 59.8442 68.8339 62.9107C68.8538 63.0966 68.7938 63.2821 68.6689 63.4211C68.5439 63.5601 68.3657 63.6395 68.1789 63.6395H53.8213C53.6344 63.6395 53.4562 63.56 53.3312 63.4209C53.2063 63.2818 53.1463 63.0962 53.1663 62.9104C53.4955 59.8443 55.5821 57.304 58.3984 56.3186C57.3622 55.5302 56.6912 54.284 56.6912 52.8865C56.6912 50.5133 58.6259 48.5767 60.9991 48.5767C63.3746 48.5767 65.309 50.5134 65.309 52.8865C65.309 54.2838 64.6383 55.5298 63.6019 56.3182ZM60.9991 57.1963C57.8698 57.1968 55.252 59.3889 54.5966 62.3219H67.404C66.75 59.3886 64.1316 57.1963 61.0001 57.1963H60.9991ZM61.0001 55.8786C62.6488 55.8782 63.9913 54.5337 63.9913 52.8865C63.9913 51.2389 62.6483 49.8943 60.9991 49.8943C59.3516 49.8943 58.0089 51.239 58.0089 52.8865C58.0089 54.534 59.3516 55.8786 60.9991 55.8786H61.0001ZM69.0178 68.3414H78.2493C79.0268 68.3414 79.6572 67.711 79.6572 66.9335V56.8978C79.6572 56.1203 79.0268 55.4899 78.2493 55.4899H67.3147C66.9511 55.4899 66.6558 55.1948 66.6558 54.8311C66.6558 54.4675 66.9511 54.1723 67.3147 54.1723H78.2493C79.7545 54.1723 80.9748 55.3926 80.9748 56.8978V66.9335C80.9748 68.4388 79.7545 69.659 78.2493 69.659H69.0178L69.595 70.2361C69.8521 70.4932 69.8521 70.9108 69.595 71.1679C69.3378 71.425 68.9204 71.425 68.6633 71.1679L66.9615 69.4661C66.7041 69.2088 66.7041 68.7916 66.9615 68.5343L68.6633 66.8325C68.9204 66.5754 69.3378 66.5754 69.595 66.8325C69.8521 67.0896 69.8521 67.5071 69.595 67.7642L69.0178 68.3414ZM56.8392 83.8281H43.7509C42.2457 83.8281 41.0254 82.6078 41.0254 81.1025V71.0668C41.0254 69.5616 42.2457 68.3414 43.7509 68.3414H54.3834C54.747 68.3414 55.0423 68.6366 55.0423 69.0002C55.0423 69.3638 54.747 69.659 54.3834 69.659H43.7509C42.9734 69.659 42.343 70.2893 42.343 71.0668V81.1025C42.343 81.8801 42.9734 82.5104 43.7509 82.5104H56.8392L56.2621 81.9332C56.005 81.6761 56.005 81.2587 56.2621 81.0016C56.5192 80.7444 56.9366 80.7444 57.1938 81.0016L58.8957 82.7034C59.1529 82.9607 59.1529 83.3778 58.8957 83.635L57.1938 85.337C56.9366 85.5941 56.5192 85.5941 56.2621 85.337C56.005 85.0798 56.005 84.6623 56.2621 84.4052L56.8392 83.8281ZM61.425 88.1061H62.2955C62.6591 88.1061 62.9543 88.4013 62.9543 88.7649C62.9543 89.1285 62.6591 89.4237 62.2955 89.4237H59.2368C58.8733 89.4237 58.578 89.1285 58.578 88.7649C58.578 88.4013 58.8733 88.1061 59.2368 88.1061H60.1073V77.2199C60.1052 77.1082 60.1314 76.9946 60.1892 76.8898L60.1893 76.8897C60.3648 76.5711 60.7654 76.4552 61.084 76.6308L66.6955 79.7234C66.9057 79.8392 67.0363 80.0603 67.0363 80.3003C67.0363 80.5405 66.9057 80.7615 66.6955 80.8774L61.425 83.782V88.1061ZM61.425 78.3232V82.2775C62.7659 81.5386 65.0126 80.3003 65.0126 80.3003L61.425 78.3232ZM61.0001 65.3383C63.0211 65.3383 64.662 66.9792 64.662 69.0002C64.662 71.0212 63.0211 72.6621 61.0001 72.6621C58.9791 72.6621 57.3382 71.0212 57.3382 69.0002C57.3382 66.9792 58.9791 65.3383 61.0001 65.3383ZM61.0001 66.6559C59.7063 66.6559 58.6558 67.7063 58.6558 69.0002C58.6558 70.294 59.7063 71.3444 61.0001 71.3444C62.2939 71.3444 63.3444 70.294 63.3444 69.0002C63.3444 67.7063 62.2939 66.6559 61.0001 66.6559Z" fill="#FFFF00"/>
<path d="M32.2953 140.9C34.5033 140.9 36.3433 141.674 37.8153 143.223C39.3026 144.772 40.0463 146.681 40.0463 148.95C40.0463 151.219 39.3026 153.128 37.8153 154.677C36.3433 156.226 34.5033 157 32.2953 157H25.9013V140.9H32.2953ZM32.2953 153.964C33.6906 153.964 34.8253 153.504 35.6993 152.584C36.5733 151.649 37.0103 150.437 37.0103 148.95C37.0103 147.463 36.5733 146.259 35.6993 145.339C34.8253 144.404 33.6906 143.936 32.2953 143.936H29.0753V153.964H32.2953ZM44.6667 152.469C45.0654 153.91 46.1464 154.631 47.9097 154.631C49.0444 154.631 49.9031 154.248 50.4857 153.481L52.8777 154.861C51.7431 156.502 50.0717 157.322 47.8637 157.322C45.9624 157.322 44.4367 156.747 43.2867 155.597C42.1367 154.447 41.5617 152.998 41.5617 151.25C41.5617 149.517 42.1291 148.076 43.2637 146.926C44.3984 145.761 45.8551 145.178 47.6337 145.178C49.3204 145.178 50.7081 145.761 51.7967 146.926C52.9007 148.091 53.4527 149.533 53.4527 151.25C53.4527 151.633 53.4144 152.04 53.3377 152.469H44.6667ZM44.6207 150.169H50.4857C50.3171 149.387 49.9644 148.804 49.4277 148.421C48.9064 148.038 48.3084 147.846 47.6337 147.846C46.8364 147.846 46.1771 148.053 45.6557 148.467C45.1344 148.866 44.7894 149.433 44.6207 150.169ZM65.2841 145.5V157H62.3171V148.352H58.9361V157H55.9691V148.352H54.3131V145.5H55.9691V145.385C55.9691 142.18 57.7707 140.578 61.3741 140.578C62.1867 140.578 63.0837 140.685 64.0651 140.9V143.614C63.0377 143.491 62.1407 143.43 61.3741 143.43C60.5461 143.43 59.9327 143.576 59.5341 143.867C59.1354 144.143 58.9361 144.649 58.9361 145.385V145.5H65.2841ZM74.3838 145.178C75.6411 145.178 76.6761 145.6 77.4888 146.443C78.3168 147.286 78.7308 148.452 78.7308 149.939V157H75.7638V150.307C75.7638 149.54 75.5568 148.958 75.1428 148.559C74.7288 148.145 74.1768 147.938 73.4868 147.938C72.7201 147.938 72.1068 148.176 71.6468 148.651C71.1868 149.126 70.9568 149.839 70.9568 150.79V157H67.9898V145.5H70.9568V146.788C71.6775 145.715 72.8198 145.178 74.3838 145.178ZM83.7712 152.469C84.1699 153.91 85.2509 154.631 87.0142 154.631C88.1489 154.631 89.0076 154.248 89.5902 153.481L91.9822 154.861C90.8476 156.502 89.1762 157.322 86.9682 157.322C85.0669 157.322 83.5412 156.747 82.3912 155.597C81.2412 154.447 80.6662 152.998 80.6662 151.25C80.6662 149.517 81.2336 148.076 82.3682 146.926C83.5029 145.761 84.9596 145.178 86.7382 145.178C88.4249 145.178 89.8126 145.761 90.9012 146.926C92.0052 148.091 92.5572 149.533 92.5572 151.25C92.5572 151.633 92.5189 152.04 92.4422 152.469H83.7712ZM83.7252 150.169H89.5902C89.4216 149.387 89.0689 148.804 88.5322 148.421C88.0109 148.038 87.4129 147.846 86.7382 147.846C85.9409 147.846 85.2816 148.053 84.7602 148.467C84.2389 148.866 83.8939 149.433 83.7252 150.169ZM110.866 157L109.9 154.102H103.483L102.517 157H99.0905L104.725 140.9H108.658L114.316 157H110.866ZM104.495 151.135H108.911L106.703 144.557L104.495 151.135ZM124.236 145.5H127.134V156.448C127.134 158.227 126.544 159.584 125.363 160.519C124.198 161.454 122.787 161.922 121.131 161.922C119.889 161.922 118.793 161.684 117.842 161.209C116.907 160.734 116.186 160.036 115.68 159.116L118.21 157.667C118.793 158.74 119.797 159.277 121.223 159.277C122.159 159.277 122.895 159.032 123.431 158.541C123.968 158.05 124.236 157.353 124.236 156.448V155.206C123.362 156.371 122.136 156.954 120.556 156.954C118.931 156.954 117.566 156.387 116.462 155.252C115.374 154.102 114.829 152.707 114.829 151.066C114.829 149.441 115.381 148.053 116.485 146.903C117.589 145.753 118.946 145.178 120.556 145.178C122.136 145.178 123.362 145.761 124.236 146.926V145.5ZM118.693 153.343C119.307 153.926 120.081 154.217 121.016 154.217C121.952 154.217 122.718 153.926 123.316 153.343C123.93 152.745 124.236 151.986 124.236 151.066C124.236 150.161 123.93 149.418 123.316 148.835C122.718 148.237 121.952 147.938 121.016 147.938C120.081 147.938 119.307 148.237 118.693 148.835C118.095 149.418 117.796 150.161 117.796 151.066C117.796 151.986 118.095 152.745 118.693 153.343ZM132.332 152.469C132.73 153.91 133.811 154.631 135.575 154.631C136.709 154.631 137.568 154.248 138.151 153.481L140.543 154.861C139.408 156.502 137.737 157.322 135.529 157.322C133.627 157.322 132.102 156.747 130.952 155.597C129.802 154.447 129.227 152.998 129.227 151.25C129.227 149.517 129.794 148.076 130.929 146.926C132.063 145.761 133.52 145.178 135.299 145.178C136.985 145.178 138.373 145.761 139.462 146.926C140.566 148.091 141.118 149.533 141.118 151.25C141.118 151.633 141.079 152.04 141.003 152.469H132.332ZM132.286 150.169H138.151C137.982 149.387 137.629 148.804 137.093 148.421C136.571 148.038 135.973 147.846 135.299 147.846C134.501 147.846 133.842 148.053 133.321 148.467C132.799 148.866 132.454 149.433 132.286 150.169ZM149.583 145.178C150.84 145.178 151.875 145.6 152.688 146.443C153.516 147.286 153.93 148.452 153.93 149.939V157H150.963V150.307C150.963 149.54 150.756 148.958 150.342 148.559C149.928 148.145 149.376 147.938 148.686 147.938C147.919 147.938 147.306 148.176 146.846 148.651C146.386 149.126 146.156 149.839 146.156 150.79V157H143.189V145.5H146.156V146.788C146.877 145.715 148.019 145.178 149.583 145.178ZM163.041 148.352H160.442V153.136C160.442 153.535 160.542 153.826 160.741 154.01C160.941 154.194 161.232 154.301 161.615 154.332C161.999 154.347 162.474 154.34 163.041 154.309V157C161.002 157.23 159.561 157.038 158.717 156.425C157.889 155.812 157.475 154.715 157.475 153.136V148.352H155.474V145.5H157.475V143.177L160.442 142.28V145.5H163.041V148.352ZM187.002 148.352V149.594C187.002 151.894 186.266 153.757 184.794 155.183C183.322 156.609 181.421 157.322 179.09 157.322C176.606 157.322 174.544 156.517 172.903 154.907C171.278 153.282 170.465 151.304 170.465 148.973C170.465 146.627 171.27 144.641 172.88 143.016C174.505 141.391 176.514 140.578 178.906 140.578C180.409 140.578 181.781 140.923 183.023 141.613C184.265 142.288 185.231 143.192 185.921 144.327L183.207 145.891C182.824 145.232 182.241 144.695 181.459 144.281C180.692 143.867 179.834 143.66 178.883 143.66C177.35 143.66 176.085 144.166 175.088 145.178C174.107 146.175 173.616 147.44 173.616 148.973C173.616 150.491 174.114 151.748 175.111 152.745C176.123 153.726 177.457 154.217 179.113 154.217C180.34 154.217 181.352 153.949 182.149 153.412C182.962 152.86 183.514 152.109 183.805 151.158H178.929V148.352H187.002ZM198.92 155.574C197.739 156.739 196.298 157.322 194.596 157.322C192.894 157.322 191.452 156.739 190.272 155.574C189.106 154.393 188.524 152.952 188.524 151.25C188.524 149.548 189.106 148.114 190.272 146.949C191.452 145.768 192.894 145.178 194.596 145.178C196.298 145.178 197.739 145.768 198.92 146.949C200.1 148.114 200.691 149.548 200.691 151.25C200.691 152.952 200.1 154.393 198.92 155.574ZM192.365 153.527C192.963 154.125 193.706 154.424 194.596 154.424C195.485 154.424 196.229 154.125 196.827 153.527C197.425 152.929 197.724 152.17 197.724 151.25C197.724 150.33 197.425 149.571 196.827 148.973C196.229 148.375 195.485 148.076 194.596 148.076C193.706 148.076 192.963 148.375 192.365 148.973C191.782 149.571 191.491 150.33 191.491 151.25C191.491 152.17 191.782 152.929 192.365 153.527ZM211.518 145.5H214.485V157H211.518V155.643C210.629 156.762 209.379 157.322 207.769 157.322C206.236 157.322 204.917 156.739 203.813 155.574C202.724 154.393 202.18 152.952 202.18 151.25C202.18 149.548 202.724 148.114 203.813 146.949C204.917 145.768 206.236 145.178 207.769 145.178C209.379 145.178 210.629 145.738 211.518 146.857V145.5ZM206.044 153.596C206.642 154.194 207.401 154.493 208.321 154.493C209.241 154.493 210 154.194 210.598 153.596C211.211 152.983 211.518 152.201 211.518 151.25C211.518 150.299 211.211 149.525 210.598 148.927C210 148.314 209.241 148.007 208.321 148.007C207.401 148.007 206.642 148.314 206.044 148.927C205.446 149.525 205.147 150.299 205.147 151.25C205.147 152.201 205.446 152.983 206.044 153.596ZM217.175 157V140.21H220.142V157H217.175ZM225.505 148.766C225.505 149.073 225.704 149.326 226.103 149.525C226.517 149.709 227.015 149.878 227.598 150.031C228.181 150.169 228.763 150.353 229.346 150.583C229.929 150.798 230.419 151.166 230.818 151.687C231.232 152.208 231.439 152.86 231.439 153.642C231.439 154.823 230.994 155.735 230.105 156.379C229.231 157.008 228.135 157.322 226.816 157.322C224.455 157.322 222.845 156.41 221.986 154.585L224.562 153.136C224.899 154.133 225.651 154.631 226.816 154.631C227.874 154.631 228.403 154.301 228.403 153.642C228.403 153.335 228.196 153.09 227.782 152.906C227.383 152.707 226.893 152.53 226.31 152.377C225.727 152.224 225.145 152.032 224.562 151.802C223.979 151.572 223.481 151.212 223.067 150.721C222.668 150.215 222.469 149.586 222.469 148.835C222.469 147.7 222.883 146.811 223.711 146.167C224.554 145.508 225.597 145.178 226.839 145.178C227.774 145.178 228.625 145.393 229.392 145.822C230.159 146.236 230.764 146.834 231.209 147.616L228.679 148.996C228.311 148.214 227.698 147.823 226.839 147.823C226.456 147.823 226.134 147.907 225.873 148.076C225.628 148.245 225.505 148.475 225.505 148.766ZM252.849 156.08L250.319 157.529L248.847 155.942C247.605 156.862 246.163 157.322 244.523 157.322C242.867 157.322 241.51 156.893 240.452 156.034C239.409 155.16 238.888 153.995 238.888 152.538C238.888 151.587 239.118 150.706 239.578 149.893C240.038 149.08 240.705 148.421 241.579 147.915C241.057 147.087 240.797 146.19 240.797 145.224C240.797 143.859 241.272 142.748 242.223 141.889C243.173 141.015 244.377 140.578 245.834 140.578C246.984 140.578 248.011 140.877 248.916 141.475C249.836 142.058 250.518 142.909 250.963 144.028L248.249 145.592C247.804 144.304 247.014 143.66 245.88 143.66C245.328 143.66 244.868 143.821 244.5 144.143C244.147 144.465 243.971 144.871 243.971 145.362C243.971 145.791 244.07 146.182 244.27 146.535C244.484 146.888 244.822 147.309 245.282 147.8L248.732 151.572C249.069 150.851 249.33 149.962 249.514 148.904L252.182 150.422C251.89 151.664 251.423 152.791 250.779 153.803L252.849 156.08ZM244.73 154.401C245.527 154.401 246.24 154.209 246.869 153.826L243.396 150.054C243.365 150.023 243.35 150 243.35 149.985C242.506 150.506 242.085 151.25 242.085 152.216C242.085 152.875 242.307 153.404 242.752 153.803C243.212 154.202 243.871 154.401 244.73 154.401ZM270.187 143.936H263.747V147.754H270.003V150.79H263.747V157H260.573V140.9H270.187V143.936ZM272.362 157V140.21H275.329V157H272.362ZM287.843 155.574C286.662 156.739 285.221 157.322 283.519 157.322C281.817 157.322 280.375 156.739 279.195 155.574C278.029 154.393 277.446 152.952 277.446 151.25C277.446 149.548 278.029 148.114 279.195 146.949C280.375 145.768 281.817 145.178 283.519 145.178C285.221 145.178 286.662 145.768 287.843 146.949C289.023 148.114 289.614 149.548 289.614 151.25C289.614 152.952 289.023 154.393 287.843 155.574ZM281.288 153.527C281.886 154.125 282.629 154.424 283.519 154.424C284.408 154.424 285.152 154.125 285.75 153.527C286.348 152.929 286.647 152.17 286.647 151.25C286.647 150.33 286.348 149.571 285.75 148.973C285.152 148.375 284.408 148.076 283.519 148.076C282.629 148.076 281.886 148.375 281.288 148.973C280.705 149.571 280.414 150.33 280.414 151.25C280.414 152.17 280.705 152.929 281.288 153.527ZM304.201 145.5H307.352L303.695 157H300.866L298.75 150.031L296.634 157H293.805L290.148 145.5H293.299L295.254 152.561L297.347 145.5H300.153L302.246 152.584L304.201 145.5Z" fill="white"/>
<path d="M25.0239 182.416C25.0239 179.072 27.4719 176.704 30.5919 176.704C33.0079 176.704 34.9279 177.92 35.7599 180.08H34.0159C33.4079 178.736 32.2239 177.984 30.5919 177.984C28.2559 177.984 26.5119 179.68 26.5119 182.416C26.5119 185.136 28.2559 186.832 30.5919 186.832C32.2239 186.832 33.4079 186.08 34.0159 184.752H35.7599C34.9279 186.896 33.0079 188.096 30.5919 188.096C27.4719 188.096 25.0239 185.76 25.0239 182.416ZM37.9273 188V176.16H39.3833V180.496C39.9593 179.568 41.0473 179.072 42.2793 179.072C44.2313 179.072 45.7833 180.32 45.7833 182.832V188H44.3433V183.04C44.3433 181.248 43.3673 180.336 41.8953 180.336C40.4073 180.336 39.3833 181.264 39.3833 183.152V188H37.9273ZM56.4817 183.6C56.4817 186.384 54.4817 188.144 51.9857 188.144C49.5057 188.144 47.6177 186.384 47.6177 183.6C47.6177 180.832 49.5697 179.088 52.0497 179.088C54.5457 179.088 56.4817 180.832 56.4817 183.6ZM49.1057 183.6C49.1057 185.824 50.4657 186.864 51.9857 186.864C53.5057 186.864 54.9937 185.824 54.9937 183.6C54.9937 181.392 53.5377 180.352 52.0337 180.352C50.4977 180.352 49.1057 181.392 49.1057 183.6ZM66.7161 183.6C66.7161 186.384 64.7161 188.144 62.2201 188.144C59.7401 188.144 57.8521 186.384 57.8521 183.6C57.8521 180.832 59.8041 179.088 62.2841 179.088C64.7801 179.088 66.7161 180.832 66.7161 183.6ZM59.3401 183.6C59.3401 185.824 60.7001 186.864 62.2201 186.864C63.7401 186.864 65.2281 185.824 65.2281 183.6C65.2281 181.392 63.7721 180.352 62.2681 180.352C60.7321 180.352 59.3401 181.392 59.3401 183.6ZM74.9344 185.616C74.9344 187.056 73.6704 188.144 71.7344 188.144C69.6864 188.144 68.2464 187.024 68.1504 185.424H69.6544C69.7344 186.272 70.4864 186.912 71.7184 186.912C72.8704 186.912 73.5104 186.336 73.5104 185.616C73.5104 183.664 68.3264 184.8 68.3264 181.536C68.3264 180.192 69.5904 179.088 71.5424 179.088C73.4784 179.088 74.7584 180.128 74.8544 181.84H73.3984C73.3344 180.96 72.6624 180.32 71.4944 180.32C70.4224 180.32 69.7824 180.832 69.7824 181.536C69.7824 183.616 74.8704 182.48 74.9344 185.616ZM80.7178 180.32C79.2938 180.32 78.1098 181.264 77.9498 182.976H83.4858C83.5018 181.264 82.2218 180.32 80.7178 180.32ZM84.8138 185.296C84.3658 186.896 82.9578 188.144 80.7818 188.144C78.2858 188.144 76.4458 186.384 76.4458 183.6C76.4458 180.832 78.2218 179.088 80.7818 179.088C83.3258 179.088 84.9898 180.88 84.9898 183.28C84.9898 183.6 84.9738 183.856 84.9418 184.16H77.9338C78.0458 185.936 79.2938 186.912 80.7818 186.912C82.0938 186.912 82.9258 186.24 83.2458 185.296H84.8138ZM90.6333 183.584C90.6333 180.848 92.4413 179.088 94.8093 179.088C96.1853 179.088 97.4493 179.792 98.0573 180.8V176.16H99.5293V188H98.0573V186.352C97.5293 187.328 96.3933 188.144 94.7933 188.144C92.4413 188.144 90.6333 186.304 90.6333 183.584ZM98.0573 183.6C98.0573 181.568 96.6813 180.352 95.0813 180.352C93.4813 180.352 92.1213 181.52 92.1213 183.584C92.1213 185.648 93.4813 186.864 95.0813 186.864C96.6813 186.864 98.0573 185.664 98.0573 183.6ZM110.31 183.6C110.31 186.384 108.31 188.144 105.814 188.144C103.334 188.144 101.446 186.384 101.446 183.6C101.446 180.832 103.398 179.088 105.878 179.088C108.374 179.088 110.31 180.832 110.31 183.6ZM102.934 183.6C102.934 185.824 104.294 186.864 105.814 186.864C107.334 186.864 108.822 185.824 108.822 183.6C108.822 181.392 107.366 180.352 105.862 180.352C104.326 180.352 102.934 181.392 102.934 183.6ZM124.88 188V183.04C124.88 181.248 123.92 180.336 122.48 180.336C121.008 180.336 120 181.28 120 183.168V188H118.56V183.04C118.56 181.248 117.6 180.336 116.16 180.336C114.688 180.336 113.68 181.28 113.68 183.168V188H112.224V179.232H113.68V180.496C114.256 179.568 115.296 179.072 116.448 179.072C117.888 179.072 119.088 179.712 119.664 181.024C120.176 179.76 121.424 179.072 122.768 179.072C124.768 179.072 126.32 180.32 126.32 182.832V188H124.88ZM128.165 183.584C128.165 180.848 129.973 179.088 132.325 179.088C133.957 179.088 135.077 179.92 135.589 180.832V179.232H137.061V188H135.589V186.368C135.061 187.312 133.925 188.144 132.309 188.144C129.973 188.144 128.165 186.304 128.165 183.584ZM135.589 183.6C135.589 181.568 134.213 180.352 132.613 180.352C131.013 180.352 129.653 181.52 129.653 183.584C129.653 185.648 131.013 186.864 132.613 186.864C134.213 186.864 135.589 185.664 135.589 183.6ZM139.521 188V179.232H140.977V188H139.521ZM140.273 177.808C139.713 177.808 139.281 177.376 139.281 176.816C139.281 176.256 139.713 175.824 140.273 175.824C140.801 175.824 141.233 176.256 141.233 176.816C141.233 177.376 140.801 177.808 140.273 177.808ZM149.875 188V183.04C149.875 181.248 148.899 180.336 147.427 180.336C145.939 180.336 144.915 181.264 144.915 183.152V188H143.459V179.232H144.915V180.48C145.491 179.568 146.547 179.072 147.731 179.072C149.763 179.072 151.315 180.32 151.315 182.832V188H149.875ZM152.429 190.288L153.597 185.984H155.197L153.405 190.288H152.429ZM161.45 185.6V180.432H160.314V179.232H161.45V177.024H162.906V179.232H165.194V180.432H162.906V185.6C162.906 186.464 163.226 186.768 164.122 186.768H165.194V188H163.882C162.33 188 161.45 187.36 161.45 185.6ZM175.279 183.6C175.279 186.384 173.279 188.144 170.783 188.144C168.303 188.144 166.415 186.384 166.415 183.6C166.415 180.832 168.367 179.088 170.847 179.088C173.343 179.088 175.279 180.832 175.279 183.6ZM167.903 183.6C167.903 185.824 169.263 186.864 170.783 186.864C172.303 186.864 173.791 185.824 173.791 183.6C173.791 181.392 172.335 180.352 170.831 180.352C169.295 180.352 167.903 181.392 167.903 183.6ZM183.609 188V183.04C183.609 181.248 182.633 180.336 181.161 180.336C179.673 180.336 178.649 181.264 178.649 183.152V188H177.193V179.232H178.649V180.48C179.225 179.568 180.281 179.072 181.465 179.072C183.497 179.072 185.049 180.32 185.049 182.832V188H183.609ZM191.155 180.32C189.731 180.32 188.547 181.264 188.387 182.976H193.923C193.939 181.264 192.659 180.32 191.155 180.32ZM195.251 185.296C194.803 186.896 193.395 188.144 191.219 188.144C188.723 188.144 186.883 186.384 186.883 183.6C186.883 180.832 188.659 179.088 191.219 179.088C193.763 179.088 195.427 180.88 195.427 183.28C195.427 183.6 195.411 183.856 195.379 184.16H188.371C188.483 185.936 189.731 186.912 191.219 186.912C192.531 186.912 193.363 186.24 193.683 185.296H195.251ZM196.085 190.288L197.253 185.984H198.853L197.061 190.288H196.085ZM204.243 183.6C204.243 180.848 206.019 179.088 208.515 179.088C210.691 179.088 212.115 180.208 212.563 182.048H210.995C210.691 180.992 209.811 180.32 208.515 180.32C206.915 180.32 205.731 181.456 205.731 183.6C205.731 185.776 206.915 186.912 208.515 186.912C209.811 186.912 210.675 186.288 210.995 185.184H212.563C212.115 186.928 210.691 188.144 208.515 188.144C206.019 188.144 204.243 186.384 204.243 183.6ZM222.825 183.6C222.825 186.384 220.825 188.144 218.329 188.144C215.849 188.144 213.961 186.384 213.961 183.6C213.961 180.832 215.913 179.088 218.393 179.088C220.889 179.088 222.825 180.832 222.825 183.6ZM215.449 183.6C215.449 185.824 216.809 186.864 218.329 186.864C219.849 186.864 221.337 185.824 221.337 183.6C221.337 181.392 219.881 180.352 218.377 180.352C216.841 180.352 215.449 181.392 215.449 183.6ZM231.156 188V183.04C231.156 181.248 230.18 180.336 228.708 180.336C227.22 180.336 226.196 181.264 226.196 183.152V188H224.74V179.232H226.196V180.48C226.772 179.568 227.828 179.072 229.012 179.072C231.044 179.072 232.596 180.32 232.596 182.832V188H231.156ZM235.294 185.6V180.432H234.158V179.232H235.294V177.024H236.75V179.232H239.038V180.432H236.75V185.6C236.75 186.464 237.07 186.768 237.966 186.768H239.038V188H237.726C236.174 188 235.294 187.36 235.294 185.6ZM244.53 180.32C243.106 180.32 241.922 181.264 241.762 182.976H247.298C247.314 181.264 246.034 180.32 244.53 180.32ZM248.626 185.296C248.178 186.896 246.77 188.144 244.594 188.144C242.098 188.144 240.258 186.384 240.258 183.6C240.258 180.832 242.034 179.088 244.594 179.088C247.138 179.088 248.802 180.88 248.802 183.28C248.802 183.6 248.786 183.856 248.754 184.16H241.746C241.858 185.936 243.106 186.912 244.594 186.912C245.906 186.912 246.738 186.24 247.058 185.296H248.626ZM255.3 188L253.22 184.736L251.22 188H249.7L252.532 183.648L249.7 179.232H251.348L253.428 182.48L255.412 179.232H256.932L254.116 183.568L256.948 188H255.3ZM258.7 185.6V180.432H257.564V179.232H258.7V177.024H260.156V179.232H262.444V180.432H260.156V185.6C260.156 186.464 260.476 186.768 261.372 186.768H262.444V188H261.132C259.58 188 258.7 187.36 258.7 185.6ZM269.93 183.232V188H268.474V179.232H269.93V180.656C270.426 179.68 271.37 179.072 272.762 179.072V180.576H272.378C270.986 180.576 269.93 181.2 269.93 183.232ZM282.219 179.232V188H280.763V186.704C280.203 187.616 279.131 188.128 277.963 188.128C275.947 188.128 274.363 186.88 274.363 184.368V179.232H275.803V184.176C275.803 185.952 276.779 186.864 278.251 186.864C279.755 186.864 280.763 185.936 280.763 184.048V179.232H282.219ZM284.677 188V176.16H286.133V188H284.677ZM292.343 180.32C290.919 180.32 289.735 181.264 289.575 182.976H295.111C295.127 181.264 293.847 180.32 292.343 180.32ZM296.439 185.296C295.991 186.896 294.583 188.144 292.407 188.144C289.911 188.144 288.071 186.384 288.071 183.6C288.071 180.832 289.847 179.088 292.407 179.088C294.951 179.088 296.615 180.88 296.615 183.28C296.615 183.6 296.599 183.856 296.567 184.16H289.559C289.671 185.936 290.919 186.912 292.407 186.912C293.719 186.912 294.551 186.24 294.871 185.296H296.439ZM304.841 185.616C304.841 187.056 303.577 188.144 301.641 188.144C299.593 188.144 298.153 187.024 298.057 185.424H299.561C299.641 186.272 300.393 186.912 301.625 186.912C302.777 186.912 303.417 186.336 303.417 185.616C303.417 183.664 298.233 184.8 298.233 181.536C298.233 180.192 299.497 179.088 301.449 179.088C303.385 179.088 304.665 180.128 304.761 181.84H303.305C303.241 180.96 302.569 180.32 301.401 180.32C300.329 180.32 299.689 180.832 299.689 181.536C299.689 183.616 304.777 182.48 304.841 185.616Z" fill="white"/>
<defs>
<linearGradient id="paint0_linear_2104_5462" x1="332" y1="209.765" x2="-22.2264" y2="152.34" gradientUnits="userSpaceOnUse">
<stop offset="0.254808" stop-color="#464646"/>
<stop offset="1" stop-color="#43430D"/>
</linearGradient>
<linearGradient id="paint1_linear_2104_5462" x1="94.9602" y1="1.20688e-06" x2="288.095" y2="165.375" gradientUnits="userSpaceOnUse">
<stop stop-color="#9F9F00"/>
<stop offset="0.509615" stop-color="#4D4D00"/>
</linearGradient>
</defs>
</svg>
