<svg width="374" height="225" viewBox="0 0 374 225" fill="none" xmlns="http://www.w3.org/2000/svg">
<path d="M10 0.5H364C369.247 0.5 373.5 4.7533 373.5 10V215C373.5 220.247 369.247 224.5 364 224.5H10C4.7533 224.5 0.5 220.247 0.5 215V10C0.5 4.7533 4.75329 0.5 10 0.5Z" fill="url(#paint0_linear_2104_5473)" fill-opacity="0.6"/>
<path d="M10 0.5H364C369.247 0.5 373.5 4.7533 373.5 10V215C373.5 220.247 369.247 224.5 364 224.5H10C4.7533 224.5 0.5 220.247 0.5 215V10C0.5 4.7533 4.75329 0.5 10 0.5Z" stroke="url(#paint1_linear_2104_5473)"/>
<rect x="24" y="32" width="74" height="74" rx="37" stroke="#FFFF00" stroke-width="1.5"/>
<path d="M64.9375 86.6336H57.0625L53.4138 80.327H41.3125V51.3667H80.6875V80.327H68.5666L64.9375 86.6336ZM57.6334 85.6689H64.3666L67.7331 79.8414L64.3666 74.0139H57.6334L54.2669 79.8414L57.6334 85.6689ZM68.5666 79.3623H79.7228V59.2023H42.2706V79.3623H53.4269L57.0625 73.0558H64.9375L68.5666 79.3623ZM42.2706 58.2376H79.7294V52.3314H42.2706V58.2376ZM63.9991 85.0389H58.0009L55.0019 79.8479L58.0009 74.6504H63.9991L66.9981 79.8479L63.9991 85.0389ZM58.5588 84.0939H63.4412L65.8891 79.8676L63.4412 75.6348H58.5588L56.1109 79.8676L58.5588 84.0939ZM62.9688 82.4598L61 80.5239L59.0641 82.4598L58.4078 81.8036L60.3438 79.8479L58.4078 77.8792L59.0641 77.2229L61 79.1917L62.9688 77.2229L63.625 77.8792L61.6891 79.8479L63.625 81.7773L62.9688 82.4598ZM60.2322 70.9689L59.3069 70.7326L61.7678 61.2367L62.6931 61.4795L60.2322 70.9689ZM64.9834 69.3676L64.3272 68.7114L66.9062 66.1323L64.2812 63.5401L64.9375 62.8839L68.2188 66.1651L64.9834 69.3676ZM57.0166 69.3676L53.7353 66.0864L57.0166 62.8051L57.6728 63.4614L55.0938 66.1323L57.7188 68.7179L57.0166 69.3676ZM76.5203 55.7636H66.9062V54.8054H76.5203V55.7636ZM53.5844 55.7636H51.5631V54.8054H53.5844V55.7636ZM50.5394 55.7636H48.5312V54.8054H50.5459L50.5394 55.7636ZM47.5009 55.7636H45.4797V54.8054H47.5009V55.7636Z" fill="#FFFF00"/>
<path d="M36.3906 140.9V143.936H32.0436V157H28.8696V143.936H24.5456V140.9H36.3906ZM39.5315 147.478C39.8075 146.742 40.2599 146.19 40.8885 145.822C41.5325 145.454 42.2455 145.27 43.0275 145.27V148.582C42.1229 148.475 41.3102 148.659 40.5895 149.134C39.8842 149.609 39.5315 150.399 39.5315 151.503V157H36.5645V145.5H39.5315V147.478ZM53.076 145.5H56.043V157H53.076V155.643C52.1867 156.762 50.937 157.322 49.327 157.322C47.7937 157.322 46.475 156.739 45.371 155.574C44.2823 154.393 43.738 152.952 43.738 151.25C43.738 149.548 44.2823 148.114 45.371 146.949C46.475 145.768 47.7937 145.178 49.327 145.178C50.937 145.178 52.1867 145.738 53.076 146.857V145.5ZM47.602 153.596C48.2 154.194 48.959 154.493 49.879 154.493C50.799 154.493 51.558 154.194 52.156 153.596C52.7693 152.983 53.076 152.201 53.076 151.25C53.076 150.299 52.7693 149.525 52.156 148.927C51.558 148.314 50.799 148.007 49.879 148.007C48.959 148.007 48.2 148.314 47.602 148.927C47.004 149.525 46.705 150.299 46.705 151.25C46.705 152.201 47.004 152.983 47.602 153.596ZM60.2055 144.12C59.7148 144.12 59.2855 143.944 58.9175 143.591C58.5648 143.223 58.3885 142.794 58.3885 142.303C58.3885 141.812 58.5648 141.383 58.9175 141.015C59.2855 140.647 59.7148 140.463 60.2055 140.463C60.7115 140.463 61.1408 140.647 61.4935 141.015C61.8615 141.383 62.0455 141.812 62.0455 142.303C62.0455 142.794 61.8615 143.223 61.4935 143.591C61.1408 143.944 60.7115 144.12 60.2055 144.12ZM58.7335 157V145.5H61.7005V157H58.7335ZM70.8101 145.178C72.0674 145.178 73.1024 145.6 73.9151 146.443C74.7431 147.286 75.1571 148.452 75.1571 149.939V157H72.1901V150.307C72.1901 149.54 71.9831 148.958 71.5691 148.559C71.1551 148.145 70.6031 147.938 69.9131 147.938C69.1464 147.938 68.5331 148.176 68.0731 148.651C67.6131 149.126 67.3831 149.839 67.3831 150.79V157H64.4161V145.5H67.3831V146.788C68.1037 145.715 69.2461 145.178 70.8101 145.178ZM86.9365 157L82.4285 140.9H85.7635L88.8455 152.837L92.2035 140.9H94.9175L98.2985 152.837L101.38 140.9H104.715L100.207 157H96.5965L93.5605 146.374L90.5475 157H86.9365ZM107.441 144.12C106.95 144.12 106.521 143.944 106.153 143.591C105.8 143.223 105.624 142.794 105.624 142.303C105.624 141.812 105.8 141.383 106.153 141.015C106.521 140.647 106.95 140.463 107.441 140.463C107.947 140.463 108.376 140.647 108.729 141.015C109.097 141.383 109.281 141.812 109.281 142.303C109.281 142.794 109.097 143.223 108.729 143.591C108.376 143.944 107.947 144.12 107.441 144.12ZM105.969 157V145.5H108.936V157H105.969ZM118.229 148.352H115.63V153.136C115.63 153.535 115.73 153.826 115.929 154.01C116.129 154.194 116.42 154.301 116.803 154.332C117.187 154.347 117.662 154.34 118.229 154.309V157C116.19 157.23 114.749 157.038 113.905 156.425C113.077 155.812 112.663 154.715 112.663 153.136V148.352H110.662V145.5H112.663V143.177L115.63 142.28V145.5H118.229V148.352ZM126.715 145.178C127.973 145.178 129.008 145.6 129.82 146.443C130.648 147.286 131.062 148.452 131.062 149.939V157H128.095V150.307C128.095 149.54 127.888 148.958 127.474 148.559C127.06 148.145 126.508 147.938 125.818 147.938C125.052 147.938 124.438 148.176 123.978 148.651C123.518 149.126 123.288 149.839 123.288 150.79V157H120.321V140.9H123.288V146.788C124.009 145.715 125.151 145.178 126.715 145.178ZM143.394 155.574C142.213 156.739 140.772 157.322 139.07 157.322C137.368 157.322 135.926 156.739 134.746 155.574C133.58 154.393 132.998 152.952 132.998 151.25C132.998 149.548 133.58 148.114 134.746 146.949C135.926 145.768 137.368 145.178 139.07 145.178C140.772 145.178 142.213 145.768 143.394 146.949C144.574 148.114 145.165 149.548 145.165 151.25C145.165 152.952 144.574 154.393 143.394 155.574ZM136.839 153.527C137.437 154.125 138.18 154.424 139.07 154.424C139.959 154.424 140.703 154.125 141.301 153.527C141.899 152.929 142.198 152.17 142.198 151.25C142.198 150.33 141.899 149.571 141.301 148.973C140.703 148.375 139.959 148.076 139.07 148.076C138.18 148.076 137.437 148.375 136.839 148.973C136.256 149.571 135.965 150.33 135.965 151.25C135.965 152.17 136.256 152.929 136.839 153.527ZM154.842 145.5H157.809V157H154.842V155.712C154.121 156.785 152.979 157.322 151.415 157.322C150.158 157.322 149.115 156.9 148.287 156.057C147.474 155.214 147.068 154.048 147.068 152.561V145.5H150.035V152.193C150.035 152.96 150.242 153.55 150.656 153.964C151.07 154.363 151.622 154.562 152.312 154.562C153.079 154.562 153.692 154.324 154.152 153.849C154.612 153.374 154.842 152.661 154.842 151.71V145.5ZM167.104 148.352H164.505V153.136C164.505 153.535 164.605 153.826 164.804 154.01C165.004 154.194 165.295 154.301 165.678 154.332C166.062 154.347 166.537 154.34 167.104 154.309V157C165.065 157.23 163.624 157.038 162.78 156.425C161.952 155.812 161.538 154.715 161.538 153.136V148.352H159.537V145.5H161.538V143.177L164.505 142.28V145.5H167.104V148.352ZM182.9 157.322C180.477 157.322 178.476 156.517 176.897 154.907C175.318 153.297 174.528 151.311 174.528 148.95C174.528 146.573 175.318 144.588 176.897 142.993C178.476 141.383 180.477 140.578 182.9 140.578C184.357 140.578 185.698 140.923 186.925 141.613C188.167 142.288 189.133 143.208 189.823 144.373L187.086 145.96C186.687 145.239 186.12 144.68 185.384 144.281C184.648 143.867 183.82 143.66 182.9 143.66C181.336 143.66 180.071 144.151 179.105 145.132C178.154 146.113 177.679 147.386 177.679 148.95C177.679 150.499 178.154 151.764 179.105 152.745C180.071 153.726 181.336 154.217 182.9 154.217C183.82 154.217 184.648 154.018 185.384 153.619C186.135 153.205 186.703 152.645 187.086 151.94L189.823 153.527C189.133 154.692 188.175 155.62 186.948 156.31C185.721 156.985 184.372 157.322 182.9 157.322ZM201.5 155.574C200.32 156.739 198.878 157.322 197.176 157.322C195.474 157.322 194.033 156.739 192.852 155.574C191.687 154.393 191.104 152.952 191.104 151.25C191.104 149.548 191.687 148.114 192.852 146.949C194.033 145.768 195.474 145.178 197.176 145.178C198.878 145.178 200.32 145.768 201.5 146.949C202.681 148.114 203.271 149.548 203.271 151.25C203.271 152.952 202.681 154.393 201.5 155.574ZM194.945 153.527C195.543 154.125 196.287 154.424 197.176 154.424C198.066 154.424 198.809 154.125 199.407 153.527C200.005 152.929 200.304 152.17 200.304 151.25C200.304 150.33 200.005 149.571 199.407 148.973C198.809 148.375 198.066 148.076 197.176 148.076C196.287 148.076 195.543 148.375 194.945 148.973C194.363 149.571 194.071 150.33 194.071 151.25C194.071 152.17 194.363 152.929 194.945 153.527ZM214.075 140.9H217.042V157H214.075V155.643C213.201 156.762 211.959 157.322 210.349 157.322C208.801 157.322 207.474 156.739 206.37 155.574C205.282 154.393 204.737 152.952 204.737 151.25C204.737 149.548 205.282 148.114 206.37 146.949C207.474 145.768 208.801 145.178 210.349 145.178C211.959 145.178 213.201 145.738 214.075 146.857V140.9ZM208.601 153.596C209.215 154.194 209.981 154.493 210.901 154.493C211.821 154.493 212.58 154.194 213.178 153.596C213.776 152.983 214.075 152.201 214.075 151.25C214.075 150.299 213.776 149.525 213.178 148.927C212.58 148.314 211.821 148.007 210.901 148.007C209.981 148.007 209.215 148.314 208.601 148.927C208.003 149.525 207.704 150.299 207.704 151.25C207.704 152.201 208.003 152.983 208.601 153.596ZM221.228 144.12C220.737 144.12 220.308 143.944 219.94 143.591C219.587 143.223 219.411 142.794 219.411 142.303C219.411 141.812 219.587 141.383 219.94 141.015C220.308 140.647 220.737 140.463 221.228 140.463C221.734 140.463 222.163 140.647 222.516 141.015C222.884 141.383 223.068 141.812 223.068 142.303C223.068 142.794 222.884 143.223 222.516 143.591C222.163 143.944 221.734 144.12 221.228 144.12ZM219.756 157V145.5H222.723V157H219.756ZM231.833 145.178C233.09 145.178 234.125 145.6 234.938 146.443C235.766 147.286 236.18 148.452 236.18 149.939V157H233.213V150.307C233.213 149.54 233.006 148.958 232.592 148.559C232.178 148.145 231.626 147.938 230.936 147.938C230.169 147.938 229.556 148.176 229.096 148.651C228.636 149.126 228.406 149.839 228.406 150.79V157H225.439V145.5H228.406V146.788C229.126 145.715 230.269 145.178 231.833 145.178ZM247.522 145.5H250.42V156.448C250.42 158.227 249.83 159.584 248.649 160.519C247.484 161.454 246.073 161.922 244.417 161.922C243.175 161.922 242.079 161.684 241.128 161.209C240.193 160.734 239.472 160.036 238.966 159.116L241.496 157.667C242.079 158.74 243.083 159.277 244.509 159.277C245.444 159.277 246.18 159.032 246.717 158.541C247.254 158.05 247.522 157.353 247.522 156.448V155.206C246.648 156.371 245.421 156.954 243.842 156.954C242.217 156.954 240.852 156.387 239.748 155.252C238.659 154.102 238.115 152.707 238.115 151.066C238.115 149.441 238.667 148.053 239.771 146.903C240.875 145.753 242.232 145.178 243.842 145.178C245.421 145.178 246.648 145.761 247.522 146.926V145.5ZM241.979 153.343C242.592 153.926 243.367 154.217 244.302 154.217C245.237 154.217 246.004 153.926 246.602 153.343C247.215 152.745 247.522 151.986 247.522 151.066C247.522 150.161 247.215 149.418 246.602 148.835C246.004 148.237 245.237 147.938 244.302 147.938C243.367 147.938 242.592 148.237 241.979 148.835C241.381 149.418 241.082 150.161 241.082 151.066C241.082 151.986 241.381 152.745 241.979 153.343Z" fill="white"/>
<path d="M28.8837 176.848C32.5477 176.848 34.8037 178.992 34.8037 182.448C34.8037 185.904 32.5477 188 28.8837 188H25.4117V176.848H28.8837ZM26.8677 186.8H28.8837C31.7957 186.8 33.3157 185.168 33.3157 182.448C33.3157 179.728 31.7957 178.032 28.8837 178.032H26.8677V186.8ZM38.1802 183.232V188H36.7242V179.232H38.1802V180.656C38.6762 179.68 39.6202 179.072 41.0122 179.072V180.576H40.6282C39.2362 180.576 38.1802 181.2 38.1802 183.232ZM42.1489 183.584C42.1489 180.848 43.9569 179.088 46.3089 179.088C47.9409 179.088 49.0609 179.92 49.5729 180.832V179.232H51.0449V188H49.5729V186.368C49.0449 187.312 47.9089 188.144 46.2929 188.144C43.9569 188.144 42.1489 186.304 42.1489 183.584ZM49.5729 183.6C49.5729 181.568 48.1969 180.352 46.5969 180.352C44.9969 180.352 43.6369 181.52 43.6369 183.584C43.6369 185.648 44.9969 186.864 46.5969 186.864C48.1969 186.864 49.5729 185.664 49.5729 183.6ZM52.9614 183.584C52.9614 180.848 54.7694 179.088 57.1214 179.088C58.7214 179.088 59.8734 179.888 60.3854 180.832V179.232H61.8574V188.192C61.8574 190.608 60.2414 192.32 57.6654 192.32C55.3614 192.32 53.7134 191.152 53.4254 189.28H54.8654C55.1854 190.336 56.2254 191.056 57.6654 191.056C59.2174 191.056 60.3854 190.064 60.3854 188.192V186.352C59.8574 187.296 58.7214 188.144 57.1214 188.144C54.7694 188.144 52.9614 186.304 52.9614 183.584ZM60.3854 183.6C60.3854 181.568 59.0094 180.352 57.4094 180.352C55.8094 180.352 54.4494 181.52 54.4494 183.584C54.4494 185.648 55.8094 186.864 57.4094 186.864C59.0094 186.864 60.3854 185.664 60.3854 183.6ZM64.0139 182.752V181.52H70.3979V182.752H64.0139ZM72.5864 183.584C72.5864 180.848 74.3944 179.088 76.7464 179.088C78.3784 179.088 79.4984 179.92 80.0104 180.832V179.232H81.4824V188H80.0104V186.368C79.4824 187.312 78.3464 188.144 76.7304 188.144C74.3944 188.144 72.5864 186.304 72.5864 183.584ZM80.0104 183.6C80.0104 181.568 78.6344 180.352 77.0344 180.352C75.4344 180.352 74.0744 181.52 74.0744 183.584C74.0744 185.648 75.4344 186.864 77.0344 186.864C78.6344 186.864 80.0104 185.664 80.0104 183.6ZM90.3589 188V183.04C90.3589 181.248 89.3829 180.336 87.9109 180.336C86.4229 180.336 85.3989 181.264 85.3989 183.152V188H83.9429V179.232H85.3989V180.48C85.9749 179.568 87.0309 179.072 88.2149 179.072C90.2469 179.072 91.7989 180.32 91.7989 182.832V188H90.3589ZM93.6333 183.584C93.6333 180.848 95.4413 179.088 97.8093 179.088C99.1853 179.088 100.449 179.792 101.057 180.8V176.16H102.529V188H101.057V186.352C100.529 187.328 99.3933 188.144 97.7933 188.144C95.4413 188.144 93.6333 186.304 93.6333 183.584ZM101.057 183.6C101.057 181.568 99.6813 180.352 98.0813 180.352C96.4813 180.352 95.1213 181.52 95.1213 183.584C95.1213 185.648 96.4813 186.864 98.0813 186.864C99.6813 186.864 101.057 185.664 101.057 183.6ZM104.686 182.752V181.52H111.07V182.752H104.686ZM113.258 183.584C113.258 180.848 115.066 179.088 117.434 179.088C118.81 179.088 120.074 179.792 120.682 180.8V176.16H122.154V188H120.682V186.352C120.154 187.328 119.018 188.144 117.418 188.144C115.066 188.144 113.258 186.304 113.258 183.584ZM120.682 183.6C120.682 181.568 119.306 180.352 117.706 180.352C116.106 180.352 114.746 181.52 114.746 183.584C114.746 185.648 116.106 186.864 117.706 186.864C119.306 186.864 120.682 185.664 120.682 183.6ZM126.071 183.232V188H124.615V179.232H126.071V180.656C126.567 179.68 127.511 179.072 128.903 179.072V180.576H128.519C127.127 180.576 126.071 181.2 126.071 183.232ZM138.904 183.6C138.904 186.384 136.904 188.144 134.408 188.144C131.928 188.144 130.04 186.384 130.04 183.6C130.04 180.832 131.992 179.088 134.472 179.088C136.968 179.088 138.904 180.832 138.904 183.6ZM131.528 183.6C131.528 185.824 132.888 186.864 134.408 186.864C135.928 186.864 137.416 185.824 137.416 183.6C137.416 181.392 135.96 180.352 134.456 180.352C132.92 180.352 131.528 181.392 131.528 183.6ZM142.274 180.848C142.802 179.92 143.954 179.088 145.554 179.088C147.906 179.088 149.714 180.848 149.714 183.584C149.714 186.304 147.906 188.144 145.554 188.144C143.954 188.144 142.818 187.28 142.274 186.384V192.16H140.818V179.232H142.274V180.848ZM148.226 183.584C148.226 181.52 146.866 180.352 145.25 180.352C143.666 180.352 142.274 181.568 142.274 183.6C142.274 185.664 143.666 186.864 145.25 186.864C146.866 186.864 148.226 185.648 148.226 183.584ZM155.896 188V179.232H157.352V188H155.896ZM156.648 177.808C156.088 177.808 155.656 177.376 155.656 176.816C155.656 176.256 156.088 175.824 156.648 175.824C157.176 175.824 157.608 176.256 157.608 176.816C157.608 177.376 157.176 177.808 156.648 177.808ZM166.25 188V183.04C166.25 181.248 165.274 180.336 163.802 180.336C162.314 180.336 161.29 181.264 161.29 183.152V188H159.834V179.232H161.29V180.48C161.866 179.568 162.922 179.072 164.106 179.072C166.138 179.072 167.69 180.32 167.69 182.832V188H166.25ZM170.388 185.6V180.432H169.252V179.232H170.388V177.024H171.844V179.232H174.132V180.432H171.844V185.6C171.844 186.464 172.164 186.768 173.06 186.768H174.132V188H172.82C171.268 188 170.388 187.36 170.388 185.6ZM179.624 180.32C178.2 180.32 177.016 181.264 176.856 182.976H182.392C182.408 181.264 181.128 180.32 179.624 180.32ZM183.72 185.296C183.272 186.896 181.864 188.144 179.688 188.144C177.192 188.144 175.352 186.384 175.352 183.6C175.352 180.832 177.128 179.088 179.688 179.088C182.232 179.088 183.896 180.88 183.896 183.28C183.896 183.6 183.88 183.856 183.848 184.16H176.84C176.952 185.936 178.2 186.912 179.688 186.912C181 186.912 181.832 186.24 182.152 185.296H183.72ZM187.274 183.232V188H185.818V179.232H187.274V180.656C187.77 179.68 188.714 179.072 190.106 179.072V180.576H189.722C188.33 180.576 187.274 181.2 187.274 183.232ZM192.059 188V180.432H190.923V179.232H192.059V178.608C192.059 176.656 193.019 175.776 195.259 175.776V176.992C193.947 176.992 193.515 177.472 193.515 178.608V179.232H195.355V180.432H193.515V188H192.059ZM196.508 183.584C196.508 180.848 198.316 179.088 200.668 179.088C202.3 179.088 203.42 179.92 203.932 180.832V179.232H205.404V188H203.932V186.368C203.404 187.312 202.268 188.144 200.652 188.144C198.316 188.144 196.508 186.304 196.508 183.584ZM203.932 183.6C203.932 181.568 202.556 180.352 200.956 180.352C199.356 180.352 197.996 181.52 197.996 183.584C197.996 185.648 199.356 186.864 200.956 186.864C202.556 186.864 203.932 185.664 203.932 183.6ZM207.321 183.6C207.321 180.848 209.097 179.088 211.593 179.088C213.769 179.088 215.193 180.208 215.641 182.048H214.073C213.769 180.992 212.889 180.32 211.593 180.32C209.993 180.32 208.809 181.456 208.809 183.6C208.809 185.776 209.993 186.912 211.593 186.912C212.889 186.912 213.753 186.288 214.073 185.184H215.641C215.193 186.928 213.769 188.144 211.593 188.144C209.097 188.144 207.321 186.384 207.321 183.6ZM221.312 180.32C219.888 180.32 218.704 181.264 218.544 182.976H224.08C224.096 181.264 222.816 180.32 221.312 180.32ZM225.408 185.296C224.96 186.896 223.552 188.144 221.376 188.144C218.88 188.144 217.04 186.384 217.04 183.6C217.04 180.832 218.816 179.088 221.376 179.088C223.92 179.088 225.584 180.88 225.584 183.28C225.584 183.6 225.568 183.856 225.536 184.16H218.528C218.64 185.936 219.888 186.912 221.376 186.912C222.688 186.912 223.52 186.24 223.84 185.296H225.408ZM237.035 190.976H235.515C233.483 188.976 232.267 185.744 232.267 182.144C232.267 178.528 233.483 175.152 235.755 173.056H237.275V173.2C234.811 175.52 233.675 178.88 233.675 182.144C233.675 185.392 234.811 188.544 237.035 190.832V190.976ZM238.493 183.6C238.493 180.848 240.269 179.088 242.765 179.088C244.941 179.088 246.365 180.208 246.813 182.048H245.245C244.941 180.992 244.061 180.32 242.765 180.32C241.165 180.32 239.981 181.456 239.981 183.6C239.981 185.776 241.165 186.912 242.765 186.912C244.061 186.912 244.925 186.288 245.245 185.184H246.813C246.365 186.928 244.941 188.144 242.765 188.144C240.269 188.144 238.493 186.384 238.493 183.6ZM257.075 183.6C257.075 186.384 255.075 188.144 252.579 188.144C250.099 188.144 248.211 186.384 248.211 183.6C248.211 180.832 250.163 179.088 252.643 179.088C255.139 179.088 257.075 180.832 257.075 183.6ZM249.699 183.6C249.699 185.824 251.059 186.864 252.579 186.864C254.099 186.864 255.587 185.824 255.587 183.6C255.587 181.392 254.131 180.352 252.627 180.352C251.091 180.352 249.699 181.392 249.699 183.6ZM271.646 188V183.04C271.646 181.248 270.686 180.336 269.246 180.336C267.774 180.336 266.766 181.28 266.766 183.168V188H265.326V183.04C265.326 181.248 264.366 180.336 262.926 180.336C261.454 180.336 260.446 181.28 260.446 183.168V188H258.99V179.232H260.446V180.496C261.022 179.568 262.062 179.072 263.214 179.072C264.654 179.072 265.854 179.712 266.43 181.024C266.942 179.76 268.19 179.072 269.534 179.072C271.534 179.072 273.086 180.32 273.086 182.832V188H271.646ZM275.474 188V179.232H276.93V188H275.474ZM276.226 177.808C275.666 177.808 275.234 177.376 275.234 176.816C275.234 176.256 275.666 175.824 276.226 175.824C276.754 175.824 277.186 176.256 277.186 176.816C277.186 177.376 276.754 177.808 276.226 177.808ZM285.828 188V183.04C285.828 181.248 284.852 180.336 283.38 180.336C281.892 180.336 280.868 181.264 280.868 183.152V188H279.412V179.232H280.868V180.48C281.444 179.568 282.5 179.072 283.684 179.072C285.716 179.072 287.268 180.32 287.268 182.832V188H285.828ZM289.102 183.584C289.102 180.848 290.91 179.088 293.262 179.088C294.862 179.088 296.014 179.888 296.526 180.832V179.232H297.998V188.192C297.998 190.608 296.382 192.32 293.806 192.32C291.502 192.32 289.854 191.152 289.566 189.28H291.006C291.326 190.336 292.366 191.056 293.806 191.056C295.358 191.056 296.526 190.064 296.526 188.192V186.352C295.998 187.296 294.862 188.144 293.262 188.144C290.91 188.144 289.102 186.304 289.102 183.584ZM296.526 183.6C296.526 181.568 295.15 180.352 293.55 180.352C291.95 180.352 290.59 181.52 290.59 183.584C290.59 185.648 291.95 186.864 293.55 186.864C295.15 186.864 296.526 185.664 296.526 183.6ZM311.028 185.616C311.028 187.056 309.764 188.144 307.828 188.144C305.78 188.144 304.34 187.024 304.244 185.424H305.748C305.828 186.272 306.58 186.912 307.812 186.912C308.964 186.912 309.604 186.336 309.604 185.616C309.604 183.664 304.42 184.8 304.42 181.536C304.42 180.192 305.684 179.088 307.636 179.088C309.572 179.088 310.852 180.128 310.948 181.84H309.492C309.428 180.96 308.756 180.32 307.588 180.32C306.516 180.32 305.876 180.832 305.876 181.536C305.876 183.616 310.964 182.48 311.028 185.616ZM321.404 183.6C321.404 186.384 319.404 188.144 316.908 188.144C314.428 188.144 312.54 186.384 312.54 183.6C312.54 180.832 314.492 179.088 316.972 179.088C319.468 179.088 321.404 180.832 321.404 183.6ZM314.028 183.6C314.028 185.824 315.388 186.864 316.908 186.864C318.428 186.864 319.916 185.824 319.916 183.6C319.916 181.392 318.46 180.352 316.956 180.352C315.42 180.352 314.028 181.392 314.028 183.6ZM331.638 183.6C331.638 186.384 329.638 188.144 327.142 188.144C324.662 188.144 322.774 186.384 322.774 183.6C322.774 180.832 324.726 179.088 327.206 179.088C329.702 179.088 331.638 180.832 331.638 183.6ZM324.262 183.6C324.262 185.824 325.622 186.864 327.142 186.864C328.662 186.864 330.15 185.824 330.15 183.6C330.15 181.392 328.694 180.352 327.19 180.352C325.654 180.352 324.262 181.392 324.262 183.6ZM339.968 188V183.04C339.968 181.248 338.992 180.336 337.52 180.336C336.032 180.336 335.008 181.264 335.008 183.152V188H333.552V179.232H335.008V180.48C335.584 179.568 336.64 179.072 337.824 179.072C339.856 179.072 341.408 180.32 341.408 182.832V188H339.968ZM343.323 190.976V190.832C345.547 188.544 346.683 185.392 346.683 182.144C346.683 178.88 345.547 175.52 343.083 173.2V173.056H344.603C346.875 175.152 348.091 178.528 348.091 182.144C348.091 185.744 346.875 188.976 344.843 190.976H343.323Z" fill="white"/>
<defs>
<linearGradient id="paint0_linear_2104_5473" x1="374" y1="209.765" x2="-22.3081" y2="137.391" gradientUnits="userSpaceOnUse">
<stop offset="0.254808" stop-color="#464646"/>
<stop offset="1" stop-color="#43430D"/>
</linearGradient>
<linearGradient id="paint1_linear_2104_5473" x1="106.973" y1="1.20688e-06" x2="302.31" y2="188.421" gradientUnits="userSpaceOnUse">
<stop stop-color="#9F9F00"/>
<stop offset="0.509615" stop-color="#4D4D00"/>
</linearGradient>
</defs>
</svg>
