<svg width="338" height="225" viewBox="0 0 338 225" fill="none" xmlns="http://www.w3.org/2000/svg">
<path d="M10 0.5H328C333.247 0.5 337.5 4.75329 337.5 10V215C337.5 220.247 333.247 224.5 328 224.5H10C4.7533 224.5 0.5 220.247 0.5 215V10C0.5 4.7533 4.7533 0.5 10 0.5Z" fill="url(#paint0_linear_2104_5485)" fill-opacity="0.6"/>
<path d="M10 0.5H328C333.247 0.5 337.5 4.75329 337.5 10V215C337.5 220.247 333.247 224.5 328 224.5H10C4.7533 224.5 0.5 220.247 0.5 215V10C0.5 4.7533 4.7533 0.5 10 0.5Z" stroke="url(#paint1_linear_2104_5485)"/>
<rect x="24" y="32" width="74" height="74" rx="37" stroke="#FFFF00" stroke-width="1.5"/>
<path d="M47.2188 80.8127C47.1137 80.8127 47.0088 80.7865 46.9038 80.734C46.6938 80.6159 46.5625 80.3927 46.5625 80.1565V72.3602C46.5625 70.444 47.4944 68.6459 49.0431 67.5434L51.4319 65.8371C51.7337 65.6271 52.1406 65.6927 52.3506 65.9946C52.5606 66.2834 52.495 66.7034 52.1931 66.9134L49.8044 68.6196C48.5969 69.4727 47.875 70.864 47.875 72.3602V78.9359L50.7888 76.9934C51.0906 76.7965 51.4975 76.8752 51.6944 77.1771C51.8912 77.479 51.8125 77.8859 51.5106 78.0827L47.5731 80.7077C47.4681 80.7734 47.35 80.8127 47.2188 80.8127Z" fill="#FFFF00"/>
<path d="M74.7818 80.8125C74.6505 80.8125 74.5324 80.7732 74.4143 80.7075L70.4768 78.0825C70.1749 77.8857 70.0961 77.4788 70.293 77.1769C70.4899 76.875 70.8968 76.7963 71.1986 76.9932L74.1255 78.9357V72.36C74.1255 70.8638 73.4036 69.4725 72.1961 68.6194L69.8074 66.9132C69.5186 66.7032 69.4399 66.2963 69.6499 65.9944C69.8599 65.7057 70.2668 65.6269 70.5686 65.8369L72.9574 67.5432C74.5061 68.6457 75.438 70.4438 75.438 72.36V80.1563C75.438 80.3925 75.3068 80.6157 75.0968 80.7338C74.9918 80.7863 74.8868 80.8125 74.7818 80.8125Z" fill="#FFFF00"/>
<path d="M68.8749 76.875H53.1249C52.823 76.875 52.5605 76.6781 52.4949 76.3894C49.3186 64.2356 53.2824 56.6625 55.9205 53.2369C57.9024 50.6644 59.9761 49.3125 60.9999 49.3125C62.1943 49.3125 64.3993 51.0319 66.158 53.3025C68.7961 56.7281 72.7336 64.2881 69.518 76.3894C69.4261 76.6781 69.1768 76.875 68.8749 76.875ZM53.6368 75.5625H68.363C71.2111 64.2881 67.5624 57.2925 65.108 54.1031C63.2049 51.6225 61.4199 50.625 60.9999 50.625C60.5799 50.625 58.8343 51.6094 56.9574 54.0375C54.4899 57.2269 50.828 64.2356 53.6368 75.5625Z" fill="#FFFF00"/>
<path d="M66.25 79.5H55.75C55.4481 79.5 55.1856 79.29 55.12 79.0013L54.4637 76.3763C54.4112 76.1794 54.4637 75.9694 54.5818 75.8119C54.7 75.6544 54.8968 75.5625 55.0937 75.5625H66.9062C67.1031 75.5625 67.3 75.6544 67.4181 75.8119C67.5362 75.9694 67.5887 76.1794 67.5362 76.3763L66.88 79.0013C66.8143 79.29 66.5518 79.5 66.25 79.5ZM56.2618 78.1875H65.7381L66.0662 76.875H55.9337L56.2618 78.1875Z" fill="#FFFF00"/>
<path d="M64.2812 70.3125H57.7188C56.6294 70.3125 55.75 69.4331 55.75 68.3438V63.0938C55.75 62.0044 56.6294 61.125 57.7188 61.125H59.6875C60.055 61.125 60.3438 61.4137 60.3438 61.7812C60.3438 62.1488 60.055 62.4375 59.6875 62.4375H57.7188C57.3513 62.4375 57.0625 62.7262 57.0625 63.0938V68.3438C57.0625 68.7113 57.3513 69 57.7188 69H64.2812C64.6488 69 64.9375 68.7113 64.9375 68.3438V63.0938C64.9375 62.7262 64.6488 62.4375 64.2812 62.4375H61.6562C61.4856 62.4375 61.315 62.3719 61.1969 62.2406C61.0787 62.1094 61 61.9519 61 61.7812V59.8125C61 59.445 61.2888 59.1562 61.6562 59.1562C62.0237 59.1562 62.3125 59.445 62.3125 59.8125V61.125H64.2812C65.3706 61.125 66.25 62.0044 66.25 63.0938V68.3438C66.25 69.4331 65.3706 70.3125 64.2812 70.3125Z" fill="#FFFF00"/>
<path d="M61.6562 67.6875H60.3438C59.9762 67.6875 59.6875 67.3987 59.6875 67.0312C59.6875 66.6637 59.9762 66.375 60.3438 66.375H61.6562C62.0238 66.375 62.3125 66.6637 62.3125 67.0312C62.3125 67.3987 62.0238 67.6875 61.6562 67.6875Z" fill="#FFFF00"/>
<path d="M62.9688 65.1938C62.6012 65.1938 62.3125 64.905 62.3125 64.5375V64.4062C62.3125 64.0387 62.6012 63.75 62.9688 63.75C63.3362 63.75 63.625 64.0387 63.625 64.4062V64.5375C63.625 64.905 63.3362 65.1938 62.9688 65.1938Z" fill="#FFFF00"/>
<path d="M59.0312 65.1938C58.6637 65.1938 58.375 64.905 58.375 64.5375V64.4062C58.375 64.0387 58.6637 63.75 59.0312 63.75C59.3987 63.75 59.6875 64.0387 59.6875 64.4062V64.5375C59.6875 64.905 59.3987 65.1938 59.0312 65.1938Z" fill="#FFFF00"/>
<path d="M61 88.6874C60.8163 88.6743 60.6062 88.5955 60.4881 88.438C60.37 88.2937 57.7188 84.9205 57.7188 82.453C57.7188 82.033 57.7975 81.6262 57.955 81.2324C58.0863 80.8912 58.48 80.7337 58.8081 80.8649C59.1494 80.9962 59.3069 81.3768 59.1756 81.718C59.0837 81.9543 59.0312 82.1905 59.0312 82.453C59.0312 83.7918 60.1862 85.7605 61 86.9287C61.8137 85.7605 62.9688 83.818 62.9688 82.453C62.9688 82.2037 62.9162 81.9543 62.8244 81.718C62.6931 81.3768 62.8506 80.9962 63.1919 80.8649C63.5331 80.7337 63.9137 80.8912 64.045 81.2324C64.2025 81.6262 64.2812 82.033 64.2812 82.453C64.2812 84.9468 61.63 88.2937 61.5119 88.438C61.3937 88.5955 61.1969 88.6874 61 88.6874Z" fill="#FFFF00"/>
<path d="M78.7188 77.0063C78.3512 77.0063 78.0625 76.7175 78.0625 76.35V76.2188C78.0625 75.8512 78.3512 75.5625 78.7188 75.5625C79.0862 75.5625 79.375 75.8512 79.375 76.2188V76.35C79.375 76.7175 79.0862 77.0063 78.7188 77.0063Z" fill="#FFFF00"/>
<path d="M78.7188 74.25C78.3512 74.25 78.0625 73.9613 78.0625 73.5938V63.0938C78.0625 62.7262 78.3512 62.4375 78.7188 62.4375C79.0862 62.4375 79.375 62.7262 79.375 63.0938V73.5938C79.375 73.9613 79.0862 74.25 78.7188 74.25Z" fill="#FFFF00"/>
<path d="M76.0938 66.5063C75.7262 66.5063 75.4375 66.2175 75.4375 65.85V65.7188C75.4375 65.3512 75.7262 65.0625 76.0938 65.0625C76.4612 65.0625 76.75 65.3512 76.75 65.7188V65.85C76.75 66.2175 76.4612 66.5063 76.0938 66.5063Z" fill="#FFFF00"/>
<path d="M76.0938 63.75C75.7262 63.75 75.4375 63.4613 75.4375 63.0938V53.9062C75.4375 53.5387 75.7262 53.25 76.0938 53.25C76.4612 53.25 76.75 53.5387 76.75 53.9062V63.0938C76.75 63.4613 76.4612 63.75 76.0938 63.75Z" fill="#FFFF00"/>
<path d="M68.2188 88.6875C67.8512 88.6875 67.5625 88.3987 67.5625 88.0312V84.0938C67.5625 83.7262 67.8512 83.4375 68.2188 83.4375C68.5862 83.4375 68.875 83.7262 68.875 84.0938V88.0312C68.875 88.3987 68.5862 88.6875 68.2188 88.6875Z" fill="#FFFF00"/>
<path d="M51.1562 86.0625C50.7887 86.0625 50.5 85.7737 50.5 85.4062V81.4688C50.5 81.1012 50.7887 80.8125 51.1562 80.8125C51.5237 80.8125 51.8125 81.1012 51.8125 81.4688V85.4062C51.8125 85.7737 51.5237 86.0625 51.1562 86.0625Z" fill="#FFFF00"/>
<path d="M70.8438 86.0625C70.4762 86.0625 70.1875 85.7737 70.1875 85.4062V81.4688C70.1875 81.1012 70.4762 80.8125 70.8438 80.8125C71.2112 80.8125 71.5 81.1012 71.5 81.4688V85.4062C71.5 85.7737 71.2112 86.0625 70.8438 86.0625Z" fill="#FFFF00"/>
<path d="M61 82.2563C60.6325 82.2563 60.3438 81.9675 60.3438 81.6V81.4688C60.3438 81.1012 60.6325 80.8125 61 80.8125C61.3675 80.8125 61.6562 81.1012 61.6562 81.4688V81.6C61.6562 81.9675 61.3675 82.2563 61 82.2563Z" fill="#FFFF00"/>
<path d="M53.7812 88.6875C53.4137 88.6875 53.125 88.3987 53.125 88.0312V84.0938C53.125 83.7262 53.4137 83.4375 53.7812 83.4375C54.1487 83.4375 54.4375 83.7262 54.4375 84.0938V88.0312C54.4375 88.3987 54.1487 88.6875 53.7812 88.6875Z" fill="#FFFF00"/>
<path d="M43.2812 73.0688C42.9137 73.0688 42.625 72.78 42.625 72.4125V72.2812C42.625 71.9137 42.9137 71.625 43.2812 71.625C43.6487 71.625 43.9375 71.9137 43.9375 72.2812V72.4125C43.9375 72.78 43.6487 73.0688 43.2812 73.0688Z" fill="#FFFF00"/>
<path d="M43.2812 70.3125C42.9137 70.3125 42.625 70.0238 42.625 69.6562V59.1562C42.625 58.7887 42.9137 58.5 43.2812 58.5C43.6487 58.5 43.9375 58.7887 43.9375 59.1562V69.6562C43.9375 70.0238 43.6487 70.3125 43.2812 70.3125Z" fill="#FFFF00"/>
<path d="M45.9062 62.5688C45.5387 62.5688 45.25 62.28 45.25 61.9125V61.7812C45.25 61.4137 45.5387 61.125 45.9062 61.125C46.2737 61.125 46.5625 61.4137 46.5625 61.7812V61.9125C46.5625 62.28 46.2737 62.5688 45.9062 62.5688Z" fill="#FFFF00"/>
<path d="M45.9062 59.8125C45.5387 59.8125 45.25 59.5238 45.25 59.1562V51.2812C45.25 50.9137 45.5387 50.625 45.9062 50.625C46.2737 50.625 46.5625 50.9137 46.5625 51.2812V59.1562C46.5625 59.5238 46.2737 59.8125 45.9062 59.8125Z" fill="#FFFF00"/>
<path d="M58.3742 57.0302C58.348 57.0302 58.3217 57.0302 58.2955 57.0302L57.8492 56.9646C57.4949 56.9121 57.2455 56.5708 57.298 56.2164C57.3505 55.8621 57.6786 55.6127 58.0461 55.6652L58.453 55.7177C58.8074 55.7571 59.0699 56.0852 59.0174 56.4527C58.978 56.7808 58.7024 57.0302 58.3742 57.0302Z" fill="#FFFF00"/>
<path d="M61 57.1877C60.6325 57.1877 60.3438 56.899 60.3438 56.5315C60.3438 56.164 60.6325 55.8752 61 55.8752C63.1394 55.8752 65.1606 55.5602 66.6831 54.9958C67.0244 54.8646 67.405 55.0483 67.5231 55.3765C67.6544 55.7177 67.4706 56.0983 67.1425 56.2165C65.4756 56.8465 63.2969 57.1877 61 57.1877Z" fill="#FFFF00"/>
<path d="M28.9976 153.964H35.1386V157H25.8236V140.9H28.9976V153.964ZM45.3192 145.5H48.2862V157H45.3192V155.643C44.4298 156.762 43.1802 157.322 41.5702 157.322C40.0368 157.322 38.7182 156.739 37.6142 155.574C36.5255 154.393 35.9812 152.952 35.9812 151.25C35.9812 149.548 36.5255 148.114 37.6142 146.949C38.7182 145.768 40.0368 145.178 41.5702 145.178C43.1802 145.178 44.4298 145.738 45.3192 146.857V145.5ZM39.8452 153.596C40.4432 154.194 41.2022 154.493 42.1222 154.493C43.0422 154.493 43.8012 154.194 44.3992 153.596C45.0125 152.983 45.3192 152.201 45.3192 151.25C45.3192 150.299 45.0125 149.525 44.3992 148.927C43.8012 148.314 43.0422 148.007 42.1222 148.007C41.2022 148.007 40.4432 148.314 39.8452 148.927C39.2472 149.525 38.9482 150.299 38.9482 151.25C38.9482 152.201 39.2472 152.983 39.8452 153.596ZM58.5666 145.5H61.5336V157H58.5666V155.712C57.846 156.785 56.7036 157.322 55.1396 157.322C53.8823 157.322 52.8396 156.9 52.0116 156.057C51.199 155.214 50.7926 154.048 50.7926 152.561V145.5H53.7596V152.193C53.7596 152.96 53.9666 153.55 54.3806 153.964C54.7946 154.363 55.3466 154.562 56.0366 154.562C56.8033 154.562 57.4166 154.324 57.8766 153.849C58.3366 153.374 58.5666 152.661 58.5666 151.71V145.5ZM70.645 145.178C71.9024 145.178 72.9374 145.6 73.75 146.443C74.578 147.286 74.992 148.452 74.992 149.939V157H72.025V150.307C72.025 149.54 71.818 148.958 71.404 148.559C70.99 148.145 70.438 147.938 69.748 147.938C68.9814 147.938 68.368 148.176 67.908 148.651C67.448 149.126 67.218 149.839 67.218 150.79V157H64.251V145.5H67.218V146.788C67.9387 145.715 69.081 145.178 70.645 145.178ZM82.9995 157.322C81.2668 157.322 79.8178 156.739 78.6525 155.574C77.5025 154.409 76.9275 152.967 76.9275 151.25C76.9275 149.533 77.5025 148.091 78.6525 146.926C79.8178 145.761 81.2668 145.178 82.9995 145.178C84.1188 145.178 85.1385 145.446 86.0585 145.983C86.9785 146.52 87.6761 147.24 88.1515 148.145L85.5985 149.64C85.3685 149.165 85.0158 148.789 84.5405 148.513C84.0805 148.237 83.5591 148.099 82.9765 148.099C82.0871 148.099 81.3511 148.398 80.7685 148.996C80.1858 149.579 79.8945 150.33 79.8945 151.25C79.8945 152.155 80.1858 152.906 80.7685 153.504C81.3511 154.087 82.0871 154.378 82.9765 154.378C83.5745 154.378 84.1035 154.248 84.5635 153.987C85.0388 153.711 85.3915 153.335 85.6215 152.86L88.1975 154.332C87.6915 155.237 86.9785 155.965 86.0585 156.517C85.1385 157.054 84.1188 157.322 82.9995 157.322ZM96.1607 145.178C97.418 145.178 98.453 145.6 99.2657 146.443C100.094 147.286 100.508 148.452 100.508 149.939V157H97.5407V150.307C97.5407 149.54 97.3337 148.958 96.9197 148.559C96.5057 148.145 95.9537 147.938 95.2637 147.938C94.497 147.938 93.8837 148.176 93.4237 148.651C92.9637 149.126 92.7337 149.839 92.7337 150.79V157H89.7667V140.9H92.7337V146.788C93.4543 145.715 94.5967 145.178 96.1607 145.178ZM121.671 140.9L116.151 150.721V157H113V150.721L107.503 140.9H111.091L114.587 147.616L118.083 140.9H121.671ZM130.583 155.574C129.403 156.739 127.961 157.322 126.259 157.322C124.557 157.322 123.116 156.739 121.935 155.574C120.77 154.393 120.187 152.952 120.187 151.25C120.187 149.548 120.77 148.114 121.935 146.949C123.116 145.768 124.557 145.178 126.259 145.178C127.961 145.178 129.403 145.768 130.583 146.949C131.764 148.114 132.354 149.548 132.354 151.25C132.354 152.952 131.764 154.393 130.583 155.574ZM124.028 153.527C124.626 154.125 125.37 154.424 126.259 154.424C127.149 154.424 127.892 154.125 128.49 153.527C129.088 152.929 129.387 152.17 129.387 151.25C129.387 150.33 129.088 149.571 128.49 148.973C127.892 148.375 127.149 148.076 126.259 148.076C125.37 148.076 124.626 148.375 124.028 148.973C123.446 149.571 123.154 150.33 123.154 151.25C123.154 152.17 123.446 152.929 124.028 153.527ZM142.031 145.5H144.998V157H142.031V155.712C141.311 156.785 140.168 157.322 138.604 157.322C137.347 157.322 136.304 156.9 135.476 156.057C134.664 155.214 134.257 154.048 134.257 152.561V145.5H137.224V152.193C137.224 152.96 137.431 153.55 137.845 153.964C138.259 154.363 138.811 154.562 139.501 154.562C140.268 154.562 140.881 154.324 141.341 153.849C141.801 153.374 142.031 152.661 142.031 151.71V145.5ZM150.683 147.478C150.959 146.742 151.411 146.19 152.04 145.822C152.684 145.454 153.397 145.27 154.179 145.27V148.582C153.274 148.475 152.462 148.659 151.741 149.134C151.036 149.609 150.683 150.399 150.683 151.503V157H147.716V145.5H150.683V147.478ZM171.531 148.651C172.942 149.464 173.647 150.69 173.647 152.331C173.647 153.696 173.164 154.815 172.198 155.689C171.232 156.563 170.044 157 168.633 157H161.802V140.9H168.15C169.53 140.9 170.688 141.329 171.623 142.188C172.574 143.031 173.049 144.112 173.049 145.431C173.049 146.765 172.543 147.838 171.531 148.651ZM168.15 143.867H164.976V147.409H168.15C168.641 147.409 169.047 147.24 169.369 146.903C169.706 146.566 169.875 146.144 169.875 145.638C169.875 145.132 169.714 144.71 169.392 144.373C169.07 144.036 168.656 143.867 168.15 143.867ZM168.633 154.033C169.17 154.033 169.614 153.857 169.967 153.504C170.32 153.136 170.496 152.676 170.496 152.124C170.496 151.587 170.32 151.143 169.967 150.79C169.614 150.422 169.17 150.238 168.633 150.238H164.976V154.033H168.633ZM185.568 155.574C184.387 156.739 182.946 157.322 181.244 157.322C179.542 157.322 178.1 156.739 176.92 155.574C175.754 154.393 175.172 152.952 175.172 151.25C175.172 149.548 175.754 148.114 176.92 146.949C178.1 145.768 179.542 145.178 181.244 145.178C182.946 145.178 184.387 145.768 185.568 146.949C186.748 148.114 187.339 149.548 187.339 151.25C187.339 152.952 186.748 154.393 185.568 155.574ZM179.013 153.527C179.611 154.125 180.354 154.424 181.244 154.424C182.133 154.424 182.877 154.125 183.475 153.527C184.073 152.929 184.372 152.17 184.372 151.25C184.372 150.33 184.073 149.571 183.475 148.973C182.877 148.375 182.133 148.076 181.244 148.076C180.354 148.076 179.611 148.375 179.013 148.973C178.43 149.571 178.139 150.33 178.139 151.25C178.139 152.17 178.43 152.929 179.013 153.527ZM195.757 148.352H193.158V153.136C193.158 153.535 193.257 153.826 193.457 154.01C193.656 154.194 193.947 154.301 194.331 154.332C194.714 154.347 195.189 154.34 195.757 154.309V157C193.717 157.23 192.276 157.038 191.433 156.425C190.605 155.812 190.191 154.715 190.191 153.136V148.352H188.19V145.5H190.191V143.177L193.158 142.28V145.5H195.757V148.352Z" fill="white"/>
<path d="M28.8993 176.848C32.5633 176.848 34.8193 178.992 34.8193 182.448C34.8193 185.904 32.5633 188 28.8993 188H25.4273V176.848H28.8993ZM26.8833 186.8H28.8993C31.8113 186.8 33.3313 185.168 33.3313 182.448C33.3313 179.728 31.8113 178.032 28.8993 178.032H26.8833V186.8ZM40.4678 180.32C39.0438 180.32 37.8598 181.264 37.6998 182.976H43.2358C43.2518 181.264 41.9718 180.32 40.4678 180.32ZM44.5638 185.296C44.1158 186.896 42.7078 188.144 40.5318 188.144C38.0358 188.144 36.1958 186.384 36.1958 183.6C36.1958 180.832 37.9718 179.088 40.5318 179.088C43.0758 179.088 44.7398 180.88 44.7398 183.28C44.7398 183.6 44.7238 183.856 44.6918 184.16H37.6838C37.7958 185.936 39.0438 186.912 40.5318 186.912C41.8438 186.912 42.6758 186.24 42.9958 185.296H44.5638ZM48.1177 180.848C48.6457 179.92 49.7977 179.088 51.3977 179.088C53.7497 179.088 55.5577 180.848 55.5577 183.584C55.5577 186.304 53.7497 188.144 51.3977 188.144C49.7977 188.144 48.6617 187.28 48.1177 186.384V192.16H46.6617V179.232H48.1177V180.848ZM54.0697 183.584C54.0697 181.52 52.7097 180.352 51.0937 180.352C49.5097 180.352 48.1177 181.568 48.1177 183.6C48.1177 185.664 49.5097 186.864 51.0937 186.864C52.7097 186.864 54.0697 185.648 54.0697 183.584ZM57.4742 188V176.16H58.9302V188H57.4742ZM69.7317 183.6C69.7317 186.384 67.7317 188.144 65.2357 188.144C62.7557 188.144 60.8677 186.384 60.8677 183.6C60.8677 180.832 62.8197 179.088 65.2997 179.088C67.7957 179.088 69.7317 180.832 69.7317 183.6ZM62.3557 183.6C62.3557 185.824 63.7157 186.864 65.2357 186.864C66.7557 186.864 68.2437 185.824 68.2437 183.6C68.2437 181.392 66.7877 180.352 65.2837 180.352C63.7477 180.352 62.3557 181.392 62.3557 183.6ZM74.9741 186.336L77.6941 179.232H79.1981L73.9181 192.128H72.4141L74.1421 187.904L70.6061 179.232H72.2221L74.9741 186.336ZM93.2473 183.6C93.2473 186.384 91.2473 188.144 88.7513 188.144C86.2713 188.144 84.3833 186.384 84.3833 183.6C84.3833 180.832 86.3353 179.088 88.8153 179.088C91.3113 179.088 93.2473 180.832 93.2473 183.6ZM85.8713 183.6C85.8713 185.824 87.2313 186.864 88.7513 186.864C90.2713 186.864 91.7593 185.824 91.7593 183.6C91.7593 181.392 90.3033 180.352 88.7993 180.352C87.2633 180.352 85.8713 181.392 85.8713 183.6ZM101.578 188V183.04C101.578 181.248 100.602 180.336 99.1297 180.336C97.6417 180.336 96.6177 181.264 96.6177 183.152V188H95.1617V179.232H96.6177V180.48C97.1937 179.568 98.2497 179.072 99.4337 179.072C101.466 179.072 103.018 180.32 103.018 182.832V188H101.578ZM111.374 188L108.622 179.232H110.11L112.126 186.592L114.302 179.232H115.79L117.918 186.608L119.902 179.232H121.342L118.606 188H117.102L114.99 181.04L112.878 188H111.374ZM126.515 180.32C125.091 180.32 123.907 181.264 123.747 182.976H129.283C129.299 181.264 128.019 180.32 126.515 180.32ZM130.611 185.296C130.163 186.896 128.755 188.144 126.579 188.144C124.083 188.144 122.243 186.384 122.243 183.6C122.243 180.832 124.019 179.088 126.579 179.088C129.123 179.088 130.787 180.88 130.787 183.28C130.787 183.6 130.771 183.856 130.739 184.16H123.731C123.843 185.936 125.091 186.912 126.579 186.912C127.891 186.912 128.723 186.24 129.043 185.296H130.611ZM134.165 180.864C134.725 179.888 135.893 179.088 137.445 179.088C139.813 179.088 141.605 180.848 141.605 183.584C141.605 186.304 139.797 188.144 137.445 188.144C135.845 188.144 134.709 187.344 134.165 186.384V188H132.709V176.16H134.165V180.864ZM140.117 183.584C140.117 181.52 138.757 180.352 137.141 180.352C135.557 180.352 134.165 181.568 134.165 183.6C134.165 185.664 135.557 186.864 137.141 186.864C138.757 186.864 140.117 185.648 140.117 183.584ZM142.257 190.288L143.425 185.984H145.025L143.233 190.288H142.257ZM150.415 183.584C150.415 180.848 152.223 179.088 154.575 179.088C156.207 179.088 157.327 179.92 157.839 180.832V179.232H159.311V188H157.839V186.368C157.311 187.312 156.175 188.144 154.559 188.144C152.223 188.144 150.415 186.304 150.415 183.584ZM157.839 183.6C157.839 181.568 156.463 180.352 154.863 180.352C153.263 180.352 151.903 181.52 151.903 183.584C151.903 185.648 153.263 186.864 154.863 186.864C156.463 186.864 157.839 185.664 157.839 183.6ZM163.227 180.848C163.755 179.92 164.907 179.088 166.507 179.088C168.859 179.088 170.667 180.848 170.667 183.584C170.667 186.304 168.859 188.144 166.507 188.144C164.907 188.144 163.771 187.28 163.227 186.384V192.16H161.771V179.232H163.227V180.848ZM169.179 183.584C169.179 181.52 167.819 180.352 166.203 180.352C164.619 180.352 163.227 181.568 163.227 183.6C163.227 185.664 164.619 186.864 166.203 186.864C167.819 186.864 169.179 185.648 169.179 183.584ZM174.04 180.848C174.568 179.92 175.72 179.088 177.32 179.088C179.672 179.088 181.48 180.848 181.48 183.584C181.48 186.304 179.672 188.144 177.32 188.144C175.72 188.144 174.584 187.28 174.04 186.384V192.16H172.584V179.232H174.04V180.848ZM179.992 183.584C179.992 181.52 178.632 180.352 177.016 180.352C175.432 180.352 174.04 181.568 174.04 183.6C174.04 185.664 175.432 186.864 177.016 186.864C178.632 186.864 179.992 185.648 179.992 183.584ZM182.132 190.288L183.3 185.984H184.9L183.108 190.288H182.132ZM199.154 183.6C199.154 186.384 197.154 188.144 194.658 188.144C192.178 188.144 190.29 186.384 190.29 183.6C190.29 180.832 192.242 179.088 194.722 179.088C197.218 179.088 199.154 180.832 199.154 183.6ZM191.778 183.6C191.778 185.824 193.138 186.864 194.658 186.864C196.178 186.864 197.666 185.824 197.666 183.6C197.666 181.392 196.21 180.352 194.706 180.352C193.17 180.352 191.778 181.392 191.778 183.6ZM202.524 183.232V188H201.068V179.232H202.524V180.656C203.02 179.68 203.964 179.072 205.356 179.072V180.576H204.972C203.58 180.576 202.524 181.2 202.524 183.232ZM211.302 188V179.232H212.758V188H211.302ZM212.054 177.808C211.494 177.808 211.062 177.376 211.062 176.816C211.062 176.256 211.494 175.824 212.054 175.824C212.582 175.824 213.014 176.256 213.014 176.816C213.014 177.376 212.582 177.808 212.054 177.808ZM221.656 188V183.04C221.656 181.248 220.68 180.336 219.208 180.336C217.72 180.336 216.696 181.264 216.696 183.152V188H215.24V179.232H216.696V180.48C217.272 179.568 218.328 179.072 219.512 179.072C221.544 179.072 223.096 180.32 223.096 182.832V188H221.656ZM225.794 185.6V180.432H224.658V179.232H225.794V177.024H227.25V179.232H229.538V180.432H227.25V185.6C227.25 186.464 227.57 186.768 228.466 186.768H229.538V188H228.226C226.674 188 225.794 187.36 225.794 185.6ZM235.03 180.32C233.606 180.32 232.422 181.264 232.262 182.976H237.798C237.814 181.264 236.534 180.32 235.03 180.32ZM239.126 185.296C238.678 186.896 237.27 188.144 235.094 188.144C232.598 188.144 230.758 186.384 230.758 183.6C230.758 180.832 232.534 179.088 235.094 179.088C237.638 179.088 239.302 180.88 239.302 183.28C239.302 183.6 239.286 183.856 239.254 184.16H232.246C232.358 185.936 233.606 186.912 235.094 186.912C236.406 186.912 237.238 186.24 237.558 185.296H239.126ZM242.68 183.232V188H241.224V179.232H242.68V180.656C243.176 179.68 244.12 179.072 245.512 179.072V180.576H245.128C243.736 180.576 242.68 181.2 242.68 183.232ZM253.609 188V183.04C253.609 181.248 252.633 180.336 251.161 180.336C249.673 180.336 248.649 181.264 248.649 183.152V188H247.193V179.232H248.649V180.48C249.225 179.568 250.281 179.072 251.465 179.072C253.497 179.072 255.049 180.32 255.049 182.832V188H253.609ZM256.883 183.584C256.883 180.848 258.691 179.088 261.043 179.088C262.675 179.088 263.795 179.92 264.307 180.832V179.232H265.779V188H264.307V186.368C263.779 187.312 262.643 188.144 261.027 188.144C258.691 188.144 256.883 186.304 256.883 183.584ZM264.307 183.6C264.307 181.568 262.931 180.352 261.331 180.352C259.731 180.352 258.371 181.52 258.371 183.584C258.371 185.648 259.731 186.864 261.331 186.864C262.931 186.864 264.307 185.664 264.307 183.6ZM268.24 188V176.16H269.696V188H268.24ZM276.763 185.6V180.432H275.627V179.232H276.763V177.024H278.219V179.232H280.507V180.432H278.219V185.6C278.219 186.464 278.539 186.768 279.435 186.768H280.507V188H279.195C277.643 188 276.763 187.36 276.763 185.6ZM290.591 183.6C290.591 186.384 288.591 188.144 286.095 188.144C283.615 188.144 281.727 186.384 281.727 183.6C281.727 180.832 283.679 179.088 286.159 179.088C288.655 179.088 290.591 180.832 290.591 183.6ZM283.215 183.6C283.215 185.824 284.575 186.864 286.095 186.864C287.615 186.864 289.103 185.824 289.103 183.6C289.103 181.392 287.647 180.352 286.143 180.352C284.607 180.352 283.215 181.392 283.215 183.6ZM300.825 183.6C300.825 186.384 298.825 188.144 296.329 188.144C293.849 188.144 291.961 186.384 291.961 183.6C291.961 180.832 293.913 179.088 296.393 179.088C298.889 179.088 300.825 180.832 300.825 183.6ZM293.449 183.6C293.449 185.824 294.809 186.864 296.329 186.864C297.849 186.864 299.337 185.824 299.337 183.6C299.337 181.392 297.881 180.352 296.377 180.352C294.841 180.352 293.449 181.392 293.449 183.6ZM302.74 188V176.16H304.196V188H302.74ZM312.981 185.616C312.981 187.056 311.717 188.144 309.781 188.144C307.733 188.144 306.293 187.024 306.197 185.424H307.701C307.781 186.272 308.533 186.912 309.765 186.912C310.917 186.912 311.557 186.336 311.557 185.616C311.557 183.664 306.373 184.8 306.373 181.536C306.373 180.192 307.637 179.088 309.589 179.088C311.525 179.088 312.805 180.128 312.901 181.84H311.445C311.381 180.96 310.709 180.32 309.541 180.32C308.469 180.32 307.829 180.832 307.829 181.536C307.829 183.616 312.917 182.48 312.981 185.616Z" fill="white"/>
<defs>
<linearGradient id="paint0_linear_2104_5485" x1="338" y1="209.765" x2="-22.2916" y2="150.302" gradientUnits="userSpaceOnUse">
<stop offset="0.254808" stop-color="#464646"/>
<stop offset="1" stop-color="#43430D"/>
</linearGradient>
<linearGradient id="paint1_linear_2104_5485" x1="96.6764" y1="1.20688e-06" x2="290.314" y2="168.803" gradientUnits="userSpaceOnUse">
<stop stop-color="#9F9F00"/>
<stop offset="0.509615" stop-color="#4D4D00"/>
</linearGradient>
</defs>
</svg>
