<svg width="403" height="74" viewBox="0 0 403 74" fill="none" xmlns="http://www.w3.org/2000/svg">
<path d="M10 0.5H393C398.247 0.5 402.5 4.75329 402.5 10V64C402.5 69.2467 398.247 73.5 393 73.5H10C4.75329 73.5 0.5 69.2467 0.5 64V10L0.512695 9.51074C0.767337 4.49142 4.91739 0.5 10 0.5Z" fill="url(#paint0_linear_2104_5601)" fill-opacity="0.5"/>
<path d="M10 0.5H393C398.247 0.5 402.5 4.75329 402.5 10V64C402.5 69.2467 398.247 73.5 393 73.5H10C4.75329 73.5 0.5 69.2467 0.5 64V10L0.512695 9.51074C0.767337 4.49142 4.91739 0.5 10 0.5Z" stroke="url(#paint1_linear_2104_5601)"/>
<g clip-path="url(#clip0_2104_5601)">
<path d="M34.1 54.4998H34.8V56.5578C34.7991 56.8213 34.8706 57.08 35.0068 57.3056C35.1429 57.5312 35.3385 57.7151 35.572 57.8371C35.8056 57.9591 36.0682 58.0146 36.3312 57.9975C36.5941 57.9804 36.8473 57.8913 37.0631 57.7401L41.6922 54.4998H50.2C50.757 54.4998 51.2911 54.2785 51.6849 53.8847C52.0788 53.4909 52.3 52.9567 52.3 52.3998V48.1816C52.531 48.1928 52.7795 48.2005 53.0434 48.2005C53.2534 48.2005 53.4746 48.1956 53.7 48.1851V52.3998C53.7 52.9567 53.9212 53.4909 54.3151 53.8847C54.7089 54.2785 55.243 54.4998 55.8 54.4998H64.3078L68.9369 57.7401C69.1528 57.8912 69.4061 57.98 69.6691 57.9969C69.9321 58.0139 70.1947 57.9582 70.4282 57.8361C70.6617 57.7139 70.8572 57.53 70.9933 57.3043C71.1294 57.0786 71.2009 56.8199 71.2 56.5564V54.4998H71.9C72.457 54.4998 72.9911 54.2785 73.3849 53.8847C73.7787 53.4909 74 52.9567 74 52.3998V39.7998C74 39.2428 73.7787 38.7087 73.3849 38.3149C72.9911 37.921 72.457 37.6998 71.9 37.6998H65.7967C66.1269 36.9549 66.3893 36.1818 66.5807 35.3898L68.029 34.8095C68.3032 34.7041 68.5425 34.5243 68.7201 34.2904C68.8977 34.0564 69.0065 33.7775 69.0342 33.4851C69.1214 32.5641 69.1214 31.6369 69.0342 30.7159C69.0075 30.4242 68.9 30.1458 68.7238 29.9118C68.5476 29.6778 68.3097 29.4977 68.0367 29.3915L66.58 28.8098C66.2432 27.4042 65.6869 26.0605 64.9315 24.8282L65.5433 23.3904C65.6634 23.12 65.7049 22.8212 65.6631 22.5283C65.6212 22.2354 65.4977 21.9601 65.3067 21.7342C64.7207 21.0356 64.0747 20.3896 63.3761 19.8036C63.1508 19.6092 62.8749 19.4828 62.5806 19.4392C62.2863 19.3956 61.9856 19.4365 61.7136 19.5572L60.273 20.1697C59.0404 19.4137 57.6962 18.8569 56.29 18.5198L55.7097 17.0701C55.6039 16.7964 55.424 16.5575 55.1903 16.3801C54.9565 16.2028 54.6781 16.0938 54.386 16.0656C53.4653 15.9775 52.5382 15.9775 51.6175 16.0656C51.3258 16.0926 51.0473 16.2002 50.8132 16.3764C50.5791 16.5525 50.3985 16.7903 50.2917 17.0631L49.71 18.5198C48.3039 18.8564 46.9597 19.4128 45.727 20.1683L44.2892 19.5565C44.0188 19.436 43.7199 19.3944 43.4269 19.4364C43.1339 19.4784 42.8587 19.6023 42.633 19.7938C41.9346 20.3797 41.2886 21.0254 40.7024 21.7237C40.5085 21.9492 40.3824 22.2251 40.3388 22.5193C40.2952 22.8135 40.3358 23.1141 40.456 23.3862L41.0685 24.8268C40.313 26.0595 39.7567 27.4037 39.42 28.8098L37.971 29.3908C37.697 29.496 37.4578 29.6756 37.2802 29.9093C37.1027 30.143 36.9938 30.4216 36.9658 30.7138C36.8784 31.6345 36.8784 32.5615 36.9658 33.4823C36.9924 33.7742 37.0998 34.0528 37.276 34.287C37.4522 34.5212 37.6902 34.7017 37.9633 34.8081L39.4193 35.3912C39.6107 36.1832 39.8731 36.9563 40.2033 37.7012H34.1C33.543 37.7012 33.0089 37.9224 32.6151 38.3163C32.2212 38.7101 32 39.2442 32 39.8012V52.3998C32 52.9567 32.2212 53.4909 32.6151 53.8847C33.0089 54.2785 33.543 54.4998 34.1 54.4998ZM44.9661 37.6998C43.8129 36.0604 43.1959 34.1041 43.2 32.0998C43.2 29.5007 44.2325 27.008 46.0704 25.1701C47.9082 23.3323 50.4009 22.2998 53 22.2998C55.5991 22.2998 58.0918 23.3323 59.9296 25.1701C61.7675 27.008 62.8 29.5007 62.8 32.0998C62.8041 34.1041 62.1871 36.0604 61.0339 37.6998H55.8C55.243 37.6998 54.7089 37.921 54.3151 38.3149C53.9212 38.7087 53.7 39.2428 53.7 39.7998V41.8711C53.234 41.9061 52.766 41.9061 52.3 41.8711V39.7998C52.3 39.2428 52.0788 38.7087 51.6849 38.3149C51.2911 37.921 50.757 37.6998 50.2 37.6998H44.9661ZM52.3 46.7781V43.2781C52.5352 43.2935 52.769 43.3026 53 43.3026C53.231 43.3026 53.4648 43.2935 53.7 43.2781V46.7851C53.2335 46.8061 52.7663 46.8038 52.3 46.7781ZM72.6 39.7998V52.3998C72.6 52.5854 72.5262 52.7635 72.395 52.8948C72.2637 53.026 72.0857 53.0998 71.9 53.0998H70.5C70.3143 53.0998 70.1363 53.1735 70.005 53.3048C69.8737 53.4361 69.8 53.6141 69.8 53.7998V56.5578L69.7391 56.5928L64.9301 53.2265C64.8125 53.1441 64.6725 53.0999 64.529 53.0998H55.8C55.6143 53.0998 55.4363 53.026 55.305 52.8948C55.1737 52.7635 55.1 52.5854 55.1 52.3998V39.7998C55.1 39.6141 55.1737 39.4361 55.305 39.3048C55.4363 39.1735 55.6143 39.0998 55.8 39.0998H71.9C72.0857 39.0998 72.2637 39.1735 72.395 39.3048C72.5262 39.4361 72.6 39.6141 72.6 39.7998ZM40.7073 34.7367C40.6839 34.6235 40.6329 34.5178 40.5588 34.4291C40.4846 34.3405 40.3897 34.2715 40.2824 34.2285L38.4757 33.5054C38.4437 33.4927 38.4158 33.4714 38.3952 33.4439C38.3745 33.4163 38.3619 33.3836 38.3588 33.3493C38.28 32.5135 38.28 31.6721 38.3588 30.8363C38.3645 30.8032 38.379 30.7723 38.4008 30.7468C38.4226 30.7213 38.4509 30.7021 38.4827 30.6914L40.281 29.9704C40.3881 29.9278 40.4829 29.8592 40.557 29.7709C40.631 29.6825 40.6819 29.5772 40.7052 29.4643C41.021 27.9711 41.6101 26.5491 42.4426 25.2699C42.5046 25.1738 42.5422 25.0639 42.552 24.9499C42.5617 24.836 42.5434 24.7213 42.4986 24.6161L41.7433 22.8353C41.7271 22.8031 41.7207 22.7669 41.7246 22.7312C41.7286 22.6954 41.7429 22.6615 41.7657 22.6337C42.3078 21.9885 42.9048 21.3915 43.55 20.8494C43.5778 20.8322 43.6097 20.8227 43.6424 20.8217C43.675 20.8207 43.7074 20.8284 43.7362 20.8438L45.5163 21.5998C45.6214 21.6451 45.7362 21.6637 45.8502 21.654C45.9643 21.6442 46.0742 21.6063 46.1701 21.5438C47.4493 20.7112 48.8713 20.1222 50.3645 19.8064C50.4774 19.7829 50.5827 19.7319 50.6711 19.6579C50.7595 19.5839 50.8283 19.4892 50.8713 19.3822L51.5944 17.5762C51.6071 17.5441 51.6284 17.5162 51.6559 17.4954C51.6835 17.4747 51.7162 17.4619 51.7505 17.4586C52.5863 17.3801 53.4277 17.3801 54.2635 17.4586C54.2965 17.4643 54.3274 17.4789 54.3529 17.5007C54.3784 17.5225 54.3976 17.5507 54.4084 17.5825L55.1287 19.3808C55.1717 19.4878 55.2405 19.5825 55.3289 19.6565C55.4173 19.7305 55.5226 19.7815 55.6355 19.805C57.1288 20.1213 58.5508 20.7108 59.8299 21.5438C59.9259 21.6062 60.0357 21.6439 60.1498 21.6537C60.2638 21.6635 60.3785 21.6449 60.4837 21.5998L62.2645 20.8431C62.2968 20.8273 62.3329 20.821 62.3686 20.8249C62.4043 20.8289 62.4381 20.843 62.4661 20.8655C63.1117 21.4071 63.7088 22.0041 64.2504 22.6498C64.2674 22.6777 64.2769 22.7095 64.2778 22.7421C64.2788 22.7748 64.2713 22.8071 64.256 22.836L63.5 24.6161C63.4552 24.7213 63.4369 24.836 63.4466 24.9499C63.4564 25.0639 63.494 25.1738 63.556 25.2699C64.3885 26.5491 64.9776 27.9711 65.2934 29.4643C65.3167 29.5772 65.3676 29.6825 65.4416 29.7709C65.5157 29.8592 65.6105 29.9278 65.7176 29.9704L67.5243 30.6949C67.5563 30.7074 67.5841 30.7286 67.6047 30.756C67.6254 30.7835 67.638 30.8161 67.6412 30.8503C67.7204 31.6861 67.7204 32.5275 67.6412 33.3633C67.6357 33.3964 67.6212 33.4274 67.5994 33.4529C67.5775 33.4785 67.5492 33.4976 67.5173 33.5082L65.719 34.2285C65.6117 34.2715 65.5168 34.3405 65.4426 34.4291C65.3685 34.5178 65.3175 34.6235 65.2941 34.7367C65.0744 35.7651 64.7231 36.761 64.249 37.6998H62.6922C63.6828 36 64.2032 34.0672 64.2 32.0998C64.2 29.1294 63.02 26.2806 60.9196 24.1802C58.8192 22.0798 55.9704 20.8998 53 20.8998C50.0296 20.8998 47.1808 22.0798 45.0804 24.1802C42.98 26.2806 41.8 29.1294 41.8 32.0998C41.7968 34.0672 42.3172 36 43.3078 37.6998H41.751C41.2774 36.761 40.9266 35.7651 40.7073 34.7367ZM33.4 39.7998C33.4 39.6141 33.4737 39.4361 33.605 39.3048C33.7363 39.1735 33.9143 39.0998 34.1 39.0998H50.2C50.3857 39.0998 50.5637 39.1735 50.695 39.3048C50.8263 39.4361 50.9 39.6141 50.9 39.7998V52.3998C50.9 52.5854 50.8263 52.7635 50.695 52.8948C50.5637 53.026 50.3857 53.0998 50.2 53.0998H41.471C41.3275 53.0999 41.1874 53.1441 41.0699 53.2265L36.2609 56.5928L36.662 57.1668L36.2 56.5564V53.7998C36.2 53.6141 36.1262 53.4361 35.995 53.3048C35.8637 53.1735 35.6857 53.0998 35.5 53.0998H34.1C33.9143 53.0998 33.7363 53.026 33.605 52.8948C33.4737 52.7635 33.4 52.5854 33.4 52.3998V39.7998Z" fill="#FFFF00"/>
<path d="M39.0008 51.7C39.1864 51.7 39.3645 51.6263 39.4958 51.495C39.627 51.3637 39.7008 51.1857 39.7008 51V47.5H43.9008V51C43.9008 51.1857 43.9745 51.3637 44.1058 51.495C44.2371 51.6263 44.4151 51.7 44.6008 51.7C44.7864 51.7 44.9645 51.6263 45.0958 51.495C45.227 51.3637 45.3008 51.1857 45.3008 51V44C45.3008 43.0717 44.932 42.1815 44.2757 41.5251C43.6193 40.8687 42.729 40.5 41.8008 40.5C40.8725 40.5 39.9823 40.8687 39.3259 41.5251C38.6695 42.1815 38.3008 43.0717 38.3008 44V51C38.3008 51.1857 38.3745 51.3637 38.5058 51.495C38.6371 51.6263 38.8151 51.7 39.0008 51.7ZM41.8008 41.9C42.3577 41.9 42.8919 42.1213 43.2857 42.5151C43.6795 42.9089 43.9008 43.443 43.9008 44V46.1H39.7008V44C39.7008 43.443 39.922 42.9089 40.3159 42.5151C40.7097 42.1213 41.2438 41.9 41.8008 41.9Z" fill="#FFFF00"/>
<path d="M60.7 44H61.4371C61.5421 45.7649 62.1788 47.4568 63.2634 48.8531C62.6373 49.4678 61.9146 49.9758 61.1242 50.3567C60.9761 50.4202 60.8544 50.533 60.7798 50.6758C60.7051 50.8187 60.6821 50.9829 60.7145 51.1408C60.7469 51.2987 60.8328 51.4405 60.9577 51.5424C61.0826 51.6443 61.2388 51.7 61.4 51.7C61.4949 51.7004 61.5888 51.6811 61.6758 51.6433C62.6067 51.2004 63.4592 50.6089 64.2 49.8919C64.9409 50.6084 65.7934 51.1994 66.7242 51.6419C66.8111 51.6802 66.905 51.7 67 51.7C67.1612 51.7006 67.3177 51.6454 67.443 51.5439C67.5683 51.4424 67.6547 51.3008 67.6877 51.1429C67.7206 50.9851 67.698 50.8207 67.6237 50.6776C67.5494 50.5344 67.428 50.4213 67.28 50.3574C66.4891 49.9762 65.766 49.468 65.1394 48.8531C66.2228 47.4563 66.8584 45.7646 66.9629 44H67.7C67.8857 44 68.0637 43.9263 68.195 43.795C68.3263 43.6637 68.4 43.4857 68.4 43.3C68.4 43.1143 68.3263 42.9363 68.195 42.805C68.0637 42.6737 67.8857 42.6 67.7 42.6H64.9V41.2C64.9 41.0143 64.8263 40.8363 64.695 40.705C64.5637 40.5737 64.3857 40.5 64.2 40.5C64.0143 40.5 63.8363 40.5737 63.705 40.705C63.5737 40.8363 63.5 41.0143 63.5 41.2V42.6H60.7C60.5143 42.6 60.3363 42.6737 60.205 42.805C60.0737 42.9363 60 43.1143 60 43.3C60 43.4857 60.0737 43.6637 60.205 43.795C60.3363 43.9263 60.5143 44 60.7 44ZM64.2 47.7737C63.4086 46.6644 62.9371 45.359 62.8371 44H65.5629C65.4629 45.359 64.9914 46.6644 64.2 47.7737Z" fill="#FFFF00"/>
</g>
<path d="M91.232 43V31.928H92.8L96.896 41.08L100.992 31.928H102.544V43H101.088V34.744L97.408 43H96.384L92.688 34.728V43H91.232ZM112.789 34.232V43H111.333V41.704C110.773 42.616 109.701 43.128 108.533 43.128C106.517 43.128 104.933 41.88 104.933 39.368V34.232H106.373V39.176C106.373 40.952 107.349 41.864 108.821 41.864C110.325 41.864 111.333 40.936 111.333 39.048V34.232H112.789ZM115.248 43V31.16H116.704V43H115.248ZM119.505 40.6V35.432H118.369V34.232H119.505V32.024H120.961V34.232H123.249V35.432H120.961V40.6C120.961 41.464 121.281 41.768 122.177 41.768H123.249V43H121.937C120.385 43 119.505 42.36 119.505 40.6ZM125.013 43V34.232H126.469V43H125.013ZM125.765 32.808C125.205 32.808 124.773 32.376 124.773 31.816C124.773 31.256 125.205 30.824 125.765 30.824C126.293 30.824 126.725 31.256 126.725 31.816C126.725 32.376 126.293 32.808 125.765 32.808ZM128.951 43V31.16H130.407V43H128.951ZM132.888 43V34.232H134.344V43H132.888ZM133.64 32.808C133.08 32.808 132.648 32.376 132.648 31.816C132.648 31.256 133.08 30.824 133.64 30.824C134.168 30.824 134.6 31.256 134.6 31.816C134.6 32.376 134.168 32.808 133.64 32.808ZM143.242 43V38.04C143.242 36.248 142.266 35.336 140.794 35.336C139.306 35.336 138.282 36.264 138.282 38.152V43H136.826V34.232H138.282V35.48C138.858 34.568 139.914 34.072 141.098 34.072C143.13 34.072 144.682 35.32 144.682 37.832V43H143.242ZM146.516 38.584C146.516 35.848 148.324 34.088 150.676 34.088C152.276 34.088 153.428 34.888 153.94 35.832V34.232H155.412V43.192C155.412 45.608 153.796 47.32 151.22 47.32C148.916 47.32 147.268 46.152 146.98 44.28H148.42C148.74 45.336 149.78 46.056 151.22 46.056C152.772 46.056 153.94 45.064 153.94 43.192V41.352C153.412 42.296 152.276 43.144 150.676 43.144C148.324 43.144 146.516 41.304 146.516 38.584ZM153.94 38.6C153.94 36.568 152.564 35.352 150.964 35.352C149.364 35.352 148.004 36.52 148.004 38.584C148.004 40.648 149.364 41.864 150.964 41.864C152.564 41.864 153.94 40.664 153.94 38.6ZM165.649 34.232V43H164.193V41.704C163.633 42.616 162.561 43.128 161.393 43.128C159.377 43.128 157.793 41.88 157.793 39.368V34.232H159.233V39.176C159.233 40.952 160.209 41.864 161.681 41.864C163.185 41.864 164.193 40.936 164.193 39.048V34.232H165.649ZM167.563 38.584C167.563 35.848 169.371 34.088 171.723 34.088C173.355 34.088 174.475 34.92 174.987 35.832V34.232H176.459V43H174.987V41.368C174.459 42.312 173.323 43.144 171.707 43.144C169.371 43.144 167.563 41.304 167.563 38.584ZM174.987 38.6C174.987 36.568 173.611 35.352 172.011 35.352C170.411 35.352 169.051 36.52 169.051 38.584C169.051 40.648 170.411 41.864 172.011 41.864C173.611 41.864 174.987 40.664 174.987 38.6ZM178.919 43V31.16H180.375V43H178.919ZM192.179 31.72C194.531 31.72 196.483 32.936 197.315 35.08H195.571C194.963 33.784 193.747 33.032 192.179 33.032C189.827 33.032 188.067 34.728 188.067 37.416C188.067 40.088 189.827 41.784 192.179 41.784C194.371 41.784 195.875 40.376 196.099 38.168H191.651V36.984H197.651V38.104C197.395 40.872 195.203 43.096 192.179 43.096C189.043 43.096 186.579 40.76 186.579 37.416C186.579 34.072 189.043 31.72 192.179 31.72ZM207.896 38.6C207.896 41.384 205.896 43.144 203.4 43.144C200.92 43.144 199.032 41.384 199.032 38.6C199.032 35.832 200.984 34.088 203.464 34.088C205.96 34.088 207.896 35.832 207.896 38.6ZM200.52 38.6C200.52 40.824 201.88 41.864 203.4 41.864C204.92 41.864 206.408 40.824 206.408 38.6C206.408 36.392 204.952 35.352 203.448 35.352C201.912 35.352 200.52 36.392 200.52 38.6ZM208.77 34.232H210.338L213.074 41.656L215.794 34.232H217.346L213.906 43H212.21L208.77 34.232ZM222.507 35.32C221.083 35.32 219.899 36.264 219.739 37.976H225.275C225.291 36.264 224.011 35.32 222.507 35.32ZM226.603 40.296C226.155 41.896 224.747 43.144 222.571 43.144C220.075 43.144 218.235 41.384 218.235 38.6C218.235 35.832 220.011 34.088 222.571 34.088C225.115 34.088 226.779 35.88 226.779 38.28C226.779 38.6 226.763 38.856 226.731 39.16H219.723C219.835 40.936 221.083 41.912 222.571 41.912C223.883 41.912 224.715 41.24 225.035 40.296H226.603ZM230.157 38.232V43H228.701V34.232H230.157V35.656C230.653 34.68 231.597 34.072 232.989 34.072V35.576H232.605C231.213 35.576 230.157 36.2 230.157 38.232ZM241.085 43V38.04C241.085 36.248 240.109 35.336 238.637 35.336C237.149 35.336 236.125 36.264 236.125 38.152V43H234.669V34.232H236.125V35.48C236.701 34.568 237.757 34.072 238.941 34.072C240.973 34.072 242.525 35.32 242.525 37.832V43H241.085ZM244.36 38.584C244.36 35.848 246.168 34.088 248.52 34.088C250.152 34.088 251.272 34.92 251.784 35.832V34.232H253.256V43H251.784V41.368C251.256 42.312 250.12 43.144 248.504 43.144C246.168 43.144 244.36 41.304 244.36 38.584ZM251.784 38.6C251.784 36.568 250.408 35.352 248.808 35.352C247.208 35.352 245.848 36.52 245.848 38.584C245.848 40.648 247.208 41.864 248.808 41.864C250.408 41.864 251.784 40.664 251.784 38.6ZM262.132 43V38.04C262.132 36.248 261.156 35.336 259.684 35.336C258.196 35.336 257.172 36.264 257.172 38.152V43H255.716V34.232H257.172V35.48C257.748 34.568 258.804 34.072 259.988 34.072C262.02 34.072 263.572 35.32 263.572 37.832V43H262.132ZM265.407 38.6C265.407 35.848 267.183 34.088 269.679 34.088C271.855 34.088 273.279 35.208 273.727 37.048H272.159C271.855 35.992 270.975 35.32 269.679 35.32C268.079 35.32 266.895 36.456 266.895 38.6C266.895 40.776 268.079 41.912 269.679 41.912C270.975 41.912 271.839 41.288 272.159 40.184H273.727C273.279 41.928 271.855 43.144 269.679 43.144C267.183 43.144 265.407 41.384 265.407 38.6ZM279.397 35.32C277.973 35.32 276.789 36.264 276.629 37.976H282.165C282.181 36.264 280.901 35.32 279.397 35.32ZM283.493 40.296C283.045 41.896 281.637 43.144 279.461 43.144C276.965 43.144 275.125 41.384 275.125 38.6C275.125 35.832 276.901 34.088 279.461 34.088C282.005 34.088 283.669 35.88 283.669 38.28C283.669 38.6 283.653 38.856 283.621 39.16H276.613C276.725 40.936 277.973 41.912 279.461 41.912C280.773 41.912 281.605 41.24 281.925 40.296H283.493ZM296.993 43V37.944H291.313V43H289.857V31.848H291.313V36.744H296.993V31.848H298.449V43H296.993ZM304.647 35.32C303.223 35.32 302.039 36.264 301.879 37.976H307.415C307.431 36.264 306.151 35.32 304.647 35.32ZM308.743 40.296C308.295 41.896 306.887 43.144 304.711 43.144C302.215 43.144 300.375 41.384 300.375 38.6C300.375 35.832 302.151 34.088 304.711 34.088C307.255 34.088 308.919 35.88 308.919 38.28C308.919 38.6 308.903 38.856 308.871 39.16H301.863C301.975 40.936 303.223 41.912 304.711 41.912C306.023 41.912 306.855 41.24 307.175 40.296H308.743ZM310.841 43V31.16H312.297V43H310.841ZM316.235 35.848C316.763 34.92 317.915 34.088 319.515 34.088C321.867 34.088 323.675 35.848 323.675 38.584C323.675 41.304 321.867 43.144 319.515 43.144C317.915 43.144 316.779 42.28 316.235 41.384V47.16H314.779V34.232H316.235V35.848ZM322.187 38.584C322.187 36.52 320.827 35.352 319.211 35.352C317.627 35.352 316.235 36.568 316.235 38.6C316.235 40.664 317.627 41.864 319.211 41.864C320.827 41.864 322.187 40.648 322.187 38.584ZM325.047 38.584C325.047 35.848 326.855 34.088 329.223 34.088C330.599 34.088 331.863 34.792 332.471 35.8V31.16H333.943V43H332.471V41.352C331.943 42.328 330.807 43.144 329.207 43.144C326.855 43.144 325.047 41.304 325.047 38.584ZM332.471 38.6C332.471 36.568 331.095 35.352 329.495 35.352C327.895 35.352 326.535 36.52 326.535 38.584C326.535 40.648 327.895 41.864 329.495 41.864C331.095 41.864 332.471 40.664 332.471 38.6ZM340.132 35.32C338.708 35.32 337.524 36.264 337.364 37.976H342.9C342.916 36.264 341.636 35.32 340.132 35.32ZM344.228 40.296C343.78 41.896 342.372 43.144 340.196 43.144C337.7 43.144 335.86 41.384 335.86 38.6C335.86 35.832 337.636 34.088 340.196 34.088C342.74 34.088 344.404 35.88 344.404 38.28C344.404 38.6 344.388 38.856 344.356 39.16H337.348C337.46 40.936 338.708 41.912 340.196 41.912C341.508 41.912 342.34 41.24 342.66 40.296H344.228ZM352.63 40.616C352.63 42.056 351.366 43.144 349.43 43.144C347.382 43.144 345.942 42.024 345.846 40.424H347.35C347.43 41.272 348.182 41.912 349.414 41.912C350.566 41.912 351.206 41.336 351.206 40.616C351.206 38.664 346.022 39.8 346.022 36.536C346.022 35.192 347.286 34.088 349.238 34.088C351.174 34.088 352.454 35.128 352.55 36.84H351.094C351.03 35.96 350.358 35.32 349.19 35.32C348.118 35.32 347.478 35.832 347.478 36.536C347.478 38.616 352.566 37.48 352.63 40.616ZM354.685 43V31.16H356.141V38.12L359.517 34.232H361.549L357.421 38.6L361.565 43H359.581L356.141 39.128V43H354.685ZM369.223 40.616C369.223 42.056 367.959 43.144 366.023 43.144C363.975 43.144 362.535 42.024 362.439 40.424H363.943C364.023 41.272 364.775 41.912 366.007 41.912C367.159 41.912 367.799 41.336 367.799 40.616C367.799 38.664 362.615 39.8 362.615 36.536C362.615 35.192 363.879 34.088 365.831 34.088C367.767 34.088 369.047 35.128 369.143 36.84H367.687C367.623 35.96 366.951 35.32 365.783 35.32C364.711 35.32 364.071 35.832 364.071 36.536C364.071 38.616 369.159 37.48 369.223 40.616Z" fill="white"/>
<defs>
<linearGradient id="paint0_linear_2104_5601" x1="403" y1="68.9893" x2="78.0486" y2="-125.436" gradientUnits="userSpaceOnUse">
<stop offset="0.254808" stop-color="#464646"/>
<stop offset="1" stop-color="#8C8C4C"/>
</linearGradient>
<linearGradient id="paint1_linear_2104_5601" x1="115.268" y1="3.96931e-07" x2="152.249" y2="116.87" gradientUnits="userSpaceOnUse">
<stop stop-color="#9F9F00"/>
<stop offset="0.509615" stop-color="#4D4D00"/>
</linearGradient>
<clipPath id="clip0_2104_5601">
<rect width="42" height="42" fill="white" transform="translate(32 16)"/>
</clipPath>
</defs>
</svg>
