<svg width="326" height="225" viewBox="0 0 326 225" fill="none" xmlns="http://www.w3.org/2000/svg">
<path d="M10 0.5H316C321.247 0.5 325.5 4.7533 325.5 10V215C325.5 220.247 321.247 224.5 316 224.5H10C4.7533 224.5 0.5 220.247 0.5 215V10C0.5 4.7533 4.7533 0.5 10 0.5Z" fill="url(#paint0_linear_2104_5550)" fill-opacity="0.6"/>
<path d="M10 0.5H316C321.247 0.5 325.5 4.7533 325.5 10V215C325.5 220.247 321.247 224.5 316 224.5H10C4.7533 224.5 0.5 220.247 0.5 215V10C0.5 4.7533 4.7533 0.5 10 0.5Z" stroke="url(#paint1_linear_2104_5550)"/>
<rect x="24" y="32" width="74" height="74" rx="37" stroke="#FFFF00" stroke-width="1.5"/>
<path d="M47.2188 71.625C47.0447 71.625 46.8778 71.5559 46.7547 71.4328C46.6316 71.3097 46.5625 71.1428 46.5625 70.9688V56.5312C46.5635 55.6613 46.9096 54.8273 47.5247 54.2122C48.1398 53.5971 48.9738 53.251 49.8438 53.25H73.4688C74.3387 53.251 75.1727 53.5971 75.7878 54.2122C76.4029 54.8273 76.749 55.6613 76.75 56.5312V57.1875C76.75 57.3615 76.6809 57.5285 76.5578 57.6515C76.4347 57.7746 76.2678 57.8438 76.0938 57.8438C75.9197 57.8438 75.7528 57.7746 75.6297 57.6515C75.5066 57.5285 75.4375 57.3615 75.4375 57.1875V56.5312C75.4375 56.0091 75.2301 55.5083 74.8609 55.1391C74.4917 54.7699 73.9909 54.5625 73.4688 54.5625H49.8438C49.3216 54.5625 48.8208 54.7699 48.4516 55.1391C48.0824 55.5083 47.875 56.0091 47.875 56.5312V70.9688C47.875 71.1428 47.8059 71.3097 47.6828 71.4328C47.5597 71.5559 47.3928 71.625 47.2188 71.625Z" fill="#FFFF00"/>
<path d="M68.2188 80.1562C68.0918 80.1563 67.9675 80.1194 67.8611 80.0503C67.7546 79.9811 67.6705 79.8825 67.6189 79.7664L65.1678 74.25H64.9375C64.7635 74.25 64.5965 74.1809 64.4735 74.0578C64.3504 73.9347 64.2812 73.7678 64.2812 73.5938C64.2812 73.4197 64.3504 73.2528 64.4735 73.1297C64.5965 73.0066 64.7635 72.9375 64.9375 72.9375H65.5938C65.7207 72.9375 65.845 72.9743 65.9514 73.0435C66.0579 73.1127 66.142 73.2113 66.1936 73.3273L68.2188 77.8843L70.2439 73.3273C70.2955 73.2113 70.3796 73.1127 70.4861 73.0435C70.5925 72.9743 70.7168 72.9375 70.8438 72.9375H73.4688C73.9909 72.9375 74.4917 72.7301 74.8609 72.3609C75.2301 71.9917 75.4375 71.4909 75.4375 70.9688V59.1562C75.4375 58.9822 75.5066 58.8153 75.6297 58.6922C75.7528 58.5691 75.9197 58.5 76.0938 58.5C76.2678 58.5 76.4347 58.5691 76.5578 58.6922C76.6809 58.8153 76.75 58.9822 76.75 59.1562V70.9688C76.749 71.8387 76.4029 72.6727 75.7878 73.2878C75.1727 73.9029 74.3387 74.249 73.4688 74.25H71.2697L68.8186 79.7664C68.767 79.8825 68.6829 79.9811 68.5764 80.0503C68.47 80.1194 68.3457 80.1563 68.2188 80.1562Z" fill="#FFFF00"/>
<path d="M61.6567 76.875C61.4826 76.875 61.3157 76.8059 61.1926 76.6828C61.0696 76.5597 61.0004 76.3928 61.0004 76.2188C61.0004 76.0447 61.0696 75.8778 61.1926 75.7547C61.3157 75.6316 61.4826 75.5625 61.6567 75.5625C61.8307 75.5625 61.9977 75.4934 62.1207 75.3703C62.2438 75.2472 62.3129 75.0803 62.3129 74.9062C62.3129 74.7322 62.2438 74.5653 62.1207 74.4422C61.9977 74.3191 61.8307 74.25 61.6567 74.25H57.0629C56.9332 74.25 56.8063 74.2115 56.6984 74.1394C56.5905 74.0672 56.5064 73.9648 56.4568 73.8449C56.4071 73.725 56.3941 73.593 56.4194 73.4658C56.4447 73.3385 56.5072 73.2216 56.599 73.1298C56.6036 73.1258 57.7192 71.8875 57.7192 68.3438C57.7192 65.0625 56.8116 65.0625 56.3752 65.0625C55.8528 65.0625 55.0942 66.0856 55.0942 67.6875C55.0545 68.6992 54.8088 69.6923 54.3723 70.6058C54.0036 71.5398 53.4025 72.3642 52.6261 73.0008C51.8496 73.6375 50.9235 74.0655 49.9354 74.2441C49.7648 74.264 49.5932 74.2162 49.4575 74.111C49.3217 74.0059 49.2326 73.8517 49.2092 73.6815C49.1859 73.5114 49.2301 73.3389 49.3325 73.201C49.4349 73.0631 49.5873 72.9709 49.7569 72.9441C50.5231 72.7924 51.2384 72.4493 51.8362 71.9465C52.4339 71.4438 52.8946 70.7979 53.1753 70.069C53.5332 69.3232 53.7393 68.5137 53.7817 67.6875C53.7817 65.4799 54.9209 63.75 56.3752 63.75C58.7561 63.75 59.0317 66.375 59.0317 68.3438C59.0882 69.9144 58.814 71.4795 58.2271 72.9375H61.6567C62.1788 72.9375 62.6796 73.1449 63.0488 73.5141C63.418 73.8833 63.6254 74.3841 63.6254 74.9062C63.6254 75.4284 63.418 75.9292 63.0488 76.2984C62.6796 76.6676 62.1788 76.875 61.6567 76.875Z" fill="#FFFF00"/>
<path d="M61.6562 79.5C61.4822 79.5 61.3153 79.4309 61.1922 79.3078C61.0691 79.1847 61 79.0178 61 78.8438C61 78.6697 61.0691 78.5028 61.1922 78.3797C61.3153 78.2566 61.4822 78.1875 61.6562 78.1875C61.8303 78.1875 61.9972 78.1184 62.1203 77.9953C62.2434 77.8722 62.3125 77.7053 62.3125 77.5312C62.3125 77.3572 62.2434 77.1903 62.1203 77.0672C61.9972 76.9441 61.8303 76.875 61.6562 76.875C61.4822 76.875 61.3153 76.8059 61.1922 76.6828C61.0691 76.5597 61 76.3928 61 76.2188C61 76.0447 61.0691 75.8778 61.1922 75.7547C61.3153 75.6316 61.4822 75.5625 61.6562 75.5625C62.1784 75.5625 62.6792 75.7699 63.0484 76.1391C63.4176 76.5083 63.625 77.0091 63.625 77.5312C63.625 78.0534 63.4176 78.5542 63.0484 78.9234C62.6792 79.2926 62.1784 79.5 61.6562 79.5Z" fill="#FFFF00"/>
<path d="M61.6562 82.125C61.4822 82.125 61.3153 82.0559 61.1922 81.9328C61.0691 81.8097 61 81.6428 61 81.4688C61 81.2947 61.0691 81.1278 61.1922 81.0047C61.3153 80.8816 61.4822 80.8125 61.6562 80.8125C61.8303 80.8125 61.9972 80.7434 62.1203 80.6203C62.2434 80.4972 62.3125 80.3303 62.3125 80.1562C62.3125 79.9822 62.2434 79.8153 62.1203 79.6922C61.9972 79.5691 61.8303 79.5 61.6562 79.5C61.4822 79.5 61.3153 79.4309 61.1922 79.3078C61.0691 79.1847 61 79.0178 61 78.8438C61 78.6697 61.0691 78.5028 61.1922 78.3797C61.3153 78.2566 61.4822 78.1875 61.6562 78.1875C62.1784 78.1875 62.6792 78.3949 63.0484 78.7641C63.4176 79.1333 63.625 79.6341 63.625 80.1562C63.625 80.6784 63.4176 81.1792 63.0484 81.5484C62.6792 81.9176 62.1784 82.125 61.6562 82.125Z" fill="#FFFF00"/>
<path d="M61.656 84.75H51.156C50.982 84.75 50.8151 84.6808 50.692 84.5577L49.3795 83.2452C49.26 83.1214 49.1938 82.9557 49.1953 82.7836C49.1968 82.6115 49.2658 82.4469 49.3875 82.3253C49.5092 82.2036 49.6738 82.1346 49.8459 82.1331C50.0179 82.1316 50.1837 82.1977 50.3075 82.3173L51.4277 83.4375H61.656C61.83 83.4375 61.997 83.3684 62.12 83.2453C62.2431 83.1222 62.3122 82.9553 62.3122 82.7812C62.3122 82.6072 62.2431 82.4403 62.12 82.3172C61.997 82.1941 61.83 82.125 61.656 82.125C61.4819 82.125 61.315 82.0559 61.192 81.9328C61.0689 81.8097 60.9997 81.6428 60.9997 81.4688C60.9997 81.2947 61.0689 81.1278 61.192 81.0047C61.315 80.8816 61.4819 80.8125 61.656 80.8125C62.1781 80.8125 62.6789 81.0199 63.0481 81.3891C63.4173 81.7583 63.6247 82.2591 63.6247 82.7812C63.6247 83.3034 63.4173 83.8042 63.0481 84.1734C62.6789 84.5426 62.1781 84.75 61.656 84.75Z" fill="#FFFF00"/>
<path d="M49.8438 84.75H45.9062C45.7322 84.75 45.5653 84.6809 45.4422 84.5578C45.3191 84.4347 45.25 84.2678 45.25 84.0938V82.7812C45.25 82.6072 45.3191 82.4403 45.4422 82.3172C45.5653 82.1941 45.7322 82.125 45.9062 82.125C46.0803 82.125 46.2472 82.1941 46.3703 82.3172C46.4934 82.4403 46.5625 82.6072 46.5625 82.7812V83.4375H49.1875V73.5938H46.5625V80.8125C46.5625 80.9865 46.4934 81.1535 46.3703 81.2765C46.2472 81.3996 46.0803 81.4688 45.9062 81.4688C45.7322 81.4688 45.5653 81.3996 45.4422 81.2765C45.3191 81.1535 45.25 80.9865 45.25 80.8125V72.9375C45.25 72.7635 45.3191 72.5965 45.4422 72.4735C45.5653 72.3504 45.7322 72.2812 45.9062 72.2812H49.8438C50.0178 72.2812 50.1847 72.3504 50.3078 72.4735C50.4309 72.5965 50.5 72.7635 50.5 72.9375V84.0938C50.5 84.2678 50.4309 84.4347 50.3078 84.5578C50.1847 84.6809 50.0178 84.75 49.8438 84.75Z" fill="#FFFF00"/>
<path d="M69.5312 59.1562H52.4688C52.2947 59.1562 52.1278 59.0871 52.0047 58.964C51.8816 58.841 51.8125 58.674 51.8125 58.5C51.8125 58.326 51.8816 58.159 52.0047 58.036C52.1278 57.9129 52.2947 57.8438 52.4688 57.8438H69.5312C69.7053 57.8438 69.8722 57.9129 69.9953 58.036C70.1184 58.159 70.1875 58.326 70.1875 58.5C70.1875 58.674 70.1184 58.841 69.9953 58.964C69.8722 59.0871 69.7053 59.1562 69.5312 59.1562Z" fill="#FFFF00"/>
<path d="M69.5312 63.0938H52.4688C52.2947 63.0938 52.1278 63.0246 52.0047 62.9015C51.8816 62.7785 51.8125 62.6115 51.8125 62.4375C51.8125 62.2635 51.8816 62.0965 52.0047 61.9735C52.1278 61.8504 52.2947 61.7812 52.4688 61.7812H69.5312C69.7053 61.7812 69.8722 61.8504 69.9953 61.9735C70.1184 62.0965 70.1875 62.2635 70.1875 62.4375C70.1875 62.6115 70.1184 62.7785 69.9953 62.9015C69.8722 63.0246 69.7053 63.0938 69.5312 63.0938Z" fill="#FFFF00"/>
<path d="M64.9375 67.0312H61C60.826 67.0312 60.659 66.9621 60.536 66.839C60.4129 66.716 60.3438 66.549 60.3438 66.375C60.3438 66.201 60.4129 66.034 60.536 65.911C60.659 65.7879 60.826 65.7188 61 65.7188H64.9375C65.1115 65.7188 65.2785 65.7879 65.4015 65.911C65.5246 66.034 65.5938 66.201 65.5938 66.375C65.5938 66.549 65.5246 66.716 65.4015 66.839C65.2785 66.9621 65.1115 67.0312 64.9375 67.0312Z" fill="#FFFF00"/>
<path d="M25.5233 140.9H28.6973V157H25.5233V140.9ZM44.2586 145.178C45.5773 145.178 46.6276 145.607 47.4096 146.466C48.207 147.325 48.6056 148.475 48.6056 149.916V157H45.6386V150.123C45.6386 149.433 45.47 148.896 45.1326 148.513C44.7953 148.13 44.32 147.938 43.7066 147.938C43.032 147.938 42.503 148.16 42.1196 148.605C41.7516 149.05 41.5676 149.694 41.5676 150.537V157H38.6006V150.123C38.6006 149.433 38.432 148.896 38.0946 148.513C37.7573 148.13 37.282 147.938 36.6686 147.938C36.0093 147.938 35.4803 148.16 35.0816 148.605C34.6983 149.05 34.5066 149.694 34.5066 150.537V157H31.5396V145.5H34.5066V146.719C35.1966 145.692 36.2623 145.178 37.7036 145.178C39.1143 145.178 40.157 145.73 40.8316 146.834C41.5983 145.73 42.7406 145.178 44.2586 145.178ZM57.8186 145.178C59.3672 145.178 60.6859 145.768 61.7746 146.949C62.8786 148.114 63.4306 149.548 63.4306 151.25C63.4306 152.952 62.8786 154.393 61.7746 155.574C60.6859 156.739 59.3672 157.322 57.8186 157.322C56.2086 157.322 54.9666 156.762 54.0926 155.643V161.6H51.1256V145.5H54.0926V146.857C54.9666 145.738 56.2086 145.178 57.8186 145.178ZM54.9896 153.596C55.5876 154.194 56.3466 154.493 57.2666 154.493C58.1866 154.493 58.9456 154.194 59.5436 153.596C60.1569 152.983 60.4636 152.201 60.4636 151.25C60.4636 150.299 60.1569 149.525 59.5436 148.927C58.9456 148.314 58.1866 148.007 57.2666 148.007C56.3466 148.007 55.5876 148.314 54.9896 148.927C54.3916 149.525 54.0926 150.299 54.0926 151.25C54.0926 152.201 54.3916 152.983 54.9896 153.596ZM68.49 147.478C68.766 146.742 69.2183 146.19 69.847 145.822C70.491 145.454 71.204 145.27 71.986 145.27V148.582C71.0813 148.475 70.2687 148.659 69.548 149.134C68.8427 149.609 68.49 150.399 68.49 151.503V157H65.523V145.5H68.49V147.478ZM83.0925 155.574C81.9118 156.739 80.4705 157.322 78.7685 157.322C77.0665 157.322 75.6252 156.739 74.4445 155.574C73.2792 154.393 72.6965 152.952 72.6965 151.25C72.6965 149.548 73.2792 148.114 74.4445 146.949C75.6252 145.768 77.0665 145.178 78.7685 145.178C80.4705 145.178 81.9118 145.768 83.0925 146.949C84.2732 148.114 84.8635 149.548 84.8635 151.25C84.8635 152.952 84.2732 154.393 83.0925 155.574ZM76.5375 153.527C77.1355 154.125 77.8792 154.424 78.7685 154.424C79.6578 154.424 80.4015 154.125 80.9995 153.527C81.5975 152.929 81.8965 152.17 81.8965 151.25C81.8965 150.33 81.5975 149.571 80.9995 148.973C80.4015 148.375 79.6578 148.076 78.7685 148.076C77.8792 148.076 77.1355 148.375 76.5375 148.973C75.9548 149.571 75.6635 150.33 75.6635 151.25C75.6635 152.17 75.9548 152.929 76.5375 153.527ZM94.0685 145.5H97.3345L92.9645 157H89.5835L85.2135 145.5H88.4795L91.2625 153.55L94.0685 145.5ZM100.823 152.469C101.222 153.91 102.303 154.631 104.066 154.631C105.201 154.631 106.059 154.248 106.642 153.481L109.034 154.861C107.899 156.502 106.228 157.322 104.02 157.322C102.119 157.322 100.593 156.747 99.443 155.597C98.293 154.447 97.718 152.998 97.718 151.25C97.718 149.517 98.2853 148.076 99.42 146.926C100.555 145.761 102.011 145.178 103.79 145.178C105.477 145.178 106.864 145.761 107.953 146.926C109.057 148.091 109.609 149.533 109.609 151.25C109.609 151.633 109.571 152.04 109.494 152.469H100.823ZM100.777 150.169H106.642C106.473 149.387 106.121 148.804 105.584 148.421C105.063 148.038 104.465 147.846 103.79 147.846C102.993 147.846 102.333 148.053 101.812 148.467C101.291 148.866 100.946 149.433 100.777 150.169ZM120.926 157L116.418 140.9H119.753L122.835 152.837L126.193 140.9H128.907L132.288 152.837L135.37 140.9H138.705L134.197 157H130.586L127.55 146.374L124.537 157H120.926ZM141.431 144.12C140.94 144.12 140.511 143.944 140.143 143.591C139.79 143.223 139.614 142.794 139.614 142.303C139.614 141.812 139.79 141.383 140.143 141.015C140.511 140.647 140.94 140.463 141.431 140.463C141.937 140.463 142.366 140.647 142.719 141.015C143.087 141.383 143.271 141.812 143.271 142.303C143.271 142.794 143.087 143.223 142.719 143.591C142.366 143.944 141.937 144.12 141.431 144.12ZM139.959 157V145.5H142.926V157H139.959ZM152.219 148.352H149.62V153.136C149.62 153.535 149.72 153.826 149.919 154.01C150.119 154.194 150.41 154.301 150.793 154.332C151.177 154.347 151.652 154.34 152.219 154.309V157C150.18 157.23 148.739 157.038 147.895 156.425C147.067 155.812 146.653 154.715 146.653 153.136V148.352H144.652V145.5H146.653V143.177L149.62 142.28V145.5H152.219V148.352ZM160.705 145.178C161.962 145.178 162.997 145.6 163.81 146.443C164.638 147.286 165.052 148.452 165.052 149.939V157H162.085V150.307C162.085 149.54 161.878 148.958 161.464 148.559C161.05 148.145 160.498 147.938 159.808 147.938C159.041 147.938 158.428 148.176 157.968 148.651C157.508 149.126 157.278 149.839 157.278 150.79V157H154.311V140.9H157.278V146.788C157.999 145.715 159.141 145.178 160.705 145.178ZM183.088 143.936H176.648V147.754H182.904V150.79H176.648V157H173.474V140.9H183.088V143.936ZM187.769 152.469C188.168 153.91 189.249 154.631 191.012 154.631C192.147 154.631 193.006 154.248 193.588 153.481L195.98 154.861C194.846 156.502 193.174 157.322 190.966 157.322C189.065 157.322 187.539 156.747 186.389 155.597C185.239 154.447 184.664 152.998 184.664 151.25C184.664 149.517 185.232 148.076 186.366 146.926C187.501 145.761 188.958 145.178 190.736 145.178C192.423 145.178 193.811 145.761 194.899 146.926C196.003 148.091 196.555 149.533 196.555 151.25C196.555 151.633 196.517 152.04 196.44 152.469H187.769ZM187.723 150.169H193.588C193.42 149.387 193.067 148.804 192.53 148.421C192.009 148.038 191.411 147.846 190.736 147.846C189.939 147.846 189.28 148.053 188.758 148.467C188.237 148.866 187.892 149.433 187.723 150.169ZM201.044 152.469C201.442 153.91 202.523 154.631 204.287 154.631C205.421 154.631 206.28 154.248 206.863 153.481L209.255 154.861C208.12 156.502 206.449 157.322 204.241 157.322C202.339 157.322 200.814 156.747 199.664 155.597C198.514 154.447 197.939 152.998 197.939 151.25C197.939 149.517 198.506 148.076 199.641 146.926C200.775 145.761 202.232 145.178 204.011 145.178C205.697 145.178 207.085 145.761 208.174 146.926C209.278 148.091 209.83 149.533 209.83 151.25C209.83 151.633 209.791 152.04 209.715 152.469H201.044ZM200.998 150.169H206.863C206.694 149.387 206.341 148.804 205.805 148.421C205.283 148.038 204.685 147.846 204.011 147.846C203.213 147.846 202.554 148.053 202.033 148.467C201.511 148.866 201.166 149.433 200.998 150.169ZM220.528 140.9H223.495V157H220.528V155.643C219.654 156.762 218.412 157.322 216.802 157.322C215.253 157.322 213.927 156.739 212.823 155.574C211.734 154.393 211.19 152.952 211.19 151.25C211.19 149.548 211.734 148.114 212.823 146.949C213.927 145.768 215.253 145.178 216.802 145.178C218.412 145.178 219.654 145.738 220.528 146.857V140.9ZM215.054 153.596C215.667 154.194 216.434 154.493 217.354 154.493C218.274 154.493 219.033 154.194 219.631 153.596C220.229 152.983 220.528 152.201 220.528 151.25C220.528 150.299 220.229 149.525 219.631 148.927C219.033 148.314 218.274 148.007 217.354 148.007C216.434 148.007 215.667 148.314 215.054 148.927C214.456 149.525 214.157 150.299 214.157 151.25C214.157 152.201 214.456 152.983 215.054 153.596ZM232.902 145.178C234.45 145.178 235.769 145.768 236.858 146.949C237.962 148.114 238.514 149.548 238.514 151.25C238.514 152.952 237.962 154.393 236.858 155.574C235.769 156.739 234.45 157.322 232.902 157.322C231.292 157.322 230.05 156.762 229.176 155.643V157H226.209V140.9H229.176V146.857C230.05 145.738 231.292 145.178 232.902 145.178ZM230.073 153.596C230.671 154.194 231.43 154.493 232.35 154.493C233.27 154.493 234.029 154.194 234.627 153.596C235.24 152.983 235.547 152.201 235.547 151.25C235.547 150.299 235.24 149.525 234.627 148.927C234.029 148.314 233.27 148.007 232.35 148.007C231.43 148.007 230.671 148.314 230.073 148.927C229.475 149.525 229.176 150.299 229.176 151.25C229.176 152.201 229.475 152.983 230.073 153.596ZM249.346 145.5H252.313V157H249.346V155.643C248.457 156.762 247.207 157.322 245.597 157.322C244.064 157.322 242.745 156.739 241.641 155.574C240.552 154.393 240.008 152.952 240.008 151.25C240.008 149.548 240.552 148.114 241.641 146.949C242.745 145.768 244.064 145.178 245.597 145.178C247.207 145.178 248.457 145.738 249.346 146.857V145.5ZM243.872 153.596C244.47 154.194 245.229 154.493 246.149 154.493C247.069 154.493 247.828 154.194 248.426 153.596C249.039 152.983 249.346 152.201 249.346 151.25C249.346 150.299 249.039 149.525 248.426 148.927C247.828 148.314 247.069 148.007 246.149 148.007C245.229 148.007 244.47 148.314 243.872 148.927C243.274 149.525 242.975 150.299 242.975 151.25C242.975 152.201 243.274 152.983 243.872 153.596ZM260.477 157.322C258.745 157.322 257.296 156.739 256.13 155.574C254.98 154.409 254.405 152.967 254.405 151.25C254.405 149.533 254.98 148.091 256.13 146.926C257.296 145.761 258.745 145.178 260.477 145.178C261.597 145.178 262.616 145.446 263.536 145.983C264.456 146.52 265.154 147.24 265.629 148.145L263.076 149.64C262.846 149.165 262.494 148.789 262.018 148.513C261.558 148.237 261.037 148.099 260.454 148.099C259.565 148.099 258.829 148.398 258.246 148.996C257.664 149.579 257.372 150.33 257.372 151.25C257.372 152.155 257.664 152.906 258.246 153.504C258.829 154.087 259.565 154.378 260.454 154.378C261.052 154.378 261.581 154.248 262.041 153.987C262.517 153.711 262.869 153.335 263.099 152.86L265.675 154.332C265.169 155.237 264.456 155.965 263.536 156.517C262.616 157.054 261.597 157.322 260.477 157.322ZM277.848 157H274.398L270.212 151.779V157H267.245V140.9H270.212V150.56L274.168 145.5H277.71L273.087 151.181L277.848 157Z" fill="white"/>
<path d="M33.0559 188L32.1599 185.52H27.2959L26.3999 188H24.8639L28.8959 176.912H30.5759L34.5919 188H33.0559ZM31.7439 184.336L29.7279 178.704L27.7119 184.336H31.7439ZM44.1252 179.232V188H42.6692V186.704C42.1092 187.616 41.0372 188.128 39.8692 188.128C37.8532 188.128 36.2692 186.88 36.2692 184.368V179.232H37.7092V184.176C37.7092 185.952 38.6852 186.864 40.1572 186.864C41.6612 186.864 42.6692 185.936 42.6692 184.048V179.232H44.1252ZM46.9036 185.6V180.432H45.7676V179.232H46.9036V177.024H48.3596V179.232H50.6476V180.432H48.3596V185.6C48.3596 186.464 48.6796 186.768 49.5756 186.768H50.6476V188H49.3356C47.7836 188 46.9036 187.36 46.9036 185.6ZM60.7317 183.6C60.7317 186.384 58.7317 188.144 56.2357 188.144C53.7557 188.144 51.8677 186.384 51.8677 183.6C51.8677 180.832 53.8197 179.088 56.2997 179.088C58.7957 179.088 60.7317 180.832 60.7317 183.6ZM53.3557 183.6C53.3557 185.824 54.7157 186.864 56.2357 186.864C57.7557 186.864 59.2437 185.824 59.2437 183.6C59.2437 181.392 57.7877 180.352 56.2837 180.352C54.7477 180.352 53.3557 181.392 53.3557 183.6ZM62.3421 182.752V181.52H68.7261V182.752H62.3421ZM71.4586 188V176.16H72.9146V188H71.4586ZM79.1241 180.32C77.7001 180.32 76.5161 181.264 76.3561 182.976H81.8921C81.9081 181.264 80.6281 180.32 79.1241 180.32ZM83.2201 185.296C82.7721 186.896 81.3641 188.144 79.1881 188.144C76.6921 188.144 74.8521 186.384 74.8521 183.6C74.8521 180.832 76.6281 179.088 79.1881 179.088C81.7321 179.088 83.3961 180.88 83.3961 183.28C83.3961 183.6 83.3801 183.856 83.3481 184.16H76.3401C76.4521 185.936 77.7001 186.912 79.1881 186.912C80.5001 186.912 81.3321 186.24 81.6521 185.296H83.2201ZM84.7739 183.584C84.7739 180.848 86.5819 179.088 88.9339 179.088C90.5659 179.088 91.6859 179.92 92.1979 180.832V179.232H93.6699V188H92.1979V186.368C91.6699 187.312 90.5339 188.144 88.9179 188.144C86.5819 188.144 84.7739 186.304 84.7739 183.584ZM92.1979 183.6C92.1979 181.568 90.8219 180.352 89.2219 180.352C87.6219 180.352 86.2619 181.52 86.2619 183.584C86.2619 185.648 87.6219 186.864 89.2219 186.864C90.8219 186.864 92.1979 185.664 92.1979 183.6ZM97.5864 183.232V188H96.1304V179.232H97.5864V180.656C98.0824 179.68 99.0264 179.072 100.418 179.072V180.576H100.034C98.6424 180.576 97.5864 181.2 97.5864 183.232ZM108.515 188V183.04C108.515 181.248 107.539 180.336 106.067 180.336C104.579 180.336 103.555 181.264 103.555 183.152V188H102.099V179.232H103.555V180.48C104.131 179.568 105.187 179.072 106.371 179.072C108.403 179.072 109.955 180.32 109.955 182.832V188H108.515ZM116.055 183.584C116.055 180.848 117.863 179.088 120.215 179.088C121.847 179.088 122.967 179.92 123.479 180.832V179.232H124.951V188H123.479V186.368C122.951 187.312 121.815 188.144 120.199 188.144C117.863 188.144 116.055 186.304 116.055 183.584ZM123.479 183.6C123.479 181.568 122.103 180.352 120.503 180.352C118.903 180.352 117.543 181.52 117.543 183.584C117.543 185.648 118.903 186.864 120.503 186.864C122.103 186.864 123.479 185.664 123.479 183.6ZM133.828 188V183.04C133.828 181.248 132.852 180.336 131.38 180.336C129.892 180.336 128.868 181.264 128.868 183.152V188H127.412V179.232H128.868V180.48C129.444 179.568 130.5 179.072 131.684 179.072C133.716 179.072 135.268 180.32 135.268 182.832V188H133.828ZM137.102 183.584C137.102 180.848 138.91 179.088 141.278 179.088C142.654 179.088 143.918 179.792 144.526 180.8V176.16H145.998V188H144.526V186.352C143.998 187.328 142.862 188.144 141.262 188.144C138.91 188.144 137.102 186.304 137.102 183.584ZM144.526 183.6C144.526 181.568 143.15 180.352 141.55 180.352C139.95 180.352 138.59 181.52 138.59 183.584C138.59 185.648 139.95 186.864 141.55 186.864C143.15 186.864 144.526 185.664 144.526 183.6ZM153.044 185.6V180.432H151.908V179.232H153.044V177.024H154.5V179.232H156.788V180.432H154.5V185.6C154.5 186.464 154.82 186.768 155.716 186.768H156.788V188H155.476C153.924 188 153.044 187.36 153.044 185.6ZM160.008 183.232V188H158.552V179.232H160.008V180.656C160.504 179.68 161.448 179.072 162.84 179.072V180.576H162.456C161.064 180.576 160.008 181.2 160.008 183.232ZM163.977 183.584C163.977 180.848 165.785 179.088 168.137 179.088C169.769 179.088 170.889 179.92 171.401 180.832V179.232H172.873V188H171.401V186.368C170.873 187.312 169.737 188.144 168.121 188.144C165.785 188.144 163.977 186.304 163.977 183.584ZM171.401 183.6C171.401 181.568 170.025 180.352 168.425 180.352C166.825 180.352 165.465 181.52 165.465 183.584C165.465 185.648 166.825 186.864 168.425 186.864C170.025 186.864 171.401 185.664 171.401 183.6ZM174.79 183.6C174.79 180.848 176.566 179.088 179.062 179.088C181.238 179.088 182.662 180.208 183.11 182.048H181.542C181.238 180.992 180.358 180.32 179.062 180.32C177.462 180.32 176.278 181.456 176.278 183.6C176.278 185.776 177.462 186.912 179.062 186.912C180.358 186.912 181.222 186.288 181.542 185.184H183.11C182.662 186.928 181.238 188.144 179.062 188.144C176.566 188.144 174.79 186.384 174.79 183.6ZM185.052 188V176.16H186.508V183.12L189.884 179.232H191.916L187.788 183.6L191.932 188H189.948L186.508 184.128V188H185.052ZM199.008 180.848C199.536 179.92 200.688 179.088 202.288 179.088C204.64 179.088 206.448 180.848 206.448 183.584C206.448 186.304 204.64 188.144 202.288 188.144C200.688 188.144 199.552 187.28 199.008 186.384V192.16H197.552V179.232H199.008V180.848ZM204.96 183.584C204.96 181.52 203.6 180.352 201.984 180.352C200.4 180.352 199.008 181.568 199.008 183.6C199.008 185.664 200.4 186.864 201.984 186.864C203.6 186.864 204.96 185.648 204.96 183.584ZM212.093 180.32C210.669 180.32 209.485 181.264 209.325 182.976H214.861C214.877 181.264 213.597 180.32 212.093 180.32ZM216.189 185.296C215.741 186.896 214.333 188.144 212.157 188.144C209.661 188.144 207.821 186.384 207.821 183.6C207.821 180.832 209.597 179.088 212.157 179.088C214.701 179.088 216.365 180.88 216.365 183.28C216.365 183.6 216.349 183.856 216.317 184.16H209.309C209.421 185.936 210.669 186.912 212.157 186.912C213.469 186.912 214.301 186.24 214.621 185.296H216.189ZM219.743 183.232V188H218.287V179.232H219.743V180.656C220.239 179.68 221.183 179.072 222.575 179.072V180.576H222.191C220.799 180.576 219.743 181.2 219.743 183.232ZM224.527 188V180.432H223.391V179.232H224.527V178.608C224.527 176.656 225.487 175.776 227.727 175.776V176.992C226.415 176.992 225.983 177.472 225.983 178.608V179.232H227.823V180.432H225.983V188H224.527ZM237.841 183.6C237.841 186.384 235.841 188.144 233.345 188.144C230.865 188.144 228.977 186.384 228.977 183.6C228.977 180.832 230.929 179.088 233.409 179.088C235.905 179.088 237.841 180.832 237.841 183.6ZM230.465 183.6C230.465 185.824 231.825 186.864 233.345 186.864C234.865 186.864 236.353 185.824 236.353 183.6C236.353 181.392 234.897 180.352 233.393 180.352C231.857 180.352 230.465 181.392 230.465 183.6ZM241.211 183.232V188H239.755V179.232H241.211V180.656C241.707 179.68 242.651 179.072 244.043 179.072V180.576H243.659C242.267 180.576 241.211 181.2 241.211 183.232ZM258.38 188V183.04C258.38 181.248 257.42 180.336 255.98 180.336C254.508 180.336 253.5 181.28 253.5 183.168V188H252.06V183.04C252.06 181.248 251.1 180.336 249.66 180.336C248.188 180.336 247.18 181.28 247.18 183.168V188H245.724V179.232H247.18V180.496C247.756 179.568 248.796 179.072 249.948 179.072C251.388 179.072 252.588 179.712 253.164 181.024C253.676 179.76 254.924 179.072 256.268 179.072C258.268 179.072 259.82 180.32 259.82 182.832V188H258.38ZM261.665 183.584C261.665 180.848 263.473 179.088 265.825 179.088C267.457 179.088 268.577 179.92 269.089 180.832V179.232H270.561V188H269.089V186.368C268.561 187.312 267.425 188.144 265.809 188.144C263.473 188.144 261.665 186.304 261.665 183.584ZM269.089 183.6C269.089 181.568 267.713 180.352 266.113 180.352C264.513 180.352 263.153 181.52 263.153 183.584C263.153 185.648 264.513 186.864 266.113 186.864C267.713 186.864 269.089 185.664 269.089 183.6ZM279.437 188V183.04C279.437 181.248 278.461 180.336 276.989 180.336C275.501 180.336 274.477 181.264 274.477 183.152V188H273.021V179.232H274.477V180.48C275.053 179.568 276.109 179.072 277.293 179.072C279.325 179.072 280.877 180.32 280.877 182.832V188H279.437ZM282.711 183.6C282.711 180.848 284.487 179.088 286.983 179.088C289.159 179.088 290.583 180.208 291.031 182.048H289.463C289.159 180.992 288.279 180.32 286.983 180.32C285.383 180.32 284.199 181.456 284.199 183.6C284.199 185.776 285.383 186.912 286.983 186.912C288.279 186.912 289.143 186.288 289.463 185.184H291.031C290.583 186.928 289.159 188.144 286.983 188.144C284.487 188.144 282.711 186.384 282.711 183.6ZM296.702 180.32C295.278 180.32 294.094 181.264 293.934 182.976H299.47C299.486 181.264 298.206 180.32 296.702 180.32ZM300.798 185.296C300.35 186.896 298.942 188.144 296.766 188.144C294.27 188.144 292.43 186.384 292.43 183.6C292.43 180.832 294.206 179.088 296.766 179.088C299.31 179.088 300.974 180.88 300.974 183.28C300.974 183.6 300.958 183.856 300.926 184.16H293.918C294.03 185.936 295.278 186.912 296.766 186.912C298.078 186.912 298.91 186.24 299.23 185.296H300.798Z" fill="white"/>
<defs>
<linearGradient id="paint0_linear_2104_5550" x1="326" y1="209.765" x2="-22.1441" y2="154.346" gradientUnits="userSpaceOnUse">
<stop offset="0.254808" stop-color="#464646"/>
<stop offset="1" stop-color="#43430D"/>
</linearGradient>
<linearGradient id="paint1_linear_2104_5550" x1="93.2441" y1="1.20688e-06" x2="285.806" y2="161.905" gradientUnits="userSpaceOnUse">
<stop stop-color="#9F9F00"/>
<stop offset="0.509615" stop-color="#4D4D00"/>
</linearGradient>
</defs>
</svg>
