<svg width="416" height="74" viewBox="0 0 416 74" fill="none" xmlns="http://www.w3.org/2000/svg">
<path d="M10 0.5H406C411.247 0.5 415.5 4.75329 415.5 10V64C415.5 69.2467 411.247 73.5 406 73.5H10C4.7533 73.5 0.5 69.2467 0.5 64V10C0.5 4.7533 4.75329 0.5 10 0.5Z" fill="url(#paint0_linear_2104_5608)" fill-opacity="0.5"/>
<path d="M10 0.5H406C411.247 0.5 415.5 4.75329 415.5 10V64C415.5 69.2467 411.247 73.5 406 73.5H10C4.7533 73.5 0.5 69.2467 0.5 64V10C0.5 4.7533 4.75329 0.5 10 0.5Z" stroke="url(#paint1_linear_2104_5608)"/>
<path fill-rule="evenodd" clip-rule="evenodd" d="M65.4718 42.8895C65.2491 42.8895 65.0686 42.709 65.0686 42.4863C65.0686 39.2634 63.0261 36.357 59.986 35.2542C59.7768 35.1783 59.6686 34.947 59.7445 34.7378C59.8206 34.5286 60.0516 34.4203 60.261 34.4963C63.6187 35.7145 65.875 38.9254 65.875 42.4863C65.8748 42.709 65.6944 42.8895 65.4718 42.8895ZM40.5281 42.8895C40.3055 42.8895 40.125 42.709 40.125 42.4863C40.125 38.8505 42.4435 35.6176 45.8945 34.4416C46.1053 34.3697 46.3342 34.4824 46.4062 34.6931C46.478 34.9039 46.3653 35.1329 46.1546 35.2048C43.0304 36.2694 40.9313 39.1957 40.9313 42.4864C40.9313 42.709 40.7508 42.8895 40.5281 42.8895Z" fill="#FFFF00"/>
<path fill-rule="evenodd" clip-rule="evenodd" d="M63.808 46.345C63.5853 46.345 63.4049 46.1645 63.4049 45.9418V42.4864C63.4049 39.1638 60.7017 36.4606 57.379 36.4606L56.1535 36.4606C55.9308 36.4606 55.7503 36.2801 55.7503 36.0575C55.7503 35.8348 55.9308 35.6543 56.1535 35.6543H57.379C61.1462 35.6543 64.2111 38.7192 64.2111 42.4864V45.9419C64.2111 46.1645 64.0307 46.345 63.808 46.345ZM42.1902 46.345C41.9676 46.345 41.7871 46.1645 41.7871 45.9418V42.4864C41.7871 38.7192 44.852 35.6543 48.6192 35.6543L49.8448 35.6543C50.0675 35.6543 50.2479 35.8348 50.2479 36.0574C50.2479 36.2801 50.0675 36.4606 49.8448 36.4606H48.6192C45.2966 36.4606 42.5934 39.1638 42.5934 42.4864V45.9419C42.5934 46.1645 42.4129 46.345 42.1902 46.345Z" fill="#FFFF00"/>
<path fill-rule="evenodd" clip-rule="evenodd" d="M53.0592 41.0818H52.9386C51.0103 41.0818 49.4414 39.513 49.4414 37.5846V34.5619C49.4414 34.3393 49.6219 34.1588 49.8446 34.1588C50.0672 34.1588 50.2477 34.3393 50.2477 34.5619V37.5846C50.2477 39.0685 51.4549 40.2756 52.9386 40.2756H53.0592C54.5429 40.2756 55.75 39.0685 55.75 37.5846V34.5228C55.75 34.3001 55.9304 34.1196 56.1531 34.1196C56.3758 34.1196 56.5562 34.3001 56.5562 34.5228V37.5846C56.5564 39.513 54.9875 41.0818 53.0592 41.0818Z" fill="#FFFF00"/>
<path fill-rule="evenodd" clip-rule="evenodd" d="M44.2199 52.3318H42.1105C41.2235 52.3318 40.502 51.6102 40.502 50.7233V47.147C40.502 46.2601 41.2236 45.5386 42.1105 45.5386H44.2199C46.0929 45.5386 47.6168 47.0623 47.6168 48.9352C47.6168 50.808 46.0929 52.3318 44.2199 52.3318ZM42.1105 46.3447C41.6681 46.3447 41.3081 46.7046 41.3081 47.147V50.7233C41.3081 51.1657 41.6681 51.5255 42.1105 51.5255L44.2199 51.5255C45.6483 51.5255 46.8105 50.3636 46.8105 48.9352C46.8105 47.5068 45.6484 46.3447 44.2199 46.3447L42.1105 46.3447Z" fill="#FFFF00"/>
<path fill-rule="evenodd" clip-rule="evenodd" d="M63.8871 52.3319H61.7777C59.9046 52.3319 58.3809 50.8081 58.3809 48.9353C58.3809 47.0622 59.9047 45.5386 61.7777 45.5386L63.8871 45.5386C64.7741 45.5386 65.4956 46.2601 65.4956 47.147V50.7233C65.4957 51.6103 64.7742 52.3319 63.8871 52.3319ZM61.7778 46.3448C60.3494 46.3448 59.1871 47.5068 59.1871 48.9352C59.1871 50.3636 60.3493 51.5257 61.7778 51.5257H63.8871C64.3296 51.5257 64.6895 51.1658 64.6895 50.7234V47.1472C64.6895 46.7048 64.3295 46.3449 63.8871 46.3449L61.7778 46.3448Z" fill="#FFFF00"/>
<path fill-rule="evenodd" clip-rule="evenodd" d="M53 56.3506C52.9503 56.3506 52.9007 56.3414 52.8536 56.3231L45.9423 53.6308C45.7875 53.5706 45.6855 53.4214 45.6855 53.2552V51.27C45.6855 51.0473 45.866 50.8668 46.0887 50.8668C46.3114 50.8668 46.4918 51.0473 46.4918 51.27V52.9796L53 55.5147L59.508 52.9796V51.27C59.508 51.0473 59.6884 50.8668 59.9111 50.8668C60.1338 50.8668 60.3143 51.0473 60.3143 51.27V53.2552C60.3143 53.4214 60.2123 53.5706 60.0575 53.6308L53.1463 56.3231C53.0991 56.3414 53.0495 56.3506 53 56.3506ZM59.9111 47.0045C59.6884 47.0045 59.508 46.824 59.508 46.6014V43.3704L53.1538 45.9934C53.0553 46.034 52.9446 46.034 52.8462 45.9934L46.4918 43.3704V46.6014C46.4918 46.824 46.3114 47.0045 46.0887 47.0045C45.866 47.0045 45.6856 46.824 45.6856 46.6014V42.7678C45.6856 42.6333 45.7527 42.5076 45.8646 42.4328C45.9763 42.358 46.1181 42.3439 46.2426 42.3952L53.0001 45.1846L59.7575 42.3952C59.8815 42.344 60.0235 42.358 60.1355 42.4328C60.2472 42.5076 60.3144 42.6333 60.3144 42.7678V46.6014C60.3143 46.824 60.1338 47.0045 59.9111 47.0045Z" fill="#FFFF00"/>
<path fill-rule="evenodd" clip-rule="evenodd" d="M53.0008 56.3507C52.7781 56.3507 52.5977 56.1702 52.5977 55.9475V45.6209C52.5977 45.3982 52.7781 45.2178 53.0008 45.2178C53.2235 45.2178 53.4039 45.3982 53.4039 45.6209V55.9475C53.4039 56.1702 53.2234 56.3507 53.0008 56.3507Z" fill="#FFFF00"/>
<path fill-rule="evenodd" clip-rule="evenodd" d="M52.631 28.5396C50.7684 28.5396 48.9969 28.2299 47.3657 27.6193C47.2083 27.5604 47.104 27.4101 47.1039 27.2421L47.1006 22.5956L43.7821 21.36C43.6215 21.3002 43.5162 21.1453 43.5196 20.9739C43.5232 20.8024 43.6347 20.6521 43.7978 20.599L52.7906 17.6693C52.8686 17.6439 52.9523 17.6428 53.0309 17.6663L62.8376 20.5961C63.0036 20.6457 63.1194 20.7959 63.1251 20.969C63.1309 21.1422 63.0252 21.2997 62.8628 21.3601L58.8933 22.8379V27.2406C58.8933 27.4204 58.7741 27.5785 58.6012 27.628C56.545 28.2174 54.585 28.524 52.7755 28.5391C52.7273 28.5394 52.6792 28.5396 52.631 28.5396ZM47.91 26.959C49.4185 27.4871 51.0555 27.7486 52.7688 27.7328C54.42 27.719 56.2079 27.4507 58.0871 26.9349V23.138L53.4631 24.8595C53.3723 24.8932 53.2727 24.8932 53.1817 24.8595L47.907 22.8958L47.91 26.959ZM45.1462 21.0076L53.3224 24.0515L61.4541 21.0241L52.9207 18.4746L45.1462 21.0076Z" fill="#FFFF00"/>
<path fill-rule="evenodd" clip-rule="evenodd" d="M53.0008 34.7979C52.7781 34.7979 52.5977 34.6174 52.5977 34.3947C52.5977 34.1721 52.7781 33.9916 53.0008 33.9916C53.8053 33.9916 54.6398 33.3608 55.1524 32.7703C55.6479 32.1998 56.0196 31.499 56.2274 30.7438C56.2865 30.529 56.5081 30.4024 56.723 30.462C56.9377 30.5211 57.0637 30.7429 57.0047 30.9576C56.7652 31.8284 56.3352 32.638 55.7612 33.299C55.4558 33.6506 54.3544 34.7979 53.0008 34.7979Z" fill="#FFFF00"/>
<path fill-rule="evenodd" clip-rule="evenodd" d="M52.9982 36.4607C50.1374 36.4607 47.6598 33.4567 47.1071 29.3179C47.1048 29.3003 47.1035 29.2825 47.1035 29.2646V27.2418C47.1035 27.0191 47.284 26.8387 47.5066 26.8387C47.7293 26.8387 47.9098 27.0191 47.9098 27.2418V29.2375C48.4073 32.8978 50.5917 35.6545 52.9982 35.6545C55.3714 35.6545 57.5556 32.897 58.0867 29.2359V27.2406C58.0867 27.0179 58.2671 26.8374 58.4898 26.8374C58.7125 26.8374 58.8929 27.0179 58.8929 27.2406V29.2647C58.8929 29.2837 58.8916 29.3027 58.889 29.3216C58.6103 31.2767 57.8735 33.0727 56.8144 34.3789C55.7258 35.7213 54.3704 36.4607 52.9982 36.4607Z" fill="#FFFF00"/>
<path fill-rule="evenodd" clip-rule="evenodd" d="M60.7684 29.5644C60.5457 29.5644 60.3652 29.3839 60.3652 29.1613V21.7102C60.3652 21.4876 60.5457 21.3071 60.7684 21.3071C60.991 21.3071 61.1715 21.4876 61.1715 21.7102V29.1613C61.1715 29.3839 60.9911 29.5644 60.7684 29.5644Z" fill="#FFFF00"/>
<path fill-rule="evenodd" clip-rule="evenodd" d="M60.7693 31.6521C59.9714 31.6521 59.3223 31.0029 59.3223 30.205C59.3223 29.4071 59.9715 28.7578 60.7693 28.7578C61.5675 28.7578 62.2166 29.4071 62.2166 30.205C62.2166 31.0029 61.5674 31.6521 60.7693 31.6521ZM60.7693 29.564C60.416 29.564 60.1285 29.8515 60.1285 30.2049C60.1285 30.5583 60.416 30.8457 60.7693 30.8457C61.1227 30.8457 61.4103 30.5583 61.4103 30.2049C61.4104 29.8515 61.1228 29.564 60.7693 29.564Z" fill="#FFFF00"/>
<path fill-rule="evenodd" clip-rule="evenodd" d="M54.5578 45.3805C54.3993 45.3805 54.2491 45.2865 54.1849 45.131C54.1 44.9253 54.1979 44.6896 54.4038 44.6045L58.1977 43.0383C58.4035 42.9535 58.6392 43.0515 58.7242 43.2573C58.8091 43.463 58.7112 43.6987 58.5053 43.7838L54.7114 45.3499C54.6612 45.3707 54.609 45.3805 54.5578 45.3805Z" fill="#FFFF00"/>
<path fill-rule="evenodd" clip-rule="evenodd" d="M54.4836 47.2768C54.3251 47.2768 54.1749 47.1829 54.1107 47.0274C54.0258 46.8216 54.1237 46.5859 54.3296 46.5009L58.1235 44.9348C58.3292 44.85 58.565 44.9481 58.65 45.1537C58.7349 45.3595 58.6369 45.5952 58.431 45.6802L54.6372 47.2463C54.587 47.267 54.5348 47.2768 54.4836 47.2768Z" fill="#FFFF00"/>
<path fill-rule="evenodd" clip-rule="evenodd" d="M54.4836 54.0737C54.3251 54.0737 54.1749 53.9797 54.1107 53.8242C54.0258 53.6184 54.1237 53.3827 54.3296 53.2977L58.1235 51.7317C58.3292 51.647 58.565 51.7448 58.65 51.9506C58.7349 52.1563 58.6369 52.392 58.431 52.4771L54.6372 54.0431C54.587 54.0638 54.5348 54.0737 54.4836 54.0737Z" fill="#FFFF00"/>
<path fill-rule="evenodd" clip-rule="evenodd" d="M51.5134 47.2768C51.4621 47.2768 51.4101 47.2669 51.3597 47.2462L47.5658 45.6802C47.36 45.5951 47.2621 45.3594 47.347 45.1536C47.432 44.9478 47.6677 44.8501 47.8735 44.9348L51.6674 46.5008C51.8732 46.5858 51.9711 46.8215 51.8862 47.0273C51.8219 47.1828 51.6717 47.2768 51.5134 47.2768Z" fill="#FFFF00"/>
<path fill-rule="evenodd" clip-rule="evenodd" d="M51.5134 54.0737C51.4621 54.0737 51.4101 54.0638 51.3597 54.0431L47.5658 52.4771C47.36 52.392 47.2621 52.1563 47.347 51.9506C47.432 51.7447 47.6677 51.647 47.8735 51.7317L51.6674 53.2977C51.8732 53.3827 51.9711 53.6184 51.8862 53.8242C51.8219 53.9798 51.6717 54.0737 51.5134 54.0737Z" fill="#FFFF00"/>
<path d="M98.72 43L97.824 40.52H92.96L92.064 43H90.528L94.56 31.912H96.24L100.256 43H98.72ZM97.408 39.336L95.392 33.704L93.376 39.336H97.408ZM101.469 38.6C101.469 35.848 103.245 34.088 105.741 34.088C107.917 34.088 109.341 35.208 109.789 37.048H108.221C107.917 35.992 107.037 35.32 105.741 35.32C104.141 35.32 102.957 36.456 102.957 38.6C102.957 40.776 104.141 41.912 105.741 41.912C107.037 41.912 107.901 41.288 108.221 40.184H109.789C109.341 41.928 107.917 43.144 105.741 43.144C103.245 43.144 101.469 41.384 101.469 38.6ZM111.188 38.584C111.188 35.848 112.996 34.088 115.348 34.088C116.98 34.088 118.1 34.92 118.612 35.832V34.232H120.084V43H118.612V41.368C118.084 42.312 116.948 43.144 115.332 43.144C112.996 43.144 111.188 41.304 111.188 38.584ZM118.612 38.6C118.612 36.568 117.236 35.352 115.636 35.352C114.036 35.352 112.676 36.52 112.676 38.584C112.676 40.648 114.036 41.864 115.636 41.864C117.236 41.864 118.612 40.664 118.612 38.6ZM122 38.584C122 35.848 123.808 34.088 126.176 34.088C127.552 34.088 128.816 34.792 129.424 35.8V31.16H130.896V43H129.424V41.352C128.896 42.328 127.76 43.144 126.16 43.144C123.808 43.144 122 41.304 122 38.584ZM129.424 38.6C129.424 36.568 128.048 35.352 126.448 35.352C124.848 35.352 123.488 36.52 123.488 38.584C123.488 40.648 124.848 41.864 126.448 41.864C128.048 41.864 129.424 40.664 129.424 38.6ZM137.085 35.32C135.661 35.32 134.477 36.264 134.317 37.976H139.853C139.869 36.264 138.589 35.32 137.085 35.32ZM141.181 40.296C140.733 41.896 139.325 43.144 137.149 43.144C134.653 43.144 132.813 41.384 132.813 38.6C132.813 35.832 134.589 34.088 137.149 34.088C139.693 34.088 141.357 35.88 141.357 38.28C141.357 38.6 141.341 38.856 141.309 39.16H134.301C134.413 40.936 135.661 41.912 137.149 41.912C138.461 41.912 139.293 41.24 139.613 40.296H141.181ZM155.935 43V38.04C155.935 36.248 154.975 35.336 153.535 35.336C152.063 35.336 151.055 36.28 151.055 38.168V43H149.615V38.04C149.615 36.248 148.655 35.336 147.215 35.336C145.743 35.336 144.735 36.28 144.735 38.168V43H143.279V34.232H144.735V35.496C145.311 34.568 146.351 34.072 147.503 34.072C148.943 34.072 150.143 34.712 150.719 36.024C151.231 34.76 152.479 34.072 153.823 34.072C155.823 34.072 157.375 35.32 157.375 37.832V43H155.935ZM159.763 43V34.232H161.219V43H159.763ZM160.515 32.808C159.955 32.808 159.523 32.376 159.523 31.816C159.523 31.256 159.955 30.824 160.515 30.824C161.043 30.824 161.475 31.256 161.475 31.816C161.475 32.376 161.043 32.808 160.515 32.808ZM163.157 38.6C163.157 35.848 164.933 34.088 167.429 34.088C169.605 34.088 171.029 35.208 171.477 37.048H169.909C169.605 35.992 168.725 35.32 167.429 35.32C165.829 35.32 164.645 36.456 164.645 38.6C164.645 40.776 165.829 41.912 167.429 41.912C168.725 41.912 169.589 41.288 169.909 40.184H171.477C171.029 41.928 169.605 43.144 167.429 43.144C164.933 43.144 163.157 41.384 163.157 38.6ZM176.997 33.032V31.848H184.549V33.032H181.509V43H180.053V33.032H176.997ZM194.117 34.232V43H192.661V41.704C192.101 42.616 191.029 43.128 189.861 43.128C187.845 43.128 186.261 41.88 186.261 39.368V34.232H187.701V39.176C187.701 40.952 188.677 41.864 190.149 41.864C191.653 41.864 192.661 40.936 192.661 39.048V34.232H194.117ZM196.896 40.6V35.432H195.76V34.232H196.896V32.024H198.352V34.232H200.64V35.432H198.352V40.6C198.352 41.464 198.672 41.768 199.568 41.768H200.64V43H199.328C197.776 43 196.896 42.36 196.896 40.6ZM210.724 38.6C210.724 41.384 208.724 43.144 206.228 43.144C203.748 43.144 201.86 41.384 201.86 38.6C201.86 35.832 203.812 34.088 206.292 34.088C208.788 34.088 210.724 35.832 210.724 38.6ZM203.348 38.6C203.348 40.824 204.708 41.864 206.228 41.864C207.748 41.864 209.236 40.824 209.236 38.6C209.236 36.392 207.78 35.352 206.276 35.352C204.74 35.352 203.348 36.392 203.348 38.6ZM214.094 38.232V43H212.638V34.232H214.094V35.656C214.59 34.68 215.534 34.072 216.926 34.072V35.576H216.542C215.15 35.576 214.094 36.2 214.094 38.232ZM224.911 40.616C224.911 42.056 223.647 43.144 221.711 43.144C219.663 43.144 218.223 42.024 218.127 40.424H219.631C219.711 41.272 220.463 41.912 221.695 41.912C222.847 41.912 223.487 41.336 223.487 40.616C223.487 38.664 218.303 39.8 218.303 36.536C218.303 35.192 219.567 34.088 221.519 34.088C223.455 34.088 224.735 35.128 224.831 36.84H223.375C223.311 35.96 222.639 35.32 221.471 35.32C220.399 35.32 219.759 35.832 219.759 36.536C219.759 38.616 224.847 37.48 224.911 40.616ZM231.504 43V35.432H230.368V34.232H231.504V33.608C231.504 31.656 232.464 30.776 234.704 30.776V31.992C233.392 31.992 232.96 32.472 232.96 33.608V34.232H234.8V35.432H232.96V43H231.504ZM244.818 38.6C244.818 41.384 242.818 43.144 240.322 43.144C237.842 43.144 235.954 41.384 235.954 38.6C235.954 35.832 237.906 34.088 240.386 34.088C242.882 34.088 244.818 35.832 244.818 38.6ZM237.442 38.6C237.442 40.824 238.802 41.864 240.322 41.864C241.842 41.864 243.33 40.824 243.33 38.6C243.33 36.392 241.874 35.352 240.37 35.352C238.834 35.352 237.442 36.392 237.442 38.6ZM248.188 38.232V43H246.732V34.232H248.188V35.656C248.684 34.68 249.628 34.072 251.02 34.072V35.576H250.636C249.244 35.576 248.188 36.2 248.188 38.232ZM256.966 43V31.848H258.422V43H256.966ZM267.32 43V38.04C267.32 36.248 266.344 35.336 264.872 35.336C263.384 35.336 262.36 36.264 262.36 38.152V43H260.904V34.232H262.36V35.48C262.936 34.568 263.992 34.072 265.176 34.072C267.208 34.072 268.76 35.32 268.76 37.832V43H267.32ZM270.594 38.584C270.594 35.848 272.402 34.088 274.77 34.088C276.146 34.088 277.41 34.792 278.018 35.8V31.16H279.49V43H278.018V41.352C277.49 42.328 276.354 43.144 274.754 43.144C272.402 43.144 270.594 41.304 270.594 38.584ZM278.018 38.6C278.018 36.568 276.642 35.352 275.042 35.352C273.442 35.352 272.082 36.52 272.082 38.584C272.082 40.648 273.442 41.864 275.042 41.864C276.642 41.864 278.018 40.664 278.018 38.6ZM281.951 43V34.232H283.407V43H281.951ZM282.703 32.808C282.143 32.808 281.711 32.376 281.711 31.816C281.711 31.256 282.143 30.824 282.703 30.824C283.231 30.824 283.663 31.256 283.663 31.816C283.663 32.376 283.231 32.808 282.703 32.808ZM285.344 38.584C285.344 35.848 287.152 34.088 289.504 34.088C291.136 34.088 292.256 34.92 292.768 35.832V34.232H294.24V43H292.768V41.368C292.24 42.312 291.104 43.144 289.488 43.144C287.152 43.144 285.344 41.304 285.344 38.584ZM292.768 38.6C292.768 36.568 291.392 35.352 289.792 35.352C288.192 35.352 286.832 36.52 286.832 38.584C286.832 40.648 288.192 41.864 289.792 41.864C291.392 41.864 292.768 40.664 292.768 38.6ZM303.117 43V38.04C303.117 36.248 302.141 35.336 300.669 35.336C299.181 35.336 298.157 36.264 298.157 38.152V43H296.701V34.232H298.157V35.48C298.733 34.568 299.789 34.072 300.973 34.072C303.005 34.072 304.557 35.32 304.557 37.832V43H303.117ZM310.657 37.416C310.657 34.072 313.105 31.704 316.225 31.704C318.641 31.704 320.561 32.92 321.393 35.08H319.649C319.041 33.736 317.857 32.984 316.225 32.984C313.889 32.984 312.145 34.68 312.145 37.416C312.145 40.136 313.889 41.832 316.225 41.832C317.857 41.832 319.041 41.08 319.649 39.752H321.393C320.561 41.896 318.641 43.096 316.225 43.096C313.105 43.096 310.657 40.76 310.657 37.416ZM331.336 34.232V43H329.88V41.704C329.32 42.616 328.248 43.128 327.08 43.128C325.064 43.128 323.48 41.88 323.48 39.368V34.232H324.92V39.176C324.92 40.952 325.896 41.864 327.368 41.864C328.872 41.864 329.88 40.936 329.88 39.048V34.232H331.336ZM335.25 38.232V43H333.794V34.232H335.25V35.656C335.746 34.68 336.69 34.072 338.082 34.072V35.576H337.698C336.306 35.576 335.25 36.2 335.25 38.232ZM341.219 38.232V43H339.763V34.232H341.219V35.656C341.715 34.68 342.659 34.072 344.051 34.072V35.576H343.667C342.275 35.576 341.219 36.2 341.219 38.232ZM345.732 43V34.232H347.188V43H345.732ZM346.484 32.808C345.924 32.808 345.492 32.376 345.492 31.816C345.492 31.256 345.924 30.824 346.484 30.824C347.012 30.824 347.444 31.256 347.444 31.816C347.444 32.376 347.012 32.808 346.484 32.808ZM349.125 38.6C349.125 35.848 350.901 34.088 353.397 34.088C355.573 34.088 356.997 35.208 357.445 37.048H355.877C355.573 35.992 354.693 35.32 353.397 35.32C351.797 35.32 350.613 36.456 350.613 38.6C350.613 40.776 351.797 41.912 353.397 41.912C354.693 41.912 355.557 41.288 355.877 40.184H357.445C356.997 41.928 355.573 43.144 353.397 43.144C350.901 43.144 349.125 41.384 349.125 38.6ZM367.164 34.232V43H365.708V41.704C365.148 42.616 364.076 43.128 362.908 43.128C360.892 43.128 359.308 41.88 359.308 39.368V34.232H360.748V39.176C360.748 40.952 361.724 41.864 363.196 41.864C364.7 41.864 365.708 40.936 365.708 39.048V34.232H367.164ZM369.623 43V31.16H371.079V43H369.623ZM373.016 38.584C373.016 35.848 374.824 34.088 377.176 34.088C378.808 34.088 379.928 34.92 380.44 35.832V34.232H381.912V43H380.44V41.368C379.912 42.312 378.776 43.144 377.16 43.144C374.824 43.144 373.016 41.304 373.016 38.584ZM380.44 38.6C380.44 36.568 379.064 35.352 377.464 35.352C375.864 35.352 374.504 36.52 374.504 38.584C374.504 40.648 375.864 41.864 377.464 41.864C379.064 41.864 380.44 40.664 380.44 38.6Z" fill="white"/>
<defs>
<linearGradient id="paint0_linear_2104_5608" x1="416" y1="68.9893" x2="86.2647" y2="-134.662" gradientUnits="userSpaceOnUse">
<stop offset="0.254808" stop-color="#464646"/>
<stop offset="1" stop-color="#8C8C4C"/>
</linearGradient>
<linearGradient id="paint1_linear_2104_5608" x1="118.986" y1="3.96931e-07" x2="155.013" y2="117.528" gradientUnits="userSpaceOnUse">
<stop stop-color="#9F9F00"/>
<stop offset="0.509615" stop-color="#4D4D00"/>
</linearGradient>
</defs>
</svg>
