<svg width="136" height="51" viewBox="0 0 136 51" fill="none" xmlns="http://www.w3.org/2000/svg">
<rect x="0.5" y="0.850342" width="135" height="49" rx="6.5" fill="url(#paint0_linear_1994_7914)" fill-opacity="0.6"/>
<rect x="0.5" y="0.850342" width="135" height="49" rx="6.5" stroke="url(#paint1_linear_1994_7914)"/>
<g clip-path="url(#clip0_1994_7914)">
<path d="M19 37.3503H49V31.3503H19V37.3503ZM22 32.8503H25V35.8503H22V32.8503ZM19 13.3503V19.3503H49V13.3503H19ZM25 17.8503H22V14.8503H25V17.8503ZM19 28.3503H49V22.3503H19V28.3503ZM22 23.8503H25V26.8503H22V23.8503Z" fill="#FFFF00"/>
</g>
<path d="M65.152 21.2723C65.5673 21.2723 65.9383 21.2023 66.265 21.0623C66.5917 20.9223 66.867 20.7263 67.091 20.4743C67.3197 20.2223 67.4923 19.9213 67.609 19.5713C67.7303 19.2213 67.791 18.8363 67.791 18.4163V12.3193H69.142V18.4163C69.142 18.995 69.0487 19.5317 68.862 20.0263C68.68 20.521 68.4163 20.9503 68.071 21.3143C67.7303 21.6737 67.3127 21.956 66.818 22.1613C66.3233 22.3667 65.768 22.4693 65.152 22.4693C64.536 22.4693 63.9807 22.3667 63.486 22.1613C62.9913 21.956 62.5713 21.6737 62.226 21.3143C61.8807 20.9503 61.6147 20.521 61.428 20.0263C61.246 19.5317 61.155 18.995 61.155 18.4163V12.3193H62.506V18.4093C62.506 18.8293 62.5643 19.2143 62.681 19.5643C62.8023 19.9143 62.975 20.2153 63.199 20.4673C63.4277 20.7193 63.7053 20.9177 64.032 21.0623C64.3633 21.2023 64.7367 21.2723 65.152 21.2723ZM72.2528 16.2883C72.4068 16.1157 72.5702 15.9593 72.7428 15.8193C72.9155 15.6793 73.0975 15.5603 73.2888 15.4623C73.4848 15.3597 73.6902 15.2827 73.9048 15.2313C74.1242 15.1753 74.3598 15.1473 74.6118 15.1473C74.9992 15.1473 75.3398 15.2127 75.6338 15.3433C75.9325 15.4693 76.1798 15.6513 76.3758 15.8893C76.5765 16.1227 76.7282 16.405 76.8308 16.7363C76.9335 17.0677 76.9848 17.434 76.9848 17.8353V22.3503H75.7318V17.8353C75.7318 17.2987 75.6082 16.8833 75.3608 16.5893C75.1182 16.2907 74.7472 16.1413 74.2478 16.1413C73.8792 16.1413 73.5338 16.23 73.2118 16.4073C72.8945 16.5847 72.6005 16.825 72.3298 17.1283V22.3503H71.0768V15.2593H71.8258C72.0032 15.2593 72.1128 15.3457 72.1548 15.5183L72.2528 16.2883ZM80.1715 12.0393V22.3503H78.9255V12.0393H80.1715ZM83.5081 15.2593V22.3503H82.2621V15.2593H83.5081ZM83.7741 13.0333C83.7741 13.1547 83.7484 13.269 83.6971 13.3763C83.6504 13.479 83.5851 13.5723 83.5011 13.6563C83.4217 13.7357 83.3261 13.7987 83.2141 13.8453C83.1067 13.892 82.9924 13.9153 82.8711 13.9153C82.7497 13.9153 82.6354 13.892 82.5281 13.8453C82.4254 13.7987 82.3344 13.7357 82.2551 13.6563C82.1757 13.5723 82.1127 13.479 82.0661 13.3763C82.0194 13.269 81.9961 13.1547 81.9961 13.0333C81.9961 12.912 82.0194 12.7977 82.0661 12.6903C82.1127 12.5783 82.1757 12.4827 82.2551 12.4033C82.3344 12.3193 82.4254 12.254 82.5281 12.2073C82.6354 12.1607 82.7497 12.1373 82.8711 12.1373C82.9924 12.1373 83.1067 12.1607 83.2141 12.2073C83.3261 12.254 83.4217 12.3193 83.5011 12.4033C83.5851 12.4827 83.6504 12.5783 83.6971 12.6903C83.7484 12.7977 83.7741 12.912 83.7741 13.0333ZM85.5554 22.3503V15.2593H86.3044C86.4817 15.2593 86.5914 15.3457 86.6334 15.5183L86.7244 16.2463C86.9857 15.9243 87.2797 15.6607 87.6064 15.4553C87.933 15.25 88.311 15.1473 88.7404 15.1473C89.2164 15.1473 89.6014 15.2803 89.8954 15.5463C90.194 15.8123 90.4087 16.1717 90.5394 16.6243C90.642 16.3677 90.7727 16.146 90.9314 15.9593C91.0947 15.7727 91.2767 15.6187 91.4774 15.4973C91.678 15.376 91.8904 15.2873 92.1144 15.2313C92.343 15.1753 92.574 15.1473 92.8074 15.1473C93.1807 15.1473 93.512 15.208 93.8014 15.3293C94.0954 15.446 94.3427 15.6187 94.5434 15.8473C94.7487 16.076 94.905 16.3583 95.0124 16.6943C95.1197 17.0257 95.1734 17.406 95.1734 17.8353V22.3503H93.9204V17.8353C93.9204 17.28 93.799 16.86 93.5564 16.5753C93.3137 16.286 92.9637 16.1413 92.5064 16.1413C92.301 16.1413 92.105 16.1787 91.9184 16.2533C91.7364 16.3233 91.5754 16.4283 91.4354 16.5683C91.2954 16.7083 91.1834 16.8857 91.0994 17.1003C91.02 17.3103 90.9804 17.5553 90.9804 17.8353V22.3503H89.7274V17.8353C89.7274 17.266 89.613 16.8413 89.3844 16.5613C89.1557 16.2813 88.822 16.1413 88.3834 16.1413C88.0754 16.1413 87.7907 16.2253 87.5294 16.3933C87.268 16.5567 87.0277 16.7807 86.8084 17.0653V22.3503H85.5554ZM98.3831 15.2593V22.3503H97.1371V15.2593H98.3831ZM98.6491 13.0333C98.6491 13.1547 98.6234 13.269 98.5721 13.3763C98.5254 13.479 98.4601 13.5723 98.3761 13.6563C98.2967 13.7357 98.2011 13.7987 98.0891 13.8453C97.9817 13.892 97.8674 13.9153 97.7461 13.9153C97.6247 13.9153 97.5104 13.892 97.4031 13.8453C97.3004 13.7987 97.2094 13.7357 97.1301 13.6563C97.0507 13.5723 96.9877 13.479 96.9411 13.3763C96.8944 13.269 96.8711 13.1547 96.8711 13.0333C96.8711 12.912 96.8944 12.7977 96.9411 12.6903C96.9877 12.5783 97.0507 12.4827 97.1301 12.4033C97.2094 12.3193 97.3004 12.254 97.4031 12.2073C97.5104 12.1607 97.6247 12.1373 97.7461 12.1373C97.8674 12.1373 97.9817 12.1607 98.0891 12.2073C98.2011 12.254 98.2967 12.3193 98.3761 12.4033C98.4601 12.4827 98.5254 12.5783 98.5721 12.6903C98.6234 12.7977 98.6491 12.912 98.6491 13.0333ZM102.607 22.4623C102.047 22.4623 101.616 22.306 101.312 21.9933C101.014 21.6807 100.864 21.2303 100.864 20.6423V16.3023H100.01C99.9357 16.3023 99.8727 16.2813 99.8214 16.2393C99.77 16.1927 99.7444 16.1227 99.7444 16.0293V15.5323L100.906 15.3853L101.193 13.1943C101.207 13.1243 101.238 13.0683 101.284 13.0263C101.336 12.9797 101.401 12.9563 101.48 12.9563H102.11V15.3993H104.161V16.3023H102.11V20.5583C102.11 20.857 102.183 21.0787 102.327 21.2233C102.472 21.368 102.659 21.4403 102.887 21.4403C103.018 21.4403 103.13 21.424 103.223 21.3913C103.321 21.354 103.405 21.3143 103.475 21.2723C103.545 21.2303 103.604 21.193 103.65 21.1603C103.702 21.123 103.746 21.1043 103.783 21.1043C103.849 21.1043 103.907 21.144 103.958 21.2233L104.322 21.8183C104.108 22.019 103.849 22.1777 103.545 22.2943C103.242 22.4063 102.929 22.4623 102.607 22.4623ZM110.153 18.0313C110.153 17.742 110.111 17.4783 110.027 17.2403C109.948 16.9977 109.829 16.79 109.67 16.6173C109.516 16.44 109.327 16.3047 109.103 16.2113C108.879 16.1133 108.625 16.0643 108.34 16.0643C107.743 16.0643 107.269 16.2393 106.919 16.5893C106.574 16.9347 106.359 17.4153 106.275 18.0313H110.153ZM111.161 21.3563C111.007 21.543 110.823 21.7063 110.608 21.8463C110.393 21.9817 110.162 22.0937 109.915 22.1823C109.672 22.271 109.42 22.3363 109.159 22.3783C108.898 22.425 108.639 22.4483 108.382 22.4483C107.892 22.4483 107.439 22.3667 107.024 22.2033C106.613 22.0353 106.256 21.7927 105.953 21.4753C105.654 21.1533 105.421 20.7567 105.253 20.2853C105.085 19.814 105.001 19.2727 105.001 18.6613C105.001 18.1667 105.076 17.7047 105.225 17.2753C105.379 16.846 105.598 16.475 105.883 16.1623C106.168 15.845 106.515 15.5977 106.926 15.4203C107.337 15.2383 107.799 15.1473 108.312 15.1473C108.737 15.1473 109.129 15.2197 109.488 15.3643C109.852 15.5043 110.165 15.7097 110.426 15.9803C110.692 16.2463 110.9 16.5777 111.049 16.9743C111.198 17.3663 111.273 17.8143 111.273 18.3183C111.273 18.5143 111.252 18.645 111.21 18.7103C111.168 18.7757 111.089 18.8083 110.972 18.8083H106.233C106.247 19.2563 106.308 19.646 106.415 19.9773C106.527 20.3087 106.681 20.5863 106.877 20.8103C107.073 21.0297 107.306 21.1953 107.577 21.3073C107.848 21.4147 108.151 21.4683 108.487 21.4683C108.8 21.4683 109.068 21.4333 109.292 21.3633C109.521 21.2887 109.717 21.2093 109.88 21.1253C110.043 21.0413 110.179 20.9643 110.286 20.8943C110.398 20.8197 110.494 20.7823 110.573 20.7823C110.676 20.7823 110.755 20.822 110.811 20.9013L111.161 21.3563ZM117.423 16.9463C117.19 16.6337 116.938 16.4167 116.667 16.2953C116.397 16.1693 116.093 16.1063 115.757 16.1063C115.099 16.1063 114.593 16.342 114.238 16.8133C113.884 17.2847 113.706 17.9567 113.706 18.8293C113.706 19.2913 113.746 19.688 113.825 20.0193C113.905 20.346 114.021 20.6167 114.175 20.8313C114.329 21.0413 114.518 21.1953 114.742 21.2933C114.966 21.3913 115.221 21.4403 115.505 21.4403C115.916 21.4403 116.273 21.347 116.576 21.1603C116.884 20.9737 117.167 20.71 117.423 20.3693V16.9463ZM118.669 12.0393V22.3503H117.927C117.75 22.3503 117.638 22.264 117.591 22.0913L117.479 21.2303C117.176 21.5943 116.831 21.8883 116.443 22.1123C116.056 22.3363 115.608 22.4483 115.099 22.4483C114.693 22.4483 114.325 22.3713 113.993 22.2173C113.662 22.0587 113.38 21.8277 113.146 21.5243C112.913 21.221 112.733 20.843 112.607 20.3903C112.481 19.9377 112.418 19.4173 112.418 18.8293C112.418 18.3067 112.488 17.8213 112.628 17.3733C112.768 16.9207 112.969 16.5287 113.23 16.1973C113.492 15.866 113.811 15.607 114.189 15.4203C114.572 15.229 115.001 15.1333 115.477 15.1333C115.911 15.1333 116.282 15.208 116.59 15.3573C116.903 15.502 117.181 15.705 117.423 15.9663V12.0393H118.669ZM66.412 30.8873C66.37 30.9573 66.3233 31.011 66.272 31.0483C66.2253 31.081 66.167 31.0973 66.097 31.0973C66.0177 31.0973 65.9243 31.0577 65.817 30.9783C65.7097 30.899 65.5743 30.8127 65.411 30.7193C65.2523 30.6213 65.0587 30.5327 64.83 30.4533C64.606 30.374 64.333 30.3343 64.011 30.3343C63.7077 30.3343 63.4393 30.3763 63.206 30.4603C62.9773 30.5397 62.7837 30.6493 62.625 30.7893C62.471 30.9293 62.3543 31.095 62.275 31.2863C62.1957 31.473 62.156 31.676 62.156 31.8953C62.156 32.1753 62.2237 32.4087 62.359 32.5953C62.499 32.7773 62.681 32.9337 62.905 33.0643C63.1337 33.195 63.3903 33.3093 63.675 33.4073C63.9643 33.5007 64.2583 33.5987 64.557 33.7013C64.8603 33.804 65.1543 33.9207 65.439 34.0513C65.7283 34.1773 65.985 34.3383 66.209 34.5343C66.4377 34.7303 66.6197 34.9707 66.755 35.2553C66.895 35.54 66.965 35.89 66.965 36.3053C66.965 36.744 66.8903 37.157 66.741 37.5443C66.5917 37.927 66.3723 38.2607 66.083 38.5453C65.7983 38.83 65.446 39.054 65.026 39.2173C64.6107 39.3807 64.137 39.4623 63.605 39.4623C62.9517 39.4623 62.359 39.3457 61.827 39.1123C61.295 38.8743 60.84 38.5547 60.462 38.1533L60.854 37.5093C60.8913 37.458 60.9357 37.416 60.987 37.3833C61.043 37.346 61.1037 37.3273 61.169 37.3273C61.2297 37.3273 61.2973 37.353 61.372 37.4043C61.4513 37.451 61.54 37.5117 61.638 37.5863C61.736 37.661 61.848 37.7427 61.974 37.8313C62.1 37.92 62.2423 38.0017 62.401 38.0763C62.5643 38.151 62.7487 38.214 62.954 38.2653C63.1593 38.312 63.3903 38.3353 63.647 38.3353C63.969 38.3353 64.256 38.291 64.508 38.2023C64.76 38.1137 64.9723 37.99 65.145 37.8313C65.3223 37.668 65.4577 37.4743 65.551 37.2503C65.6443 37.0263 65.691 36.7767 65.691 36.5013C65.691 36.198 65.621 35.9507 65.481 35.7593C65.3457 35.5633 65.166 35.4 64.942 35.2693C64.718 35.1387 64.4613 35.029 64.172 34.9403C63.8827 34.847 63.5887 34.7537 63.29 34.6603C62.9913 34.5623 62.6973 34.4503 62.408 34.3243C62.1187 34.1983 61.862 34.035 61.638 33.8343C61.414 33.6337 61.232 33.384 61.092 33.0853C60.9567 32.782 60.889 32.4087 60.889 31.9653C60.889 31.6107 60.9567 31.2677 61.092 30.9363C61.232 30.605 61.4327 30.311 61.694 30.0543C61.96 29.7977 62.2843 29.5923 62.667 29.4383C63.0543 29.2843 63.4977 29.2073 63.997 29.2073C64.557 29.2073 65.0657 29.296 65.523 29.4733C65.985 29.6507 66.391 29.9073 66.741 30.2433L66.412 30.8873ZM70.4511 39.4623C69.8911 39.4623 69.4594 39.306 69.1561 38.9933C68.8574 38.6807 68.7081 38.2303 68.7081 37.6423V33.3023H67.8541C67.7794 33.3023 67.7164 33.2813 67.6651 33.2393C67.6138 33.1927 67.5881 33.1227 67.5881 33.0293V32.5323L68.7501 32.3853L69.0371 30.1943C69.0511 30.1243 69.0814 30.0683 69.1281 30.0263C69.1794 29.9797 69.2448 29.9563 69.3241 29.9563H69.9541V32.3993H72.0051V33.3023H69.9541V37.5583C69.9541 37.857 70.0264 38.0787 70.1711 38.2233C70.3158 38.368 70.5024 38.4403 70.7311 38.4403C70.8618 38.4403 70.9738 38.424 71.0671 38.3913C71.1651 38.354 71.2491 38.3143 71.3191 38.2723C71.3891 38.2303 71.4474 38.193 71.4941 38.1603C71.5454 38.123 71.5898 38.1043 71.6271 38.1043C71.6924 38.1043 71.7508 38.144 71.8021 38.2233L72.1661 38.8183C71.9514 39.019 71.6924 39.1777 71.3891 39.2943C71.0858 39.4063 70.7731 39.4623 70.4511 39.4623ZM76.2397 32.1473C76.7577 32.1473 77.2243 32.2337 77.6397 32.4063C78.055 32.579 78.4097 32.824 78.7037 33.1413C78.9977 33.4587 79.2217 33.8437 79.3757 34.2963C79.5343 34.7443 79.6137 35.246 79.6137 35.8013C79.6137 36.3613 79.5343 36.8653 79.3757 37.3133C79.2217 37.7613 78.9977 38.144 78.7037 38.4613C78.4097 38.7787 78.055 39.0237 77.6397 39.1963C77.2243 39.3643 76.7577 39.4483 76.2397 39.4483C75.717 39.4483 75.2457 39.3643 74.8257 39.1963C74.4103 39.0237 74.0557 38.7787 73.7617 38.4613C73.4677 38.144 73.2413 37.7613 73.0827 37.3133C72.9287 36.8653 72.8517 36.3613 72.8517 35.8013C72.8517 35.246 72.9287 34.7443 73.0827 34.2963C73.2413 33.8437 73.4677 33.4587 73.7617 33.1413C74.0557 32.824 74.4103 32.579 74.8257 32.4063C75.2457 32.2337 75.717 32.1473 76.2397 32.1473ZM76.2397 38.4753C76.9397 38.4753 77.4623 38.242 77.8077 37.7753C78.153 37.304 78.3257 36.6483 78.3257 35.8083C78.3257 34.9637 78.153 34.3057 77.8077 33.8343C77.4623 33.363 76.9397 33.1273 76.2397 33.1273C75.885 33.1273 75.5747 33.188 75.3087 33.3093C75.0473 33.4307 74.828 33.6057 74.6507 33.8343C74.478 34.063 74.3473 34.3453 74.2587 34.6813C74.1747 35.0127 74.1327 35.3883 74.1327 35.8083C74.1327 36.6483 74.3053 37.304 74.6507 37.7753C75.0007 38.242 75.5303 38.4753 76.2397 38.4753ZM82.377 33.6803C82.601 33.195 82.8764 32.817 83.203 32.5463C83.5297 32.271 83.9287 32.1333 84.4 32.1333C84.5494 32.1333 84.6917 32.1497 84.827 32.1823C84.967 32.215 85.0907 32.2663 85.198 32.3363L85.107 33.2673C85.079 33.384 85.009 33.4423 84.897 33.4423C84.8317 33.4423 84.736 33.4283 84.61 33.4003C84.484 33.3723 84.3417 33.3583 84.183 33.3583C83.959 33.3583 83.7584 33.391 83.581 33.4563C83.4084 33.5217 83.252 33.6197 83.112 33.7503C82.9767 33.8763 82.853 34.035 82.741 34.2263C82.6337 34.413 82.5357 34.6277 82.447 34.8703V39.3503H81.194V32.2593H81.908C82.0434 32.2593 82.1367 32.285 82.188 32.3363C82.2394 32.3877 82.2744 32.4763 82.293 32.6023L82.377 33.6803ZM90.0273 36.1583C89.4533 36.177 88.9633 36.2237 88.5573 36.2983C88.1559 36.3683 87.8269 36.4617 87.5703 36.5783C87.3183 36.695 87.1339 36.8327 87.0173 36.9913C86.9053 37.15 86.8493 37.3273 86.8493 37.5233C86.8493 37.71 86.8796 37.871 86.9403 38.0063C87.0009 38.1417 87.0826 38.2537 87.1853 38.3423C87.2926 38.4263 87.4163 38.4893 87.5563 38.5313C87.7009 38.5687 87.8549 38.5873 88.0183 38.5873C88.2376 38.5873 88.4383 38.5663 88.6203 38.5243C88.8023 38.4777 88.9726 38.4123 89.1313 38.3283C89.2946 38.2443 89.4486 38.144 89.5933 38.0273C89.7426 37.9107 89.8873 37.7777 90.0273 37.6283V36.1583ZM86.0023 33.2603C86.3943 32.8823 86.8166 32.6 87.2693 32.4133C87.7219 32.2267 88.2236 32.1333 88.7743 32.1333C89.1709 32.1333 89.5233 32.1987 89.8313 32.3293C90.1393 32.46 90.3983 32.642 90.6083 32.8753C90.8183 33.1087 90.9769 33.391 91.0843 33.7223C91.1916 34.0537 91.2453 34.4177 91.2453 34.8143V39.3503H90.6923C90.5709 39.3503 90.4776 39.3317 90.4123 39.2943C90.3469 39.2523 90.2956 39.173 90.2583 39.0563L90.1183 38.3843C89.9316 38.557 89.7496 38.711 89.5723 38.8463C89.3949 38.977 89.2083 39.089 89.0123 39.1823C88.8163 39.271 88.6063 39.3387 88.3823 39.3853C88.1629 39.4367 87.9179 39.4623 87.6473 39.4623C87.3719 39.4623 87.1129 39.425 86.8703 39.3503C86.6276 39.271 86.4153 39.1543 86.2333 39.0003C86.0559 38.8463 85.9136 38.6527 85.8063 38.4193C85.7036 38.1813 85.6523 37.9013 85.6523 37.5793C85.6523 37.2993 85.7293 37.031 85.8833 36.7743C86.0373 36.513 86.2869 36.282 86.6323 36.0813C86.9776 35.8807 87.4279 35.7173 87.9833 35.5913C88.5386 35.4607 89.2199 35.386 90.0273 35.3673V34.8143C90.0273 34.2637 89.9083 33.8483 89.6703 33.5683C89.4323 33.2837 89.0846 33.1413 88.6273 33.1413C88.3193 33.1413 88.0603 33.181 87.8503 33.2603C87.6449 33.335 87.4653 33.4213 87.3113 33.5193C87.1619 33.6127 87.0313 33.699 86.9193 33.7783C86.8119 33.853 86.7046 33.8903 86.5973 33.8903C86.5133 33.8903 86.4409 33.8693 86.3803 33.8273C86.3196 33.7807 86.2683 33.7247 86.2263 33.6593L86.0023 33.2603ZM95.6143 35.8853C95.8663 35.8853 96.0879 35.8503 96.2793 35.7803C96.4706 35.7103 96.6316 35.6123 96.7623 35.4863C96.8929 35.3603 96.9909 35.211 97.0563 35.0383C97.1216 34.861 97.1543 34.6673 97.1543 34.4573C97.1543 34.0233 97.0213 33.678 96.7553 33.4213C96.4939 33.1647 96.1136 33.0363 95.6143 33.0363C95.1103 33.0363 94.7253 33.1647 94.4593 33.4213C94.1979 33.678 94.0673 34.0233 94.0673 34.4573C94.0673 34.6673 94.0999 34.861 94.1653 35.0383C94.2353 35.211 94.3356 35.3603 94.4663 35.4863C94.5969 35.6123 94.7579 35.7103 94.9493 35.7803C95.1406 35.8503 95.3623 35.8853 95.6143 35.8853ZM97.8613 39.7353C97.8613 39.5627 97.8123 39.4227 97.7143 39.3153C97.6163 39.208 97.4833 39.124 97.3153 39.0633C97.1519 39.0027 96.9606 38.9607 96.7413 38.9373C96.5219 38.9093 96.2886 38.8883 96.0413 38.8743C95.7986 38.8603 95.5513 38.8463 95.2993 38.8323C95.0473 38.8183 94.8046 38.795 94.5713 38.7623C94.3099 38.8837 94.0953 39.0377 93.9273 39.2243C93.7639 39.4063 93.6823 39.621 93.6823 39.8683C93.6823 40.027 93.7219 40.174 93.8013 40.3093C93.8853 40.4493 94.0113 40.5683 94.1793 40.6663C94.3473 40.769 94.5573 40.8483 94.8093 40.9043C95.0659 40.965 95.3669 40.9953 95.7123 40.9953C96.0483 40.9953 96.3493 40.965 96.6153 40.9043C96.8813 40.8437 97.1053 40.7573 97.2873 40.6453C97.4739 40.5333 97.6163 40.4003 97.7143 40.2463C97.8123 40.0923 97.8613 39.922 97.8613 39.7353ZM99.1283 32.5393V33.0013C99.1283 33.1553 99.0303 33.2533 98.8343 33.2953L98.0293 33.4003C98.1879 33.7083 98.2673 34.049 98.2673 34.4223C98.2673 34.7677 98.1996 35.0827 98.0643 35.3673C97.9336 35.6473 97.7516 35.8877 97.5183 36.0883C97.2849 36.289 97.0049 36.443 96.6783 36.5503C96.3516 36.6577 95.9969 36.7113 95.6143 36.7113C95.2829 36.7113 94.9703 36.6717 94.6763 36.5923C94.5269 36.6857 94.4126 36.786 94.3333 36.8933C94.2539 36.996 94.2142 37.101 94.2142 37.2083C94.2142 37.3763 94.2819 37.5047 94.4173 37.5933C94.5573 37.6773 94.7393 37.738 94.9633 37.7753C95.1873 37.8127 95.4416 37.836 95.7263 37.8453C96.0156 37.8547 96.3096 37.871 96.6083 37.8943C96.9116 37.913 97.2056 37.948 97.4903 37.9993C97.7796 38.0507 98.0363 38.1347 98.2603 38.2513C98.4843 38.368 98.6639 38.529 98.7993 38.7343C98.9393 38.9397 99.0093 39.2057 99.0093 39.5323C99.0093 39.8357 98.9323 40.1297 98.7783 40.4143C98.6289 40.699 98.4119 40.951 98.1273 41.1703C97.8426 41.3943 97.4926 41.5717 97.0773 41.7023C96.6666 41.8377 96.2023 41.9053 95.6843 41.9053C95.1663 41.9053 94.7136 41.854 94.3263 41.7513C93.9389 41.6487 93.6169 41.511 93.3603 41.3383C93.1036 41.1657 92.9099 40.965 92.7793 40.7363C92.6533 40.5123 92.5903 40.2767 92.5903 40.0293C92.5903 39.6793 92.6999 39.383 92.9193 39.1403C93.1386 38.8977 93.4396 38.704 93.8223 38.5593C93.6123 38.466 93.4443 38.3423 93.3183 38.1883C93.1969 38.0297 93.1363 37.8173 93.1363 37.5513C93.1363 37.4487 93.1549 37.3437 93.1923 37.2363C93.2296 37.1243 93.2856 37.0147 93.3603 36.9073C93.4396 36.7953 93.5353 36.6903 93.6473 36.5923C93.7593 36.4943 93.8899 36.408 94.0393 36.3333C93.6893 36.1373 93.4163 35.8783 93.2203 35.5563C93.0243 35.2297 92.9263 34.8517 92.9263 34.4223C92.9263 34.077 92.9916 33.7643 93.1223 33.4843C93.2576 33.1997 93.4443 32.9593 93.6823 32.7633C93.9203 32.5627 94.2026 32.4087 94.5293 32.3013C94.8606 32.194 95.2223 32.1403 95.6143 32.1403C95.9223 32.1403 96.2093 32.1753 96.4753 32.2453C96.7413 32.3107 96.9839 32.4087 97.2033 32.5393H99.1283ZM105.053 35.0313C105.053 34.742 105.011 34.4783 104.927 34.2403C104.848 33.9977 104.729 33.79 104.57 33.6173C104.416 33.44 104.227 33.3047 104.003 33.2113C103.779 33.1133 103.525 33.0643 103.24 33.0643C102.643 33.0643 102.169 33.2393 101.819 33.5893C101.474 33.9347 101.259 34.4153 101.175 35.0313H105.053ZM106.061 38.3563C105.907 38.543 105.723 38.7063 105.508 38.8463C105.294 38.9817 105.063 39.0937 104.815 39.1823C104.573 39.271 104.321 39.3363 104.059 39.3783C103.798 39.425 103.539 39.4483 103.282 39.4483C102.792 39.4483 102.34 39.3667 101.924 39.2033C101.514 39.0353 101.157 38.7927 100.853 38.4753C100.555 38.1533 100.321 37.7567 100.153 37.2853C99.9853 36.814 99.9013 36.2727 99.9013 35.6613C99.9013 35.1667 99.976 34.7047 100.125 34.2753C100.279 33.846 100.499 33.475 100.783 33.1623C101.068 32.845 101.416 32.5977 101.826 32.4203C102.237 32.2383 102.699 32.1473 103.212 32.1473C103.637 32.1473 104.029 32.2197 104.388 32.3643C104.752 32.5043 105.065 32.7097 105.326 32.9803C105.592 33.2463 105.8 33.5777 105.949 33.9743C106.099 34.3663 106.173 34.8143 106.173 35.3183C106.173 35.5143 106.152 35.645 106.11 35.7103C106.068 35.7757 105.989 35.8083 105.872 35.8083H101.133C101.147 36.2563 101.208 36.646 101.315 36.9773C101.427 37.3087 101.581 37.5863 101.777 37.8103C101.973 38.0297 102.207 38.1953 102.477 38.3073C102.748 38.4147 103.051 38.4683 103.387 38.4683C103.7 38.4683 103.968 38.4333 104.192 38.3633C104.421 38.2887 104.617 38.2093 104.78 38.1253C104.944 38.0413 105.079 37.9643 105.186 37.8943C105.298 37.8197 105.394 37.7823 105.473 37.7823C105.576 37.7823 105.655 37.822 105.711 37.9013L106.061 38.3563Z" fill="white"/>
<defs>
<linearGradient id="paint0_linear_1994_7914" x1="136" y1="46.9648" x2="-0.709839" y2="6.11131" gradientUnits="userSpaceOnUse">
<stop offset="0.254808" stop-color="#464646"/>
<stop offset="1" stop-color="#43430D"/>
</linearGradient>
<linearGradient id="paint1_linear_1994_7914" x1="38.8994" y1="0.350342" x2="78.1734" y2="62.3415" gradientUnits="userSpaceOnUse">
<stop stop-color="#9F9F00"/>
<stop offset="0.509615" stop-color="#4D4D00"/>
</linearGradient>
<clipPath id="clip0_1994_7914">
<rect width="36" height="36" fill="white" transform="translate(16 7.35034)"/>
</clipPath>
</defs>
</svg>
