<svg width="127" height="51" viewBox="0 0 127 51" fill="none" xmlns="http://www.w3.org/2000/svg">
<rect x="0.5" y="0.850342" width="126" height="49" rx="6.5" fill="url(#paint0_linear_1994_7908)" fill-opacity="0.6"/>
<rect x="0.5" y="0.850342" width="126" height="49" rx="6.5" stroke="url(#paint1_linear_1994_7908)"/>
<path d="M37.4338 26.6031C37.2224 27.4809 36.22 28.1011 34.2138 29.3401C32.2776 30.5385 31.3088 31.1391 30.5276 30.8983C30.1995 30.7932 29.905 30.6034 29.6736 30.3481C29.0996 29.7181 29.0996 28.4945 29.0996 26.0501C29.0996 23.6057 29.0996 22.3821 29.6736 21.7521C29.9116 21.4917 30.2056 21.3027 30.5276 21.2033C31.3088 20.9611 32.2776 21.5617 34.2152 22.7601C36.22 24.0005 37.2224 24.6207 37.4352 25.4971C37.5221 25.8607 37.5221 26.2396 37.4352 26.6031" stroke="#FFFF00" stroke-width="1.5" stroke-linecap="round" stroke-linejoin="round"/>
<path d="M46.5972 23.9505C46.5991 24.6085 46.6 25.3085 46.6 26.0505C46.6 32.3197 46.6 35.4557 44.6526 37.4031C42.7052 39.3505 39.5706 39.3505 33.3 39.3505C27.0308 39.3505 23.8948 39.3505 21.9474 37.4031C20 35.4557 20 32.3211 20 26.0505C20 19.7813 20 16.6453 21.9474 14.6979C23.8948 12.7505 27.0294 12.7505 33.3 12.7505C34.042 12.7505 34.742 12.7514 35.4 12.7533" stroke="#FFFF00" stroke-width="1.5" stroke-linecap="round" stroke-linejoin="round"/>
<path d="M43.0992 11.3503L43.4604 12.3261C43.9336 13.6057 44.1702 14.2455 44.6364 14.7117C45.104 15.1793 45.7438 15.4159 47.0234 15.8891L47.9992 16.2503L47.0234 16.6115C45.7438 17.0847 45.104 17.3213 44.6378 17.7875C44.1702 18.2551 43.9336 18.8949 43.4604 20.1745L43.0992 21.1503L42.738 20.1745C42.2648 18.8949 42.0282 18.2551 41.562 17.7889C41.0944 17.3213 40.4546 17.0847 39.175 16.6115L38.1992 16.2503L39.175 15.8891C40.4546 15.4159 41.0944 15.1793 41.5606 14.7131C42.0282 14.2455 42.2648 13.6057 42.738 12.3261L43.0992 11.3503Z" stroke="#FFFF00" stroke-width="1.5" stroke-linecap="round" stroke-linejoin="round"/>
<path d="M69.436 12.3193L65.348 22.3503H64.13L60.042 12.3193H61.127C61.2483 12.3193 61.3463 12.3497 61.421 12.4103C61.4957 12.471 61.5517 12.548 61.589 12.6413L64.417 19.7183C64.4777 19.877 64.536 20.0497 64.592 20.2363C64.6527 20.423 64.7063 20.619 64.753 20.8243C64.7997 20.619 64.8487 20.423 64.9 20.2363C64.9513 20.0497 65.0073 19.877 65.068 19.7183L67.889 12.6413C67.917 12.562 67.9707 12.4897 68.05 12.4243C68.134 12.3543 68.2343 12.3193 68.351 12.3193H69.436ZM71.7776 15.2593V22.3503H70.5316V15.2593H71.7776ZM72.0436 13.0333C72.0436 13.1547 72.0179 13.269 71.9666 13.3763C71.9199 13.479 71.8546 13.5723 71.7706 13.6563C71.6913 13.7357 71.5956 13.7987 71.4836 13.8453C71.3763 13.892 71.2619 13.9153 71.1406 13.9153C71.0193 13.9153 70.9049 13.892 70.7976 13.8453C70.6949 13.7987 70.6039 13.7357 70.5246 13.6563C70.4453 13.5723 70.3823 13.479 70.3356 13.3763C70.2889 13.269 70.2656 13.1547 70.2656 13.0333C70.2656 12.912 70.2889 12.7977 70.3356 12.6903C70.3823 12.5783 70.4453 12.4827 70.5246 12.4033C70.6039 12.3193 70.6949 12.254 70.7976 12.2073C70.9049 12.1607 71.0193 12.1373 71.1406 12.1373C71.2619 12.1373 71.3763 12.1607 71.4836 12.2073C71.5956 12.254 71.6913 12.3193 71.7706 12.4033C71.8546 12.4827 71.9199 12.5783 71.9666 12.6903C72.0179 12.7977 72.0436 12.912 72.0436 13.0333ZM78.4449 16.9463C78.2116 16.6337 77.9596 16.4167 77.6889 16.2953C77.4182 16.1693 77.1149 16.1063 76.7789 16.1063C76.1209 16.1063 75.6146 16.342 75.2599 16.8133C74.9052 17.2847 74.7279 17.9567 74.7279 18.8293C74.7279 19.2913 74.7676 19.688 74.8469 20.0193C74.9262 20.346 75.0429 20.6167 75.1969 20.8313C75.3509 21.0413 75.5399 21.1953 75.7639 21.2933C75.9879 21.3913 76.2422 21.4403 76.5269 21.4403C76.9376 21.4403 77.2946 21.347 77.5979 21.1603C77.9059 20.9737 78.1882 20.71 78.4449 20.3693V16.9463ZM79.6909 12.0393V22.3503H78.9489C78.7716 22.3503 78.6596 22.264 78.6129 22.0913L78.5009 21.2303C78.1976 21.5943 77.8522 21.8883 77.4649 22.1123C77.0776 22.3363 76.6296 22.4483 76.1209 22.4483C75.7149 22.4483 75.3462 22.3713 75.0149 22.2173C74.6836 22.0587 74.4012 21.8277 74.1679 21.5243C73.9346 21.221 73.7549 20.843 73.6289 20.3903C73.5029 19.9377 73.4399 19.4173 73.4399 18.8293C73.4399 18.3067 73.5099 17.8213 73.6499 17.3733C73.7899 16.9207 73.9906 16.5287 74.2519 16.1973C74.5132 15.866 74.8329 15.607 75.2109 15.4203C75.5936 15.229 76.0229 15.1333 76.4989 15.1333C76.9329 15.1333 77.3039 15.208 77.6119 15.3573C77.9246 15.502 78.2022 15.705 78.4449 15.9663V12.0393H79.6909ZM86.4049 18.0313C86.4049 17.742 86.3629 17.4783 86.2789 17.2403C86.1995 16.9977 86.0805 16.79 85.9219 16.6173C85.7679 16.44 85.5789 16.3047 85.3549 16.2113C85.1309 16.1133 84.8765 16.0643 84.5919 16.0643C83.9945 16.0643 83.5209 16.2393 83.1709 16.5893C82.8255 16.9347 82.6109 17.4153 82.5269 18.0313H86.4049ZM87.4129 21.3563C87.2589 21.543 87.0745 21.7063 86.8599 21.8463C86.6452 21.9817 86.4142 22.0937 86.1669 22.1823C85.9242 22.271 85.6722 22.3363 85.4109 22.3783C85.1495 22.425 84.8905 22.4483 84.6339 22.4483C84.1439 22.4483 83.6912 22.3667 83.2759 22.2033C82.8652 22.0353 82.5082 21.7927 82.2049 21.4753C81.9062 21.1533 81.6729 20.7567 81.5049 20.2853C81.3369 19.814 81.2529 19.2727 81.2529 18.6613C81.2529 18.1667 81.3275 17.7047 81.4769 17.2753C81.6309 16.846 81.8502 16.475 82.1349 16.1623C82.4195 15.845 82.7672 15.5977 83.1779 15.4203C83.5885 15.2383 84.0505 15.1473 84.5639 15.1473C84.9885 15.1473 85.3805 15.2197 85.7399 15.3643C86.1039 15.5043 86.4165 15.7097 86.6779 15.9803C86.9439 16.2463 87.1515 16.5777 87.3009 16.9743C87.4502 17.3663 87.5249 17.8143 87.5249 18.3183C87.5249 18.5143 87.5039 18.645 87.4619 18.7103C87.4199 18.7757 87.3405 18.8083 87.2239 18.8083H82.4849C82.4989 19.2563 82.5595 19.646 82.6669 19.9773C82.7789 20.3087 82.9329 20.5863 83.1289 20.8103C83.3249 21.0297 83.5582 21.1953 83.8289 21.3073C84.0995 21.4147 84.4029 21.4683 84.7389 21.4683C85.0515 21.4683 85.3199 21.4333 85.5439 21.3633C85.7725 21.2887 85.9685 21.2093 86.1319 21.1253C86.2952 21.0413 86.4305 20.9643 86.5379 20.8943C86.6499 20.8197 86.7455 20.7823 86.8249 20.7823C86.9275 20.7823 87.0069 20.822 87.0629 20.9013L87.4129 21.3563ZM92.0444 15.1473C92.5624 15.1473 93.029 15.2337 93.4444 15.4063C93.8597 15.579 94.2144 15.824 94.5084 16.1413C94.8024 16.4587 95.0264 16.8437 95.1804 17.2963C95.339 17.7443 95.4184 18.246 95.4184 18.8013C95.4184 19.3613 95.339 19.8653 95.1804 20.3133C95.0264 20.7613 94.8024 21.144 94.5084 21.4613C94.2144 21.7787 93.8597 22.0237 93.4444 22.1963C93.029 22.3643 92.5624 22.4483 92.0444 22.4483C91.5217 22.4483 91.0504 22.3643 90.6304 22.1963C90.215 22.0237 89.8604 21.7787 89.5664 21.4613C89.2724 21.144 89.046 20.7613 88.8874 20.3133C88.7334 19.8653 88.6564 19.3613 88.6564 18.8013C88.6564 18.246 88.7334 17.7443 88.8874 17.2963C89.046 16.8437 89.2724 16.4587 89.5664 16.1413C89.8604 15.824 90.215 15.579 90.6304 15.4063C91.0504 15.2337 91.5217 15.1473 92.0444 15.1473ZM92.0444 21.4753C92.7444 21.4753 93.267 21.242 93.6124 20.7753C93.9577 20.304 94.1304 19.6483 94.1304 18.8083C94.1304 17.9637 93.9577 17.3057 93.6124 16.8343C93.267 16.363 92.7444 16.1273 92.0444 16.1273C91.6897 16.1273 91.3794 16.188 91.1134 16.3093C90.852 16.4307 90.6327 16.6057 90.4554 16.8343C90.2827 17.063 90.152 17.3453 90.0634 17.6813C89.9794 18.0127 89.9374 18.3883 89.9374 18.8083C89.9374 19.6483 90.11 20.304 90.4554 20.7753C90.8054 21.242 91.335 21.4753 92.0444 21.4753ZM66.608 35.6263L65.033 31.5453C64.9863 31.424 64.9373 31.284 64.886 31.1253C64.8347 30.962 64.7857 30.7893 64.739 30.6073C64.641 30.9853 64.5407 31.3003 64.438 31.5523L62.863 35.6263H66.608ZM69.436 39.3503H68.386C68.2647 39.3503 68.1667 39.32 68.092 39.2593C68.0173 39.1987 67.9613 39.1217 67.924 39.0283L66.986 36.6063H62.485L61.547 39.0283C61.519 39.1123 61.4653 39.187 61.386 39.2523C61.3067 39.3177 61.2087 39.3503 61.092 39.3503H60.042L64.053 29.3193H65.425L69.436 39.3503ZM71.6103 33.2883C71.7643 33.1157 71.9276 32.9593 72.1003 32.8193C72.2729 32.6793 72.4549 32.5603 72.6463 32.4623C72.8423 32.3597 73.0476 32.2827 73.2623 32.2313C73.4816 32.1753 73.7173 32.1473 73.9693 32.1473C74.3566 32.1473 74.6973 32.2127 74.9913 32.3433C75.2899 32.4693 75.5373 32.6513 75.7333 32.8893C75.9339 33.1227 76.0856 33.405 76.1883 33.7363C76.2909 34.0677 76.3423 34.434 76.3423 34.8353V39.3503H75.0893V34.8353C75.0893 34.2987 74.9656 33.8833 74.7183 33.5893C74.4756 33.2907 74.1046 33.1413 73.6053 33.1413C73.2366 33.1413 72.8913 33.23 72.5693 33.4073C72.2519 33.5847 71.9579 33.825 71.6873 34.1283V39.3503H70.4343V32.2593H71.1833C71.3606 32.2593 71.4703 32.3457 71.5123 32.5183L71.6103 33.2883ZM82.0839 36.1583C81.5099 36.177 81.0199 36.2237 80.6139 36.2983C80.2126 36.3683 79.8836 36.4617 79.6269 36.5783C79.3749 36.695 79.1906 36.8327 79.0739 36.9913C78.9619 37.15 78.9059 37.3273 78.9059 37.5233C78.9059 37.71 78.9362 37.871 78.9969 38.0063C79.0576 38.1417 79.1392 38.2537 79.2419 38.3423C79.3492 38.4263 79.4729 38.4893 79.6129 38.5313C79.7576 38.5687 79.9116 38.5873 80.0749 38.5873C80.2942 38.5873 80.4949 38.5663 80.6769 38.5243C80.8589 38.4777 81.0292 38.4123 81.1879 38.3283C81.3512 38.2443 81.5052 38.144 81.6499 38.0273C81.7992 37.9107 81.9439 37.7777 82.0839 37.6283V36.1583ZM78.0589 33.2603C78.4509 32.8823 78.8732 32.6 79.3259 32.4133C79.7786 32.2267 80.2802 32.1333 80.8309 32.1333C81.2276 32.1333 81.5799 32.1987 81.8879 32.3293C82.1959 32.46 82.4549 32.642 82.6649 32.8753C82.8749 33.1087 83.0336 33.391 83.1409 33.7223C83.2482 34.0537 83.3019 34.4177 83.3019 34.8143V39.3503H82.7489C82.6276 39.3503 82.5342 39.3317 82.4689 39.2943C82.4036 39.2523 82.3522 39.173 82.3149 39.0563L82.1749 38.3843C81.9882 38.557 81.8062 38.711 81.6289 38.8463C81.4516 38.977 81.2649 39.089 81.0689 39.1823C80.8729 39.271 80.6629 39.3387 80.4389 39.3853C80.2196 39.4367 79.9746 39.4623 79.7039 39.4623C79.4286 39.4623 79.1696 39.425 78.9269 39.3503C78.6842 39.271 78.4719 39.1543 78.2899 39.0003C78.1126 38.8463 77.9702 38.6527 77.8629 38.4193C77.7602 38.1813 77.7089 37.9013 77.7089 37.5793C77.7089 37.2993 77.7859 37.031 77.9399 36.7743C78.0939 36.513 78.3436 36.282 78.6889 36.0813C79.0342 35.8807 79.4846 35.7173 80.0399 35.5913C80.5952 35.4607 81.2766 35.386 82.0839 35.3673V34.8143C82.0839 34.2637 81.9649 33.8483 81.7269 33.5683C81.4889 33.2837 81.1412 33.1413 80.6839 33.1413C80.3759 33.1413 80.1169 33.181 79.9069 33.2603C79.7016 33.335 79.5219 33.4213 79.3679 33.5193C79.2186 33.6127 79.0879 33.699 78.9759 33.7783C78.8686 33.853 78.7612 33.8903 78.6539 33.8903C78.5699 33.8903 78.4976 33.8693 78.4369 33.8273C78.3762 33.7807 78.3249 33.7247 78.2829 33.6593L78.0589 33.2603ZM86.4879 29.0393V39.3503H85.2419V29.0393H86.4879ZM94.6265 32.2593L90.6715 41.4433C90.6295 41.5367 90.5758 41.6113 90.5105 41.6673C90.4498 41.7233 90.3542 41.7513 90.2235 41.7513H89.2995L90.5945 38.9373L87.6685 32.2593H88.7465C88.8538 32.2593 88.9378 32.2873 88.9985 32.3433C89.0638 32.3947 89.1082 32.453 89.1315 32.5183L91.0285 36.9843C91.1032 37.1803 91.1662 37.3857 91.2175 37.6003C91.2828 37.381 91.3528 37.1733 91.4275 36.9773L93.2685 32.5183C93.2965 32.4437 93.3432 32.383 93.4085 32.3363C93.4785 32.285 93.5555 32.2593 93.6395 32.2593H94.6265ZM99.7342 33.4283C99.6782 33.531 99.5919 33.5823 99.4752 33.5823C99.4052 33.5823 99.3259 33.5567 99.2372 33.5053C99.1485 33.454 99.0389 33.398 98.9082 33.3373C98.7822 33.272 98.6305 33.2137 98.4532 33.1623C98.2759 33.1063 98.0659 33.0783 97.8232 33.0783C97.6132 33.0783 97.4242 33.1063 97.2562 33.1623C97.0882 33.2137 96.9435 33.286 96.8222 33.3793C96.7055 33.4727 96.6145 33.5823 96.5492 33.7083C96.4885 33.8297 96.4582 33.9627 96.4582 34.1073C96.4582 34.2893 96.5095 34.441 96.6122 34.5623C96.7195 34.6837 96.8595 34.7887 97.0322 34.8773C97.2049 34.966 97.4009 35.0453 97.6202 35.1153C97.8395 35.1807 98.0635 35.253 98.2922 35.3323C98.5255 35.407 98.7519 35.491 98.9712 35.5843C99.1905 35.6777 99.3865 35.7943 99.5592 35.9343C99.7319 36.0743 99.8695 36.247 99.9722 36.4523C100.08 36.653 100.133 36.8957 100.133 37.1803C100.133 37.507 100.075 37.8103 99.9582 38.0903C99.8415 38.3657 99.6689 38.606 99.4402 38.8113C99.2115 39.012 98.9315 39.1707 98.6002 39.2873C98.2689 39.404 97.8862 39.4623 97.4522 39.4623C96.9575 39.4623 96.5095 39.383 96.1082 39.2243C95.7069 39.061 95.3662 38.8533 95.0862 38.6013L95.3802 38.1253C95.4175 38.0647 95.4619 38.018 95.5132 37.9853C95.5645 37.9527 95.6299 37.9363 95.7092 37.9363C95.7932 37.9363 95.8819 37.969 95.9752 38.0343C96.0685 38.0997 96.1805 38.172 96.3112 38.2513C96.4465 38.3307 96.6099 38.403 96.8012 38.4683C96.9925 38.5337 97.2305 38.5663 97.5152 38.5663C97.7579 38.5663 97.9702 38.536 98.1522 38.4753C98.3342 38.41 98.4859 38.3237 98.6072 38.2163C98.7285 38.109 98.8172 37.9853 98.8732 37.8453C98.9339 37.7053 98.9642 37.556 98.9642 37.3973C98.9642 37.2013 98.9105 37.0403 98.8032 36.9143C98.7005 36.7837 98.5629 36.674 98.3902 36.5853C98.2175 36.492 98.0192 36.4127 97.7952 36.3473C97.5759 36.2773 97.3495 36.205 97.1162 36.1303C96.8875 36.0557 96.6612 35.9717 96.4372 35.8783C96.2179 35.7803 96.0219 35.659 95.8492 35.5143C95.6765 35.3697 95.5365 35.1923 95.4292 34.9823C95.3265 34.7677 95.2752 34.5087 95.2752 34.2053C95.2752 33.9347 95.3312 33.6757 95.4432 33.4283C95.5552 33.1763 95.7185 32.957 95.9332 32.7703C96.1479 32.579 96.4115 32.4273 96.7242 32.3153C97.0369 32.2033 97.3939 32.1473 97.7952 32.1473C98.2619 32.1473 98.6795 32.222 99.0482 32.3713C99.4215 32.516 99.7435 32.7167 100.014 32.9733L99.7342 33.4283ZM102.977 32.2593V39.3503H101.731V32.2593H102.977ZM103.243 30.0333C103.243 30.1547 103.217 30.269 103.166 30.3763C103.119 30.479 103.054 30.5723 102.97 30.6563C102.89 30.7357 102.795 30.7987 102.683 30.8453C102.575 30.892 102.461 30.9153 102.34 30.9153C102.218 30.9153 102.104 30.892 101.997 30.8453C101.894 30.7987 101.803 30.7357 101.724 30.6563C101.644 30.5723 101.581 30.479 101.535 30.3763C101.488 30.269 101.465 30.1547 101.465 30.0333C101.465 29.912 101.488 29.7977 101.535 29.6903C101.581 29.5783 101.644 29.4827 101.724 29.4033C101.803 29.3193 101.894 29.254 101.997 29.2073C102.104 29.1607 102.218 29.1373 102.34 29.1373C102.461 29.1373 102.575 29.1607 102.683 29.2073C102.795 29.254 102.89 29.3193 102.97 29.4033C103.054 29.4827 103.119 29.5783 103.166 29.6903C103.217 29.7977 103.243 29.912 103.243 30.0333ZM109.154 33.4283C109.098 33.531 109.012 33.5823 108.895 33.5823C108.825 33.5823 108.746 33.5567 108.657 33.5053C108.568 33.454 108.459 33.398 108.328 33.3373C108.202 33.272 108.05 33.2137 107.873 33.1623C107.696 33.1063 107.486 33.0783 107.243 33.0783C107.033 33.0783 106.844 33.1063 106.676 33.1623C106.508 33.2137 106.363 33.286 106.242 33.3793C106.125 33.4727 106.034 33.5823 105.969 33.7083C105.908 33.8297 105.878 33.9627 105.878 34.1073C105.878 34.2893 105.929 34.441 106.032 34.5623C106.139 34.6837 106.279 34.7887 106.452 34.8773C106.625 34.966 106.821 35.0453 107.04 35.1153C107.259 35.1807 107.483 35.253 107.712 35.3323C107.945 35.407 108.172 35.491 108.391 35.5843C108.61 35.6777 108.806 35.7943 108.979 35.9343C109.152 36.0743 109.289 36.247 109.392 36.4523C109.499 36.653 109.553 36.8957 109.553 37.1803C109.553 37.507 109.495 37.8103 109.378 38.0903C109.261 38.3657 109.089 38.606 108.86 38.8113C108.631 39.012 108.351 39.1707 108.02 39.2873C107.689 39.404 107.306 39.4623 106.872 39.4623C106.377 39.4623 105.929 39.383 105.528 39.2243C105.127 39.061 104.786 38.8533 104.506 38.6013L104.8 38.1253C104.837 38.0647 104.882 38.018 104.933 37.9853C104.984 37.9527 105.05 37.9363 105.129 37.9363C105.213 37.9363 105.302 37.969 105.395 38.0343C105.488 38.0997 105.6 38.172 105.731 38.2513C105.866 38.3307 106.03 38.403 106.221 38.4683C106.412 38.5337 106.65 38.5663 106.935 38.5663C107.178 38.5663 107.39 38.536 107.572 38.4753C107.754 38.41 107.906 38.3237 108.027 38.2163C108.148 38.109 108.237 37.9853 108.293 37.8453C108.354 37.7053 108.384 37.556 108.384 37.3973C108.384 37.2013 108.33 37.0403 108.223 36.9143C108.12 36.7837 107.983 36.674 107.81 36.5853C107.637 36.492 107.439 36.4127 107.215 36.3473C106.996 36.2773 106.769 36.205 106.536 36.1303C106.307 36.0557 106.081 35.9717 105.857 35.8783C105.638 35.7803 105.442 35.659 105.269 35.5143C105.096 35.3697 104.956 35.1923 104.849 34.9823C104.746 34.7677 104.695 34.5087 104.695 34.2053C104.695 33.9347 104.751 33.6757 104.863 33.4283C104.975 33.1763 105.138 32.957 105.353 32.7703C105.568 32.579 105.831 32.4273 106.144 32.3153C106.457 32.2033 106.814 32.1473 107.215 32.1473C107.682 32.1473 108.099 32.222 108.468 32.3713C108.841 32.516 109.163 32.7167 109.434 32.9733L109.154 33.4283Z" fill="white"/>
<defs>
<linearGradient id="paint0_linear_1994_7908" x1="127" y1="46.9648" x2="-2.01642" y2="10.9618" gradientUnits="userSpaceOnUse">
<stop offset="0.254808" stop-color="#464646"/>
<stop offset="1" stop-color="#43430D"/>
</linearGradient>
<linearGradient id="paint1_linear_1994_7908" x1="36.3252" y1="0.350342" x2="76.6859" y2="59.841" gradientUnits="userSpaceOnUse">
<stop stop-color="#9F9F00"/>
<stop offset="0.509615" stop-color="#4D4D00"/>
</linearGradient>
</defs>
</svg>
