<svg width="150" height="51" viewBox="0 0 150 51" fill="none" xmlns="http://www.w3.org/2000/svg">
<rect x="0.5" y="0.850342" width="149" height="49" rx="6.5" fill="url(#paint0_linear_1994_7911)" fill-opacity="0.6"/>
<rect x="0.5" y="0.850342" width="149" height="49" rx="6.5" stroke="url(#paint1_linear_1994_7911)"/>
<path fill-rule="evenodd" clip-rule="evenodd" d="M24.8226 13.421C24.0925 13.421 23.3923 13.711 22.876 14.2273C22.3597 14.7436 22.0697 15.4438 22.0697 16.1739V20.7622H20.2344V16.1739C20.2344 14.9571 20.7178 13.79 21.5782 12.9296C22.4387 12.0691 23.6057 11.5857 24.8226 11.5857H29.4108V13.421H24.8226ZM43.1756 13.421H38.5873V11.5857H43.1756C44.3924 11.5857 45.5595 12.0691 46.4199 12.9296C47.2804 13.79 47.7638 14.9571 47.7638 16.1739V20.7622H45.9285V16.1739C45.9285 15.4438 45.6385 14.7436 45.1222 14.2273C44.6059 13.711 43.9057 13.421 43.1756 13.421ZM29.4108 22.5975H27.5756V20.7622H29.4108V22.5975ZM40.4226 22.5975H38.5873V20.7622H40.4226V22.5975ZM29.2273 27.5528C29.7829 28.2935 30.5034 28.8948 31.3316 29.3089C32.1598 29.723 33.0731 29.9386 33.9991 29.9386C34.9251 29.9386 35.8383 29.723 36.6666 29.3089C37.4948 28.8948 38.2153 28.2935 38.7708 27.5528L40.2391 28.6539C37.1191 32.8145 30.8791 32.8145 27.7591 28.6539L29.2273 27.5528ZM20.2344 34.5269V29.9386H22.0697V34.5269C22.0697 35.257 22.3597 35.9572 22.876 36.4735C23.3923 36.9898 24.0925 37.2798 24.8226 37.2798H29.4108V39.1151H24.8226C23.6057 39.1151 22.4387 38.6317 21.5782 37.7712C20.7178 36.9108 20.2344 35.7437 20.2344 34.5269ZM47.7638 29.9386V34.5269C47.7638 35.7437 47.2804 36.9108 46.4199 37.7712C45.5595 38.6317 44.3924 39.1151 43.1756 39.1151H38.5873V37.2798H43.1756C43.9057 37.2798 44.6059 36.9898 45.1222 36.4735C45.6385 35.9572 45.9285 35.257 45.9285 34.5269V29.9386H47.7638Z" fill="#FFFF00"/>
<path d="M62.639 13.4253V16.9323H66.762V18.0383H62.639V22.3503H61.281V12.3193H67.462V13.4253H62.639ZM71.748 19.1583C71.174 19.177 70.684 19.2237 70.278 19.2983C69.8766 19.3683 69.5476 19.4617 69.291 19.5783C69.039 19.695 68.8546 19.8327 68.738 19.9913C68.626 20.15 68.57 20.3273 68.57 20.5233C68.57 20.71 68.6003 20.871 68.661 21.0063C68.7216 21.1417 68.8033 21.2537 68.906 21.3423C69.0133 21.4263 69.137 21.4893 69.277 21.5313C69.4216 21.5687 69.5756 21.5873 69.739 21.5873C69.9583 21.5873 70.159 21.5663 70.341 21.5243C70.523 21.4777 70.6933 21.4123 70.852 21.3283C71.0153 21.2443 71.1693 21.144 71.314 21.0273C71.4633 20.9107 71.608 20.7777 71.748 20.6283V19.1583ZM67.723 16.2603C68.115 15.8823 68.5373 15.6 68.99 15.4133C69.4426 15.2267 69.9443 15.1333 70.495 15.1333C70.8916 15.1333 71.244 15.1987 71.552 15.3293C71.86 15.46 72.119 15.642 72.329 15.8753C72.539 16.1087 72.6976 16.391 72.805 16.7223C72.9123 17.0537 72.966 17.4177 72.966 17.8143V22.3503H72.413C72.2916 22.3503 72.1983 22.3317 72.133 22.2943C72.0676 22.2523 72.0163 22.173 71.979 22.0563L71.839 21.3843C71.6523 21.557 71.4703 21.711 71.293 21.8463C71.1156 21.977 70.929 22.089 70.733 22.1823C70.537 22.271 70.327 22.3387 70.103 22.3853C69.8836 22.4367 69.6386 22.4623 69.368 22.4623C69.0926 22.4623 68.8336 22.425 68.591 22.3503C68.3483 22.271 68.136 22.1543 67.954 22.0003C67.7766 21.8463 67.6343 21.6527 67.527 21.4193C67.4243 21.1813 67.373 20.9013 67.373 20.5793C67.373 20.2993 67.45 20.031 67.604 19.7743C67.758 19.513 68.0076 19.282 68.353 19.0813C68.6983 18.8807 69.1486 18.7173 69.704 18.5913C70.2593 18.4607 70.9406 18.386 71.748 18.3673V17.8143C71.748 17.2637 71.629 16.8483 71.391 16.5683C71.153 16.2837 70.8053 16.1413 70.348 16.1413C70.04 16.1413 69.781 16.181 69.571 16.2603C69.3656 16.335 69.186 16.4213 69.032 16.5193C68.8826 16.6127 68.752 16.699 68.64 16.7783C68.5326 16.853 68.4253 16.8903 68.318 16.8903C68.234 16.8903 68.1616 16.8693 68.101 16.8273C68.0403 16.7807 67.989 16.7247 67.947 16.6593L67.723 16.2603ZM78.994 16.4283C78.938 16.531 78.8516 16.5823 78.735 16.5823C78.665 16.5823 78.5856 16.5567 78.497 16.5053C78.4083 16.454 78.2986 16.398 78.168 16.3373C78.042 16.272 77.8903 16.2137 77.713 16.1623C77.5356 16.1063 77.3256 16.0783 77.083 16.0783C76.873 16.0783 76.684 16.1063 76.516 16.1623C76.348 16.2137 76.2033 16.286 76.082 16.3793C75.9653 16.4727 75.8743 16.5823 75.809 16.7083C75.7483 16.8297 75.718 16.9627 75.718 17.1073C75.718 17.2893 75.7693 17.441 75.872 17.5623C75.9793 17.6837 76.1193 17.7887 76.292 17.8773C76.4646 17.966 76.6606 18.0453 76.88 18.1153C77.0993 18.1807 77.3233 18.253 77.552 18.3323C77.7853 18.407 78.0116 18.491 78.231 18.5843C78.4503 18.6777 78.6463 18.7943 78.819 18.9343C78.9916 19.0743 79.1293 19.247 79.232 19.4523C79.3393 19.653 79.393 19.8957 79.393 20.1803C79.393 20.507 79.3346 20.8103 79.218 21.0903C79.1013 21.3657 78.9286 21.606 78.7 21.8113C78.4713 22.012 78.1913 22.1707 77.86 22.2873C77.5286 22.404 77.146 22.4623 76.712 22.4623C76.2173 22.4623 75.7693 22.383 75.368 22.2243C74.9666 22.061 74.626 21.8533 74.346 21.6013L74.64 21.1253C74.6773 21.0647 74.7216 21.018 74.773 20.9853C74.8243 20.9527 74.8896 20.9363 74.969 20.9363C75.053 20.9363 75.1416 20.969 75.235 21.0343C75.3283 21.0997 75.4403 21.172 75.571 21.2513C75.7063 21.3307 75.8696 21.403 76.061 21.4683C76.2523 21.5337 76.4903 21.5663 76.775 21.5663C77.0176 21.5663 77.23 21.536 77.412 21.4753C77.594 21.41 77.7456 21.3237 77.867 21.2163C77.9883 21.109 78.077 20.9853 78.133 20.8453C78.1936 20.7053 78.224 20.556 78.224 20.3973C78.224 20.2013 78.1703 20.0403 78.063 19.9143C77.9603 19.7837 77.8226 19.674 77.65 19.5853C77.4773 19.492 77.279 19.4127 77.055 19.3473C76.8356 19.2773 76.6093 19.205 76.376 19.1303C76.1473 19.0557 75.921 18.9717 75.697 18.8783C75.4776 18.7803 75.2816 18.659 75.109 18.5143C74.9363 18.3697 74.7963 18.1923 74.689 17.9823C74.5863 17.7677 74.535 17.5087 74.535 17.2053C74.535 16.9347 74.591 16.6757 74.703 16.4283C74.815 16.1763 74.9783 15.957 75.193 15.7703C75.4076 15.579 75.6713 15.4273 75.984 15.3153C76.2966 15.2033 76.6536 15.1473 77.055 15.1473C77.5216 15.1473 77.9393 15.222 78.308 15.3713C78.6813 15.516 79.0033 15.7167 79.274 15.9733L78.994 16.4283ZM83.0976 22.4623C82.5376 22.4623 82.1059 22.306 81.8026 21.9933C81.5039 21.6807 81.3546 21.2303 81.3546 20.6423V16.3023H80.5006C80.4259 16.3023 80.3629 16.2813 80.3116 16.2393C80.2603 16.1927 80.2346 16.1227 80.2346 16.0293V15.5323L81.3966 15.3853L81.6836 13.1943C81.6976 13.1243 81.7279 13.0683 81.7746 13.0263C81.8259 12.9797 81.8913 12.9563 81.9706 12.9563H82.6006V15.3993H84.6516V16.3023H82.6006V20.5583C82.6006 20.857 82.6729 21.0787 82.8176 21.2233C82.9623 21.368 83.1489 21.4403 83.3776 21.4403C83.5083 21.4403 83.6203 21.424 83.7136 21.3913C83.8116 21.354 83.8956 21.3143 83.9656 21.2723C84.0356 21.2303 84.0939 21.193 84.1406 21.1603C84.1919 21.123 84.2363 21.1043 84.2736 21.1043C84.3389 21.1043 84.3973 21.144 84.4486 21.2233L84.8126 21.8183C84.5979 22.019 84.3389 22.1777 84.0356 22.2943C83.7323 22.4063 83.4196 22.4623 83.0976 22.4623ZM89.9822 22.3503V16.3233L89.1982 16.2323C89.1002 16.209 89.0185 16.174 88.9532 16.1273C88.8925 16.076 88.8622 16.0037 88.8622 15.9103V15.3993H89.9822V14.7133C89.9822 14.3073 90.0382 13.948 90.1502 13.6353C90.2669 13.318 90.4302 13.052 90.6402 12.8373C90.8549 12.618 91.1115 12.4523 91.4102 12.3403C91.7089 12.2283 92.0449 12.1723 92.4182 12.1723C92.7355 12.1723 93.0272 12.219 93.2932 12.3123L93.2652 12.9353C93.2559 13.0473 93.1929 13.108 93.0762 13.1173C92.9642 13.1267 92.8125 13.1313 92.6212 13.1313C92.4065 13.1313 92.2105 13.1593 92.0332 13.2153C91.8605 13.2713 91.7112 13.3623 91.5852 13.4883C91.4592 13.6143 91.3612 13.78 91.2912 13.9853C91.2259 14.1907 91.1932 14.445 91.1932 14.7483V15.3993H93.2372V16.3023H91.2352V22.3503H89.9822ZM98.2304 19.1583C97.6564 19.177 97.1664 19.2237 96.7604 19.2983C96.3591 19.3683 96.0301 19.4617 95.7734 19.5783C95.5214 19.695 95.3371 19.8327 95.2204 19.9913C95.1084 20.15 95.0524 20.3273 95.0524 20.5233C95.0524 20.71 95.0827 20.871 95.1434 21.0063C95.2041 21.1417 95.2857 21.2537 95.3884 21.3423C95.4957 21.4263 95.6194 21.4893 95.7594 21.5313C95.9041 21.5687 96.0581 21.5873 96.2214 21.5873C96.4407 21.5873 96.6414 21.5663 96.8234 21.5243C97.0054 21.4777 97.1757 21.4123 97.3344 21.3283C97.4977 21.2443 97.6517 21.144 97.7964 21.0273C97.9457 20.9107 98.0904 20.7777 98.2304 20.6283V19.1583ZM94.2054 16.2603C94.5974 15.8823 95.0197 15.6 95.4724 15.4133C95.9251 15.2267 96.4267 15.1333 96.9774 15.1333C97.3741 15.1333 97.7264 15.1987 98.0344 15.3293C98.3424 15.46 98.6014 15.642 98.8114 15.8753C99.0214 16.1087 99.1801 16.391 99.2874 16.7223C99.3947 17.0537 99.4484 17.4177 99.4484 17.8143V22.3503H98.8954C98.7741 22.3503 98.6807 22.3317 98.6154 22.2943C98.5501 22.2523 98.4987 22.173 98.4614 22.0563L98.3214 21.3843C98.1347 21.557 97.9527 21.711 97.7754 21.8463C97.5981 21.977 97.4114 22.089 97.2154 22.1823C97.0194 22.271 96.8094 22.3387 96.5854 22.3853C96.3661 22.4367 96.1211 22.4623 95.8504 22.4623C95.5751 22.4623 95.3161 22.425 95.0734 22.3503C94.8307 22.271 94.6184 22.1543 94.4364 22.0003C94.2591 21.8463 94.1167 21.6527 94.0094 21.4193C93.9067 21.1813 93.8554 20.9013 93.8554 20.5793C93.8554 20.2993 93.9324 20.031 94.0864 19.7743C94.2404 19.513 94.4901 19.282 94.8354 19.0813C95.1807 18.8807 95.6311 18.7173 96.1864 18.5913C96.7417 18.4607 97.4231 18.386 98.2304 18.3673V17.8143C98.2304 17.2637 98.1114 16.8483 97.8734 16.5683C97.6354 16.2837 97.2877 16.1413 96.8304 16.1413C96.5224 16.1413 96.2634 16.181 96.0534 16.2603C95.8481 16.335 95.6684 16.4213 95.5144 16.5193C95.3651 16.6127 95.2344 16.699 95.1224 16.7783C95.0151 16.853 94.9077 16.8903 94.8004 16.8903C94.7164 16.8903 94.6441 16.8693 94.5834 16.8273C94.5227 16.7807 94.4714 16.7247 94.4294 16.6593L94.2054 16.2603ZM106.281 16.5193C106.244 16.5707 106.207 16.6103 106.169 16.6383C106.132 16.6663 106.081 16.6803 106.015 16.6803C105.945 16.6803 105.868 16.6523 105.784 16.5963C105.7 16.5357 105.595 16.4703 105.469 16.4003C105.348 16.3303 105.196 16.2673 105.014 16.2113C104.837 16.1507 104.618 16.1203 104.356 16.1203C104.006 16.1203 103.698 16.1833 103.432 16.3093C103.166 16.4307 102.942 16.608 102.76 16.8413C102.583 17.0747 102.448 17.357 102.354 17.6883C102.266 18.0197 102.221 18.3907 102.221 18.8013C102.221 19.2307 102.27 19.6133 102.368 19.9493C102.466 20.2807 102.604 20.5607 102.781 20.7893C102.963 21.0133 103.18 21.186 103.432 21.3073C103.689 21.424 103.976 21.4823 104.293 21.4823C104.597 21.4823 104.846 21.4473 105.042 21.3773C105.238 21.3027 105.399 21.221 105.525 21.1323C105.656 21.0437 105.763 20.9643 105.847 20.8943C105.936 20.8197 106.022 20.7823 106.106 20.7823C106.209 20.7823 106.288 20.822 106.344 20.9013L106.694 21.3563C106.54 21.5477 106.365 21.711 106.169 21.8463C105.973 21.9817 105.761 22.096 105.532 22.1893C105.308 22.278 105.073 22.3433 104.825 22.3853C104.578 22.4273 104.326 22.4483 104.069 22.4483C103.626 22.4483 103.213 22.3667 102.83 22.2033C102.452 22.04 102.123 21.8043 101.843 21.4963C101.563 21.1837 101.344 20.801 101.185 20.3483C101.027 19.8957 100.947 19.38 100.947 18.8013C100.947 18.274 101.02 17.7863 101.164 17.3383C101.314 16.8903 101.528 16.5053 101.808 16.1833C102.093 15.8567 102.441 15.6023 102.851 15.4203C103.267 15.2383 103.743 15.1473 104.279 15.1473C104.779 15.1473 105.217 15.229 105.595 15.3923C105.978 15.551 106.316 15.7773 106.61 16.0713L106.281 16.5193ZM112.655 18.0313C112.655 17.742 112.613 17.4783 112.529 17.2403C112.45 16.9977 112.331 16.79 112.172 16.6173C112.018 16.44 111.829 16.3047 111.605 16.2113C111.381 16.1133 111.127 16.0643 110.842 16.0643C110.245 16.0643 109.771 16.2393 109.421 16.5893C109.076 16.9347 108.861 17.4153 108.777 18.0313H112.655ZM113.663 21.3563C113.509 21.543 113.325 21.7063 113.11 21.8463C112.895 21.9817 112.664 22.0937 112.417 22.1823C112.174 22.271 111.922 22.3363 111.661 22.3783C111.4 22.425 111.141 22.4483 110.884 22.4483C110.394 22.4483 109.941 22.3667 109.526 22.2033C109.115 22.0353 108.758 21.7927 108.455 21.4753C108.156 21.1533 107.923 20.7567 107.755 20.2853C107.587 19.814 107.503 19.2727 107.503 18.6613C107.503 18.1667 107.578 17.7047 107.727 17.2753C107.881 16.846 108.1 16.475 108.385 16.1623C108.67 15.845 109.017 15.5977 109.428 15.4203C109.839 15.2383 110.301 15.1473 110.814 15.1473C111.239 15.1473 111.631 15.2197 111.99 15.3643C112.354 15.5043 112.667 15.7097 112.928 15.9803C113.194 16.2463 113.402 16.5777 113.551 16.9743C113.7 17.3663 113.775 17.8143 113.775 18.3183C113.775 18.5143 113.754 18.645 113.712 18.7103C113.67 18.7757 113.591 18.8083 113.474 18.8083H108.735C108.749 19.2563 108.81 19.646 108.917 19.9773C109.029 20.3087 109.183 20.5863 109.379 20.8103C109.575 21.0297 109.808 21.1953 110.079 21.3073C110.35 21.4147 110.653 21.4683 110.989 21.4683C111.302 21.4683 111.57 21.4333 111.794 21.3633C112.023 21.2887 112.219 21.2093 112.382 21.1253C112.545 21.0413 112.681 20.9643 112.788 20.8943C112.9 20.8197 112.996 20.7823 113.075 20.7823C113.178 20.7823 113.257 20.822 113.313 20.9013L113.663 21.3563ZM64.06 34.1773C64.452 34.1773 64.7973 34.1307 65.096 34.0373C65.3993 33.9393 65.6513 33.804 65.852 33.6313C66.0573 33.454 66.2113 33.244 66.314 33.0013C66.4167 32.7587 66.468 32.4903 66.468 32.1963C66.468 31.599 66.272 31.1487 65.88 30.8453C65.488 30.542 64.9 30.3903 64.116 30.3903H62.632V34.1773H64.06ZM68.694 39.3503H67.49C67.2427 39.3503 67.0607 39.2547 66.944 39.0633L64.34 35.4793C64.2607 35.3673 64.1743 35.288 64.081 35.2413C63.9923 35.19 63.8523 35.1643 63.661 35.1643H62.632V39.3503H61.281V29.3193H64.116C64.7507 29.3193 65.299 29.3847 65.761 29.5153C66.223 29.6413 66.6033 29.8257 66.902 30.0683C67.2053 30.311 67.4293 30.605 67.574 30.9503C67.7187 31.291 67.791 31.6737 67.791 32.0983C67.791 32.453 67.735 32.7843 67.623 33.0923C67.511 33.4003 67.3477 33.678 67.133 33.9253C66.923 34.168 66.664 34.3757 66.356 34.5483C66.0527 34.721 65.7073 34.8517 65.32 34.9403C65.4927 35.0383 65.642 35.1807 65.768 35.3673L68.694 39.3503ZM74.0592 35.0313C74.0592 34.742 74.0172 34.4783 73.9332 34.2403C73.8538 33.9977 73.7348 33.79 73.5762 33.6173C73.4222 33.44 73.2332 33.3047 73.0092 33.2113C72.7852 33.1133 72.5308 33.0643 72.2462 33.0643C71.6488 33.0643 71.1752 33.2393 70.8252 33.5893C70.4798 33.9347 70.2652 34.4153 70.1812 35.0313H74.0592ZM75.0672 38.3563C74.9132 38.543 74.7288 38.7063 74.5142 38.8463C74.2995 38.9817 74.0685 39.0937 73.8212 39.1823C73.5785 39.271 73.3265 39.3363 73.0652 39.3783C72.8038 39.425 72.5448 39.4483 72.2882 39.4483C71.7982 39.4483 71.3455 39.3667 70.9302 39.2033C70.5195 39.0353 70.1625 38.7927 69.8592 38.4753C69.5605 38.1533 69.3272 37.7567 69.1592 37.2853C68.9912 36.814 68.9072 36.2727 68.9072 35.6613C68.9072 35.1667 68.9818 34.7047 69.1312 34.2753C69.2852 33.846 69.5045 33.475 69.7892 33.1623C70.0738 32.845 70.4215 32.5977 70.8322 32.4203C71.2428 32.2383 71.7048 32.1473 72.2182 32.1473C72.6428 32.1473 73.0348 32.2197 73.3942 32.3643C73.7582 32.5043 74.0708 32.7097 74.3322 32.9803C74.5982 33.2463 74.8058 33.5777 74.9552 33.9743C75.1045 34.3663 75.1792 34.8143 75.1792 35.3183C75.1792 35.5143 75.1582 35.645 75.1162 35.7103C75.0742 35.7757 74.9948 35.8083 74.8782 35.8083H70.1392C70.1532 36.2563 70.2138 36.646 70.3212 36.9773C70.4332 37.3087 70.5872 37.5863 70.7832 37.8103C70.9792 38.0297 71.2125 38.1953 71.4832 38.3073C71.7538 38.4147 72.0572 38.4683 72.3932 38.4683C72.7058 38.4683 72.9742 38.4333 73.1982 38.3633C73.4268 38.2887 73.6228 38.2093 73.7862 38.1253C73.9495 38.0413 74.0848 37.9643 74.1922 37.8943C74.3042 37.8197 74.3998 37.7823 74.4792 37.7823C74.5818 37.7823 74.6612 37.822 74.7172 37.9013L75.0672 38.3563ZM81.6447 33.5193C81.6073 33.5707 81.57 33.6103 81.5327 33.6383C81.4953 33.6663 81.444 33.6803 81.3787 33.6803C81.3087 33.6803 81.2317 33.6523 81.1477 33.5963C81.0637 33.5357 80.9587 33.4703 80.8327 33.4003C80.7113 33.3303 80.5597 33.2673 80.3777 33.2113C80.2003 33.1507 79.981 33.1203 79.7197 33.1203C79.3697 33.1203 79.0617 33.1833 78.7957 33.3093C78.5297 33.4307 78.3057 33.608 78.1237 33.8413C77.9463 34.0747 77.811 34.357 77.7177 34.6883C77.629 35.0197 77.5847 35.3907 77.5847 35.8013C77.5847 36.2307 77.6337 36.6133 77.7317 36.9493C77.8297 37.2807 77.9673 37.5607 78.1447 37.7893C78.3267 38.0133 78.5437 38.186 78.7957 38.3073C79.0523 38.424 79.3393 38.4823 79.6567 38.4823C79.96 38.4823 80.2097 38.4473 80.4057 38.3773C80.6017 38.3027 80.7627 38.221 80.8887 38.1323C81.0193 38.0437 81.1267 37.9643 81.2107 37.8943C81.2993 37.8197 81.3857 37.7823 81.4697 37.7823C81.5723 37.7823 81.6517 37.822 81.7077 37.9013L82.0577 38.3563C81.9037 38.5477 81.7287 38.711 81.5327 38.8463C81.3367 38.9817 81.1243 39.096 80.8957 39.1893C80.6717 39.278 80.436 39.3433 80.1887 39.3853C79.9413 39.4273 79.6893 39.4483 79.4327 39.4483C78.9893 39.4483 78.5763 39.3667 78.1937 39.2033C77.8157 39.04 77.4867 38.8043 77.2067 38.4963C76.9267 38.1837 76.7073 37.801 76.5487 37.3483C76.39 36.8957 76.3107 36.38 76.3107 35.8013C76.3107 35.274 76.383 34.7863 76.5277 34.3383C76.677 33.8903 76.8917 33.5053 77.1717 33.1833C77.4563 32.8567 77.804 32.6023 78.2147 32.4203C78.63 32.2383 79.106 32.1473 79.6427 32.1473C80.142 32.1473 80.5807 32.229 80.9587 32.3923C81.3413 32.551 81.6797 32.7773 81.9737 33.0713L81.6447 33.5193ZM86.2612 32.1473C86.7792 32.1473 87.2458 32.2337 87.6612 32.4063C88.0765 32.579 88.4312 32.824 88.7252 33.1413C89.0192 33.4587 89.2432 33.8437 89.3972 34.2963C89.5558 34.7443 89.6352 35.246 89.6352 35.8013C89.6352 36.3613 89.5558 36.8653 89.3972 37.3133C89.2432 37.7613 89.0192 38.144 88.7252 38.4613C88.4312 38.7787 88.0765 39.0237 87.6612 39.1963C87.2458 39.3643 86.7792 39.4483 86.2612 39.4483C85.7385 39.4483 85.2672 39.3643 84.8472 39.1963C84.4318 39.0237 84.0772 38.7787 83.7832 38.4613C83.4892 38.144 83.2628 37.7613 83.1042 37.3133C82.9502 36.8653 82.8732 36.3613 82.8732 35.8013C82.8732 35.246 82.9502 34.7443 83.1042 34.2963C83.2628 33.8437 83.4892 33.4587 83.7832 33.1413C84.0772 32.824 84.4318 32.579 84.8472 32.4063C85.2672 32.2337 85.7385 32.1473 86.2612 32.1473ZM86.2612 38.4753C86.9612 38.4753 87.4838 38.242 87.8292 37.7753C88.1745 37.304 88.3472 36.6483 88.3472 35.8083C88.3472 34.9637 88.1745 34.3057 87.8292 33.8343C87.4838 33.363 86.9612 33.1273 86.2612 33.1273C85.9065 33.1273 85.5962 33.188 85.3302 33.3093C85.0688 33.4307 84.8495 33.6057 84.6722 33.8343C84.4995 34.063 84.3688 34.3453 84.2802 34.6813C84.1962 35.0127 84.1542 35.3883 84.1542 35.8083C84.1542 36.6483 84.3268 37.304 84.6722 37.7753C85.0222 38.242 85.5518 38.4753 86.2612 38.4753ZM93.6455 35.8853C93.8975 35.8853 94.1192 35.8503 94.3105 35.7803C94.5018 35.7103 94.6628 35.6123 94.7935 35.4863C94.9242 35.3603 95.0222 35.211 95.0875 35.0383C95.1528 34.861 95.1855 34.6673 95.1855 34.4573C95.1855 34.0233 95.0525 33.678 94.7865 33.4213C94.5252 33.1647 94.1448 33.0363 93.6455 33.0363C93.1415 33.0363 92.7565 33.1647 92.4905 33.4213C92.2292 33.678 92.0985 34.0233 92.0985 34.4573C92.0985 34.6673 92.1312 34.861 92.1965 35.0383C92.2665 35.211 92.3668 35.3603 92.4975 35.4863C92.6282 35.6123 92.7892 35.7103 92.9805 35.7803C93.1718 35.8503 93.3935 35.8853 93.6455 35.8853ZM95.8925 39.7353C95.8925 39.5627 95.8435 39.4227 95.7455 39.3153C95.6475 39.208 95.5145 39.124 95.3465 39.0633C95.1832 39.0027 94.9918 38.9607 94.7725 38.9373C94.5532 38.9093 94.3198 38.8883 94.0725 38.8743C93.8298 38.8603 93.5825 38.8463 93.3305 38.8323C93.0785 38.8183 92.8358 38.795 92.6025 38.7623C92.3412 38.8837 92.1265 39.0377 91.9585 39.2243C91.7952 39.4063 91.7135 39.621 91.7135 39.8683C91.7135 40.027 91.7532 40.174 91.8325 40.3093C91.9165 40.4493 92.0425 40.5683 92.2105 40.6663C92.3785 40.769 92.5885 40.8483 92.8405 40.9043C93.0972 40.965 93.3982 40.9953 93.7435 40.9953C94.0795 40.9953 94.3805 40.965 94.6465 40.9043C94.9125 40.8437 95.1365 40.7573 95.3185 40.6453C95.5052 40.5333 95.6475 40.4003 95.7455 40.2463C95.8435 40.0923 95.8925 39.922 95.8925 39.7353ZM97.1595 32.5393V33.0013C97.1595 33.1553 97.0615 33.2533 96.8655 33.2953L96.0605 33.4003C96.2192 33.7083 96.2985 34.049 96.2985 34.4223C96.2985 34.7677 96.2308 35.0827 96.0955 35.3673C95.9648 35.6473 95.7828 35.8877 95.5495 36.0883C95.3162 36.289 95.0362 36.443 94.7095 36.5503C94.3828 36.6577 94.0282 36.7113 93.6455 36.7113C93.3142 36.7113 93.0015 36.6717 92.7075 36.5923C92.5582 36.6857 92.4438 36.786 92.3645 36.8933C92.2852 36.996 92.2455 37.101 92.2455 37.2083C92.2455 37.3763 92.3132 37.5047 92.4485 37.5933C92.5885 37.6773 92.7705 37.738 92.9945 37.7753C93.2185 37.8127 93.4728 37.836 93.7575 37.8453C94.0468 37.8547 94.3408 37.871 94.6395 37.8943C94.9428 37.913 95.2368 37.948 95.5215 37.9993C95.8108 38.0507 96.0675 38.1347 96.2915 38.2513C96.5155 38.368 96.6952 38.529 96.8305 38.7343C96.9705 38.9397 97.0405 39.2057 97.0405 39.5323C97.0405 39.8357 96.9635 40.1297 96.8095 40.4143C96.6602 40.699 96.4432 40.951 96.1585 41.1703C95.8738 41.3943 95.5238 41.5717 95.1085 41.7023C94.6978 41.8377 94.2335 41.9053 93.7155 41.9053C93.1975 41.9053 92.7448 41.854 92.3575 41.7513C91.9702 41.6487 91.6482 41.511 91.3915 41.3383C91.1348 41.1657 90.9412 40.965 90.8105 40.7363C90.6845 40.5123 90.6215 40.2767 90.6215 40.0293C90.6215 39.6793 90.7312 39.383 90.9505 39.1403C91.1698 38.8977 91.4708 38.704 91.8535 38.5593C91.6435 38.466 91.4755 38.3423 91.3495 38.1883C91.2282 38.0297 91.1675 37.8173 91.1675 37.5513C91.1675 37.4487 91.1862 37.3437 91.2235 37.2363C91.2608 37.1243 91.3168 37.0147 91.3915 36.9073C91.4708 36.7953 91.5665 36.6903 91.6785 36.5923C91.7905 36.4943 91.9212 36.408 92.0705 36.3333C91.7205 36.1373 91.4475 35.8783 91.2515 35.5563C91.0555 35.2297 90.9575 34.8517 90.9575 34.4223C90.9575 34.077 91.0228 33.7643 91.1535 33.4843C91.2888 33.1997 91.4755 32.9593 91.7135 32.7633C91.9515 32.5627 92.2338 32.4087 92.5605 32.3013C92.8918 32.194 93.2535 32.1403 93.6455 32.1403C93.9535 32.1403 94.2405 32.1753 94.5065 32.2453C94.7725 32.3107 95.0152 32.4087 95.2345 32.5393H97.1595ZM99.6239 33.2883C99.7779 33.1157 99.9413 32.9593 100.114 32.8193C100.287 32.6793 100.469 32.5603 100.66 32.4623C100.856 32.3597 101.061 32.2827 101.276 32.2313C101.495 32.1753 101.731 32.1473 101.983 32.1473C102.37 32.1473 102.711 32.2127 103.005 32.3433C103.304 32.4693 103.551 32.6513 103.747 32.8893C103.948 33.1227 104.099 33.405 104.202 33.7363C104.305 34.0677 104.356 34.434 104.356 34.8353V39.3503H103.103V34.8353C103.103 34.2987 102.979 33.8833 102.732 33.5893C102.489 33.2907 102.118 33.1413 101.619 33.1413C101.25 33.1413 100.905 33.23 100.583 33.4073C100.266 33.5847 99.9716 33.825 99.7009 34.1283V39.3503H98.4479V32.2593H99.1969C99.3743 32.2593 99.4839 32.3457 99.5259 32.5183L99.6239 33.2883ZM107.571 32.2593V39.3503H106.325V32.2593H107.571ZM107.837 30.0333C107.837 30.1547 107.811 30.269 107.76 30.3763C107.713 30.479 107.648 30.5723 107.564 30.6563C107.484 30.7357 107.389 30.7987 107.277 30.8453C107.169 30.892 107.055 30.9153 106.934 30.9153C106.812 30.9153 106.698 30.892 106.591 30.8453C106.488 30.7987 106.397 30.7357 106.318 30.6563C106.238 30.5723 106.175 30.479 106.129 30.3763C106.082 30.269 106.059 30.1547 106.059 30.0333C106.059 29.912 106.082 29.7977 106.129 29.6903C106.175 29.5783 106.238 29.4827 106.318 29.4033C106.397 29.3193 106.488 29.254 106.591 29.2073C106.698 29.1607 106.812 29.1373 106.934 29.1373C107.055 29.1373 107.169 29.1607 107.277 29.2073C107.389 29.254 107.484 29.3193 107.564 29.4033C107.648 29.4827 107.713 29.5783 107.76 29.6903C107.811 29.7977 107.837 29.912 107.837 30.0333ZM116.198 39.3503H114.952V33.3023H111.298V37.5583C111.298 37.857 111.37 38.0787 111.515 38.2233C111.66 38.368 111.846 38.4403 112.075 38.4403C112.206 38.4403 112.318 38.424 112.411 38.3913C112.509 38.354 112.593 38.3143 112.663 38.2723C112.733 38.2303 112.791 38.193 112.838 38.1603C112.889 38.123 112.934 38.1043 112.971 38.1043C113.036 38.1043 113.095 38.144 113.146 38.2233L113.51 38.8183C113.295 39.019 113.036 39.1777 112.733 39.2943C112.43 39.4063 112.117 39.4623 111.795 39.4623C111.235 39.4623 110.803 39.306 110.5 38.9933C110.201 38.6807 110.052 38.2303 110.052 37.6423V33.3023H109.198C109.123 33.3023 109.06 33.2813 109.009 33.2393C108.958 33.1927 108.932 33.1227 108.932 33.0293V32.5323L110.094 32.3783L110.381 30.1943C110.395 30.1243 110.425 30.0683 110.472 30.0263C110.523 29.9797 110.589 29.9563 110.668 29.9563H111.298V32.3993H116.198V39.3503ZM116.506 29.9843C116.506 30.1057 116.48 30.22 116.429 30.3273C116.382 30.43 116.317 30.521 116.233 30.6003C116.154 30.6797 116.06 30.7427 115.953 30.7893C115.846 30.836 115.731 30.8593 115.61 30.8593C115.489 30.8593 115.374 30.836 115.267 30.7893C115.164 30.7427 115.073 30.6797 114.994 30.6003C114.915 30.521 114.852 30.43 114.805 30.3273C114.758 30.22 114.735 30.1057 114.735 29.9843C114.735 29.863 114.758 29.7487 114.805 29.6413C114.852 29.5293 114.915 29.4337 114.994 29.3543C115.073 29.2703 115.164 29.205 115.267 29.1583C115.374 29.1117 115.489 29.0883 115.61 29.0883C115.731 29.0883 115.846 29.1117 115.953 29.1583C116.06 29.205 116.154 29.2703 116.233 29.3543C116.317 29.4337 116.382 29.5293 116.429 29.6413C116.48 29.7487 116.506 29.863 116.506 29.9843ZM121.234 32.1473C121.752 32.1473 122.218 32.2337 122.634 32.4063C123.049 32.579 123.404 32.824 123.698 33.1413C123.992 33.4587 124.216 33.8437 124.37 34.2963C124.528 34.7443 124.608 35.246 124.608 35.8013C124.608 36.3613 124.528 36.8653 124.37 37.3133C124.216 37.7613 123.992 38.144 123.698 38.4613C123.404 38.7787 123.049 39.0237 122.634 39.1963C122.218 39.3643 121.752 39.4483 121.234 39.4483C120.711 39.4483 120.24 39.3643 119.82 39.1963C119.404 39.0237 119.05 38.7787 118.756 38.4613C118.462 38.144 118.235 37.7613 118.077 37.3133C117.923 36.8653 117.846 36.3613 117.846 35.8013C117.846 35.246 117.923 34.7443 118.077 34.2963C118.235 33.8437 118.462 33.4587 118.756 33.1413C119.05 32.824 119.404 32.579 119.82 32.4063C120.24 32.2337 120.711 32.1473 121.234 32.1473ZM121.234 38.4753C121.934 38.4753 122.456 38.242 122.802 37.7753C123.147 37.304 123.32 36.6483 123.32 35.8083C123.32 34.9637 123.147 34.3057 122.802 33.8343C122.456 33.363 121.934 33.1273 121.234 33.1273C120.879 33.1273 120.569 33.188 120.303 33.3093C120.041 33.4307 119.822 33.6057 119.645 33.8343C119.472 34.063 119.341 34.3453 119.253 34.6813C119.169 35.0127 119.127 35.3883 119.127 35.8083C119.127 36.6483 119.299 37.304 119.645 37.7753C119.995 38.242 120.524 38.4753 121.234 38.4753ZM127.364 33.2883C127.518 33.1157 127.682 32.9593 127.854 32.8193C128.027 32.6793 128.209 32.5603 128.4 32.4623C128.596 32.3597 128.802 32.2827 129.016 32.2313C129.236 32.1753 129.471 32.1473 129.723 32.1473C130.111 32.1473 130.451 32.2127 130.745 32.3433C131.044 32.4693 131.291 32.6513 131.487 32.8893C131.688 33.1227 131.84 33.405 131.942 33.7363C132.045 34.0677 132.096 34.434 132.096 34.8353V39.3503H130.843V34.8353C130.843 34.2987 130.72 33.8833 130.472 33.5893C130.23 33.2907 129.859 33.1413 129.359 33.1413C128.991 33.1413 128.645 33.23 128.323 33.4073C128.006 33.5847 127.712 33.825 127.441 34.1283V39.3503H126.188V32.2593H126.937C127.115 32.2593 127.224 32.3457 127.266 32.5183L127.364 33.2883Z" fill="white"/>
<defs>
<linearGradient id="paint0_linear_1994_7911" x1="150" y1="46.9648" x2="1.84638" y2="-1.86602" gradientUnits="userSpaceOnUse">
<stop offset="0.254808" stop-color="#464646"/>
<stop offset="1" stop-color="#43430D"/>
</linearGradient>
<linearGradient id="paint1_linear_1994_7911" x1="42.9037" y1="0.350342" x2="80.4245" y2="65.6709" gradientUnits="userSpaceOnUse">
<stop stop-color="#9F9F00"/>
<stop offset="0.509615" stop-color="#4D4D00"/>
</linearGradient>
</defs>
</svg>
