<svg width="119" height="51" viewBox="0 0 119 51" fill="none" xmlns="http://www.w3.org/2000/svg">
<rect x="0.5" y="0.850342" width="118" height="49" rx="6.5" fill="url(#paint0_linear_1994_7905)" fill-opacity="0.6"/>
<rect x="0.5" y="0.850342" width="118" height="49" rx="6.5" stroke="url(#paint1_linear_1994_7905)"/>
<g clip-path="url(#clip0_1994_7905)">
<path d="M44.5 14.8503V35.8503H23.5V14.8503H44.5ZM44.5 11.8503H23.5C21.85 11.8503 20.5 13.2003 20.5 14.8503V35.8503C20.5 37.5003 21.85 38.8503 23.5 38.8503H44.5C46.15 38.8503 47.5 37.5003 47.5 35.8503V14.8503C47.5 13.2003 46.15 11.8503 44.5 11.8503ZM37.21 25.1403L32.71 30.9453L29.5 27.0603L25 32.8503H43L37.21 25.1403Z" fill="#FFFF00"/>
</g>
<path d="M62.639 22.3503H61.281V12.3193H62.639V22.3503ZM64.8015 22.3503V15.2593H65.5505C65.7278 15.2593 65.8375 15.3457 65.8795 15.5183L65.9705 16.2463C66.2318 15.9243 66.5258 15.6607 66.8525 15.4553C67.1791 15.25 67.5571 15.1473 67.9865 15.1473C68.4625 15.1473 68.8475 15.2803 69.1415 15.5463C69.4401 15.8123 69.6548 16.1717 69.7855 16.6243C69.8881 16.3677 70.0188 16.146 70.1775 15.9593C70.3408 15.7727 70.5228 15.6187 70.7235 15.4973C70.9241 15.376 71.1365 15.2873 71.3605 15.2313C71.5891 15.1753 71.8201 15.1473 72.0535 15.1473C72.4268 15.1473 72.7581 15.208 73.0475 15.3293C73.3415 15.446 73.5888 15.6187 73.7895 15.8473C73.9948 16.076 74.1511 16.3583 74.2585 16.6943C74.3658 17.0257 74.4195 17.406 74.4195 17.8353V22.3503H73.1665V17.8353C73.1665 17.28 73.0451 16.86 72.8025 16.5753C72.5598 16.286 72.2098 16.1413 71.7525 16.1413C71.5471 16.1413 71.3511 16.1787 71.1645 16.2533C70.9825 16.3233 70.8215 16.4283 70.6815 16.5683C70.5415 16.7083 70.4295 16.8857 70.3455 17.1003C70.2661 17.3103 70.2265 17.5553 70.2265 17.8353V22.3503H68.9735V17.8353C68.9735 17.266 68.8591 16.8413 68.6305 16.5613C68.4018 16.2813 68.0681 16.1413 67.6295 16.1413C67.3215 16.1413 67.0368 16.2253 66.7755 16.3933C66.5141 16.5567 66.2738 16.7807 66.0545 17.0653V22.3503H64.8015ZM80.1562 19.1583C79.5822 19.177 79.0922 19.2237 78.6862 19.2983C78.2848 19.3683 77.9558 19.4617 77.6992 19.5783C77.4472 19.695 77.2628 19.8327 77.1462 19.9913C77.0342 20.15 76.9782 20.3273 76.9782 20.5233C76.9782 20.71 77.0085 20.871 77.0692 21.0063C77.1298 21.1417 77.2115 21.2537 77.3142 21.3423C77.4215 21.4263 77.5452 21.4893 77.6852 21.5313C77.8298 21.5687 77.9838 21.5873 78.1472 21.5873C78.3665 21.5873 78.5672 21.5663 78.7492 21.5243C78.9312 21.4777 79.1015 21.4123 79.2602 21.3283C79.4235 21.2443 79.5775 21.144 79.7222 21.0273C79.8715 20.9107 80.0162 20.7777 80.1562 20.6283V19.1583ZM76.1312 16.2603C76.5232 15.8823 76.9455 15.6 77.3982 15.4133C77.8508 15.2267 78.3525 15.1333 78.9032 15.1333C79.2998 15.1333 79.6522 15.1987 79.9602 15.3293C80.2682 15.46 80.5272 15.642 80.7372 15.8753C80.9472 16.1087 81.1058 16.391 81.2132 16.7223C81.3205 17.0537 81.3742 17.4177 81.3742 17.8143V22.3503H80.8212C80.6998 22.3503 80.6065 22.3317 80.5412 22.2943C80.4758 22.2523 80.4245 22.173 80.3872 22.0563L80.2472 21.3843C80.0605 21.557 79.8785 21.711 79.7012 21.8463C79.5238 21.977 79.3372 22.089 79.1412 22.1823C78.9452 22.271 78.7352 22.3387 78.5112 22.3853C78.2918 22.4367 78.0468 22.4623 77.7762 22.4623C77.5008 22.4623 77.2418 22.425 76.9992 22.3503C76.7565 22.271 76.5442 22.1543 76.3622 22.0003C76.1848 21.8463 76.0425 21.6527 75.9352 21.4193C75.8325 21.1813 75.7812 20.9013 75.7812 20.5793C75.7812 20.2993 75.8582 20.031 76.0122 19.7743C76.1662 19.513 76.4158 19.282 76.7612 19.0813C77.1065 18.8807 77.5568 18.7173 78.1122 18.5913C78.6675 18.4607 79.3488 18.386 80.1562 18.3673V17.8143C80.1562 17.2637 80.0372 16.8483 79.7992 16.5683C79.5612 16.2837 79.2135 16.1413 78.7562 16.1413C78.4482 16.1413 78.1892 16.181 77.9792 16.2603C77.7738 16.335 77.5942 16.4213 77.4402 16.5193C77.2908 16.6127 77.1602 16.699 77.0482 16.7783C76.9408 16.853 76.8335 16.8903 76.7262 16.8903C76.6422 16.8903 76.5698 16.8693 76.5092 16.8273C76.4485 16.7807 76.3972 16.7247 76.3552 16.6593L76.1312 16.2603ZM85.7432 18.8853C85.9952 18.8853 86.2168 18.8503 86.4082 18.7803C86.5995 18.7103 86.7605 18.6123 86.8912 18.4863C87.0218 18.3603 87.1198 18.211 87.1852 18.0383C87.2505 17.861 87.2832 17.6673 87.2832 17.4573C87.2832 17.0233 87.1502 16.678 86.8842 16.4213C86.6228 16.1647 86.2425 16.0363 85.7432 16.0363C85.2392 16.0363 84.8542 16.1647 84.5882 16.4213C84.3268 16.678 84.1962 17.0233 84.1962 17.4573C84.1962 17.6673 84.2288 17.861 84.2942 18.0383C84.3642 18.211 84.4645 18.3603 84.5952 18.4863C84.7258 18.6123 84.8868 18.7103 85.0782 18.7803C85.2695 18.8503 85.4912 18.8853 85.7432 18.8853ZM87.9902 22.7353C87.9902 22.5627 87.9412 22.4227 87.8432 22.3153C87.7452 22.208 87.6122 22.124 87.4442 22.0633C87.2808 22.0027 87.0895 21.9607 86.8702 21.9373C86.6508 21.9093 86.4175 21.8883 86.1702 21.8743C85.9275 21.8603 85.6802 21.8463 85.4282 21.8323C85.1762 21.8183 84.9335 21.795 84.7002 21.7623C84.4388 21.8837 84.2242 22.0377 84.0562 22.2243C83.8928 22.4063 83.8112 22.621 83.8112 22.8683C83.8112 23.027 83.8508 23.174 83.9302 23.3093C84.0142 23.4493 84.1402 23.5683 84.3082 23.6663C84.4762 23.769 84.6862 23.8483 84.9382 23.9043C85.1948 23.965 85.4958 23.9953 85.8412 23.9953C86.1772 23.9953 86.4782 23.965 86.7442 23.9043C87.0102 23.8437 87.2342 23.7573 87.4162 23.6453C87.6028 23.5333 87.7452 23.4003 87.8432 23.2463C87.9412 23.0923 87.9902 22.922 87.9902 22.7353ZM89.2572 15.5393V16.0013C89.2572 16.1553 89.1592 16.2533 88.9632 16.2953L88.1582 16.4003C88.3168 16.7083 88.3962 17.049 88.3962 17.4223C88.3962 17.7677 88.3285 18.0827 88.1932 18.3673C88.0625 18.6473 87.8805 18.8877 87.6472 19.0883C87.4138 19.289 87.1338 19.443 86.8072 19.5503C86.4805 19.6577 86.1258 19.7113 85.7432 19.7113C85.4118 19.7113 85.0992 19.6717 84.8052 19.5923C84.6558 19.6857 84.5415 19.786 84.4622 19.8933C84.3828 19.996 84.3432 20.101 84.3432 20.2083C84.3432 20.3763 84.4108 20.5047 84.5462 20.5933C84.6862 20.6773 84.8682 20.738 85.0922 20.7753C85.3162 20.8127 85.5705 20.836 85.8552 20.8453C86.1445 20.8547 86.4385 20.871 86.7372 20.8943C87.0405 20.913 87.3345 20.948 87.6192 20.9993C87.9085 21.0507 88.1652 21.1347 88.3892 21.2513C88.6132 21.368 88.7928 21.529 88.9282 21.7343C89.0682 21.9397 89.1382 22.2057 89.1382 22.5323C89.1382 22.8357 89.0612 23.1297 88.9072 23.4143C88.7578 23.699 88.5408 23.951 88.2562 24.1703C87.9715 24.3943 87.6215 24.5717 87.2062 24.7023C86.7955 24.8377 86.3312 24.9053 85.8132 24.9053C85.2952 24.9053 84.8425 24.854 84.4552 24.7513C84.0678 24.6487 83.7458 24.511 83.4892 24.3383C83.2325 24.1657 83.0388 23.965 82.9082 23.7363C82.7822 23.5123 82.7192 23.2767 82.7192 23.0293C82.7192 22.6793 82.8288 22.383 83.0482 22.1403C83.2675 21.8977 83.5685 21.704 83.9512 21.5593C83.7412 21.466 83.5732 21.3423 83.4472 21.1883C83.3258 21.0297 83.2652 20.8173 83.2652 20.5513C83.2652 20.4487 83.2838 20.3437 83.3212 20.2363C83.3585 20.1243 83.4145 20.0147 83.4892 19.9073C83.5685 19.7953 83.6642 19.6903 83.7762 19.5923C83.8882 19.4943 84.0188 19.408 84.1682 19.3333C83.8182 19.1373 83.5452 18.8783 83.3492 18.5563C83.1532 18.2297 83.0552 17.8517 83.0552 17.4223C83.0552 17.077 83.1205 16.7643 83.2512 16.4843C83.3865 16.1997 83.5732 15.9593 83.8112 15.7633C84.0492 15.5627 84.3315 15.4087 84.6582 15.3013C84.9895 15.194 85.3512 15.1403 85.7432 15.1403C86.0512 15.1403 86.3382 15.1753 86.6042 15.2453C86.8702 15.3107 87.1128 15.4087 87.3322 15.5393H89.2572ZM95.1822 18.0313C95.1822 17.742 95.1402 17.4783 95.0562 17.2403C94.9769 16.9977 94.8579 16.79 94.6992 16.6173C94.5452 16.44 94.3562 16.3047 94.1322 16.2113C93.9082 16.1133 93.6539 16.0643 93.3692 16.0643C92.7719 16.0643 92.2982 16.2393 91.9482 16.5893C91.6029 16.9347 91.3882 17.4153 91.3042 18.0313H95.1822ZM96.1902 21.3563C96.0362 21.543 95.8519 21.7063 95.6372 21.8463C95.4226 21.9817 95.1916 22.0937 94.9442 22.1823C94.7016 22.271 94.4496 22.3363 94.1882 22.3783C93.9269 22.425 93.6679 22.4483 93.4112 22.4483C92.9212 22.4483 92.4686 22.3667 92.0532 22.2033C91.6426 22.0353 91.2856 21.7927 90.9822 21.4753C90.6836 21.1533 90.4502 20.7567 90.2822 20.2853C90.1142 19.814 90.0302 19.2727 90.0302 18.6613C90.0302 18.1667 90.1049 17.7047 90.2542 17.2753C90.4082 16.846 90.6276 16.475 90.9122 16.1623C91.1969 15.845 91.5446 15.5977 91.9552 15.4203C92.3659 15.2383 92.8279 15.1473 93.3412 15.1473C93.7659 15.1473 94.1579 15.2197 94.5172 15.3643C94.8812 15.5043 95.1939 15.7097 95.4552 15.9803C95.7212 16.2463 95.9289 16.5777 96.0782 16.9743C96.2276 17.3663 96.3022 17.8143 96.3022 18.3183C96.3022 18.5143 96.2812 18.645 96.2392 18.7103C96.1972 18.7757 96.1179 18.8083 96.0012 18.8083H91.2622C91.2762 19.2563 91.3369 19.646 91.4442 19.9773C91.5562 20.3087 91.7102 20.5863 91.9062 20.8103C92.1022 21.0297 92.3356 21.1953 92.6062 21.3073C92.8769 21.4147 93.1802 21.4683 93.5162 21.4683C93.8289 21.4683 94.0972 21.4333 94.3212 21.3633C94.5499 21.2887 94.7459 21.2093 94.9092 21.1253C95.0726 21.0413 95.2079 20.9643 95.3152 20.8943C95.4272 20.8197 95.5229 20.7823 95.6022 20.7823C95.7049 20.7823 95.7842 20.822 95.8402 20.9013L96.1902 21.3563ZM67.469 38.2443L67.462 39.3503H61.281V29.3193H67.462V30.4253H62.639V33.7573H66.545V34.8213H62.639V38.2443H67.469ZM73.3863 33.9463C73.153 33.6337 72.901 33.4167 72.6303 33.2953C72.3596 33.1693 72.0563 33.1063 71.7203 33.1063C71.0623 33.1063 70.556 33.342 70.2013 33.8133C69.8466 34.2847 69.6693 34.9567 69.6693 35.8293C69.6693 36.2913 69.709 36.688 69.7883 37.0193C69.8676 37.346 69.9843 37.6167 70.1383 37.8313C70.2923 38.0413 70.4813 38.1953 70.7053 38.2933C70.9293 38.3913 71.1836 38.4403 71.4683 38.4403C71.879 38.4403 72.236 38.347 72.5393 38.1603C72.8473 37.9737 73.1296 37.71 73.3863 37.3693V33.9463ZM74.6323 29.0393V39.3503H73.8903C73.713 39.3503 73.601 39.264 73.5543 39.0913L73.4423 38.2303C73.139 38.5943 72.7936 38.8883 72.4063 39.1123C72.019 39.3363 71.571 39.4483 71.0623 39.4483C70.6563 39.4483 70.2876 39.3713 69.9563 39.2173C69.625 39.0587 69.3426 38.8277 69.1093 38.5243C68.876 38.221 68.6963 37.843 68.5703 37.3903C68.4443 36.9377 68.3813 36.4173 68.3813 35.8293C68.3813 35.3067 68.4513 34.8213 68.5913 34.3733C68.7313 33.9207 68.932 33.5287 69.1933 33.1973C69.4546 32.866 69.7743 32.607 70.1523 32.4203C70.535 32.229 70.9643 32.1333 71.4403 32.1333C71.8743 32.1333 72.2453 32.208 72.5533 32.3573C72.866 32.502 73.1436 32.705 73.3863 32.9663V29.0393H74.6323ZM77.9163 32.2593V39.3503H76.6703V32.2593H77.9163ZM78.1823 30.0333C78.1823 30.1547 78.1566 30.269 78.1053 30.3763C78.0586 30.479 77.9933 30.5723 77.9093 30.6563C77.8299 30.7357 77.7343 30.7987 77.6223 30.8453C77.5149 30.892 77.4006 30.9153 77.2793 30.9153C77.1579 30.9153 77.0436 30.892 76.9363 30.8453C76.8336 30.7987 76.7426 30.7357 76.6633 30.6563C76.5839 30.5723 76.5209 30.479 76.4743 30.3763C76.4276 30.269 76.4043 30.1547 76.4043 30.0333C76.4043 29.912 76.4276 29.7977 76.4743 29.6903C76.5209 29.5783 76.5839 29.4827 76.6633 29.4033C76.7426 29.3193 76.8336 29.254 76.9363 29.2073C77.0436 29.1607 77.1579 29.1373 77.2793 29.1373C77.4006 29.1373 77.5149 29.1607 77.6223 29.2073C77.7343 29.254 77.8299 29.3193 77.9093 29.4033C77.9933 29.4827 78.0586 29.5783 78.1053 29.6903C78.1566 29.7977 78.1823 29.912 78.1823 30.0333ZM86.5436 39.3503H85.2976V33.3023H81.6436V37.5583C81.6436 37.857 81.7159 38.0787 81.8606 38.2233C82.0052 38.368 82.1919 38.4403 82.4206 38.4403C82.5512 38.4403 82.6632 38.424 82.7566 38.3913C82.8546 38.354 82.9386 38.3143 83.0086 38.2723C83.0786 38.2303 83.1369 38.193 83.1836 38.1603C83.2349 38.123 83.2792 38.1043 83.3166 38.1043C83.3819 38.1043 83.4402 38.144 83.4916 38.2233L83.8556 38.8183C83.6409 39.019 83.3819 39.1777 83.0786 39.2943C82.7752 39.4063 82.4626 39.4623 82.1406 39.4623C81.5806 39.4623 81.1489 39.306 80.8456 38.9933C80.5469 38.6807 80.3976 38.2303 80.3976 37.6423V33.3023H79.5436C79.4689 33.3023 79.4059 33.2813 79.3546 33.2393C79.3032 33.1927 79.2776 33.1227 79.2776 33.0293V32.5323L80.4396 32.3783L80.7266 30.1943C80.7406 30.1243 80.7709 30.0683 80.8176 30.0263C80.8689 29.9797 80.9342 29.9563 81.0136 29.9563H81.6436V32.3993H86.5436V39.3503ZM86.8516 29.9843C86.8516 30.1057 86.8259 30.22 86.7746 30.3273C86.7279 30.43 86.6626 30.521 86.5786 30.6003C86.4992 30.6797 86.4059 30.7427 86.2986 30.7893C86.1912 30.836 86.0769 30.8593 85.9556 30.8593C85.8342 30.8593 85.7199 30.836 85.6126 30.7893C85.5099 30.7427 85.4189 30.6797 85.3396 30.6003C85.2602 30.521 85.1972 30.43 85.1506 30.3273C85.1039 30.22 85.0806 30.1057 85.0806 29.9843C85.0806 29.863 85.1039 29.7487 85.1506 29.6413C85.1972 29.5293 85.2602 29.4337 85.3396 29.3543C85.4189 29.2703 85.5099 29.205 85.6126 29.1583C85.7199 29.1117 85.8342 29.0883 85.9556 29.0883C86.0769 29.0883 86.1912 29.1117 86.2986 29.1583C86.4059 29.205 86.4992 29.2703 86.5786 29.3543C86.6626 29.4337 86.7279 29.5293 86.7746 29.6413C86.8259 29.7487 86.8516 29.863 86.8516 29.9843ZM89.7665 33.2883C89.9205 33.1157 90.0838 32.9593 90.2565 32.8193C90.4292 32.6793 90.6112 32.5603 90.8025 32.4623C90.9985 32.3597 91.2038 32.2827 91.4185 32.2313C91.6378 32.1753 91.8735 32.1473 92.1255 32.1473C92.5128 32.1473 92.8535 32.2127 93.1475 32.3433C93.4462 32.4693 93.6935 32.6513 93.8895 32.8893C94.0902 33.1227 94.2418 33.405 94.3445 33.7363C94.4472 34.0677 94.4985 34.434 94.4985 34.8353V39.3503H93.2455V34.8353C93.2455 34.2987 93.1218 33.8833 92.8745 33.5893C92.6318 33.2907 92.2608 33.1413 91.7615 33.1413C91.3928 33.1413 91.0475 33.23 90.7255 33.4073C90.4082 33.5847 90.1142 33.825 89.8435 34.1283V39.3503H88.5905V32.2593H89.3395C89.5168 32.2593 89.6265 32.3457 89.6685 32.5183L89.7665 33.2883ZM98.8682 35.8853C99.1202 35.8853 99.3418 35.8503 99.5332 35.7803C99.7245 35.7103 99.8855 35.6123 100.016 35.4863C100.147 35.3603 100.245 35.211 100.31 35.0383C100.375 34.861 100.408 34.6673 100.408 34.4573C100.408 34.0233 100.275 33.678 100.009 33.4213C99.7478 33.1647 99.3675 33.0363 98.8682 33.0363C98.3642 33.0363 97.9792 33.1647 97.7132 33.4213C97.4518 33.678 97.3212 34.0233 97.3212 34.4573C97.3212 34.6673 97.3538 34.861 97.4192 35.0383C97.4892 35.211 97.5895 35.3603 97.7202 35.4863C97.8508 35.6123 98.0118 35.7103 98.2032 35.7803C98.3945 35.8503 98.6162 35.8853 98.8682 35.8853ZM101.115 39.7353C101.115 39.5627 101.066 39.4227 100.968 39.3153C100.87 39.208 100.737 39.124 100.569 39.0633C100.406 39.0027 100.214 38.9607 99.9952 38.9373C99.7758 38.9093 99.5425 38.8883 99.2952 38.8743C99.0525 38.8603 98.8052 38.8463 98.5532 38.8323C98.3012 38.8183 98.0585 38.795 97.8252 38.7623C97.5638 38.8837 97.3492 39.0377 97.1812 39.2243C97.0178 39.4063 96.9362 39.621 96.9362 39.8683C96.9362 40.027 96.9758 40.174 97.0552 40.3093C97.1392 40.4493 97.2652 40.5683 97.4332 40.6663C97.6012 40.769 97.8112 40.8483 98.0632 40.9043C98.3198 40.965 98.6208 40.9953 98.9662 40.9953C99.3022 40.9953 99.6032 40.965 99.8692 40.9043C100.135 40.8437 100.359 40.7573 100.541 40.6453C100.728 40.5333 100.87 40.4003 100.968 40.2463C101.066 40.0923 101.115 39.922 101.115 39.7353ZM102.382 32.5393V33.0013C102.382 33.1553 102.284 33.2533 102.088 33.2953L101.283 33.4003C101.442 33.7083 101.521 34.049 101.521 34.4223C101.521 34.7677 101.453 35.0827 101.318 35.3673C101.187 35.6473 101.005 35.8877 100.772 36.0883C100.539 36.289 100.259 36.443 99.9322 36.5503C99.6055 36.6577 99.2508 36.7113 98.8682 36.7113C98.5368 36.7113 98.2242 36.6717 97.9302 36.5923C97.7808 36.6857 97.6665 36.786 97.5872 36.8933C97.5078 36.996 97.4682 37.101 97.4682 37.2083C97.4682 37.3763 97.5358 37.5047 97.6712 37.5933C97.8112 37.6773 97.9932 37.738 98.2172 37.7753C98.4412 37.8127 98.6955 37.836 98.9802 37.8453C99.2695 37.8547 99.5635 37.871 99.8622 37.8943C100.165 37.913 100.459 37.948 100.744 37.9993C101.033 38.0507 101.29 38.1347 101.514 38.2513C101.738 38.368 101.918 38.529 102.053 38.7343C102.193 38.9397 102.263 39.2057 102.263 39.5323C102.263 39.8357 102.186 40.1297 102.032 40.4143C101.883 40.699 101.666 40.951 101.381 41.1703C101.096 41.3943 100.746 41.5717 100.331 41.7023C99.9205 41.8377 99.4562 41.9053 98.9382 41.9053C98.4202 41.9053 97.9675 41.854 97.5802 41.7513C97.1928 41.6487 96.8708 41.511 96.6142 41.3383C96.3575 41.1657 96.1638 40.965 96.0332 40.7363C95.9072 40.5123 95.8442 40.2767 95.8442 40.0293C95.8442 39.6793 95.9538 39.383 96.1732 39.1403C96.3925 38.8977 96.6935 38.704 97.0762 38.5593C96.8662 38.466 96.6982 38.3423 96.5722 38.1883C96.4508 38.0297 96.3902 37.8173 96.3902 37.5513C96.3902 37.4487 96.4088 37.3437 96.4462 37.2363C96.4835 37.1243 96.5395 37.0147 96.6142 36.9073C96.6935 36.7953 96.7892 36.6903 96.9012 36.5923C97.0132 36.4943 97.1438 36.408 97.2932 36.3333C96.9432 36.1373 96.6702 35.8783 96.4742 35.5563C96.2782 35.2297 96.1802 34.8517 96.1802 34.4223C96.1802 34.077 96.2455 33.7643 96.3762 33.4843C96.5115 33.1997 96.6982 32.9593 96.9362 32.7633C97.1742 32.5627 97.4565 32.4087 97.7832 32.3013C98.1145 32.194 98.4762 32.1403 98.8682 32.1403C99.1762 32.1403 99.4632 32.1753 99.7292 32.2453C99.9952 32.3107 100.238 32.4087 100.457 32.5393H102.382Z" fill="white"/>
<defs>
<linearGradient id="paint0_linear_1994_7905" x1="119" y1="46.9648" x2="-2.96456" y2="15.0736" gradientUnits="userSpaceOnUse">
<stop offset="0.254808" stop-color="#464646"/>
<stop offset="1" stop-color="#43430D"/>
</linearGradient>
<linearGradient id="paint1_linear_1994_7905" x1="34.037" y1="0.350342" x2="75.3034" y2="57.3444" gradientUnits="userSpaceOnUse">
<stop stop-color="#9F9F00"/>
<stop offset="0.509615" stop-color="#4D4D00"/>
</linearGradient>
<clipPath id="clip0_1994_7905">
<rect width="36" height="36" fill="white" transform="translate(16 7.35034)"/>
</clipPath>
</defs>
</svg>
