<svg width="72" height="72" viewBox="0 0 72 72" fill="none" xmlns="http://www.w3.org/2000/svg">
<rect x="1" y="1.35034" width="70" height="69" rx="34.5" stroke="#FFFF00" stroke-width="2"/>
<path fill-rule="evenodd" clip-rule="evenodd" d="M36.0176 44.5192C30.4148 44.5192 25.1984 41.2684 22.418 36.0856C22.3424 35.9512 22.3424 35.8 22.418 35.6404C25.1984 30.424 30.4064 27.2068 36.0176 27.2068C41.5952 27.2068 46.8116 30.4576 49.5836 35.6404C49.6592 35.7748 49.6592 35.926 49.5836 36.0856C46.778 41.2768 41.5952 44.5192 36.0176 44.5192ZM23.3336 35.8504C25.9796 40.6468 30.8264 43.6036 35.984 43.6036C41.1416 43.6036 45.9632 40.6468 48.6344 35.8504C45.9884 31.0792 41.1668 28.1224 36.0092 28.1224C30.8264 28.1224 26.0048 31.0792 23.3336 35.8504Z" fill="#FFFF00"/>
<path fill-rule="evenodd" clip-rule="evenodd" d="M48.2734 48.6101H43.5022C43.2418 48.6101 43.0318 48.4001 43.0318 48.1397C43.0318 47.8793 43.2418 47.6693 43.5022 47.6693H47.8282V42.4277C47.8282 42.1673 48.0382 41.9573 48.2986 41.9573C48.559 41.9573 48.769 42.1673 48.769 42.4277V48.1397C48.7438 48.4001 48.5338 48.6101 48.2734 48.6101ZM28.4662 48.6101H23.695C23.4346 48.6101 23.2246 48.4001 23.2246 48.1397V42.4277C23.2246 42.1673 23.4346 41.9573 23.695 41.9573C23.9554 41.9573 24.1654 42.1673 24.1654 42.4277V47.6945H28.4914C28.7518 47.6945 28.9618 47.9045 28.9618 48.1649C28.9618 48.4253 28.735 48.6101 28.4662 48.6101ZM48.2734 27.8621C48.013 27.8621 47.803 27.6521 47.803 27.3917V24.0401H43.5106C43.2502 24.0401 43.0402 23.8301 43.0402 23.5697C43.0402 23.3093 43.2502 23.1245 43.5106 23.1245H48.2818C48.5422 23.1245 48.7522 23.3345 48.7522 23.5697V27.3917C48.7438 27.6521 48.5338 27.8621 48.2734 27.8621ZM23.7034 27.8621C23.4682 27.8621 23.2582 27.6521 23.2582 27.3917V23.5865C23.2582 23.3261 23.4682 23.1413 23.7286 23.1413H28.4998C28.7602 23.1413 28.9702 23.3513 28.9702 23.5865C28.9702 23.8217 28.7602 24.0569 28.4998 24.0569H24.1738V27.3833C24.1738 27.6521 23.9638 27.8621 23.7034 27.8621Z" fill="#FFFF00"/>
<path fill-rule="evenodd" clip-rule="evenodd" d="M51.6497 51.9617H45.5765C45.3161 51.9617 45.1061 51.7517 45.1061 51.4913C45.1061 51.2309 45.3161 51.0209 45.5765 51.0209H51.1793V44.2085C51.1793 43.9481 51.3893 43.7381 51.6497 43.7381C51.9101 43.7381 52.1201 43.9481 52.1201 44.2085V51.4913C52.1285 51.7517 51.9185 51.9617 51.6497 51.9617ZM26.3993 51.9617H20.3513C20.0909 51.9617 19.8809 51.7517 19.8809 51.4913V44.2337C19.8809 43.9733 20.0909 43.7633 20.3513 43.7633C20.6117 43.7633 20.8217 43.9733 20.8217 44.2337V51.0461H26.3993C26.6597 51.0461 26.8697 51.2561 26.8697 51.5165C26.8697 51.7769 26.6597 51.9617 26.3993 51.9617ZM51.6497 25.5269C51.3893 25.5269 51.1793 25.3169 51.1793 25.0565V20.6549H45.5765C45.3161 20.6549 45.1061 20.4449 45.1061 20.2097C45.1061 19.9745 45.3161 19.7393 45.5765 19.7393H51.6581C51.9185 19.7393 52.1285 19.9493 52.1285 20.2097V25.0817C52.1285 25.3169 51.9185 25.5269 51.6497 25.5269ZM20.3513 25.5269C20.0909 25.5269 19.8809 25.3169 19.8809 25.0565V20.2097C19.8809 19.9493 20.0909 19.7393 20.3513 19.7393H26.3993C26.6597 19.7393 26.8697 19.9493 26.8697 20.2097C26.8697 20.4701 26.6597 20.6549 26.3993 20.6549H20.8217V25.0565C20.8217 25.3169 20.6117 25.5269 20.3513 25.5269Z" fill="#FFFF00"/>
<path fill-rule="evenodd" clip-rule="evenodd" d="M36.7973 40.0923C36.6125 40.0923 36.4277 39.9579 36.3521 39.7815L33.7817 32.2131C33.7061 31.9779 33.8321 31.7175 34.0673 31.6335C34.3025 31.5579 34.5629 31.6839 34.6469 31.9191L37.2173 39.4875C37.2929 39.7227 37.1669 39.9831 36.9317 40.0671C36.9065 40.0923 36.8477 40.0923 36.7973 40.0923Z" fill="#FFFF00"/>
<path fill-rule="evenodd" clip-rule="evenodd" d="M31.6657 40.0923C31.6153 40.0923 31.5649 40.0923 31.5061 40.0671C31.2709 39.9915 31.1365 39.7227 31.2205 39.4875L33.8161 31.9191C33.8917 31.6839 34.1605 31.5495 34.3957 31.6335C34.6309 31.7091 34.7653 31.9779 34.6813 32.2131L32.0857 39.7815C32.0353 39.9915 31.8505 40.0923 31.6657 40.0923Z" fill="#FFFF00"/>
<path fill-rule="evenodd" clip-rule="evenodd" d="M35.7477 36.976H32.7321C32.4717 36.976 32.2617 36.766 32.2617 36.5056C32.2617 36.2452 32.4717 36.0352 32.7321 36.0352H35.7477C36.0081 36.0352 36.2181 36.2452 36.2181 36.5056C36.2265 36.766 36.0165 36.976 35.7477 36.976Z" fill="#FFFF00"/>
<path fill-rule="evenodd" clip-rule="evenodd" d="M39.2829 40.0924C39.0225 40.0924 38.8125 39.8824 38.8125 39.622V32.0788C38.8125 31.8184 39.0225 31.6084 39.2829 31.6084C39.5433 31.6084 39.7533 31.8184 39.7533 32.0788V39.6472C39.7281 39.9076 39.5181 40.0924 39.2829 40.0924Z" fill="#FFFF00"/>
<path fill-rule="evenodd" clip-rule="evenodd" d="M40.3085 32.5492H38.2673C38.0069 32.5492 37.7969 32.3392 37.7969 32.0788C37.7969 31.8184 38.0069 31.6084 38.2673 31.6084H40.3085C40.5689 31.6084 40.7789 31.8184 40.7789 32.0788C40.7789 32.3392 40.5689 32.5492 40.3085 32.5492Z" fill="#FFFF00"/>
<path fill-rule="evenodd" clip-rule="evenodd" d="M40.3085 40.0924H38.2673C38.0069 40.0924 37.7969 39.8824 37.7969 39.622C37.7969 39.3616 38.0069 39.1516 38.2673 39.1516H40.3085C40.5689 39.1516 40.7789 39.3616 40.7789 39.622C40.7789 39.8824 40.5689 40.0924 40.3085 40.0924Z" fill="#FFFF00"/>
</svg>
