<svg width="72" height="72" viewBox="0 0 72 72" fill="none" xmlns="http://www.w3.org/2000/svg">
<rect x="1" y="1.35034" width="70" height="69" rx="34.5" stroke="#FFFF00" stroke-width="2"/>
<path d="M32.009 28.4463V29.0678C32.009 29.7766 32.5854 30.3531 33.2943 30.3531H33.9158V32.1121C33.9158 32.4829 34.2168 32.7839 34.5876 32.7839C34.9585 32.7839 35.2595 32.4829 35.2595 32.1121V30.3531H36.741V32.1121C36.741 32.4829 37.042 32.7839 37.4129 32.7839C37.7837 32.7839 38.0847 32.4829 38.0847 32.1121V30.3531H38.7062C39.415 30.3531 39.9915 29.7766 39.9915 29.0678V28.4463H41.7505C42.1214 28.4463 42.4224 28.1453 42.4224 27.7744C42.4224 27.4036 42.1214 27.1026 41.7505 27.1026H39.9915V25.6211H41.7505C42.1214 25.6211 42.4224 25.3201 42.4224 24.9492C42.4224 24.5783 42.1214 24.2773 41.7505 24.2773H39.9915V23.6558C39.9915 22.947 39.415 22.3705 38.7062 22.3705H38.0847V20.6116C38.0847 20.2407 37.7837 19.9397 37.4129 19.9397C37.042 19.9397 36.741 20.2407 36.741 20.6116V22.3705H35.2595V20.6116C35.2595 20.2407 34.9585 19.9397 34.5876 19.9397C34.2168 19.9397 33.9158 20.2407 33.9158 20.6116V22.3705H33.2943C32.5854 22.3705 32.009 22.947 32.009 23.6558V24.2773H30.25C29.8791 24.2773 29.5781 24.5783 29.5781 24.9492C29.5781 25.3201 29.8791 25.6211 30.25 25.6211H32.009V27.1026H30.25C29.8791 27.1026 29.5781 27.4036 29.5781 27.7744C29.5781 28.1453 29.8791 28.4463 30.25 28.4463H32.009ZM33.3527 23.715H38.6478V29.0093H33.3527V23.715Z" fill="#FFFF00"/>
<path d="M15.9974 43.7166C15.7925 43.9652 15.7925 44.324 15.9974 44.5719C16.3616 45.0133 25.0456 55.3777 35.9998 55.3777C46.9541 55.3777 55.6381 45.0133 56.0022 44.5719C56.2071 44.3233 56.2071 43.9645 56.0022 43.7166C55.7583 43.4217 50.2234 36.8003 42.431 34.0685C44.4527 32.3814 45.7353 29.9976 45.994 27.3397C46.0222 27.0178 46.0437 26.6886 46.0437 26.3601C46.0437 20.8252 41.5374 16.3223 35.9992 16.3223C30.4609 16.3223 25.9546 20.8252 25.9546 26.3601C25.9546 26.6893 25.9761 27.0178 26.005 27.3457C26.263 29.9983 27.5456 32.3814 29.568 34.0685C21.7756 36.8003 16.2407 43.4217 15.9968 43.7166H15.9974ZM27.3434 27.2214C27.3179 26.9386 27.2991 26.649 27.2991 26.3601C27.2991 21.5663 31.2026 17.666 35.9998 17.666C40.797 17.666 44.7006 21.5663 44.7006 26.3601C44.7006 26.649 44.6811 26.9379 44.6569 27.2154C44.3942 29.9062 42.9228 32.2847 40.621 33.74C39.7664 34.2781 38.8291 34.6571 37.8361 34.8674C37.6493 34.907 37.488 35.0239 37.3926 35.1899L35.9998 37.5972L34.607 35.1899C34.5116 35.0239 34.3504 34.907 34.1636 34.8674C33.915 34.815 33.6704 34.7518 33.4299 34.6786C32.7076 34.4582 32.0203 34.1438 31.3793 33.7406C29.0762 32.2847 27.6054 29.9062 27.3434 27.2221V27.2214ZM33.8774 36.6136L35.4187 39.2749C35.5389 39.4825 35.76 39.6101 35.9998 39.6101C36.2397 39.6101 36.4614 39.4825 36.581 39.2749L38.1223 36.6136C41.4555 37.5481 43.8272 40.6408 43.8272 44.1453C43.8272 48.4614 40.316 51.9726 35.9998 51.9726C31.6837 51.9726 28.1725 48.4614 28.1725 44.1453C28.1725 40.6408 30.5442 37.5481 33.8774 36.6136ZM30.9252 35.0367C31.0058 35.0844 31.0904 35.1247 31.1724 35.1697C31.2651 35.2208 31.3572 35.2725 31.4512 35.3202C31.589 35.3901 31.7294 35.4546 31.8698 35.5177C31.9605 35.5587 32.0499 35.6017 32.1413 35.6393C32.2178 35.6709 32.2958 35.6998 32.3737 35.73C29.0795 37.1544 26.8281 40.452 26.8281 44.1446C26.8281 49.2011 30.9426 53.3157 35.9992 53.3157C41.0557 53.3157 45.1703 49.2011 45.1703 44.1446C45.1703 40.452 42.9188 37.1544 39.6246 35.73C39.7019 35.7005 39.7798 35.6716 39.8571 35.6393C39.9491 35.601 40.0391 35.558 40.1298 35.5171C40.2703 35.4539 40.41 35.3901 40.5478 35.3202C40.6418 35.2725 40.7345 35.2208 40.8273 35.1697C40.9092 35.1247 40.9932 35.0837 41.0745 35.0367C47.8483 37.0731 53.1683 42.567 54.5913 44.1446C52.829 46.0944 45.0943 54.0346 36.0005 54.0346C26.9067 54.0346 19.1707 46.0944 17.4091 44.1446C18.8314 42.567 24.1513 37.0731 30.9252 35.0367Z" fill="#FFFF00"/>
<path d="M35.9994 48.2404C38.2575 48.2404 40.0945 46.4035 40.0945 44.1446C40.0945 41.8858 38.2575 40.0496 35.9994 40.0496C33.7412 40.0496 31.9043 41.8865 31.9043 44.1446C31.9043 46.4028 33.7412 48.2404 35.9994 48.2404ZM35.9994 41.3933C37.5165 41.3933 38.7507 42.6275 38.7507 44.1446C38.7507 45.6617 37.5165 46.8966 35.9994 46.8966C34.4823 46.8966 33.248 45.6624 33.248 44.1446C33.248 42.6269 34.4823 41.3933 35.9994 41.3933Z" fill="#FFFF00"/>
</svg>
