<svg width="72" height="72" viewBox="0 0 72 72" fill="none" xmlns="http://www.w3.org/2000/svg">
<rect x="1" y="1.35034" width="70" height="69" rx="34.5" stroke="#FFFF00" stroke-width="2"/>
<g clip-path="url(#clip0_2078_5152)">
<path d="M55.1923 32.3503C55.0691 32.1381 54.8926 31.9617 54.6801 31.8389C54.4676 31.7161 54.2267 31.6511 53.9813 31.6503H50.4372C50.1916 31.651 49.9504 31.7159 49.7377 31.8388C49.525 31.9616 49.3481 32.138 49.2248 32.3503L47.6064 35.1503H40.1115C40.0514 34.9079 39.9591 34.6746 39.8371 34.4566L37.6104 30.4883L41.8377 28.1825L42.2248 28.8517C42.3479 29.0641 42.5244 29.2404 42.7369 29.3633C42.9494 29.4861 43.1904 29.5511 43.4358 29.5517H46.9799C47.2255 29.551 47.4666 29.486 47.6793 29.3632C47.892 29.2404 48.0689 29.0641 48.1923 28.8517L49.81 26.0517C49.9335 25.8385 49.9986 25.5964 49.9986 25.35C49.9986 25.1036 49.9335 24.8615 49.81 24.6482L48.1909 21.8482C48.0677 21.636 47.8912 21.4596 47.6787 21.3368C47.4662 21.214 47.2253 21.149 46.9799 21.1482H43.4372C43.1918 21.1489 42.9508 21.2139 42.7383 21.3367C42.5258 21.4595 42.3493 21.6359 42.2262 21.8482L40.6064 24.6503C40.4839 24.8633 40.4195 25.1047 40.4195 25.3503C40.4195 25.596 40.4839 25.8374 40.6064 26.0503L41.1377 26.9687L36.9272 29.2703L35.1261 26.0594C34.9148 25.6852 34.619 25.3654 34.2623 25.1256L35.0624 23.2503H36.4813C36.7269 23.2496 36.968 23.1846 37.1807 23.0618C37.3934 22.939 37.5703 22.7627 37.6937 22.5503L39.3114 19.7503C39.4343 19.5375 39.4989 19.2961 39.4989 19.0503C39.4989 18.8046 39.4343 18.5632 39.3114 18.3503L37.6923 15.5503C37.5691 15.3381 37.3926 15.1617 37.1801 15.0389C36.9676 14.9161 36.7267 14.8511 36.4813 14.8503H32.9372C32.6918 14.851 32.4508 14.916 32.2383 15.0388C32.0258 15.1616 31.8493 15.338 31.7262 15.5503L30.1064 18.3503C29.9839 18.5633 29.9195 18.8047 29.9195 19.0503C29.9195 19.296 29.9839 19.5374 30.1064 19.7503L31.7262 22.5503C31.8493 22.7627 32.0258 22.939 32.2383 23.0619C32.4508 23.1847 32.6918 23.2497 32.9372 23.2503H33.5399L32.9358 24.6629C32.8749 24.6587 32.8147 24.6503 32.7531 24.6503H22.447C21.9622 24.6533 21.4868 24.785 21.0697 25.0321C20.6526 25.2793 20.3087 25.6328 20.0733 26.0566L15.3637 34.4566C15.1265 34.8829 15.002 35.3626 15.002 35.8503C15.002 36.3381 15.1265 36.8178 15.3637 37.244L20.0747 45.644C20.3097 46.068 20.6534 46.4218 21.0705 46.6689C21.4875 46.9161 21.9629 47.0477 22.4477 47.0503H32.7531C32.8147 47.0503 32.8749 47.0419 32.9358 47.0377L33.5399 48.4503H32.9372C32.6918 48.451 32.4508 48.516 32.2383 48.6388C32.0258 48.7617 31.8493 48.938 31.7262 49.1503L30.1064 51.9503C29.9833 52.1637 29.9185 52.4057 29.9185 52.6521C29.9185 52.8984 29.9833 53.1405 30.1064 53.3538L31.7262 56.1539C31.8493 56.3662 32.0258 56.5425 32.2383 56.6654C32.4508 56.7882 32.6918 56.8532 32.9372 56.8538H36.4813C36.7267 56.8531 36.9676 56.7881 37.1801 56.6653C37.3926 56.5425 37.5691 56.3661 37.6923 56.1539L39.3114 53.3538C39.4349 53.1406 39.5 52.8985 39.5 52.6521C39.5 52.4057 39.4349 52.1636 39.3114 51.9503L37.6923 49.1503C37.5691 48.938 37.3924 48.7616 37.1798 48.6387C36.9672 48.5159 36.7261 48.451 36.4806 48.4503H35.0624L34.2623 46.5778C34.619 46.3381 34.9148 46.0183 35.1261 45.644L36.9272 42.4303L41.1377 44.727L40.6064 45.6503C40.4833 45.8637 40.4185 46.1057 40.4185 46.3521C40.4185 46.5984 40.4833 46.8405 40.6064 47.0538L42.2262 49.8538C42.3493 50.0662 42.5258 50.2425 42.7383 50.3654C42.9508 50.4882 43.1918 50.5532 43.4372 50.5538H46.9813C47.2267 50.5531 47.4676 50.4881 47.6801 50.3653C47.8926 50.2425 48.0691 50.0661 48.1923 49.8538L49.8114 47.0538C49.9349 46.8406 50 46.5985 50 46.3521C50 46.1057 49.9349 45.8636 49.8114 45.6503L48.1923 42.8503C48.0691 42.638 47.8924 42.4616 47.6798 42.3387C47.4672 42.2159 47.2261 42.151 46.9806 42.1503H43.4372C43.1918 42.151 42.9508 42.216 42.7383 42.3388C42.5258 42.4616 42.3493 42.638 42.2262 42.8503L41.8391 43.5195L37.6104 41.2123L39.8357 37.244C39.9582 37.0262 40.051 36.7929 40.1115 36.5503H47.6057L49.2255 39.3503C49.3486 39.5627 49.5251 39.739 49.7376 39.8619C49.9501 39.9847 50.1911 40.0497 50.4365 40.0503H53.9806C54.226 40.0496 54.4669 39.9846 54.6794 39.8618C54.8919 39.739 55.0684 39.5626 55.1916 39.3503L56.8107 36.5503C56.9336 36.3375 56.9982 36.0961 56.9982 35.8503C56.9982 35.6046 56.9336 35.3632 56.8107 35.1503L55.1923 32.3503ZM43.4372 22.5503H46.9813L48.6004 25.3503L46.9827 28.1503H43.4372L42.7204 26.9113V26.9057L42.7155 26.8994L41.8181 25.3503L43.4372 22.5503ZM31.3181 19.0503L32.9372 16.2503H36.4813L38.1004 19.0503L36.4827 21.8503H32.9372L31.3181 19.0503ZM38.1004 52.6503L36.4813 55.4503H32.9372L31.3181 52.6503L32.9372 49.8503H36.4813L38.1004 52.6503ZM46.9813 43.5503L48.6004 46.3503L46.9813 49.1503H43.4372L41.8181 46.3503L42.712 44.8047L42.719 44.7949V44.7893L43.4372 43.5503H46.9813ZM38.6163 36.5594L36.0515 41.1325C36.0473 41.1395 36.0403 41.143 36.0368 41.15C36.0333 41.157 36.0368 41.1633 36.0305 41.1696L33.9053 44.9594C33.7918 45.1665 33.6253 45.3396 33.4228 45.4611C33.2203 45.5825 32.9892 45.6478 32.7531 45.6503H22.4477C22.2116 45.6478 21.9804 45.5825 21.7779 45.4611C21.5754 45.3396 21.4089 45.1665 21.2955 44.9594L16.5845 36.5594C16.464 36.3425 16.4007 36.0985 16.4007 35.8503C16.4007 35.6022 16.464 35.3582 16.5845 35.1412L21.2941 26.7412C21.4079 26.5343 21.5746 26.3613 21.7771 26.2399C21.9797 26.1185 22.2108 26.0531 22.447 26.0503H32.7531C32.9892 26.0529 33.2203 26.1182 33.4228 26.2396C33.6253 26.361 33.7918 26.5342 33.9053 26.7412L36.0305 30.5303C36.0305 30.5366 36.0305 30.5436 36.0368 30.5499C36.0431 30.5562 36.0508 30.5674 36.0571 30.5772L38.6163 35.1405C38.7369 35.3575 38.8002 35.6017 38.8002 35.85C38.8002 36.0983 38.7369 36.3424 38.6163 36.5594ZM53.9813 38.6503H50.4372L48.8188 35.8503L50.4365 33.0503H53.9813L55.6004 35.8503L53.9813 38.6503Z" fill="#FFFF00"/>
<path d="M27.5992 27.4504C25.9379 27.4504 24.3138 27.9431 22.9324 28.8661C21.5511 29.7891 20.4744 31.101 19.8386 32.6359C19.2029 34.1708 19.0365 35.8598 19.3606 37.4892C19.6847 39.1186 20.4848 40.6154 21.6595 41.7901C22.8343 42.9649 24.331 43.7649 25.9605 44.089C27.5899 44.4132 29.2789 44.2468 30.8138 43.611C32.3487 42.9753 33.6606 41.8986 34.5836 40.5172C35.5066 39.1359 35.9992 37.5118 35.9992 35.8504C35.9968 33.6234 35.111 31.4882 33.5363 29.9134C31.9615 28.3386 29.8263 27.4528 27.5992 27.4504ZM27.5992 42.8504C26.2148 42.8504 24.8614 42.4399 23.7102 41.6707C22.5591 40.9016 21.6619 39.8083 21.1321 38.5292C20.6023 37.2501 20.4636 35.8427 20.7337 34.4848C21.0038 33.1269 21.6705 31.8797 22.6495 30.9007C23.6284 29.9217 24.8757 29.255 26.2336 28.9849C27.5915 28.7148 28.9989 28.8535 30.278 29.3833C31.5571 29.9131 32.6503 30.8103 33.4195 31.9614C34.1887 33.1126 34.5992 34.466 34.5992 35.8504C34.5972 37.7063 33.859 39.4856 32.5467 40.7979C31.2344 42.1102 29.4551 42.8484 27.5992 42.8504Z" fill="#FFFF00"/>
<path d="M25.5008 33.7503H29.7008C29.8864 33.7503 30.0645 33.6766 30.1958 33.5453C30.327 33.414 30.4008 33.236 30.4008 33.0503C30.4008 32.8647 30.327 32.6866 30.1958 32.5554C30.0645 32.4241 29.8864 32.3503 29.7008 32.3503H25.5008C25.3151 32.3503 25.1371 32.4241 25.0058 32.5554C24.8745 32.6866 24.8008 32.8647 24.8008 33.0503C24.8008 33.236 24.8745 33.414 25.0058 33.5453C25.1371 33.6766 25.3151 33.7503 25.5008 33.7503Z" fill="#FFFF00"/>
<path d="M29.7008 37.9504H25.5008C25.3151 37.9504 25.1371 38.0242 25.0058 38.1555C24.8745 38.2867 24.8008 38.4648 24.8008 38.6504C24.8008 38.8361 24.8745 39.0141 25.0058 39.1454C25.1371 39.2767 25.3151 39.3504 25.5008 39.3504H29.7008C29.8864 39.3504 30.0645 39.2767 30.1958 39.1454C30.327 39.0141 30.4008 38.8361 30.4008 38.6504C30.4008 38.4648 30.327 38.2867 30.1958 38.1555C30.0645 38.0242 29.8864 37.9504 29.7008 37.9504Z" fill="#FFFF00"/>
<path d="M31.7992 35.1504H23.3992C23.2136 35.1504 23.0355 35.2241 22.9042 35.3554C22.773 35.4867 22.6992 35.6647 22.6992 35.8504C22.6992 36.036 22.773 36.2141 22.9042 36.3454C23.0355 36.4766 23.2136 36.5504 23.3992 36.5504H31.7992C31.9849 36.5504 32.1629 36.4766 32.2942 36.3454C32.4255 36.2141 32.4992 36.036 32.4992 35.8504C32.4992 35.6647 32.4255 35.4867 32.2942 35.3554C32.1629 35.2241 31.9849 35.1504 31.7992 35.1504Z" fill="#FFFF00"/>
<path d="M35.2992 19.7503C35.4849 19.7503 35.6629 19.6766 35.7942 19.5453C35.9255 19.414 35.9992 19.236 35.9992 19.0503C35.9992 18.8647 35.9255 18.6866 35.7942 18.5554C35.6629 18.4241 35.4849 18.3503 35.2992 18.3503H33.8992C33.7136 18.3503 33.5355 18.4241 33.4042 18.5554C33.273 18.6866 33.1992 18.8647 33.1992 19.0503C33.1992 19.236 33.273 19.414 33.4042 19.5453C33.5355 19.6766 33.7136 19.7503 33.8992 19.7503H35.2992Z" fill="#FFFF00"/>
<path d="M44.3992 26.0504H45.7992C45.9849 26.0504 46.1629 25.9766 46.2942 25.8454C46.4255 25.7141 46.4992 25.536 46.4992 25.3504C46.4992 25.1647 46.4255 24.9867 46.2942 24.8554C46.1629 24.7241 45.9849 24.6504 45.7992 24.6504H44.3992C44.2136 24.6504 44.0355 24.7241 43.9042 24.8554C43.773 24.9867 43.6992 25.1647 43.6992 25.3504C43.6992 25.536 43.773 25.7141 43.9042 25.8454C44.0355 25.9766 44.2136 26.0504 44.3992 26.0504Z" fill="#FFFF00"/>
<path d="M52.7992 35.1504H51.3992C51.2136 35.1504 51.0355 35.2241 50.9042 35.3554C50.773 35.4867 50.6992 35.6647 50.6992 35.8504C50.6992 36.036 50.773 36.2141 50.9042 36.3454C51.0355 36.4766 51.2136 36.5504 51.3992 36.5504H52.7992C52.9849 36.5504 53.1629 36.4766 53.2942 36.3454C53.4255 36.2141 53.4992 36.036 53.4992 35.8504C53.4992 35.6647 53.4255 35.4867 53.2942 35.3554C53.1629 35.2241 52.9849 35.1504 52.7992 35.1504Z" fill="#FFFF00"/>
<path d="M44.3992 47.0504H45.7992C45.9849 47.0504 46.1629 46.9766 46.2942 46.8454C46.4255 46.7141 46.4992 46.536 46.4992 46.3504C46.4992 46.1647 46.4255 45.9867 46.2942 45.8554C46.1629 45.7241 45.9849 45.6504 45.7992 45.6504H44.3992C44.2136 45.6504 44.0355 45.7241 43.9042 45.8554C43.773 45.9867 43.6992 46.1647 43.6992 46.3504C43.6992 46.536 43.773 46.7141 43.9042 46.8454C44.0355 46.9766 44.2136 47.0504 44.3992 47.0504Z" fill="#FFFF00"/>
<path d="M33.1992 52.6504C33.1992 52.8361 33.273 53.0141 33.4042 53.1454C33.5355 53.2767 33.7136 53.3504 33.8992 53.3504H35.2992C35.4849 53.3504 35.6629 53.2767 35.7942 53.1454C35.9255 53.0141 35.9992 52.8361 35.9992 52.6504C35.9992 52.4648 35.9255 52.2867 35.7942 52.1555C35.6629 52.0242 35.4849 51.9504 35.2992 51.9504H33.8992C33.7136 51.9504 33.5355 52.0242 33.4042 52.1555C33.273 52.2867 33.1992 52.4648 33.1992 52.6504Z" fill="#FFFF00"/>
</g>
<defs>
<clipPath id="clip0_2078_5152">
<rect width="42" height="42" fill="white" transform="translate(15 14.8503)"/>
</clipPath>
</defs>
</svg>
