<svg width="72" height="72" viewBox="0 0 72 72" fill="none" xmlns="http://www.w3.org/2000/svg">
<rect x="1" y="1.35034" width="70" height="69" rx="34.5" stroke="#FFFF00" stroke-width="2"/>
<g clip-path="url(#clip0_1993_7551)">
<path d="M17.5238 19.3222H28.3746C28.5762 19.3222 28.7105 19.1878 28.7105 18.9863C28.7105 18.7847 28.5762 18.6503 28.3746 18.6503H17.5238C17.3223 18.6503 17.1879 18.7847 17.1879 18.9863C17.1879 19.1878 17.3559 19.3222 17.5238 19.3222ZM17.5238 23.5886H31.8012C32.0027 23.5886 32.1371 23.4542 32.1371 23.2527C32.1371 23.0511 32.0027 22.9167 31.8012 22.9167H17.5238C17.3223 22.9167 17.1879 23.0511 17.1879 23.2527C17.1879 23.4542 17.3559 23.5886 17.5238 23.5886ZM17.5238 27.8886H39.259C39.4605 27.8886 39.5949 27.7542 39.5949 27.5527C39.5949 27.3511 39.4605 27.2167 39.259 27.2167H17.5238C17.3223 27.2167 17.1879 27.3511 17.1879 27.5527C17.1879 27.7542 17.3559 27.8886 17.5238 27.8886ZM57.1309 42.7371C56.7277 42.1996 55.9551 42.0988 55.4176 42.5019C55.1824 42.6699 55.048 42.905 54.9809 43.1402H49.3707V41.1582H50.4121C50.916 41.1582 51.3527 40.7214 51.3527 40.2175V40.1839H53.234C53.2676 40.3183 53.3348 40.4527 53.4355 40.5871C53.8387 41.1246 54.6113 41.2253 55.1488 40.8222C55.6863 40.4191 55.7871 39.6464 55.384 39.1089C54.9809 38.5714 54.2082 38.4707 53.6707 38.8738C53.4355 39.0417 53.3012 39.2769 53.234 39.5121H51.3527V38.5378L52.2598 37.866C52.9652 38.2691 53.8051 37.9332 54.0402 37.1941C54.2418 36.5558 53.9059 35.8839 53.2676 35.6488C52.6293 35.4472 51.9574 35.7832 51.7223 36.4214C51.6215 36.7238 51.6551 37.0597 51.7895 37.3621L50.8152 38.0675C50.748 38.1347 50.6809 38.2355 50.6809 38.3363V40.1839C50.6809 40.3519 50.5465 40.4527 50.4121 40.4527H49.3707V38.773C49.3707 38.1347 48.8668 37.5972 48.1949 37.5972H47.5902V32.6589C47.5902 31.7519 46.8512 31.0128 45.9441 31.0128H42.1816V21.5394C42.1816 21.4722 42.148 21.3714 42.0809 21.3042C33.0441 12.3011 35.7316 14.955 35.2277 14.4511C35.1605 14.4175 35.0598 14.3503 34.9926 14.3503H17.5238C15.9449 14.3503 14.6348 15.6605 14.6348 17.2394V46.3988C14.6348 48.0113 15.9449 49.2878 17.5238 49.2878H38.8223V50.3628C38.8223 50.4972 38.6879 50.6316 38.5535 50.6316H36.7059C36.6051 50.6316 36.5043 50.6652 36.4371 50.766L35.698 51.7402C35.5301 51.6394 35.3285 51.6058 35.0934 51.6058C34.4215 51.6394 33.884 52.1769 33.9176 52.8824C33.9512 53.5542 34.5223 54.0917 35.1941 54.0582C35.866 54.0246 36.4035 53.4871 36.3699 52.8152C36.3699 52.6136 36.3027 52.4121 36.202 52.2441L36.8738 51.3371H37.848V53.2183C37.7137 53.2519 37.5793 53.3191 37.4449 53.4199C36.9074 53.823 36.8066 54.5957 37.2098 55.1332C37.6129 55.6707 38.3855 55.7714 38.923 55.3683C39.4605 54.9652 39.5613 54.1925 39.1582 53.655C38.9902 53.4535 38.7551 53.2855 38.5199 53.2183V51.3371H38.5535C39.0574 51.3371 39.4941 50.9339 39.4941 50.3964V49.2878H41.4762V54.9652C41.3418 54.9988 41.2074 55.066 41.073 55.1667C40.5355 55.5699 40.4348 56.3425 40.8379 56.88C41.241 57.4175 42.0137 57.5183 42.5512 57.1152C43.0887 56.7121 43.1895 55.9394 42.7863 55.4019C42.6184 55.2003 42.4168 55.0324 42.148 54.9652V49.2878H44.1301V50.3628C44.1301 50.8667 44.5668 51.3035 45.0707 51.3035H45.1043V53.1847C44.9699 53.2183 44.8355 53.2855 44.7012 53.3863C44.1637 53.7894 44.0629 54.5621 44.466 55.0996C44.8691 55.6371 45.6418 55.7378 46.1793 55.3347C46.7168 54.9316 46.8176 54.1589 46.4145 53.6214C46.2465 53.4199 46.0449 53.2519 45.7762 53.1847V51.3035H46.7504L47.4223 52.2105C47.3887 52.2777 47.3215 52.3785 47.3215 52.4457C47.1199 53.0839 47.4559 53.7558 48.0941 53.991C48.7324 54.1925 49.4043 53.8566 49.6395 53.2183C49.841 52.58 49.5051 51.9082 48.8668 51.673C48.5645 51.5722 48.2285 51.6058 47.9262 51.7402L47.2207 50.766C47.1535 50.6652 47.0527 50.6316 46.952 50.6316H45.1043C44.9699 50.6316 44.8355 50.4972 44.8355 50.3628V49.2878H48.2285C48.8668 49.2878 49.4043 48.7839 49.4043 48.1121V46.4324H50.4121C50.5801 46.4324 50.6809 46.5667 50.6809 46.7011V48.5488C50.6809 48.6496 50.748 48.7503 50.8152 48.8175L51.823 49.5566C51.7223 49.7246 51.6887 49.9261 51.6887 50.1277C51.7223 50.7996 52.2598 51.3035 52.898 51.3035C53.6035 51.3035 54.141 50.7324 54.1074 50.0269C54.0738 49.355 53.5027 48.8175 52.8645 48.8511C52.6629 48.8511 52.4613 48.9183 52.2934 49.0191L51.3863 48.3472V47.373H53.2676C53.3012 47.5074 53.3684 47.6417 53.4691 47.7761C53.8723 48.3136 54.6449 48.4144 55.1824 48.0113C55.7199 47.6082 55.8207 46.8355 55.4176 46.298C55.0145 45.7605 54.2418 45.6597 53.7043 46.0628C53.5027 46.2308 53.3348 46.4324 53.2676 46.7011H51.3863V46.6675C51.3863 46.1636 50.9832 45.7269 50.4457 45.7269H49.4379V43.7113H55.048C55.0816 43.8457 55.1488 43.98 55.2496 44.1144C55.6527 44.6519 56.4254 44.7527 56.9629 44.3496C57.4332 44.0136 57.534 43.2746 57.1309 42.7371ZM54.0738 39.3777C54.309 39.2097 54.6449 39.2433 54.8465 39.4785C55.0145 39.7136 54.9809 40.0496 54.7457 40.2511C54.5105 40.4191 54.1746 40.3855 53.973 40.1503C53.7715 39.9152 53.8387 39.5792 54.0738 39.3777ZM52.3605 36.623C52.4613 36.3207 52.7637 36.1863 53.0324 36.2871C53.3348 36.3878 53.4691 36.6902 53.3684 36.9589C53.2676 37.2277 52.9652 37.3957 52.6965 37.2949C52.4277 37.2277 52.2598 36.9253 52.3605 36.623ZM35.1941 53.4199C34.8918 53.4199 34.6566 53.1847 34.623 52.8824C34.623 52.58 34.8582 52.3449 35.1605 52.3113C35.4965 52.3113 35.7316 52.5464 35.7316 52.8488C35.7316 53.1511 35.4965 53.3863 35.1941 53.4199ZM38.6207 54.0582C38.7887 54.2933 38.7551 54.6292 38.5199 54.8308C38.2848 55.0324 37.9488 54.9652 37.7473 54.73C37.5793 54.4949 37.6129 54.1589 37.848 53.9574C38.1168 53.7558 38.4527 53.823 38.6207 54.0582ZM47.9934 52.6808C48.0605 52.4121 48.3629 52.2441 48.6652 52.3449C48.9676 52.4457 49.102 52.748 49.0012 53.0167C48.9004 53.2855 48.598 53.4535 48.3293 53.3527C48.0605 53.2519 47.8926 52.9496 47.9934 52.6808ZM45.1379 53.9574C45.373 53.7558 45.709 53.823 45.9105 54.0582C46.0785 54.2933 46.0449 54.6292 45.8098 54.8308C45.5746 54.9988 45.2387 54.9652 45.0371 54.73C44.8691 54.4949 44.9027 54.1589 45.1379 53.9574ZM46.0113 31.6847C46.5152 31.6847 46.952 32.1214 46.952 32.6589V37.5972H45.373V33.6332C45.373 33.4316 45.2387 33.2972 45.0371 33.2972H38.6543C38.4863 33.2972 38.3184 33.4316 38.3184 33.6332V37.6308H36.7395V32.6589C36.7395 32.1214 37.1762 31.6847 37.7137 31.6847H46.0113ZM44.7012 33.9691V37.6308H42.1816V33.9691H44.7012ZM41.5098 33.9691V37.6308H38.9902V33.9691H41.5098ZM35.2949 15.4925L41.0395 21.2035H36.5715C35.866 21.2035 35.2949 20.6324 35.2949 19.9269V15.4925ZM17.5238 48.6496C16.3145 48.616 15.3066 47.6418 15.3066 46.3988V17.2394C15.3066 16.03 16.3145 15.0222 17.5238 15.0222H34.6566V19.9269C34.6566 21.0019 35.5301 21.8753 36.6051 21.8753H41.5098V31.0128H37.6801C37.2434 31.0128 36.8402 31.1808 36.5379 31.4832H17.5238C17.3223 31.4832 17.1879 31.6175 17.1879 31.8191C17.1879 32.0207 17.3559 32.155 17.5238 32.155H36.1348C36.0676 32.323 36.034 32.491 36.034 32.6589V35.7832H17.5238C17.3223 35.7832 17.1879 35.9175 17.1879 36.1191C17.1879 36.2871 17.3559 36.455 17.5238 36.455H36.034V37.5972H35.4629C34.8246 37.5972 34.2871 38.1011 34.2871 38.773V40.0496H17.5238C17.3223 40.0496 17.1879 40.1839 17.1879 40.3855C17.1879 40.5871 17.3223 40.7214 17.5238 40.7214H34.2871V44.3496H17.5238C17.3223 44.3496 17.1879 44.4839 17.1879 44.6855C17.1879 44.8871 17.3223 45.0214 17.5238 45.0214H34.2871V48.1457C34.2871 48.3136 34.3207 48.4816 34.3879 48.6496H17.5238ZM42.2824 55.805C42.4504 56.0402 42.4168 56.3761 42.1816 56.5777C41.9465 56.7792 41.6105 56.7121 41.409 56.4769C41.241 56.2417 41.2746 55.9058 41.5098 55.7042C41.7449 55.5027 42.0809 55.5699 42.2824 55.805ZM48.6988 48.1121C48.6988 48.4144 48.4973 48.616 48.2285 48.616H35.4629C35.1941 48.616 34.959 48.3808 34.959 48.1121V46.7347H48.6988V48.1121ZM48.6988 46.0628H34.959V38.773C34.959 38.5042 35.1941 38.2691 35.4629 38.2691H48.2285C48.4973 38.3027 48.6988 38.5042 48.6988 38.773V46.0628ZM52.8645 49.5566C53.2004 49.5566 53.402 49.7917 53.4355 50.0941C53.4355 50.3964 53.2004 50.6316 52.898 50.6652C52.5621 50.6652 52.3605 50.43 52.327 50.1277C52.327 49.8253 52.5621 49.5902 52.8645 49.5566ZM53.8723 47.0371C53.9059 46.9027 53.973 46.7683 54.0738 46.6675C54.309 46.4996 54.6449 46.5332 54.8465 46.7683C55.0145 47.0035 54.9809 47.3394 54.7457 47.541C54.5105 47.7089 54.1746 47.6753 53.973 47.4402C53.8723 47.3058 53.8387 47.1714 53.8723 47.0371ZM56.4926 43.9128C56.2574 44.0808 55.9215 44.0472 55.7199 43.8121C55.552 43.5769 55.5855 43.241 55.8207 43.0394C56.0559 42.8714 56.3918 42.905 56.5934 43.1402C56.7613 43.3753 56.7277 43.7113 56.4926 43.9128Z" fill="#FFFF00"/>
</g>
<defs>
<clipPath id="clip0_1993_7551">
<rect width="43" height="43" fill="white" transform="translate(14.5 14.3503)"/>
</clipPath>
</defs>
</svg>
