<svg width="72" height="72" viewBox="0 0 72 72" fill="none" xmlns="http://www.w3.org/2000/svg">
<rect x="1" y="1.35034" width="70" height="69" rx="34.5" stroke="#FFFF00" stroke-width="2"/>
<path d="M41.3872 39.7612C41.6528 39.4913 41.6494 39.0572 41.3795 38.7912C41.1095 38.5259 40.6754 38.5286 40.4091 38.7993C39.2331 39.9944 37.6672 40.6522 36.0001 40.6522C34.333 40.6522 32.7671 39.9944 31.5911 38.7993C31.3258 38.5293 30.8914 38.5266 30.6207 38.7912C30.3508 39.0572 30.3474 39.4913 30.613 39.7612C32.0493 41.2203 33.9622 42.0242 36.0001 42.0242C38.038 42.0242 39.9509 41.2203 41.3872 39.7612Z" fill="#FFFF00"/>
<path d="M31.5911 30.1576C32.7671 28.9624 34.333 28.3046 36.0001 28.3046C37.6671 28.3046 39.233 28.9624 40.409 30.1575C40.6691 30.4217 41.1162 30.4243 41.3795 30.1656C41.6494 29.8996 41.6528 29.4655 41.3872 29.1956C39.9509 27.7365 38.038 26.9326 36.0001 26.9326C33.9622 26.9326 32.0493 27.7365 30.613 29.1956C30.3474 29.4655 30.3508 29.8996 30.6207 30.1656C30.8904 30.4309 31.3248 30.4282 31.5911 30.1576Z" fill="#FFFF00"/>
<path d="M25.2074 45.9887C25.468 46.2327 25.9186 46.2324 26.1771 45.9573C26.4361 45.6806 26.422 45.2465 26.1453 44.9879C23.2533 42.2781 21.5946 38.4476 21.5946 34.4784C21.5946 26.5353 28.0569 20.0727 36.0003 20.0727C43.9438 20.0727 50.4061 26.5353 50.4061 34.4784C50.4061 37.9439 49.1668 41.2377 46.927 43.8454L46.9004 43.5891C46.8616 43.2126 46.5303 42.9453 46.1474 42.9775C45.7706 43.017 45.4966 43.354 45.5358 43.7311C45.5358 43.7311 45.7349 45.6523 45.7358 45.6605C45.7734 46.0233 46.1296 46.302 46.4888 46.2721L48.4188 46.0725C48.7956 46.0329 49.0696 45.696 49.0304 45.3195C48.9915 44.943 48.6596 44.6771 48.2774 44.7072L47.9649 44.7396C50.4197 41.8832 51.778 38.2745 51.778 34.4784C51.778 25.7783 44.7001 18.7007 36.0003 18.7007C27.3006 18.7007 20.2227 25.7783 20.2227 34.4784C20.2227 38.826 22.0394 43.021 25.2074 45.9887Z" fill="#FFFF00"/>
<path d="M49.0341 47.5122C47.7593 47.5122 46.6943 48.3899 46.3875 49.5701H37.9319C37.7247 48.989 37.2675 48.5318 36.6863 48.3245V46.1402H38.0583C38.4207 46.1402 38.7205 45.8588 38.7429 45.4971C38.7885 44.7662 39.2196 44.1633 39.8959 43.8826C40.5718 43.6039 41.304 43.7245 41.8523 44.2088C42.1233 44.448 42.5353 44.4359 42.7912 44.1794L45.7016 41.2693C45.9579 41.0134 45.9706 40.602 45.7311 40.3301C45.2468 39.7814 45.1248 39.0499 45.4048 38.3739C45.6849 37.6973 46.2885 37.2666 47.019 37.221C47.3804 37.1982 47.6621 36.8988 47.6621 36.5364V32.4205C47.6621 32.058 47.3804 31.7586 47.019 31.7358C46.2885 31.6903 45.6849 31.2595 45.4049 30.5829C45.1248 29.907 45.2468 29.1754 45.7311 28.6268C45.9706 28.3548 45.9579 27.9435 45.7016 27.6876L42.7912 24.7768C42.5353 24.5209 42.1236 24.5082 41.8523 24.7473C41.3033 25.231 40.5725 25.3529 39.8955 25.0736C39.2193 24.7936 38.7885 24.19 38.7429 23.4598C38.7205 23.098 38.4207 22.8167 38.0583 22.8167H33.9424C33.58 22.8167 33.2802 23.098 33.2577 23.4598C33.2122 24.19 32.7814 24.7936 32.1052 25.0736C31.4282 25.3536 30.6973 25.2317 30.1483 24.7473C29.877 24.5082 29.4654 24.5209 29.2095 24.7768L26.2991 27.6876C26.0428 27.9435 26.0301 28.3548 26.2696 28.6268C26.7539 29.1754 26.8758 29.907 26.5958 30.5829C26.3158 31.2595 25.7122 31.6903 24.9817 31.7358C24.6203 31.7586 24.3386 32.058 24.3386 32.4205V36.5364C24.3386 36.8988 24.6203 37.1982 24.9817 37.221C25.7122 37.2666 26.3158 37.6973 26.5958 38.3739C26.8759 39.0499 26.7539 39.7814 26.2696 40.3301C26.0301 40.602 26.0428 41.0134 26.2991 41.2693L29.2095 44.1794C29.4661 44.4359 29.8774 44.4487 30.1484 44.2088C30.6973 43.7245 31.4296 43.6039 32.1048 43.8826C32.7811 44.1633 33.2122 44.7662 33.2577 45.4971C33.2802 45.8588 33.58 46.1402 33.9424 46.1402H35.3144V48.3245C34.7332 48.5318 34.276 48.989 34.0688 49.5701H25.6132C25.3064 48.3899 24.2414 47.5122 22.9666 47.5122C21.4536 47.5122 20.2227 48.7428 20.2227 50.2561C20.2227 51.7694 21.4536 53 22.9666 53C24.2414 53 25.3064 52.1223 25.6132 50.9421H34.0688C34.3529 51.7389 35.1072 52.3141 36.0003 52.3141C36.8934 52.3141 37.6478 51.7389 37.9319 50.9421H46.3875C46.6943 52.1223 47.7593 53 49.0341 53C50.5471 53 51.778 51.7694 51.778 50.2561C51.778 48.7428 50.5471 47.5122 49.0341 47.5122ZM32.63 42.6151C31.6794 42.2212 30.632 42.2989 29.7692 42.7987L27.6794 40.7092C28.1798 39.8464 28.2569 38.7987 27.8633 37.8487C27.4701 36.8988 26.6745 36.2128 25.7105 35.9562V33.0006C26.6745 32.744 27.4701 32.058 27.8633 31.1081C28.2569 30.1582 28.1798 29.1104 27.6794 28.2469L29.7692 26.1575C30.632 26.6566 31.6801 26.7343 32.6304 26.341C33.58 25.9478 34.2659 25.1526 34.5229 24.1886H37.4778C37.7347 25.1526 38.4207 25.9478 39.3703 26.341C40.3199 26.7343 41.3676 26.6566 42.2315 26.1575L44.3213 28.2469C43.8209 29.1104 43.7438 30.1582 44.1374 31.1081C44.5306 32.058 45.3261 32.744 46.2901 33.0006V35.9562C45.3261 36.2128 44.5306 36.8988 44.1374 37.8487C43.7438 38.7987 43.8209 39.8464 44.3213 40.7092L42.2315 42.7987C41.3676 42.2996 40.3202 42.2212 39.3707 42.6151C38.4211 43.009 37.7347 43.8042 37.4778 44.7682H34.5229C34.2659 43.8042 33.5796 43.009 32.63 42.6151ZM22.9666 51.6281C22.2099 51.6281 21.5946 51.0124 21.5946 50.2561C21.5946 49.4998 22.2099 48.8841 22.9666 48.8841C23.7233 48.8841 24.3386 49.4998 24.3386 50.2561C24.3386 51.0124 23.7233 51.6281 22.9666 51.6281ZM36.0003 50.9421C35.6222 50.9421 35.3144 50.6346 35.3144 50.2561C35.3144 49.8776 35.6222 49.5701 36.0003 49.5701C36.3785 49.5701 36.6863 49.8776 36.6863 50.2561C36.6863 50.6346 36.3785 50.9421 36.0003 50.9421ZM49.0341 51.6281C48.2774 51.6281 47.6621 51.0124 47.6621 50.2561C47.6621 49.4998 48.2774 48.8841 49.0341 48.8841C49.7907 48.8841 50.4061 49.4998 50.4061 50.2561C50.4061 51.0124 49.7907 51.6281 49.0341 51.6281Z" fill="#FFFF00"/>
<path d="M30.5678 36.5363H32.5116L32.6216 36.8002C32.7654 37.1454 33.1746 37.3133 33.5186 37.1693C33.8683 37.024 34.0334 36.622 33.8877 36.2723L32.1727 32.1564C32.0662 31.9012 31.8167 31.7344 31.5397 31.7344C31.2627 31.7344 31.0131 31.9012 30.9066 32.1564L29.1916 36.2723C29.0459 36.622 29.2111 37.024 29.5608 37.1693C29.9121 37.3167 30.3124 37.1499 30.4578 36.8002L30.5678 36.5363ZM31.94 35.1643H31.1394L31.5397 34.2037L31.94 35.1643Z" fill="#FFFF00"/>
<path d="M35.6567 31.7344C35.2779 31.7344 34.9707 32.0412 34.9707 32.4204V36.5363C34.9707 36.9154 35.2779 37.2223 35.6567 37.2223C36.0355 37.2223 36.3427 36.9154 36.3427 36.5363V35.5073H36.8572C37.8975 35.5073 38.7436 34.6612 38.7436 33.6208C38.7436 32.5805 37.8975 31.7344 36.8572 31.7344H35.6567ZM37.3717 33.6208C37.3717 33.9042 37.1409 34.1353 36.8572 34.1353H36.3427V33.1063H36.8572C37.1409 33.1063 37.3717 33.3375 37.3717 33.6208Z" fill="#FFFF00"/>
<path d="M40.4594 31.7344C40.0806 31.7344 39.7734 32.0412 39.7734 32.4204C39.7734 32.7995 40.0806 33.1063 40.4594 33.1063H40.6309V35.8503H40.4594C40.0806 35.8503 39.7734 36.1571 39.7734 36.5363C39.7734 36.9154 40.0806 37.2223 40.4594 37.2223H42.1744C42.5532 37.2223 42.8604 36.9154 42.8604 36.5363C42.8604 36.1571 42.5532 35.8503 42.1744 35.8503H42.0029V33.1063H42.1744C42.5532 33.1063 42.8604 32.7995 42.8604 32.4204C42.8604 32.0412 42.5532 31.7344 42.1744 31.7344H40.4594Z" fill="#FFFF00"/>
</svg>
