<svg width="72" height="72" viewBox="0 0 72 72" fill="none" xmlns="http://www.w3.org/2000/svg">
<rect x="1" y="1.35034" width="70" height="69" rx="34.5" stroke="#FFFF00" stroke-width="2"/>
<path d="M36.6719 22.4128H46.0781V23.7566H36.6719V22.4128Z" fill="#FFFF00"/>
<path d="M36.6719 25.1003H46.0781V26.4441H36.6719V25.1003Z" fill="#FFFF00"/>
<path d="M36.6719 27.7878H46.0781V29.1316H36.6719V27.7878Z" fill="#FFFF00"/>
<path d="M36.6719 30.4753H46.0781V31.8191H36.6719V30.4753Z" fill="#FFFF00"/>
<path d="M25.9219 33.1628H46.0781V34.5066H25.9219V33.1628Z" fill="#FFFF00"/>
<path d="M25.9219 35.8503H46.0781V37.1941H25.9219V35.8503Z" fill="#FFFF00"/>
<path d="M25.9219 38.5378H46.0781V39.8816H25.9219V38.5378Z" fill="#FFFF00"/>
<path d="M35.3281 22.4128H25.9219V31.8191H35.3281V22.4128ZM29.6844 27.116L27.2656 29.5347V24.6972L29.6844 27.116ZM28.2062 23.7566H33.0438L30.625 26.1753L28.2062 23.7566ZM30.625 28.0566L33.0438 30.4753H28.2062L30.625 28.0566ZM31.5656 27.116L33.9844 24.6972V29.5347L31.5656 27.116Z" fill="#FFFF00"/>
<path d="M54.1406 43.9128C53.2672 43.9128 52.5281 44.4503 52.2594 45.2566H46.0781V42.5691H48.7656V15.6941H23.2344V42.5691H25.9219V45.2566H19.7406C19.4719 44.4503 18.7328 43.9128 17.8594 43.9128C16.7172 43.9128 15.8438 44.7863 15.8438 45.9285C15.8438 47.0707 16.7172 47.9441 17.8594 47.9441C18.7328 47.9441 19.4719 47.4066 19.7406 46.6003H27.2656V42.5691H30.625V49.9597H25.9219V48.616H21.8906V52.6472H25.9219V51.3035H31.9688V42.5691H35.3281V51.9753H33.9844V56.0066H38.0156V51.9753H36.6719V42.5691H40.0312V51.3035H46.0781V52.6472H50.1094V48.616H46.0781V49.9597H41.375V42.5691H44.7344V46.6003H52.2594C52.5281 47.4066 53.2672 47.9441 54.1406 47.9441C55.2828 47.9441 56.1562 47.0707 56.1562 45.9285C56.1562 44.7863 55.2828 43.9128 54.1406 43.9128ZM17.8594 46.6003C17.4562 46.6003 17.1875 46.3316 17.1875 45.9285C17.1875 45.5253 17.4562 45.2566 17.8594 45.2566C18.2625 45.2566 18.5312 45.5253 18.5312 45.9285C18.5312 46.3316 18.2625 46.6003 17.8594 46.6003ZM24.5781 51.3035H23.2344V49.9597H24.5781V51.3035ZM36.6719 54.6628H35.3281V53.3191H36.6719V54.6628ZM47.4219 49.9597H48.7656V51.3035H47.4219V49.9597ZM47.4219 19.7253H44.7344V17.0378H47.4219V19.7253ZM43.3906 17.0378V19.7253H24.5781V17.0378H43.3906ZM24.5781 21.0691H47.4219V41.2253H24.5781V21.0691ZM54.1406 46.6003C53.7375 46.6003 53.4688 46.3316 53.4688 45.9285C53.4688 45.5253 53.7375 45.2566 54.1406 45.2566C54.5438 45.2566 54.8125 45.5253 54.8125 45.9285C54.8125 46.3316 54.5438 46.6003 54.1406 46.6003Z" fill="#FFFF00"/>
</svg>
