<svg width="72" height="72" viewBox="0 0 72 72" fill="none" xmlns="http://www.w3.org/2000/svg">
<rect x="1" y="1.35034" width="70" height="69" rx="34.5" stroke="#FFFF00" stroke-width="2"/>
<path d="M53.4485 47.4947H50.3855V43.905C50.3855 43.6335 50.1648 43.4128 49.8933 43.4128H36.4918V40.4531C42.9871 40.1939 48.1911 34.8299 48.1911 28.2723C48.1911 21.5498 42.7221 16.0808 35.9996 16.0808C29.2772 16.0808 23.8082 21.5498 23.8082 28.2723C23.8082 34.8299 29.0122 40.1939 35.5075 40.4531V43.4128H22.106C21.8345 43.4128 21.6138 43.6335 21.6138 43.905V47.4947H18.5508C18.2793 47.4947 18.0586 47.7153 18.0586 47.9869V55.1277C18.0586 55.3992 18.2793 55.6199 18.5508 55.6199H25.6916C25.9631 55.6199 26.1838 55.3992 26.1838 55.1277V47.9869C26.1838 47.7153 25.9631 47.4947 25.6916 47.4947H22.5982V44.3972H35.5075V47.4947H32.4296C32.1581 47.4947 31.9375 47.7153 31.9375 47.9869V55.1277C31.9375 55.3992 32.1581 55.6199 32.4296 55.6199H39.5705C39.842 55.6199 40.0627 55.3992 40.0627 55.1277V47.9869C40.0627 47.7153 39.842 47.4947 39.5705 47.4947H36.4918V44.3972H49.4011V47.4947H46.3077C46.0362 47.4947 45.8155 47.7153 45.8155 47.9869V55.1277C45.8155 55.3992 46.0362 55.6199 46.3077 55.6199H53.4485C53.72 55.6199 53.9407 55.3992 53.9407 55.1277V47.9869C53.9407 47.7145 53.72 47.4947 53.4485 47.4947ZM24.7925 28.2723C24.7925 22.0929 29.8202 17.0652 35.9996 17.0652C42.1791 17.0652 47.2068 22.0929 47.2068 28.2723C47.2068 34.4517 42.1791 39.4794 35.9996 39.4794C29.8202 39.4794 24.7925 34.4517 24.7925 28.2723ZM25.1994 54.6355H19.043V48.4791H25.1994V54.6355ZM39.0775 54.6355H32.921V48.4791H39.0775V54.6355ZM52.9563 54.6355H46.7999V48.4791H52.9563V54.6355ZM36.3475 36.7921L38.1907 34.9488C38.3827 34.7569 38.3827 34.4451 38.1907 34.2532C37.9987 34.0612 37.687 34.0612 37.4951 34.2532L36.4918 35.2556V31.7028C38.171 31.4633 39.4663 30.0163 39.4663 28.2715C39.4663 27.8162 39.3769 27.3814 39.2169 26.9828L42.2939 25.206L41.9264 26.5759C41.8559 26.8384 42.0117 27.1083 42.2742 27.1788C42.3169 27.1903 42.3595 27.196 42.4022 27.196C42.6196 27.196 42.8181 27.0508 42.8771 26.831L43.5514 24.3126C43.5851 24.1863 43.5679 24.0526 43.5022 23.9394C43.4366 23.8262 43.3291 23.7442 43.2036 23.7097L40.6861 23.0354C40.4236 22.9657 40.1537 23.1207 40.0832 23.3832C40.0126 23.6457 40.1685 23.9156 40.431 23.9862L41.8009 24.3528L38.7223 26.1305C38.0873 25.3241 37.103 24.8048 35.9988 24.8048C34.8947 24.8048 33.9103 25.3241 33.2754 26.1305L30.1968 24.3528L31.5667 23.9862C31.8292 23.9156 31.985 23.6457 31.9145 23.3832C31.8439 23.1207 31.5741 22.9649 31.3116 23.0354L28.794 23.7097C28.6677 23.7433 28.5602 23.8262 28.4954 23.9394C28.4306 24.0526 28.4126 24.1871 28.4462 24.3126L29.1205 26.831C29.1796 27.0508 29.3781 27.196 29.5955 27.196C29.6373 27.196 29.6808 27.1903 29.7234 27.1788C29.9859 27.1083 30.1418 26.8384 30.0712 26.5759L29.7037 25.206L32.7807 26.9828C32.62 27.3814 32.5314 27.8162 32.5314 28.2715C32.5314 30.0155 33.8266 31.4625 35.5058 31.7028V35.2556L34.5026 34.2524C34.3106 34.0604 33.9989 34.0604 33.807 34.2524C33.615 34.4443 33.615 34.756 33.807 34.948L35.6502 36.7912C35.7462 36.8872 35.8725 36.9356 35.998 36.9356C36.1235 36.9356 36.2515 36.888 36.3475 36.7921ZM33.5174 28.2723C33.5174 26.904 34.6305 25.79 35.9996 25.79C37.3687 25.79 38.4819 26.9032 38.4819 28.2723C38.4819 29.6414 37.3687 30.7546 35.9996 30.7546C34.6305 30.7546 33.5174 29.6406 33.5174 28.2723Z" fill="#FFFF00"/>
</svg>
