<svg width="72" height="72" viewBox="0 0 72 72" fill="none" xmlns="http://www.w3.org/2000/svg">
<rect x="1" y="1.35034" width="70" height="69" rx="34.5" stroke="#FFFF00" stroke-width="2"/>
<g clip-path="url(#clip0_2078_5132)">
<path d="M32.5263 25.5425C32.4033 25.4195 32.2364 25.3503 32.0624 25.3503C31.8883 25.3503 31.7215 25.4195 31.5984 25.5425L28.3171 28.8237C28.1941 28.9468 28.125 29.1137 28.125 29.2877C28.125 29.4617 28.1941 29.6286 28.3171 29.7517L31.5984 33.0329C31.7222 33.1525 31.8879 33.2186 32.06 33.2171C32.2321 33.2156 32.3967 33.1466 32.5183 33.0249C32.64 32.9033 32.709 32.7387 32.7105 32.5666C32.712 32.3945 32.6459 32.2288 32.5263 32.105L29.709 29.2877L32.5263 26.4704C32.6494 26.3474 32.7185 26.1805 32.7185 26.0065C32.7185 25.8324 32.6494 25.6655 32.5263 25.5425Z" fill="#FFFF00"/>
<path d="M39.4734 33.0331C39.5965 33.1561 39.7633 33.2252 39.9374 33.2252C40.1114 33.2252 40.2783 33.1561 40.4013 33.0331L43.6826 29.7518C43.8056 29.6287 43.8747 29.4618 43.8747 29.2878C43.8747 29.1138 43.8056 28.9469 43.6826 28.8239L40.4013 25.5426C40.2776 25.4231 40.1118 25.3569 39.9397 25.3584C39.7677 25.3599 39.6031 25.4289 39.4814 25.5506C39.3597 25.6723 39.2907 25.8369 39.2892 26.0089C39.2877 26.181 39.3538 26.3468 39.4734 26.4706L42.2907 29.2878L39.4734 32.1051C39.3504 32.2282 39.2812 32.3951 39.2812 32.5691C39.2812 32.7431 39.3504 32.91 39.4734 33.0331Z" fill="#FFFF00"/>
<path d="M34.5285 33.8618C34.6121 33.8828 34.699 33.8871 34.7843 33.8745C34.8695 33.8619 34.9515 33.8325 35.0254 33.7882C35.0993 33.7438 35.1638 33.6853 35.215 33.616C35.2663 33.5467 35.3034 33.468 35.3242 33.3843L37.2929 25.5093C37.3138 25.4257 37.318 25.3388 37.3053 25.2536C37.2926 25.1683 37.2632 25.0864 37.2188 25.0125C37.1293 24.8633 36.984 24.7558 36.8152 24.7136C36.6463 24.6715 36.4676 24.6981 36.3184 24.7877C36.1692 24.8773 36.0616 25.0225 36.0195 25.1914L34.0507 33.0664C34.0087 33.2352 34.0353 33.4138 34.1249 33.563C34.2145 33.7121 34.3597 33.8196 34.5285 33.8618Z" fill="#FFFF00"/>
<path d="M38.625 51.6003C38.451 51.6003 38.284 51.6695 38.161 51.7926C38.0379 51.9156 37.9688 52.0825 37.9688 52.2566V55.5378C37.9688 55.7119 38.0379 55.8788 38.161 56.0019C38.284 56.125 38.451 56.1941 38.625 56.1941C38.799 56.1941 38.966 56.125 39.089 56.0019C39.2121 55.8788 39.2812 55.7119 39.2812 55.5378V52.2566C39.2812 52.0825 39.2121 51.9156 39.089 51.7926C38.966 51.6695 38.799 51.6003 38.625 51.6003Z" fill="#FFFF00"/>
<path d="M36 18.1316C35.826 18.1316 35.659 18.2007 35.536 18.3238C35.4129 18.4469 35.3438 18.6138 35.3438 18.7878C35.3438 18.9619 35.4129 19.1288 35.536 19.2519C35.659 19.375 35.826 19.4441 36 19.4441C38.5002 19.4468 40.9055 20.4019 42.7266 22.1151C44.5476 23.8282 45.6477 26.1708 45.8029 28.6662C45.9582 31.1616 45.157 33.6224 43.5624 35.5481C41.9677 37.4737 39.6994 38.7196 37.2188 39.0323C34.7381 39.3449 32.2316 38.7008 30.209 37.231C28.1864 35.7613 26.7997 33.5762 26.3309 31.1203C25.8622 28.6644 26.3466 26.1222 27.6856 24.0107C29.0246 21.8993 31.1177 20.3773 33.5391 19.7543C33.7077 19.7107 33.8521 19.602 33.9405 19.452C34.029 19.302 34.0543 19.1231 34.0107 18.9544C33.9672 18.7858 33.8585 18.6414 33.7085 18.553C33.5585 18.4645 33.3795 18.4393 33.2109 18.4828C30.8152 19.1003 28.6928 20.4971 27.178 22.4532C25.6632 24.4094 24.8421 26.8138 24.8438 29.2878C24.8438 35.4395 29.8483 40.4441 36 40.4441C42.1517 40.4441 47.1563 35.4395 47.1563 29.2878C47.1563 23.1362 42.1517 18.1316 36 18.1316Z" fill="#FFFF00"/>
<path d="M55.6875 20.7566H50.4375C50.2635 20.7566 50.0966 20.8258 49.9735 20.9488L48.1423 22.78C47.0238 20.6895 45.3843 18.9231 43.3827 17.6521C41.3811 16.3811 39.0853 15.6485 36.7174 15.5252C34.3496 15.4019 31.9901 15.8921 29.8673 16.9484C27.7446 18.0046 25.9305 19.5911 24.6009 21.5542L23.339 20.2926C23.2159 20.1695 23.049 20.1004 22.875 20.1003H16.3125C16.1385 20.1003 15.9715 20.1695 15.8485 20.2925C15.7254 20.4156 15.6562 20.5825 15.6562 20.7566C15.6562 20.9306 15.7254 21.0975 15.8485 21.2206C15.9715 21.3437 16.1385 21.4128 16.3125 21.4128H22.6033L23.896 22.7053C22.602 25.0769 22.0364 27.7776 22.2703 30.4692C22.5041 33.1608 23.527 35.7235 25.2107 37.8364L22.6033 40.4441H16.3125C16.1385 40.4441 15.9715 40.5132 15.8485 40.6363C15.7254 40.7593 15.6562 40.9263 15.6562 41.1003C15.6562 41.2744 15.7254 41.4413 15.8485 41.5644C15.9715 41.6874 16.1385 41.7566 16.3125 41.7566H22.875C23.049 41.7565 23.2159 41.6874 23.339 41.5643L26.0765 38.8265C27.3969 40.2036 28.9882 41.2924 30.75 42.0244V43.0691C30.7517 43.6495 30.9459 44.2129 31.3022 44.671C31.6585 45.1292 32.1567 45.4562 32.7188 45.6009V55.5378C32.7188 55.7119 32.7879 55.8788 32.911 56.0019C33.034 56.1249 33.201 56.1941 33.375 56.1941C33.549 56.1941 33.716 56.1249 33.839 56.0019C33.9621 55.8788 34.0312 55.7119 34.0312 55.5378V45.6941H37.9688V49.6316C37.9688 49.8056 38.0379 49.9725 38.161 50.0956C38.284 50.2187 38.451 50.2878 38.625 50.2878C38.799 50.2878 38.966 50.2187 39.089 50.0956C39.2121 49.9725 39.2812 49.8056 39.2812 49.6316V45.6009C39.8433 45.4562 40.3415 45.1292 40.6978 44.671C41.0541 44.2129 41.2483 43.6495 41.25 43.0691V42.0244C46.2513 39.9551 49.7812 35.0279 49.7812 29.2878C49.7816 27.4872 49.427 25.7041 48.7376 24.0407L50.7092 22.0691H55.6875C55.8615 22.0691 56.0285 21.9999 56.1515 21.8769C56.2746 21.7538 56.3438 21.5869 56.3438 21.4128C56.3438 21.2388 56.2746 21.0718 56.1515 20.9488C56.0285 20.8257 55.8615 20.7566 55.6875 20.7566ZM39.9375 43.0691C39.9371 43.417 39.7987 43.7506 39.5526 43.9967C39.3066 44.2427 38.973 44.3812 38.625 44.3816H33.375C33.027 44.3812 32.6934 44.2427 32.4474 43.9967C32.2013 43.7506 32.0629 43.417 32.0625 43.0691V42.4887C34.6305 43.2625 37.3695 43.2625 39.9375 42.4887V43.0691ZM36 41.7566C29.1248 41.7566 23.5312 36.163 23.5312 29.2878C23.5312 22.4126 29.1248 16.8191 36 16.8191C42.8752 16.8191 48.4688 22.4126 48.4688 29.2878C48.4688 36.163 42.8752 41.7566 36 41.7566Z" fill="#FFFF00"/>
<path d="M50.4375 19.4441H55.6875C55.8615 19.4441 56.0285 19.375 56.1515 19.2519C56.2746 19.1288 56.3438 18.9619 56.3438 18.7878C56.3438 18.6138 56.2746 18.4469 56.1515 18.3238C56.0285 18.2007 55.8615 18.1316 55.6875 18.1316H50.4375C50.2635 18.1316 50.0965 18.2007 49.9735 18.3238C49.8504 18.4469 49.7812 18.6138 49.7812 18.7878C49.7812 18.9619 49.8504 19.1288 49.9735 19.2519C50.0965 19.375 50.2635 19.4441 50.4375 19.4441Z" fill="#FFFF00"/>
<path d="M16.3125 39.1316H21.5625C21.7365 39.1316 21.9035 39.0625 22.0265 38.9394C22.1496 38.8163 22.2188 38.6494 22.2188 38.4753C22.2188 38.3013 22.1496 38.1344 22.0265 38.0113C21.9035 37.8882 21.7365 37.8191 21.5625 37.8191H16.3125C16.1385 37.8191 15.9715 37.8882 15.8485 38.0113C15.7254 38.1344 15.6562 38.3013 15.6562 38.4753C15.6562 38.6494 15.7254 38.8163 15.8485 38.9394C15.9715 39.0625 16.1385 39.1316 16.3125 39.1316Z" fill="#FFFF00"/>
<path d="M44.5312 47.0066H45.8438C46.0178 47.0066 46.1847 46.9375 46.3078 46.8144C46.4309 46.6913 46.5 46.5244 46.5 46.3503C46.5 46.1763 46.4309 46.0094 46.3078 45.8863C46.1847 45.7632 46.0178 45.6941 45.8438 45.6941H44.5312C44.3572 45.6941 44.1903 45.7632 44.0672 45.8863C43.9441 46.0094 43.875 46.1763 43.875 46.3503C43.875 46.5244 43.9441 46.6913 44.0672 46.8144C44.1903 46.9375 44.3572 47.0066 44.5312 47.0066Z" fill="#FFFF00"/>
<path d="M55.6875 45.6941H48.4688C48.2947 45.6941 48.1278 45.7632 48.0047 45.8863C47.8816 46.0094 47.8125 46.1763 47.8125 46.3503C47.8125 46.5244 47.8816 46.6913 48.0047 46.8144C48.1278 46.9375 48.2947 47.0066 48.4688 47.0066H55.6875C55.8615 47.0066 56.0285 46.9375 56.1515 46.8144C56.2746 46.6913 56.3438 46.5244 56.3438 46.3503C56.3438 46.1763 56.2746 46.0094 56.1515 45.8863C56.0285 45.7632 55.8615 45.6941 55.6875 45.6941Z" fill="#FFFF00"/>
<path d="M55.6875 48.3191H44.5312C44.3572 48.3191 44.1903 48.3882 44.0672 48.5113C43.9441 48.6344 43.875 48.8013 43.875 48.9753C43.875 49.1494 43.9441 49.3163 44.0672 49.4394C44.1903 49.5625 44.3572 49.6316 44.5312 49.6316H55.6875C55.8615 49.6316 56.0285 49.5625 56.1515 49.4394C56.2746 49.3163 56.3438 49.1494 56.3438 48.9753C56.3438 48.8013 56.2746 48.6344 56.1515 48.5113C56.0285 48.3882 55.8615 48.3191 55.6875 48.3191Z" fill="#FFFF00"/>
<path d="M44.5312 52.2566H45.8438C46.0178 52.2566 46.1847 52.1875 46.3078 52.0644C46.4309 51.9413 46.5 51.7744 46.5 51.6003C46.5 51.4263 46.4309 51.2594 46.3078 51.1363C46.1847 51.0132 46.0178 50.9441 45.8438 50.9441H44.5312C44.3572 50.9441 44.1903 51.0132 44.0672 51.1363C43.9441 51.2594 43.875 51.4263 43.875 51.6003C43.875 51.7744 43.9441 51.9413 44.0672 52.0644C44.1903 52.1875 44.3572 52.2566 44.5312 52.2566Z" fill="#FFFF00"/>
<path d="M55.6875 50.9441H48.4688C48.2947 50.9441 48.1278 51.0132 48.0047 51.1363C47.8816 51.2594 47.8125 51.4263 47.8125 51.6003C47.8125 51.7744 47.8816 51.9413 48.0047 52.0644C48.1278 52.1875 48.2947 52.2566 48.4688 52.2566H55.6875C55.8615 52.2566 56.0285 52.1875 56.1515 52.0644C56.2746 51.9413 56.3438 51.7744 56.3438 51.6003C56.3438 51.4263 56.2746 51.2594 56.1515 51.1363C56.0285 51.0132 55.8615 50.9441 55.6875 50.9441Z" fill="#FFFF00"/>
<path d="M55.6875 53.5691H44.5312C44.3572 53.5691 44.1903 53.6382 44.0672 53.7613C43.9441 53.8844 43.875 54.0513 43.875 54.2253C43.875 54.3994 43.9441 54.5663 44.0672 54.6894C44.1903 54.8125 44.3572 54.8816 44.5312 54.8816H55.6875C55.8615 54.8816 56.0285 54.8125 56.1515 54.6894C56.2746 54.5663 56.3438 54.3994 56.3438 54.2253C56.3438 54.0513 56.2746 53.8844 56.1515 53.7613C56.0285 53.6382 55.8615 53.5691 55.6875 53.5691Z" fill="#FFFF00"/>
<path d="M16.3125 18.7878H22.875C23.049 18.7878 23.216 18.7187 23.339 18.5956C23.4621 18.4726 23.5312 18.3056 23.5312 18.1316C23.5312 17.9575 23.4621 17.7906 23.339 17.6676C23.216 17.5445 23.049 17.4753 22.875 17.4753H16.3125C16.1385 17.4753 15.9715 17.5445 15.8485 17.6676C15.7254 17.7906 15.6562 17.9575 15.6562 18.1316C15.6562 18.3056 15.7254 18.4726 15.8485 18.5956C15.9715 18.7187 16.1385 18.7878 16.3125 18.7878Z" fill="#FFFF00"/>
</g>
<defs>
<clipPath id="clip0_2078_5132">
<rect width="42" height="42" fill="white" transform="translate(15 14.8503)"/>
</clipPath>
</defs>
</svg>
