<svg width="72" height="72" viewBox="0 0 72 72" fill="none" xmlns="http://www.w3.org/2000/svg">
<rect x="1" y="1.35034" width="70" height="69" rx="34.5" stroke="#FFFF00" stroke-width="2"/>
<g clip-path="url(#clip0_2083_12267)">
<path d="M14.7645 35.396C14.7617 35.4864 14.7596 36.0178 14.7594 36.077C14.7411 37.7324 14.8551 37.9126 16.2885 38.4843L16.4976 38.5679C17.1982 38.8499 17.3794 39.2733 17.0923 39.9662C16.949 40.3178 16.8513 40.5599 16.7598 40.7665C16.4862 41.3825 16.6071 41.9811 17.1018 42.4511C17.2004 42.5451 17.2802 42.6268 17.5338 42.8859C18.6518 44.0245 18.8564 44.0695 20.2784 43.4611C20.3641 43.4343 20.9244 43.121 21.3382 43.2888C21.6903 43.4326 21.8808 43.8866 22.0026 44.2354C22.0831 44.4673 22.1749 44.7295 22.3561 44.9566C22.574 45.2312 22.9059 45.4725 23.2897 45.6362C23.6135 45.7743 23.9531 45.7027 24.1689 45.7027C25.8684 45.7037 26.0388 45.5795 26.6779 44.0299C27.3171 42.4803 28.2651 43.671 29.4782 43.8319C29.6018 43.8478 29.9837 43.9007 30.728 43.247C31.1999 42.8321 31.9986 41.9443 31.9967 41.2482V41.1529C31.5672 40.1776 31.3777 39.8719 31.4944 39.1532C31.5508 38.8083 31.7839 38.6841 32.3445 38.4634L32.4838 38.4079C33.6873 37.9227 33.84 37.6969 33.847 36.3953L33.8482 36.1821C33.8609 34.6011 33.7424 34.4259 32.2678 33.8375L32.0816 33.7631C31.4558 33.5118 31.2573 32.9889 31.5147 32.3686L31.7833 31.7285C32.1424 30.8636 32.0626 30.4481 31.4108 29.7953L31.0827 29.4678C29.9476 28.3337 29.7348 28.2938 28.2405 28.9203C26.0936 29.8187 27.0999 26.7125 25.0747 26.6491C24.8931 26.6435 24.583 26.6451 24.4096 26.6456C22.7564 26.6456 22.5721 26.7688 21.9374 28.2951C21.0491 30.4258 19.6024 27.5058 18.1229 28.875C18.0379 28.9534 17.6741 29.3155 17.6092 29.3801C16.4393 30.5231 16.393 30.7293 16.9935 32.1368L17.0797 32.3398C17.2311 32.6973 17.2608 32.9932 17.1677 33.2183C16.797 34.1135 14.8175 33.7721 14.7645 35.396ZM17.9753 31.9604C17.4446 30.7559 17.4636 30.882 18.5492 29.8191C19.0308 29.3316 18.9241 29.3635 20.0244 29.8343C21.3236 30.3686 22.2959 29.9663 22.8356 28.6685C23.2904 27.5744 23.2685 27.6186 24.5813 27.6179C24.7339 27.6179 24.8891 27.6164 25.0437 27.6214C25.2527 27.6281 25.3648 27.7022 25.4434 27.8865C25.5523 28.1396 25.6575 28.3939 25.7626 28.6488C26.286 29.9148 27.2564 30.387 28.6168 29.8178C29.7277 29.3521 29.6166 29.3775 30.7223 30.4829C31.1734 30.9348 31.0951 30.8245 30.6165 31.9955C30.1475 33.1256 30.5959 34.2154 31.7193 34.6663L31.9074 34.7414C32.8835 35.1306 32.8835 35.1306 32.8753 36.1745C32.8715 37.2574 32.9243 37.1812 31.9872 37.5582C31.4374 37.7748 30.6843 38.0716 30.5342 38.9977C30.3765 39.9708 30.624 40.4284 31.0124 41.3217C30.8965 41.7489 29.9305 42.7985 29.6062 42.8672C29.3437 42.8327 29.0984 42.7257 28.5509 42.4932C27.286 41.9811 26.3004 42.3931 25.7784 43.6596C25.3509 44.6959 25.3369 44.7298 24.281 44.7298C24.1708 44.7289 24.0524 44.7317 23.9333 44.7403C23.8446 44.746 23.7116 44.7548 23.671 44.7412C22.9769 44.4449 23.0204 44.121 22.8134 43.6251C22.4028 42.6376 21.7516 42.2664 21.0671 42.2664C20.4911 42.2664 19.9913 42.5333 19.8965 42.5664C18.9265 42.9826 18.9818 42.9725 18.0767 42.0498C17.7021 41.6682 17.4732 41.5583 17.6491 41.1608C17.7477 40.9385 17.8427 40.7031 17.9918 40.3383C18.4862 39.1424 18.0676 38.1505 16.8605 37.6653C15.7146 37.2078 15.7189 37.2776 15.7324 36.0877C15.7325 36.0225 15.7346 35.5085 15.7374 35.4264C15.7438 35.2218 15.8198 35.1104 16.0086 35.029C16.2672 34.9171 16.5633 34.7966 16.8554 34.6777C18.0757 34.1802 18.4928 33.1838 17.9753 31.9604Z" fill="#FFFF00"/>
<path d="M24.3045 40.4743C26.6703 40.4743 28.5953 38.5493 28.5953 36.1832C28.5953 33.8171 26.6703 31.8921 24.3045 31.8921C21.9386 31.8921 20.0137 33.8171 20.0137 36.1832C20.0137 38.5493 21.9386 40.4743 24.3045 40.4743ZM24.3045 32.865C26.1338 32.865 27.6223 34.3536 27.6223 36.1832C27.6223 38.0128 26.1338 39.5014 24.3045 39.5014C22.4751 39.5014 20.9866 38.0128 20.9866 36.1832C20.9866 34.3536 22.4751 32.865 24.3045 32.865Z" fill="#FFFF00"/>
<path d="M54.1308 32.3113C54.1308 30.3562 52.5403 28.7654 50.585 28.7654C48.6296 28.7654 47.0391 30.3562 47.0391 32.3113C47.0391 34.2663 48.6296 35.8572 50.585 35.8572C52.5403 35.8572 54.1308 34.2663 54.1308 32.3113ZM50.585 34.8842C49.1661 34.8842 48.012 33.7301 48.012 32.3113C48.012 30.8924 49.1661 29.7383 50.585 29.7383C52.0038 29.7383 53.1579 30.8924 53.1579 32.3113C53.1579 33.7301 52.0038 34.8842 50.585 34.8842Z" fill="#FFFF00"/>
<path d="M51.5221 31.3127L50.069 32.7202L49.6592 32.2999C49.4704 32.108 49.1632 32.1039 48.9707 32.2917C48.7787 32.4795 48.7749 32.7873 48.9624 32.9796L49.6807 33.715C49.879 33.9167 50.216 33.9331 50.4307 33.7245L52.1986 32.0114C52.3918 31.8245 52.3968 31.5164 52.21 31.3235C52.0225 31.1303 51.7146 31.1259 51.5221 31.3127Z" fill="#FFFF00"/>
<path d="M36.4416 19.5664C35.8246 19.5664 35.2343 19.7957 34.7795 20.2115L28.7392 25.7295C28.4096 26.0307 28.6278 26.5752 29.0673 26.5752C29.427 26.5752 29.1574 26.5996 35.4357 20.9295C35.7112 20.678 36.0685 20.5393 36.4416 20.5393H42.5205C42.7454 21.6033 43.6907 22.4047 44.8205 22.4047C46.1171 22.4047 47.1723 21.3497 47.1723 20.0528C47.1723 18.7559 46.1171 17.7009 44.8205 17.7009C43.6907 17.7009 42.7454 18.5023 42.5205 19.5664H36.4416ZM44.8205 18.6739C45.5806 18.6739 46.1994 19.2924 46.1994 20.0528C46.1994 20.8132 45.5806 21.4318 44.8205 21.4318C44.0603 21.4318 43.4415 20.8132 43.4415 20.0528C43.4415 19.2924 44.0603 18.6739 44.8205 18.6739Z" fill="#FFFF00"/>
<path d="M29.3946 45.2534C29.197 45.0725 28.8879 45.0861 28.7073 45.2844C28.5262 45.4827 28.5401 45.7905 28.7384 45.9717L34.7787 51.4894C35.2328 51.9055 35.8238 52.1345 36.4408 52.1345H42.5197C42.7447 53.1986 43.6899 54 44.8197 54C46.1163 54 47.1716 52.945 47.1716 51.6481C47.1716 50.3511 46.1163 49.2962 44.8197 49.2962C43.6899 49.2962 42.7447 50.0976 42.5197 51.1616H36.4408C36.0671 51.1616 35.7098 51.0232 35.4349 50.7714L29.3946 45.2534ZM44.8197 50.2691C45.5798 50.2691 46.1986 50.8876 46.1986 51.6481C46.1986 52.4085 45.5798 53.027 44.8197 53.027C44.0596 53.027 43.4407 52.4085 43.4407 51.6481C43.4407 50.8876 44.0596 50.2691 44.8197 50.2691Z" fill="#FFFF00"/>
<path d="M36.0626 34.5515H41.9421C42.2106 34.5515 42.4285 34.3337 42.4285 34.0651C42.4285 33.7965 42.2106 33.5786 41.9421 33.5786H36.0626C35.7941 33.5786 35.5762 33.7965 35.5762 34.0651C35.5762 34.3337 35.7941 34.5515 36.0626 34.5515Z" fill="#FFFF00"/>
<path d="M36.0626 40.1856H41.9421C42.2106 40.1856 42.4285 39.9677 42.4285 39.6991C42.4285 39.4305 42.2106 39.2126 41.9421 39.2126H36.0626C35.7941 39.2126 35.5762 39.4305 35.5762 39.6991C35.5762 39.9677 35.7941 40.1856 36.0626 40.1856Z" fill="#FFFF00"/>
<path d="M23.8101 35.2942C24.4269 34.9631 25.1708 35.1144 24.7716 35.6917C24.6523 35.8654 24.5236 35.9399 24.3979 36.1516C24.1789 36.5175 24.135 37.1039 24.5639 37.1039C24.7313 37.1039 24.8543 37.0333 24.8901 36.8724C24.9992 36.3812 25.4225 36.2959 25.7211 35.9232C26.0291 35.5357 25.9983 35.0332 25.7743 34.7276C25.3228 34.1126 24.2611 34.1145 23.5434 34.4635C22.9018 34.7744 23.2398 35.5992 23.8101 35.2942Z" fill="#FFFF00"/>
<path d="M23.9648 37.9346C23.9648 38.6931 25.1215 38.7431 25.1215 37.9346C25.1215 37.1476 23.9648 37.1959 23.9648 37.9346Z" fill="#FFFF00"/>
<path d="M53.7 42.0369H47.4728C47.2042 42.0369 46.9863 42.2548 46.9863 42.5233C46.9863 42.7919 47.2042 43.0098 47.4728 43.0098H53.7C53.9685 43.0098 54.1864 42.7919 54.1864 42.5233C54.1864 42.2548 53.9685 42.0369 53.7 42.0369Z" fill="#FFFF00"/>
<path d="M49.2719 25.569C44.4022 26.6067 42.3183 32.2517 45.3403 36.2115C45.9179 36.9682 46.4655 37.8209 47.0182 38.5912C47.2114 38.8614 47.2868 39.1268 47.262 39.452C47.2257 39.9398 47.2532 40.3578 47.2532 40.8326C47.2532 41.1012 47.4711 41.3191 47.7396 41.3191C48.0082 41.3191 48.2261 41.1012 48.2261 40.8326C48.2261 40.336 48.1999 39.9671 48.2325 39.5249C48.2743 38.9716 48.1355 38.481 47.8087 38.0246C47.2428 37.2339 46.7069 36.3979 46.1137 35.6211C44.8962 34.0262 44.577 31.9723 45.2598 30.1275C46.5196 26.7209 50.7578 25.2173 53.9079 27.4975C56.4249 29.3189 57.1125 32.8082 55.0975 35.5736C54.4467 36.4665 53.8051 37.4293 53.1307 38.4357C52.8845 38.8033 52.9071 39.1435 52.9128 40.3601L52.9141 40.8326C52.9141 41.1012 53.132 41.3191 53.4005 41.3191C53.6691 41.3191 53.887 41.1012 53.887 40.8326C53.8748 39.2289 53.8843 39.0579 53.9389 38.9779C54.5759 38.0276 55.2212 37.0567 55.8842 36.1465C56.9464 34.6881 57.3885 33.0627 57.1992 31.3161C56.784 27.5055 53.0165 24.7705 49.2719 25.569Z" fill="#FFFF00"/>
<path d="M50.5857 47.8495C52.2288 47.8495 53.566 46.5127 53.566 44.8693C53.566 44.5685 53.3355 44.3647 53.0776 44.3647H48.0932C47.8246 44.3647 47.6055 44.6007 47.6055 44.8693C47.6055 46.5127 48.9426 47.8495 50.5857 47.8495ZM52.5379 45.3377C52.3264 46.2194 51.5314 46.8766 50.5857 46.8766C49.6305 46.8766 48.8286 46.2055 48.6259 45.3377H52.5379Z" fill="#FFFF00"/>
</g>
<defs>
<clipPath id="clip0_2083_12267">
<rect width="42" height="42" fill="white" transform="translate(15 14.8503)"/>
</clipPath>
</defs>
</svg>
