<svg width="72" height="72" viewBox="0 0 72 72" fill="none" xmlns="http://www.w3.org/2000/svg">
<rect x="1" y="1.35034" width="70" height="69" rx="34.5" stroke="#FFFF00" stroke-width="2"/>
<path d="M34.6995 30.246C37.4558 31.1446 40.2298 31.5942 43.0057 31.5942C45.7809 31.5942 48.5568 31.1446 51.3125 30.246C52.372 29.9006 53.0842 28.9297 53.0842 27.8284V19.4444C53.0842 18.8247 52.8158 18.246 52.3472 17.8557C46.1484 12.711 39.8629 12.711 33.6641 17.8557C33.1962 18.2447 32.9277 18.824 32.9277 19.4444V27.8284C32.9277 28.9297 33.64 29.9013 34.6995 30.246ZM45.3293 15.25V16.0396C45.3293 17.3207 44.2867 18.3627 43.0057 18.3627C41.7246 18.3627 40.6826 17.3207 40.6826 16.0396V15.2496C42.2717 14.8915 43.7382 14.8911 45.3293 15.25ZM33.9286 19.4444C33.9286 19.1271 34.0687 18.8208 34.304 18.6259C36.109 17.1274 37.8982 16.0946 39.6818 15.5202V16.0396C39.6818 17.8727 41.1727 19.3636 43.0057 19.3636C44.8387 19.3636 46.3302 17.8727 46.3302 16.0396V15.5207C48.1137 16.0953 49.9033 17.1278 51.708 18.6253C51.9432 18.8214 52.0833 19.1277 52.0833 19.4444V27.8284C52.0833 28.495 51.6487 29.0841 51.0023 29.2946C45.6955 31.024 40.3151 31.024 35.0097 29.2946C34.3632 29.0841 33.9286 28.495 33.9286 27.8284V19.4444Z" fill="#FFFF00"/>
<path d="M37.2244 26.9873H48.7926C49.4794 26.9873 50.0378 26.4288 50.0378 25.742V22.3593C50.0378 21.6725 49.4794 21.1134 48.7926 21.1134H37.2244C36.5376 21.1134 35.9785 21.6725 35.9785 22.3593V25.742C35.9785 26.4288 36.5376 26.9873 37.2244 26.9873ZM36.9794 22.3593C36.9794 22.2244 37.0895 22.1143 37.2244 22.1143H48.7926C48.9275 22.1143 49.0369 22.2244 49.0369 22.3593V25.742C49.0369 25.8769 48.9275 25.9864 48.7926 25.9864H37.2244C37.0895 25.9864 36.9794 25.8769 36.9794 25.742V22.3593Z" fill="#FFFF00"/>
<path d="M40.1476 25.0338C40.6908 25.0338 41.1311 24.5934 41.1311 24.0502C41.1311 23.507 40.6908 23.0667 40.1476 23.0667C39.6044 23.0667 39.1641 23.507 39.1641 24.0502C39.1641 24.5934 39.6044 25.0338 40.1476 25.0338Z" fill="#FFFF00"/>
<path d="M45.8644 25.0338C46.4076 25.0338 46.8479 24.5934 46.8479 24.0502C46.8479 23.507 46.4076 23.0667 45.8644 23.0667C45.3212 23.0667 44.8809 23.507 44.8809 24.0502C44.8809 24.5934 45.3212 25.0338 45.8644 25.0338Z" fill="#FFFF00"/>
<path d="M31.4317 21.7701C31.708 21.7701 31.9321 21.5459 31.9321 21.2696C31.9321 20.9933 31.708 20.7692 31.4317 20.7692C30.6048 20.7692 29.9316 21.4423 29.9316 22.2692V24.7044C29.9316 25.5313 30.6048 26.2045 31.4317 26.2045C31.708 26.2045 31.9321 25.9803 31.9321 25.704C31.9321 25.4277 31.708 25.2036 31.4317 25.2036C31.1567 25.2036 30.9325 24.9794 30.9325 24.7044V22.2692C30.9325 21.9942 31.1567 21.7701 31.4317 21.7701Z" fill="#FFFF00"/>
<path d="M55.9985 22.2692C55.9985 21.4423 55.3254 20.7692 54.4985 20.7692C54.2222 20.7692 53.998 20.9933 53.998 21.2696C53.998 21.5459 54.2222 21.7701 54.4985 21.7701C54.7735 21.7701 54.9976 21.9942 54.9976 22.2692V24.7044C54.9976 24.9794 54.7735 25.2036 54.4985 25.2036C54.2222 25.2036 53.998 25.4277 53.998 25.704C53.998 25.9803 54.2222 26.2045 54.4985 26.2045C55.3254 26.2045 55.9985 25.5313 55.9985 24.7044V22.2692Z" fill="#FFFF00"/>
<path d="M30.7582 42.435L31.4795 56.1689C31.5251 57.0297 32.2348 57.7035 33.0962 57.7035H53.1595C54.0209 57.7035 54.7306 57.0297 54.7762 56.1689L55.4975 42.4356C55.5467 41.5102 54.8081 40.731 53.8809 40.731H32.3749C31.4534 40.731 30.7087 41.5048 30.7582 42.435ZM32.3749 41.7319H53.8809C54.2348 41.7319 54.5168 42.0285 54.4979 42.3829L53.7766 56.1168C53.7596 56.4452 53.4886 56.7026 53.1595 56.7026H33.0962C32.7671 56.7026 32.4961 56.4452 32.4791 56.1168L31.7578 42.3822C31.739 42.0315 32.0181 41.7319 32.3749 41.7319Z" fill="#FFFF00"/>
<path d="M43.1316 49.786C45.2787 49.786 46.8979 48.9206 46.8979 47.7737C46.8979 46.6223 45.2787 45.7537 43.1316 45.7537C40.98 45.7537 39.3574 46.6223 39.3574 47.7737C39.3574 48.9206 40.98 49.786 43.1316 49.786ZM43.1316 46.7546C44.7939 46.7546 45.8971 47.3678 45.8971 47.7737C45.8971 48.1765 44.7939 48.7851 43.1316 48.7851C41.4641 48.7851 40.3583 48.1765 40.3583 47.7737C40.3583 47.3678 41.4641 46.7546 43.1316 46.7546Z" fill="#FFFF00"/>
<path d="M32.4433 39.6993C32.7131 39.7573 32.9803 39.5885 33.0402 39.3187C33.4683 37.3853 35.2173 35.9823 37.1995 35.9823H48.8094C50.8163 35.9823 52.5705 37.4068 52.9797 39.3695C53.0369 39.6422 53.3036 39.813 53.572 39.7573C53.8424 39.7006 54.0158 39.4354 53.9597 39.1649C53.4541 36.7408 51.2881 34.9814 48.8094 34.9814H46.7809C46.8432 34.8979 46.8871 34.7996 46.8871 34.6875V32.9568C46.8871 32.6805 46.6629 32.4563 46.3866 32.4563C46.1103 32.4563 45.8862 32.6805 45.8862 32.9568V34.6875C45.8862 34.7996 45.9301 34.8979 45.9924 34.9814H40.4941C40.5564 34.8979 40.6003 34.7996 40.6003 34.6875V32.9568C40.6003 32.6805 40.3761 32.4563 40.0998 32.4563C39.8235 32.4563 39.5994 32.6805 39.5994 32.9568V34.6875C39.5994 34.7996 39.6432 34.8979 39.7056 34.9814H37.1995C34.752 34.9814 32.5919 36.7148 32.0628 39.1024C32.0028 39.3721 32.1735 39.6393 32.4433 39.6993Z" fill="#FFFF00"/>
<path d="M40.3422 37.7869C40.066 37.7869 39.8418 38.011 39.8418 38.2873C39.8418 38.5636 40.066 38.7878 40.3422 38.7878H46.2544C46.5307 38.7878 46.7548 38.5636 46.7548 38.2873C46.7548 38.011 46.5307 37.7869 46.2544 37.7869H40.3422Z" fill="#FFFF00"/>
<path d="M23.6181 25.4819C21.6711 25.392 19.8198 25.8899 18.3928 26.8667C15.3512 28.9474 15.1819 32.6098 18.0422 34.9568C19.761 36.3658 22.3861 37.1218 25.1046 36.6535C26.3435 38.6208 28.5035 38.8646 29.4859 38.8646C29.7746 38.8646 29.961 38.8438 29.9929 38.8405C30.4542 38.7841 30.5961 38.1828 30.2099 37.9263C29.1374 37.2137 28.8456 35.7781 28.7665 35.0796C29.9731 34.1015 30.673 32.826 30.7325 31.4535C30.8674 28.3368 27.6758 25.6579 23.6181 25.4819ZM27.9468 34.4583C27.8213 34.5508 27.7366 34.7591 27.7455 34.8929C27.7761 35.3712 27.9299 36.709 28.6871 37.7992C27.7579 37.6539 26.5087 37.2017 25.8043 35.8717C25.7106 35.6944 25.4524 35.5774 25.2556 35.6169C23.079 36.0897 20.4515 35.6382 18.6769 34.1826C14.866 31.0573 17.9678 26.263 23.5751 26.4815C27.0815 26.634 29.8437 28.845 29.7329 31.4105C29.6827 32.56 29.0487 33.6424 27.9468 34.4583Z" fill="#FFFF00"/>
<path d="M19.5349 30.1671C19.0335 30.1671 18.627 30.5737 18.627 31.0751C18.627 31.5766 19.0335 31.9831 19.5349 31.9831C20.0364 31.9831 20.4429 31.5766 20.4429 31.0751C20.4429 30.5737 20.0364 30.1671 19.5349 30.1671Z" fill="#FFFF00"/>
<path d="M23.4275 30.1671C22.9261 30.1671 22.5195 30.5737 22.5195 31.0751C22.5195 31.5766 22.9261 31.9831 23.4275 31.9831C23.9289 31.9831 24.3355 31.5766 24.3355 31.0751C24.3355 30.5737 23.9289 30.1671 23.4275 30.1671Z" fill="#FFFF00"/>
<path d="M26.7595 30.1671C26.258 30.1671 25.8516 30.5737 25.8516 31.0751C25.8516 31.5766 26.258 31.9831 26.7595 31.9831C27.261 31.9831 27.6675 31.5766 27.6675 31.0751C27.6675 30.5737 27.261 30.1671 26.7595 30.1671Z" fill="#FFFF00"/>
<path d="M39.7817 52.3671H46.2887C46.565 52.3671 46.7892 52.143 46.7892 51.8667C46.7892 51.5904 46.565 51.3662 46.2887 51.3662H39.7817C39.5054 51.3662 39.2812 51.5904 39.2812 51.8667C39.2812 52.143 39.5054 52.3671 39.7817 52.3671Z" fill="#FFFF00"/>
</svg>
