<svg width="371" height="285" viewBox="0 0 371 285" fill="none" xmlns="http://www.w3.org/2000/svg">
<g filter="url(#filter0_d_2094_13639)">
<path d="M26.5 26.3503C26.5 20.8275 30.9772 16.3503 36.5 16.3503H334.5C340.023 16.3503 344.5 20.8275 344.5 26.3503V238.35C344.5 243.873 340.023 248.35 334.5 248.35H36.5C30.9771 248.35 26.5 243.873 26.5 238.35V26.3503Z" fill="url(#paint0_linear_2094_13639)" fill-opacity="0.6" shape-rendering="crispEdges"/>
<path d="M36.5 16.8503H334.5C339.747 16.8503 344 21.1036 344 26.3503V238.35C344 243.597 339.747 247.85 334.5 247.85H36.5C31.2533 247.85 27 243.597 27 238.35V26.3503L27.0127 25.8611C27.2673 20.8418 31.4174 16.8503 36.5 16.8503Z" stroke="url(#paint1_linear_2094_13639)" shape-rendering="crispEdges"/>
<path fill-rule="evenodd" clip-rule="evenodd" d="M89.2307 80.2671C88.8796 79.916 88.4324 79.6769 87.9454 79.58C87.4585 79.4832 86.9538 79.5329 86.4951 79.7229C86.0364 79.9128 85.6444 80.2346 85.3685 80.6474C85.0927 81.0602 84.9455 81.5455 84.9455 82.042C84.9455 82.5384 85.0927 83.0237 85.3685 83.4365C85.6444 83.8493 86.0364 84.1711 86.4951 84.3611C86.9538 84.551 87.4585 84.6007 87.9454 84.5039C88.4324 84.407 88.8796 84.1679 89.2307 83.8168C89.7014 83.3461 89.9658 82.7076 89.9658 82.042C89.9658 81.3763 89.7014 80.7378 89.2307 80.2671ZM56.8355 79.4683C56.8358 79.9629 56.6836 80.4457 56.3995 80.8507H75.7932V68.5821H56.8355V79.4683ZM68.587 67.5437V60.7327H66.2234C66.0858 60.7327 65.9537 60.678 65.8564 60.5807C65.759 60.4833 65.7044 60.3513 65.7044 60.2136V57.8501H56.8355V67.5437H68.587ZM55.7971 62.7321H53.0327V79.4683C53.0327 80.6798 54.5124 81.3227 55.391 80.4444C55.5196 80.3165 55.6218 80.1644 55.6915 79.9969C55.7612 79.8294 55.7972 79.6497 55.7974 79.4683L55.7971 62.7321ZM67.8529 59.6945H66.7426V58.5842L67.8529 59.6945ZM71.6468 65.3686V67.5437H72.1845V65.3686H71.6468ZM68.5895 58.9628H71.1279C71.2656 58.9629 71.3975 59.0177 71.4948 59.115C71.5921 59.2124 71.6468 59.3444 71.6468 59.482V64.3301H72.7037C72.8414 64.3301 72.9734 64.3848 73.0708 64.4821C73.1681 64.5795 73.2228 64.7115 73.2228 64.8492V67.5435H76.3121C76.3802 67.5436 76.4478 67.557 76.5107 67.5831C76.5737 67.6092 76.631 67.6475 76.6792 67.6957C76.7274 67.7439 76.7656 67.8012 76.7917 67.8642C76.8178 67.9272 76.8312 67.9947 76.8312 68.0629V81.3698C76.8312 81.5075 76.7765 81.6395 76.6791 81.7369C76.5818 81.8342 76.4497 81.8889 76.3121 81.8889H54.4148C53.7733 81.8874 53.1584 81.6319 52.7048 81.1783C52.2512 80.7246 51.9957 80.1098 51.9941 79.4683V62.2129C51.9941 62.0752 52.0488 61.9432 52.1462 61.8459C52.2435 61.7485 52.3756 61.6938 52.5132 61.6938H55.7971V57.3309C55.7971 57.1932 55.8518 57.0612 55.9492 56.9638C56.0466 56.8665 56.1786 56.8117 56.3163 56.8117H66.2234C66.2925 56.8117 66.3609 56.8254 66.4245 56.8522C66.4882 56.879 66.5458 56.9182 66.5941 56.9676L68.5895 58.9628ZM70.6088 67.5433V60.0011H69.6206C69.6171 62.5148 69.6254 65.0296 69.6254 67.5437L70.6088 67.5433ZM61.6931 63.5557C61.6244 63.5565 61.5562 63.5438 61.4924 63.5181C61.4287 63.4923 61.3707 63.4542 61.3218 63.406C61.2729 63.3577 61.2341 63.3001 61.2076 63.2367C61.181 63.1733 61.1674 63.1053 61.1674 63.0365C61.1674 62.9678 61.181 62.8998 61.2076 62.8364C61.2341 62.7729 61.2729 62.7154 61.3218 62.6671C61.3707 62.6188 61.4287 62.5807 61.4924 62.555C61.5562 62.5293 61.6244 62.5165 61.6931 62.5174H66.6877C66.7564 62.5165 66.8246 62.5293 66.8883 62.555C66.9521 62.5807 67.0101 62.6188 67.059 62.6671C67.1079 62.7154 67.1467 62.7729 67.1732 62.8364C67.1997 62.8998 67.2134 62.9678 67.2134 63.0365C67.2134 63.1053 67.1997 63.1733 67.1732 63.2367C67.1467 63.3001 67.1079 63.3577 67.059 63.406C67.0101 63.4542 66.9521 63.4923 66.8883 63.5181C66.8246 63.5438 66.7564 63.5565 66.6877 63.5557H61.6931ZM58.7347 63.5557C58.5982 63.554 58.4678 63.4985 58.3718 63.4013C58.2759 63.3042 58.2221 63.1731 58.2221 63.0365C58.2221 62.9 58.2759 62.7689 58.3718 62.6717C58.4678 62.5746 58.5982 62.5191 58.7347 62.5174H60.2211C60.2898 62.5165 60.358 62.5293 60.4217 62.555C60.4855 62.5807 60.5435 62.6188 60.5924 62.6671C60.6413 62.7154 60.6801 62.7729 60.7066 62.8364C60.7331 62.8998 60.7468 62.9678 60.7468 63.0365C60.7468 63.1053 60.7331 63.1733 60.7066 63.2367C60.6801 63.3001 60.6413 63.3577 60.5924 63.406C60.5435 63.4542 60.4855 63.4923 60.4217 63.5181C60.358 63.5438 60.2898 63.5565 60.2211 63.5557H58.7347ZM58.7347 66.0483C58.597 66.0483 58.465 65.9936 58.3676 65.8962C58.2703 65.7989 58.2156 65.6668 58.2156 65.5291C58.2156 65.3914 58.2703 65.2594 58.3676 65.162C58.465 65.0646 58.597 65.0099 58.7347 65.0099H66.6877C66.8254 65.0099 66.9574 65.0646 67.0548 65.162C67.1521 65.2594 67.2068 65.3914 67.2068 65.5291C67.2068 65.6668 67.1521 65.7989 67.0548 65.8962C66.9574 65.9936 66.8254 66.0483 66.6877 66.0483H58.7347ZM58.4711 79.2572C58.3334 79.2572 58.2013 79.2025 58.104 79.1051C58.0066 79.0078 57.9519 78.8757 57.9519 78.738C57.9519 78.6003 58.0066 78.4683 58.104 78.3709C58.2013 78.2735 58.3334 78.2188 58.4711 78.2188H63.7517C63.8894 78.2188 64.0214 78.2735 64.1188 78.3709C64.2162 78.4683 64.2709 78.6003 64.2709 78.738C64.2709 78.8757 64.2162 79.0078 64.1188 79.1051C64.0214 79.2025 63.8894 79.2572 63.7517 79.2572H58.4711ZM58.4711 77.7079C58.3334 77.7079 58.2013 77.6532 58.104 77.5558C58.0066 77.4585 57.9519 77.3264 57.9519 77.1887C57.9519 77.051 58.0066 76.919 58.104 76.8216C58.2013 76.7242 58.3334 76.6695 58.4711 76.6695H63.7517C63.8894 76.6695 64.0214 76.7242 64.1188 76.8216C64.2162 76.919 64.2709 77.051 64.2709 77.1887C64.2709 77.3264 64.2162 77.4585 64.1188 77.5558C64.0214 77.6532 63.8894 77.7079 63.7517 77.7079H58.4711ZM58.7351 61.0631C58.5985 61.0614 58.4681 61.0059 58.3722 60.9087C58.2762 60.8116 58.2224 60.6805 58.2224 60.5439C58.2224 60.4074 58.2762 60.2763 58.3722 60.1791C58.4681 60.082 58.5985 60.0265 58.7351 60.0248H64.5347C64.6712 60.0265 64.8016 60.082 64.8976 60.1791C64.9935 60.2763 65.0473 60.4074 65.0473 60.5439C65.0473 60.6805 64.9935 60.8116 64.8976 60.9087C64.8016 61.0059 64.6712 61.0614 64.5347 61.0631H58.7351ZM81.9611 69.3504L80.6108 67.3952L79.2606 69.3504L80.6108 71.3056L81.9611 69.3504ZM89.2307 54.8839C88.8796 54.5328 88.4324 54.2937 87.9454 54.1969C87.4585 54.1 86.9538 54.1497 86.4951 54.3397C86.0364 54.5297 85.6444 54.8514 85.3685 55.2642C85.0927 55.677 84.9455 56.1623 84.9455 56.6588C84.9455 57.1552 85.0927 57.6406 85.3685 58.0534C85.6444 58.4662 86.0364 58.7879 86.4951 58.9779C86.9538 59.1679 87.4585 59.2176 87.9454 59.1207C88.4324 59.0238 88.8796 58.7847 89.2307 58.4336C89.7014 57.9629 89.9658 57.3245 89.9658 56.6588C89.9658 55.9931 89.7014 55.3546 89.2307 54.8839ZM87.4558 53.1105C88.1354 53.1105 88.8008 53.3058 89.3726 53.673C89.9445 54.0402 90.3989 54.5639 90.6818 55.1818C90.9647 55.7997 91.0642 56.4859 90.9684 57.1587C90.8727 57.8316 90.5857 58.4627 90.1417 58.9772C89.6976 59.4917 89.1152 59.8679 88.4636 60.0609C87.812 60.254 87.1186 60.2559 86.466 60.0664C85.8133 59.8769 85.2288 59.5039 84.782 58.9919C84.3351 58.4798 84.0447 57.8502 83.9453 57.1779H81.13V66.3255L83.0158 69.0564C83.0765 69.1443 83.1085 69.2488 83.1075 69.3556C83.1064 69.4624 83.0724 69.5662 83.01 69.6529L81.13 72.3753V81.5227H83.9453C84.0764 80.6364 84.538 79.8324 85.2374 79.2723C85.9368 78.7122 86.8222 78.4374 87.7158 78.5031C88.6094 78.5689 89.445 78.9702 90.0549 79.6266C90.6648 80.283 91.0038 81.1459 91.0038 82.0419C91.0038 82.9379 90.6648 83.8008 90.0549 84.4572C89.445 85.1136 88.6094 85.515 87.7158 85.5807C86.8222 85.6464 85.9368 85.3716 85.2374 84.8115C84.538 84.2514 84.0764 83.4475 83.9453 82.5611H80.6108C80.4731 82.5611 80.3411 82.5064 80.2437 82.409C80.1464 82.3116 80.0917 82.1796 80.0916 82.0419V72.3753L78.2058 69.6444C78.1451 69.5565 78.1131 69.452 78.1142 69.3452C78.1152 69.2384 78.1493 69.1345 78.2117 69.0478L80.0916 66.3255V56.6587C80.0917 56.5211 80.1464 56.389 80.2437 56.2917C80.3411 56.1943 80.4731 56.1396 80.6108 56.1396H83.9453C84.07 55.2977 84.4932 54.5286 85.1376 53.9726C85.782 53.4165 86.6047 53.1106 87.4558 53.1105ZM89.2307 67.5755C88.8796 67.2245 88.4324 66.9853 87.9454 66.8885C87.4585 66.7916 86.9538 66.8413 86.4951 67.0313C86.0364 67.2212 85.6443 67.543 85.3685 67.9558C85.0927 68.3686 84.9454 68.8539 84.9454 69.3504C84.9454 69.8468 85.0927 70.3322 85.3685 70.745C85.6443 71.1578 86.0364 71.4795 86.4951 71.6695C86.9538 71.8595 87.4585 71.9091 87.9454 71.8123C88.4324 71.7154 88.8796 71.4763 89.2307 71.1252C89.7013 70.6545 89.9658 70.016 89.9658 69.3504C89.9658 68.6847 89.7013 68.0463 89.2307 67.5755ZM87.4558 65.8021C86.754 65.8021 86.068 66.0102 85.4845 66.4001C84.9009 66.79 84.4461 67.3441 84.1775 67.9925C83.909 68.6409 83.8387 69.3544 83.9756 70.0427C84.1125 70.731 84.4505 71.3633 84.9467 71.8595C85.443 72.3558 86.0752 72.6937 86.7635 72.8306C87.4519 72.9675 88.1653 72.8973 88.8137 72.6287C89.4621 72.3601 90.0162 71.9053 90.4061 71.3218C90.796 70.7382 91.0041 70.0522 91.0041 69.3504C91.0041 68.4093 90.6302 67.5068 89.9648 66.8414C89.2994 66.176 88.3969 65.8021 87.4558 65.8021Z" fill="#FFFF00"/>
<path d="M59.22 189.35L58.324 186.87H53.46L52.564 189.35H51.028L55.06 178.262H56.74L60.756 189.35H59.22ZM57.908 185.686L55.892 180.054L53.876 185.686H57.908ZM70.2893 180.582V189.35H68.8333V188.054C68.2733 188.966 67.2013 189.478 66.0333 189.478C64.0173 189.478 62.4333 188.23 62.4333 185.718V180.582H63.8733V185.526C63.8733 187.302 64.8493 188.214 66.3213 188.214C67.8253 188.214 68.8333 187.286 68.8333 185.398V180.582H70.2893ZM73.0676 186.95V181.782H71.9316V180.582H73.0676V178.374H74.5236V180.582H76.8116V181.782H74.5236V186.95C74.5236 187.814 74.8436 188.118 75.7396 188.118H76.8116V189.35H75.4996C73.9476 189.35 73.0676 188.71 73.0676 186.95ZM86.8958 184.95C86.8958 187.734 84.8958 189.494 82.3998 189.494C79.9198 189.494 78.0318 187.734 78.0318 184.95C78.0318 182.182 79.9838 180.438 82.4638 180.438C84.9598 180.438 86.8958 182.182 86.8958 184.95ZM79.5198 184.95C79.5198 187.174 80.8798 188.214 82.3998 188.214C83.9198 188.214 85.4078 187.174 85.4078 184.95C85.4078 182.742 83.9518 181.702 82.4478 181.702C80.9118 181.702 79.5198 182.742 79.5198 184.95ZM88.5061 184.102V182.87H94.8901V184.102H88.5061ZM97.9426 186.95V181.782H96.8066V180.582H97.9426V178.374H99.3986V180.582H101.687V181.782H99.3986V186.95C99.3986 187.814 99.7186 188.118 100.615 188.118H101.687V189.35H100.375C98.8226 189.35 97.9426 188.71 97.9426 186.95ZM102.907 184.934C102.907 182.198 104.715 180.438 107.067 180.438C108.699 180.438 109.819 181.27 110.331 182.182V180.582H111.803V189.35H110.331V187.718C109.803 188.662 108.667 189.494 107.051 189.494C104.715 189.494 102.907 187.654 102.907 184.934ZM110.331 184.95C110.331 182.918 108.955 181.702 107.355 181.702C105.755 181.702 104.395 182.87 104.395 184.934C104.395 186.998 105.755 188.214 107.355 188.214C108.955 188.214 110.331 187.014 110.331 184.95ZM113.719 184.934C113.719 182.198 115.527 180.438 117.879 180.438C119.479 180.438 120.631 181.238 121.143 182.182V180.582H122.615V189.542C122.615 191.958 120.999 193.67 118.423 193.67C116.119 193.67 114.471 192.502 114.183 190.63H115.623C115.943 191.686 116.983 192.406 118.423 192.406C119.975 192.406 121.143 191.414 121.143 189.542V187.702C120.615 188.646 119.479 189.494 117.879 189.494C115.527 189.494 113.719 187.654 113.719 184.934ZM121.143 184.95C121.143 182.918 119.767 181.702 118.167 181.702C116.567 181.702 115.207 182.87 115.207 184.934C115.207 186.998 116.567 188.214 118.167 188.214C119.767 188.214 121.143 187.014 121.143 184.95ZM124.532 184.934C124.532 182.198 126.34 180.438 128.692 180.438C130.292 180.438 131.444 181.238 131.956 182.182V180.582H133.428V189.542C133.428 191.958 131.812 193.67 129.236 193.67C126.932 193.67 125.284 192.502 124.996 190.63H126.436C126.756 191.686 127.796 192.406 129.236 192.406C130.788 192.406 131.956 191.414 131.956 189.542V187.702C131.428 188.646 130.292 189.494 128.692 189.494C126.34 189.494 124.532 187.654 124.532 184.934ZM131.956 184.95C131.956 182.918 130.58 181.702 128.98 181.702C127.38 181.702 126.02 182.87 126.02 184.934C126.02 186.998 127.38 188.214 128.98 188.214C130.58 188.214 131.956 187.014 131.956 184.95ZM135.888 189.35V180.582H137.344V189.35H135.888ZM136.64 179.158C136.08 179.158 135.648 178.726 135.648 178.166C135.648 177.606 136.08 177.174 136.64 177.174C137.168 177.174 137.6 177.606 137.6 178.166C137.6 178.726 137.168 179.158 136.64 179.158ZM146.242 189.35V184.39C146.242 182.598 145.266 181.686 143.794 181.686C142.306 181.686 141.282 182.614 141.282 184.502V189.35H139.826V180.582H141.282V181.83C141.858 180.918 142.914 180.422 144.098 180.422C146.13 180.422 147.682 181.67 147.682 184.182V189.35H146.242ZM149.516 184.934C149.516 182.198 151.324 180.438 153.676 180.438C155.276 180.438 156.428 181.238 156.94 182.182V180.582H158.412V189.542C158.412 191.958 156.796 193.67 154.22 193.67C151.916 193.67 150.268 192.502 149.98 190.63H151.42C151.74 191.686 152.78 192.406 154.22 192.406C155.772 192.406 156.94 191.414 156.94 189.542V187.702C156.412 188.646 155.276 189.494 153.676 189.494C151.324 189.494 149.516 187.654 149.516 184.934ZM156.94 184.95C156.94 182.918 155.564 181.702 153.964 181.702C152.364 181.702 151.004 182.87 151.004 184.934C151.004 186.998 152.364 188.214 153.964 188.214C155.564 188.214 156.94 187.014 156.94 184.95ZM159.609 191.638L160.777 187.334H162.377L160.585 191.638H159.609ZM167.766 184.95C167.766 182.198 169.542 180.438 172.038 180.438C174.214 180.438 175.638 181.558 176.086 183.398H174.518C174.214 182.342 173.334 181.67 172.038 181.67C170.438 181.67 169.254 182.806 169.254 184.95C169.254 187.126 170.438 188.262 172.038 188.262C173.334 188.262 174.198 187.638 174.518 186.534H176.086C175.638 188.278 174.214 189.494 172.038 189.494C169.542 189.494 167.766 187.734 167.766 184.95ZM178.029 189.35V177.51H179.485V189.35H178.029ZM189.742 180.582V189.35H188.286V188.054C187.726 188.966 186.654 189.478 185.486 189.478C183.47 189.478 181.886 188.23 181.886 185.718V180.582H183.326V185.526C183.326 187.302 184.302 188.214 185.774 188.214C187.278 188.214 188.286 187.286 188.286 185.398V180.582H189.742ZM198.505 186.966C198.505 188.406 197.241 189.494 195.305 189.494C193.257 189.494 191.817 188.374 191.721 186.774H193.225C193.305 187.622 194.057 188.262 195.289 188.262C196.441 188.262 197.081 187.686 197.081 186.966C197.081 185.014 191.897 186.15 191.897 182.886C191.897 181.542 193.161 180.438 195.113 180.438C197.049 180.438 198.329 181.478 198.425 183.19H196.969C196.905 182.31 196.233 181.67 195.065 181.67C193.993 181.67 193.353 182.182 193.353 182.886C193.353 184.966 198.441 183.83 198.505 186.966ZM200.88 186.95V181.782H199.744V180.582H200.88V178.374H202.336V180.582H204.624V181.782H202.336V186.95C202.336 187.814 202.656 188.118 203.552 188.118H204.624V189.35H203.312C201.76 189.35 200.88 188.71 200.88 186.95ZM210.116 181.67C208.692 181.67 207.508 182.614 207.348 184.326H212.884C212.9 182.614 211.62 181.67 210.116 181.67ZM214.212 186.646C213.764 188.246 212.356 189.494 210.18 189.494C207.684 189.494 205.844 187.734 205.844 184.95C205.844 182.182 207.62 180.438 210.18 180.438C212.724 180.438 214.388 182.23 214.388 184.63C214.388 184.95 214.372 185.206 214.34 185.51H207.332C207.444 187.286 208.692 188.262 210.18 188.262C211.492 188.262 212.324 187.59 212.644 186.646H214.212ZM217.766 184.582V189.35H216.31V180.582H217.766V182.006C218.262 181.03 219.206 180.422 220.598 180.422V181.926H220.214C218.822 181.926 217.766 182.55 217.766 184.582ZM222.279 189.35V180.582H223.735V189.35H222.279ZM223.031 179.158C222.471 179.158 222.039 178.726 222.039 178.166C222.039 177.606 222.471 177.174 223.031 177.174C223.559 177.174 223.991 177.606 223.991 178.166C223.991 178.726 223.559 179.158 223.031 179.158ZM232.632 189.35V184.39C232.632 182.598 231.656 181.686 230.184 181.686C228.696 181.686 227.672 182.614 227.672 184.502V189.35H226.216V180.582H227.672V181.83C228.248 180.918 229.304 180.422 230.488 180.422C232.52 180.422 234.072 181.67 234.072 184.182V189.35H232.632ZM235.907 184.934C235.907 182.198 237.715 180.438 240.067 180.438C241.667 180.438 242.819 181.238 243.331 182.182V180.582H244.803V189.542C244.803 191.958 243.187 193.67 240.611 193.67C238.307 193.67 236.659 192.502 236.371 190.63H237.811C238.131 191.686 239.171 192.406 240.611 192.406C242.163 192.406 243.331 191.414 243.331 189.542V187.702C242.803 188.646 241.667 189.494 240.067 189.494C237.715 189.494 235.907 187.654 235.907 184.934ZM243.331 184.95C243.331 182.918 241.955 181.702 240.355 181.702C238.755 181.702 237.395 182.87 237.395 184.934C237.395 186.998 238.755 188.214 240.355 188.214C241.955 188.214 243.331 187.014 243.331 184.95ZM258.249 180.582H256.793C256.825 179.67 256.217 179.174 255.433 179.174C254.569 179.174 254.009 179.718 254.009 180.454C254.009 181.11 254.377 181.654 255.161 182.486L258.489 185.83C258.585 185.686 258.681 185.542 258.777 185.382L259.865 183.558H261.433L260.121 185.83C259.913 186.198 259.705 186.518 259.481 186.838L261.993 189.35H260.089L258.633 187.878C257.561 188.998 256.361 189.542 254.793 189.542C252.473 189.542 250.889 188.214 250.889 186.15C250.889 184.614 251.769 183.382 253.513 182.694C252.825 181.894 252.553 181.27 252.553 180.454C252.553 179.03 253.689 177.974 255.497 177.974C257.257 177.974 258.329 179.094 258.249 180.582ZM254.793 188.294C255.945 188.294 256.841 187.846 257.673 186.918L254.393 183.622C253.001 184.15 252.345 184.982 252.345 186.102C252.345 187.35 253.337 188.294 254.793 188.294ZM51.188 206.934C51.188 204.198 52.996 202.438 55.364 202.438C56.74 202.438 58.004 203.142 58.612 204.15V199.51H60.084V211.35H58.612V209.702C58.084 210.678 56.948 211.494 55.348 211.494C52.996 211.494 51.188 209.654 51.188 206.934ZM58.612 206.95C58.612 204.918 57.236 203.702 55.636 203.702C54.036 203.702 52.676 204.87 52.676 206.934C52.676 208.998 54.036 210.214 55.636 210.214C57.236 210.214 58.612 209.014 58.612 206.95ZM70.8645 206.95C70.8645 209.734 68.8645 211.494 66.3685 211.494C63.8885 211.494 62.0005 209.734 62.0005 206.95C62.0005 204.182 63.9525 202.438 66.4325 202.438C68.9285 202.438 70.8645 204.182 70.8645 206.95ZM63.4885 206.95C63.4885 209.174 64.8485 210.214 66.3685 210.214C67.8885 210.214 69.3765 209.174 69.3765 206.95C69.3765 204.742 67.9205 203.702 66.4165 203.702C64.8805 203.702 63.4885 204.742 63.4885 206.95ZM72.2349 206.95C72.2349 204.198 74.0109 202.438 76.5069 202.438C78.6829 202.438 80.1069 203.558 80.5549 205.398H78.9869C78.6829 204.342 77.8029 203.67 76.5069 203.67C74.9069 203.67 73.7229 204.806 73.7229 206.95C73.7229 209.126 74.9069 210.262 76.5069 210.262C77.8029 210.262 78.6669 209.638 78.9869 208.534H80.5549C80.1069 210.278 78.6829 211.494 76.5069 211.494C74.0109 211.494 72.2349 209.734 72.2349 206.95ZM90.2736 202.582V211.35H88.8176V210.054C88.2576 210.966 87.1856 211.478 86.0176 211.478C84.0016 211.478 82.4176 210.23 82.4176 207.718V202.582H83.8576V207.526C83.8576 209.302 84.8336 210.214 86.3056 210.214C87.8096 210.214 88.8176 209.286 88.8176 207.398V202.582H90.2736ZM105.388 211.35V206.39C105.388 204.598 104.428 203.686 102.988 203.686C101.516 203.686 100.508 204.63 100.508 206.518V211.35H99.068V206.39C99.068 204.598 98.108 203.686 96.668 203.686C95.196 203.686 94.188 204.63 94.188 206.518V211.35H92.732V202.582H94.188V203.846C94.764 202.918 95.804 202.422 96.956 202.422C98.396 202.422 99.596 203.062 100.172 204.374C100.684 203.11 101.932 202.422 103.276 202.422C105.276 202.422 106.828 203.67 106.828 206.182V211.35H105.388ZM112.944 203.67C111.52 203.67 110.336 204.614 110.176 206.326H115.712C115.728 204.614 114.448 203.67 112.944 203.67ZM117.04 208.646C116.592 210.246 115.184 211.494 113.008 211.494C110.512 211.494 108.672 209.734 108.672 206.95C108.672 204.182 110.448 202.438 113.008 202.438C115.552 202.438 117.216 204.23 117.216 206.63C117.216 206.95 117.2 207.206 117.168 207.51H110.16C110.272 209.286 111.52 210.262 113.008 210.262C114.32 210.262 115.152 209.59 115.472 208.646H117.04ZM125.554 211.35V206.39C125.554 204.598 124.578 203.686 123.106 203.686C121.618 203.686 120.594 204.614 120.594 206.502V211.35H119.138V202.582H120.594V203.83C121.17 202.918 122.226 202.422 123.41 202.422C125.442 202.422 126.994 203.67 126.994 206.182V211.35H125.554ZM129.693 208.95V203.782H128.557V202.582H129.693V200.374H131.149V202.582H133.437V203.782H131.149V208.95C131.149 209.814 131.469 210.118 132.365 210.118H133.437V211.35H132.125C130.573 211.35 129.693 210.71 129.693 208.95ZM138.922 206.95C138.922 204.198 140.698 202.438 143.194 202.438C145.37 202.438 146.794 203.558 147.242 205.398H145.674C145.37 204.342 144.49 203.67 143.194 203.67C141.594 203.67 140.41 204.806 140.41 206.95C140.41 209.126 141.594 210.262 143.194 210.262C144.49 210.262 145.354 209.638 145.674 208.534H147.242C146.794 210.278 145.37 211.494 143.194 211.494C140.698 211.494 138.922 209.734 138.922 206.95ZM149.185 211.35V199.51H150.641V211.35H149.185ZM152.579 206.934C152.579 204.198 154.387 202.438 156.739 202.438C158.371 202.438 159.491 203.27 160.003 204.182V202.582H161.475V211.35H160.003V209.718C159.475 210.662 158.339 211.494 156.723 211.494C154.387 211.494 152.579 209.654 152.579 206.934ZM160.003 206.95C160.003 204.918 158.627 203.702 157.027 203.702C155.427 203.702 154.067 204.87 154.067 206.934C154.067 208.998 155.427 210.214 157.027 210.214C158.627 210.214 160.003 209.014 160.003 206.95ZM170.239 208.966C170.239 210.406 168.975 211.494 167.039 211.494C164.991 211.494 163.551 210.374 163.455 208.774H164.959C165.039 209.622 165.791 210.262 167.023 210.262C168.175 210.262 168.815 209.686 168.815 208.966C168.815 207.014 163.631 208.15 163.631 204.886C163.631 203.542 164.895 202.438 166.847 202.438C168.783 202.438 170.063 203.478 170.159 205.19H168.703C168.639 204.31 167.967 203.67 166.799 203.67C165.727 203.67 165.087 204.182 165.087 204.886C165.087 206.966 170.175 205.83 170.239 208.966ZM178.599 208.966C178.599 210.406 177.335 211.494 175.399 211.494C173.351 211.494 171.911 210.374 171.815 208.774H173.319C173.399 209.622 174.151 210.262 175.383 210.262C176.535 210.262 177.175 209.686 177.175 208.966C177.175 207.014 171.991 208.15 171.991 204.886C171.991 203.542 173.255 202.438 175.207 202.438C177.143 202.438 178.423 203.478 178.519 205.19H177.063C176.999 204.31 176.327 203.67 175.159 203.67C174.087 203.67 173.447 204.182 173.447 204.886C173.447 206.966 178.535 205.83 178.599 208.966ZM180.654 211.35V202.582H182.11V211.35H180.654ZM181.406 201.158C180.846 201.158 180.414 200.726 180.414 200.166C180.414 199.606 180.846 199.174 181.406 199.174C181.934 199.174 182.366 199.606 182.366 200.166C182.366 200.726 181.934 201.158 181.406 201.158ZM184.863 211.35V203.782H183.727V202.582H184.863V201.958C184.863 200.006 185.823 199.126 188.063 199.126V200.342C186.751 200.342 186.319 200.822 186.319 201.958V202.582H188.159V203.782H186.319V211.35H184.863ZM189.857 211.35V202.582H191.313V211.35H189.857ZM190.609 201.158C190.049 201.158 189.617 200.726 189.617 200.166C189.617 199.606 190.049 199.174 190.609 199.174C191.137 199.174 191.569 199.606 191.569 200.166C191.569 200.726 191.137 201.158 190.609 201.158ZM193.251 206.95C193.251 204.198 195.027 202.438 197.523 202.438C199.699 202.438 201.123 203.558 201.571 205.398H200.003C199.699 204.342 198.819 203.67 197.523 203.67C195.923 203.67 194.739 204.806 194.739 206.95C194.739 209.126 195.923 210.262 197.523 210.262C198.819 210.262 199.683 209.638 200.003 208.534H201.571C201.123 210.278 199.699 211.494 197.523 211.494C195.027 211.494 193.251 209.734 193.251 206.95ZM202.969 206.934C202.969 204.198 204.777 202.438 207.129 202.438C208.761 202.438 209.881 203.27 210.393 204.182V202.582H211.865V211.35H210.393V209.718C209.865 210.662 208.729 211.494 207.113 211.494C204.777 211.494 202.969 209.654 202.969 206.934ZM210.393 206.95C210.393 204.918 209.017 203.702 207.417 203.702C205.817 203.702 204.457 204.87 204.457 206.934C204.457 208.998 205.817 210.214 207.417 210.214C209.017 210.214 210.393 209.014 210.393 206.95ZM214.646 208.95V203.782H213.51V202.582H214.646V200.374H216.102V202.582H218.39V203.782H216.102V208.95C216.102 209.814 216.422 210.118 217.318 210.118H218.39V211.35H217.078C215.526 211.35 214.646 210.71 214.646 208.95ZM220.154 211.35V202.582H221.61V211.35H220.154ZM220.906 201.158C220.346 201.158 219.914 200.726 219.914 200.166C219.914 199.606 220.346 199.174 220.906 199.174C221.434 199.174 221.866 199.606 221.866 200.166C221.866 200.726 221.434 201.158 220.906 201.158ZM232.411 206.95C232.411 209.734 230.411 211.494 227.915 211.494C225.435 211.494 223.547 209.734 223.547 206.95C223.547 204.182 225.499 202.438 227.979 202.438C230.475 202.438 232.411 204.182 232.411 206.95ZM225.035 206.95C225.035 209.174 226.395 210.214 227.915 210.214C229.435 210.214 230.923 209.174 230.923 206.95C230.923 204.742 229.467 203.702 227.963 203.702C226.427 203.702 225.035 204.742 225.035 206.95ZM240.742 211.35V206.39C240.742 204.598 239.766 203.686 238.294 203.686C236.806 203.686 235.782 204.614 235.782 206.502V211.35H234.326V202.582H235.782V203.83C236.358 202.918 237.414 202.422 238.598 202.422C240.63 202.422 242.182 203.67 242.182 206.182V211.35H240.742Z" fill="#E6E6E6"/>
</g>
<defs>
<filter id="filter0_d_2094_13639" x="0.5" y="0.350342" width="370" height="284" filterUnits="userSpaceOnUse" color-interpolation-filters="sRGB">
<feFlood flood-opacity="0" result="BackgroundImageFix"/>
<feColorMatrix in="SourceAlpha" type="matrix" values="0 0 0 0 0 0 0 0 0 0 0 0 0 0 0 0 0 0 127 0" result="hardAlpha"/>
<feOffset dy="10"/>
<feGaussianBlur stdDeviation="13"/>
<feComposite in2="hardAlpha" operator="out"/>
<feColorMatrix type="matrix" values="0 0 0 0 0 0 0 0 0 0 0 0 0 0 0 0 0 0 0.2 0"/>
<feBlend mode="normal" in2="BackgroundImageFix" result="effect1_dropShadow_2094_13639"/>
<feBlend mode="normal" in="SourceGraphic" in2="effect1_dropShadow_2094_13639" result="shape"/>
</filter>
<linearGradient id="paint0_linear_2094_13639" x1="344.5" y1="232.641" x2="4.01557" y2="181.367" gradientUnits="userSpaceOnUse">
<stop offset="0.254808" stop-color="#464646"/>
<stop offset="1" stop-color="#43430D"/>
</linearGradient>
<linearGradient id="paint1_linear_2094_13639" x1="117.456" y1="16.3503" x2="313.834" y2="172.553" gradientUnits="userSpaceOnUse">
<stop stop-color="#9F9F00"/>
<stop offset="0.509615" stop-color="#4D4D00"/>
</linearGradient>
</defs>
</svg>
