<svg width="462" height="75" viewBox="0 0 462 75" fill="none" xmlns="http://www.w3.org/2000/svg">
<path d="M10 0.850586H452C457.247 0.850586 461.5 5.10388 461.5 10.3506V64.3506C461.5 69.5973 457.247 73.8506 452 73.8506H10C4.7533 73.8506 0.5 69.5973 0.5 64.3506V10.3506L0.512695 9.86133C0.767337 4.842 4.91739 0.850586 10 0.850586Z" fill="url(#paint0_linear_1997_3930)" fill-opacity="0.5"/>
<path d="M10 0.850586H452C457.247 0.850586 461.5 5.10388 461.5 10.3506V64.3506C461.5 69.5973 457.247 73.8506 452 73.8506H10C4.7533 73.8506 0.5 69.5973 0.5 64.3506V10.3506L0.512695 9.86133C0.767337 4.842 4.91739 0.850586 10 0.850586Z" stroke="url(#paint1_linear_1997_3930)"/>
<path d="M67.1094 34.7256C66.5899 34.7256 66.094 34.887 65.6741 35.1637L63.2091 32.9173C64.0352 31.7181 64.4844 30.2852 64.4844 28.8193C64.4844 26.8027 63.6655 24.9303 62.2147 23.5673L64.8264 21.3315C65.1188 21.4998 65.4486 21.6006 65.7969 21.6006C66.8825 21.6006 67.7656 20.7175 67.7656 19.6318C67.7656 18.5462 66.8825 17.6631 65.7969 17.6631C64.7112 17.6631 63.8281 18.5462 63.8281 19.6318C63.8281 19.8788 63.8764 20.1197 63.963 20.3426L61.1592 22.7429C59.9947 21.9952 58.6599 21.6006 57.2656 21.6006C54.83 21.6006 52.5615 22.8546 51.2341 24.8818H36.9219C36.5595 24.8818 36.2656 25.1757 36.2656 25.5381V53.1006C36.2656 53.463 36.5595 53.7568 36.9219 53.7568H40.2031V56.3818C40.2031 56.7442 40.497 57.0381 40.8594 57.0381H60.5469C60.9093 57.0381 61.2031 56.7442 61.2031 56.3818V50.6474L66.655 45.1907C67.2555 44.5895 67.2574 43.6039 66.6547 42.9896L65.1451 41.4803C64.5366 40.8715 63.5461 40.8715 62.9376 41.4803L61.2031 43.2148V34.8604C61.6205 34.5871 62.0108 34.2767 62.3652 33.9239L64.7951 36.1383C64.5984 36.5113 64.4844 36.9234 64.4844 37.3506C64.4844 38.798 65.662 39.9756 67.1094 39.9756C68.5568 39.9756 69.7344 38.798 69.7344 37.3506C69.7344 35.9032 68.5568 34.7256 67.1094 34.7256ZM65.7969 18.9756C66.1586 18.9756 66.4531 19.2701 66.4531 19.6318C66.4531 19.9936 66.1586 20.2881 65.7969 20.2881C65.6091 20.2881 65.4271 20.2041 65.297 20.0494C65.1948 19.934 65.1406 19.7895 65.1406 19.6318C65.1406 19.2701 65.4351 18.9756 65.7969 18.9756ZM37.5781 52.4443V26.1943H51.5824H55.9531V28.1631H40.8594C40.497 28.1631 40.2031 28.4569 40.2031 28.8193V52.4443H37.5781ZM63.8656 42.4083C63.9646 42.3093 64.1188 42.31 64.2171 42.4083L65.7222 43.9131C65.8174 44.0102 65.8193 44.1704 65.7264 44.2633L59.0697 50.9261L56.5914 51.5436L57.2086 49.065L61.0109 45.2631C61.0107 45.2632 61.011 45.263 61.0109 45.2631L63.8656 42.4083ZM56.1518 48.2659C56.0675 48.3501 56.0079 48.4556 55.9791 48.5712L55.054 52.2857C54.9982 52.5094 55.0639 52.7455 55.2267 52.9083C55.2823 52.964 55.3483 53.0037 55.4176 53.0356C55.4342 53.0432 55.4499 53.0501 55.467 53.0563C55.5376 53.0821 55.6107 53.0993 55.6864 53.0997C55.6878 53.0997 55.6892 53.1006 55.6907 53.1006C55.7436 53.1006 55.7968 53.0942 55.8493 53.081L59.5635 52.1556C59.6791 52.1268 59.7846 52.0672 59.8688 51.9829L59.8906 51.9611V55.7256H41.5156V53.1006V29.4756H56.6094H59.8906V34.5026V44.5272L56.1518 48.2659ZM60.5469 28.1631H57.2656V25.5381C57.2656 25.1757 56.9718 24.8818 56.6094 24.8818H52.8657C53.9751 23.6462 55.5747 22.9131 57.2656 22.9131C58.5515 22.9131 59.7772 23.3216 60.8083 24.0936C62.3105 25.2247 63.1719 26.947 63.1719 28.8193C63.1719 30.1905 62.6915 31.5267 61.8216 32.579C61.6303 32.8084 61.4236 33.0218 61.2031 33.2189V28.8193C61.2031 28.4569 60.9093 28.1631 60.5469 28.1631ZM67.1094 38.6631C66.3855 38.6631 65.7969 38.0744 65.7969 37.3506C65.7969 36.9366 65.9827 36.6447 66.1442 36.4662C66.3849 36.1941 66.7367 36.0381 67.1094 36.0381C67.8332 36.0381 68.4219 36.6267 68.4219 37.3506C68.4219 38.0744 67.8332 38.6631 67.1094 38.6631Z" fill="#FFFF00"/>
<path d="M44.1406 34.7256H48.0781C48.4405 34.7256 48.7344 34.4317 48.7344 34.0693C48.7344 33.7069 48.4405 33.4131 48.0781 33.4131H44.1406C43.7782 33.4131 43.4844 33.7069 43.4844 34.0693C43.4844 34.4317 43.7782 34.7256 44.1406 34.7256Z" fill="#FFFF00"/>
<path d="M44.1406 37.3506H52.6719C53.0343 37.3506 53.3281 37.0567 53.3281 36.6943C53.3281 36.3319 53.0343 36.0381 52.6719 36.0381H44.1406C43.7782 36.0381 43.4844 36.3319 43.4844 36.6943C43.4844 37.0567 43.7782 37.3506 44.1406 37.3506Z" fill="#FFFF00"/>
<path d="M44.1406 44.5693H47.4219C47.7843 44.5693 48.0781 44.2755 48.0781 43.9131C48.0781 43.5507 47.7843 43.2568 47.4219 43.2568H44.1406C43.7782 43.2568 43.4844 43.5507 43.4844 43.9131C43.4844 44.2755 43.7782 44.5693 44.1406 44.5693Z" fill="#FFFF00"/>
<path d="M53.9844 43.2568H49.3906C49.0282 43.2568 48.7344 43.5507 48.7344 43.9131C48.7344 44.2755 49.0282 44.5693 49.3906 44.5693H53.9844C54.3468 44.5693 54.6406 44.2755 54.6406 43.9131C54.6406 43.5507 54.3468 43.2568 53.9844 43.2568Z" fill="#FFFF00"/>
<path d="M52.0156 47.1943H44.1406C43.7782 47.1943 43.4844 47.4882 43.4844 47.8506C43.4844 48.213 43.7782 48.5068 44.1406 48.5068H52.0156C52.378 48.5068 52.6719 48.213 52.6719 47.8506C52.6719 47.4882 52.378 47.1943 52.0156 47.1943Z" fill="#FFFF00"/>
<path d="M48.0781 51.1318H44.1406C43.7782 51.1318 43.4844 51.4257 43.4844 51.7881C43.4844 52.1505 43.7782 52.4443 44.1406 52.4443H48.0781C48.4405 52.4443 48.7344 52.1505 48.7344 51.7881C48.7344 51.4257 48.4405 51.1318 48.0781 51.1318Z" fill="#FFFF00"/>
<path d="M94.704 32.1986C98.368 32.1986 100.624 34.3426 100.624 37.7986C100.624 41.2546 98.368 43.3506 94.704 43.3506H91.232V32.1986H94.704ZM92.688 42.1506H94.704C97.616 42.1506 99.136 40.5186 99.136 37.7986C99.136 35.0786 97.616 33.3826 94.704 33.3826H92.688V42.1506ZM110.864 38.9506C110.864 41.7346 108.864 43.4946 106.368 43.4946C103.888 43.4946 102 41.7346 102 38.9506C102 36.1826 103.952 34.4386 106.432 34.4386C108.928 34.4386 110.864 36.1826 110.864 38.9506ZM103.488 38.9506C103.488 41.1746 104.848 42.2146 106.368 42.2146C107.888 42.2146 109.376 41.1746 109.376 38.9506C109.376 36.7426 107.92 35.7026 106.416 35.7026C104.88 35.7026 103.488 36.7426 103.488 38.9506ZM112.235 38.9506C112.235 36.1986 114.011 34.4386 116.507 34.4386C118.683 34.4386 120.107 35.5586 120.555 37.3986H118.987C118.683 36.3426 117.803 35.6706 116.507 35.6706C114.907 35.6706 113.723 36.8066 113.723 38.9506C113.723 41.1266 114.907 42.2626 116.507 42.2626C117.803 42.2626 118.667 41.6386 118.987 40.5346H120.555C120.107 42.2786 118.683 43.4946 116.507 43.4946C114.011 43.4946 112.235 41.7346 112.235 38.9506ZM130.274 34.5826V43.3506H128.818V42.0546C128.258 42.9666 127.186 43.4786 126.018 43.4786C124.002 43.4786 122.418 42.2306 122.418 39.7186V34.5826H123.858V39.5266C123.858 41.3026 124.834 42.2146 126.306 42.2146C127.81 42.2146 128.818 41.2866 128.818 39.3986V34.5826H130.274ZM145.388 43.3506V38.3906C145.388 36.5986 144.428 35.6866 142.988 35.6866C141.516 35.6866 140.508 36.6306 140.508 38.5186V43.3506H139.068V38.3906C139.068 36.5986 138.108 35.6866 136.668 35.6866C135.196 35.6866 134.188 36.6306 134.188 38.5186V43.3506H132.732V34.5826H134.188V35.8466C134.764 34.9186 135.804 34.4226 136.956 34.4226C138.396 34.4226 139.596 35.0626 140.172 36.3746C140.684 35.1106 141.932 34.4226 143.276 34.4226C145.276 34.4226 146.828 35.6706 146.828 38.1826V43.3506H145.388ZM152.944 35.6706C151.52 35.6706 150.336 36.6146 150.176 38.3266H155.712C155.728 36.6146 154.448 35.6706 152.944 35.6706ZM157.04 40.6466C156.592 42.2466 155.184 43.4946 153.008 43.4946C150.512 43.4946 148.672 41.7346 148.672 38.9506C148.672 36.1826 150.448 34.4386 153.008 34.4386C155.552 34.4386 157.216 36.2306 157.216 38.6306C157.216 38.9506 157.2 39.2066 157.168 39.5106H150.16C150.272 41.2866 151.52 42.2626 153.008 42.2626C154.32 42.2626 155.152 41.5906 155.472 40.6466H157.04ZM165.554 43.3506V38.3906C165.554 36.5986 164.578 35.6866 163.106 35.6866C161.618 35.6866 160.594 36.6146 160.594 38.5026V43.3506H159.138V34.5826H160.594V35.8306C161.17 34.9186 162.226 34.4226 163.41 34.4226C165.442 34.4226 166.994 35.6706 166.994 38.1826V43.3506H165.554ZM169.693 40.9506V35.7826H168.557V34.5826H169.693V32.3746H171.149V34.5826H173.437V35.7826H171.149V40.9506C171.149 41.8146 171.469 42.1186 172.365 42.1186H173.437V43.3506H172.125C170.573 43.3506 169.693 42.7106 169.693 40.9506ZM186.714 40.3106C186.714 41.8946 185.418 43.4626 183.002 43.4626C180.762 43.4626 179.178 42.2146 179.146 40.3746H180.698C180.794 41.3026 181.45 42.2306 183.002 42.2306C184.41 42.2306 185.242 41.4306 185.242 40.3746C185.242 37.3666 179.21 39.2866 179.21 35.1426C179.21 33.3026 180.698 32.0546 182.906 32.0546C185.034 32.0546 186.426 33.2226 186.602 34.9186H185.002C184.906 34.1666 184.202 33.3186 182.842 33.3026C181.642 33.2706 180.698 33.8946 180.698 35.0946C180.698 37.9746 186.714 36.1826 186.714 40.3106ZM196.633 34.5826V43.3506H195.177V42.0546C194.617 42.9666 193.545 43.4786 192.377 43.4786C190.361 43.4786 188.777 42.2306 188.777 39.7186V34.5826H190.217V39.5266C190.217 41.3026 191.193 42.2146 192.665 42.2146C194.169 42.2146 195.177 41.2866 195.177 39.3986V34.5826H196.633ZM211.747 43.3506V38.3906C211.747 36.5986 210.787 35.6866 209.347 35.6866C207.875 35.6866 206.867 36.6306 206.867 38.5186V43.3506H205.427V38.3906C205.427 36.5986 204.467 35.6866 203.027 35.6866C201.555 35.6866 200.547 36.6306 200.547 38.5186V43.3506H199.091V34.5826H200.547V35.8466C201.123 34.9186 202.163 34.4226 203.315 34.4226C204.755 34.4226 205.955 35.0626 206.531 36.3746C207.043 35.1106 208.291 34.4226 209.635 34.4226C211.635 34.4226 213.187 35.6706 213.187 38.1826V43.3506H211.747ZM228.232 43.3506V38.3906C228.232 36.5986 227.272 35.6866 225.832 35.6866C224.36 35.6866 223.352 36.6306 223.352 38.5186V43.3506H221.912V38.3906C221.912 36.5986 220.952 35.6866 219.512 35.6866C218.04 35.6866 217.032 36.6306 217.032 38.5186V43.3506H215.576V34.5826H217.032V35.8466C217.608 34.9186 218.648 34.4226 219.8 34.4226C221.24 34.4226 222.44 35.0626 223.016 36.3746C223.528 35.1106 224.776 34.4226 226.12 34.4226C228.12 34.4226 229.672 35.6706 229.672 38.1826V43.3506H228.232ZM231.516 38.9346C231.516 36.1986 233.324 34.4386 235.676 34.4386C237.308 34.4386 238.428 35.2706 238.94 36.1826V34.5826H240.412V43.3506H238.94V41.7186C238.412 42.6626 237.276 43.4946 235.66 43.4946C233.324 43.4946 231.516 41.6546 231.516 38.9346ZM238.94 38.9506C238.94 36.9186 237.564 35.7026 235.964 35.7026C234.364 35.7026 233.004 36.8706 233.004 38.9346C233.004 40.9986 234.364 42.2146 235.964 42.2146C237.564 42.2146 238.94 41.0146 238.94 38.9506ZM244.329 38.5826V43.3506H242.873V34.5826H244.329V36.0066C244.825 35.0306 245.769 34.4226 247.161 34.4226V35.9266H246.777C245.385 35.9266 244.329 36.5506 244.329 38.5826ZM248.841 43.3506V34.5826H250.297V43.3506H248.841ZM249.593 33.1586C249.033 33.1586 248.601 32.7266 248.601 32.1666C248.601 31.6066 249.033 31.1746 249.593 31.1746C250.121 31.1746 250.553 31.6066 250.553 32.1666C250.553 32.7266 250.121 33.1586 249.593 33.1586ZM258.139 34.5826V35.7666L253.867 42.1506H258.171V43.3506H252.203V42.1506L256.459 35.7666H252.235V34.5826H258.139ZM259.516 38.9346C259.516 36.1986 261.324 34.4386 263.676 34.4386C265.308 34.4386 266.428 35.2706 266.94 36.1826V34.5826H268.412V43.3506H266.94V41.7186C266.412 42.6626 265.276 43.4946 263.66 43.4946C261.324 43.4946 259.516 41.6546 259.516 38.9346ZM266.94 38.9506C266.94 36.9186 265.564 35.7026 263.964 35.7026C262.364 35.7026 261.004 36.8706 261.004 38.9346C261.004 40.9986 262.364 42.2146 263.964 42.2146C265.564 42.2146 266.94 41.0146 266.94 38.9506ZM271.193 40.9506V35.7826H270.057V34.5826H271.193V32.3746H272.649V34.5826H274.937V35.7826H272.649V40.9506C272.649 41.8146 272.969 42.1186 273.865 42.1186H274.937V43.3506H273.625C272.073 43.3506 271.193 42.7106 271.193 40.9506ZM276.701 43.3506V34.5826H278.157V43.3506H276.701ZM277.453 33.1586C276.893 33.1586 276.461 32.7266 276.461 32.1666C276.461 31.6066 276.893 31.1746 277.453 31.1746C277.981 31.1746 278.413 31.6066 278.413 32.1666C278.413 32.7266 277.981 33.1586 277.453 33.1586ZM288.958 38.9506C288.958 41.7346 286.958 43.4946 284.462 43.4946C281.982 43.4946 280.094 41.7346 280.094 38.9506C280.094 36.1826 282.046 34.4386 284.526 34.4386C287.022 34.4386 288.958 36.1826 288.958 38.9506ZM281.582 38.9506C281.582 41.1746 282.942 42.2146 284.462 42.2146C285.982 42.2146 287.47 41.1746 287.47 38.9506C287.47 36.7426 286.014 35.7026 284.51 35.7026C282.974 35.7026 281.582 36.7426 281.582 38.9506ZM297.289 43.3506V38.3906C297.289 36.5986 296.313 35.6866 294.841 35.6866C293.353 35.6866 292.329 36.6146 292.329 38.5026V43.3506H290.873V34.5826H292.329V35.8306C292.905 34.9186 293.961 34.4226 295.145 34.4226C297.177 34.4226 298.729 35.6706 298.729 38.1826V43.3506H297.289ZM312.093 34.5826H310.637C310.669 33.6706 310.061 33.1746 309.277 33.1746C308.413 33.1746 307.853 33.7186 307.853 34.4546C307.853 35.1106 308.221 35.6546 309.005 36.4866L312.333 39.8306C312.429 39.6866 312.525 39.5426 312.621 39.3826L313.709 37.5586H315.277L313.965 39.8306C313.757 40.1986 313.549 40.5186 313.325 40.8386L315.837 43.3506H313.933L312.477 41.8786C311.405 42.9986 310.205 43.5426 308.637 43.5426C306.317 43.5426 304.733 42.2146 304.733 40.1506C304.733 38.6146 305.613 37.3826 307.357 36.6946C306.669 35.8946 306.397 35.2706 306.397 34.4546C306.397 33.0306 307.533 31.9746 309.341 31.9746C311.101 31.9746 312.173 33.0946 312.093 34.5826ZM308.637 42.2946C309.789 42.2946 310.685 41.8466 311.517 40.9186L308.237 37.6226C306.845 38.1506 306.189 38.9826 306.189 40.1026C306.189 41.3506 307.181 42.2946 308.637 42.2946ZM328.714 40.3106C328.714 41.8946 327.418 43.4626 325.002 43.4626C322.762 43.4626 321.178 42.2146 321.146 40.3746H322.698C322.794 41.3026 323.45 42.2306 325.002 42.2306C326.41 42.2306 327.242 41.4306 327.242 40.3746C327.242 37.3666 321.21 39.2866 321.21 35.1426C321.21 33.3026 322.698 32.0546 324.906 32.0546C327.034 32.0546 328.426 33.2226 328.602 34.9186H327.002C326.906 34.1666 326.202 33.3186 324.842 33.3026C323.642 33.2706 322.698 33.8946 322.698 35.0946C322.698 37.9746 328.714 36.1826 328.714 40.3106ZM343.513 43.3506V38.3906C343.513 36.5986 342.553 35.6866 341.113 35.6866C339.641 35.6866 338.633 36.6306 338.633 38.5186V43.3506H337.193V38.3906C337.193 36.5986 336.233 35.6866 334.793 35.6866C333.321 35.6866 332.313 36.6306 332.313 38.5186V43.3506H330.857V34.5826H332.313V35.8466C332.889 34.9186 333.929 34.4226 335.081 34.4226C336.521 34.4226 337.721 35.0626 338.297 36.3746C338.809 35.1106 340.057 34.4226 341.401 34.4226C343.401 34.4226 344.953 35.6706 344.953 38.1826V43.3506H343.513ZM346.797 38.9346C346.797 36.1986 348.605 34.4386 350.957 34.4386C352.589 34.4386 353.709 35.2706 354.221 36.1826V34.5826H355.693V43.3506H354.221V41.7186C353.693 42.6626 352.557 43.4946 350.941 43.4946C348.605 43.4946 346.797 41.6546 346.797 38.9346ZM354.221 38.9506C354.221 36.9186 352.845 35.7026 351.245 35.7026C349.645 35.7026 348.285 36.8706 348.285 38.9346C348.285 40.9986 349.645 42.2146 351.245 42.2146C352.845 42.2146 354.221 41.0146 354.221 38.9506ZM359.61 38.5826V43.3506H358.154V34.5826H359.61V36.0066C360.106 35.0306 361.05 34.4226 362.442 34.4226V35.9266H362.058C360.666 35.9266 359.61 36.5506 359.61 38.5826ZM364.443 40.9506V35.7826H363.307V34.5826H364.443V32.3746H365.899V34.5826H368.187V35.7826H365.899V40.9506C365.899 41.8146 366.219 42.1186 367.115 42.1186H368.187V43.3506H366.875C365.323 43.3506 364.443 42.7106 364.443 40.9506ZM376.472 43.3666L373.352 32.1986H374.904L377.336 41.6546L380.024 32.1986H381.656L384.216 41.6226L386.664 32.1986H388.232L385 43.3506H383.368L380.776 34.3746L378.088 43.3506L376.472 43.3666ZM391.282 38.5826V43.3506H389.826V34.5826H391.282V36.0066C391.778 35.0306 392.722 34.4226 394.114 34.4226V35.9266H393.73C392.338 35.9266 391.282 36.5506 391.282 38.5826ZM395.794 43.3506V34.5826H397.25V43.3506H395.794ZM396.546 33.1586C395.986 33.1586 395.554 32.7266 395.554 32.1666C395.554 31.6066 395.986 31.1746 396.546 31.1746C397.074 31.1746 397.506 31.6066 397.506 32.1666C397.506 32.7266 397.074 33.1586 396.546 33.1586ZM400.052 40.9506V35.7826H398.916V34.5826H400.052V32.3746H401.508V34.5826H403.796V35.7826H401.508V40.9506C401.508 41.8146 401.828 42.1186 402.724 42.1186H403.796V43.3506H402.484C400.932 43.3506 400.052 42.7106 400.052 40.9506ZM405.56 43.3506V34.5826H407.016V43.3506H405.56ZM406.312 33.1586C405.752 33.1586 405.32 32.7266 405.32 32.1666C405.32 31.6066 405.752 31.1746 406.312 31.1746C406.84 31.1746 407.272 31.6066 407.272 32.1666C407.272 32.7266 406.84 33.1586 406.312 33.1586ZM415.914 43.3506V38.3906C415.914 36.5986 414.938 35.6866 413.466 35.6866C411.978 35.6866 410.954 36.6146 410.954 38.5026V43.3506H409.498V34.5826H410.954V35.8306C411.53 34.9186 412.586 34.4226 413.77 34.4226C415.802 34.4226 417.354 35.6706 417.354 38.1826V43.3506H415.914ZM419.188 38.9346C419.188 36.1986 420.996 34.4386 423.348 34.4386C424.948 34.4386 426.1 35.2386 426.612 36.1826V34.5826H428.084V43.5426C428.084 45.9586 426.468 47.6706 423.892 47.6706C421.588 47.6706 419.94 46.5026 419.652 44.6306H421.092C421.412 45.6866 422.452 46.4066 423.892 46.4066C425.444 46.4066 426.612 45.4146 426.612 43.5426V41.7026C426.084 42.6466 424.948 43.4946 423.348 43.4946C420.996 43.4946 419.188 41.6546 419.188 38.9346ZM426.612 38.9506C426.612 36.9186 425.236 35.7026 423.636 35.7026C422.036 35.7026 420.676 36.8706 420.676 38.9346C420.676 40.9986 422.036 42.2146 423.636 42.2146C425.236 42.2146 426.612 41.0146 426.612 38.9506Z" fill="white"/>
<defs>
<linearGradient id="paint0_linear_1997_3930" x1="462" y1="69.3399" x2="117.973" y2="-166.633" gradientUnits="userSpaceOnUse">
<stop offset="0.254808" stop-color="#464646"/>
<stop offset="1" stop-color="#8C8C4C"/>
</linearGradient>
<linearGradient id="paint1_linear_1997_3930" x1="132.143" y1="0.350586" x2="165.119" y2="119.821" gradientUnits="userSpaceOnUse">
<stop stop-color="#9F9F00"/>
<stop offset="0.509615" stop-color="#4D4D00"/>
</linearGradient>
</defs>
</svg>
