<svg width="371" height="285" viewBox="0 0 371 285" fill="none" xmlns="http://www.w3.org/2000/svg">
<g filter="url(#filter0_d_2094_13640)">
<path d="M26.5 26.3503C26.5 20.8275 30.9772 16.3503 36.5 16.3503H334.5C340.023 16.3503 344.5 20.8275 344.5 26.3503V238.35C344.5 243.873 340.023 248.35 334.5 248.35H36.5C30.9771 248.35 26.5 243.873 26.5 238.35V26.3503Z" fill="url(#paint0_linear_2094_13640)" fill-opacity="0.6" shape-rendering="crispEdges"/>
<path d="M36.5 16.8503H334.5C339.747 16.8503 344 21.1036 344 26.3503V238.35C344 243.597 339.747 247.85 334.5 247.85H36.5C31.2533 247.85 27 243.597 27 238.35V26.3503L27.0127 25.8611C27.2673 20.8418 31.4174 16.8503 36.5 16.8503Z" stroke="url(#paint1_linear_2094_13640)" shape-rendering="crispEdges"/>
<path fill-rule="evenodd" clip-rule="evenodd" d="M62.3274 64.1677C62.1052 64.1677 61.9258 63.9882 61.9258 63.766V61.3563C61.9258 61.1341 62.1052 60.9546 62.3274 60.9546C62.5496 60.9546 62.729 61.1341 62.729 61.3563V63.766C62.729 63.9797 62.5496 64.1677 62.3274 64.1677ZM80.6741 64.1677C80.4519 64.1677 80.2725 63.9882 80.2725 63.766V57.5793H66.5146C66.2924 57.5793 66.113 57.3998 66.113 57.1776C66.113 56.9555 66.2924 56.776 66.5146 56.776H80.6826C80.9048 56.776 81.0843 56.9555 81.0843 57.1776V63.766C81.0843 63.9797 80.9048 64.1677 80.6741 64.1677ZM80.6741 81.9418H62.3274C62.1052 81.9418 61.9258 81.7624 61.9258 81.5402V65.9365C61.9258 65.7144 62.1052 65.5349 62.3274 65.5349C62.5496 65.5349 62.729 65.7144 62.729 65.9365V81.13H80.2725V65.9365C80.2725 65.7144 80.4519 65.5349 80.6741 65.5349C80.8963 65.5349 81.0757 65.7144 81.0757 65.9365V81.5402C81.0843 81.7624 80.9048 81.9418 80.6741 81.9418Z" fill="#FFFF00"/>
<path fill-rule="evenodd" clip-rule="evenodd" d="M65.4122 68.466H64.3782C64.156 68.466 63.9766 68.2865 63.9766 68.0643C63.9766 67.8422 64.156 67.6627 64.3782 67.6627H65.4122C65.6343 67.6627 65.8138 67.8422 65.8138 68.0643C65.8138 68.2865 65.6343 68.466 65.4122 68.466ZM78.6317 68.466H66.899C66.6769 68.466 66.4974 68.2865 66.4974 68.0643C66.4974 67.8422 66.6769 67.6627 66.899 67.6627H78.6232C78.8453 67.6627 79.0248 67.8422 79.0248 68.0643C79.0333 68.2865 78.8539 68.466 78.6317 68.466Z" fill="#FFFF00"/>
<path fill-rule="evenodd" clip-rule="evenodd" d="M65.4122 71.8499H64.3782C64.156 71.8499 63.9766 71.6704 63.9766 71.4483C63.9766 71.2261 64.156 71.0466 64.3782 71.0466H65.4122C65.6343 71.0466 65.8138 71.2261 65.8138 71.4483C65.8138 71.6704 65.6343 71.8499 65.4122 71.8499ZM78.6317 71.8499H66.899C66.6769 71.8499 66.4974 71.6704 66.4974 71.4483C66.4974 71.2261 66.6769 71.0466 66.899 71.0466H78.6232C78.8453 71.0466 79.0248 71.2261 79.0248 71.4483C79.0333 71.6704 78.8539 71.8499 78.6317 71.8499Z" fill="#FFFF00"/>
<path fill-rule="evenodd" clip-rule="evenodd" d="M65.4122 75.2253H64.3782C64.156 75.2253 63.9766 75.0458 63.9766 74.8236C63.9766 74.6014 64.156 74.422 64.3782 74.422H65.4122C65.6343 74.422 65.8138 74.6014 65.8138 74.8236C65.8138 75.0458 65.6343 75.2253 65.4122 75.2253ZM78.6317 75.2253H66.899C66.6769 75.2253 66.4974 75.0458 66.4974 74.8236C66.4974 74.6014 66.6769 74.422 66.899 74.422H78.6232C78.8453 74.422 79.0248 74.6014 79.0248 74.8236C79.0333 75.0458 78.8539 75.2253 78.6317 75.2253Z" fill="#FFFF00"/>
<path fill-rule="evenodd" clip-rule="evenodd" d="M65.4122 78.6006H64.3782C64.156 78.6006 63.9766 78.4212 63.9766 78.199C63.9766 77.9768 64.156 77.7974 64.3782 77.7974H65.4122C65.6343 77.7974 65.8138 77.9768 65.8138 78.199C65.8138 78.4212 65.6343 78.6006 65.4122 78.6006ZM78.6317 78.6006H66.899C66.6769 78.6006 66.4974 78.4212 66.4974 78.199C66.4974 77.9768 66.6769 77.7974 66.899 77.7974H78.6232C78.8453 77.7974 79.0248 77.9768 79.0248 78.199C79.0333 78.4212 78.8539 78.6006 78.6317 78.6006Z" fill="#FFFF00"/>
<path fill-rule="evenodd" clip-rule="evenodd" d="M63.3012 60.9461H66.104V58.1433L63.3012 60.9461ZM66.5142 61.7579H62.327C62.1646 61.7579 62.0194 61.6554 61.951 61.5101C61.8912 61.3563 61.9254 61.1854 62.0365 61.0658L66.2236 56.8786C66.3433 56.759 66.5142 56.7248 66.668 56.7931C66.8218 56.853 66.9158 57.0068 66.9158 57.1691V61.3563C66.9158 61.5785 66.7364 61.7579 66.5142 61.7579Z" fill="#FFFF00"/>
<path fill-rule="evenodd" clip-rule="evenodd" d="M53.7727 64.7402H55.4476V53.6997C55.4476 53.4775 55.6271 53.2981 55.8492 53.2981H66.8897V51.6232H54.6102C54.1487 51.6232 53.7727 51.9992 53.7727 52.4606V64.7402ZM55.8492 65.552H53.3626C53.1404 65.552 52.9609 65.3725 52.9609 65.1504V52.4606C52.9609 51.5548 53.7044 50.8114 54.6102 50.8114H67.2999C67.5221 50.8114 67.7015 50.9909 67.7015 51.213V53.6997C67.7015 53.9219 67.5221 54.1013 67.2999 54.1013H56.2594V65.1418C56.2594 65.3725 56.08 65.552 55.8492 65.552ZM87.5522 64.7402H89.2271V52.4606C89.2271 51.9992 88.8511 51.6232 88.3896 51.6232H76.1101V53.2981H87.1506C87.3727 53.2981 87.5522 53.4775 87.5522 53.6997V64.7402ZM89.6372 65.552H87.1506C86.9284 65.552 86.7489 65.3725 86.7489 65.1504V54.1099H75.7084C75.4863 54.1099 75.3068 53.9304 75.3068 53.7082V51.2216C75.3068 50.9994 75.4863 50.8199 75.7084 50.8199H88.3982C89.304 50.8199 90.0474 51.5634 90.0474 52.4692V65.1589C90.0389 65.3725 89.8594 65.552 89.6372 65.552ZM53.7727 73.9605V86.2401C53.7727 86.7015 54.1487 87.0775 54.6102 87.0775H66.8897V85.4027H55.8578C55.6356 85.4027 55.4562 85.2232 55.4562 85.001V73.9605H53.7727ZM67.2999 87.8893H54.6102C53.7044 87.8893 52.9609 87.1459 52.9609 86.2401V73.5504C52.9609 73.3282 53.1404 73.1487 53.3626 73.1487H55.8492C56.0714 73.1487 56.2509 73.3282 56.2509 73.5504V84.5909H67.2914C67.5135 84.5909 67.693 84.7703 67.693 84.9925V87.4792C67.7015 87.7099 67.5221 87.8893 67.2999 87.8893ZM76.1101 87.0775H88.3896C88.8511 87.0775 89.2271 86.7015 89.2271 86.2401V73.9605H87.5522V85.001C87.5522 85.2232 87.3727 85.4027 87.1506 85.4027H76.1101V87.0775ZM88.3896 87.8893H75.7084C75.4863 87.8893 75.3068 87.7099 75.3068 87.4877V85.001C75.3068 84.7789 75.4863 84.5994 75.7084 84.5994H86.7489V73.5589C86.7489 73.3367 86.9284 73.1573 87.1506 73.1573H89.6372C89.8594 73.1573 90.0389 73.3367 90.0389 73.5589V86.2486C90.0389 87.1544 89.304 87.8893 88.3896 87.8893Z" fill="#FFFF00"/>
<path fill-rule="evenodd" clip-rule="evenodd" d="M60.19 65.5349H82.8093V64.1676H60.19V65.5349ZM83.2109 66.3381H59.7883C59.5662 66.3381 59.3867 66.1587 59.3867 65.9365V63.7575C59.3867 63.5353 59.5662 63.3558 59.7883 63.3558H83.2195C83.4417 63.3558 83.6211 63.5353 83.6211 63.7575V65.9365C83.6211 66.1587 83.4417 66.3381 83.2109 66.3381Z" fill="#FFFF00"/>
<path d="M62.388 183.766C62.388 187.11 59.94 189.462 56.788 189.462C53.652 189.462 51.188 187.11 51.188 183.766C51.188 180.422 53.652 178.07 56.788 178.07C59.94 178.07 62.388 180.422 62.388 183.766ZM52.676 183.766C52.676 186.486 54.436 188.198 56.788 188.198C59.14 188.198 60.9 186.486 60.9 183.766C60.9 181.03 59.14 179.334 56.788 179.334C54.436 179.334 52.676 181.03 52.676 183.766ZM63.7661 183.766C63.7661 180.422 66.2141 178.054 69.3341 178.054C71.7501 178.054 73.6701 179.27 74.5021 181.43H72.7581C72.1501 180.086 70.9661 179.334 69.3341 179.334C66.9981 179.334 65.2541 181.03 65.2541 183.766C65.2541 186.486 66.9981 188.182 69.3341 188.182C70.9661 188.182 72.1501 187.43 72.7581 186.102H74.5021C73.6701 188.246 71.7501 189.446 69.3341 189.446C66.2141 189.446 63.7661 187.11 63.7661 183.766ZM82.6375 181.478C82.6375 180.214 81.9335 179.398 80.2695 179.398H78.1255V183.622H80.2695C81.9175 183.622 82.6375 182.726 82.6375 181.478ZM76.6695 178.198H80.2695C82.8935 178.198 84.1415 179.654 84.1415 181.478C84.1415 182.902 83.3575 184.262 81.4855 184.678L84.2855 189.35H82.5415L79.8855 184.79H78.1255V189.35H76.6695V178.198ZM94.2215 179.414H95.5815V182.886H98.9895V184.118H95.5815V187.574H94.2215V184.118H90.8295V182.886H94.2215V179.414ZM113.345 189.35L112.449 186.87H107.585L106.689 189.35H105.153L109.185 178.262H110.865L114.881 189.35H113.345ZM112.033 185.686L110.017 180.054L108.001 185.686H112.033ZM116.638 189.35V178.198H118.094V189.35H116.638ZM132.617 180.582V189.35H131.161V188.054C130.601 188.966 129.529 189.478 128.361 189.478C126.345 189.478 124.761 188.23 124.761 185.718V180.582H126.201V185.526C126.201 187.302 127.177 188.214 128.649 188.214C130.153 188.214 131.161 187.286 131.161 185.398V180.582H132.617ZM141.492 189.35V184.39C141.492 182.598 140.516 181.686 139.044 181.686C137.556 181.686 136.532 182.614 136.532 184.502V189.35H135.076V180.582H136.532V181.83C137.108 180.918 138.164 180.422 139.348 180.422C141.38 180.422 142.932 181.67 142.932 184.182V189.35H141.492ZM144.766 184.934C144.766 182.198 146.574 180.438 148.942 180.438C150.318 180.438 151.582 181.142 152.19 182.15V177.51H153.662V189.35H152.19V187.702C151.662 188.678 150.526 189.494 148.926 189.494C146.574 189.494 144.766 187.654 144.766 184.934ZM152.19 184.95C152.19 182.918 150.814 181.702 149.214 181.702C147.614 181.702 146.254 182.87 146.254 184.934C146.254 186.998 147.614 188.214 149.214 188.214C150.814 188.214 152.19 187.014 152.19 184.95ZM159.851 181.67C158.427 181.67 157.243 182.614 157.083 184.326H162.619C162.635 182.614 161.355 181.67 159.851 181.67ZM163.947 186.646C163.499 188.246 162.091 189.494 159.915 189.494C157.419 189.494 155.579 187.734 155.579 184.95C155.579 182.182 157.355 180.438 159.915 180.438C162.459 180.438 164.123 182.23 164.123 184.63C164.123 184.95 164.107 185.206 164.075 185.51H157.067C157.179 187.286 158.427 188.262 159.915 188.262C161.227 188.262 162.059 187.59 162.379 186.646H163.947ZM167.501 184.582V189.35H166.045V180.582H167.501V182.006C167.997 181.03 168.941 180.422 170.333 180.422V181.926H169.949C168.557 181.926 167.501 182.55 167.501 184.582ZM178.317 186.966C178.317 188.406 177.053 189.494 175.117 189.494C173.069 189.494 171.629 188.374 171.533 186.774H173.037C173.117 187.622 173.869 188.262 175.101 188.262C176.253 188.262 176.893 187.686 176.893 186.966C176.893 185.014 171.709 186.15 171.709 182.886C171.709 181.542 172.973 180.438 174.925 180.438C176.861 180.438 178.141 181.478 178.237 183.19H176.781C176.717 182.31 176.045 181.67 174.877 181.67C173.805 181.67 173.165 182.182 173.165 182.886C173.165 184.966 178.253 183.83 178.317 186.966ZM180.693 186.95V181.782H179.557V180.582H180.693V178.374H182.149V180.582H184.437V181.782H182.149V186.95C182.149 187.814 182.469 188.118 183.365 188.118H184.437V189.35H183.125C181.573 189.35 180.693 188.71 180.693 186.95ZM185.657 184.934C185.657 182.198 187.465 180.438 189.817 180.438C191.449 180.438 192.569 181.27 193.081 182.182V180.582H194.553V189.35H193.081V187.718C192.553 188.662 191.417 189.494 189.801 189.494C187.465 189.494 185.657 187.654 185.657 184.934ZM193.081 184.95C193.081 182.918 191.705 181.702 190.105 181.702C188.505 181.702 187.145 182.87 187.145 184.934C187.145 186.998 188.505 188.214 190.105 188.214C191.705 188.214 193.081 187.014 193.081 184.95ZM203.429 189.35V184.39C203.429 182.598 202.453 181.686 200.981 181.686C199.493 181.686 198.469 182.614 198.469 184.502V189.35H197.013V180.582H198.469V181.83C199.045 180.918 200.101 180.422 201.285 180.422C203.317 180.422 204.869 181.67 204.869 184.182V189.35H203.429ZM206.704 184.934C206.704 182.198 208.512 180.438 210.88 180.438C212.256 180.438 213.52 181.142 214.128 182.15V177.51H215.6V189.35H214.128V187.702C213.6 188.678 212.464 189.494 210.864 189.494C208.512 189.494 206.704 187.654 206.704 184.934ZM214.128 184.95C214.128 182.918 212.752 181.702 211.152 181.702C209.552 181.702 208.192 182.87 208.192 184.934C208.192 186.998 209.552 188.214 211.152 188.214C212.752 188.214 214.128 187.014 214.128 184.95ZM218.06 189.35V180.582H219.516V189.35H218.06ZM218.812 179.158C218.252 179.158 217.82 178.726 217.82 178.166C217.82 177.606 218.252 177.174 218.812 177.174C219.34 177.174 219.772 177.606 219.772 178.166C219.772 178.726 219.34 179.158 218.812 179.158ZM228.414 189.35V184.39C228.414 182.598 227.438 181.686 225.966 181.686C224.478 181.686 223.454 182.614 223.454 184.502V189.35H221.998V180.582H223.454V181.83C224.03 180.918 225.086 180.422 226.27 180.422C228.302 180.422 229.854 181.67 229.854 184.182V189.35H228.414ZM231.688 184.934C231.688 182.198 233.496 180.438 235.848 180.438C237.448 180.438 238.6 181.238 239.112 182.182V180.582H240.584V189.542C240.584 191.958 238.968 193.67 236.392 193.67C234.088 193.67 232.44 192.502 232.152 190.63H233.592C233.912 191.686 234.952 192.406 236.392 192.406C237.944 192.406 239.112 191.414 239.112 189.542V187.702C238.584 188.646 237.448 189.494 235.848 189.494C233.496 189.494 231.688 187.654 231.688 184.934ZM239.112 184.95C239.112 182.918 237.736 181.702 236.136 181.702C234.536 181.702 233.176 182.87 233.176 184.934C233.176 186.998 234.536 188.214 236.136 188.214C237.736 188.214 239.112 187.014 239.112 184.95ZM255.63 184.95C255.63 187.734 253.63 189.494 251.134 189.494C248.654 189.494 246.766 187.734 246.766 184.95C246.766 182.182 248.718 180.438 251.198 180.438C253.694 180.438 255.63 182.182 255.63 184.95ZM248.254 184.95C248.254 187.174 249.614 188.214 251.134 188.214C252.654 188.214 254.142 187.174 254.142 184.95C254.142 182.742 252.686 181.702 251.182 181.702C249.646 181.702 248.254 182.742 248.254 184.95ZM257.817 189.35V181.782H256.681V180.582H257.817V179.958C257.817 178.006 258.777 177.126 261.016 177.126V178.342C259.705 178.342 259.273 178.822 259.273 179.958V180.582H261.113V181.782H259.273V189.35H257.817ZM58.036 208.966C58.036 210.406 56.772 211.494 54.836 211.494C52.788 211.494 51.348 210.374 51.252 208.774H52.756C52.836 209.622 53.588 210.262 54.82 210.262C55.972 210.262 56.612 209.686 56.612 208.966C56.612 207.014 51.428 208.15 51.428 204.886C51.428 203.542 52.692 202.438 54.644 202.438C56.58 202.438 57.86 203.478 57.956 205.19H56.5C56.436 204.31 55.764 203.67 54.596 203.67C53.524 203.67 52.884 204.182 52.884 204.886C52.884 206.966 57.972 205.83 58.036 208.966ZM59.5474 206.95C59.5474 204.198 61.3234 202.438 63.8194 202.438C65.9954 202.438 67.4194 203.558 67.8674 205.398H66.2994C65.9954 204.342 65.1154 203.67 63.8194 203.67C62.2194 203.67 61.0354 204.806 61.0354 206.95C61.0354 209.126 62.2194 210.262 63.8194 210.262C65.1154 210.262 65.9794 209.638 66.2994 208.534H67.8674C67.4194 210.278 65.9954 211.494 63.8194 211.494C61.3234 211.494 59.5474 209.734 59.5474 206.95ZM69.2661 206.934C69.2661 204.198 71.0741 202.438 73.4261 202.438C75.0581 202.438 76.1781 203.27 76.6901 204.182V202.582H78.1621V211.35H76.6901V209.718C76.1621 210.662 75.0261 211.494 73.4101 211.494C71.0741 211.494 69.2661 209.654 69.2661 206.934ZM76.6901 206.95C76.6901 204.918 75.3141 203.702 73.7141 203.702C72.1141 203.702 70.7541 204.87 70.7541 206.934C70.7541 208.998 72.1141 210.214 73.7141 210.214C75.3141 210.214 76.6901 209.014 76.6901 206.95ZM87.0386 211.35V206.39C87.0386 204.598 86.0626 203.686 84.5906 203.686C83.1026 203.686 82.0786 204.614 82.0786 206.502V211.35H80.6226V202.582H82.0786V203.83C82.6546 202.918 83.7106 202.422 84.8946 202.422C86.9266 202.422 88.4786 203.67 88.4786 206.182V211.35H87.0386ZM97.273 211.35V206.39C97.273 204.598 96.297 203.686 94.825 203.686C93.337 203.686 92.313 204.614 92.313 206.502V211.35H90.857V202.582H92.313V203.83C92.889 202.918 93.945 202.422 95.129 202.422C97.161 202.422 98.713 203.67 98.713 206.182V211.35H97.273ZM104.819 203.67C103.395 203.67 102.211 204.614 102.051 206.326H107.587C107.603 204.614 106.323 203.67 104.819 203.67ZM108.915 208.646C108.467 210.246 107.059 211.494 104.883 211.494C102.387 211.494 100.547 209.734 100.547 206.95C100.547 204.182 102.323 202.438 104.883 202.438C107.427 202.438 109.091 204.23 109.091 206.63C109.091 206.95 109.075 207.206 109.043 207.51H102.035C102.147 209.286 103.395 210.262 104.883 210.262C106.195 210.262 107.027 209.59 107.347 208.646H108.915ZM110.469 206.934C110.469 204.198 112.277 202.438 114.645 202.438C116.021 202.438 117.285 203.142 117.893 204.15V199.51H119.365V211.35H117.893V209.702C117.365 210.678 116.229 211.494 114.629 211.494C112.277 211.494 110.469 209.654 110.469 206.934ZM117.893 206.95C117.893 204.918 116.517 203.702 114.917 203.702C113.317 203.702 111.957 204.87 111.957 206.934C111.957 208.998 113.317 210.214 114.917 210.214C116.517 210.214 117.893 209.014 117.893 206.95ZM126.363 211.35V203.782H125.227V202.582H126.363V201.958C126.363 200.006 127.323 199.126 129.563 199.126V200.342C128.251 200.342 127.819 200.822 127.819 201.958V202.582H129.659V203.782H127.819V211.35H126.363ZM131.357 211.35V202.582H132.813V211.35H131.357ZM132.109 201.158C131.549 201.158 131.117 200.726 131.117 200.166C131.117 199.606 131.549 199.174 132.109 199.174C132.637 199.174 133.069 199.606 133.069 200.166C133.069 200.726 132.637 201.158 132.109 201.158ZM135.295 211.35V199.51H136.751V211.35H135.295ZM142.96 203.67C141.536 203.67 140.352 204.614 140.192 206.326H145.728C145.744 204.614 144.464 203.67 142.96 203.67ZM147.056 208.646C146.608 210.246 145.2 211.494 143.024 211.494C140.528 211.494 138.688 209.734 138.688 206.95C138.688 204.182 140.464 202.438 143.024 202.438C145.568 202.438 147.232 204.23 147.232 206.63C147.232 206.95 147.216 207.206 147.184 207.51H140.176C140.288 209.286 141.536 210.262 143.024 210.262C144.336 210.262 145.168 209.59 145.488 208.646H147.056ZM155.458 208.966C155.458 210.406 154.194 211.494 152.258 211.494C150.21 211.494 148.77 210.374 148.674 208.774H150.178C150.258 209.622 151.01 210.262 152.242 210.262C153.394 210.262 154.034 209.686 154.034 208.966C154.034 207.014 148.85 208.15 148.85 204.886C148.85 203.542 150.114 202.438 152.066 202.438C154.002 202.438 155.282 203.478 155.378 205.19H153.922C153.858 204.31 153.186 203.67 152.018 203.67C150.946 203.67 150.306 204.182 150.306 204.886C150.306 206.966 155.394 205.83 155.458 208.966Z" fill="#E6E6E6"/>
</g>
<defs>
<filter id="filter0_d_2094_13640" x="0.5" y="0.350342" width="370" height="284" filterUnits="userSpaceOnUse" color-interpolation-filters="sRGB">
<feFlood flood-opacity="0" result="BackgroundImageFix"/>
<feColorMatrix in="SourceAlpha" type="matrix" values="0 0 0 0 0 0 0 0 0 0 0 0 0 0 0 0 0 0 127 0" result="hardAlpha"/>
<feOffset dy="10"/>
<feGaussianBlur stdDeviation="13"/>
<feComposite in2="hardAlpha" operator="out"/>
<feColorMatrix type="matrix" values="0 0 0 0 0 0 0 0 0 0 0 0 0 0 0 0 0 0 0.2 0"/>
<feBlend mode="normal" in2="BackgroundImageFix" result="effect1_dropShadow_2094_13640"/>
<feBlend mode="normal" in="SourceGraphic" in2="effect1_dropShadow_2094_13640" result="shape"/>
</filter>
<linearGradient id="paint0_linear_2094_13640" x1="344.5" y1="232.641" x2="4.01557" y2="181.367" gradientUnits="userSpaceOnUse">
<stop offset="0.254808" stop-color="#464646"/>
<stop offset="1" stop-color="#43430D"/>
</linearGradient>
<linearGradient id="paint1_linear_2094_13640" x1="117.456" y1="16.3503" x2="313.834" y2="172.553" gradientUnits="userSpaceOnUse">
<stop stop-color="#9F9F00"/>
<stop offset="0.509615" stop-color="#4D4D00"/>
</linearGradient>
</defs>
</svg>
