<svg width="352" height="319" viewBox="0 0 352 319" fill="none" xmlns="http://www.w3.org/2000/svg">
<g filter="url(#filter0_d_2078_5222)">
<path d="M26 26.3503C26 20.8275 30.4772 16.3503 36 16.3503H316C321.523 16.3503 326 20.8275 326 26.3503V272.35C326 277.873 321.523 282.35 316 282.35H36C30.4772 282.35 26 277.873 26 272.35V26.3503Z" fill="url(#paint0_linear_2078_5222)" fill-opacity="0.6" shape-rendering="crispEdges"/>
<path d="M36 16.8503H316C321.247 16.8503 325.5 21.1036 325.5 26.3503V272.35C325.5 277.597 321.247 281.85 316 281.85H36C30.7533 281.85 26.5 277.597 26.5 272.35V26.3503C26.5 21.1036 30.7533 16.8503 36 16.8503Z" stroke="url(#paint1_linear_2078_5222)" shape-rendering="crispEdges"/>
<rect x="50" y="48.3503" width="74" height="74" rx="37" stroke="#FFFF00" stroke-width="1.5"/>
<g clip-path="url(#clip0_2078_5222)">
<path fill-rule="evenodd" clip-rule="evenodd" d="M81.9141 96.1785C77.6484 96.1785 73.7109 94.5378 70.6758 91.5027C67.6406 88.4675 66 84.53 66 80.2644C66 75.9988 67.6406 72.0613 70.6758 69.0261C73.7109 65.991 77.6484 64.3503 81.9141 64.3503C86.1797 64.3503 90.1172 65.991 93.1523 69.0261C96.1055 72.0613 97.8281 75.9988 97.8281 80.2644C97.8281 84.448 96.1055 88.4675 93.1523 91.5027C90.1172 94.5378 86.1797 96.1785 81.9141 96.1785ZM81.9141 65.4988C78.1406 65.4988 74.3672 66.9753 71.4961 69.8464C65.7539 75.5886 65.7539 84.9402 71.4961 90.6824C77.2383 96.4246 86.5898 96.4246 92.332 90.6824C98.0742 84.9402 98.0742 75.5886 92.332 69.8464C89.4609 66.9753 85.6875 65.4988 81.9141 65.4988Z" fill="#FFFF00"/>
<path fill-rule="evenodd" clip-rule="evenodd" d="M104.556 106.35C103.653 106.35 102.833 106.022 102.095 105.366L93.6455 96.9167C93.3994 96.6707 93.3994 96.3425 93.6455 96.0964L97.7471 91.9949C97.9932 91.7488 98.3213 91.7488 98.5674 91.9949L107.017 100.444C108.329 101.839 108.329 103.971 107.017 105.366C106.278 106.022 105.458 106.35 104.556 106.35ZM102.915 104.546C103.817 105.366 105.294 105.366 106.196 104.546C107.017 103.643 107.017 102.167 106.196 101.264L98.1572 93.2253L94.876 96.5066L102.915 104.546Z" fill="#FFFF00"/>
<path fill-rule="evenodd" clip-rule="evenodd" d="M96.1064 95.03C95.9424 95.03 95.7783 94.948 95.6963 94.866L92.333 91.5027C92.0869 91.2566 92.0869 90.9285 92.333 90.6824C92.5791 90.4363 92.9072 90.4363 93.1533 90.6824L96.5166 94.0457C96.7627 94.2917 96.7627 94.6199 96.5166 94.866C96.4346 94.948 96.2705 95.03 96.1064 95.03Z" fill="#FFFF00"/>
<path fill-rule="evenodd" clip-rule="evenodd" d="M81.9141 93.3894C81.832 93.3894 81.832 93.3894 81.832 93.3894C78.3047 93.3894 75.1055 91.9949 72.6445 89.5339C70.1016 86.991 68.7891 83.7097 68.7891 80.1824C68.7891 76.655 70.1836 73.4558 72.6445 70.9949C75.1055 68.5339 78.3047 67.1394 81.832 67.1394C85.3594 67.1394 88.6406 68.4519 91.1836 70.9949C93.6445 73.4558 95.0391 76.655 95.0391 80.1824C95.0391 83.7097 93.6445 86.991 91.1836 89.5339C88.7227 91.9949 85.3594 93.3894 81.9141 93.3894ZM81.9141 68.2878C81.832 68.2878 81.832 68.2878 81.832 68.2878C78.6328 68.2878 75.6797 69.5183 73.4648 71.8152C71.168 74.03 69.9375 76.9832 69.9375 80.1824C69.9375 83.3816 71.168 86.4167 73.4648 88.7136C75.6797 91.0105 78.6328 92.241 81.832 92.241H81.9141C85.1133 92.241 88.0664 91.0105 90.3633 88.7136C92.6602 86.4167 93.8906 83.3816 93.8906 80.1824C93.8906 76.9832 92.5781 74.03 90.3633 71.8152C88.0664 69.5183 85.1133 68.2878 81.9141 68.2878Z" fill="#FFFF00"/>
<path fill-rule="evenodd" clip-rule="evenodd" d="M80.4375 90.0261C80.3555 90.0261 80.2734 90.0261 80.1914 89.9441C80.0273 89.8621 79.8633 89.698 79.8633 89.4519V87.6472H75.9258C75.0234 87.6472 74.2852 86.9089 74.2852 86.0066V74.03C74.2852 73.1277 75.0234 72.3894 75.9258 72.3894H87.9023C88.8047 72.3894 89.543 73.1277 89.543 74.03V86.0066C89.543 86.9089 88.8047 87.6472 87.9023 87.6472H83.5547L80.7656 89.8621C80.6836 89.9441 80.6016 90.0261 80.4375 90.0261ZM75.9258 73.5378C75.6797 73.5378 75.4336 73.7839 75.4336 74.03V86.0066C75.4336 86.2527 75.6797 86.4988 75.9258 86.4988H80.4375C80.7656 86.4988 81.0117 86.7449 81.0117 87.073V88.2214L83.0625 86.6628C83.1445 86.5808 83.2266 86.4988 83.3906 86.4988H87.9023C88.1484 86.4988 88.3945 86.2527 88.3945 86.0066V74.03C88.3945 73.7839 88.1484 73.5378 87.9023 73.5378H75.9258Z" fill="#FFFF00"/>
<path fill-rule="evenodd" clip-rule="evenodd" d="M86.0977 77.8855H77.7305C77.4023 77.8855 77.1562 77.6394 77.1562 77.3113C77.1562 76.9832 77.4023 76.7371 77.7305 76.7371H86.0977C86.4258 76.7371 86.6719 76.9832 86.6719 77.3113C86.6719 77.6394 86.4258 77.8855 86.0977 77.8855Z" fill="#FFFF00"/>
<path fill-rule="evenodd" clip-rule="evenodd" d="M78.8783 84.9402C78.7143 84.9402 78.4682 84.8582 78.3861 84.6941C78.2221 84.366 78.3041 84.0379 78.5502 83.8738C82.7338 81.4949 83.6361 77.2293 83.6361 77.2293C83.7182 76.9012 83.9643 76.6551 84.2924 76.7371C84.6205 76.8191 84.7846 77.0652 84.7846 77.3933C84.7025 77.6394 83.7182 82.2332 79.1244 84.8582C79.0424 84.9402 78.9604 84.9402 78.8783 84.9402Z" fill="#FFFF00"/>
<path fill-rule="evenodd" clip-rule="evenodd" d="M84.9495 84.9402C84.8675 84.9402 84.7854 84.9402 84.6214 84.8582C80.0276 82.2332 79.1253 77.6394 79.0432 77.3933C78.9612 77.1472 79.2073 76.8191 79.5354 76.7371C79.7815 76.6551 80.1096 76.9012 80.1917 77.2293C80.1917 77.2293 81.094 81.4949 85.1956 83.8738C85.5237 84.0379 85.6057 84.366 85.4417 84.6941C85.3596 84.8582 85.1136 84.9402 84.9495 84.9402Z" fill="#FFFF00"/>
<path fill-rule="evenodd" clip-rule="evenodd" d="M81.9141 77.8855C81.5859 77.8855 81.3398 77.6394 81.3398 77.3113V75.5066C81.3398 75.1785 81.5859 74.9324 81.9141 74.9324C82.2422 74.9324 82.4883 75.1785 82.4883 75.5066V77.3113C82.4883 77.6394 82.2422 77.8855 81.9141 77.8855Z" fill="#FFFF00"/>
</g>
<path d="M67.48 184.3C67.48 186.386 66.8207 188.195 65.502 189.728L67.158 191.453L64.904 193.454L63.156 191.637C61.914 192.327 60.5647 192.672 59.108 192.672C56.7927 192.672 54.8223 191.867 53.197 190.257C51.5717 188.632 50.759 186.646 50.759 184.3C50.759 181.954 51.5717 179.976 53.197 178.366C54.8223 176.741 56.7927 175.928 59.108 175.928C61.4233 175.928 63.3937 176.741 65.019 178.366C66.6597 179.976 67.48 181.954 67.48 184.3ZM59.108 189.567C59.706 189.567 60.304 189.468 60.902 189.268L58.257 186.508L60.511 184.507L63.34 187.451C63.984 186.531 64.306 185.481 64.306 184.3C64.306 182.767 63.8077 181.502 62.811 180.505C61.8143 179.509 60.58 179.01 59.108 179.01C57.636 179.01 56.4017 179.509 55.405 180.505C54.4083 181.502 53.91 182.767 53.91 184.3C53.91 185.818 54.4083 187.076 55.405 188.072C56.4017 189.069 57.636 189.567 59.108 189.567ZM77.3874 180.85H80.3544V192.35H77.3874V191.062C76.6668 192.136 75.5244 192.672 73.9604 192.672C72.7031 192.672 71.6604 192.251 70.8324 191.407C70.0198 190.564 69.6134 189.399 69.6134 187.911V180.85H72.5804V187.543C72.5804 188.31 72.7874 188.9 73.2014 189.314C73.6154 189.713 74.1674 189.912 74.8574 189.912C75.6241 189.912 76.2374 189.675 76.6974 189.199C77.1574 188.724 77.3874 188.011 77.3874 187.06V180.85ZM85.5788 187.819C85.9775 189.261 87.0585 189.981 88.8218 189.981C89.9565 189.981 90.8152 189.598 91.3978 188.831L93.7898 190.211C92.6552 191.852 90.9838 192.672 88.7758 192.672C86.8745 192.672 85.3488 192.097 84.1988 190.947C83.0488 189.797 82.4738 188.348 82.4738 186.6C82.4738 184.868 83.0412 183.426 84.1758 182.276C85.3105 181.111 86.7672 180.528 88.5458 180.528C90.2325 180.528 91.6202 181.111 92.7088 182.276C93.8128 183.442 94.3648 184.883 94.3648 186.6C94.3648 186.984 94.3265 187.39 94.2498 187.819H85.5788ZM85.5328 185.519H91.3978C91.2292 184.737 90.8765 184.155 90.3398 183.771C89.8185 183.388 89.2205 183.196 88.5458 183.196C87.7485 183.196 87.0892 183.403 86.5678 183.817C86.0465 184.216 85.7015 184.783 85.5328 185.519ZM99.4031 182.828C99.6791 182.092 100.131 181.54 100.76 181.172C101.404 180.804 102.117 180.62 102.899 180.62V183.932C101.994 183.825 101.182 184.009 100.461 184.484C99.7558 184.96 99.4031 185.749 99.4031 186.853V192.35H96.4361V180.85H99.4031V182.828ZM112.379 180.85H115.553L111.367 192.35C110.769 194.006 109.972 195.202 108.975 195.938C107.994 196.69 106.767 197.027 105.295 196.95V194.19C106.093 194.206 106.721 194.037 107.181 193.684C107.657 193.332 108.032 192.764 108.308 191.982L103.593 180.85H106.836L109.826 188.578L112.379 180.85ZM128.35 192.672C126.756 192.672 125.414 192.32 124.325 191.614C123.237 190.894 122.47 189.92 122.025 188.693L124.739 187.106C125.368 188.747 126.602 189.567 128.442 189.567C129.332 189.567 129.983 189.406 130.397 189.084C130.811 188.762 131.018 188.356 131.018 187.865C131.018 187.298 130.765 186.861 130.259 186.554C129.753 186.232 128.849 185.887 127.545 185.519C126.825 185.305 126.211 185.09 125.705 184.875C125.215 184.661 124.716 184.377 124.21 184.024C123.72 183.656 123.344 183.196 123.083 182.644C122.823 182.092 122.692 181.448 122.692 180.712C122.692 179.256 123.206 178.098 124.233 177.239C125.276 176.365 126.526 175.928 127.982 175.928C129.286 175.928 130.428 176.25 131.409 176.894C132.406 177.523 133.18 178.405 133.732 179.539L131.064 181.08C130.42 179.7 129.393 179.01 127.982 179.01C127.323 179.01 126.802 179.164 126.418 179.47C126.05 179.762 125.866 180.145 125.866 180.62C125.866 181.126 126.073 181.54 126.487 181.862C126.917 182.169 127.729 182.506 128.925 182.874C129.416 183.028 129.784 183.15 130.029 183.242C130.29 183.319 130.635 183.449 131.064 183.633C131.509 183.802 131.846 183.963 132.076 184.116C132.322 184.27 132.598 184.477 132.904 184.737C133.211 184.998 133.441 185.266 133.594 185.542C133.763 185.818 133.901 186.156 134.008 186.554C134.131 186.938 134.192 187.359 134.192 187.819C134.192 189.307 133.648 190.487 132.559 191.361C131.486 192.235 130.083 192.672 128.35 192.672ZM138.946 187.819C139.345 189.261 140.426 189.981 142.189 189.981C143.324 189.981 144.182 189.598 144.765 188.831L147.157 190.211C146.022 191.852 144.351 192.672 142.143 192.672C140.242 192.672 138.716 192.097 137.566 190.947C136.416 189.797 135.841 188.348 135.841 186.6C135.841 184.868 136.408 183.426 137.543 182.276C138.678 181.111 140.134 180.528 141.913 180.528C143.6 180.528 144.987 181.111 146.076 182.276C147.18 183.442 147.732 184.883 147.732 186.6C147.732 186.984 147.694 187.39 147.617 187.819H138.946ZM138.9 185.519H144.765C144.596 184.737 144.244 184.155 143.707 183.771C143.186 183.388 142.588 183.196 141.913 183.196C141.116 183.196 140.456 183.403 139.935 183.817C139.414 184.216 139.069 184.783 138.9 185.519ZM158.453 180.85H161.42V192.35H158.453V190.993C157.564 192.113 156.314 192.672 154.704 192.672C153.171 192.672 151.852 192.09 150.748 190.924C149.66 189.744 149.115 188.302 149.115 186.6C149.115 184.898 149.66 183.465 150.748 182.299C151.852 181.119 153.171 180.528 154.704 180.528C156.314 180.528 157.564 181.088 158.453 182.207V180.85ZM152.979 188.946C153.577 189.544 154.336 189.843 155.256 189.843C156.176 189.843 156.935 189.544 157.533 188.946C158.147 188.333 158.453 187.551 158.453 186.6C158.453 185.65 158.147 184.875 157.533 184.277C156.935 183.664 156.176 183.357 155.256 183.357C154.336 183.357 153.577 183.664 152.979 184.277C152.381 184.875 152.082 185.65 152.082 186.6C152.082 187.551 152.381 188.333 152.979 188.946ZM167.078 182.828C167.354 182.092 167.806 181.54 168.435 181.172C169.079 180.804 169.792 180.62 170.574 180.62V183.932C169.669 183.825 168.857 184.009 168.136 184.484C167.431 184.96 167.078 185.749 167.078 186.853V192.35H164.111V180.85H167.078V182.828ZM177.356 192.672C175.624 192.672 174.175 192.09 173.009 190.924C171.859 189.759 171.284 188.318 171.284 186.6C171.284 184.883 171.859 183.442 173.009 182.276C174.175 181.111 175.624 180.528 177.356 180.528C178.476 180.528 179.495 180.797 180.415 181.333C181.335 181.87 182.033 182.591 182.508 183.495L179.955 184.99C179.725 184.515 179.373 184.139 178.897 183.863C178.437 183.587 177.916 183.449 177.333 183.449C176.444 183.449 175.708 183.748 175.125 184.346C174.543 184.929 174.251 185.68 174.251 186.6C174.251 187.505 174.543 188.256 175.125 188.854C175.708 189.437 176.444 189.728 177.333 189.728C177.931 189.728 178.46 189.598 178.92 189.337C179.396 189.061 179.748 188.686 179.978 188.21L182.554 189.682C182.048 190.587 181.335 191.315 180.415 191.867C179.495 192.404 178.476 192.672 177.356 192.672ZM190.518 180.528C191.775 180.528 192.81 180.95 193.623 181.793C194.451 182.637 194.865 183.802 194.865 185.289V192.35H191.898V185.657C191.898 184.891 191.691 184.308 191.277 183.909C190.863 183.495 190.311 183.288 189.621 183.288C188.854 183.288 188.241 183.526 187.781 184.001C187.321 184.477 187.091 185.19 187.091 186.14V192.35H184.124V176.25H187.091V182.138C187.811 181.065 188.954 180.528 190.518 180.528Z" fill="white"/>
<path d="M51.2 219.238V212.198H52.656V219.254C52.656 221.302 53.76 222.182 55.408 222.182C57.056 222.182 58.144 221.302 58.144 219.254V212.198H59.6V219.238C59.6 222.134 57.696 223.462 55.392 223.462C53.088 223.462 51.2 222.134 51.2 219.238ZM68.3329 220.966C68.3329 222.406 67.0689 223.494 65.1329 223.494C63.0849 223.494 61.6449 222.374 61.5489 220.774H63.0529C63.1329 221.622 63.8849 222.262 65.1169 222.262C66.2689 222.262 66.9089 221.686 66.9089 220.966C66.9089 219.014 61.7249 220.15 61.7249 216.886C61.7249 215.542 62.9889 214.438 64.9409 214.438C66.8769 214.438 68.1569 215.478 68.2529 217.19H66.7969C66.7329 216.31 66.0609 215.67 64.8929 215.67C63.8209 215.67 63.1809 216.182 63.1809 216.886C63.1809 218.966 68.2689 217.83 68.3329 220.966ZM74.1163 215.67C72.6923 215.67 71.5082 216.614 71.3483 218.326H76.8843C76.9003 216.614 75.6203 215.67 74.1163 215.67ZM78.2123 220.646C77.7643 222.246 76.3563 223.494 74.1803 223.494C71.6843 223.494 69.8443 221.734 69.8443 218.95C69.8443 216.182 71.6203 214.438 74.1803 214.438C76.7243 214.438 78.3883 216.23 78.3883 218.63C78.3883 218.95 78.3723 219.206 78.3403 219.51H71.3323C71.4443 221.286 72.6923 222.262 74.1803 222.262C75.4923 222.262 76.3243 221.59 76.6443 220.646H78.2123ZM81.7661 218.582V223.35H80.3101V214.582H81.7661V216.006C82.2621 215.03 83.2061 214.422 84.5981 214.422V215.926H84.2141C82.8221 215.926 81.7661 216.55 81.7661 218.582ZM92.5829 220.966C92.5829 222.406 91.3189 223.494 89.3829 223.494C87.3349 223.494 85.8949 222.374 85.7989 220.774H87.3029C87.3829 221.622 88.1349 222.262 89.3669 222.262C90.5189 222.262 91.1589 221.686 91.1589 220.966C91.1589 219.014 85.9749 220.15 85.9749 216.886C85.9749 215.542 87.2389 214.438 89.1909 214.438C91.1269 214.438 92.4069 215.478 92.5029 217.19H91.0469C90.9829 216.31 90.3109 215.67 89.1429 215.67C88.0709 215.67 87.4309 216.182 87.4309 216.886C87.4309 218.966 92.5189 217.83 92.5829 220.966ZM105.208 220.966C105.208 222.406 103.944 223.494 102.008 223.494C99.9599 223.494 98.5199 222.374 98.4239 220.774H99.9279C100.008 221.622 100.76 222.262 101.992 222.262C103.144 222.262 103.784 221.686 103.784 220.966C103.784 219.014 98.5999 220.15 98.5999 216.886C98.5999 215.542 99.8639 214.438 101.816 214.438C103.752 214.438 105.032 215.478 105.128 217.19H103.672C103.608 216.31 102.936 215.67 101.768 215.67C100.696 215.67 100.056 216.182 100.056 216.886C100.056 218.966 105.144 217.83 105.208 220.966ZM110.991 215.67C109.567 215.67 108.383 216.614 108.223 218.326H113.759C113.775 216.614 112.495 215.67 110.991 215.67ZM115.087 220.646C114.639 222.246 113.231 223.494 111.055 223.494C108.559 223.494 106.719 221.734 106.719 218.95C106.719 216.182 108.495 214.438 111.055 214.438C113.599 214.438 115.263 216.23 115.263 218.63C115.263 218.95 115.247 219.206 115.215 219.51H108.207C108.319 221.286 109.567 222.262 111.055 222.262C112.367 222.262 113.199 221.59 113.519 220.646H115.087ZM116.641 218.934C116.641 216.198 118.449 214.438 120.801 214.438C122.433 214.438 123.553 215.27 124.065 216.182V214.582H125.537V223.35H124.065V221.718C123.537 222.662 122.401 223.494 120.785 223.494C118.449 223.494 116.641 221.654 116.641 218.934ZM124.065 218.95C124.065 216.918 122.689 215.702 121.089 215.702C119.489 215.702 118.129 216.87 118.129 218.934C118.129 220.998 119.489 222.214 121.089 222.214C122.689 222.214 124.065 221.014 124.065 218.95ZM129.454 218.582V223.35H127.998V214.582H129.454V216.006C129.95 215.03 130.894 214.422 132.286 214.422V215.926H131.902C130.51 215.926 129.454 216.55 129.454 218.582ZM133.422 218.95C133.422 216.198 135.198 214.438 137.694 214.438C139.87 214.438 141.294 215.558 141.742 217.398H140.174C139.87 216.342 138.99 215.67 137.694 215.67C136.094 215.67 134.91 216.806 134.91 218.95C134.91 221.126 136.094 222.262 137.694 222.262C138.99 222.262 139.854 221.638 140.174 220.534H141.742C141.294 222.278 139.87 223.494 137.694 223.494C135.198 223.494 133.422 221.734 133.422 218.95ZM143.685 223.35V211.51H145.141V215.846C145.717 214.918 146.805 214.422 148.037 214.422C149.989 214.422 151.541 215.67 151.541 218.182V223.35H150.101V218.39C150.101 216.598 149.125 215.686 147.653 215.686C146.165 215.686 145.141 216.614 145.141 218.502V223.35H143.685ZM165.961 214.582V223.35H164.505V222.054C163.945 222.966 162.873 223.478 161.705 223.478C159.689 223.478 158.105 222.23 158.105 219.718V214.582H159.545V219.526C159.545 221.302 160.521 222.214 161.993 222.214C163.497 222.214 164.505 221.286 164.505 219.398V214.582H165.961ZM174.724 220.966C174.724 222.406 173.46 223.494 171.524 223.494C169.476 223.494 168.036 222.374 167.94 220.774H169.444C169.524 221.622 170.276 222.262 171.508 222.262C172.66 222.262 173.3 221.686 173.3 220.966C173.3 219.014 168.116 220.15 168.116 216.886C168.116 215.542 169.38 214.438 171.332 214.438C173.268 214.438 174.548 215.478 174.644 217.19H173.188C173.124 216.31 172.452 215.67 171.284 215.67C170.212 215.67 169.572 216.182 169.572 216.886C169.572 218.966 174.66 217.83 174.724 220.966ZM176.779 223.35V214.582H178.235V223.35H176.779ZM177.531 213.158C176.971 213.158 176.539 212.726 176.539 212.166C176.539 211.606 176.971 211.174 177.531 211.174C178.059 211.174 178.491 211.606 178.491 212.166C178.491 212.726 178.059 213.158 177.531 213.158ZM187.132 223.35V218.39C187.132 216.598 186.156 215.686 184.684 215.686C183.196 215.686 182.172 216.614 182.172 218.502V223.35H180.716V214.582H182.172V215.83C182.748 214.918 183.804 214.422 184.988 214.422C187.02 214.422 188.572 215.67 188.572 218.182V223.35H187.132ZM190.407 218.934C190.407 216.198 192.215 214.438 194.567 214.438C196.167 214.438 197.319 215.238 197.831 216.182V214.582H199.303V223.542C199.303 225.958 197.687 227.67 195.111 227.67C192.807 227.67 191.159 226.502 190.871 224.63H192.311C192.631 225.686 193.671 226.406 195.111 226.406C196.663 226.406 197.831 225.414 197.831 223.542V221.702C197.303 222.646 196.167 223.494 194.567 223.494C192.215 223.494 190.407 221.654 190.407 218.934ZM197.831 218.95C197.831 216.918 196.455 215.702 194.855 215.702C193.255 215.702 191.895 216.87 191.895 218.934C191.895 220.998 193.255 222.214 194.855 222.214C196.455 222.214 197.831 221.014 197.831 218.95ZM212.445 223.35V218.39C212.445 216.598 211.469 215.686 209.997 215.686C208.509 215.686 207.485 216.614 207.485 218.502V223.35H206.029V214.582H207.485V215.83C208.061 214.918 209.117 214.422 210.301 214.422C212.333 214.422 213.885 215.67 213.885 218.182V223.35H212.445ZM215.719 218.934C215.719 216.198 217.527 214.438 219.879 214.438C221.511 214.438 222.631 215.27 223.143 216.182V214.582H224.615V223.35H223.143V221.718C222.615 222.662 221.479 223.494 219.863 223.494C217.527 223.494 215.719 221.654 215.719 218.934ZM223.143 218.95C223.143 216.918 221.767 215.702 220.167 215.702C218.567 215.702 217.207 216.87 217.207 218.934C217.207 220.998 218.567 222.214 220.167 222.214C221.767 222.214 223.143 221.014 223.143 218.95ZM227.396 220.95V215.782H226.26V214.582H227.396V212.374H228.852V214.582H231.14V215.782H228.852V220.95C228.852 221.814 229.172 222.118 230.068 222.118H231.14V223.35H229.828C228.276 223.35 227.396 222.71 227.396 220.95ZM240.68 214.582V223.35H239.224V222.054C238.664 222.966 237.592 223.478 236.424 223.478C234.408 223.478 232.824 222.23 232.824 219.718V214.582H234.264V219.526C234.264 221.302 235.24 222.214 236.712 222.214C238.216 222.214 239.224 221.286 239.224 219.398V214.582H240.68ZM244.594 218.582V223.35H243.138V214.582H244.594V216.006C245.09 215.03 246.034 214.422 247.426 214.422V215.926H247.042C245.65 215.926 244.594 216.55 244.594 218.582ZM248.563 218.934C248.563 216.198 250.371 214.438 252.723 214.438C254.355 214.438 255.475 215.27 255.987 216.182V214.582H257.459V223.35H255.987V221.718C255.459 222.662 254.323 223.494 252.707 223.494C250.371 223.494 248.563 221.654 248.563 218.934ZM255.987 218.95C255.987 216.918 254.611 215.702 253.011 215.702C251.411 215.702 250.051 216.87 250.051 218.934C250.051 220.998 251.411 222.214 253.011 222.214C254.611 222.214 255.987 221.014 255.987 218.95ZM259.92 223.35V211.51H261.376V223.35H259.92ZM51.232 245.35V233.51H52.688V245.35H51.232ZM54.6255 240.934C54.6255 238.198 56.4335 236.438 58.7855 236.438C60.4175 236.438 61.5375 237.27 62.0495 238.182V236.582H63.5215V245.35H62.0495V243.718C61.5215 244.662 60.3855 245.494 58.7695 245.494C56.4335 245.494 54.6255 243.654 54.6255 240.934ZM62.0495 240.95C62.0495 238.918 60.6735 237.702 59.0735 237.702C57.4735 237.702 56.1135 238.87 56.1135 240.934C56.1135 242.998 57.4735 244.214 59.0735 244.214C60.6735 244.214 62.0495 243.014 62.0495 240.95ZM72.398 245.35V240.39C72.398 238.598 71.422 237.686 69.95 237.686C68.462 237.686 67.438 238.614 67.438 240.502V245.35H65.982V236.582H67.438V237.83C68.014 236.918 69.07 236.422 70.254 236.422C72.286 236.422 73.838 237.67 73.838 240.182V245.35H72.398ZM75.6724 240.934C75.6724 238.198 77.4804 236.438 79.8324 236.438C81.4324 236.438 82.5844 237.238 83.0964 238.182V236.582H84.5684V245.542C84.5684 247.958 82.9524 249.67 80.3764 249.67C78.0724 249.67 76.4244 248.502 76.1364 246.63H77.5764C77.8964 247.686 78.9364 248.406 80.3764 248.406C81.9284 248.406 83.0964 247.414 83.0964 245.542V243.702C82.5684 244.646 81.4324 245.494 79.8324 245.494C77.4804 245.494 75.6724 243.654 75.6724 240.934ZM83.0964 240.95C83.0964 238.918 81.7204 237.702 80.1204 237.702C78.5204 237.702 77.1604 238.87 77.1604 240.934C77.1604 242.998 78.5204 244.214 80.1204 244.214C81.7204 244.214 83.0964 243.014 83.0964 240.95ZM94.8049 236.582V245.35H93.3489V244.054C92.7889 244.966 91.7169 245.478 90.5489 245.478C88.5329 245.478 86.9489 244.23 86.9489 241.718V236.582H88.3889V241.526C88.3889 243.302 89.3649 244.214 90.8369 244.214C92.3409 244.214 93.3489 243.286 93.3489 241.398V236.582H94.8049ZM96.7193 240.934C96.7193 238.198 98.5273 236.438 100.879 236.438C102.511 236.438 103.631 237.27 104.143 238.182V236.582H105.615V245.35H104.143V243.718C103.615 244.662 102.479 245.494 100.863 245.494C98.5273 245.494 96.7193 243.654 96.7193 240.934ZM104.143 240.95C104.143 238.918 102.767 237.702 101.167 237.702C99.5673 237.702 98.2073 238.87 98.2073 240.934C98.2073 242.998 99.5673 244.214 101.167 244.214C102.767 244.214 104.143 243.014 104.143 240.95ZM107.532 240.934C107.532 238.198 109.34 236.438 111.692 236.438C113.292 236.438 114.444 237.238 114.956 238.182V236.582H116.428V245.542C116.428 247.958 114.812 249.67 112.236 249.67C109.932 249.67 108.284 248.502 107.996 246.63H109.436C109.756 247.686 110.796 248.406 112.236 248.406C113.788 248.406 114.956 247.414 114.956 245.542V243.702C114.428 244.646 113.292 245.494 111.692 245.494C109.34 245.494 107.532 243.654 107.532 240.934ZM114.956 240.95C114.956 238.918 113.58 237.702 111.98 237.702C110.38 237.702 109.02 238.87 109.02 240.934C109.02 242.998 110.38 244.214 111.98 244.214C113.58 244.214 114.956 243.014 114.956 240.95ZM122.616 237.67C121.192 237.67 120.008 238.614 119.848 240.326H125.384C125.4 238.614 124.12 237.67 122.616 237.67ZM126.712 242.646C126.264 244.246 124.856 245.494 122.68 245.494C120.184 245.494 118.344 243.734 118.344 240.95C118.344 238.182 120.12 236.438 122.68 236.438C125.224 236.438 126.888 238.23 126.888 240.63C126.888 240.95 126.872 241.206 126.84 241.51H119.832C119.944 243.286 121.192 244.262 122.68 244.262C123.992 244.262 124.824 243.59 125.144 242.646H126.712Z" fill="white"/>
</g>
<defs>
<filter id="filter0_d_2078_5222" x="0" y="0.350342" width="352" height="318" filterUnits="userSpaceOnUse" color-interpolation-filters="sRGB">
<feFlood flood-opacity="0" result="BackgroundImageFix"/>
<feColorMatrix in="SourceAlpha" type="matrix" values="0 0 0 0 0 0 0 0 0 0 0 0 0 0 0 0 0 0 127 0" result="hardAlpha"/>
<feOffset dy="10"/>
<feGaussianBlur stdDeviation="13"/>
<feComposite in2="hardAlpha" operator="out"/>
<feColorMatrix type="matrix" values="0 0 0 0 0 0 0 0 0 0 0 0 0 0 0 0 0 0 0.2 0"/>
<feBlend mode="normal" in2="BackgroundImageFix" result="effect1_dropShadow_2078_5222"/>
<feBlend mode="normal" in="SourceGraphic" in2="effect1_dropShadow_2078_5222" result="shape"/>
</filter>
<linearGradient id="paint0_linear_2078_5222" x1="326" y1="264.339" x2="2.47115" y2="224.251" gradientUnits="userSpaceOnUse">
<stop offset="0.254808" stop-color="#464646"/>
<stop offset="1" stop-color="#43430D"/>
</linearGradient>
<linearGradient id="paint1_linear_2078_5222" x1="111.807" y1="16.3503" x2="323.575" y2="154.948" gradientUnits="userSpaceOnUse">
<stop stop-color="#9F9F00"/>
<stop offset="0.509615" stop-color="#4D4D00"/>
</linearGradient>
<clipPath id="clip0_2078_5222">
<rect width="42" height="42" fill="white" transform="translate(66 64.3503)"/>
</clipPath>
</defs>
</svg>
