<svg width="335" height="73" viewBox="0 0 335 73" fill="none" xmlns="http://www.w3.org/2000/svg">
<path d="M10 0.850342L325 0.850342C330.247 0.850342 334.5 5.10364 334.5 10.3503V62.3503C334.5 67.597 330.247 71.8503 325 71.8503L10 71.8503C4.7533 71.8503 0.5 67.597 0.5 62.3503L0.5 10.3503C0.5 5.10364 4.75329 0.850342 10 0.850342Z" fill="url(#paint0_linear_1992_7410)" fill-opacity="0.5"/>
<path d="M10 0.850342L325 0.850342C330.247 0.850342 334.5 5.10364 334.5 10.3503V62.3503C334.5 67.597 330.247 71.8503 325 71.8503L10 71.8503C4.7533 71.8503 0.5 67.597 0.5 62.3503L0.5 10.3503C0.5 5.10364 4.75329 0.850342 10 0.850342Z" stroke="url(#paint1_linear_1992_7410)"/>
<path d="M49.227 34.6913V35.5193C49.227 37.5127 48.514 39.1993 47.088 40.5793C45.662 41.944 43.753 42.6263 41.361 42.6263C38.923 42.6263 36.9067 41.8213 35.312 40.2113C33.7173 38.6013 32.92 36.631 32.92 34.3003C32.92 31.9697 33.7173 29.9993 35.312 28.3893C36.9067 26.7793 38.923 25.9743 41.361 25.9743C42.8483 25.9743 44.213 26.3347 45.455 27.0553C46.697 27.776 47.6553 28.7343 48.33 29.9303L46.904 30.7583C46.398 29.777 45.6467 28.995 44.65 28.4123C43.6533 27.8297 42.557 27.5383 41.361 27.5383C39.3523 27.5383 37.7117 28.19 36.439 29.4933C35.1663 30.7967 34.53 32.399 34.53 34.3003C34.53 36.2017 35.1663 37.804 36.439 39.1073C37.7117 40.4107 39.3523 41.0623 41.361 41.0623C43.1703 41.0623 44.6193 40.61 45.708 39.7053C46.7967 38.7853 47.4177 37.62 47.571 36.2093H41.177V34.6913H49.227ZM61.3954 40.9013C60.2301 42.0513 58.8041 42.6263 57.1174 42.6263C55.4308 42.6263 53.9971 42.0513 52.8164 40.9013C51.6511 39.736 51.0684 38.3023 51.0684 36.6003C51.0684 34.8983 51.6511 33.4723 52.8164 32.3223C53.9971 31.157 55.4308 30.5743 57.1174 30.5743C58.8041 30.5743 60.2301 31.157 61.3954 32.3223C62.5761 33.4723 63.1664 34.8983 63.1664 36.6003C63.1664 38.3023 62.5761 39.736 61.3954 40.9013ZM53.8974 39.8433C54.7714 40.7173 55.8448 41.1543 57.1174 41.1543C58.3901 41.1543 59.4634 40.7173 60.3374 39.8433C61.2114 38.954 61.6484 37.873 61.6484 36.6003C61.6484 35.3277 61.2114 34.2543 60.3374 33.3803C59.4634 32.491 58.3901 32.0463 57.1174 32.0463C55.8448 32.0463 54.7714 32.491 53.8974 33.3803C53.0234 34.2543 52.5864 35.3277 52.5864 36.6003C52.5864 37.873 53.0234 38.954 53.8974 39.8433ZM73.5375 30.8503H75.1475L70.4325 42.3503H68.5925L63.8775 30.8503H65.4875L69.5125 40.7633L73.5375 30.8503ZM81.8459 30.5743C83.5479 30.5743 84.9202 31.18 85.9629 32.3913C87.0209 33.5873 87.5499 35.0057 87.5499 36.6463C87.5499 36.815 87.5345 37.0527 87.5039 37.3593H77.4069C77.5602 38.5247 78.0509 39.4523 78.8789 40.1423C79.7222 40.817 80.7572 41.1543 81.9839 41.1543C82.8579 41.1543 83.6092 40.978 84.2379 40.6253C84.8819 40.2573 85.3649 39.782 85.6869 39.1993L87.0209 39.9813C86.5149 40.794 85.8249 41.438 84.9509 41.9133C84.0769 42.3887 83.0802 42.6263 81.9609 42.6263C80.1515 42.6263 78.6795 42.059 77.5449 40.9243C76.4102 39.7897 75.8429 38.3483 75.8429 36.6003C75.8429 34.883 76.4025 33.4493 77.5219 32.2993C78.6412 31.1493 80.0825 30.5743 81.8459 30.5743ZM81.8459 32.0463C80.6499 32.0463 79.6455 32.4067 78.8329 33.1273C78.0355 33.8327 77.5602 34.7527 77.4069 35.8873H85.9859C85.8325 34.676 85.3649 33.733 84.5829 33.0583C83.8009 32.3837 82.8885 32.0463 81.8459 32.0463ZM91.4825 32.7593C92.1878 31.364 93.3992 30.6663 95.1165 30.6663V32.1383C94.0738 32.1383 93.2075 32.445 92.5175 33.0583C91.8275 33.6717 91.4825 34.6377 91.4825 35.9563V42.3503H89.9645V30.8503H91.4825V32.7593ZM102.579 30.5743C103.974 30.5743 105.071 31.0037 105.868 31.8623C106.681 32.7057 107.087 33.848 107.087 35.2893V42.3503H105.569V35.2893C105.569 34.262 105.293 33.4647 104.741 32.8973C104.204 32.33 103.438 32.0463 102.441 32.0463C101.337 32.0463 100.44 32.399 99.7499 33.1043C99.0599 33.7943 98.7149 34.8677 98.7149 36.3243V42.3503H97.1969V30.8503H98.7149V32.6443C99.5736 31.2643 100.862 30.5743 102.579 30.5743ZM122.281 30.5743C123.569 30.5743 124.604 30.9883 125.386 31.8163C126.183 32.6443 126.582 33.7637 126.582 35.1743V42.3503H125.064V35.1743C125.064 34.1777 124.803 33.411 124.282 32.8743C123.776 32.3223 123.101 32.0463 122.258 32.0463C121.307 32.0463 120.533 32.3683 119.935 33.0123C119.352 33.641 119.061 34.63 119.061 35.9793V42.3503H117.543V35.1743C117.543 34.1623 117.298 33.388 116.807 32.8513C116.332 32.3147 115.68 32.0463 114.852 32.0463C113.932 32.0463 113.15 32.3683 112.506 33.0123C111.862 33.6563 111.54 34.6453 111.54 35.9793V42.3503H110.022V30.8503H111.54V32.5293C112.368 31.226 113.541 30.5743 115.059 30.5743C116.715 30.5743 117.88 31.272 118.555 32.6673C119.383 31.272 120.625 30.5743 122.281 30.5743ZM134.831 30.5743C136.533 30.5743 137.906 31.18 138.948 32.3913C140.006 33.5873 140.535 35.0057 140.535 36.6463C140.535 36.815 140.52 37.0527 140.489 37.3593H130.392C130.546 38.5247 131.036 39.4523 131.864 40.1423C132.708 40.817 133.743 41.1543 134.969 41.1543C135.843 41.1543 136.595 40.978 137.223 40.6253C137.867 40.2573 138.35 39.782 138.672 39.1993L140.006 39.9813C139.5 40.794 138.81 41.438 137.936 41.9133C137.062 42.3887 136.066 42.6263 134.946 42.6263C133.137 42.6263 131.665 42.059 130.53 40.9243C129.396 39.7897 128.828 38.3483 128.828 36.6003C128.828 34.883 129.388 33.4493 130.507 32.2993C131.627 31.1493 133.068 30.5743 134.831 30.5743ZM134.831 32.0463C133.635 32.0463 132.631 32.4067 131.818 33.1273C131.021 33.8327 130.546 34.7527 130.392 35.8873H138.971C138.818 34.676 138.35 33.733 137.568 33.0583C136.786 32.3837 135.874 32.0463 134.831 32.0463ZM148.332 30.5743C149.727 30.5743 150.824 31.0037 151.621 31.8623C152.434 32.7057 152.84 33.848 152.84 35.2893V42.3503H151.322V35.2893C151.322 34.262 151.046 33.4647 150.494 32.8973C149.957 32.33 149.191 32.0463 148.194 32.0463C147.09 32.0463 146.193 32.399 145.503 33.1043C144.813 33.7943 144.468 34.8677 144.468 36.3243V42.3503H142.95V30.8503H144.468V32.6443C145.327 31.2643 146.615 30.5743 148.332 30.5743ZM161.87 32.3223H158.558V39.2913C158.558 39.92 158.681 40.3723 158.926 40.6483C159.171 40.909 159.539 41.047 160.03 41.0623C160.521 41.0623 161.134 41.047 161.87 41.0163V42.3503C160.26 42.5957 159.049 42.4807 158.236 42.0053C157.439 41.53 157.04 40.6253 157.04 39.2913V32.3223H154.625V30.8503H157.04V28.0903L158.558 27.6303V30.8503H161.87V32.3223ZM183.076 41.8213L181.65 42.6263L179.948 40.8093C178.737 42.0207 177.157 42.6263 175.21 42.6263C173.631 42.6263 172.35 42.22 171.369 41.4073C170.403 40.5793 169.92 39.4677 169.92 38.0723C169.92 37.0603 170.181 36.148 170.702 35.3353C171.223 34.5227 171.998 33.8787 173.025 33.4033C172.228 32.4987 171.829 31.4867 171.829 30.3673C171.829 29.0333 172.289 27.9677 173.209 27.1703C174.129 26.373 175.202 25.9743 176.429 25.9743C177.456 25.9743 178.392 26.2657 179.235 26.8483C180.094 27.4157 180.707 28.19 181.075 29.1713L179.718 29.9533C179.488 29.202 179.074 28.6117 178.476 28.1823C177.893 27.753 177.219 27.5383 176.452 27.5383C175.624 27.5383 174.911 27.7913 174.313 28.2973C173.73 28.8033 173.439 29.4627 173.439 30.2753C173.439 30.812 173.562 31.295 173.807 31.7243C174.068 32.1537 174.443 32.629 174.934 33.1503L179.787 38.3253C180.232 37.4513 180.523 36.4317 180.661 35.2663L182.087 36.0943C181.888 37.4283 181.497 38.5707 180.914 39.5213L183.076 41.8213ZM175.164 41.0623C176.697 41.0623 177.924 40.587 178.844 39.6363L174.106 34.5993C173.201 34.9367 172.542 35.4197 172.128 36.0483C171.729 36.6617 171.53 37.321 171.53 38.0263C171.53 38.9617 171.852 39.7053 172.496 40.2573C173.155 40.794 174.045 41.0623 175.164 41.0623ZM196.996 26.2503C198.438 26.2503 199.641 26.7333 200.607 27.6993C201.573 28.6653 202.056 29.869 202.056 31.3103C202.056 32.7517 201.573 33.9553 200.607 34.9213C199.641 35.8873 198.438 36.3703 196.996 36.3703H192.856V42.3503H191.246V26.2503H196.996ZM196.996 34.8523C197.993 34.8523 198.813 34.5227 199.457 33.8633C200.117 33.1887 200.446 32.3377 200.446 31.3103C200.446 30.283 200.117 29.4397 199.457 28.7803C198.813 28.1057 197.993 27.7683 196.996 27.7683H192.856V34.8523H196.996ZM209.423 42.6263C207.951 42.6263 206.686 42.2813 205.628 41.5913C204.586 40.886 203.857 39.92 203.443 38.6933L204.823 37.8883C205.115 38.885 205.651 39.667 206.433 40.2343C207.215 40.7863 208.22 41.0623 209.446 41.0623C210.642 41.0623 211.57 40.8017 212.229 40.2803C212.904 39.7437 213.241 39.0383 213.241 38.1643C213.241 37.321 212.935 36.6847 212.321 36.2553C211.708 35.826 210.696 35.3813 209.285 34.9213C207.614 34.3693 206.51 33.9247 205.973 33.5873C204.747 32.8513 204.133 31.7857 204.133 30.3903C204.133 29.0257 204.609 27.9523 205.559 27.1703C206.51 26.373 207.683 25.9743 209.078 25.9743C210.336 25.9743 211.424 26.304 212.344 26.9633C213.264 27.6073 213.947 28.4353 214.391 29.4473L213.034 30.2063C212.298 28.4277 210.98 27.5383 209.078 27.5383C208.082 27.5383 207.277 27.7837 206.663 28.2743C206.05 28.765 205.743 29.4473 205.743 30.3213C205.743 31.1187 206.019 31.7167 206.571 32.1153C207.123 32.514 208.036 32.9203 209.308 33.3343C209.891 33.5337 210.305 33.6793 210.55 33.7713C210.811 33.848 211.179 33.986 211.654 34.1853C212.145 34.3693 212.505 34.538 212.735 34.6913C212.965 34.8293 213.241 35.0287 213.563 35.2893C213.901 35.5347 214.138 35.7877 214.276 36.0483C214.43 36.2937 214.56 36.6003 214.667 36.9683C214.79 37.321 214.851 37.7043 214.851 38.1183C214.851 39.483 214.353 40.5793 213.356 41.4073C212.36 42.22 211.049 42.6263 209.423 42.6263ZM227.689 41.0623C226.585 42.105 225.144 42.6263 223.365 42.6263C221.587 42.6263 220.145 42.105 219.041 41.0623C217.937 40.0197 217.385 38.6243 217.385 36.8763V26.2503H218.995V36.8763C218.995 38.1643 219.379 39.184 220.145 39.9353C220.912 40.6867 221.985 41.0623 223.365 41.0623C224.745 41.0623 225.819 40.6867 226.585 39.9353C227.352 39.184 227.735 38.1643 227.735 36.8763V26.2503H229.345V36.8763C229.345 38.6243 228.793 40.0197 227.689 41.0623ZM244.414 32.3223H241.102V39.2913C241.102 39.92 241.225 40.3723 241.47 40.6483C241.715 40.909 242.083 41.047 242.574 41.0623C243.065 41.0623 243.678 41.047 244.414 41.0163V42.3503C242.804 42.5957 241.593 42.4807 240.78 42.0053C239.983 41.53 239.584 40.6253 239.584 39.2913V32.3223H237.169V30.8503H239.584V28.0903L241.102 27.6303V30.8503H244.414V32.3223ZM251.561 30.5743C253.263 30.5743 254.635 31.18 255.678 32.3913C256.736 33.5873 257.265 35.0057 257.265 36.6463C257.265 36.815 257.249 37.0527 257.219 37.3593H247.122C247.275 38.5247 247.766 39.4523 248.594 40.1423C249.437 40.817 250.472 41.1543 251.699 41.1543C252.573 41.1543 253.324 40.978 253.953 40.6253C254.597 40.2573 255.08 39.782 255.402 39.1993L256.736 39.9813C256.23 40.794 255.54 41.438 254.666 41.9133C253.792 42.3887 252.795 42.6263 251.676 42.6263C249.866 42.6263 248.394 42.059 247.26 40.9243C246.125 39.7897 245.558 38.3483 245.558 36.6003C245.558 34.883 246.117 33.4493 247.237 32.2993C248.356 31.1493 249.797 30.5743 251.561 30.5743ZM251.561 32.0463C250.365 32.0463 249.36 32.4067 248.548 33.1273C247.75 33.8327 247.275 34.7527 247.122 35.8873H255.701C255.547 34.676 255.08 33.733 254.298 33.0583C253.516 32.3837 252.603 32.0463 251.561 32.0463ZM269.569 30.8503H271.087V42.3503H269.569V40.0963C268.511 41.783 266.963 42.6263 264.923 42.6263C263.283 42.6263 261.88 42.0437 260.714 40.8783C259.564 39.713 258.989 38.287 258.989 36.6003C258.989 34.9137 259.564 33.4877 260.714 32.3223C261.88 31.157 263.283 30.5743 264.923 30.5743C266.963 30.5743 268.511 31.4177 269.569 33.1043V30.8503ZM261.818 39.8433C262.692 40.7173 263.766 41.1543 265.038 41.1543C266.311 41.1543 267.384 40.7173 268.258 39.8433C269.132 38.954 269.569 37.873 269.569 36.6003C269.569 35.3277 269.132 34.2543 268.258 33.3803C267.384 32.491 266.311 32.0463 265.038 32.0463C263.766 32.0463 262.692 32.491 261.818 33.3803C260.944 34.2543 260.507 35.3277 260.507 36.6003C260.507 37.873 260.944 38.954 261.818 39.8433ZM286.56 30.5743C287.848 30.5743 288.883 30.9883 289.665 31.8163C290.463 32.6443 290.861 33.7637 290.861 35.1743V42.3503H289.343V35.1743C289.343 34.1777 289.083 33.411 288.561 32.8743C288.055 32.3223 287.381 32.0463 286.537 32.0463C285.587 32.0463 284.812 32.3683 284.214 33.0123C283.632 33.641 283.34 34.63 283.34 35.9793V42.3503H281.822V35.1743C281.822 34.1623 281.577 33.388 281.086 32.8513C280.611 32.3147 279.959 32.0463 279.131 32.0463C278.211 32.0463 277.429 32.3683 276.785 33.0123C276.141 33.6563 275.819 34.6453 275.819 35.9793V42.3503H274.301V30.8503H275.819V32.5293C276.647 31.226 277.82 30.5743 279.338 30.5743C280.994 30.5743 282.16 31.272 282.834 32.6673C283.662 31.272 284.904 30.5743 286.56 30.5743ZM294.994 33.8633C294.994 34.3847 295.224 34.7987 295.684 35.1053C296.144 35.412 296.703 35.6497 297.363 35.8183C298.022 35.987 298.681 36.1787 299.341 36.3933C300 36.5927 300.56 36.9377 301.02 37.4283C301.48 37.9037 301.71 38.5323 301.71 39.3143C301.71 40.2957 301.319 41.093 300.537 41.7063C299.77 42.3197 298.773 42.6263 297.547 42.6263C296.443 42.6263 295.5 42.381 294.718 41.8903C293.951 41.3997 293.414 40.7633 293.108 39.9813L294.396 39.2223C294.61 39.8203 294.994 40.2957 295.546 40.6483C296.113 40.9857 296.78 41.1543 297.547 41.1543C298.298 41.1543 298.927 41.0087 299.433 40.7173C299.939 40.4107 300.192 39.943 300.192 39.3143C300.192 38.793 299.962 38.379 299.502 38.0723C299.042 37.7657 298.482 37.528 297.823 37.3593C297.163 37.1907 296.504 37.0067 295.845 36.8073C295.185 36.5927 294.626 36.2477 294.166 35.7723C293.706 35.2817 293.476 34.6453 293.476 33.8633C293.476 32.928 293.844 32.146 294.58 31.5173C295.331 30.8887 296.274 30.5743 297.409 30.5743C298.344 30.5743 299.164 30.789 299.87 31.2183C300.575 31.6323 301.096 32.1997 301.434 32.9203L300.169 33.6563C299.724 32.583 298.804 32.0463 297.409 32.0463C296.749 32.0463 296.182 32.2073 295.707 32.5293C295.231 32.836 294.994 33.2807 294.994 33.8633Z" fill="white"/>
<defs>
<linearGradient id="paint0_linear_1992_7410" x1="335" y1="67.4751" x2="44.1734" y2="-81.1892" gradientUnits="userSpaceOnUse">
<stop offset="0.254808" stop-color="#464646"/>
<stop offset="1" stop-color="#8C8C4C"/>
</linearGradient>
<linearGradient id="paint1_linear_1992_7410" x1="95.8183" y1="0.350342" x2="136.561" y2="110.357" gradientUnits="userSpaceOnUse">
<stop stop-color="#9F9F00"/>
<stop offset="0.509615" stop-color="#4D4D00"/>
</linearGradient>
</defs>
</svg>
