<svg width="310" height="75" viewBox="0 0 310 75" fill="none" xmlns="http://www.w3.org/2000/svg">
<path d="M10 0.850586H300C305.247 0.850586 309.5 5.10388 309.5 10.3506V64.3506C309.5 69.5973 305.247 73.8506 300 73.8506H10C4.7533 73.8506 0.5 69.5973 0.5 64.3506V10.3506L0.512695 9.86133C0.767337 4.842 4.91739 0.850586 10 0.850586Z" fill="url(#paint0_linear_1997_3940)" fill-opacity="0.5"/>
<path d="M10 0.850586H300C305.247 0.850586 309.5 5.10388 309.5 10.3506V64.3506C309.5 69.5973 305.247 73.8506 300 73.8506H10C4.7533 73.8506 0.5 69.5973 0.5 64.3506V10.3506L0.512695 9.86133C0.767337 4.842 4.91739 0.850586 10 0.850586Z" stroke="url(#paint1_linear_1997_3940)"/>
<path d="M51.4367 37.0837C51.3786 37.0235 51.309 36.9755 51.2322 36.9425C51.1553 36.9095 51.0726 36.8921 50.989 36.8914C50.9053 36.8907 50.8224 36.9066 50.745 36.9383C50.6675 36.97 50.5972 37.0167 50.538 37.0759C50.4789 37.135 50.4321 37.2054 50.4004 37.2828C50.3688 37.3602 50.3528 37.4432 50.3535 37.5268C50.3543 37.6105 50.3716 37.6932 50.4047 37.77C50.4377 37.8469 50.4857 37.9164 50.5458 37.9745L51.9953 39.4239C52.1134 39.542 52.2736 39.6084 52.4407 39.6084C52.6077 39.6084 52.7679 39.542 52.8861 39.4239L56.1411 36.1689C56.1996 36.1104 56.246 36.041 56.2777 35.9646C56.3094 35.8881 56.3257 35.8062 56.3257 35.7235C56.3257 35.6407 56.3095 35.5588 56.2778 35.4823C56.2462 35.4059 56.1998 35.3364 56.1413 35.2779C56.0828 35.2194 56.0134 35.173 55.9369 35.1413C55.8605 35.1096 55.7786 35.0933 55.6958 35.0933C55.6131 35.0932 55.5312 35.1095 55.4547 35.1412C55.3783 35.1728 55.3088 35.2192 55.2503 35.2777L52.4405 38.0875L51.4367 37.0837Z" fill="#FFFF00"/>
<path d="M59.166 40.5467V34.1543C59.1661 34.0437 59.137 33.9349 59.0817 33.8391C59.0264 33.7432 58.9469 33.6636 58.851 33.6083L53.315 30.4125C53.2192 30.3572 53.1106 30.3281 53 30.3281C52.8894 30.3281 52.7808 30.3572 52.685 30.4125L47.149 33.6087C47.0532 33.6641 46.9736 33.7437 46.9183 33.8395C46.863 33.9353 46.8339 34.0441 46.834 34.1547V40.5467C46.8339 40.6574 46.863 40.7661 46.9183 40.8619C46.9736 40.9578 47.0532 41.0374 47.149 41.0927L52.685 44.2889C52.7808 44.3442 52.8894 44.3733 53 44.3733C53.1106 44.3733 53.2192 44.3442 53.315 44.2889L58.851 41.0923C58.9468 41.037 59.0263 40.9575 59.0816 40.8617C59.1369 40.7659 59.166 40.6573 59.166 40.5467ZM57.906 40.183L53 43.0155L48.094 40.183V34.518L53 31.6855L57.906 34.518V40.183Z" fill="#FFFF00"/>
<path d="M71.1126 37.0303C70.4466 35.8808 69.6718 34.7978 68.7988 33.7963C68.7648 33.7573 68.7341 33.7153 68.7001 33.6766C68.6245 33.5905 68.5422 33.5116 68.4653 33.4267C65.5282 30.1821 61.6438 27.9449 57.3633 27.0327C53.0829 26.1205 48.6238 26.5795 44.619 28.3447V24.9751L45.8336 23.7676C45.8925 23.709 45.9392 23.6394 45.9711 23.5627C46.0029 23.486 46.0193 23.4037 46.0193 23.3207V18.9128C46.0193 18.7457 45.9529 18.5855 45.8348 18.4673C45.7166 18.3492 45.5564 18.2828 45.3893 18.2828C45.2222 18.2828 45.062 18.3492 44.9438 18.4673C44.8257 18.5855 44.7593 18.7457 44.7593 18.9128V23.0586L43.5451 24.2661C43.4861 24.3247 43.4393 24.3943 43.4074 24.471C43.3755 24.5477 43.359 24.6299 43.359 24.713V28.9458C42.8886 29.1908 42.4283 29.4535 41.978 29.7341V18.4508C41.978 18.2837 41.9117 18.1235 41.7935 18.0053C41.6754 17.8872 41.5151 17.8208 41.348 17.8208C41.181 17.8208 41.0207 17.8872 40.9026 18.0053C40.7844 18.1235 40.718 18.2837 40.718 18.4508V30.58C40.243 30.9248 39.7785 31.2839 39.332 31.6686V24.713C39.3321 24.6303 39.3158 24.5483 39.2842 24.4718C39.2525 24.3954 39.2062 24.3259 39.1477 24.2674L37.9402 23.0599V18.9128C37.9402 18.8301 37.9239 18.7481 37.8922 18.6717C37.8605 18.5953 37.8141 18.5258 37.7556 18.4673C37.6971 18.4088 37.6277 18.3624 37.5513 18.3308C37.4748 18.2991 37.3929 18.2828 37.3102 18.2828C37.2274 18.2828 37.1455 18.2991 37.0691 18.3308C36.9926 18.3624 36.9232 18.4088 36.8647 18.4673C36.8062 18.5258 36.7598 18.5953 36.7281 18.6717C36.6965 18.7481 36.6802 18.8301 36.6802 18.9128V23.3228C36.6801 23.4055 36.6964 23.4875 36.728 23.564C36.7597 23.6404 36.806 23.7099 36.8645 23.7684L38.072 24.9759V32.8534C37.8881 33.0408 37.7087 33.2335 37.5319 33.428C37.4555 33.512 37.3744 33.5901 37.2992 33.6754C37.2652 33.714 37.2346 33.756 37.2005 33.7951C36.3276 34.7966 35.5528 35.8795 34.8868 37.0291C34.8317 37.1269 34.8027 37.2373 34.8027 37.3495C34.8027 37.4618 34.8317 37.5722 34.8868 37.67C35.553 38.8204 36.3281 39.9042 37.2014 40.9065C37.235 40.9452 37.2656 40.9867 37.2992 41.025C37.3761 41.1119 37.4588 41.193 37.5365 41.277C40.4735 44.5211 44.3575 46.7579 48.6374 47.6701C52.9173 48.5823 57.3759 48.1236 61.3804 46.359V49.724L60.1653 50.9395C60.1068 50.998 60.0604 51.0675 60.0288 51.144C59.9971 51.2204 59.9809 51.3024 59.9809 51.3851V55.785C59.9809 55.9521 60.0473 56.1124 60.1654 56.2305C60.2836 56.3486 60.4438 56.415 60.6109 56.415C60.778 56.415 60.9382 56.3486 61.0564 56.2305C61.1745 56.1124 61.2409 55.9521 61.2409 55.785V51.6459L62.4564 50.4304C62.515 50.3719 62.5614 50.3025 62.5931 50.226C62.6249 50.1496 62.6412 50.0676 62.6412 49.9848V45.7558C63.1116 45.5111 63.5719 45.2483 64.0222 44.9675V56.2508C64.0222 56.4179 64.0885 56.5781 64.2067 56.6963C64.3248 56.8144 64.4851 56.8808 64.6522 56.8808C64.8192 56.8808 64.9795 56.8144 65.0976 56.6963C65.2158 56.5781 65.2822 56.4179 65.2822 56.2508V44.1216C65.7572 43.7768 66.2217 43.4173 66.6682 43.033V49.9848C66.6681 50.1513 66.7339 50.3111 66.8513 50.4292L68.06 51.6472V55.7871C68.06 55.9542 68.1264 56.1145 68.2446 56.2326C68.3627 56.3507 68.523 56.4171 68.69 56.4171C68.8571 56.4171 69.0174 56.3507 69.1355 56.2326C69.2537 56.1145 69.32 55.9542 69.32 55.7871V51.3851C69.3201 51.2186 69.2543 51.0588 69.1369 50.9407L67.9282 49.7248V41.8482C68.1113 41.6617 68.2898 41.4702 68.4662 41.2761C68.543 41.1921 68.6249 41.1123 68.701 41.0262C68.735 40.9876 68.7656 40.9456 68.7997 40.9069C69.6725 39.9053 70.4473 38.8224 71.1134 37.6729C71.1685 37.5751 71.1975 37.4647 71.1975 37.3525C71.1975 37.2402 71.1685 37.1298 71.1134 37.032L71.1126 37.0303ZM44.5694 37.3508C44.5694 35.6834 45.0637 34.0533 45.9901 32.6669C46.9164 31.2804 48.233 30.1997 49.7735 29.5616C51.314 28.9234 53.0092 28.7564 54.6446 29.0817C56.28 29.4069 57.7822 30.2098 58.9613 31.3889C60.1404 32.5679 60.9434 34.0701 61.2687 35.7055C61.5941 37.3409 61.4271 39.036 60.7891 40.5766C60.151 42.1171 59.0704 43.4338 57.684 44.3602C56.2975 45.2866 54.6675 45.781 53.0001 45.781C50.7651 45.778 48.6226 44.8889 47.0422 43.3086C45.4618 41.7283 44.5726 39.5858 44.5694 37.3508ZM36.1669 37.3508C36.7622 36.3647 37.4439 35.4334 38.2039 34.5679C38.2854 34.4751 38.3614 34.3768 38.4442 34.2856H38.4467C41.5852 30.8368 45.8429 28.6097 50.4658 27.9987C48.4113 28.555 46.5972 29.7724 45.3038 31.4627C44.0103 33.1531 43.3094 35.2223 43.3094 37.3508C43.3094 39.4793 44.0103 41.5485 45.3038 43.2389C46.5972 44.9292 48.4113 46.1466 50.4658 46.7029C45.7115 46.073 41.349 43.734 38.193 40.1228C37.4373 39.2603 36.7593 38.3327 36.1669 37.3508ZM67.8072 40.1228C64.6509 43.7343 60.2879 46.0733 55.5331 46.7029C57.5876 46.1466 59.4017 44.9292 60.6952 43.2389C61.9887 41.5485 62.6896 39.4793 62.6896 37.3508C62.6896 35.2223 61.9887 33.1531 60.6952 31.4627C59.4017 29.7724 57.5876 28.555 55.5331 27.9987C60.1564 28.6092 64.4145 30.836 67.5535 34.2848H67.556C67.64 34.3759 67.7148 34.4742 67.7963 34.567C68.5564 35.4328 69.238 36.3644 69.8333 37.3508C69.2409 38.3327 68.5629 39.2603 67.8072 40.1228Z" fill="#FFFF00"/>
<path d="M95.408 41.8146L98.912 32.1986H100.448L96.24 43.3506H94.56L90.352 32.1986H91.904L95.408 41.8146ZM102.044 43.3506V34.5826H103.5V43.3506H102.044ZM102.796 33.1586C102.236 33.1586 101.804 32.7266 101.804 32.1666C101.804 31.6066 102.236 31.1746 102.796 31.1746C103.324 31.1746 103.756 31.6066 103.756 32.1666C103.756 32.7266 103.324 33.1586 102.796 33.1586ZM112.286 40.9666C112.286 42.4066 111.022 43.4946 109.086 43.4946C107.038 43.4946 105.598 42.3746 105.502 40.7746H107.006C107.086 41.6226 107.838 42.2626 109.07 42.2626C110.222 42.2626 110.862 41.6866 110.862 40.9666C110.862 39.0146 105.678 40.1506 105.678 36.8866C105.678 35.5426 106.942 34.4386 108.894 34.4386C110.83 34.4386 112.11 35.4786 112.206 37.1906H110.75C110.686 36.3106 110.014 35.6706 108.846 35.6706C107.774 35.6706 107.134 36.1826 107.134 36.8866C107.134 38.9666 112.222 37.8306 112.286 40.9666ZM114.341 43.3506V34.5826H115.797V43.3506H114.341ZM115.093 33.1586C114.533 33.1586 114.101 32.7266 114.101 32.1666C114.101 31.6066 114.533 31.1746 115.093 31.1746C115.621 31.1746 116.053 31.6066 116.053 32.1666C116.053 32.7266 115.621 33.1586 115.093 33.1586ZM126.599 38.9506C126.599 41.7346 124.599 43.4946 122.103 43.4946C119.623 43.4946 117.735 41.7346 117.735 38.9506C117.735 36.1826 119.687 34.4386 122.167 34.4386C124.663 34.4386 126.599 36.1826 126.599 38.9506ZM119.223 38.9506C119.223 41.1746 120.583 42.2146 122.103 42.2146C123.623 42.2146 125.111 41.1746 125.111 38.9506C125.111 36.7426 123.655 35.7026 122.151 35.7026C120.615 35.7026 119.223 36.7426 119.223 38.9506ZM134.929 43.3506V38.3906C134.929 36.5986 133.953 35.6866 132.481 35.6866C130.993 35.6866 129.969 36.6146 129.969 38.5026V43.3506H128.513V34.5826H129.969V35.8306C130.545 34.9186 131.601 34.4226 132.785 34.4226C134.817 34.4226 136.369 35.6706 136.369 38.1826V43.3506H134.929ZM150.501 43.3506L149.605 40.8706H144.741L143.845 43.3506H142.309L146.341 32.2626H148.021L152.037 43.3506H150.501ZM149.189 39.6866L147.173 34.0546L145.157 39.6866H149.189ZM153.794 43.3506V32.1986H155.25V43.3506H153.794ZM162.27 43.3506V35.7826H161.134V34.5826H162.27V33.9586C162.27 32.0066 163.23 31.1266 165.47 31.1266V32.3426C164.158 32.3426 163.726 32.8226 163.726 33.9586V34.5826H165.566V35.7826H163.726V43.3506H162.27ZM175.583 38.9506C175.583 41.7346 173.583 43.4946 171.087 43.4946C168.607 43.4946 166.719 41.7346 166.719 38.9506C166.719 36.1826 168.671 34.4386 171.151 34.4386C173.647 34.4386 175.583 36.1826 175.583 38.9506ZM168.207 38.9506C168.207 41.1746 169.567 42.2146 171.087 42.2146C172.607 42.2146 174.095 41.1746 174.095 38.9506C174.095 36.7426 172.639 35.7026 171.135 35.7026C169.599 35.7026 168.207 36.7426 168.207 38.9506ZM178.954 38.5826V43.3506H177.498V34.5826H178.954V36.0066C179.45 35.0306 180.394 34.4226 181.786 34.4226V35.9266H181.402C180.01 35.9266 178.954 36.5506 178.954 38.5826ZM191.908 41.8146L195.412 32.1986H196.948L192.74 43.3506H191.06L186.852 32.1986H188.404L191.908 41.8146ZM202.272 35.6706C200.848 35.6706 199.664 36.6146 199.504 38.3266H205.04C205.056 36.6146 203.776 35.6706 202.272 35.6706ZM206.368 40.6466C205.92 42.2466 204.512 43.4946 202.336 43.4946C199.84 43.4946 198 41.7346 198 38.9506C198 36.1826 199.776 34.4386 202.336 34.4386C204.88 34.4386 206.544 36.2306 206.544 38.6306C206.544 38.9506 206.528 39.2066 206.496 39.5106H199.488C199.6 41.2866 200.848 42.2626 202.336 42.2626C203.648 42.2626 204.48 41.5906 204.8 40.6466H206.368ZM209.922 38.5826V43.3506H208.466V34.5826H209.922V36.0066C210.418 35.0306 211.362 34.4226 212.754 34.4226V35.9266H212.37C210.978 35.9266 209.922 36.5506 209.922 38.5826ZM214.435 43.3506V34.5826H215.891V43.3506H214.435ZM215.187 33.1586C214.627 33.1586 214.195 32.7266 214.195 32.1666C214.195 31.6066 214.627 31.1746 215.187 31.1746C215.715 31.1746 216.147 31.6066 216.147 32.1666C216.147 32.7266 215.715 33.1586 215.187 33.1586ZM218.645 43.3506V35.7826H217.509V34.5826H218.645V33.9586C218.645 32.0066 219.605 31.1266 221.845 31.1266V32.3426C220.533 32.3426 220.101 32.8226 220.101 33.9586V34.5826H221.941V35.7826H220.101V43.3506H218.645ZM223.638 43.3506V34.5826H225.094V43.3506H223.638ZM224.39 33.1586C223.83 33.1586 223.398 32.7266 223.398 32.1666C223.398 31.6066 223.83 31.1746 224.39 31.1746C224.918 31.1746 225.35 31.6066 225.35 32.1666C225.35 32.7266 224.918 33.1586 224.39 33.1586ZM227.032 38.9506C227.032 36.1986 228.808 34.4386 231.304 34.4386C233.48 34.4386 234.904 35.5586 235.352 37.3986H233.784C233.48 36.3426 232.6 35.6706 231.304 35.6706C229.704 35.6706 228.52 36.8066 228.52 38.9506C228.52 41.1266 229.704 42.2626 231.304 42.2626C232.6 42.2626 233.464 41.6386 233.784 40.5346H235.352C234.904 42.2786 233.48 43.4946 231.304 43.4946C228.808 43.4946 227.032 41.7346 227.032 38.9506ZM236.75 38.9346C236.75 36.1986 238.558 34.4386 240.91 34.4386C242.542 34.4386 243.662 35.2706 244.174 36.1826V34.5826H245.646V43.3506H244.174V41.7186C243.646 42.6626 242.51 43.4946 240.894 43.4946C238.558 43.4946 236.75 41.6546 236.75 38.9346ZM244.174 38.9506C244.174 36.9186 242.798 35.7026 241.198 35.7026C239.598 35.7026 238.238 36.8706 238.238 38.9346C238.238 40.9986 239.598 42.2146 241.198 42.2146C242.798 42.2146 244.174 41.0146 244.174 38.9506ZM248.427 40.9506V35.7826H247.291V34.5826H248.427V32.3746H249.883V34.5826H252.171V35.7826H249.883V40.9506C249.883 41.8146 250.203 42.1186 251.099 42.1186H252.171V43.3506H250.859C249.307 43.3506 248.427 42.7106 248.427 40.9506ZM253.935 43.3506V34.5826H255.391V43.3506H253.935ZM254.687 33.1586C254.127 33.1586 253.695 32.7266 253.695 32.1666C253.695 31.6066 254.127 31.1746 254.687 31.1746C255.215 31.1746 255.647 31.6066 255.647 32.1666C255.647 32.7266 255.215 33.1586 254.687 33.1586ZM266.193 38.9506C266.193 41.7346 264.193 43.4946 261.697 43.4946C259.217 43.4946 257.329 41.7346 257.329 38.9506C257.329 36.1826 259.281 34.4386 261.761 34.4386C264.257 34.4386 266.193 36.1826 266.193 38.9506ZM258.817 38.9506C258.817 41.1746 260.177 42.2146 261.697 42.2146C263.217 42.2146 264.705 41.1746 264.705 38.9506C264.705 36.7426 263.249 35.7026 261.745 35.7026C260.209 35.7026 258.817 36.7426 258.817 38.9506ZM274.523 43.3506V38.3906C274.523 36.5986 273.547 35.6866 272.075 35.6866C270.587 35.6866 269.563 36.6146 269.563 38.5026V43.3506H268.107V34.5826H269.563V35.8306C270.139 34.9186 271.195 34.4226 272.379 34.4226C274.411 34.4226 275.963 35.6706 275.963 38.1826V43.3506H274.523Z" fill="white"/>
<defs>
<linearGradient id="paint0_linear_1997_3940" x1="310" y1="69.3399" x2="29.889" y2="-59.5801" gradientUnits="userSpaceOnUse">
<stop offset="0.254808" stop-color="#464646"/>
<stop offset="1" stop-color="#8C8C4C"/>
</linearGradient>
<linearGradient id="paint1_linear_1997_3940" x1="88.6677" y1="0.350586" x2="133.902" y2="110.315" gradientUnits="userSpaceOnUse">
<stop stop-color="#9F9F00"/>
<stop offset="0.509615" stop-color="#4D4D00"/>
</linearGradient>
</defs>
</svg>
