<svg width="401" height="75" viewBox="0 0 401 75" fill="none" xmlns="http://www.w3.org/2000/svg">
<path d="M10 0.850586H391C396.247 0.850586 400.5 5.10388 400.5 10.3506V64.3506C400.5 69.5973 396.247 73.8506 391 73.8506H10C4.7533 73.8506 0.5 69.5973 0.5 64.3506V10.3506L0.512695 9.86133C0.767337 4.842 4.91739 0.850586 10 0.850586Z" fill="url(#paint0_linear_1997_3920)" fill-opacity="0.5"/>
<path d="M10 0.850586H391C396.247 0.850586 400.5 5.10388 400.5 10.3506V64.3506C400.5 69.5973 396.247 73.8506 391 73.8506H10C4.7533 73.8506 0.5 69.5973 0.5 64.3506V10.3506L0.512695 9.86133C0.767337 4.842 4.91739 0.850586 10 0.850586Z" stroke="url(#paint1_linear_1997_3920)"/>
<path d="M39.5109 22.063C38.6034 22.063 37.8652 22.8033 37.8652 23.7134C37.8652 24.6207 38.6034 25.3589 39.5109 25.3589C40.4185 25.3589 41.1567 24.6207 41.1567 23.7134C41.1567 22.8033 40.4185 22.063 39.5109 22.063ZM39.5109 24.6493C38.9948 24.6493 38.5749 24.2295 38.5749 23.7134C38.5749 23.1947 38.9949 22.7726 39.5109 22.7726C40.027 22.7726 40.447 23.1947 40.447 23.7134C40.4471 24.2295 40.0271 24.6493 39.5109 24.6493Z" fill="#FFFF00"/>
<path d="M44.6065 25.3589C45.514 25.3589 46.2522 24.6207 46.2522 23.7134C46.2522 22.8033 45.514 22.063 44.6065 22.063C43.6991 22.063 42.9609 22.8033 42.9609 23.7134C42.9609 24.6207 43.6991 25.3589 44.6065 25.3589ZM44.6065 22.7726C45.1226 22.7726 45.5425 23.1947 45.5425 23.7134C45.5425 24.2295 45.1225 24.6493 44.6065 24.6493C44.0904 24.6493 43.6706 24.2295 43.6706 23.7134C43.6706 23.1947 44.0903 22.7726 44.6065 22.7726Z" fill="#FFFF00"/>
<path d="M56.5695 25.3589H64.1761C65.0836 25.3589 65.8218 24.6207 65.8218 23.7134C65.8218 22.8033 65.0836 22.063 64.1761 22.063H56.5695C55.662 22.063 54.9238 22.8033 54.9238 23.7134C54.9238 24.6207 55.662 25.3589 56.5695 25.3589ZM56.5695 22.7726H64.1761C64.6923 22.7726 65.1122 23.1947 65.1122 23.7134C65.1122 24.2295 64.6922 24.6493 64.1761 24.6493H56.5695C56.0534 24.6493 55.6335 24.2295 55.6335 23.7134C55.6334 23.1947 56.0534 22.7726 56.5695 22.7726Z" fill="#FFFF00"/>
<path d="M64.0117 41.8701H56.2625C55.7079 41.8701 55.1911 42.1449 54.8801 42.6052C54.572 43.0615 54.5101 43.6374 54.7147 44.1462C55.503 46.1052 57.3767 47.371 59.4884 47.371H60.7838C62.8957 47.371 64.7703 46.1054 65.5594 44.1466C65.7641 43.6379 65.7025 43.0619 65.3943 42.6055C65.0832 42.1451 64.5664 41.8701 64.0117 41.8701ZM64.9009 43.8816C64.2207 45.5703 62.6046 46.6614 60.7838 46.6614H59.4883C57.6678 46.6614 56.0525 45.5701 55.3729 43.8814C55.2545 43.5874 55.2894 43.2671 55.468 43.0026C55.6495 42.7338 55.9391 42.5799 56.2624 42.5799H64.0115C64.3348 42.5799 64.6245 42.7341 64.8059 43.0027C64.9848 43.2673 65.0193 43.5876 64.9009 43.8816Z" fill="#FFFF00"/>
<path d="M70.1491 42.8144C69.9763 40.8938 70.7369 38.5177 68.7834 36.0159V22.1231C68.7834 20.6197 67.5602 19.3965 66.0566 19.3965H37.6311C36.1275 19.3965 34.9043 20.6197 34.9043 22.1231V46.5543C34.9043 48.058 36.1275 49.2811 37.6311 49.2811H52.3249C52.9563 50.2978 54.0799 50.9784 55.3622 50.9784H64.9121C66.0868 50.9784 67.1276 50.4068 67.7801 49.5298V51.7723C67.7801 52.7731 66.9659 53.5874 65.9649 53.5874H62.0727C61.9157 53.008 61.3905 52.5783 60.762 52.5783H59.5122C58.7606 52.5783 58.1491 53.1897 58.1491 53.9412C58.1491 54.6928 58.7606 55.3044 59.5122 55.3044H60.762C61.3897 55.3044 61.9144 54.8755 62.0721 54.2971H65.9649C67.3572 54.2971 68.4897 53.1646 68.4897 51.7723V47.7675C68.515 47.7179 68.5368 47.6666 68.5589 47.6154H69.8963C70.5576 47.6154 71.0955 47.0774 71.0955 46.4162V43.9858C71.0957 43.4111 70.6894 42.9308 70.1491 42.8144ZM60.7623 54.5947H59.5124C59.1521 54.5947 58.8589 54.3015 58.8589 53.9412C58.8589 53.581 59.1521 53.2879 59.5124 53.2879H60.7623C61.1226 53.2879 61.4157 53.5811 61.4157 53.9412C61.4157 54.3015 61.1226 54.5947 60.7623 54.5947ZM69.4395 42.7865H68.7835V37.3133C69.7692 39.1899 69.3284 40.6107 69.4395 42.7865ZM51.7966 42.7865H50.8352V39.9659C50.8352 39.5092 50.8937 39.067 50.9967 38.6419C51.4608 39.0294 52.0574 39.2632 52.7079 39.2632C53.1756 39.2632 53.6379 39.14 54.0443 38.907C54.154 38.844 54.2221 38.7274 54.2226 38.6007C54.2231 38.4742 54.1562 38.3569 54.0471 38.293C53.7307 38.1077 53.4788 37.8406 53.3082 37.5299C53.4872 37.4185 53.647 37.2978 53.7789 37.1658C54.2893 36.6554 54.6045 35.6616 54.7268 34.5528C56.2881 34.0188 56.7943 34.3349 63.7133 34.2396C65.4593 34.2396 67.0227 35.0274 68.0739 36.2634V41.3318C67.4732 40.1982 66.2822 39.4233 64.9124 39.4233H55.3623C53.4623 39.4233 51.9079 40.9139 51.7966 42.7865ZM53.079 36.8321C53.0687 36.7518 53.0626 36.6705 53.0626 36.5886C53.0626 36.3926 52.9037 36.2338 52.7078 36.2338C52.5118 36.2338 52.353 36.3927 52.353 36.5886C52.353 37.3119 52.6518 38.0009 53.1602 38.5009C53.0124 38.5358 52.8604 38.5536 52.7079 38.5536C51.6243 38.5536 50.7429 37.6721 50.7429 36.5886C50.7429 36.3926 50.584 36.2338 50.3881 36.2338C50.1922 36.2338 50.0333 36.3927 50.0333 36.5886C50.0333 36.9846 50.1222 37.3595 50.2772 37.698C48.1834 37.9132 45.7204 37.5693 44.8153 36.6641C43.7424 35.5913 43.7395 31.3765 44.8153 30.3003C46.2782 28.8375 51.8143 28.8374 53.2772 30.3003C54.3476 31.371 54.3478 35.5936 53.2772 36.6641C53.2184 36.7228 53.1504 36.7781 53.079 36.8321ZM50.3781 43.496H51.7858V46.9056H50.3781C50.1081 46.9056 49.8885 46.6859 49.8885 46.4159V43.9856C49.8885 43.7157 50.1081 43.496 50.3781 43.496ZM37.6311 48.5715C36.5188 48.5715 35.6139 47.6666 35.6139 46.5543V22.1231C35.6139 21.011 36.5188 20.1061 37.6311 20.1061H66.0566C67.1688 20.1061 68.0737 21.011 68.0737 22.1231V35.2461C66.9257 34.1846 65.3962 33.5299 63.7132 33.5299C56.7216 33.6098 56.2989 33.3454 54.777 33.7919C54.8263 32.1864 54.4962 30.5159 53.7788 29.7984C52.0539 28.0732 46.0382 28.0732 44.3134 29.7984C42.9525 31.1592 42.9594 35.8121 44.3134 37.1657C45.5356 38.3882 48.4941 38.5784 50.3259 38.3832C50.1966 38.8897 50.1254 39.4192 50.1254 39.9657V42.8142C49.5852 42.9307 49.1787 43.4111 49.1787 43.9855V46.4159C49.1787 47.0772 49.7167 47.6151 50.3779 47.6151H51.7964C51.8163 47.9481 51.8808 48.2686 51.986 48.5712H37.6311V48.5715ZM67.7794 47.4019C67.7794 48.9828 66.4931 50.2689 64.9122 50.2689H55.3623C53.7814 50.2689 52.4953 48.9829 52.4953 47.4019C52.4953 46.9592 52.4953 43.4535 52.4953 42.9999C52.4953 41.419 53.7813 40.1329 55.3623 40.1329H64.9122C66.4931 40.1329 67.7794 41.4189 67.7794 42.9999V47.4019ZM70.3862 46.416C70.3862 46.686 70.1665 46.9057 69.8965 46.9057H68.489V43.4961H69.8965C70.1664 43.4961 70.3862 43.7158 70.3862 43.9858V46.416Z" fill="#FFFF00"/>
<path d="M60.8053 48.2901C60.4378 48.6574 59.8395 48.6569 59.4709 48.2885C59.3323 48.1499 59.1078 48.1499 58.9692 48.2885C58.8306 48.4272 58.8306 48.6517 58.9692 48.7902C59.6167 49.4377 60.6653 49.4336 61.3071 48.7918C61.4457 48.6532 61.4457 48.4287 61.3071 48.2901C61.1685 48.1516 60.9439 48.1515 60.8053 48.2901Z" fill="#FFFF00"/>
<path d="M57.8626 43.5542C57.6666 43.5542 57.5078 43.7131 57.5078 43.909V44.5192C57.5078 44.7152 57.6667 44.874 57.8626 44.874C58.0586 44.874 58.2174 44.7151 58.2174 44.5192V43.909C58.2175 43.7131 58.0586 43.5542 57.8626 43.5542Z" fill="#FFFF00"/>
<path d="M62.5228 43.5542C62.3268 43.5542 62.168 43.7131 62.168 43.909V44.5192C62.168 44.7152 62.3269 44.874 62.5228 44.874C62.7187 44.874 62.8775 44.7151 62.8775 44.5192V43.909C62.8775 43.7131 62.7186 43.5542 62.5228 43.5542Z" fill="#FFFF00"/>
<path d="M46.2454 32.8032C46.0494 32.8032 45.8906 32.9621 45.8906 33.158V33.8066C45.8906 34.0026 46.0495 34.1614 46.2454 34.1614C46.4413 34.1614 46.6002 34.0025 46.6002 33.8066V33.158C46.6002 32.9621 46.4414 32.8032 46.2454 32.8032Z" fill="#FFFF00"/>
<path d="M49.0462 32.8032C48.8502 32.8032 48.6914 32.9621 48.6914 33.158V33.8066C48.6914 34.0026 48.8503 34.1614 49.0462 34.1614C49.2421 34.1614 49.401 34.0025 49.401 33.8066V33.158C49.401 32.9621 49.2421 32.8032 49.0462 32.8032Z" fill="#FFFF00"/>
<path d="M51.847 32.8032C51.651 32.8032 51.4922 32.9621 51.4922 33.158V33.8066C51.4922 34.0026 51.6511 34.1614 51.847 34.1614C52.0429 34.1614 52.2018 34.0025 52.2018 33.8066V33.158C52.2018 32.9621 52.0429 32.8032 51.847 32.8032Z" fill="#FFFF00"/>
<path d="M91.232 32.1986H92.688V42.1666H96.592V43.3506H91.232V32.1986ZM101.866 35.6706C100.442 35.6706 99.2582 36.6146 99.0982 38.3266H104.634C104.65 36.6146 103.37 35.6706 101.866 35.6706ZM105.962 40.6466C105.514 42.2466 104.106 43.4946 101.93 43.4946C99.4342 43.4946 97.5942 41.7346 97.5942 38.9506C97.5942 36.1826 99.3702 34.4386 101.93 34.4386C104.474 34.4386 106.138 36.2306 106.138 38.6306C106.138 38.9506 106.122 39.2066 106.09 39.5106H99.0822C99.1942 41.2866 100.442 42.2626 101.93 42.2626C103.242 42.2626 104.074 41.5906 104.394 40.6466H105.962ZM107.516 38.9346C107.516 36.1986 109.324 34.4386 111.676 34.4386C113.276 34.4386 114.428 35.2386 114.94 36.1826V34.5826H116.412V43.5426C116.412 45.9586 114.796 47.6706 112.22 47.6706C109.916 47.6706 108.268 46.5026 107.98 44.6306H109.42C109.74 45.6866 110.78 46.4066 112.22 46.4066C113.772 46.4066 114.94 45.4146 114.94 43.5426V41.7026C114.412 42.6466 113.276 43.4946 111.676 43.4946C109.324 43.4946 107.516 41.6546 107.516 38.9346ZM114.94 38.9506C114.94 36.9186 113.564 35.7026 111.964 35.7026C110.364 35.7026 109.004 36.8706 109.004 38.9346C109.004 40.9986 110.364 42.2146 111.964 42.2146C113.564 42.2146 114.94 41.0146 114.94 38.9506ZM118.329 38.9346C118.329 36.1986 120.137 34.4386 122.489 34.4386C124.121 34.4386 125.241 35.2706 125.753 36.1826V34.5826H127.225V43.3506H125.753V41.7186C125.225 42.6626 124.089 43.4946 122.473 43.4946C120.137 43.4946 118.329 41.6546 118.329 38.9346ZM125.753 38.9506C125.753 36.9186 124.377 35.7026 122.777 35.7026C121.177 35.7026 119.817 36.8706 119.817 38.9346C119.817 40.9986 121.177 42.2146 122.777 42.2146C124.377 42.2146 125.753 41.0146 125.753 38.9506ZM129.685 43.3506V31.5106H131.141V43.3506H129.685ZM137.344 37.7666C137.344 34.4226 139.792 32.0546 142.912 32.0546C145.328 32.0546 147.248 33.2706 148.08 35.4306H146.336C145.728 34.0866 144.544 33.3346 142.912 33.3346C140.576 33.3346 138.832 35.0306 138.832 37.7666C138.832 40.4866 140.576 42.1826 142.912 42.1826C144.544 42.1826 145.728 41.4306 146.336 40.1026H148.08C147.248 42.2466 145.328 43.4466 142.912 43.4466C139.792 43.4466 137.344 41.1106 137.344 37.7666ZM150.248 43.3506V31.5106H151.704V35.8466C152.28 34.9186 153.368 34.4226 154.6 34.4226C156.552 34.4226 158.104 35.6706 158.104 38.1826V43.3506H156.664V38.3906C156.664 36.5986 155.688 35.6866 154.216 35.6866C152.728 35.6866 151.704 36.6146 151.704 38.5026V43.3506H150.248ZM159.938 38.9346C159.938 36.1986 161.746 34.4386 164.098 34.4386C165.73 34.4386 166.85 35.2706 167.362 36.1826V34.5826H168.834V43.3506H167.362V41.7186C166.834 42.6626 165.698 43.4946 164.082 43.4946C161.746 43.4946 159.938 41.6546 159.938 38.9346ZM167.362 38.9506C167.362 36.9186 165.986 35.7026 164.386 35.7026C162.786 35.7026 161.426 36.8706 161.426 38.9346C161.426 40.9986 162.786 42.2146 164.386 42.2146C165.986 42.2146 167.362 41.0146 167.362 38.9506ZM171.614 40.9506V35.7826H170.478V34.5826H171.614V32.3746H173.07V34.5826H175.358V35.7826H173.07V40.9506C173.07 41.8146 173.39 42.1186 174.286 42.1186H175.358V43.3506H174.046C172.494 43.3506 171.614 42.7106 171.614 40.9506ZM178.579 36.2146C179.139 35.2386 180.307 34.4386 181.859 34.4386C184.227 34.4386 186.019 36.1986 186.019 38.9346C186.019 41.6546 184.211 43.4946 181.859 43.4946C180.259 43.4946 179.123 42.6946 178.579 41.7346V43.3506H177.123V31.5106H178.579V36.2146ZM184.531 38.9346C184.531 36.8706 183.171 35.7026 181.555 35.7026C179.971 35.7026 178.579 36.9186 178.579 38.9506C178.579 41.0146 179.971 42.2146 181.555 42.2146C183.171 42.2146 184.531 40.9986 184.531 38.9346ZM196.255 38.9506C196.255 41.7346 194.255 43.4946 191.759 43.4946C189.279 43.4946 187.391 41.7346 187.391 38.9506C187.391 36.1826 189.343 34.4386 191.823 34.4386C194.319 34.4386 196.255 36.1826 196.255 38.9506ZM188.879 38.9506C188.879 41.1746 190.239 42.2146 191.759 42.2146C193.279 42.2146 194.767 41.1746 194.767 38.9506C194.767 36.7426 193.311 35.7026 191.807 35.7026C190.271 35.7026 188.879 36.7426 188.879 38.9506ZM198.489 40.9506V35.7826H197.353V34.5826H198.489V32.3746H199.945V34.5826H202.233V35.7826H199.945V40.9506C199.945 41.8146 200.265 42.1186 201.161 42.1186H202.233V43.3506H200.921C199.369 43.3506 198.489 42.7106 198.489 40.9506ZM210.302 40.9666C210.302 42.4066 209.038 43.4946 207.102 43.4946C205.054 43.4946 203.614 42.3746 203.518 40.7746H205.022C205.102 41.6226 205.854 42.2626 207.086 42.2626C208.238 42.2626 208.878 41.6866 208.878 40.9666C208.878 39.0146 203.694 40.1506 203.694 36.8866C203.694 35.5426 204.958 34.4386 206.91 34.4386C208.846 34.4386 210.126 35.4786 210.222 37.1906H208.766C208.702 36.3106 208.03 35.6706 206.862 35.6706C205.79 35.6706 205.15 36.1826 205.15 36.8866C205.15 38.9666 210.238 37.8306 210.302 40.9666ZM223.343 34.5826H221.887C221.919 33.6706 221.311 33.1746 220.527 33.1746C219.663 33.1746 219.103 33.7186 219.103 34.4546C219.103 35.1106 219.471 35.6546 220.255 36.4866L223.583 39.8306C223.679 39.6866 223.775 39.5426 223.871 39.3826L224.959 37.5586H226.527L225.215 39.8306C225.007 40.1986 224.799 40.5186 224.575 40.8386L227.087 43.3506H225.183L223.727 41.8786C222.655 42.9986 221.455 43.5426 219.887 43.5426C217.567 43.5426 215.983 42.2146 215.983 40.1506C215.983 38.6146 216.863 37.3826 218.607 36.6946C217.919 35.8946 217.647 35.2706 217.647 34.4546C217.647 33.0306 218.783 31.9746 220.591 31.9746C222.351 31.9746 223.423 33.0946 223.343 34.5826ZM219.887 42.2946C221.039 42.2946 221.935 41.8466 222.767 40.9186L219.487 37.6226C218.095 38.1506 217.439 38.9826 217.439 40.1026C217.439 41.3506 218.431 42.2946 219.887 42.2946ZM236.892 41.8146L240.396 32.1986H241.932L237.724 43.3506H236.044L231.836 32.1986H233.388L236.892 41.8146ZM243.529 43.3506V34.5826H244.985V43.3506H243.529ZM244.281 33.1586C243.721 33.1586 243.289 32.7266 243.289 32.1666C243.289 31.6066 243.721 31.1746 244.281 31.1746C244.809 31.1746 245.241 31.6066 245.241 32.1666C245.241 32.7266 244.809 33.1586 244.281 33.1586ZM248.922 38.5826V43.3506H247.466V34.5826H248.922V36.0066C249.418 35.0306 250.362 34.4226 251.754 34.4226V35.9266H251.37C249.978 35.9266 248.922 36.5506 248.922 38.5826ZM253.755 40.9506V35.7826H252.619V34.5826H253.755V32.3746H255.211V34.5826H257.499V35.7826H255.211V40.9506C255.211 41.8146 255.531 42.1186 256.427 42.1186H257.499V43.3506H256.187C254.635 43.3506 253.755 42.7106 253.755 40.9506ZM267.039 34.5826V43.3506H265.583V42.0546C265.023 42.9666 263.951 43.4786 262.783 43.4786C260.767 43.4786 259.183 42.2306 259.183 39.7186V34.5826H260.623V39.5266C260.623 41.3026 261.599 42.2146 263.071 42.2146C264.575 42.2146 265.583 41.2866 265.583 39.3986V34.5826H267.039ZM268.954 38.9346C268.954 36.1986 270.762 34.4386 273.114 34.4386C274.746 34.4386 275.866 35.2706 276.378 36.1826V34.5826H277.85V43.3506H276.378V41.7186C275.85 42.6626 274.714 43.4946 273.098 43.4946C270.762 43.4946 268.954 41.6546 268.954 38.9346ZM276.378 38.9506C276.378 36.9186 275.002 35.7026 273.402 35.7026C271.802 35.7026 270.442 36.8706 270.442 38.9346C270.442 40.9986 271.802 42.2146 273.402 42.2146C275.002 42.2146 276.378 41.0146 276.378 38.9506ZM280.31 43.3506V31.5106H281.766V43.3506H280.31ZM296.001 43.3506L295.105 40.8706H290.241L289.345 43.3506H287.809L291.841 32.2626H293.521L297.537 43.3506H296.001ZM294.689 39.6866L292.673 34.0546L290.657 39.6866H294.689ZM305.598 40.9666C305.598 42.4066 304.334 43.4946 302.398 43.4946C300.35 43.4946 298.91 42.3746 298.814 40.7746H300.318C300.398 41.6226 301.15 42.2626 302.382 42.2626C303.534 42.2626 304.174 41.6866 304.174 40.9666C304.174 39.0146 298.99 40.1506 298.99 36.8866C298.99 35.5426 300.254 34.4386 302.206 34.4386C304.142 34.4386 305.422 35.4786 305.518 37.1906H304.062C303.998 36.3106 303.326 35.6706 302.158 35.6706C301.086 35.6706 300.446 36.1826 300.446 36.8866C300.446 38.9666 305.534 37.8306 305.598 40.9666ZM313.958 40.9666C313.958 42.4066 312.694 43.4946 310.758 43.4946C308.71 43.4946 307.27 42.3746 307.174 40.7746H308.678C308.758 41.6226 309.51 42.2626 310.742 42.2626C311.894 42.2626 312.534 41.6866 312.534 40.9666C312.534 39.0146 307.35 40.1506 307.35 36.8866C307.35 35.5426 308.614 34.4386 310.566 34.4386C312.502 34.4386 313.782 35.4786 313.878 37.1906H312.422C312.358 36.3106 311.686 35.6706 310.518 35.6706C309.446 35.6706 308.806 36.1826 308.806 36.8866C308.806 38.9666 313.894 37.8306 313.958 40.9666ZM316.013 43.3506V34.5826H317.469V43.3506H316.013ZM316.765 33.1586C316.205 33.1586 315.773 32.7266 315.773 32.1666C315.773 31.6066 316.205 31.1746 316.765 31.1746C317.293 31.1746 317.725 31.6066 317.725 32.1666C317.725 32.7266 317.293 33.1586 316.765 33.1586ZM326.255 40.9666C326.255 42.4066 324.991 43.4946 323.055 43.4946C321.007 43.4946 319.567 42.3746 319.471 40.7746H320.975C321.055 41.6226 321.807 42.2626 323.039 42.2626C324.191 42.2626 324.831 41.6866 324.831 40.9666C324.831 39.0146 319.647 40.1506 319.647 36.8866C319.647 35.5426 320.911 34.4386 322.863 34.4386C324.799 34.4386 326.079 35.4786 326.175 37.1906H324.719C324.655 36.3106 323.983 35.6706 322.815 35.6706C321.743 35.6706 321.103 36.1826 321.103 36.8866C321.103 38.9666 326.191 37.8306 326.255 40.9666ZM328.63 40.9506V35.7826H327.494V34.5826H328.63V32.3746H330.086V34.5826H332.374V35.7826H330.086V40.9506C330.086 41.8146 330.406 42.1186 331.302 42.1186H332.374V43.3506H331.062C329.51 43.3506 328.63 42.7106 328.63 40.9506ZM333.594 38.9346C333.594 36.1986 335.402 34.4386 337.754 34.4386C339.386 34.4386 340.506 35.2706 341.018 36.1826V34.5826H342.49V43.3506H341.018V41.7186C340.49 42.6626 339.354 43.4946 337.738 43.4946C335.402 43.4946 333.594 41.6546 333.594 38.9346ZM341.018 38.9506C341.018 36.9186 339.642 35.7026 338.042 35.7026C336.442 35.7026 335.082 36.8706 335.082 38.9346C335.082 40.9986 336.442 42.2146 338.042 42.2146C339.642 42.2146 341.018 41.0146 341.018 38.9506ZM351.367 43.3506V38.3906C351.367 36.5986 350.391 35.6866 348.919 35.6866C347.431 35.6866 346.407 36.6146 346.407 38.5026V43.3506H344.951V34.5826H346.407V35.8306C346.983 34.9186 348.039 34.4226 349.223 34.4226C351.255 34.4226 352.807 35.6706 352.807 38.1826V43.3506H351.367ZM355.505 40.9506V35.7826H354.369V34.5826H355.505V32.3746H356.961V34.5826H359.249V35.7826H356.961V40.9506C356.961 41.8146 357.281 42.1186 358.177 42.1186H359.249V43.3506H357.937C356.385 43.3506 355.505 42.7106 355.505 40.9506ZM367.317 40.9666C367.317 42.4066 366.053 43.4946 364.117 43.4946C362.069 43.4946 360.629 42.3746 360.533 40.7746H362.037C362.117 41.6226 362.869 42.2626 364.101 42.2626C365.253 42.2626 365.893 41.6866 365.893 40.9666C365.893 39.0146 360.709 40.1506 360.709 36.8866C360.709 35.5426 361.973 34.4386 363.925 34.4386C365.861 34.4386 367.141 35.4786 367.237 37.1906H365.781C365.717 36.3106 365.045 35.6706 363.877 35.6706C362.805 35.6706 362.165 36.1826 362.165 36.8866C362.165 38.9666 367.253 37.8306 367.317 40.9666Z" fill="white"/>
<defs>
<linearGradient id="paint0_linear_1997_3920" x1="401" y1="69.3399" x2="76.8151" y2="-123.664" gradientUnits="userSpaceOnUse">
<stop offset="0.254808" stop-color="#464646"/>
<stop offset="1" stop-color="#8C8C4C"/>
</linearGradient>
<linearGradient id="paint1_linear_1997_3920" x1="114.696" y1="0.350586" x2="151.827" y2="117.115" gradientUnits="userSpaceOnUse">
<stop stop-color="#9F9F00"/>
<stop offset="0.509615" stop-color="#4D4D00"/>
</linearGradient>
</defs>
</svg>
