<svg width="366" height="319" viewBox="0 0 366 319" fill="none" xmlns="http://www.w3.org/2000/svg">
<g filter="url(#filter0_d_2078_5185)">
<path d="M26 26.3503C26 20.8275 30.4772 16.3503 36 16.3503H330C335.523 16.3503 340 20.8275 340 26.3503V272.35C340 277.873 335.523 282.35 330 282.35H36C30.4771 282.35 26 277.873 26 272.35V26.3503Z" fill="url(#paint0_linear_2078_5185)" fill-opacity="0.6" shape-rendering="crispEdges"/>
<path d="M36 16.8503H330C335.247 16.8503 339.5 21.1036 339.5 26.3503V272.35C339.5 277.597 335.247 281.85 330 281.85H36C30.7533 281.85 26.5 277.597 26.5 272.35V26.3503C26.5 21.1036 30.7533 16.8503 36 16.8503Z" stroke="url(#paint1_linear_2078_5185)" shape-rendering="crispEdges"/>
<rect x="50" y="48.3503" width="74" height="74" rx="37" stroke="#FFFF00" stroke-width="1.5"/>
<path d="M101.437 90.4034V85.9672C102.835 85.8117 104.131 85.1625 105.092 84.1364C106.053 83.1103 106.617 81.7747 106.681 80.3701C106.745 78.9655 106.306 77.5842 105.442 76.4748C104.578 75.3654 103.346 74.6008 101.969 74.3188C101.697 72.986 100.973 71.7882 99.9197 70.9282C98.866 70.0683 97.5473 69.5991 96.1872 69.6003C95.5683 69.6006 94.953 69.6958 94.3629 69.8825C93.6108 68.5973 92.5354 67.5314 91.2437 66.7906C89.9519 66.0499 88.4888 65.6602 86.9997 65.6602C85.5107 65.6602 84.0476 66.0499 82.7558 66.7906C81.4641 67.5314 80.3887 68.5973 79.6366 69.8825C79.0465 69.6958 78.4312 69.6006 77.8122 69.6003C76.4522 69.5991 75.1335 70.0683 74.0798 70.9282C73.0261 71.7882 72.3022 72.986 72.0307 74.3188C70.6532 74.6008 69.4217 75.3654 68.5578 76.4748C67.694 77.5842 67.2545 78.9655 67.3186 80.3701C67.3827 81.7747 67.9462 83.1103 68.9075 84.1364C69.8688 85.1625 71.1648 85.8117 72.5622 85.9672V103.069C72.5622 103.243 72.6314 103.41 72.7545 103.533C72.8775 103.656 73.0444 103.725 73.2185 103.725H84.2304C84.6182 103.723 84.9977 103.837 85.3197 104.053L86.6388 104.926C86.7464 104.999 86.8732 105.038 87.003 105.038C87.1328 105.038 87.2597 104.999 87.3672 104.926L88.6338 104.067C88.9605 103.843 89.3472 103.724 89.7429 103.725H102.093C102.268 103.725 102.434 103.656 102.558 103.533C102.681 103.41 102.75 103.243 102.75 103.069V97.1628H104.718C104.837 97.1637 104.954 97.1316 105.056 97.0703C105.158 97.0089 105.241 96.9206 105.296 96.815C105.354 96.7116 105.381 96.594 105.376 96.4756C105.37 96.3573 105.331 96.2429 105.263 96.1456L101.437 90.4034ZM72.5622 79.4441V84.6416C71.4596 84.4831 70.4522 83.929 69.7278 83.0827C69.0034 82.2363 68.6116 81.1555 68.6252 80.0415C68.6389 78.9276 69.0571 77.8567 69.802 77.0283C70.5469 76.2 71.5676 75.6708 72.6738 75.5394C72.822 75.5248 72.9606 75.4592 73.0659 75.3539C73.1712 75.2486 73.2367 75.1101 73.2513 74.9619C73.3378 74.2491 73.5898 73.5664 73.9872 72.9684C74.3846 72.3704 74.9164 71.8737 75.54 71.5178C76.1636 71.162 76.8619 70.957 77.5789 70.9192C78.2959 70.8814 79.0118 71.0118 79.6694 71.3C79.8249 71.369 80.001 71.3754 80.161 71.318C80.3211 71.2605 80.453 71.1436 80.5291 70.9916C81.1258 69.7851 82.0479 68.7695 83.1913 68.0594C84.3347 67.3493 85.6538 66.973 86.9997 66.973C88.3457 66.973 89.6648 67.3493 90.8082 68.0594C91.9516 68.7695 92.8737 69.7851 93.4704 70.9916C93.5465 71.1436 93.6784 71.2605 93.8384 71.318C93.9985 71.3754 94.1746 71.369 94.3301 71.3C94.9877 71.0118 95.7036 70.8814 96.4206 70.9192C97.1376 70.957 97.8358 71.162 98.4595 71.5178C99.0831 71.8737 99.6149 72.3704 100.012 72.9684C100.41 73.5664 100.662 74.2491 100.748 74.9619C100.763 75.1101 100.828 75.2486 100.934 75.3539C101.039 75.4592 101.177 75.5248 101.326 75.5394C102.432 75.6708 103.453 76.2 104.197 77.0283C104.942 77.8567 105.361 78.9276 105.374 80.0415C105.388 81.1555 104.996 82.2363 104.272 83.0827C103.547 83.929 102.54 84.4831 101.437 84.6416V79.4441C101.437 79.27 101.368 79.1031 101.245 78.98C101.122 78.857 100.955 78.7878 100.781 78.7878H98.8122V76.8191C98.8122 76.645 98.7431 76.4781 98.62 76.355C98.497 76.232 98.33 76.1628 98.156 76.1628H89.6247C89.1136 76.1648 88.61 76.2863 88.1543 76.5176C87.6985 76.7489 87.3031 77.0836 86.9997 77.495C86.6964 77.0836 86.301 76.7489 85.8452 76.5176C85.3894 76.2863 84.8859 76.1648 84.3747 76.1628H75.8435C75.6694 76.1628 75.5025 76.232 75.3795 76.355C75.2564 76.4781 75.1872 76.645 75.1872 76.8191V78.7878H73.2185C73.0444 78.7878 72.8775 78.857 72.7545 78.98C72.6314 79.1031 72.5622 79.27 72.5622 79.4441ZM100.125 80.1003V88.4347L100.013 88.2706C99.9504 88.1852 99.8684 88.1157 99.7737 88.0678C99.6791 88.0199 99.5745 87.995 99.4685 87.995C99.3624 87.995 99.2579 88.0199 99.1633 88.0678C99.0686 88.1157 98.9866 88.1852 98.9238 88.2706L98.8122 88.4347V80.1003H100.125ZM86.3435 79.4441V100.529L86.0679 100.339C85.5274 99.9794 84.8927 99.7877 84.2435 99.7878H76.4997V77.4753H84.3747C84.8964 77.4769 85.3963 77.6848 85.7651 78.0537C86.134 78.4225 86.3419 78.9224 86.3435 79.4441ZM96.1872 102.413H89.7429C89.0855 102.412 88.4431 102.609 87.8988 102.977L86.9932 103.594L86.0482 102.964C85.5114 102.602 84.8779 102.41 84.2304 102.413H73.8747V80.1003H75.1872V100.444C75.1872 100.618 75.2564 100.785 75.3795 100.908C75.5025 101.031 75.6694 101.1 75.8435 101.1H84.2435C84.6318 101.101 85.011 101.218 85.3329 101.435L86.6322 102.301C86.7417 102.373 86.8691 102.411 86.9997 102.413C87.1305 102.412 87.2582 102.373 87.3672 102.301L88.6272 101.442C88.954 101.218 89.3406 101.099 89.7363 101.1H96.1872V102.413ZM96.1872 99.7878H89.7363C89.079 99.787 88.4365 99.9836 87.8922 100.352L87.656 100.516V79.4441C87.6576 78.9224 87.8655 78.4225 88.2343 78.0537C88.6032 77.6848 89.1031 77.4769 89.6247 77.4753H97.4997V90.4034L93.6738 96.1456C93.6061 96.2429 93.5672 96.3573 93.5614 96.4756C93.5556 96.594 93.5832 96.7116 93.641 96.815C93.6959 96.9206 93.7788 97.0089 93.8808 97.0703C93.9827 97.1316 94.0995 97.1637 94.2185 97.1628H96.1872V99.7878ZM102.093 95.8503C101.919 95.8503 101.753 95.9195 101.629 96.0425C101.506 96.1656 101.437 96.3325 101.437 96.5066V102.413H97.4997V96.5066C97.4997 96.3325 97.4306 96.1656 97.3075 96.0425C97.1845 95.9195 97.0175 95.8503 96.8435 95.8503H95.4457L99.4685 89.8128L103.491 95.8503H102.093Z" fill="#FFFF00"/>
<path d="M89.625 90.6003H95.5312C95.7053 90.6003 95.8722 90.5312 95.9953 90.4081C96.1184 90.2851 96.1875 90.1181 96.1875 89.9441C96.1875 89.77 96.1184 89.6031 95.9953 89.4801C95.8722 89.357 95.7053 89.2878 95.5312 89.2878H89.625C89.451 89.2878 89.284 89.357 89.161 89.4801C89.0379 89.6031 88.9688 89.77 88.9688 89.9441C88.9688 90.1181 89.0379 90.2851 89.161 90.4081C89.284 90.5312 89.451 90.6003 89.625 90.6003Z" fill="#FFFF00"/>
<path d="M89.625 87.9753H95.5312C95.7053 87.9753 95.8722 87.9062 95.9953 87.7831C96.1184 87.6601 96.1875 87.4931 96.1875 87.3191C96.1875 87.145 96.1184 86.9781 95.9953 86.8551C95.8722 86.732 95.7053 86.6628 95.5312 86.6628H89.625C89.451 86.6628 89.284 86.732 89.161 86.8551C89.0379 86.9781 88.9688 87.145 88.9688 87.3191C88.9688 87.4931 89.0379 87.6601 89.161 87.7831C89.284 87.9062 89.451 87.9753 89.625 87.9753Z" fill="#FFFF00"/>
<path d="M92.9062 94.5378H89.625C89.451 94.5378 89.284 94.607 89.161 94.7301C89.0379 94.8531 88.9688 95.02 88.9688 95.1941C88.9688 95.3681 89.0379 95.5351 89.161 95.6581C89.284 95.7812 89.451 95.8503 89.625 95.8503H92.9062C93.0803 95.8503 93.2472 95.7812 93.3703 95.6581C93.4934 95.5351 93.5625 95.3681 93.5625 95.1941C93.5625 95.02 93.4934 94.8531 93.3703 94.7301C93.2472 94.607 93.0803 94.5378 92.9062 94.5378Z" fill="#FFFF00"/>
<path d="M94.875 92.5691C94.875 92.395 94.8059 92.2281 94.6828 92.1051C94.5597 91.982 94.3928 91.9128 94.2188 91.9128H89.625C89.451 91.9128 89.284 91.982 89.161 92.1051C89.0379 92.2281 88.9688 92.395 88.9688 92.5691C88.9688 92.7431 89.0379 92.9101 89.161 93.0331C89.284 93.1562 89.451 93.2253 89.625 93.2253H94.2188C94.3928 93.2253 94.5597 93.1562 94.6828 93.0331C94.8059 92.9101 94.875 92.7431 94.875 92.5691Z" fill="#FFFF00"/>
<path d="M89.625 85.3503H95.5312C95.7053 85.3503 95.8722 85.2812 95.9953 85.1581C96.1184 85.0351 96.1875 84.8681 96.1875 84.6941C96.1875 84.52 96.1184 84.3531 95.9953 84.2301C95.8722 84.107 95.7053 84.0378 95.5312 84.0378H89.625C89.451 84.0378 89.284 84.107 89.161 84.2301C89.0379 84.3531 88.9688 84.52 88.9688 84.6941C88.9688 84.8681 89.0379 85.0351 89.161 85.1581C89.284 85.2812 89.451 85.3503 89.625 85.3503Z" fill="#FFFF00"/>
<path d="M91.5938 97.1628H89.625C89.451 97.1628 89.284 97.232 89.161 97.3551C89.0379 97.4781 88.9688 97.645 88.9688 97.8191C88.9688 97.9931 89.0379 98.1601 89.161 98.2831C89.284 98.4062 89.451 98.4753 89.625 98.4753H91.5938C91.7678 98.4753 91.9347 98.4062 92.0578 98.2831C92.1809 98.1601 92.25 97.9931 92.25 97.8191C92.25 97.645 92.1809 97.4781 92.0578 97.3551C91.9347 97.232 91.7678 97.1628 91.5938 97.1628Z" fill="#FFFF00"/>
<path d="M89.625 80.1003H95.5312C95.7053 80.1003 95.8722 80.0312 95.9953 79.9081C96.1184 79.7851 96.1875 79.6181 96.1875 79.4441C96.1875 79.27 96.1184 79.1031 95.9953 78.9801C95.8722 78.857 95.7053 78.7878 95.5312 78.7878H89.625C89.451 78.7878 89.284 78.857 89.161 78.9801C89.0379 79.1031 88.9688 79.27 88.9688 79.4441C88.9688 79.6181 89.0379 79.7851 89.161 79.9081C89.284 80.0312 89.451 80.1003 89.625 80.1003Z" fill="#FFFF00"/>
<path d="M89.625 82.7253H95.5312C95.7053 82.7253 95.8722 82.6562 95.9953 82.5331C96.1184 82.4101 96.1875 82.2431 96.1875 82.0691C96.1875 81.895 96.1184 81.7281 95.9953 81.6051C95.8722 81.482 95.7053 81.4128 95.5312 81.4128H89.625C89.451 81.4128 89.284 81.482 89.161 81.6051C89.0379 81.7281 88.9688 81.895 88.9688 82.0691C88.9688 82.2431 89.0379 82.4101 89.161 82.5331C89.284 82.6562 89.451 82.7253 89.625 82.7253Z" fill="#FFFF00"/>
<path d="M78.4688 85.3503H84.375C84.549 85.3503 84.716 85.2812 84.839 85.1581C84.9621 85.0351 85.0312 84.8681 85.0312 84.6941V79.4441C85.0312 79.27 84.9621 79.1031 84.839 78.9801C84.716 78.857 84.549 78.7878 84.375 78.7878H78.4688C78.2947 78.7878 78.1278 78.857 78.0047 78.9801C77.8816 79.1031 77.8125 79.27 77.8125 79.4441V84.6941C77.8125 84.8681 77.8816 85.0351 78.0047 85.1581C78.1278 85.2812 78.2947 85.3503 78.4688 85.3503ZM79.125 80.1003H83.7188V84.0378H79.125V80.1003Z" fill="#FFFF00"/>
<path d="M78.4688 95.8503H84.375C84.549 95.8503 84.716 95.7812 84.839 95.6581C84.9621 95.5351 85.0312 95.3681 85.0312 95.1941C85.0312 95.02 84.9621 94.8531 84.839 94.7301C84.716 94.607 84.549 94.5378 84.375 94.5378H78.4688C78.2947 94.5378 78.1278 94.607 78.0047 94.7301C77.8816 94.8531 77.8125 95.02 77.8125 95.1941C77.8125 95.3681 77.8816 95.5351 78.0047 95.6581C78.1278 95.7812 78.2947 95.8503 78.4688 95.8503Z" fill="#FFFF00"/>
<path d="M78.4688 93.2253H84.375C84.549 93.2253 84.716 93.1562 84.839 93.0331C84.9621 92.9101 85.0312 92.7431 85.0312 92.5691C85.0312 92.395 84.9621 92.2281 84.839 92.1051C84.716 91.982 84.549 91.9128 84.375 91.9128H78.4688C78.2947 91.9128 78.1278 91.982 78.0047 92.1051C77.8816 92.2281 77.8125 92.395 77.8125 92.5691C77.8125 92.7431 77.8816 92.9101 78.0047 93.0331C78.1278 93.1562 78.2947 93.2253 78.4688 93.2253Z" fill="#FFFF00"/>
<path d="M78.4688 90.6003H84.375C84.549 90.6003 84.716 90.5312 84.839 90.4081C84.9621 90.2851 85.0312 90.1181 85.0312 89.9441C85.0312 89.77 84.9621 89.6031 84.839 89.4801C84.716 89.357 84.549 89.2878 84.375 89.2878H78.4688C78.2947 89.2878 78.1278 89.357 78.0047 89.4801C77.8816 89.6031 77.8125 89.77 77.8125 89.9441C77.8125 90.1181 77.8816 90.2851 78.0047 90.4081C78.1278 90.5312 78.2947 90.6003 78.4688 90.6003Z" fill="#FFFF00"/>
<path d="M78.4688 87.9753H84.375C84.549 87.9753 84.716 87.9062 84.839 87.7831C84.9621 87.6601 85.0312 87.4931 85.0312 87.3191C85.0312 87.145 84.9621 86.9781 84.839 86.8551C84.716 86.732 84.549 86.6628 84.375 86.6628H78.4688C78.2947 86.6628 78.1278 86.732 78.0047 86.8551C77.8816 86.9781 77.8125 87.145 77.8125 87.3191C77.8125 87.4931 77.8816 87.6601 78.0047 87.7831C78.1278 87.9062 78.2947 87.9753 78.4688 87.9753Z" fill="#FFFF00"/>
<path d="M85.0312 97.8191C85.0312 97.645 84.9621 97.4781 84.839 97.3551C84.716 97.232 84.549 97.1628 84.375 97.1628H78.4688C78.2947 97.1628 78.1278 97.232 78.0047 97.3551C77.8816 97.4781 77.8125 97.645 77.8125 97.8191C77.8125 97.9931 77.8816 98.1601 78.0047 98.2831C78.1278 98.4062 78.2947 98.4753 78.4688 98.4753H84.375C84.549 98.4753 84.716 98.4062 84.839 98.2831C84.9621 98.1601 85.0312 97.9931 85.0312 97.8191Z" fill="#FFFF00"/>
<path d="M57.498 170.672C55.704 170.672 54.232 170.166 53.082 169.154C51.932 168.142 51.357 166.785 51.357 165.083V154.25H54.508V164.83C54.508 165.674 54.7457 166.341 55.221 166.831C55.7117 167.322 56.4707 167.567 57.498 167.567C58.5253 167.567 59.2767 167.322 59.752 166.831C60.2427 166.341 60.488 165.674 60.488 164.83V154.25H63.662V165.083C63.662 166.785 63.087 168.142 61.937 169.154C60.787 170.166 59.3073 170.672 57.498 170.672ZM73.0764 158.528C74.625 158.528 75.9437 159.119 77.0324 160.299C78.1364 161.465 78.6884 162.898 78.6884 164.6C78.6884 166.302 78.1364 167.744 77.0324 168.924C75.9437 170.09 74.625 170.672 73.0764 170.672C71.4664 170.672 70.2244 170.113 69.3504 168.993V174.95H66.3834V158.85H69.3504V160.207C70.2244 159.088 71.4664 158.528 73.0764 158.528ZM70.2474 166.946C70.8454 167.544 71.6044 167.843 72.5244 167.843C73.4444 167.843 74.2034 167.544 74.8014 166.946C75.4147 166.333 75.7214 165.551 75.7214 164.6C75.7214 163.65 75.4147 162.875 74.8014 162.277C74.2034 161.664 73.4444 161.357 72.5244 161.357C71.6044 161.357 70.8454 161.664 70.2474 162.277C69.6494 162.875 69.3504 163.65 69.3504 164.6C69.3504 165.551 69.6494 166.333 70.2474 166.946ZM80.7808 170.35V153.56H83.7478V170.35H80.7808ZM96.2614 168.924C95.0808 170.09 93.6394 170.672 91.9374 170.672C90.2354 170.672 88.7941 170.09 87.6134 168.924C86.4481 167.744 85.8654 166.302 85.8654 164.6C85.8654 162.898 86.4481 161.465 87.6134 160.299C88.7941 159.119 90.2354 158.528 91.9374 158.528C93.6394 158.528 95.0808 159.119 96.2614 160.299C97.4421 161.465 98.0324 162.898 98.0324 164.6C98.0324 166.302 97.4421 167.744 96.2614 168.924ZM89.7064 166.877C90.3044 167.475 91.0481 167.774 91.9374 167.774C92.8268 167.774 93.5704 167.475 94.1684 166.877C94.7664 166.279 95.0654 165.52 95.0654 164.6C95.0654 163.68 94.7664 162.921 94.1684 162.323C93.5704 161.725 92.8268 161.426 91.9374 161.426C91.0481 161.426 90.3044 161.725 89.7064 162.323C89.1238 162.921 88.8324 163.68 88.8324 164.6C88.8324 165.52 89.1238 166.279 89.7064 166.877ZM108.86 158.85H111.827V170.35H108.86V168.993C107.97 170.113 106.721 170.672 105.111 170.672C103.577 170.672 102.259 170.09 101.155 168.924C100.066 167.744 99.5217 166.302 99.5217 164.6C99.5217 162.898 100.066 161.465 101.155 160.299C102.259 159.119 103.577 158.528 105.111 158.528C106.721 158.528 107.97 159.088 108.86 160.207V158.85ZM103.386 166.946C103.984 167.544 104.743 167.843 105.663 167.843C106.583 167.843 107.342 167.544 107.94 166.946C108.553 166.333 108.86 165.551 108.86 164.6C108.86 163.65 108.553 162.875 107.94 162.277C107.342 161.664 106.583 161.357 105.663 161.357C104.743 161.357 103.984 161.664 103.386 162.277C102.788 162.875 102.489 163.65 102.489 164.6C102.489 165.551 102.788 166.333 103.386 166.946ZM123.234 154.25H126.201V170.35H123.234V168.993C122.36 170.113 121.118 170.672 119.508 170.672C117.959 170.672 116.633 170.09 115.529 168.924C114.44 167.744 113.896 166.302 113.896 164.6C113.896 162.898 114.44 161.465 115.529 160.299C116.633 159.119 117.959 158.528 119.508 158.528C121.118 158.528 122.36 159.088 123.234 160.207V154.25ZM117.76 166.946C118.373 167.544 119.14 167.843 120.06 167.843C120.98 167.843 121.739 167.544 122.337 166.946C122.935 166.333 123.234 165.551 123.234 164.6C123.234 163.65 122.935 162.875 122.337 162.277C121.739 161.664 120.98 161.357 120.06 161.357C119.14 161.357 118.373 161.664 117.76 162.277C117.162 162.875 116.863 163.65 116.863 164.6C116.863 165.551 117.162 166.333 117.76 166.946ZM141.197 154.25C143.405 154.25 145.245 155.025 146.717 156.573C148.204 158.122 148.948 160.031 148.948 162.3C148.948 164.57 148.204 166.479 146.717 168.027C145.245 169.576 143.405 170.35 141.197 170.35H134.803V154.25H141.197ZM141.197 167.314C142.592 167.314 143.727 166.854 144.601 165.934C145.475 164.999 145.912 163.788 145.912 162.3C145.912 160.813 145.475 159.609 144.601 158.689C143.727 157.754 142.592 157.286 141.197 157.286H137.977V167.314H141.197ZM159.801 158.85H162.768V170.35H159.801V168.993C158.912 170.113 157.662 170.672 156.052 170.672C154.519 170.672 153.2 170.09 152.096 168.924C151.007 167.744 150.463 166.302 150.463 164.6C150.463 162.898 151.007 161.465 152.096 160.299C153.2 159.119 154.519 158.528 156.052 158.528C157.662 158.528 158.912 159.088 159.801 160.207V158.85ZM154.327 166.946C154.925 167.544 155.684 167.843 156.604 167.843C157.524 167.843 158.283 167.544 158.881 166.946C159.494 166.333 159.801 165.551 159.801 164.6C159.801 163.65 159.494 162.875 158.881 162.277C158.283 161.664 157.524 161.357 156.604 161.357C155.684 161.357 154.925 161.664 154.327 162.277C153.729 162.875 153.43 163.65 153.43 164.6C153.43 165.551 153.729 166.333 154.327 166.946ZM172.037 161.702H169.438V166.486C169.438 166.885 169.537 167.176 169.737 167.36C169.936 167.544 170.227 167.652 170.611 167.682C170.994 167.698 171.469 167.69 172.037 167.659V170.35C169.997 170.58 168.556 170.389 167.713 169.775C166.885 169.162 166.471 168.066 166.471 166.486V161.702H164.47V158.85H166.471V156.527L169.438 155.63V158.85H172.037V161.702ZM182.509 158.85H185.476V170.35H182.509V168.993C181.62 170.113 180.37 170.672 178.76 170.672C177.227 170.672 175.908 170.09 174.804 168.924C173.715 167.744 173.171 166.302 173.171 164.6C173.171 162.898 173.715 161.465 174.804 160.299C175.908 159.119 177.227 158.528 178.76 158.528C180.37 158.528 181.62 159.088 182.509 160.207V158.85ZM177.035 166.946C177.633 167.544 178.392 167.843 179.312 167.843C180.232 167.843 180.991 167.544 181.589 166.946C182.202 166.333 182.509 165.551 182.509 164.6C182.509 163.65 182.202 162.875 181.589 162.277C180.991 161.664 180.232 161.357 179.312 161.357C178.392 161.357 177.633 161.664 177.035 162.277C176.437 162.875 176.138 163.65 176.138 164.6C176.138 165.551 176.437 166.333 177.035 166.946Z" fill="white"/>
<path d="M51.2 197.238V190.198H52.656V197.254C52.656 199.302 53.76 200.182 55.408 200.182C57.056 200.182 58.144 199.302 58.144 197.254V190.198H59.6V197.238C59.6 200.134 57.696 201.462 55.392 201.462C53.088 201.462 51.2 200.134 51.2 197.238ZM63.4849 194.198C64.0129 193.27 65.1649 192.438 66.7649 192.438C69.1169 192.438 70.9249 194.198 70.9249 196.934C70.9249 199.654 69.1169 201.494 66.7649 201.494C65.1649 201.494 64.0289 200.63 63.4849 199.734V205.51H62.0289V192.582H63.4849V194.198ZM69.4369 196.934C69.4369 194.87 68.0769 193.702 66.4609 193.702C64.8769 193.702 63.4849 194.918 63.4849 196.95C63.4849 199.014 64.8769 200.214 66.4609 200.214C68.0769 200.214 69.4369 198.998 69.4369 196.934ZM72.8414 201.35V189.51H74.2974V201.35H72.8414ZM85.0989 196.95C85.0989 199.734 83.0989 201.494 80.6029 201.494C78.1229 201.494 76.2349 199.734 76.2349 196.95C76.2349 194.182 78.1869 192.438 80.6669 192.438C83.1629 192.438 85.0989 194.182 85.0989 196.95ZM77.7229 196.95C77.7229 199.174 79.0829 200.214 80.6029 200.214C82.1229 200.214 83.6109 199.174 83.6109 196.95C83.6109 194.742 82.1549 193.702 80.6509 193.702C79.1149 193.702 77.7229 194.742 77.7229 196.95ZM86.4693 196.934C86.4693 194.198 88.2773 192.438 90.6293 192.438C92.2613 192.438 93.3813 193.27 93.8933 194.182V192.582H95.3653V201.35H93.8933V199.718C93.3653 200.662 92.2293 201.494 90.6133 201.494C88.2773 201.494 86.4693 199.654 86.4693 196.934ZM93.8933 196.95C93.8933 194.918 92.5173 193.702 90.9173 193.702C89.3173 193.702 87.9573 194.87 87.9573 196.934C87.9573 198.998 89.3173 200.214 90.9173 200.214C92.5173 200.214 93.8933 199.014 93.8933 196.95ZM97.2818 196.934C97.2818 194.198 99.0898 192.438 101.458 192.438C102.834 192.438 104.098 193.142 104.706 194.15V189.51H106.178V201.35H104.706V199.702C104.178 200.678 103.042 201.494 101.442 201.494C99.0898 201.494 97.2818 199.654 97.2818 196.934ZM104.706 196.95C104.706 194.918 103.33 193.702 101.73 193.702C100.13 193.702 98.7698 194.87 98.7698 196.934C98.7698 198.998 100.13 200.214 101.73 200.214C103.33 200.214 104.706 199.014 104.706 196.95ZM112.36 196.934C112.36 194.198 114.168 192.438 116.52 192.438C118.152 192.438 119.272 193.27 119.784 194.182V192.582H121.256V201.35H119.784V199.718C119.256 200.662 118.12 201.494 116.504 201.494C114.168 201.494 112.36 199.654 112.36 196.934ZM119.784 196.95C119.784 194.918 118.408 193.702 116.808 193.702C115.208 193.702 113.848 194.87 113.848 196.934C113.848 198.998 115.208 200.214 116.808 200.214C118.408 200.214 119.784 199.014 119.784 196.95ZM130.132 201.35V196.39C130.132 194.598 129.156 193.686 127.684 193.686C126.196 193.686 125.172 194.614 125.172 196.502V201.35H123.716V192.582H125.172V193.83C125.748 192.918 126.804 192.422 127.988 192.422C130.02 192.422 131.572 193.67 131.572 196.182V201.35H130.132ZM137.279 199.686L139.999 192.582H141.503L136.223 205.478H134.719L136.447 201.254L132.911 192.582H134.527L137.279 199.686ZM147.552 198.95V193.782H146.416V192.582H147.552V190.374H149.008V192.582H151.296V193.782H149.008V198.95C149.008 199.814 149.328 200.118 150.224 200.118H151.296V201.35H149.984C148.432 201.35 147.552 200.71 147.552 198.95ZM156.388 199.686L159.108 192.582H160.612L155.332 205.478H153.828L155.556 201.254L152.02 192.582H153.636L156.388 199.686ZM163.532 194.198C164.06 193.27 165.212 192.438 166.812 192.438C169.164 192.438 170.972 194.198 170.972 196.934C170.972 199.654 169.164 201.494 166.812 201.494C165.212 201.494 164.076 200.63 163.532 199.734V205.51H162.076V192.582H163.532V194.198ZM169.484 196.934C169.484 194.87 168.124 193.702 166.508 193.702C164.924 193.702 163.532 194.918 163.532 196.95C163.532 199.014 164.924 200.214 166.508 200.214C168.124 200.214 169.484 198.998 169.484 196.934ZM176.616 193.67C175.192 193.67 174.008 194.614 173.848 196.326H179.384C179.4 194.614 178.12 193.67 176.616 193.67ZM180.712 198.646C180.264 200.246 178.856 201.494 176.68 201.494C174.184 201.494 172.344 199.734 172.344 196.95C172.344 194.182 174.12 192.438 176.68 192.438C179.224 192.438 180.888 194.23 180.888 196.63C180.888 196.95 180.872 197.206 180.84 197.51H173.832C173.944 199.286 175.192 200.262 176.68 200.262C177.992 200.262 178.824 199.59 179.144 198.646H180.712ZM195.396 196.95C195.396 199.734 193.396 201.494 190.9 201.494C188.42 201.494 186.532 199.734 186.532 196.95C186.532 194.182 188.484 192.438 190.964 192.438C193.46 192.438 195.396 194.182 195.396 196.95ZM188.02 196.95C188.02 199.174 189.38 200.214 190.9 200.214C192.42 200.214 193.908 199.174 193.908 196.95C193.908 194.742 192.452 193.702 190.948 193.702C189.412 193.702 188.02 194.742 188.02 196.95ZM197.582 201.35V193.782H196.446V192.582H197.582V191.958C197.582 190.006 198.542 189.126 200.782 189.126V190.342C199.47 190.342 199.038 190.822 199.038 191.958V192.582H200.878V193.782H199.038V201.35H197.582ZM206.297 196.934C206.297 194.198 208.105 192.438 210.473 192.438C211.849 192.438 213.113 193.142 213.721 194.15V189.51H215.193V201.35H213.721V199.702C213.193 200.678 212.057 201.494 210.457 201.494C208.105 201.494 206.297 199.654 206.297 196.934ZM213.721 196.95C213.721 194.918 212.345 193.702 210.745 193.702C209.145 193.702 207.785 194.87 207.785 196.934C207.785 198.998 209.145 200.214 210.745 200.214C212.345 200.214 213.721 199.014 213.721 196.95ZM217.11 196.934C217.11 194.198 218.918 192.438 221.27 192.438C222.902 192.438 224.022 193.27 224.534 194.182V192.582H226.006V201.35H224.534V199.718C224.006 200.662 222.87 201.494 221.254 201.494C218.918 201.494 217.11 199.654 217.11 196.934ZM224.534 196.95C224.534 194.918 223.158 193.702 221.558 193.702C219.958 193.702 218.598 194.87 218.598 196.934C218.598 198.998 219.958 200.214 221.558 200.214C223.158 200.214 224.534 199.014 224.534 196.95ZM228.786 198.95V193.782H227.65V192.582H228.786V190.374H230.242V192.582H232.53V193.782H230.242V198.95C230.242 199.814 230.562 200.118 231.458 200.118H232.53V201.35H231.218C229.666 201.35 228.786 200.71 228.786 198.95ZM233.751 196.934C233.751 194.198 235.559 192.438 237.911 192.438C239.543 192.438 240.663 193.27 241.175 194.182V192.582H242.647V201.35H241.175V199.718C240.647 200.662 239.511 201.494 237.895 201.494C235.559 201.494 233.751 199.654 233.751 196.934ZM241.175 196.95C241.175 194.918 239.799 193.702 238.199 193.702C236.599 193.702 235.239 194.87 235.239 196.934C235.239 198.998 236.599 200.214 238.199 200.214C239.799 200.214 241.175 199.014 241.175 196.95ZM250.829 195.494H252.973C254.637 195.494 255.341 194.71 255.341 193.462C255.341 192.166 254.637 191.398 252.973 191.398H250.829V195.494ZM256.829 193.462C256.829 195.158 255.741 196.694 252.973 196.694H250.829V201.35H249.373V190.198H252.973C255.597 190.198 256.829 191.638 256.829 193.462ZM262.11 190.198C265.774 190.198 268.03 192.342 268.03 195.798C268.03 199.254 265.774 201.35 262.11 201.35H258.638V190.198H262.11ZM260.094 200.15H262.11C265.022 200.15 266.542 198.518 266.542 195.798C266.542 193.078 265.022 191.382 262.11 191.382H260.094V200.15ZM269.951 201.35V190.198H276.255V191.382H271.407V195.142H275.343V196.326H271.407V201.35H269.951ZM284.317 198.966C284.317 200.406 283.053 201.494 281.117 201.494C279.069 201.494 277.629 200.374 277.533 198.774H279.037C279.117 199.622 279.869 200.262 281.101 200.262C282.253 200.262 282.893 199.686 282.893 198.966C282.893 197.014 277.709 198.15 277.709 194.886C277.709 193.542 278.973 192.438 280.925 192.438C282.861 192.438 284.141 193.478 284.237 195.19H282.781C282.717 194.31 282.045 193.67 280.877 193.67C279.805 193.67 279.165 194.182 279.165 194.886C279.165 196.966 284.253 195.83 284.317 198.966ZM285.109 203.638L286.277 199.334H287.877L286.085 203.638H285.109ZM57.536 220.966C57.536 222.406 56.272 223.494 54.336 223.494C52.288 223.494 50.848 222.374 50.752 220.774H52.256C52.336 221.622 53.088 222.262 54.32 222.262C55.472 222.262 56.112 221.686 56.112 220.966C56.112 219.014 50.928 220.15 50.928 216.886C50.928 215.542 52.192 214.438 54.144 214.438C56.08 214.438 57.36 215.478 57.456 217.19H56C55.936 216.31 55.264 215.67 54.096 215.67C53.024 215.67 52.384 216.182 52.384 216.886C52.384 218.966 57.472 217.83 57.536 220.966ZM59.0474 218.95C59.0474 216.198 60.8234 214.438 63.3194 214.438C65.4954 214.438 66.9194 215.558 67.3674 217.398H65.7994C65.4954 216.342 64.6154 215.67 63.3194 215.67C61.7194 215.67 60.5354 216.806 60.5354 218.95C60.5354 221.126 61.7194 222.262 63.3194 222.262C64.6154 222.262 65.4794 221.638 65.7994 220.534H67.3674C66.9194 222.278 65.4954 223.494 63.3194 223.494C60.8234 223.494 59.0474 221.734 59.0474 218.95ZM68.7661 218.934C68.7661 216.198 70.5741 214.438 72.9261 214.438C74.5581 214.438 75.6781 215.27 76.1901 216.182V214.582H77.6621V223.35H76.1901V221.718C75.6621 222.662 74.5261 223.494 72.9101 223.494C70.5741 223.494 68.7661 221.654 68.7661 218.934ZM76.1901 218.95C76.1901 216.918 74.8141 215.702 73.2141 215.702C71.6141 215.702 70.2541 216.87 70.2541 218.934C70.2541 220.998 71.6141 222.214 73.2141 222.214C74.8141 222.214 76.1901 221.014 76.1901 218.95ZM86.5386 223.35V218.39C86.5386 216.598 85.5626 215.686 84.0906 215.686C82.6026 215.686 81.5786 216.614 81.5786 218.502V223.35H80.1226V214.582H81.5786V215.83C82.1546 214.918 83.2106 214.422 84.3946 214.422C86.4266 214.422 87.9786 215.67 87.9786 218.182V223.35H86.5386ZM96.661 220.966C96.661 222.406 95.397 223.494 93.461 223.494C91.413 223.494 89.973 222.374 89.877 220.774H91.381C91.461 221.622 92.213 222.262 93.445 222.262C94.597 222.262 95.237 221.686 95.237 220.966C95.237 219.014 90.053 220.15 90.053 216.886C90.053 215.542 91.317 214.438 93.269 214.438C95.205 214.438 96.485 215.478 96.581 217.19H95.125C95.061 216.31 94.389 215.67 93.221 215.67C92.149 215.67 91.509 216.182 91.509 216.886C91.509 218.966 96.597 217.83 96.661 220.966ZM97.4524 225.638L98.6204 221.334H100.22L98.4284 225.638H97.4524ZM106.474 220.95V215.782H105.338V214.582H106.474V212.374H107.93V214.582H110.218V215.782H107.93V220.95C107.93 221.814 108.25 222.118 109.146 222.118H110.218V223.35H108.906C107.354 223.35 106.474 222.71 106.474 220.95ZM115.71 215.67C114.286 215.67 113.102 216.614 112.942 218.326H118.478C118.494 216.614 117.214 215.67 115.71 215.67ZM119.806 220.646C119.358 222.246 117.95 223.494 115.774 223.494C113.278 223.494 111.438 221.734 111.438 218.95C111.438 216.182 113.214 214.438 115.774 214.438C118.318 214.438 119.982 216.23 119.982 218.63C119.982 218.95 119.966 219.206 119.934 219.51H112.926C113.038 221.286 114.286 222.262 115.774 222.262C117.086 222.262 117.918 221.59 118.238 220.646H119.806ZM126.48 223.35L124.4 220.086L122.4 223.35H120.88L123.712 218.998L120.88 214.582H122.528L124.608 217.83L126.592 214.582H128.112L125.296 218.918L128.128 223.35H126.48ZM129.88 220.95V215.782H128.744V214.582H129.88V212.374H131.336V214.582H133.624V215.782H131.336V220.95C131.336 221.814 131.656 222.118 132.552 222.118H133.624V223.35H132.312C130.76 223.35 129.88 222.71 129.88 220.95ZM139.926 223.35V215.782H138.79V214.582H139.926V213.958C139.926 212.006 140.886 211.126 143.126 211.126V212.342C141.814 212.342 141.382 212.822 141.382 213.958V214.582H143.222V215.782H141.382V223.35H139.926ZM144.92 223.35V214.582H146.376V223.35H144.92ZM145.672 213.158C145.112 213.158 144.68 212.726 144.68 212.166C144.68 211.606 145.112 211.174 145.672 211.174C146.2 211.174 146.632 211.606 146.632 212.166C146.632 212.726 146.2 213.158 145.672 213.158ZM148.857 223.35V211.51H150.313V223.35H148.857ZM156.523 215.67C155.099 215.67 153.914 216.614 153.755 218.326H159.291C159.307 216.614 158.027 215.67 156.523 215.67ZM160.619 220.646C160.171 222.246 158.763 223.494 156.587 223.494C154.091 223.494 152.251 221.734 152.251 218.95C152.251 216.182 154.027 214.438 156.587 214.438C159.131 214.438 160.795 216.23 160.795 218.63C160.795 218.95 160.779 219.206 160.747 219.51H153.739C153.851 221.286 155.099 222.262 156.587 222.262C157.899 222.262 158.731 221.59 159.051 220.646H160.619ZM169.02 220.966C169.02 222.406 167.756 223.494 165.82 223.494C163.772 223.494 162.332 222.374 162.236 220.774H163.74C163.82 221.622 164.572 222.262 165.804 222.262C166.956 222.262 167.596 221.686 167.596 220.966C167.596 219.014 162.412 220.15 162.412 216.886C162.412 215.542 163.676 214.438 165.628 214.438C167.564 214.438 168.844 215.478 168.94 217.19H167.484C167.42 216.31 166.748 215.67 165.58 215.67C164.508 215.67 163.868 216.182 163.868 216.886C163.868 218.966 168.956 217.83 169.02 220.966ZM169.812 225.638L170.98 221.334H172.58L170.788 225.638H169.812ZM184.817 220.966C184.817 222.406 183.553 223.494 181.617 223.494C179.569 223.494 178.129 222.374 178.033 220.774H179.537C179.617 221.622 180.369 222.262 181.601 222.262C182.753 222.262 183.393 221.686 183.393 220.966C183.393 219.014 178.209 220.15 178.209 216.886C178.209 215.542 179.473 214.438 181.425 214.438C183.361 214.438 184.641 215.478 184.737 217.19H183.281C183.217 216.31 182.545 215.67 181.377 215.67C180.305 215.67 179.665 216.182 179.665 216.886C179.665 218.966 184.753 217.83 184.817 220.966ZM187.193 220.95V215.782H186.057V214.582H187.193V212.374H188.649V214.582H190.937V215.782H188.649V220.95C188.649 221.814 188.969 222.118 189.865 222.118H190.937V223.35H189.625C188.073 223.35 187.193 222.71 187.193 220.95ZM194.157 218.582V223.35H192.701V214.582H194.157V216.006C194.653 215.03 195.597 214.422 196.989 214.422V215.926H196.605C195.213 215.926 194.157 216.55 194.157 218.582ZM206.446 214.582V223.35H204.99V222.054C204.43 222.966 203.358 223.478 202.19 223.478C200.174 223.478 198.59 222.23 198.59 219.718V214.582H200.03V219.526C200.03 221.302 201.006 222.214 202.478 222.214C203.982 222.214 204.99 221.286 204.99 219.398V214.582H206.446ZM208.36 218.95C208.36 216.198 210.136 214.438 212.632 214.438C214.808 214.438 216.232 215.558 216.68 217.398H215.112C214.808 216.342 213.928 215.67 212.632 215.67C211.032 215.67 209.848 216.806 209.848 218.95C209.848 221.126 211.032 222.262 212.632 222.262C213.928 222.262 214.792 221.638 215.112 220.534H216.68C216.232 222.278 214.808 223.494 212.632 223.494C210.136 223.494 208.36 221.734 208.36 218.95ZM218.943 220.95V215.782H217.807V214.582H218.943V212.374H220.399V214.582H222.687V215.782H220.399V220.95C220.399 221.814 220.719 222.118 221.615 222.118H222.687V223.35H221.375C219.823 223.35 218.943 222.71 218.943 220.95ZM232.227 214.582V223.35H230.771V222.054C230.211 222.966 229.139 223.478 227.971 223.478C225.955 223.478 224.371 222.23 224.371 219.718V214.582H225.811V219.526C225.811 221.302 226.787 222.214 228.259 222.214C229.763 222.214 230.771 221.286 230.771 219.398V214.582H232.227ZM236.141 218.582V223.35H234.685V214.582H236.141V216.006C236.637 215.03 237.581 214.422 238.973 214.422V215.926H238.589C237.197 215.926 236.141 216.55 236.141 218.582ZM244.382 215.67C242.958 215.67 241.774 216.614 241.614 218.326H247.15C247.166 216.614 245.886 215.67 244.382 215.67ZM248.478 220.646C248.03 222.246 246.622 223.494 244.446 223.494C241.95 223.494 240.11 221.734 240.11 218.95C240.11 216.182 241.886 214.438 244.446 214.438C246.99 214.438 248.654 216.23 248.654 218.63C248.654 218.95 248.638 219.206 248.606 219.51H241.598C241.71 221.286 242.958 222.262 244.446 222.262C245.758 222.262 246.59 221.59 246.91 220.646H248.478ZM250.032 218.934C250.032 216.198 251.84 214.438 254.208 214.438C255.584 214.438 256.848 215.142 257.456 216.15V211.51H258.928V223.35H257.456V221.702C256.928 222.678 255.792 223.494 254.192 223.494C251.84 223.494 250.032 221.654 250.032 218.934ZM257.456 218.95C257.456 216.918 256.08 215.702 254.48 215.702C252.88 215.702 251.52 216.87 251.52 218.934C251.52 220.998 252.88 222.214 254.48 222.214C256.08 222.214 257.456 221.014 257.456 218.95ZM50.688 240.934C50.688 238.198 52.496 236.438 54.864 236.438C56.24 236.438 57.504 237.142 58.112 238.15V233.51H59.584V245.35H58.112V243.702C57.584 244.678 56.448 245.494 54.848 245.494C52.496 245.494 50.688 243.654 50.688 240.934ZM58.112 240.95C58.112 238.918 56.736 237.702 55.136 237.702C53.536 237.702 52.176 238.87 52.176 240.934C52.176 242.998 53.536 244.214 55.136 244.214C56.736 244.214 58.112 243.014 58.112 240.95ZM61.5005 240.934C61.5005 238.198 63.3085 236.438 65.6605 236.438C67.2925 236.438 68.4125 237.27 68.9245 238.182V236.582H70.3965V245.35H68.9245V243.718C68.3965 244.662 67.2605 245.494 65.6445 245.494C63.3085 245.494 61.5005 243.654 61.5005 240.934ZM68.9245 240.95C68.9245 238.918 67.5485 237.702 65.9485 237.702C64.3485 237.702 62.9885 238.87 62.9885 240.934C62.9885 242.998 64.3485 244.214 65.9485 244.214C67.5485 244.214 68.9245 243.014 68.9245 240.95ZM73.177 242.95V237.782H72.041V236.582H73.177V234.374H74.633V236.582H76.921V237.782H74.633V242.95C74.633 243.814 74.953 244.118 75.849 244.118H76.921V245.35H75.609C74.057 245.35 73.177 244.71 73.177 242.95ZM78.1411 240.934C78.1411 238.198 79.9491 236.438 82.3011 236.438C83.9331 236.438 85.0531 237.27 85.5651 238.182V236.582H87.0371V245.35H85.5651V243.718C85.0371 244.662 83.9011 245.494 82.2851 245.494C79.9491 245.494 78.1411 243.654 78.1411 240.934ZM85.5651 240.95C85.5651 238.918 84.1891 237.702 82.5891 237.702C80.9891 237.702 79.6291 238.87 79.6291 240.934C79.6291 242.998 80.9891 244.214 82.5891 244.214C84.1891 244.214 85.5651 243.014 85.5651 240.95ZM95.8016 242.966C95.8016 244.406 94.5376 245.494 92.6016 245.494C90.5536 245.494 89.1136 244.374 89.0176 242.774H90.5216C90.6016 243.622 91.3536 244.262 92.5856 244.262C93.7376 244.262 94.3776 243.686 94.3776 242.966C94.3776 241.014 89.1936 242.15 89.1936 238.886C89.1936 237.542 90.4576 236.438 92.4096 236.438C94.3456 236.438 95.6256 237.478 95.7216 239.19H94.2656C94.2016 238.31 93.5296 237.67 92.3616 237.67C91.2896 237.67 90.6496 238.182 90.6496 238.886C90.6496 240.966 95.7376 239.83 95.8016 242.966ZM101.585 237.67C100.161 237.67 98.977 238.614 98.817 240.326H104.353C104.369 238.614 103.089 237.67 101.585 237.67ZM105.681 242.646C105.233 244.246 103.825 245.494 101.649 245.494C99.153 245.494 97.313 243.734 97.313 240.95C97.313 238.182 99.089 236.438 101.649 236.438C104.193 236.438 105.857 238.23 105.857 240.63C105.857 240.95 105.841 241.206 105.809 241.51H98.801C98.913 243.286 100.161 244.262 101.649 244.262C102.961 244.262 103.793 243.59 104.113 242.646H105.681ZM108.099 242.95V237.782H106.963V236.582H108.099V234.374H109.555V236.582H111.843V237.782H109.555V242.95C109.555 243.814 109.875 244.118 110.771 244.118H111.843V245.35H110.531C108.979 245.35 108.099 244.71 108.099 242.95ZM119.911 242.966C119.911 244.406 118.647 245.494 116.711 245.494C114.663 245.494 113.223 244.374 113.127 242.774H114.631C114.711 243.622 115.463 244.262 116.695 244.262C117.847 244.262 118.487 243.686 118.487 242.966C118.487 241.014 113.303 242.15 113.303 238.886C113.303 237.542 114.567 236.438 116.519 236.438C118.455 236.438 119.735 237.478 119.831 239.19H118.375C118.311 238.31 117.639 237.67 116.471 237.67C115.399 237.67 114.759 238.182 114.759 238.886C114.759 240.966 119.847 239.83 119.911 242.966Z" fill="white"/>
</g>
<defs>
<filter id="filter0_d_2078_5185" x="0" y="0.350342" width="366" height="318" filterUnits="userSpaceOnUse" color-interpolation-filters="sRGB">
<feFlood flood-opacity="0" result="BackgroundImageFix"/>
<feColorMatrix in="SourceAlpha" type="matrix" values="0 0 0 0 0 0 0 0 0 0 0 0 0 0 0 0 0 0 127 0" result="hardAlpha"/>
<feOffset dy="10"/>
<feGaussianBlur stdDeviation="13"/>
<feComposite in2="hardAlpha" operator="out"/>
<feColorMatrix type="matrix" values="0 0 0 0 0 0 0 0 0 0 0 0 0 0 0 0 0 0 0.2 0"/>
<feBlend mode="normal" in2="BackgroundImageFix" result="effect1_dropShadow_2078_5185"/>
<feBlend mode="normal" in="SourceGraphic" in2="effect1_dropShadow_2078_5185" result="shape"/>
</filter>
<linearGradient id="paint0_linear_2078_5185" x1="340" y1="264.339" x2="1.86149" y2="220.486" gradientUnits="userSpaceOnUse">
<stop offset="0.254808" stop-color="#464646"/>
<stop offset="1" stop-color="#43430D"/>
</linearGradient>
<linearGradient id="paint1_linear_2078_5185" x1="115.812" y1="16.3503" x2="331.29" y2="163.957" gradientUnits="userSpaceOnUse">
<stop stop-color="#9F9F00"/>
<stop offset="0.509615" stop-color="#4D4D00"/>
</linearGradient>
</defs>
</svg>
