<svg width="371" height="285" viewBox="0 0 371 285" fill="none" xmlns="http://www.w3.org/2000/svg">
<g filter="url(#filter0_d_2094_13638)">
<path d="M26.5 26.3503C26.5 20.8275 30.9772 16.3503 36.5 16.3503H334.5C340.023 16.3503 344.5 20.8275 344.5 26.3503V238.35C344.5 243.873 340.023 248.35 334.5 248.35H36.5C30.9771 248.35 26.5 243.873 26.5 238.35V26.3503Z" fill="url(#paint0_linear_2094_13638)" fill-opacity="0.6" shape-rendering="crispEdges"/>
<path d="M36.5 16.8503H334.5C339.747 16.8503 344 21.1036 344 26.3503V238.35C344 243.597 339.747 247.85 334.5 247.85H36.5C31.2533 247.85 27 243.597 27 238.35V26.3503L27.0127 25.8611C27.2673 20.8418 31.4174 16.8503 36.5 16.8503Z" stroke="url(#paint1_linear_2094_13638)" shape-rendering="crispEdges"/>
<path d="M90.7008 66.9323C90.7008 64.0763 88.8168 61.5623 86.1408 60.7223C86.4108 59.9363 86.5608 59.0963 86.5608 58.2203C86.5608 53.9123 83.0628 50.4083 78.7608 50.4083C74.4528 50.4083 70.9488 53.9123 70.9488 58.2203C70.9488 58.9883 71.0628 59.7263 71.2728 60.4223H58.8108C57.0768 60.4223 55.4388 61.1003 54.2028 62.3303C52.9788 63.5603 52.3008 65.1983 52.3008 66.9323C52.3008 70.5203 55.2228 73.4363 58.8108 73.4363H64.9908H83.0508V84.8183C83.0508 86.0903 82.0128 87.1283 80.7408 87.1283C79.4688 87.1283 78.4308 86.0903 78.4308 84.8183V83.8043C78.4308 82.3823 77.2728 81.2243 75.8508 81.2243H74.0568C74.0148 80.7743 73.9188 80.3423 73.7868 79.9223C73.7868 79.9163 73.7868 79.9163 73.7808 79.9103C73.7388 79.7903 73.7028 79.6703 73.6548 79.5503C73.3428 78.7523 72.8628 78.0143 72.2568 77.4083C71.0748 76.2383 69.5148 75.5903 67.8588 75.5903H63.4668C60.0408 75.5903 57.2508 78.3743 57.2508 81.8003C57.2508 85.2263 60.0408 88.0163 63.4668 88.0163H67.8588C70.4448 88.0163 72.7188 86.4623 73.6488 84.0563C73.6908 83.9423 73.7268 83.8223 73.7688 83.7083C73.7748 83.6963 73.7808 83.6783 73.7808 83.6663C73.9128 83.2463 74.0028 82.8203 74.0448 82.3823H75.8448C76.6248 82.3823 77.2608 83.0183 77.2608 83.7983V84.8123C77.2608 86.7263 78.8208 88.2863 80.7348 88.2863C82.6488 88.2863 84.2088 86.7263 84.2088 84.8123V73.4363C87.7968 73.4243 90.7008 70.5143 90.7008 66.9323ZM70.5348 82.8923C69.9348 82.8923 69.4488 82.4063 69.4488 81.8063C69.4488 81.2123 69.9348 80.7263 70.5348 80.7263H72.8028C72.8808 81.0743 72.9228 81.4343 72.9228 81.8063C72.9228 82.1723 72.8808 82.5383 72.7968 82.8983H70.5348V82.8923ZM67.8708 86.8583H63.4788C60.6948 86.8583 58.4268 84.5903 58.4268 81.8063C58.4268 79.0223 60.6948 76.7603 63.4788 76.7603H67.8708C69.2148 76.7603 70.4868 77.2883 71.4468 78.2363C71.8308 78.6203 72.1488 79.0703 72.3948 79.5623H70.5408C69.2988 79.5623 68.2908 80.5703 68.2908 81.8063C68.2908 83.0483 69.2988 84.0563 70.5408 84.0563H72.3828C71.5308 85.7663 69.8148 86.8583 67.8708 86.8583ZM78.7668 51.5723C82.4268 51.5723 85.4028 54.5543 85.4028 58.2203C85.4028 61.8803 82.4268 64.8563 78.7668 64.8563C75.1008 64.8563 72.1188 61.8803 72.1188 58.2203C72.1188 54.5543 75.1008 51.5723 78.7668 51.5723ZM53.4648 66.9323C53.4648 65.5043 54.0228 64.1603 55.0248 63.1523C56.0388 62.1443 57.3828 61.5863 58.8108 61.5863H64.4088V72.2723H58.8108C55.8648 72.2723 53.4648 69.8783 53.4648 66.9323ZM84.1968 72.2723H65.5728V61.5863H71.7288C72.9888 64.2023 75.6648 66.0143 78.7608 66.0143C81.7728 66.0143 84.3828 64.2983 85.6788 61.7963C87.9348 62.4503 89.5308 64.5443 89.5308 66.9323C89.5368 69.8783 87.1428 72.2723 84.1968 72.2723Z" fill="#FFFF00"/>
<path d="M61.9661 69.1404L60.7301 67.9044C61.0061 67.4724 61.1621 66.9744 61.1621 66.4464C61.1621 65.7204 60.8801 65.0424 60.3701 64.5264C59.3141 63.4704 57.5921 63.4704 56.5361 64.5264C55.4801 65.5824 55.4801 67.3044 56.5361 68.3604C57.0641 68.8884 57.7601 69.1524 58.4561 69.1524C58.9661 69.1524 59.4701 69.0084 59.9141 68.7264L61.1501 69.9624C61.2641 70.0764 61.4141 70.1304 61.5641 70.1304C61.7141 70.1304 61.8641 70.0764 61.9781 69.9624C62.1941 69.7344 62.1941 69.3684 61.9661 69.1404ZM57.3521 67.5384C56.7461 66.9324 56.7461 65.9544 57.3521 65.3484C57.6521 65.0484 58.0481 64.8984 58.4441 64.8984C58.8401 64.8984 59.2361 65.0484 59.5361 65.3484C59.8301 65.6424 59.9861 66.0264 59.9861 66.4404C59.9861 66.8544 59.8241 67.2444 59.5361 67.5324C58.9421 68.1384 57.9581 68.1444 57.3521 67.5384Z" fill="#FFFF00"/>
<path d="M71.0813 64.6943C71.4053 64.6943 71.6633 64.4363 71.6633 64.1123C71.6633 63.7883 71.4053 63.5303 71.0813 63.5303H68.6093C68.2853 63.5303 68.0273 63.7883 68.0273 64.1123C68.0273 64.4363 68.2853 64.6943 68.6093 64.6943H69.2633V69.1703H68.6093C68.2853 69.1703 68.0273 69.4283 68.0273 69.7523C68.0273 70.0763 68.2853 70.3343 68.6093 70.3343H71.0813C71.4053 70.3343 71.6633 70.0763 71.6633 69.7523C71.6633 69.4283 71.4053 69.1703 71.0813 69.1703H70.4273V64.6943H71.0813Z" fill="#FFFF00"/>
<path d="M77.4165 61.9703C77.4825 61.9943 77.5485 62.0063 77.6205 62.0063C77.8545 62.0063 78.0825 61.8623 78.1665 61.6283L80.5305 55.2083C80.6385 54.9083 80.4885 54.5723 80.1885 54.4583C79.8885 54.3503 79.5525 54.5003 79.4385 54.8003L77.0745 61.2203C76.9605 61.5203 77.1165 61.8563 77.4165 61.9703Z" fill="#FFFF00"/>
<path d="M81.0226 60.7523C81.1366 60.8663 81.2866 60.9203 81.4366 60.9203C81.5866 60.9203 81.7366 60.8663 81.8506 60.7523L83.1406 59.4623C83.2486 59.3543 83.3086 59.2043 83.3086 59.0483C83.3086 58.8923 83.2486 58.7483 83.1406 58.6343L81.8446 57.3503C81.6166 57.1223 81.2506 57.1223 81.0226 57.3503C80.7946 57.5783 80.7946 57.9443 81.0226 58.1723L81.8986 59.0543L81.0226 59.9303C80.7946 60.1583 80.7946 60.5243 81.0226 60.7523Z" fill="#FFFF00"/>
<path d="M75.6708 59.0784C75.7848 59.1924 75.9348 59.2464 76.0848 59.2464C76.2348 59.2464 76.3848 59.1924 76.4988 59.0784C76.7268 58.8504 76.7268 58.4844 76.4988 58.2564L75.6228 57.3804L76.4988 56.4984C76.7268 56.2704 76.7268 55.9044 76.4988 55.6764C76.2708 55.4484 75.9048 55.4484 75.6768 55.6764L74.3868 56.9664C74.2788 57.0744 74.2188 57.2244 74.2188 57.3804C74.2188 57.5364 74.2788 57.6804 74.3868 57.7944L75.6708 59.0784Z" fill="#FFFF00"/>
<path d="M59.044 156.182H60.5V167.35H59.044L53.188 158.47V167.35H51.732V156.182H53.188L59.044 165.046V156.182ZM62.438 162.934C62.438 160.198 64.246 158.438 66.598 158.438C68.23 158.438 69.35 159.27 69.862 160.182V158.582H71.334V167.35H69.862V165.718C69.334 166.662 68.198 167.494 66.582 167.494C64.246 167.494 62.438 165.654 62.438 162.934ZM69.862 162.95C69.862 160.918 68.486 159.702 66.886 159.702C65.286 159.702 63.926 160.87 63.926 162.934C63.926 164.998 65.286 166.214 66.886 166.214C68.486 166.214 69.862 165.014 69.862 162.95ZM74.1145 164.95V159.782H72.9785V158.582H74.1145V156.374H75.5705V158.582H77.8585V159.782H75.5705V164.95C75.5705 165.814 75.8905 166.118 76.7865 166.118H77.8585V167.35H76.5465C74.9945 167.35 74.1145 166.71 74.1145 164.95ZM87.3986 158.582V167.35H85.9426V166.054C85.3826 166.966 84.3106 167.478 83.1426 167.478C81.1266 167.478 79.5426 166.23 79.5426 163.718V158.582H80.9826V163.526C80.9826 165.302 81.9586 166.214 83.4306 166.214C84.9346 166.214 85.9426 165.286 85.9426 163.398V158.582H87.3986ZM91.313 162.582V167.35H89.857V158.582H91.313V160.006C91.809 159.03 92.753 158.422 94.145 158.422V159.926H93.761C92.369 159.926 91.313 160.55 91.313 162.582ZM95.2818 162.934C95.2818 160.198 97.0898 158.438 99.4418 158.438C101.074 158.438 102.194 159.27 102.706 160.182V158.582H104.178V167.35H102.706V165.718C102.178 166.662 101.042 167.494 99.4258 167.494C97.0898 167.494 95.2818 165.654 95.2818 162.934ZM102.706 162.95C102.706 160.918 101.33 159.702 99.7298 159.702C98.1298 159.702 96.7698 160.87 96.7698 162.934C96.7698 164.998 98.1298 166.214 99.7298 166.214C101.33 166.214 102.706 165.014 102.706 162.95ZM106.638 167.35V155.51H108.094V167.35H106.638ZM114.841 167.35V155.51H116.297V167.35H114.841ZM118.235 162.934C118.235 160.198 120.043 158.438 122.395 158.438C124.027 158.438 125.147 159.27 125.659 160.182V158.582H127.131V167.35H125.659V165.718C125.131 166.662 123.995 167.494 122.379 167.494C120.043 167.494 118.235 165.654 118.235 162.934ZM125.659 162.95C125.659 160.918 124.283 159.702 122.683 159.702C121.083 159.702 119.723 160.87 119.723 162.934C119.723 164.998 121.083 166.214 122.683 166.214C124.283 166.214 125.659 165.014 125.659 162.95ZM136.007 167.35V162.39C136.007 160.598 135.031 159.686 133.559 159.686C132.071 159.686 131.047 160.614 131.047 162.502V167.35H129.591V158.582H131.047V159.83C131.623 158.918 132.679 158.422 133.863 158.422C135.895 158.422 137.447 159.67 137.447 162.182V167.35H136.007ZM139.282 162.934C139.282 160.198 141.09 158.438 143.442 158.438C145.042 158.438 146.194 159.238 146.706 160.182V158.582H148.178V167.542C148.178 169.958 146.562 171.67 143.986 171.67C141.682 171.67 140.034 170.502 139.746 168.63H141.186C141.506 169.686 142.546 170.406 143.986 170.406C145.538 170.406 146.706 169.414 146.706 167.542V165.702C146.178 166.646 145.042 167.494 143.442 167.494C141.09 167.494 139.282 165.654 139.282 162.934ZM146.706 162.95C146.706 160.918 145.33 159.702 143.73 159.702C142.13 159.702 140.77 160.87 140.77 162.934C140.77 164.998 142.13 166.214 143.73 166.214C145.33 166.214 146.706 165.014 146.706 162.95ZM158.414 158.582V167.35H156.958V166.054C156.398 166.966 155.326 167.478 154.158 167.478C152.142 167.478 150.558 166.23 150.558 163.718V158.582H151.998V163.526C151.998 165.302 152.974 166.214 154.446 166.214C155.95 166.214 156.958 165.286 156.958 163.398V158.582H158.414ZM160.329 162.934C160.329 160.198 162.137 158.438 164.489 158.438C166.121 158.438 167.241 159.27 167.753 160.182V158.582H169.225V167.35H167.753V165.718C167.225 166.662 166.089 167.494 164.473 167.494C162.137 167.494 160.329 165.654 160.329 162.934ZM167.753 162.95C167.753 160.918 166.377 159.702 164.777 159.702C163.177 159.702 161.817 160.87 161.817 162.934C161.817 164.998 163.177 166.214 164.777 166.214C166.377 166.214 167.753 165.014 167.753 162.95ZM171.141 162.934C171.141 160.198 172.949 158.438 175.301 158.438C176.901 158.438 178.053 159.238 178.565 160.182V158.582H180.037V167.542C180.037 169.958 178.421 171.67 175.845 171.67C173.541 171.67 171.893 170.502 171.605 168.63H173.045C173.365 169.686 174.405 170.406 175.845 170.406C177.397 170.406 178.565 169.414 178.565 167.542V165.702C178.037 166.646 176.901 167.494 175.301 167.494C172.949 167.494 171.141 165.654 171.141 162.934ZM178.565 162.95C178.565 160.918 177.189 159.702 175.589 159.702C173.989 159.702 172.629 160.87 172.629 162.934C172.629 164.998 173.989 166.214 175.589 166.214C177.189 166.214 178.565 165.014 178.565 162.95ZM186.226 159.67C184.802 159.67 183.618 160.614 183.458 162.326H188.994C189.01 160.614 187.73 159.67 186.226 159.67ZM190.322 164.646C189.874 166.246 188.466 167.494 186.29 167.494C183.794 167.494 181.954 165.734 181.954 162.95C181.954 160.182 183.73 158.438 186.29 158.438C188.834 158.438 190.498 160.23 190.498 162.63C190.498 162.95 190.482 163.206 190.45 163.51H183.442C183.554 165.286 184.802 166.262 186.29 166.262C187.602 166.262 188.434 165.59 188.754 164.646H190.322ZM196.141 162.934C196.141 160.198 197.949 158.438 200.317 158.438C201.917 158.438 203.069 159.27 203.565 160.182V158.582H205.037V171.51H203.565V165.734C203.069 166.63 201.901 167.494 200.269 167.494C197.949 167.494 196.141 165.654 196.141 162.934ZM203.565 162.95C203.565 160.918 202.189 159.702 200.589 159.702C198.989 159.702 197.629 160.87 197.629 162.934C197.629 164.998 198.989 166.214 200.589 166.214C202.189 166.214 203.565 165.014 203.565 162.95ZM215.274 158.582V167.35H213.818V166.054C213.258 166.966 212.186 167.478 211.018 167.478C209.002 167.478 207.418 166.23 207.418 163.718V158.582H208.858V163.526C208.858 165.302 209.834 166.214 211.306 166.214C212.81 166.214 213.818 165.286 213.818 163.398V158.582H215.274ZM221.46 159.67C220.036 159.67 218.852 160.614 218.692 162.326H224.228C224.244 160.614 222.964 159.67 221.46 159.67ZM225.556 164.646C225.108 166.246 223.7 167.494 221.524 167.494C219.028 167.494 217.188 165.734 217.188 162.95C217.188 160.182 218.964 158.438 221.524 158.438C224.068 158.438 225.732 160.23 225.732 162.63C225.732 162.95 225.716 163.206 225.684 163.51H218.676C218.788 165.286 220.036 166.262 221.524 166.262C222.836 166.262 223.668 165.59 223.988 164.646H225.556ZM229.11 162.582V167.35H227.654V158.582H229.11V160.006C229.606 159.03 230.55 158.422 231.942 158.422V159.926H231.558C230.166 159.926 229.11 160.55 229.11 162.582ZM233.623 167.35V158.582H235.079V167.35H233.623ZM234.375 157.158C233.815 157.158 233.383 156.726 233.383 156.166C233.383 155.606 233.815 155.174 234.375 155.174C234.903 155.174 235.335 155.606 235.335 156.166C235.335 156.726 234.903 157.158 234.375 157.158ZM241.288 159.67C239.864 159.67 238.68 160.614 238.52 162.326H244.056C244.072 160.614 242.792 159.67 241.288 159.67ZM245.384 164.646C244.936 166.246 243.528 167.494 241.352 167.494C238.856 167.494 237.016 165.734 237.016 162.95C237.016 160.182 238.792 158.438 241.352 158.438C243.896 158.438 245.56 160.23 245.56 162.63C245.56 162.95 245.544 163.206 245.512 163.51H238.504C238.616 165.286 239.864 166.262 241.352 166.262C242.664 166.262 243.496 165.59 243.816 164.646H245.384ZM253.786 164.966C253.786 166.406 252.522 167.494 250.586 167.494C248.538 167.494 247.098 166.374 247.002 164.774H248.506C248.586 165.622 249.338 166.262 250.57 166.262C251.722 166.262 252.362 165.686 252.362 164.966C252.362 163.014 247.178 164.15 247.178 160.886C247.178 159.542 248.442 158.438 250.394 158.438C252.33 158.438 253.61 159.478 253.706 161.19H252.25C252.186 160.31 251.514 159.67 250.346 159.67C249.274 159.67 248.634 160.182 248.634 160.886C248.634 162.966 253.722 161.83 253.786 164.966ZM265.371 170.326H263.851C261.819 168.326 260.603 165.094 260.603 161.494C260.603 157.878 261.819 154.502 264.091 152.406H265.611V152.55C263.147 154.87 262.011 158.23 262.011 161.494C262.011 164.742 263.147 167.894 265.371 170.182V170.326ZM271.101 159.67C269.677 159.67 268.493 160.614 268.333 162.326H273.869C273.885 160.614 272.605 159.67 271.101 159.67ZM275.197 164.646C274.749 166.246 273.341 167.494 271.165 167.494C268.669 167.494 266.829 165.734 266.829 162.95C266.829 160.182 268.605 158.438 271.165 158.438C273.709 158.438 275.373 160.23 275.373 162.63C275.373 162.95 275.357 163.206 275.325 163.51H268.317C268.429 165.286 269.677 166.262 271.165 166.262C272.477 166.262 273.309 165.59 273.629 164.646H275.197ZM278.719 166.454C278.719 167.014 278.287 167.446 277.759 167.446C277.199 167.446 276.767 167.014 276.767 166.454C276.767 165.894 277.199 165.462 277.759 165.462C278.287 165.462 278.719 165.894 278.719 166.454ZM280.11 162.934C280.11 160.198 281.918 158.438 284.27 158.438C285.87 158.438 287.022 159.238 287.534 160.182V158.582H289.006V167.542C289.006 169.958 287.39 171.67 284.814 171.67C282.51 171.67 280.862 170.502 280.574 168.63H282.014C282.334 169.686 283.374 170.406 284.814 170.406C286.366 170.406 287.534 169.414 287.534 167.542V165.702C287.006 166.646 285.87 167.494 284.27 167.494C281.918 167.494 280.11 165.654 280.11 162.934ZM287.534 162.95C287.534 160.918 286.158 159.702 284.558 159.702C282.958 159.702 281.598 160.87 281.598 162.934C281.598 164.998 282.958 166.214 284.558 166.214C286.158 166.214 287.534 165.014 287.534 162.95ZM292.89 166.454C292.89 167.014 292.458 167.446 291.93 167.446C291.37 167.446 290.938 167.014 290.938 166.454C290.938 165.894 291.37 165.462 291.93 165.462C292.458 165.462 292.89 165.894 292.89 166.454ZM293.562 169.638L294.73 165.334H296.33L294.538 169.638H293.562ZM52.468 178.182H53.492L52.548 181.814H50.932L52.468 178.182ZM55.076 178.182H56.1L55.156 181.814H53.54L55.076 178.182ZM57.9039 189.35V178.198H64.2079V179.382H59.3599V183.142H63.2959V184.326H59.3599V189.35H57.9039ZM65.9664 189.35V180.582H67.4224V189.35H65.9664ZM66.7184 179.158C66.1584 179.158 65.7264 178.726 65.7264 178.166C65.7264 177.606 66.1584 177.174 66.7184 177.174C67.2464 177.174 67.6784 177.606 67.6784 178.166C67.6784 178.726 67.2464 179.158 66.7184 179.158ZM76.3199 189.35V184.39C76.3199 182.598 75.3439 181.686 73.8719 181.686C72.3839 181.686 71.3599 182.614 71.3599 184.502V189.35H69.9039V180.582H71.3599V181.83C71.9359 180.918 72.9919 180.422 74.1759 180.422C76.2079 180.422 77.7599 181.67 77.7599 184.182V189.35H76.3199ZM79.5943 184.934C79.5943 182.198 81.4023 180.438 83.7703 180.438C85.1463 180.438 86.4103 181.142 87.0183 182.15V177.51H88.4903V189.35H87.0183V187.702C86.4903 188.678 85.3543 189.494 83.7543 189.494C81.4023 189.494 79.5943 187.654 79.5943 184.934ZM87.0183 184.95C87.0183 182.918 85.6423 181.702 84.0423 181.702C82.4423 181.702 81.0823 182.87 81.0823 184.934C81.0823 186.998 82.4423 188.214 84.0423 188.214C85.6423 188.214 87.0183 187.014 87.0183 184.95ZM95.5364 186.95V181.782H94.4004V180.582H95.5364V178.374H96.9924V180.582H99.2804V181.782H96.9924V186.95C96.9924 187.814 97.3124 188.118 98.2084 188.118H99.2804V189.35H97.9684C96.4164 189.35 95.5364 188.71 95.5364 186.95ZM101.045 189.35V177.51H102.501V181.846C103.077 180.918 104.165 180.422 105.397 180.422C107.349 180.422 108.901 181.67 108.901 184.182V189.35H107.461V184.39C107.461 182.598 106.485 181.686 105.013 181.686C103.525 181.686 102.501 182.614 102.501 184.502V189.35H101.045ZM115.007 181.67C113.583 181.67 112.399 182.614 112.239 184.326H117.775C117.791 182.614 116.511 181.67 115.007 181.67ZM119.103 186.646C118.655 188.246 117.247 189.494 115.071 189.494C112.575 189.494 110.735 187.734 110.735 184.95C110.735 182.182 112.511 180.438 115.071 180.438C117.615 180.438 119.279 182.23 119.279 184.63C119.279 184.95 119.263 185.206 119.231 185.51H112.223C112.335 187.286 113.583 188.262 115.071 188.262C116.383 188.262 117.215 187.59 117.535 186.646H119.103ZM125.05 189.222V188.182C128.09 185.734 130.97 183.43 130.97 181.062C130.97 179.782 130.41 178.822 128.842 178.822C127.338 178.822 126.57 179.862 126.506 181.318H125.098C125.194 178.854 126.746 177.574 128.826 177.574C131.002 177.574 132.41 178.854 132.41 180.998C132.41 183.878 129.306 186.326 127.242 188.006H132.746V189.222H125.05ZM134.43 183.446C134.43 180.134 135.262 177.606 138.462 177.606C141.646 177.606 142.477 180.134 142.477 183.446C142.477 186.806 141.646 189.35 138.462 189.35C135.262 189.35 134.43 186.806 134.43 183.446ZM141.038 183.446C141.038 181.046 140.734 178.934 138.462 178.934C136.174 178.934 135.87 181.046 135.87 183.446C135.87 185.942 136.174 188.022 138.462 188.022C140.734 188.022 141.038 185.942 141.038 183.446ZM144.3 189.222V188.182C147.34 185.734 150.22 183.43 150.22 181.062C150.22 179.782 149.66 178.822 148.092 178.822C146.588 178.822 145.82 179.862 145.756 181.318H144.348C144.444 178.854 145.996 177.574 148.076 177.574C150.252 177.574 151.66 178.854 151.66 180.998C151.66 183.878 148.556 186.326 146.492 188.006H151.996V189.222H144.3ZM153.648 180.694C153.792 178.71 155.296 177.558 157.44 177.558C159.696 177.558 160.928 178.87 160.928 180.534C160.928 181.862 160.096 182.902 158.88 183.174V183.254C160.224 183.574 161.135 184.566 161.135 186.23C161.135 188.022 159.888 189.43 157.472 189.43C155.28 189.43 153.648 188.262 153.472 186.022H154.88C155.024 187.254 155.92 188.198 157.456 188.198C159.008 188.198 159.744 187.286 159.744 186.102C159.744 184.47 158.608 183.846 156.528 183.846H156.16V182.63H156.544C158.48 182.614 159.52 182.022 159.52 180.678C159.52 179.574 158.784 178.806 157.391 178.806C156.032 178.806 155.216 179.574 155.072 180.694H153.648ZM173.575 181.478C173.575 180.214 172.871 179.398 171.207 179.398H169.063V183.622H171.207C172.855 183.622 173.575 182.726 173.575 181.478ZM167.607 178.198H171.207C173.831 178.198 175.079 179.654 175.079 181.478C175.079 182.902 174.295 184.262 172.423 184.678L175.223 189.35H173.479L170.823 184.79H169.063V189.35H167.607V178.198ZM176.653 179.382V178.198H184.205V179.382H181.165V189.35H179.709V179.382H176.653ZM185.998 189.35V178.198H187.454V189.35H185.998ZM193.657 184.95C193.657 182.198 195.433 180.438 197.929 180.438C200.105 180.438 201.529 181.558 201.977 183.398H200.409C200.105 182.342 199.225 181.67 197.929 181.67C196.329 181.67 195.145 182.806 195.145 184.95C195.145 187.126 196.329 188.262 197.929 188.262C199.225 188.262 200.089 187.638 200.409 186.534H201.977C201.529 188.278 200.105 189.494 197.929 189.494C195.433 189.494 193.657 187.734 193.657 184.95ZM203.92 189.35V180.582H205.376V189.35H203.92ZM204.672 179.158C204.112 179.158 203.68 178.726 203.68 178.166C203.68 177.606 204.112 177.174 204.672 177.174C205.2 177.174 205.632 177.606 205.632 178.166C205.632 178.726 205.2 179.158 204.672 179.158ZM209.313 184.582V189.35H207.857V180.582H209.313V182.006C209.809 181.03 210.753 180.422 212.145 180.422V181.926H211.761C210.369 181.926 209.313 182.55 209.313 184.582ZM213.282 184.95C213.282 182.198 215.058 180.438 217.554 180.438C219.73 180.438 221.154 181.558 221.602 183.398H220.034C219.73 182.342 218.85 181.67 217.554 181.67C215.954 181.67 214.77 182.806 214.77 184.95C214.77 187.126 215.954 188.262 217.554 188.262C218.85 188.262 219.714 187.638 220.034 186.534H221.602C221.154 188.278 219.73 189.494 217.554 189.494C215.058 189.494 213.282 187.734 213.282 184.95ZM231.321 180.582V189.35H229.865V188.054C229.305 188.966 228.233 189.478 227.065 189.478C225.049 189.478 223.465 188.23 223.465 185.718V180.582H224.905V185.526C224.905 187.302 225.881 188.214 227.353 188.214C228.857 188.214 229.865 187.286 229.865 185.398V180.582H231.321ZM233.779 189.35V177.51H235.235V189.35H233.779ZM237.172 184.934C237.172 182.198 238.98 180.438 241.332 180.438C242.964 180.438 244.084 181.27 244.596 182.182V180.582H246.068V189.35H244.596V187.718C244.068 188.662 242.932 189.494 241.316 189.494C238.98 189.494 237.172 187.654 237.172 184.934ZM244.596 184.95C244.596 182.918 243.22 181.702 241.62 181.702C240.02 181.702 238.66 182.87 238.66 184.934C238.66 186.998 240.02 188.214 241.62 188.214C243.22 188.214 244.596 187.014 244.596 184.95ZM249.985 184.582V189.35H248.529V180.582H249.985V182.006C250.481 181.03 251.425 180.422 252.817 180.422V181.926H252.433C251.041 181.926 249.985 182.55 249.985 184.582ZM267.083 184.95C267.083 187.734 265.083 189.494 262.587 189.494C260.107 189.494 258.219 187.734 258.219 184.95C258.219 182.182 260.171 180.438 262.651 180.438C265.147 180.438 267.083 182.182 267.083 184.95ZM259.707 184.95C259.707 187.174 261.067 188.214 262.587 188.214C264.107 188.214 265.595 187.174 265.595 184.95C265.595 182.742 264.139 181.702 262.635 181.702C261.099 181.702 259.707 182.742 259.707 184.95ZM275.414 189.35V184.39C275.414 182.598 274.438 181.686 272.966 181.686C271.478 181.686 270.454 182.614 270.454 184.502V189.35H268.998V180.582H270.454V181.83C271.03 180.918 272.086 180.422 273.27 180.422C275.302 180.422 276.854 181.67 276.854 184.182V189.35H275.414ZM52.004 211.35V203.782H50.868V202.582H52.004V201.958C52.004 200.006 52.964 199.126 55.204 199.126V200.342C53.892 200.342 53.46 200.822 53.46 201.958V202.582H55.3V203.782H53.46V211.35H52.004ZM65.3176 206.95C65.3176 209.734 63.3176 211.494 60.8216 211.494C58.3416 211.494 56.4536 209.734 56.4536 206.95C56.4536 204.182 58.4056 202.438 60.8856 202.438C63.3816 202.438 65.3176 204.182 65.3176 206.95ZM57.9416 206.95C57.9416 209.174 59.3016 210.214 60.8216 210.214C62.3416 210.214 63.8296 209.174 63.8296 206.95C63.8296 204.742 62.3736 203.702 60.8696 203.702C59.3336 203.702 57.9416 204.742 57.9416 206.95ZM68.688 206.582V211.35H67.232V202.582H68.688V204.006C69.184 203.03 70.128 202.422 71.52 202.422V203.926H71.136C69.744 203.926 68.688 204.55 68.688 206.582ZM76.9288 203.67C75.5048 203.67 74.3207 204.614 74.1608 206.326H79.6968C79.7128 204.614 78.4328 203.67 76.9288 203.67ZM81.0248 208.646C80.5768 210.246 79.1688 211.494 76.9928 211.494C74.4968 211.494 72.6568 209.734 72.6568 206.95C72.6568 204.182 74.4328 202.438 76.9928 202.438C79.5368 202.438 81.2008 204.23 81.2008 206.63C81.2008 206.95 81.1848 207.206 81.1528 207.51H74.1448C74.2568 209.286 75.5048 210.262 76.9928 210.262C78.3048 210.262 79.1368 209.59 79.4568 208.646H81.0248ZM89.4266 208.966C89.4266 210.406 88.1626 211.494 86.2266 211.494C84.1786 211.494 82.7386 210.374 82.6426 208.774H84.1466C84.2266 209.622 84.9786 210.262 86.2106 210.262C87.3626 210.262 88.0026 209.686 88.0026 208.966C88.0026 207.014 82.8186 208.15 82.8186 204.886C82.8186 203.542 84.0826 202.438 86.0346 202.438C87.9706 202.438 89.2506 203.478 89.3466 205.19H87.8906C87.8266 204.31 87.1546 203.67 85.9866 203.67C84.9146 203.67 84.2746 204.182 84.2746 204.886C84.2746 206.966 89.3626 205.83 89.4266 208.966ZM91.802 208.95V203.782H90.666V202.582H91.802V200.374H93.258V202.582H95.546V203.782H93.258V208.95C93.258 209.814 93.578 210.118 94.474 210.118H95.546V211.35H94.234C92.682 211.35 91.802 210.71 91.802 208.95ZM101.032 206.95C101.032 204.198 102.808 202.438 105.304 202.438C107.48 202.438 108.904 203.558 109.352 205.398H107.784C107.48 204.342 106.6 203.67 105.304 203.67C103.704 203.67 102.52 204.806 102.52 206.95C102.52 209.126 103.704 210.262 105.304 210.262C106.6 210.262 107.464 209.638 107.784 208.534H109.352C108.904 210.278 107.48 211.494 105.304 211.494C102.808 211.494 101.032 209.734 101.032 206.95ZM111.295 211.35V199.51H112.751V211.35H111.295ZM118.96 203.67C117.536 203.67 116.352 204.614 116.192 206.326H121.728C121.744 204.614 120.464 203.67 118.96 203.67ZM123.056 208.646C122.608 210.246 121.2 211.494 119.024 211.494C116.528 211.494 114.688 209.734 114.688 206.95C114.688 204.182 116.464 202.438 119.024 202.438C121.568 202.438 123.232 204.23 123.232 206.63C123.232 206.95 123.216 207.206 123.184 207.51H116.176C116.288 209.286 117.536 210.262 119.024 210.262C120.336 210.262 121.168 209.59 121.488 208.646H123.056ZM124.61 206.934C124.61 204.198 126.418 202.438 128.77 202.438C130.402 202.438 131.522 203.27 132.034 204.182V202.582H133.506V211.35H132.034V209.718C131.506 210.662 130.37 211.494 128.754 211.494C126.418 211.494 124.61 209.654 124.61 206.934ZM132.034 206.95C132.034 204.918 130.658 203.702 129.058 203.702C127.458 203.702 126.098 204.87 126.098 206.934C126.098 208.998 127.458 210.214 129.058 210.214C130.658 210.214 132.034 209.014 132.034 206.95ZM137.422 206.582V211.35H135.966V202.582H137.422V204.006C137.918 203.03 138.862 202.422 140.254 202.422V203.926H139.87C138.478 203.926 137.422 204.55 137.422 206.582ZM141.391 206.934C141.391 204.198 143.199 202.438 145.551 202.438C147.183 202.438 148.303 203.27 148.815 204.182V202.582H150.287V211.35H148.815V209.718C148.287 210.662 147.151 211.494 145.535 211.494C143.199 211.494 141.391 209.654 141.391 206.934ZM148.815 206.95C148.815 204.918 147.439 203.702 145.839 203.702C144.239 203.702 142.879 204.87 142.879 206.934C142.879 208.998 144.239 210.214 145.839 210.214C147.439 210.214 148.815 209.014 148.815 206.95ZM159.164 211.35V206.39C159.164 204.598 158.188 203.686 156.716 203.686C155.228 203.686 154.204 204.614 154.204 206.502V211.35H152.748V202.582H154.204V203.83C154.78 202.918 155.836 202.422 157.02 202.422C159.052 202.422 160.604 203.67 160.604 206.182V211.35H159.164ZM162.438 206.95C162.438 204.198 164.214 202.438 166.71 202.438C168.886 202.438 170.31 203.558 170.758 205.398H169.19C168.886 204.342 168.006 203.67 166.71 203.67C165.11 203.67 163.926 204.806 163.926 206.95C163.926 209.126 165.11 210.262 166.71 210.262C168.006 210.262 168.87 209.638 169.19 208.534H170.758C170.31 210.278 168.886 211.494 166.71 211.494C164.214 211.494 162.438 209.734 162.438 206.95ZM176.429 203.67C175.005 203.67 173.821 204.614 173.661 206.326H179.197C179.213 204.614 177.933 203.67 176.429 203.67ZM180.525 208.646C180.077 210.246 178.669 211.494 176.493 211.494C173.997 211.494 172.157 209.734 172.157 206.95C172.157 204.182 173.933 202.438 176.493 202.438C179.037 202.438 180.701 204.23 180.701 206.63C180.701 206.95 180.685 207.206 180.653 207.51H173.645C173.757 209.286 175.005 210.262 176.493 210.262C177.805 210.262 178.637 209.59 178.957 208.646H180.525ZM188.927 208.966C188.927 210.406 187.663 211.494 185.727 211.494C183.679 211.494 182.239 210.374 182.143 208.774H183.647C183.727 209.622 184.479 210.262 185.711 210.262C186.863 210.262 187.503 209.686 187.503 208.966C187.503 207.014 182.319 208.15 182.319 204.886C182.319 203.542 183.583 202.438 185.535 202.438C187.471 202.438 188.751 203.478 188.847 205.19H187.391C187.327 204.31 186.655 203.67 185.487 203.67C184.415 203.67 183.775 204.182 183.775 204.886C183.775 206.966 188.863 205.83 188.927 208.966ZM194.038 203.83H193.014L193.958 200.198H195.574L194.038 203.83ZM191.43 203.83H190.406L191.35 200.198H192.966L191.43 203.83ZM196.768 214.326V214.182C198.992 211.894 200.128 208.742 200.128 205.494C200.128 202.23 198.992 198.87 196.528 196.55V196.406H198.048C200.32 198.502 201.536 201.878 201.536 205.494C201.536 209.094 200.32 212.326 198.288 214.326H196.768Z" fill="#E6E6E6"/>
</g>
<defs>
<filter id="filter0_d_2094_13638" x="0.5" y="0.350342" width="370" height="284" filterUnits="userSpaceOnUse" color-interpolation-filters="sRGB">
<feFlood flood-opacity="0" result="BackgroundImageFix"/>
<feColorMatrix in="SourceAlpha" type="matrix" values="0 0 0 0 0 0 0 0 0 0 0 0 0 0 0 0 0 0 127 0" result="hardAlpha"/>
<feOffset dy="10"/>
<feGaussianBlur stdDeviation="13"/>
<feComposite in2="hardAlpha" operator="out"/>
<feColorMatrix type="matrix" values="0 0 0 0 0 0 0 0 0 0 0 0 0 0 0 0 0 0 0.2 0"/>
<feBlend mode="normal" in2="BackgroundImageFix" result="effect1_dropShadow_2094_13638"/>
<feBlend mode="normal" in="SourceGraphic" in2="effect1_dropShadow_2094_13638" result="shape"/>
</filter>
<linearGradient id="paint0_linear_2094_13638" x1="344.5" y1="232.641" x2="4.01557" y2="181.367" gradientUnits="userSpaceOnUse">
<stop offset="0.254808" stop-color="#464646"/>
<stop offset="1" stop-color="#43430D"/>
</linearGradient>
<linearGradient id="paint1_linear_2094_13638" x1="117.456" y1="16.3503" x2="313.834" y2="172.553" gradientUnits="userSpaceOnUse">
<stop stop-color="#9F9F00"/>
<stop offset="0.509615" stop-color="#4D4D00"/>
</linearGradient>
</defs>
</svg>
