<svg width="379" height="73" viewBox="0 0 379 73" fill="none" xmlns="http://www.w3.org/2000/svg">
<path d="M10 0.850342L369 0.850342C374.247 0.850342 378.5 5.10364 378.5 10.3503V62.3503C378.5 67.597 374.247 71.8503 369 71.8503L10 71.8503C4.7533 71.8503 0.5 67.597 0.5 62.3503L0.5 10.3503C0.5 5.10364 4.75329 0.850342 10 0.850342Z" fill="url(#paint0_linear_1992_7418)" fill-opacity="0.5"/>
<path d="M10 0.850342L369 0.850342C374.247 0.850342 378.5 5.10364 378.5 10.3503V62.3503C378.5 67.597 374.247 71.8503 369 71.8503L10 71.8503C4.7533 71.8503 0.5 67.597 0.5 62.3503L0.5 10.3503C0.5 5.10364 4.75329 0.850342 10 0.850342Z" stroke="url(#paint1_linear_1992_7418)"/>
<path d="M35.45 40.8323H43.27V42.3503H33.84V26.2503H43.155V27.7683H35.45V33.4723H42.58V34.9903H35.45V40.8323ZM55.4717 26.2503H56.9897V42.3503H55.4717V40.0963C54.4137 41.783 52.865 42.6263 50.8257 42.6263C49.185 42.6263 47.782 42.0437 46.6167 40.8783C45.4667 39.713 44.8917 38.287 44.8917 36.6003C44.8917 34.9137 45.4667 33.4877 46.6167 32.3223C47.782 31.157 49.185 30.5743 50.8257 30.5743C52.865 30.5743 54.4137 31.4177 55.4717 33.1043V26.2503ZM47.7207 39.8433C48.5947 40.7173 49.668 41.1543 50.9407 41.1543C52.2133 41.1543 53.2867 40.7173 54.1607 39.8433C55.0347 38.954 55.4717 37.873 55.4717 36.6003C55.4717 35.3277 55.0347 34.2543 54.1607 33.3803C53.2867 32.491 52.2133 32.0463 50.9407 32.0463C49.668 32.0463 48.5947 32.491 47.7207 33.3803C46.8467 34.2543 46.4097 35.3277 46.4097 36.6003C46.4097 37.873 46.8467 38.954 47.7207 39.8433ZM70.5538 26.2503V27.7683H65.6088V42.3503H63.9988V27.7683H59.0538V26.2503H70.5538ZM75.8712 30.5743C77.5732 30.5743 78.9456 31.18 79.9882 32.3913C81.0462 33.5873 81.5752 35.0057 81.5752 36.6463C81.5752 36.815 81.5599 37.0527 81.5292 37.3593H71.4322C71.5856 38.5247 72.0762 39.4523 72.9042 40.1423C73.7476 40.817 74.7826 41.1543 76.0092 41.1543C76.8832 41.1543 77.6346 40.978 78.2632 40.6253C78.9072 40.2573 79.3902 39.782 79.7122 39.1993L81.0462 39.9813C80.5402 40.794 79.8502 41.438 78.9762 41.9133C78.1022 42.3887 77.1056 42.6263 75.9862 42.6263C74.1769 42.6263 72.7049 42.059 71.5702 40.9243C70.4356 39.7897 69.8682 38.3483 69.8682 36.6003C69.8682 34.883 70.4279 33.4493 71.5472 32.2993C72.6666 31.1493 74.1079 30.5743 75.8712 30.5743ZM75.8712 32.0463C74.6752 32.0463 73.6709 32.4067 72.8582 33.1273C72.0609 33.8327 71.5856 34.7527 71.4322 35.8873H80.0112C79.8579 34.676 79.3902 33.733 78.6082 33.0583C77.8262 32.3837 76.9139 32.0463 75.8712 32.0463ZM89.3489 42.6263C87.6162 42.6263 86.1749 42.0513 85.0249 40.9013C83.8749 39.736 83.2999 38.3023 83.2999 36.6003C83.2999 34.8983 83.8749 33.4723 85.0249 32.3223C86.1749 31.157 87.6162 30.5743 89.3489 30.5743C90.4835 30.5743 91.5032 30.8503 92.4079 31.4023C93.3126 31.939 93.9719 32.6673 94.3859 33.5873L93.1439 34.3003C92.8372 33.6103 92.3389 33.066 91.6489 32.6673C90.9742 32.2533 90.2075 32.0463 89.3489 32.0463C88.0762 32.0463 87.0029 32.491 86.1289 33.3803C85.2549 34.2543 84.8179 35.3277 84.8179 36.6003C84.8179 37.873 85.2549 38.954 86.1289 39.8433C87.0029 40.7173 88.0762 41.1543 89.3489 41.1543C90.2075 41.1543 90.9742 40.955 91.6489 40.5563C92.3236 40.1423 92.8526 39.5903 93.2359 38.9003L94.5009 39.6363C94.0255 40.5563 93.3279 41.2847 92.4079 41.8213C91.4879 42.358 90.4682 42.6263 89.3489 42.6263ZM102.062 30.5743C103.458 30.5743 104.554 31.0037 105.351 31.8623C106.164 32.7057 106.57 33.848 106.57 35.2893V42.3503H105.052V35.2893C105.052 34.262 104.776 33.4647 104.224 32.8973C103.688 32.33 102.921 32.0463 101.924 32.0463C100.82 32.0463 99.9233 32.399 99.2333 33.1043C98.5433 33.7943 98.1983 34.8677 98.1983 36.3243V42.3503H96.6803V26.2503H98.1983V32.6443C99.057 31.2643 100.345 30.5743 102.062 30.5743ZM128.182 41.8213L126.756 42.6263L125.054 40.8093C123.842 42.0207 122.263 42.6263 120.316 42.6263C118.736 42.6263 117.456 42.22 116.475 41.4073C115.509 40.5793 115.026 39.4677 115.026 38.0723C115.026 37.0603 115.286 36.148 115.808 35.3353C116.329 34.5227 117.103 33.8787 118.131 33.4033C117.333 32.4987 116.935 31.4867 116.935 30.3673C116.935 29.0333 117.395 27.9677 118.315 27.1703C119.235 26.373 120.308 25.9743 121.535 25.9743C122.562 25.9743 123.497 26.2657 124.341 26.8483C125.199 27.4157 125.813 28.19 126.181 29.1713L124.824 29.9533C124.594 29.202 124.18 28.6117 123.582 28.1823C122.999 27.753 122.324 27.5383 121.558 27.5383C120.73 27.5383 120.017 27.7913 119.419 28.2973C118.836 28.8033 118.545 29.4627 118.545 30.2753C118.545 30.812 118.667 31.295 118.913 31.7243C119.173 32.1537 119.549 32.629 120.04 33.1503L124.893 38.3253C125.337 37.4513 125.629 36.4317 125.767 35.2663L127.193 36.0943C126.993 37.4283 126.602 38.5707 126.02 39.5213L128.182 41.8213ZM120.27 41.0623C121.803 41.0623 123.03 40.587 123.95 39.6363L119.212 34.5993C118.307 34.9367 117.648 35.4197 117.234 36.0483C116.835 36.6617 116.636 37.321 116.636 38.0263C116.636 38.9617 116.958 39.7053 117.602 40.2573C118.261 40.794 119.15 41.0623 120.27 41.0623ZM146.012 30.8503H147.53V42.3503H146.012V40.0963C144.954 41.783 143.405 42.6263 141.366 42.6263C139.725 42.6263 138.322 42.0437 137.157 40.8783C136.007 39.713 135.432 38.287 135.432 36.6003C135.432 34.9137 136.007 33.4877 137.157 32.3223C138.322 31.157 139.725 30.5743 141.366 30.5743C143.405 30.5743 144.954 31.4177 146.012 33.1043V30.8503ZM138.261 39.8433C139.135 40.7173 140.208 41.1543 141.481 41.1543C142.753 41.1543 143.827 40.7173 144.701 39.8433C145.575 38.954 146.012 37.873 146.012 36.6003C146.012 35.3277 145.575 34.2543 144.701 33.3803C143.827 32.491 142.753 32.0463 141.481 32.0463C140.208 32.0463 139.135 32.491 138.261 33.3803C137.387 34.2543 136.95 35.3277 136.95 36.6003C136.95 37.873 137.387 38.954 138.261 39.8433ZM156.103 42.6263C154.37 42.6263 152.929 42.0513 151.779 40.9013C150.629 39.736 150.054 38.3023 150.054 36.6003C150.054 34.8983 150.629 33.4723 151.779 32.3223C152.929 31.157 154.37 30.5743 156.103 30.5743C157.237 30.5743 158.257 30.8503 159.162 31.4023C160.066 31.939 160.726 32.6673 161.14 33.5873L159.898 34.3003C159.591 33.6103 159.093 33.066 158.403 32.6673C157.728 32.2533 156.961 32.0463 156.103 32.0463C154.83 32.0463 153.757 32.491 152.883 33.3803C152.009 34.2543 151.572 35.3277 151.572 36.6003C151.572 37.873 152.009 38.954 152.883 39.8433C153.757 40.7173 154.83 41.1543 156.103 41.1543C156.961 41.1543 157.728 40.955 158.403 40.5563C159.077 40.1423 159.606 39.5903 159.99 38.9003L161.255 39.6363C160.779 40.5563 160.082 41.2847 159.162 41.8213C158.242 42.358 157.222 42.6263 156.103 42.6263ZM173.212 30.8503H174.73V42.3503H173.212V40.0963C172.154 41.783 170.605 42.6263 168.566 42.6263C166.925 42.6263 165.522 42.0437 164.357 40.8783C163.207 39.713 162.632 38.287 162.632 36.6003C162.632 34.9137 163.207 33.4877 164.357 32.3223C165.522 31.157 166.925 30.5743 168.566 30.5743C170.605 30.5743 172.154 31.4177 173.212 33.1043V30.8503ZM165.461 39.8433C166.335 40.7173 167.408 41.1543 168.681 41.1543C169.954 41.1543 171.027 40.7173 171.901 39.8433C172.775 38.954 173.212 37.873 173.212 36.6003C173.212 35.3277 172.775 34.2543 171.901 33.3803C171.027 32.491 169.954 32.0463 168.681 32.0463C167.408 32.0463 166.335 32.491 165.461 33.3803C164.587 34.2543 164.15 35.3277 164.15 36.6003C164.15 37.873 164.587 38.954 165.461 39.8433ZM187.834 26.2503H189.352V42.3503H187.834V40.0963C186.776 41.783 185.227 42.6263 183.188 42.6263C181.547 42.6263 180.144 42.0437 178.979 40.8783C177.829 39.713 177.254 38.287 177.254 36.6003C177.254 34.9137 177.829 33.4877 178.979 32.3223C180.144 31.157 181.547 30.5743 183.188 30.5743C185.227 30.5743 186.776 31.4177 187.834 33.1043V26.2503ZM180.083 39.8433C180.957 40.7173 182.03 41.1543 183.303 41.1543C184.576 41.1543 185.649 40.7173 186.523 39.8433C187.397 38.954 187.834 37.873 187.834 36.6003C187.834 35.3277 187.397 34.2543 186.523 33.3803C185.649 32.491 184.576 32.0463 183.303 32.0463C182.03 32.0463 180.957 32.491 180.083 33.3803C179.209 34.2543 178.772 35.3277 178.772 36.6003C178.772 37.873 179.209 38.954 180.083 39.8433ZM197.879 30.5743C199.581 30.5743 200.953 31.18 201.996 32.3913C203.054 33.5873 203.583 35.0057 203.583 36.6463C203.583 36.815 203.568 37.0527 203.537 37.3593H193.44C193.593 38.5247 194.084 39.4523 194.912 40.1423C195.755 40.817 196.79 41.1543 198.017 41.1543C198.891 41.1543 199.642 40.978 200.271 40.6253C200.915 40.2573 201.398 39.782 201.72 39.1993L203.054 39.9813C202.548 40.794 201.858 41.438 200.984 41.9133C200.11 42.3887 199.113 42.6263 197.994 42.6263C196.185 42.6263 194.713 42.059 193.578 40.9243C192.443 39.7897 191.876 38.3483 191.876 36.6003C191.876 34.883 192.436 33.4493 193.555 32.2993C194.674 31.1493 196.116 30.5743 197.879 30.5743ZM197.879 32.0463C196.683 32.0463 195.679 32.4067 194.866 33.1273C194.069 33.8327 193.593 34.7527 193.44 35.8873H202.019C201.866 34.676 201.398 33.733 200.616 33.0583C199.834 32.3837 198.922 32.0463 197.879 32.0463ZM218.257 30.5743C219.545 30.5743 220.58 30.9883 221.362 31.8163C222.159 32.6443 222.558 33.7637 222.558 35.1743V42.3503H221.04V35.1743C221.04 34.1777 220.779 33.411 220.258 32.8743C219.752 32.3223 219.077 32.0463 218.234 32.0463C217.283 32.0463 216.509 32.3683 215.911 33.0123C215.328 33.641 215.037 34.63 215.037 35.9793V42.3503H213.519V35.1743C213.519 34.1623 213.273 33.388 212.783 32.8513C212.307 32.3147 211.656 32.0463 210.828 32.0463C209.908 32.0463 209.126 32.3683 208.482 33.0123C207.838 33.6563 207.516 34.6453 207.516 35.9793V42.3503H205.998V30.8503H207.516V32.5293C208.344 31.226 209.517 30.5743 211.035 30.5743C212.691 30.5743 213.856 31.272 214.531 32.6673C215.359 31.272 216.601 30.5743 218.257 30.5743ZM227.035 28.0903C226.82 28.305 226.559 28.4123 226.253 28.4123C225.946 28.4123 225.685 28.305 225.471 28.0903C225.256 27.8757 225.149 27.615 225.149 27.3083C225.149 27.0017 225.256 26.741 225.471 26.5263C225.685 26.3117 225.946 26.2043 226.253 26.2043C226.559 26.2043 226.82 26.3117 227.035 26.5263C227.249 26.741 227.357 27.0017 227.357 27.3083C227.357 27.615 227.249 27.8757 227.035 28.0903ZM225.494 42.3503V30.8503H227.012V42.3503H225.494ZM235.592 42.6263C233.859 42.6263 232.418 42.0513 231.268 40.9013C230.118 39.736 229.543 38.3023 229.543 36.6003C229.543 34.8983 230.118 33.4723 231.268 32.3223C232.418 31.157 233.859 30.5743 235.592 30.5743C236.727 30.5743 237.746 30.8503 238.651 31.4023C239.556 31.939 240.215 32.6673 240.629 33.5873L239.387 34.3003C239.08 33.6103 238.582 33.066 237.892 32.6673C237.217 32.2533 236.451 32.0463 235.592 32.0463C234.319 32.0463 233.246 32.491 232.372 33.3803C231.498 34.2543 231.061 35.3277 231.061 36.6003C231.061 37.873 231.498 38.954 232.372 39.8433C233.246 40.7173 234.319 41.1543 235.592 41.1543C236.451 41.1543 237.217 40.955 237.892 40.5563C238.567 40.1423 239.096 39.5903 239.479 38.9003L240.744 39.6363C240.269 40.5563 239.571 41.2847 238.651 41.8213C237.731 42.358 236.711 42.6263 235.592 42.6263ZM254.837 30.5743C256.478 30.5743 257.873 31.157 259.023 32.3223C260.189 33.4877 260.771 34.9137 260.771 36.6003C260.771 38.287 260.189 39.713 259.023 40.8783C257.873 42.0437 256.478 42.6263 254.837 42.6263C252.798 42.6263 251.249 41.783 250.191 40.0963V46.9503H248.673V30.8503H250.191V33.1043C251.249 31.4177 252.798 30.5743 254.837 30.5743ZM251.502 39.8433C252.376 40.7173 253.45 41.1543 254.722 41.1543C255.995 41.1543 257.068 40.7173 257.942 39.8433C258.816 38.954 259.253 37.873 259.253 36.6003C259.253 35.3277 258.816 34.2543 257.942 33.3803C257.068 32.491 255.995 32.0463 254.722 32.0463C253.45 32.0463 252.376 32.491 251.502 33.3803C250.628 34.2543 250.191 35.3277 250.191 36.6003C250.191 37.873 250.628 38.954 251.502 39.8433ZM263.296 42.3503V25.5603H264.814V42.3503H263.296ZM277.925 30.8503H279.443V42.3503H277.925V40.0963C276.867 41.783 275.318 42.6263 273.279 42.6263C271.638 42.6263 270.235 42.0437 269.07 40.8783C267.92 39.713 267.345 38.287 267.345 36.6003C267.345 34.9137 267.92 33.4877 269.07 32.3223C270.235 31.157 271.638 30.5743 273.279 30.5743C275.318 30.5743 276.867 31.4177 277.925 33.1043V30.8503ZM270.174 39.8433C271.048 40.7173 272.121 41.1543 273.394 41.1543C274.666 41.1543 275.74 40.7173 276.614 39.8433C277.488 38.954 277.925 37.873 277.925 36.6003C277.925 35.3277 277.488 34.2543 276.614 33.3803C275.74 32.491 274.666 32.0463 273.394 32.0463C272.121 32.0463 271.048 32.491 270.174 33.3803C269.3 34.2543 268.863 35.3277 268.863 36.6003C268.863 37.873 269.3 38.954 270.174 39.8433ZM288.752 32.3223H285.44V39.2913C285.44 39.92 285.563 40.3723 285.808 40.6483C286.053 40.909 286.421 41.047 286.912 41.0623C287.403 41.0623 288.016 41.047 288.752 41.0163V42.3503C287.142 42.5957 285.931 42.4807 285.118 42.0053C284.321 41.53 283.922 40.6253 283.922 39.2913V32.3223H281.507V30.8503H283.922V28.0903L285.44 27.6303V30.8503H288.752V32.3223ZM296.448 27.4463C295.329 27.3543 294.493 27.546 293.941 28.0213C293.404 28.4967 293.136 29.2863 293.136 30.3903V30.8503H296.448V32.3223H293.136V42.3503H291.618V32.3223H289.663V30.8503H291.618V30.3903C291.618 28.8877 292.032 27.753 292.86 26.9863C293.703 26.2043 294.899 25.867 296.448 25.9743V27.4463ZM307.006 40.9013C305.84 42.0513 304.414 42.6263 302.728 42.6263C301.041 42.6263 299.607 42.0513 298.427 40.9013C297.261 39.736 296.679 38.3023 296.679 36.6003C296.679 34.8983 297.261 33.4723 298.427 32.3223C299.607 31.157 301.041 30.5743 302.728 30.5743C304.414 30.5743 305.84 31.157 307.006 32.3223C308.186 33.4723 308.777 34.8983 308.777 36.6003C308.777 38.3023 308.186 39.736 307.006 40.9013ZM299.508 39.8433C300.382 40.7173 301.455 41.1543 302.728 41.1543C304 41.1543 305.074 40.7173 305.948 39.8433C306.822 38.954 307.259 37.873 307.259 36.6003C307.259 35.3277 306.822 34.2543 305.948 33.3803C305.074 32.491 304 32.0463 302.728 32.0463C301.455 32.0463 300.382 32.491 299.508 33.3803C298.634 34.2543 298.197 35.3277 298.197 36.6003C298.197 37.873 298.634 38.954 299.508 39.8433ZM312.835 32.7593C313.54 31.364 314.752 30.6663 316.469 30.6663V32.1383C315.426 32.1383 314.56 32.445 313.87 33.0583C313.18 33.6717 312.835 34.6377 312.835 35.9563V42.3503H311.317V30.8503H312.835V32.7593ZM330.808 30.5743C332.096 30.5743 333.131 30.9883 333.913 31.8163C334.711 32.6443 335.109 33.7637 335.109 35.1743V42.3503H333.591V35.1743C333.591 34.1777 333.331 33.411 332.809 32.8743C332.303 32.3223 331.629 32.0463 330.785 32.0463C329.835 32.0463 329.06 32.3683 328.462 33.0123C327.88 33.641 327.588 34.63 327.588 35.9793V42.3503H326.07V35.1743C326.07 34.1623 325.825 33.388 325.334 32.8513C324.859 32.3147 324.207 32.0463 323.379 32.0463C322.459 32.0463 321.677 32.3683 321.033 33.0123C320.389 33.6563 320.067 34.6453 320.067 35.9793V42.3503H318.549V30.8503H320.067V32.5293C320.895 31.226 322.068 30.5743 323.586 30.5743C325.242 30.5743 326.408 31.272 327.082 32.6673C327.91 31.272 329.152 30.5743 330.808 30.5743ZM339.242 33.8633C339.242 34.3847 339.472 34.7987 339.932 35.1053C340.392 35.412 340.951 35.6497 341.611 35.8183C342.27 35.987 342.929 36.1787 343.589 36.3933C344.248 36.5927 344.808 36.9377 345.268 37.4283C345.728 37.9037 345.958 38.5323 345.958 39.3143C345.958 40.2957 345.567 41.093 344.785 41.7063C344.018 42.3197 343.021 42.6263 341.795 42.6263C340.691 42.6263 339.748 42.381 338.966 41.8903C338.199 41.3997 337.662 40.7633 337.356 39.9813L338.644 39.2223C338.858 39.8203 339.242 40.2957 339.794 40.6483C340.361 40.9857 341.028 41.1543 341.795 41.1543C342.546 41.1543 343.175 41.0087 343.681 40.7173C344.187 40.4107 344.44 39.943 344.44 39.3143C344.44 38.793 344.21 38.379 343.75 38.0723C343.29 37.7657 342.73 37.528 342.071 37.3593C341.411 37.1907 340.752 37.0067 340.093 36.8073C339.433 36.5927 338.874 36.2477 338.414 35.7723C337.954 35.2817 337.724 34.6453 337.724 33.8633C337.724 32.928 338.092 32.146 338.828 31.5173C339.579 30.8887 340.522 30.5743 341.657 30.5743C342.592 30.5743 343.412 30.789 344.118 31.2183C344.823 31.6323 345.344 32.1997 345.682 32.9203L344.417 33.6563C343.972 32.583 343.052 32.0463 341.657 32.0463C340.997 32.0463 340.43 32.2073 339.955 32.5293C339.479 32.836 339.242 33.2807 339.242 33.8633Z" fill="white"/>
<defs>
<linearGradient id="paint0_linear_1992_7418" x1="379" y1="67.4751" x2="68.0109" y2="-112.376" gradientUnits="userSpaceOnUse">
<stop offset="0.254808" stop-color="#464646"/>
<stop offset="1" stop-color="#8C8C4C"/>
</linearGradient>
<linearGradient id="paint1_linear_1992_7418" x1="108.403" y1="0.350342" x2="145.392" y2="113.338" gradientUnits="userSpaceOnUse">
<stop stop-color="#9F9F00"/>
<stop offset="0.509615" stop-color="#4D4D00"/>
</linearGradient>
</defs>
</svg>
