<svg width="352" height="319" viewBox="0 0 352 319" fill="none" xmlns="http://www.w3.org/2000/svg">
<g filter="url(#filter0_d_2078_5211)">
<path d="M26 26.3503C26 20.8275 30.4772 16.3503 36 16.3503H316C321.523 16.3503 326 20.8275 326 26.3503V272.35C326 277.873 321.523 282.35 316 282.35H36C30.4772 282.35 26 277.873 26 272.35V26.3503Z" fill="url(#paint0_linear_2078_5211)" fill-opacity="0.6" shape-rendering="crispEdges"/>
<path d="M36 16.8503H316C321.247 16.8503 325.5 21.1036 325.5 26.3503V272.35C325.5 277.597 321.247 281.85 316 281.85H36C30.7533 281.85 26.5 277.597 26.5 272.35V26.3503C26.5 21.1036 30.7533 16.8503 36 16.8503Z" stroke="url(#paint1_linear_2078_5211)" shape-rendering="crispEdges"/>
<rect x="51" y="49.3503" width="72" height="71" rx="35.5" stroke="#FFFF00" stroke-width="2"/>
<g clip-path="url(#clip0_2078_5211)">
<path d="M106.192 81.3503C106.069 81.1381 105.893 80.9617 105.68 80.8389C105.468 80.7161 105.227 80.6511 104.981 80.6503H101.437C101.192 80.651 100.95 80.7159 100.738 80.8388C100.525 80.9616 100.348 81.138 100.225 81.3503L98.6064 84.1503H91.1115C91.0514 83.9079 90.9591 83.6746 90.8371 83.4566L88.6104 79.4883L92.8377 77.1825L93.2248 77.8517C93.3479 78.0641 93.5244 78.2404 93.7369 78.3633C93.9494 78.4861 94.1904 78.5511 94.4358 78.5517H97.9799C98.2255 78.551 98.4666 78.486 98.6793 78.3632C98.892 78.2404 99.0689 78.0641 99.1923 77.8517L100.81 75.0517C100.934 74.8385 100.999 74.5964 100.999 74.35C100.999 74.1036 100.934 73.8615 100.81 73.6482L99.1909 70.8482C99.0677 70.636 98.8912 70.4596 98.6787 70.3368C98.4662 70.214 98.2253 70.149 97.9799 70.1482H94.4372C94.1918 70.1489 93.9508 70.2139 93.7383 70.3367C93.5258 70.4595 93.3493 70.6359 93.2262 70.8482L91.6064 73.6503C91.4839 73.8633 91.4195 74.1047 91.4195 74.3503C91.4195 74.596 91.4839 74.8374 91.6064 75.0503L92.1377 75.9687L87.9272 78.2703L86.1261 75.0594C85.9148 74.6852 85.619 74.3654 85.2623 74.1256L86.0624 72.2503H87.4813C87.7269 72.2496 87.968 72.1846 88.1807 72.0618C88.3934 71.939 88.5703 71.7627 88.6937 71.5503L90.3114 68.7503C90.4343 68.5375 90.4989 68.2961 90.4989 68.0503C90.4989 67.8046 90.4343 67.5632 90.3114 67.3503L88.6923 64.5503C88.5691 64.3381 88.3926 64.1617 88.1801 64.0389C87.9676 63.9161 87.7267 63.8511 87.4813 63.8503H83.9372C83.6918 63.851 83.4508 63.916 83.2383 64.0388C83.0258 64.1616 82.8493 64.338 82.7262 64.5503L81.1064 67.3503C80.9839 67.5633 80.9195 67.8047 80.9195 68.0503C80.9195 68.296 80.9839 68.5374 81.1064 68.7503L82.7262 71.5503C82.8493 71.7627 83.0258 71.939 83.2383 72.0619C83.4508 72.1847 83.6918 72.2497 83.9372 72.2503H84.5399L83.9358 73.6629C83.8749 73.6587 83.8147 73.6503 83.7531 73.6503H73.447C72.9622 73.6533 72.4868 73.785 72.0697 74.0321C71.6526 74.2793 71.3087 74.6328 71.0733 75.0566L66.3637 83.4566C66.1265 83.8829 66.002 84.3626 66.002 84.8503C66.002 85.3381 66.1265 85.8178 66.3637 86.244L71.0747 94.644C71.3097 95.068 71.6534 95.4218 72.0705 95.6689C72.4875 95.9161 72.9629 96.0477 73.4477 96.0503H83.7531C83.8147 96.0503 83.8749 96.0419 83.9358 96.0377L84.5399 97.4503H83.9372C83.6918 97.451 83.4508 97.516 83.2383 97.6388C83.0258 97.7617 82.8493 97.938 82.7262 98.1503L81.1064 100.95C80.9833 101.164 80.9185 101.406 80.9185 101.652C80.9185 101.898 80.9833 102.14 81.1064 102.354L82.7262 105.154C82.8493 105.366 83.0258 105.543 83.2383 105.665C83.4508 105.788 83.6918 105.853 83.9372 105.854H87.4813C87.7267 105.853 87.9676 105.788 88.1801 105.665C88.3926 105.542 88.5691 105.366 88.6923 105.154L90.3114 102.354C90.4349 102.141 90.5 101.899 90.5 101.652C90.5 101.406 90.4349 101.164 90.3114 100.95L88.6923 98.1503C88.5691 97.938 88.3924 97.7616 88.1798 97.6387C87.9672 97.5159 87.7261 97.451 87.4806 97.4503H86.0624L85.2623 95.5778C85.619 95.3381 85.9148 95.0183 86.1261 94.644L87.9272 91.4303L92.1377 93.727L91.6064 94.6503C91.4833 94.8637 91.4185 95.1057 91.4185 95.3521C91.4185 95.5984 91.4833 95.8405 91.6064 96.0538L93.2262 98.8538C93.3493 99.0662 93.5258 99.2425 93.7383 99.3654C93.9508 99.4882 94.1918 99.5532 94.4372 99.5538H97.9813C98.2267 99.5531 98.4676 99.4881 98.6801 99.3653C98.8926 99.2425 99.0691 99.0661 99.1923 98.8538L100.811 96.0538C100.935 95.8406 101 95.5985 101 95.3521C101 95.1057 100.935 94.8636 100.811 94.6503L99.1923 91.8503C99.0691 91.638 98.8924 91.4616 98.6798 91.3387C98.4672 91.2159 98.2261 91.151 97.9806 91.1503H94.4372C94.1918 91.151 93.9508 91.216 93.7383 91.3388C93.5258 91.4616 93.3493 91.638 93.2262 91.8503L92.8391 92.5195L88.6104 90.2123L90.8357 86.244C90.9582 86.0262 91.051 85.7929 91.1115 85.5503H98.6057L100.225 88.3503C100.349 88.5627 100.525 88.739 100.738 88.8619C100.95 88.9847 101.191 89.0497 101.436 89.0503H104.981C105.226 89.0496 105.467 88.9846 105.679 88.8618C105.892 88.739 106.068 88.5626 106.192 88.3503L107.811 85.5503C107.934 85.3375 107.998 85.0961 107.998 84.8503C107.998 84.6046 107.934 84.3632 107.811 84.1503L106.192 81.3503ZM94.4372 71.5503H97.9813L99.6004 74.3503L97.9827 77.1503H94.4372L93.7204 75.9113V75.9057L93.7155 75.8994L92.8181 74.3503L94.4372 71.5503ZM82.3181 68.0503L83.9372 65.2503H87.4813L89.1004 68.0503L87.4827 70.8503H83.9372L82.3181 68.0503ZM89.1004 101.65L87.4813 104.45H83.9372L82.3181 101.65L83.9372 98.8503H87.4813L89.1004 101.65ZM97.9813 92.5503L99.6004 95.3503L97.9813 98.1503H94.4372L92.8181 95.3503L93.712 93.8047L93.719 93.7949V93.7893L94.4372 92.5503H97.9813ZM89.6163 85.5594L87.0515 90.1325C87.0473 90.1395 87.0403 90.143 87.0368 90.15C87.0333 90.157 87.0368 90.1633 87.0305 90.1696L84.9053 93.9594C84.7918 94.1665 84.6253 94.3396 84.4228 94.4611C84.2203 94.5825 83.9892 94.6478 83.7531 94.6503H73.4477C73.2116 94.6478 72.9804 94.5825 72.7779 94.4611C72.5754 94.3396 72.4089 94.1665 72.2955 93.9594L67.5845 85.5594C67.464 85.3425 67.4007 85.0985 67.4007 84.8503C67.4007 84.6022 67.464 84.3582 67.5845 84.1412L72.2941 75.7412C72.4079 75.5343 72.5746 75.3613 72.7771 75.2399C72.9797 75.1185 73.2108 75.0531 73.447 75.0503H83.7531C83.9892 75.0529 84.2203 75.1182 84.4228 75.2396C84.6253 75.361 84.7918 75.5342 84.9053 75.7412L87.0305 79.5303C87.0305 79.5366 87.0305 79.5436 87.0368 79.5499C87.0431 79.5562 87.0508 79.5674 87.0571 79.5772L89.6163 84.1405C89.7369 84.3575 89.8002 84.6017 89.8002 84.85C89.8002 85.0983 89.7369 85.3424 89.6163 85.5594ZM104.981 87.6503H101.437L99.8188 84.8503L101.436 82.0503H104.981L106.6 84.8503L104.981 87.6503Z" fill="#FFFF00"/>
<path d="M78.5992 76.4504C76.9379 76.4504 75.3138 76.9431 73.9324 77.8661C72.5511 78.7891 71.4744 80.101 70.8386 81.6359C70.2029 83.1708 70.0365 84.8598 70.3606 86.4892C70.6847 88.1186 71.4848 89.6154 72.6595 90.7901C73.8343 91.9649 75.331 92.7649 76.9605 93.089C78.5899 93.4132 80.2789 93.2468 81.8138 92.611C83.3487 91.9753 84.6606 90.8986 85.5836 89.5172C86.5066 88.1359 86.9992 86.5118 86.9992 84.8504C86.9968 82.6234 86.111 80.4882 84.5363 78.9134C82.9615 77.3386 80.8263 76.4528 78.5992 76.4504ZM78.5992 91.8504C77.2148 91.8504 75.8614 91.4399 74.7102 90.6707C73.5591 89.9016 72.6619 88.8083 72.1321 87.5292C71.6023 86.2501 71.4636 84.8427 71.7337 83.4848C72.0038 82.1269 72.6705 80.8797 73.6495 79.9007C74.6284 78.9217 75.8757 78.255 77.2336 77.9849C78.5915 77.7148 79.9989 77.8535 81.278 78.3833C82.5571 78.9131 83.6503 79.8103 84.4195 80.9614C85.1887 82.1126 85.5992 83.466 85.5992 84.8504C85.5972 86.7063 84.859 88.4856 83.5467 89.7979C82.2344 91.1102 80.4551 91.8484 78.5992 91.8504Z" fill="#FFFF00"/>
<path d="M76.5008 82.7503H80.7008C80.8864 82.7503 81.0645 82.6766 81.1958 82.5453C81.327 82.414 81.4008 82.236 81.4008 82.0503C81.4008 81.8647 81.327 81.6866 81.1958 81.5554C81.0645 81.4241 80.8864 81.3503 80.7008 81.3503H76.5008C76.3151 81.3503 76.1371 81.4241 76.0058 81.5554C75.8745 81.6866 75.8008 81.8647 75.8008 82.0503C75.8008 82.236 75.8745 82.414 76.0058 82.5453C76.1371 82.6766 76.3151 82.7503 76.5008 82.7503Z" fill="#FFFF00"/>
<path d="M80.7008 86.9504H76.5008C76.3151 86.9504 76.1371 87.0242 76.0058 87.1555C75.8745 87.2867 75.8008 87.4648 75.8008 87.6504C75.8008 87.8361 75.8745 88.0141 76.0058 88.1454C76.1371 88.2767 76.3151 88.3504 76.5008 88.3504H80.7008C80.8864 88.3504 81.0645 88.2767 81.1958 88.1454C81.327 88.0141 81.4008 87.8361 81.4008 87.6504C81.4008 87.4648 81.327 87.2867 81.1958 87.1555C81.0645 87.0242 80.8864 86.9504 80.7008 86.9504Z" fill="#FFFF00"/>
<path d="M82.7992 84.1504H74.3992C74.2136 84.1504 74.0355 84.2241 73.9042 84.3554C73.773 84.4867 73.6992 84.6647 73.6992 84.8504C73.6992 85.036 73.773 85.2141 73.9042 85.3454C74.0355 85.4766 74.2136 85.5504 74.3992 85.5504H82.7992C82.9849 85.5504 83.1629 85.4766 83.2942 85.3454C83.4255 85.2141 83.4992 85.036 83.4992 84.8504C83.4992 84.6647 83.4255 84.4867 83.2942 84.3554C83.1629 84.2241 82.9849 84.1504 82.7992 84.1504Z" fill="#FFFF00"/>
<path d="M86.2992 68.7503C86.4849 68.7503 86.6629 68.6766 86.7942 68.5453C86.9255 68.414 86.9992 68.236 86.9992 68.0503C86.9992 67.8647 86.9255 67.6866 86.7942 67.5554C86.6629 67.4241 86.4849 67.3503 86.2992 67.3503H84.8992C84.7136 67.3503 84.5355 67.4241 84.4042 67.5554C84.273 67.6866 84.1992 67.8647 84.1992 68.0503C84.1992 68.236 84.273 68.414 84.4042 68.5453C84.5355 68.6766 84.7136 68.7503 84.8992 68.7503H86.2992Z" fill="#FFFF00"/>
<path d="M95.3992 75.0504H96.7992C96.9849 75.0504 97.1629 74.9766 97.2942 74.8454C97.4255 74.7141 97.4992 74.536 97.4992 74.3504C97.4992 74.1647 97.4255 73.9867 97.2942 73.8554C97.1629 73.7241 96.9849 73.6504 96.7992 73.6504H95.3992C95.2136 73.6504 95.0355 73.7241 94.9042 73.8554C94.773 73.9867 94.6992 74.1647 94.6992 74.3504C94.6992 74.536 94.773 74.7141 94.9042 74.8454C95.0355 74.9766 95.2136 75.0504 95.3992 75.0504Z" fill="#FFFF00"/>
<path d="M103.799 84.1504H102.399C102.214 84.1504 102.036 84.2241 101.904 84.3554C101.773 84.4867 101.699 84.6647 101.699 84.8504C101.699 85.036 101.773 85.2141 101.904 85.3454C102.036 85.4766 102.214 85.5504 102.399 85.5504H103.799C103.985 85.5504 104.163 85.4766 104.294 85.3454C104.425 85.2141 104.499 85.036 104.499 84.8504C104.499 84.6647 104.425 84.4867 104.294 84.3554C104.163 84.2241 103.985 84.1504 103.799 84.1504Z" fill="#FFFF00"/>
<path d="M95.3992 96.0504H96.7992C96.9849 96.0504 97.1629 95.9766 97.2942 95.8454C97.4255 95.7141 97.4992 95.536 97.4992 95.3504C97.4992 95.1647 97.4255 94.9867 97.2942 94.8554C97.1629 94.7241 96.9849 94.6504 96.7992 94.6504H95.3992C95.2136 94.6504 95.0355 94.7241 94.9042 94.8554C94.773 94.9867 94.6992 95.1647 94.6992 95.3504C94.6992 95.536 94.773 95.7141 94.9042 95.8454C95.0355 95.9766 95.2136 96.0504 95.3992 96.0504Z" fill="#FFFF00"/>
<path d="M84.1992 101.65C84.1992 101.836 84.273 102.014 84.4042 102.145C84.5355 102.277 84.7136 102.35 84.8992 102.35H86.2992C86.4849 102.35 86.6629 102.277 86.7942 102.145C86.9255 102.014 86.9992 101.836 86.9992 101.65C86.9992 101.465 86.9255 101.287 86.7942 101.155C86.6629 101.024 86.4849 100.95 86.2992 100.95H84.8992C84.7136 100.95 84.5355 101.024 84.4042 101.155C84.273 101.287 84.1992 101.465 84.1992 101.65Z" fill="#FFFF00"/>
</g>
<path d="M56.992 192.672C55.3973 192.672 54.0557 192.32 52.967 191.614C51.8783 190.894 51.1117 189.92 50.667 188.693L53.381 187.106C54.0097 188.747 55.244 189.567 57.084 189.567C57.9733 189.567 58.625 189.406 59.039 189.084C59.453 188.762 59.66 188.356 59.66 187.865C59.66 187.298 59.407 186.861 58.901 186.554C58.395 186.232 57.4903 185.887 56.187 185.519C55.4663 185.305 54.853 185.09 54.347 184.875C53.8563 184.661 53.358 184.377 52.852 184.024C52.3613 183.656 51.9857 183.196 51.725 182.644C51.4643 182.092 51.334 181.448 51.334 180.712C51.334 179.256 51.8477 178.098 52.875 177.239C53.9177 176.365 55.1673 175.928 56.624 175.928C57.9273 175.928 59.0697 176.25 60.051 176.894C61.0477 177.523 61.822 178.405 62.374 179.539L59.706 181.08C59.062 179.7 58.0347 179.01 56.624 179.01C55.9647 179.01 55.4433 179.164 55.06 179.47C54.692 179.762 54.508 180.145 54.508 180.62C54.508 181.126 54.715 181.54 55.129 181.862C55.5583 182.169 56.371 182.506 57.567 182.874C58.0577 183.028 58.4257 183.15 58.671 183.242C58.9317 183.319 59.2767 183.449 59.706 183.633C60.1507 183.802 60.488 183.963 60.718 184.116C60.9633 184.27 61.2393 184.477 61.546 184.737C61.8527 184.998 62.0827 185.266 62.236 185.542C62.4047 185.818 62.5427 186.156 62.65 186.554C62.7727 186.938 62.834 187.359 62.834 187.819C62.834 189.307 62.2897 190.487 61.201 191.361C60.1277 192.235 58.7247 192.672 56.992 192.672ZM67.5876 187.819C67.9863 189.261 69.0673 189.981 70.8306 189.981C71.9653 189.981 72.824 189.598 73.4066 188.831L75.7986 190.211C74.664 191.852 72.9926 192.672 70.7846 192.672C68.8833 192.672 67.3576 192.097 66.2076 190.947C65.0576 189.797 64.4826 188.348 64.4826 186.6C64.4826 184.868 65.05 183.426 66.1846 182.276C67.3193 181.111 68.776 180.528 70.5546 180.528C72.2413 180.528 73.629 181.111 74.7176 182.276C75.8216 183.442 76.3736 184.883 76.3736 186.6C76.3736 186.984 76.3353 187.39 76.2586 187.819H67.5876ZM67.5416 185.519H73.4066C73.238 184.737 72.8853 184.155 72.3486 183.771C71.8273 183.388 71.2293 183.196 70.5546 183.196C69.7573 183.196 69.098 183.403 68.5766 183.817C68.0553 184.216 67.7103 184.783 67.5416 185.519ZM91.1639 180.528C92.4826 180.528 93.5329 180.958 94.3149 181.816C95.1122 182.675 95.5109 183.825 95.5109 185.266V192.35H92.5439V185.473C92.5439 184.783 92.3752 184.247 92.0379 183.863C91.7006 183.48 91.2252 183.288 90.6119 183.288C89.9372 183.288 89.4082 183.511 89.0249 183.955C88.6569 184.4 88.4729 185.044 88.4729 185.887V192.35H85.5059V185.473C85.5059 184.783 85.3372 184.247 84.9999 183.863C84.6626 183.48 84.1872 183.288 83.5739 183.288C82.9146 183.288 82.3856 183.511 81.9869 183.955C81.6036 184.4 81.4119 185.044 81.4119 185.887V192.35H78.4449V180.85H81.4119V182.069C82.1019 181.042 83.1676 180.528 84.6089 180.528C86.0196 180.528 87.0622 181.08 87.7369 182.184C88.5036 181.08 89.6459 180.528 91.1639 180.528ZM106.771 180.85H109.738V192.35H106.771V190.993C105.881 192.113 104.632 192.672 103.022 192.672C101.488 192.672 100.17 192.09 99.0658 190.924C97.9772 189.744 97.4328 188.302 97.4328 186.6C97.4328 184.898 97.9772 183.465 99.0658 182.299C100.17 181.119 101.488 180.528 103.022 180.528C104.632 180.528 105.881 181.088 106.771 182.207V180.85ZM101.297 188.946C101.895 189.544 102.654 189.843 103.574 189.843C104.494 189.843 105.253 189.544 105.851 188.946C106.464 188.333 106.771 187.551 106.771 186.6C106.771 185.65 106.464 184.875 105.851 184.277C105.253 183.664 104.494 183.357 103.574 183.357C102.654 183.357 101.895 183.664 101.297 184.277C100.699 184.875 100.4 185.65 100.4 186.6C100.4 187.551 100.699 188.333 101.297 188.946ZM118.822 180.528C120.08 180.528 121.115 180.95 121.927 181.793C122.755 182.637 123.169 183.802 123.169 185.289V192.35H120.202V185.657C120.202 184.891 119.995 184.308 119.581 183.909C119.167 183.495 118.615 183.288 117.925 183.288C117.159 183.288 116.545 183.526 116.085 184.001C115.625 184.477 115.395 185.19 115.395 186.14V192.35H112.428V180.85H115.395V182.138C116.116 181.065 117.258 180.528 118.822 180.528ZM132.281 183.702H129.682V188.486C129.682 188.885 129.781 189.176 129.981 189.36C130.18 189.544 130.471 189.652 130.855 189.682C131.238 189.698 131.713 189.69 132.281 189.659V192.35C130.241 192.58 128.8 192.389 127.957 191.775C127.129 191.162 126.715 190.066 126.715 188.486V183.702H124.714V180.85H126.715V178.527L129.682 177.63V180.85H132.281V183.702ZM135.845 179.47C135.354 179.47 134.925 179.294 134.557 178.941C134.204 178.573 134.028 178.144 134.028 177.653C134.028 177.163 134.204 176.733 134.557 176.365C134.925 175.997 135.354 175.813 135.845 175.813C136.351 175.813 136.78 175.997 137.133 176.365C137.501 176.733 137.685 177.163 137.685 177.653C137.685 178.144 137.501 178.573 137.133 178.941C136.78 179.294 136.351 179.47 135.845 179.47ZM134.373 192.35V180.85H137.34V192.35H134.373ZM145.529 192.672C143.797 192.672 142.348 192.09 141.182 190.924C140.032 189.759 139.457 188.318 139.457 186.6C139.457 184.883 140.032 183.442 141.182 182.276C142.348 181.111 143.797 180.528 145.529 180.528C146.649 180.528 147.668 180.797 148.588 181.333C149.508 181.87 150.206 182.591 150.681 183.495L148.128 184.99C147.898 184.515 147.546 184.139 147.07 183.863C146.61 183.587 146.089 183.449 145.506 183.449C144.617 183.449 143.881 183.748 143.298 184.346C142.716 184.929 142.424 185.68 142.424 186.6C142.424 187.505 142.716 188.256 143.298 188.854C143.881 189.437 144.617 189.728 145.506 189.728C146.104 189.728 146.633 189.598 147.093 189.337C147.569 189.061 147.921 188.686 148.151 188.21L150.727 189.682C150.221 190.587 149.508 191.315 148.588 191.867C147.668 192.404 146.649 192.672 145.529 192.672ZM158.274 176.25H161.448V192.35H158.274V176.25ZM170.685 180.528C171.942 180.528 172.977 180.95 173.79 181.793C174.618 182.637 175.032 183.802 175.032 185.289V192.35H172.065V185.657C172.065 184.891 171.858 184.308 171.444 183.909C171.03 183.495 170.478 183.288 169.788 183.288C169.021 183.288 168.408 183.526 167.948 184.001C167.488 184.477 167.258 185.19 167.258 186.14V192.35H164.291V180.85H167.258V182.138C167.978 181.065 169.121 180.528 170.685 180.528ZM186.282 176.25H189.249V192.35H186.282V190.993C185.408 192.113 184.166 192.672 182.556 192.672C181.007 192.672 179.681 192.09 178.577 190.924C177.488 189.744 176.944 188.302 176.944 186.6C176.944 184.898 177.488 183.465 178.577 182.299C179.681 181.119 181.007 180.528 182.556 180.528C184.166 180.528 185.408 181.088 186.282 182.207V176.25ZM180.808 188.946C181.421 189.544 182.188 189.843 183.108 189.843C184.028 189.843 184.787 189.544 185.385 188.946C185.983 188.333 186.282 187.551 186.282 186.6C186.282 185.65 185.983 184.875 185.385 184.277C184.787 183.664 184.028 183.357 183.108 183.357C182.188 183.357 181.421 183.664 180.808 184.277C180.21 184.875 179.911 185.65 179.911 186.6C179.911 187.551 180.21 188.333 180.808 188.946ZM194.469 187.819C194.868 189.261 195.949 189.981 197.712 189.981C198.847 189.981 199.706 189.598 200.288 188.831L202.68 190.211C201.546 191.852 199.874 192.672 197.666 192.672C195.765 192.672 194.239 192.097 193.089 190.947C191.939 189.797 191.364 188.348 191.364 186.6C191.364 184.868 191.932 183.426 193.066 182.276C194.201 181.111 195.658 180.528 197.436 180.528C199.123 180.528 200.511 181.111 201.599 182.276C202.703 183.442 203.255 184.883 203.255 186.6C203.255 186.984 203.217 187.39 203.14 187.819H194.469ZM194.423 185.519H200.288C200.12 184.737 199.767 184.155 199.23 183.771C198.709 183.388 198.111 183.196 197.436 183.196C196.639 183.196 195.98 183.403 195.458 183.817C194.937 184.216 194.592 184.783 194.423 185.519ZM215.278 192.35H211.851L209.367 188.854L206.86 192.35H203.433L207.642 186.485L203.617 180.85H207.044L209.367 184.093L211.69 180.85H215.094L211.069 186.462L215.278 192.35ZM218.231 179.47C217.741 179.47 217.311 179.294 216.943 178.941C216.591 178.573 216.414 178.144 216.414 177.653C216.414 177.163 216.591 176.733 216.943 176.365C217.311 175.997 217.741 175.813 218.231 175.813C218.737 175.813 219.167 175.997 219.519 176.365C219.887 176.733 220.071 177.163 220.071 177.653C220.071 178.144 219.887 178.573 219.519 178.941C219.167 179.294 218.737 179.47 218.231 179.47ZM216.759 192.35V180.85H219.726V192.35H216.759ZM228.836 180.528C230.093 180.528 231.128 180.95 231.941 181.793C232.769 182.637 233.183 183.802 233.183 185.289V192.35H230.216V185.657C230.216 184.891 230.009 184.308 229.595 183.909C229.181 183.495 228.629 183.288 227.939 183.288C227.172 183.288 226.559 183.526 226.099 184.001C225.639 184.477 225.409 185.19 225.409 186.14V192.35H222.442V180.85H225.409V182.138C226.13 181.065 227.272 180.528 228.836 180.528ZM244.525 180.85H247.423V191.798C247.423 193.577 246.833 194.934 245.652 195.869C244.487 196.805 243.076 197.272 241.42 197.272C240.178 197.272 239.082 197.035 238.131 196.559C237.196 196.084 236.475 195.386 235.969 194.466L238.499 193.017C239.082 194.091 240.086 194.627 241.512 194.627C242.448 194.627 243.184 194.382 243.72 193.891C244.257 193.401 244.525 192.703 244.525 191.798V190.556C243.651 191.722 242.425 192.304 240.845 192.304C239.22 192.304 237.855 191.737 236.751 190.602C235.663 189.452 235.118 188.057 235.118 186.416C235.118 184.791 235.67 183.403 236.774 182.253C237.878 181.103 239.235 180.528 240.845 180.528C242.425 180.528 243.651 181.111 244.525 182.276V180.85ZM238.982 188.693C239.596 189.276 240.37 189.567 241.305 189.567C242.241 189.567 243.007 189.276 243.605 188.693C244.219 188.095 244.525 187.336 244.525 186.416C244.525 185.512 244.219 184.768 243.605 184.185C243.007 183.587 242.241 183.288 241.305 183.288C240.37 183.288 239.596 183.587 238.982 184.185C238.384 184.768 238.085 185.512 238.085 186.416C238.085 187.336 238.384 188.095 238.982 188.693Z" fill="white"/>
<path d="M51.232 223.35V212.278H52.8L56.896 221.43L60.992 212.278H62.544V223.35H61.088V215.094L57.408 223.35H56.384L52.688 215.078V223.35H51.232ZM64.4693 218.934C64.4693 216.198 66.2773 214.438 68.6293 214.438C70.2613 214.438 71.3813 215.27 71.8933 216.182V214.582H73.3653V223.35H71.8933V221.718C71.3653 222.662 70.2293 223.494 68.6133 223.494C66.2773 223.494 64.4693 221.654 64.4693 218.934ZM71.8933 218.95C71.8933 216.918 70.5173 215.702 68.9173 215.702C67.3173 215.702 65.9573 216.87 65.9573 218.934C65.9573 220.998 67.3173 222.214 68.9173 222.214C70.5173 222.214 71.8933 221.014 71.8933 218.95ZM82.2418 223.35V218.39C82.2418 216.598 81.2658 215.686 79.7938 215.686C78.3058 215.686 77.2818 216.614 77.2818 218.502V223.35H75.8258V214.582H77.2818V215.83C77.8578 214.918 78.9138 214.422 80.0978 214.422C82.1298 214.422 83.6818 215.67 83.6818 218.182V223.35H82.2418ZM86.3801 220.95V215.782H85.2441V214.582H86.3801V212.374H87.8361V214.582H90.1241V215.782H87.8361V220.95C87.8361 221.814 88.1561 222.118 89.0521 222.118H90.1241V223.35H88.8121C87.2601 223.35 86.3801 222.71 86.3801 220.95ZM91.8883 223.35V211.51H93.3443V215.846C93.9203 214.918 95.0083 214.422 96.2403 214.422C98.1923 214.422 99.7443 215.67 99.7443 218.182V223.35H98.3043V218.39C98.3043 216.598 97.3283 215.686 95.8563 215.686C94.3683 215.686 93.3443 216.614 93.3443 218.502V223.35H91.8883ZM101.579 218.934C101.579 216.198 103.387 214.438 105.739 214.438C107.371 214.438 108.491 215.27 109.003 216.182V214.582H110.475V223.35H109.003V221.718C108.475 222.662 107.339 223.494 105.723 223.494C103.387 223.494 101.579 221.654 101.579 218.934ZM109.003 218.95C109.003 216.918 107.627 215.702 106.027 215.702C104.427 215.702 103.067 216.87 103.067 218.934C103.067 220.998 104.427 222.214 106.027 222.214C107.627 222.214 109.003 221.014 109.003 218.95ZM112.391 218.934C112.391 216.198 114.199 214.438 116.551 214.438C118.183 214.438 119.303 215.27 119.815 216.182V214.582H121.287V223.35H119.815V221.718C119.287 222.662 118.151 223.494 116.535 223.494C114.199 223.494 112.391 221.654 112.391 218.934ZM119.815 218.95C119.815 216.918 118.439 215.702 116.839 215.702C115.239 215.702 113.879 216.87 113.879 218.934C113.879 220.998 115.239 222.214 116.839 222.214C118.439 222.214 119.815 221.014 119.815 218.95ZM130.164 223.35V218.39C130.164 216.598 129.188 215.686 127.716 215.686C126.228 215.686 125.204 216.614 125.204 218.502V223.35H123.748V214.582H125.204V215.83C125.78 214.918 126.836 214.422 128.02 214.422C130.052 214.422 131.604 215.67 131.604 218.182V223.35H130.164ZM144.552 220.966C144.552 222.406 143.288 223.494 141.352 223.494C139.304 223.494 137.864 222.374 137.768 220.774H139.272C139.352 221.622 140.104 222.262 141.336 222.262C142.488 222.262 143.128 221.686 143.128 220.966C143.128 219.014 137.944 220.15 137.944 216.886C137.944 215.542 139.208 214.438 141.16 214.438C143.096 214.438 144.376 215.478 144.472 217.19H143.016C142.952 216.31 142.28 215.67 141.112 215.67C140.04 215.67 139.4 216.182 139.4 216.886C139.4 218.966 144.488 217.83 144.552 220.966ZM150.335 215.67C148.911 215.67 147.727 216.614 147.567 218.326H153.103C153.119 216.614 151.839 215.67 150.335 215.67ZM154.431 220.646C153.983 222.246 152.575 223.494 150.399 223.494C147.903 223.494 146.063 221.734 146.063 218.95C146.063 216.182 147.839 214.438 150.399 214.438C152.943 214.438 154.607 216.23 154.607 218.63C154.607 218.95 154.591 219.206 154.559 219.51H147.551C147.663 221.286 148.911 222.262 150.399 222.262C151.711 222.262 152.543 221.59 152.863 220.646H154.431ZM169.185 223.35V218.39C169.185 216.598 168.225 215.686 166.785 215.686C165.313 215.686 164.305 216.63 164.305 218.518V223.35H162.865V218.39C162.865 216.598 161.905 215.686 160.465 215.686C158.993 215.686 157.985 216.63 157.985 218.518V223.35H156.529V214.582H157.985V215.846C158.561 214.918 159.601 214.422 160.753 214.422C162.193 214.422 163.393 215.062 163.969 216.374C164.481 215.11 165.729 214.422 167.073 214.422C169.073 214.422 170.625 215.67 170.625 218.182V223.35H169.185ZM172.469 218.934C172.469 216.198 174.277 214.438 176.629 214.438C178.261 214.438 179.381 215.27 179.893 216.182V214.582H181.365V223.35H179.893V221.718C179.365 222.662 178.229 223.494 176.613 223.494C174.277 223.494 172.469 221.654 172.469 218.934ZM179.893 218.95C179.893 216.918 178.517 215.702 176.917 215.702C175.317 215.702 173.957 216.87 173.957 218.934C173.957 220.998 175.317 222.214 176.917 222.214C178.517 222.214 179.893 221.014 179.893 218.95ZM190.242 223.35V218.39C190.242 216.598 189.266 215.686 187.794 215.686C186.306 215.686 185.282 216.614 185.282 218.502V223.35H183.826V214.582H185.282V215.83C185.858 214.918 186.914 214.422 188.098 214.422C190.13 214.422 191.682 215.67 191.682 218.182V223.35H190.242ZM194.38 220.95V215.782H193.244V214.582H194.38V212.374H195.836V214.582H198.124V215.782H195.836V220.95C195.836 221.814 196.156 222.118 197.052 222.118H198.124V223.35H196.812C195.26 223.35 194.38 222.71 194.38 220.95ZM199.888 223.35V214.582H201.344V223.35H199.888ZM200.64 213.158C200.08 213.158 199.648 212.726 199.648 212.166C199.648 211.606 200.08 211.174 200.64 211.174C201.168 211.174 201.6 211.606 201.6 212.166C201.6 212.726 201.168 213.158 200.64 213.158ZM203.282 218.95C203.282 216.198 205.058 214.438 207.554 214.438C209.73 214.438 211.154 215.558 211.602 217.398H210.034C209.73 216.342 208.85 215.67 207.554 215.67C205.954 215.67 204.77 216.806 204.77 218.95C204.77 221.126 205.954 222.262 207.554 222.262C208.85 222.262 209.714 221.638 210.034 220.534H211.602C211.154 222.278 209.73 223.494 207.554 223.494C205.058 223.494 203.282 221.734 203.282 218.95ZM213.001 218.934C213.001 216.198 214.809 214.438 217.161 214.438C218.793 214.438 219.913 215.27 220.425 216.182V214.582H221.897V223.35H220.425V221.718C219.897 222.662 218.761 223.494 217.145 223.494C214.809 223.494 213.001 221.654 213.001 218.934ZM220.425 218.95C220.425 216.918 219.049 215.702 217.449 215.702C215.849 215.702 214.489 216.87 214.489 218.934C214.489 220.998 215.849 222.214 217.449 222.214C219.049 222.214 220.425 221.014 220.425 218.95ZM224.357 223.35V211.51H225.813V223.35H224.357ZM228.295 223.35V211.51H229.751V223.35H228.295ZM235.56 221.686L238.28 214.582H239.784L234.504 227.478H233L234.728 223.254L231.192 214.582H232.808L235.56 221.686ZM51.232 245.35V236.582H52.688V245.35H51.232ZM51.984 235.158C51.424 235.158 50.992 234.726 50.992 234.166C50.992 233.606 51.424 233.174 51.984 233.174C52.512 233.174 52.944 233.606 52.944 234.166C52.944 234.726 52.512 235.158 51.984 235.158ZM61.5855 245.35V240.39C61.5855 238.598 60.6095 237.686 59.1375 237.686C57.6495 237.686 56.6255 238.614 56.6255 240.502V245.35H55.1695V236.582H56.6255V237.83C57.2015 236.918 58.2575 236.422 59.4415 236.422C61.4735 236.422 63.0255 237.67 63.0255 240.182V245.35H61.5855ZM64.8599 240.934C64.8599 238.198 66.6679 236.438 69.0359 236.438C70.4119 236.438 71.6759 237.142 72.2839 238.15V233.51H73.7559V245.35H72.2839V243.702C71.7559 244.678 70.6199 245.494 69.0199 245.494C66.6679 245.494 64.8599 243.654 64.8599 240.934ZM72.2839 240.95C72.2839 238.918 70.9079 237.702 69.3079 237.702C67.7079 237.702 66.3479 238.87 66.3479 240.934C66.3479 242.998 67.7079 244.214 69.3079 244.214C70.9079 244.214 72.2839 243.014 72.2839 240.95ZM79.9444 237.67C78.5204 237.67 77.3364 238.614 77.1764 240.326H82.7124C82.7284 238.614 81.4484 237.67 79.9444 237.67ZM84.0404 242.646C83.5924 244.246 82.1844 245.494 80.0084 245.494C77.5124 245.494 75.6724 243.734 75.6724 240.95C75.6724 238.182 77.4484 236.438 80.0084 236.438C82.5524 236.438 84.2164 238.23 84.2164 240.63C84.2164 240.95 84.2004 241.206 84.1684 241.51H77.1604C77.2724 243.286 78.5204 244.262 80.0084 244.262C81.3204 244.262 82.1524 243.59 82.4724 242.646H84.0404ZM90.7143 245.35L88.6343 242.086L86.6343 245.35H85.1143L87.9463 240.998L85.1143 236.582H86.7623L88.8423 239.83L90.8263 236.582H92.3463L89.5303 240.918L92.3623 245.35H90.7143ZM97.5225 237.67C96.0985 237.67 94.9145 238.614 94.7545 240.326H100.291C100.307 238.614 99.0265 237.67 97.5225 237.67ZM101.619 242.646C101.171 244.246 99.7625 245.494 97.5865 245.494C95.0905 245.494 93.2505 243.734 93.2505 240.95C93.2505 238.182 95.0265 236.438 97.5865 236.438C100.131 236.438 101.795 238.23 101.795 240.63C101.795 240.95 101.779 241.206 101.747 241.51H94.7385C94.8505 243.286 96.0985 244.262 97.5865 244.262C98.8985 244.262 99.7305 243.59 100.051 242.646H101.619ZM110.02 242.966C110.02 244.406 108.756 245.494 106.82 245.494C104.772 245.494 103.332 244.374 103.236 242.774H104.74C104.82 243.622 105.572 244.262 106.804 244.262C107.956 244.262 108.596 243.686 108.596 242.966C108.596 241.014 103.412 242.15 103.412 238.886C103.412 237.542 104.676 236.438 106.628 236.438C108.564 236.438 109.844 237.478 109.94 239.19H108.484C108.42 238.31 107.748 237.67 106.58 237.67C105.508 237.67 104.868 238.182 104.868 238.886C104.868 240.966 109.956 239.83 110.02 242.966ZM115.797 240.934C115.797 238.198 117.605 236.438 119.957 236.438C121.589 236.438 122.709 237.27 123.221 238.182V236.582H124.693V245.35H123.221V243.718C122.693 244.662 121.557 245.494 119.941 245.494C117.605 245.494 115.797 243.654 115.797 240.934ZM123.221 240.95C123.221 238.918 121.845 237.702 120.245 237.702C118.645 237.702 117.285 238.87 117.285 240.934C117.285 242.998 118.645 244.214 120.245 244.214C121.845 244.214 123.221 243.014 123.221 240.95ZM133.57 245.35V240.39C133.57 238.598 132.594 237.686 131.122 237.686C129.634 237.686 128.61 238.614 128.61 240.502V245.35H127.154V236.582H128.61V237.83C129.186 236.918 130.242 236.422 131.426 236.422C133.458 236.422 135.01 237.67 135.01 240.182V245.35H133.57ZM136.844 240.934C136.844 238.198 138.652 236.438 141.02 236.438C142.396 236.438 143.66 237.142 144.268 238.15V233.51H145.74V245.35H144.268V243.702C143.74 244.678 142.604 245.494 141.004 245.494C138.652 245.494 136.844 243.654 136.844 240.934ZM144.268 240.95C144.268 238.918 142.892 237.702 141.292 237.702C139.692 237.702 138.332 238.87 138.332 240.934C138.332 242.998 139.692 244.214 141.292 244.214C142.892 244.214 144.268 243.014 144.268 240.95ZM152.786 242.95V237.782H151.65V236.582H152.786V234.374H154.242V236.582H156.53V237.782H154.242V242.95C154.242 243.814 154.562 244.118 155.458 244.118H156.53V245.35H155.218C153.666 245.35 152.786 244.71 152.786 242.95ZM157.751 240.934C157.751 238.198 159.559 236.438 161.911 236.438C163.543 236.438 164.663 237.27 165.175 238.182V236.582H166.647V245.35H165.175V243.718C164.647 244.662 163.511 245.494 161.895 245.494C159.559 245.494 157.751 243.654 157.751 240.934ZM165.175 240.95C165.175 238.918 163.799 237.702 162.199 237.702C160.599 237.702 159.239 238.87 159.239 240.934C159.239 242.998 160.599 244.214 162.199 244.214C163.799 244.214 165.175 243.014 165.175 240.95ZM168.563 240.934C168.563 238.198 170.371 236.438 172.723 236.438C174.323 236.438 175.475 237.238 175.987 238.182V236.582H177.459V245.542C177.459 247.958 175.843 249.67 173.267 249.67C170.963 249.67 169.315 248.502 169.027 246.63H170.467C170.787 247.686 171.827 248.406 173.267 248.406C174.819 248.406 175.987 247.414 175.987 245.542V243.702C175.459 244.646 174.323 245.494 172.723 245.494C170.371 245.494 168.563 243.654 168.563 240.934ZM175.987 240.95C175.987 238.918 174.611 237.702 173.011 237.702C171.411 237.702 170.051 238.87 170.051 240.934C170.051 242.998 171.411 244.214 173.011 244.214C174.611 244.214 175.987 243.014 175.987 240.95ZM186.224 242.966C186.224 244.406 184.96 245.494 183.024 245.494C180.976 245.494 179.536 244.374 179.44 242.774H180.944C181.024 243.622 181.776 244.262 183.008 244.262C184.16 244.262 184.8 243.686 184.8 242.966C184.8 241.014 179.616 242.15 179.616 238.886C179.616 237.542 180.88 236.438 182.832 236.438C184.768 236.438 186.048 237.478 186.144 239.19H184.688C184.624 238.31 183.952 237.67 182.784 237.67C181.712 237.67 181.072 238.182 181.072 238.886C181.072 240.966 186.16 239.83 186.224 242.966ZM192.865 242.95V237.782H191.729V236.582H192.865V234.374H194.321V236.582H196.609V237.782H194.321V242.95C194.321 243.814 194.641 244.118 195.536 244.118H196.609V245.35H195.297C193.745 245.35 192.865 244.71 192.865 242.95ZM198.373 245.35V233.51H199.829V237.846C200.405 236.918 201.493 236.422 202.725 236.422C204.677 236.422 206.229 237.67 206.229 240.182V245.35H204.789V240.39C204.789 238.598 203.813 237.686 202.341 237.686C200.853 237.686 199.829 238.614 199.829 240.502V245.35H198.373ZM212.335 237.67C210.911 237.67 209.727 238.614 209.567 240.326H215.103C215.119 238.614 213.839 237.67 212.335 237.67ZM216.431 242.646C215.983 244.246 214.575 245.494 212.399 245.494C209.903 245.494 208.063 243.734 208.063 240.95C208.063 238.182 209.839 236.438 212.399 236.438C214.943 236.438 216.607 238.23 216.607 240.63C216.607 240.95 216.591 241.206 216.559 241.51H209.551C209.663 243.286 210.911 244.262 212.399 244.262C213.711 244.262 214.543 243.59 214.863 242.646H216.431ZM222.251 240.95C222.251 238.198 224.027 236.438 226.523 236.438C228.699 236.438 230.123 237.558 230.571 239.398H229.003C228.699 238.342 227.819 237.67 226.523 237.67C224.923 237.67 223.739 238.806 223.739 240.95C223.739 243.126 224.923 244.262 226.523 244.262C227.819 244.262 228.683 243.638 229.003 242.534H230.571C230.123 244.278 228.699 245.494 226.523 245.494C224.027 245.494 222.251 243.734 222.251 240.95ZM240.833 240.95C240.833 243.734 238.833 245.494 236.337 245.494C233.857 245.494 231.969 243.734 231.969 240.95C231.969 238.182 233.921 236.438 236.401 236.438C238.897 236.438 240.833 238.182 240.833 240.95ZM233.457 240.95C233.457 243.174 234.817 244.214 236.337 244.214C237.857 244.214 239.345 243.174 239.345 240.95C239.345 238.742 237.889 237.702 236.385 237.702C234.849 237.702 233.457 238.742 233.457 240.95ZM249.164 245.35V240.39C249.164 238.598 248.188 237.686 246.716 237.686C245.228 237.686 244.204 238.614 244.204 240.502V245.35H242.748V236.582H244.204V237.83C244.78 236.918 245.836 236.422 247.02 236.422C249.052 236.422 250.604 237.67 250.604 240.182V245.35H249.164ZM253.302 242.95V237.782H252.166V236.582H253.302V234.374H254.758V236.582H257.046V237.782H254.758V242.95C254.758 243.814 255.078 244.118 255.974 244.118H257.046V245.35H255.734C254.182 245.35 253.302 244.71 253.302 242.95ZM262.538 237.67C261.114 237.67 259.93 238.614 259.77 240.326H265.306C265.322 238.614 264.042 237.67 262.538 237.67ZM266.634 242.646C266.186 244.246 264.778 245.494 262.602 245.494C260.106 245.494 258.266 243.734 258.266 240.95C258.266 238.182 260.042 236.438 262.602 236.438C265.146 236.438 266.81 238.23 266.81 240.63C266.81 240.95 266.794 241.206 266.762 241.51H259.754C259.866 243.286 261.114 244.262 262.602 244.262C263.914 244.262 264.746 243.59 265.066 242.646H266.634ZM275.148 245.35V240.39C275.148 238.598 274.172 237.686 272.7 237.686C271.212 237.686 270.188 238.614 270.188 240.502V245.35H268.732V236.582H270.188V237.83C270.764 236.918 271.82 236.422 273.004 236.422C275.036 236.422 276.588 237.67 276.588 240.182V245.35H275.148ZM279.286 242.95V237.782H278.15V236.582H279.286V234.374H280.742V236.582H283.03V237.782H280.742V242.95C280.742 243.814 281.062 244.118 281.958 244.118H283.03V245.35H281.718C280.166 245.35 279.286 244.71 279.286 242.95Z" fill="white"/>
</g>
<defs>
<filter id="filter0_d_2078_5211" x="0" y="0.350342" width="352" height="318" filterUnits="userSpaceOnUse" color-interpolation-filters="sRGB">
<feFlood flood-opacity="0" result="BackgroundImageFix"/>
<feColorMatrix in="SourceAlpha" type="matrix" values="0 0 0 0 0 0 0 0 0 0 0 0 0 0 0 0 0 0 127 0" result="hardAlpha"/>
<feOffset dy="10"/>
<feGaussianBlur stdDeviation="13"/>
<feComposite in2="hardAlpha" operator="out"/>
<feColorMatrix type="matrix" values="0 0 0 0 0 0 0 0 0 0 0 0 0 0 0 0 0 0 0.2 0"/>
<feBlend mode="normal" in2="BackgroundImageFix" result="effect1_dropShadow_2078_5211"/>
<feBlend mode="normal" in="SourceGraphic" in2="effect1_dropShadow_2078_5211" result="shape"/>
</filter>
<linearGradient id="paint0_linear_2078_5211" x1="326" y1="264.339" x2="2.47115" y2="224.251" gradientUnits="userSpaceOnUse">
<stop offset="0.254808" stop-color="#464646"/>
<stop offset="1" stop-color="#43430D"/>
</linearGradient>
<linearGradient id="paint1_linear_2078_5211" x1="111.807" y1="16.3503" x2="323.575" y2="154.948" gradientUnits="userSpaceOnUse">
<stop stop-color="#9F9F00"/>
<stop offset="0.509615" stop-color="#4D4D00"/>
</linearGradient>
<clipPath id="clip0_2078_5211">
<rect width="42" height="42" fill="white" transform="translate(66 63.8503)"/>
</clipPath>
</defs>
</svg>
