<svg width="365" height="279" viewBox="0 0 365 279" fill="none" xmlns="http://www.w3.org/2000/svg">
<g filter="url(#filter0_d_2104_5707)">
<path d="M26 26C26 20.4771 30.4772 16 36 16H329C334.523 16 339 20.4772 339 26V233C339 238.523 334.523 243 329 243H36C30.4771 243 26 238.523 26 233V26Z" fill="url(#paint0_linear_2104_5707)" fill-opacity="0.6" shape-rendering="crispEdges"/>
<path d="M36 16.5H329C334.247 16.5 338.5 20.7533 338.5 26V233C338.5 238.247 334.247 242.5 329 242.5H36C30.7533 242.5 26.5 238.247 26.5 233V26C26.5 20.7533 30.7533 16.5 36 16.5Z" stroke="url(#paint1_linear_2104_5707)" shape-rendering="crispEdges"/>
<rect x="50" y="48" width="74" height="74" rx="37" stroke="#FFFF00" stroke-width="1.5"/>
<g clip-path="url(#clip0_2104_5707)">
<path d="M78.74 90.7819C79.1962 90.7819 79.566 90.4121 79.566 89.9559C79.566 89.4998 79.1962 89.1299 78.74 89.1299C78.2839 89.1299 77.9141 89.4998 77.9141 89.9559C77.9141 90.4121 78.2839 90.7819 78.74 90.7819Z" fill="#FFFF00"/>
<path d="M82.0447 90.7819C82.5009 90.7819 82.8707 90.4121 82.8707 89.9559C82.8707 89.4998 82.5009 89.1299 82.0447 89.1299C81.5886 89.1299 81.2188 89.4998 81.2188 89.9559C81.2188 90.4121 81.5886 90.7819 82.0447 90.7819Z" fill="#FFFF00"/>
<path d="M91.9568 90.7819H95.2608C95.7173 90.7819 96.0868 90.4125 96.0868 89.9559C96.0868 89.4994 95.7173 89.1299 95.2608 89.1299H91.9568C91.5003 89.1299 91.1309 89.4994 91.1309 89.9559C91.1309 90.4125 91.5003 90.7819 91.9568 90.7819Z" fill="#FFFF00"/>
<path d="M78.74 97.3898C79.1962 97.3898 79.566 97.02 79.566 96.5638C79.566 96.1076 79.1962 95.7378 78.74 95.7378C78.2839 95.7378 77.9141 96.1076 77.9141 96.5638C77.9141 97.02 78.2839 97.3898 78.74 97.3898Z" fill="#FFFF00"/>
<path d="M82.0447 97.3898C82.5009 97.3898 82.8707 97.02 82.8707 96.5638C82.8707 96.1076 82.5009 95.7378 82.0447 95.7378C81.5886 95.7378 81.2188 96.1076 81.2188 96.5638C81.2188 97.02 81.5886 97.3898 82.0447 97.3898Z" fill="#FFFF00"/>
<path d="M91.9568 97.3898H95.2608C95.7173 97.3898 96.0868 97.0203 96.0868 96.5638C96.0868 96.1072 95.7173 95.7378 95.2608 95.7378H91.9568C91.5003 95.7378 91.1309 96.1072 91.1309 96.5638C91.1309 97.0203 91.5003 97.3898 91.9568 97.3898Z" fill="#FFFF00"/>
<path d="M78.8346 79.1544C79.2556 79.3306 79.7396 79.1314 79.9147 78.7099L80.0471 78.3921H82.3876C82.3876 78.3921 82.5198 78.7092 82.5201 78.7099C82.6896 79.1168 83.1935 79.3246 83.6001 79.1544C84.0212 78.979 84.2204 78.4954 84.0446 78.0743L81.9796 73.1184C81.8514 72.8107 81.5505 72.6102 81.2174 72.6102C80.8842 72.6102 80.5833 72.8107 80.4551 73.1184L78.3901 78.0743C78.2143 78.4954 78.4135 78.979 78.8346 79.1544ZM81.2174 75.5839L81.6992 76.7402H80.7355L81.2174 75.5839Z" fill="#FFFF00"/>
<path d="M86.1736 79.2181C86.6302 79.2181 86.9996 78.8483 86.9996 78.3921V77.1532H87.6191C88.8718 77.1532 89.8906 76.1344 89.8906 74.8817C89.8906 73.629 88.8718 72.6102 87.6191 72.6102H86.1736C85.7171 72.6102 85.3477 72.9801 85.3477 73.4362V78.3921C85.3477 78.8483 85.7171 79.2181 86.1736 79.2181ZM86.9996 74.2622H87.6191C87.9603 74.2622 88.2386 74.5401 88.2386 74.8817C88.2386 75.2233 87.9603 75.5012 87.6191 75.5012H86.9996V74.2622Z" fill="#FFFF00"/>
<path d="M91.9568 77.5661C91.5003 77.5661 91.1309 77.936 91.1309 78.3921C91.1309 78.8483 91.5003 79.2181 91.9568 79.2181H94.0218C94.4784 79.2181 94.8478 78.8483 94.8478 78.3921C94.8478 77.936 94.4784 77.5661 94.0218 77.5661H93.8153V74.2622H94.0218C94.4784 74.2622 94.8478 73.8924 94.8478 73.4362C94.8478 72.9801 94.4784 72.6102 94.0218 72.6102H91.9568C91.5003 72.6102 91.1309 72.9801 91.1309 73.4362C91.1309 73.8924 91.5003 74.2622 91.9568 74.2622H92.1633V77.5661H91.9568Z" fill="#FFFF00"/>
<path d="M105.997 100.846V79.0659C106.956 78.7238 107.649 77.8155 107.649 76.7401C107.649 75.3737 106.537 74.2622 105.171 74.2622C104.096 74.2622 103.187 74.9548 102.845 75.9142H100.99C100.664 72.9683 98.6199 70.4884 95.7512 69.6281C94.025 66.3625 90.7057 64.3503 86.9993 64.3503C83.2928 64.3503 79.9735 66.3625 78.2474 69.6281C75.3786 70.4884 73.3346 72.9683 73.0085 75.9142H71.1533C70.8113 74.9548 69.903 74.2622 68.8276 74.2622C67.4611 74.2622 66.3496 75.3737 66.3496 76.7401C66.3496 77.8155 67.0422 78.7238 68.0016 79.0658V100.846C67.0422 101.188 66.3496 102.096 66.3496 103.172C66.3496 104.538 67.4611 105.65 68.8276 105.65C69.903 105.65 70.8113 104.957 71.1533 103.998H102.845C103.187 104.957 104.096 105.65 105.171 105.65C106.537 105.65 107.649 104.538 107.649 103.172C107.649 102.096 106.956 101.188 105.997 100.846ZM105.171 75.9142C105.627 75.9142 105.997 76.2848 105.997 76.7401C105.997 77.1955 105.627 77.5661 105.171 77.5661C104.715 77.5661 104.345 77.1955 104.345 76.7401C104.345 76.2848 104.715 75.9142 105.171 75.9142ZM79.0145 71.1305C79.254 71.072 79.4557 70.9094 79.5622 70.6868C80.956 67.7975 83.805 66.0023 86.9993 66.0023C90.1935 66.0023 93.0425 67.7975 94.4364 70.6868C94.5429 70.9094 94.7445 71.072 94.9841 71.1305C97.5774 71.7653 99.3891 74.0718 99.3891 76.7401C99.3891 79.9283 96.795 82.522 93.6072 82.522C92.6812 82.522 91.7914 82.3051 90.9622 81.8771C90.7579 81.7717 90.4839 81.7541 90.2572 81.8525C88.189 82.7406 85.8095 82.7406 83.7413 81.8525C83.5154 81.7549 83.2565 81.7634 83.0363 81.8771C82.2071 82.3051 81.3174 82.522 80.3914 82.522C77.2036 82.522 74.6095 79.9283 74.6095 76.7401C74.6095 74.0718 76.4212 71.7653 79.0145 71.1305ZM68.8276 75.9142C69.2833 75.9142 69.6536 76.2848 69.6536 76.7401C69.6536 77.1955 69.2833 77.5661 68.8276 77.5661C68.3718 77.5661 68.0016 77.1955 68.0016 76.7401C68.0016 76.2848 68.3718 75.9142 68.8276 75.9142ZM68.8276 103.998C68.3718 103.998 68.0016 103.627 68.0016 103.172C68.0016 102.716 68.3718 102.346 68.8276 102.346C69.2833 102.346 69.6536 102.716 69.6536 103.172C69.6536 103.627 69.2833 103.998 68.8276 103.998ZM102.845 102.346H87.8253V100.694H96.9111C98.2775 100.694 99.3891 99.5822 99.3891 98.2158V94.9118C99.3891 94.2749 99.1408 93.6993 98.7446 93.2599C99.1408 92.8205 99.3891 92.2448 99.3891 91.6079V88.3039C99.3891 86.9375 98.2775 85.826 96.9111 85.826H77.0874C75.721 85.826 74.6095 86.9375 74.6095 88.3039V91.6079C74.6095 92.2448 74.8577 92.8205 75.254 93.2599C74.8577 93.6993 74.6095 94.2749 74.6095 94.9118V98.2158C74.6095 99.5822 75.721 100.694 77.0874 100.694H86.1733V102.346H71.1533C70.9038 101.646 70.3533 101.095 69.6536 100.846V79.0659C70.3533 78.8164 70.9038 78.2659 71.1533 77.5661H73.0062C73.4188 81.2773 76.5716 84.174 80.3914 84.174C81.4537 84.174 82.4789 83.9526 83.4445 83.5146C85.7159 84.3906 88.2826 84.3906 90.5541 83.5146C91.5196 83.9526 92.5448 84.174 93.6072 84.174C97.4269 84.174 100.58 81.2773 100.992 77.5661H102.845C103.095 78.2659 103.645 78.8163 104.345 79.0658V100.846C103.645 101.095 103.095 101.646 102.845 102.346ZM77.0874 94.0858H96.9111C97.3668 94.0858 97.7371 94.4561 97.7371 94.9118V98.2158C97.7371 98.6715 97.3668 99.0418 96.9111 99.0418H77.0874C76.6317 99.0418 76.2614 98.6715 76.2614 98.2158V94.9118C76.2614 94.4561 76.6317 94.0858 77.0874 94.0858ZM76.2614 91.6079V88.3039C76.2614 87.8482 76.6317 87.478 77.0874 87.478H96.9111C97.3668 87.478 97.7371 87.8482 97.7371 88.3039V91.6079C97.7371 92.0636 97.3668 92.4339 96.9111 92.4339H77.0874C76.6317 92.4339 76.2614 92.0636 76.2614 91.6079ZM105.171 103.998C104.715 103.998 104.345 103.627 104.345 103.172C104.345 102.716 104.715 102.346 105.171 102.346C105.627 102.346 105.997 102.716 105.997 103.172C105.997 103.627 105.627 103.998 105.171 103.998Z" fill="#FFFF00"/>
</g>
<path d="M65.3845 198.861C63.7745 200.471 61.8042 201.276 59.4735 201.276C57.1429 201.276 55.1725 200.471 53.5625 198.861C51.9525 197.236 51.1475 195.265 51.1475 192.95C51.1475 190.635 51.9525 188.672 53.5625 187.062C55.1725 185.437 57.1429 184.624 59.4735 184.624C61.8042 184.624 63.7745 185.437 65.3845 187.062C66.9945 188.672 67.7995 190.635 67.7995 192.95C67.7995 195.265 66.9945 197.236 65.3845 198.861ZM54.6895 197.757C55.9775 199.06 57.5722 199.712 59.4735 199.712C61.3749 199.712 62.9695 199.06 64.2575 197.757C65.5455 196.438 66.1895 194.836 66.1895 192.95C66.1895 191.064 65.5455 189.469 64.2575 188.166C62.9695 186.847 61.3749 186.188 59.4735 186.188C57.5722 186.188 55.9775 186.847 54.6895 188.166C53.4015 189.469 52.7575 191.064 52.7575 192.95C52.7575 194.836 53.4015 196.438 54.6895 197.757ZM75.7049 189.224C77.1002 189.224 78.1966 189.653 78.9939 190.512C79.8066 191.355 80.2129 192.498 80.2129 193.939V201H78.6949V193.939C78.6949 192.912 78.4189 192.114 77.8669 191.547C77.3302 190.98 76.5636 190.696 75.5669 190.696C74.4629 190.696 73.5659 191.049 72.8759 191.754C72.1859 192.444 71.8409 193.517 71.8409 194.974V201H70.3229V189.5H71.8409V191.294C72.6996 189.914 73.9876 189.224 75.7049 189.224ZM83.3781 194.629V193.157H91.6581V194.629H83.3781ZM101.261 189.224C102.902 189.224 104.297 189.807 105.447 190.972C106.613 192.137 107.195 193.563 107.195 195.25C107.195 196.937 106.613 198.363 105.447 199.528C104.297 200.693 102.902 201.276 101.261 201.276C99.222 201.276 97.6733 200.433 96.6153 198.746V205.6H95.0973V189.5H96.6153V191.754C97.6733 190.067 99.222 189.224 101.261 189.224ZM97.9263 198.493C98.8003 199.367 99.8736 199.804 101.146 199.804C102.419 199.804 103.492 199.367 104.366 198.493C105.24 197.604 105.677 196.523 105.677 195.25C105.677 193.977 105.24 192.904 104.366 192.03C103.492 191.141 102.419 190.696 101.146 190.696C99.8736 190.696 98.8003 191.141 97.9263 192.03C97.0523 192.904 96.6153 193.977 96.6153 195.25C96.6153 196.523 97.0523 197.604 97.9263 198.493ZM111.237 191.409C111.943 190.014 113.154 189.316 114.871 189.316V190.788C113.829 190.788 112.962 191.095 112.272 191.708C111.582 192.321 111.237 193.287 111.237 194.606V201H109.719V189.5H111.237V191.409ZM121.569 189.224C123.271 189.224 124.643 189.83 125.686 191.041C126.744 192.237 127.273 193.655 127.273 195.296C127.273 195.465 127.257 195.702 127.227 196.009H117.13C117.283 197.174 117.774 198.102 118.602 198.792C119.445 199.467 120.48 199.804 121.707 199.804C122.581 199.804 123.332 199.628 123.961 199.275C124.605 198.907 125.088 198.432 125.41 197.849L126.744 198.631C126.238 199.444 125.548 200.088 124.674 200.563C123.8 201.038 122.803 201.276 121.684 201.276C119.874 201.276 118.402 200.709 117.268 199.574C116.133 198.439 115.566 196.998 115.566 195.25C115.566 193.533 116.125 192.099 117.245 190.949C118.364 189.799 119.805 189.224 121.569 189.224ZM121.569 190.696C120.373 190.696 119.368 191.056 118.556 191.777C117.758 192.482 117.283 193.402 117.13 194.537H125.709C125.555 193.326 125.088 192.383 124.306 191.708C123.524 191.033 122.611 190.696 121.569 190.696ZM141.946 189.224C143.234 189.224 144.269 189.638 145.051 190.466C145.848 191.294 146.247 192.413 146.247 193.824V201H144.729V193.824C144.729 192.827 144.468 192.061 143.947 191.524C143.441 190.972 142.766 190.696 141.923 190.696C140.972 190.696 140.198 191.018 139.6 191.662C139.017 192.291 138.726 193.28 138.726 194.629V201H137.208V193.824C137.208 192.812 136.963 192.038 136.472 191.501C135.997 190.964 135.345 190.696 134.517 190.696C133.597 190.696 132.815 191.018 132.171 191.662C131.527 192.306 131.205 193.295 131.205 194.629V201H129.687V189.5H131.205V191.179C132.033 189.876 133.206 189.224 134.724 189.224C136.38 189.224 137.545 189.922 138.22 191.317C139.048 189.922 140.29 189.224 141.946 189.224ZM150.724 186.74C150.51 186.955 150.249 187.062 149.942 187.062C149.636 187.062 149.375 186.955 149.16 186.74C148.946 186.525 148.838 186.265 148.838 185.958C148.838 185.651 148.946 185.391 149.16 185.176C149.375 184.961 149.636 184.854 149.942 184.854C150.249 184.854 150.51 184.961 150.724 185.176C150.939 185.391 151.046 185.651 151.046 185.958C151.046 186.265 150.939 186.525 150.724 186.74ZM149.183 201V189.5H150.701V201H149.183ZM155.119 192.513C155.119 193.034 155.349 193.448 155.809 193.755C156.269 194.062 156.828 194.299 157.488 194.468C158.147 194.637 158.806 194.828 159.466 195.043C160.125 195.242 160.685 195.587 161.145 196.078C161.605 196.553 161.835 197.182 161.835 197.964C161.835 198.945 161.444 199.743 160.662 200.356C159.895 200.969 158.898 201.276 157.672 201.276C156.568 201.276 155.625 201.031 154.843 200.54C154.076 200.049 153.539 199.413 153.233 198.631L154.521 197.872C154.735 198.47 155.119 198.945 155.671 199.298C156.238 199.635 156.905 199.804 157.672 199.804C158.423 199.804 159.052 199.658 159.558 199.367C160.064 199.06 160.317 198.593 160.317 197.964C160.317 197.443 160.087 197.029 159.627 196.722C159.167 196.415 158.607 196.178 157.948 196.009C157.288 195.84 156.629 195.656 155.97 195.457C155.31 195.242 154.751 194.897 154.291 194.422C153.831 193.931 153.601 193.295 153.601 192.513C153.601 191.578 153.969 190.796 154.705 190.167C155.456 189.538 156.399 189.224 157.534 189.224C158.469 189.224 159.289 189.439 159.995 189.868C160.7 190.282 161.221 190.849 161.559 191.57L160.294 192.306C159.849 191.233 158.929 190.696 157.534 190.696C156.874 190.696 156.307 190.857 155.832 191.179C155.356 191.486 155.119 191.93 155.119 192.513ZM169.343 189.224C171.045 189.224 172.417 189.83 173.46 191.041C174.518 192.237 175.047 193.655 175.047 195.296C175.047 195.465 175.032 195.702 175.001 196.009H164.904C165.057 197.174 165.548 198.102 166.376 198.792C167.219 199.467 168.254 199.804 169.481 199.804C170.355 199.804 171.106 199.628 171.735 199.275C172.379 198.907 172.862 198.432 173.184 197.849L174.518 198.631C174.012 199.444 173.322 200.088 172.448 200.563C171.574 201.038 170.577 201.276 169.458 201.276C167.649 201.276 166.177 200.709 165.042 199.574C163.907 198.439 163.34 196.998 163.34 195.25C163.34 193.533 163.9 192.099 165.019 190.949C166.138 189.799 167.58 189.224 169.343 189.224ZM169.343 190.696C168.147 190.696 167.143 191.056 166.33 191.777C165.533 192.482 165.057 193.402 164.904 194.537H173.483C173.33 193.326 172.862 192.383 172.08 191.708C171.298 191.033 170.386 190.696 169.343 190.696ZM192.849 199.551C191.683 200.701 190.257 201.276 188.571 201.276C186.884 201.276 185.45 200.701 184.27 199.551C183.104 198.386 182.522 196.952 182.522 195.25C182.522 193.548 183.104 192.122 184.27 190.972C185.45 189.807 186.884 189.224 188.571 189.224C190.257 189.224 191.683 189.807 192.849 190.972C194.029 192.122 194.62 193.548 194.62 195.25C194.62 196.952 194.029 198.386 192.849 199.551ZM185.351 198.493C186.225 199.367 187.298 199.804 188.571 199.804C189.843 199.804 190.917 199.367 191.791 198.493C192.665 197.604 193.102 196.523 193.102 195.25C193.102 193.977 192.665 192.904 191.791 192.03C190.917 191.141 189.843 190.696 188.571 190.696C187.298 190.696 186.225 191.141 185.351 192.03C184.477 192.904 184.04 193.977 184.04 195.25C184.04 196.523 184.477 197.604 185.351 198.493ZM198.678 191.409C199.383 190.014 200.594 189.316 202.312 189.316V190.788C201.269 190.788 200.403 191.095 199.713 191.708C199.023 192.321 198.678 193.287 198.678 194.606V201H197.16V189.5H198.678V191.409ZM221.09 201L219.595 197.044H211.959L210.464 201H208.762L214.949 184.9H216.605L222.792 201H221.09ZM212.534 195.526H219.02L215.777 186.901L212.534 195.526ZM230.61 184.9C232.051 184.9 233.255 185.383 234.221 186.349C235.187 187.315 235.67 188.519 235.67 189.96C235.67 191.401 235.187 192.605 234.221 193.571C233.255 194.537 232.051 195.02 230.61 195.02H226.47V201H224.86V184.9H230.61ZM230.61 193.502C231.606 193.502 232.427 193.172 233.071 192.513C233.73 191.838 234.06 190.987 234.06 189.96C234.06 188.933 233.73 188.089 233.071 187.43C232.427 186.755 231.606 186.418 230.61 186.418H226.47V193.502H230.61ZM238.426 184.9H240.036V201H238.426V184.9ZM243.727 194.629V193.157H252.007V194.629H243.727ZM256.964 191.409C257.669 190.014 258.881 189.316 260.598 189.316V190.788C259.555 190.788 258.689 191.095 257.999 191.708C257.309 192.321 256.964 193.287 256.964 194.606V201H255.446V189.5H256.964V191.409ZM267.295 189.224C268.997 189.224 270.369 189.83 271.412 191.041C272.47 192.237 272.999 193.655 272.999 195.296C272.999 195.465 272.984 195.702 272.953 196.009H262.856C263.009 197.174 263.5 198.102 264.328 198.792C265.171 199.467 266.206 199.804 267.433 199.804C268.307 199.804 269.058 199.628 269.687 199.275C270.331 198.907 270.814 198.432 271.136 197.849L272.47 198.631C271.964 199.444 271.274 200.088 270.4 200.563C269.526 201.038 268.529 201.276 267.41 201.276C265.601 201.276 264.129 200.709 262.994 199.574C261.859 198.439 261.292 196.998 261.292 195.25C261.292 193.533 261.852 192.099 262.971 190.949C264.09 189.799 265.532 189.224 267.295 189.224ZM267.295 190.696C266.099 190.696 265.095 191.056 264.282 191.777C263.485 192.482 263.009 193.402 262.856 194.537H271.435C271.282 193.326 270.814 192.383 270.032 191.708C269.25 191.033 268.338 190.696 267.295 190.696ZM285.304 189.5H286.822V201H285.304V198.746C284.246 200.433 282.697 201.276 280.658 201.276C279.017 201.276 277.614 200.693 276.449 199.528C275.299 198.363 274.724 196.937 274.724 195.25C274.724 193.563 275.299 192.137 276.449 190.972C277.614 189.807 279.017 189.224 280.658 189.224C282.697 189.224 284.246 190.067 285.304 191.754V189.5ZM277.553 198.493C278.427 199.367 279.5 199.804 280.773 199.804C282.045 199.804 283.119 199.367 283.993 198.493C284.867 197.604 285.304 196.523 285.304 195.25C285.304 193.977 284.867 192.904 283.993 192.03C283.119 191.141 282.045 190.696 280.773 190.696C279.5 190.696 278.427 191.141 277.553 192.03C276.679 192.904 276.242 193.977 276.242 195.25C276.242 196.523 276.679 197.604 277.553 198.493ZM299.926 184.9H301.444V201H299.926V198.746C298.868 200.433 297.319 201.276 295.28 201.276C293.639 201.276 292.236 200.693 291.071 199.528C289.921 198.363 289.346 196.937 289.346 195.25C289.346 193.563 289.921 192.137 291.071 190.972C292.236 189.807 293.639 189.224 295.28 189.224C297.319 189.224 298.868 190.067 299.926 191.754V184.9ZM292.175 198.493C293.049 199.367 294.122 199.804 295.395 199.804C296.667 199.804 297.741 199.367 298.615 198.493C299.489 197.604 299.926 196.523 299.926 195.25C299.926 193.977 299.489 192.904 298.615 192.03C297.741 191.141 296.667 190.696 295.395 190.696C294.122 190.696 293.049 191.141 292.175 192.03C291.301 192.904 290.864 193.977 290.864 195.25C290.864 196.523 291.301 197.604 292.175 198.493ZM312.938 189.5H314.548L309.626 202.058C309.181 203.193 308.545 204.082 307.717 204.726C306.904 205.385 305.992 205.677 304.98 205.6V204.174C306.36 204.327 307.41 203.53 308.131 201.782L308.43 201.069L303.278 189.5H304.888L309.212 199.137L312.938 189.5Z" fill="white"/>
</g>
<defs>
<filter id="filter0_d_2104_5707" x="0" y="0" width="365" height="279" filterUnits="userSpaceOnUse" color-interpolation-filters="sRGB">
<feFlood flood-opacity="0" result="BackgroundImageFix"/>
<feColorMatrix in="SourceAlpha" type="matrix" values="0 0 0 0 0 0 0 0 0 0 0 0 0 0 0 0 0 0 127 0" result="hardAlpha"/>
<feOffset dy="10"/>
<feGaussianBlur stdDeviation="13"/>
<feComposite in2="hardAlpha" operator="out"/>
<feColorMatrix type="matrix" values="0 0 0 0 0 0 0 0 0 0 0 0 0 0 0 0 0 0 0.2 0"/>
<feBlend mode="normal" in2="BackgroundImageFix" result="effect1_dropShadow_2104_5707"/>
<feBlend mode="normal" in="SourceGraphic" in2="effect1_dropShadow_2104_5707" result="shape"/>
</filter>
<linearGradient id="paint0_linear_2104_5707" x1="339" y1="227.629" x2="3.95788" y2="176.875" gradientUnits="userSpaceOnUse">
<stop offset="0.254808" stop-color="#464646"/>
<stop offset="1" stop-color="#43430D"/>
</linearGradient>
<linearGradient id="paint1_linear_2104_5707" x1="115.526" y1="16" x2="307.926" y2="169.95" gradientUnits="userSpaceOnUse">
<stop stop-color="#9F9F00"/>
<stop offset="0.509615" stop-color="#4D4D00"/>
</linearGradient>
<clipPath id="clip0_2104_5707">
<rect width="42" height="42" fill="white" transform="translate(66 64)"/>
</clipPath>
</defs>
</svg>
