<svg width="388" height="279" viewBox="0 0 388 279" fill="none" xmlns="http://www.w3.org/2000/svg">
<g filter="url(#filter0_d_2104_5661)">
<path d="M26 26C26 20.4771 30.4772 16 36 16H352C357.523 16 362 20.4772 362 26V233C362 238.523 357.523 243 352 243H36C30.4772 243 26 238.523 26 233V26Z" fill="url(#paint0_linear_2104_5661)" fill-opacity="0.6" shape-rendering="crispEdges"/>
<path d="M36 16.5H352C357.247 16.5 361.5 20.7533 361.5 26V233C361.5 238.247 357.247 242.5 352 242.5H36C30.7533 242.5 26.5 238.247 26.5 233V26C26.5 20.7533 30.7533 16.5 36 16.5Z" stroke="url(#paint1_linear_2104_5661)" shape-rendering="crispEdges"/>
<rect x="50" y="48" width="74" height="74" rx="37" stroke="#FFFF00" stroke-width="1.5"/>
<g clip-path="url(#clip0_2104_5661)">
<path d="M82.8074 89.2824C80.1521 90.0856 77.3047 89.9805 74.7159 88.9835C72.127 87.9865 69.9446 86.1546 68.5139 83.7777C67.0833 81.4009 66.4861 78.6148 66.8169 75.8604C67.1477 73.106 68.3876 70.5406 70.3404 68.5701C72.2931 66.5996 74.8473 65.3367 77.5986 64.981C80.3499 64.6254 83.1411 65.1975 85.5308 66.6067C87.9204 68.0159 89.7719 70.1816 90.7921 72.7614C91.8124 75.3412 91.9432 78.1875 91.1639 80.85" stroke="#FFFF00" stroke-width="1.5" stroke-linecap="round" stroke-linejoin="round"/>
<path d="M94.9473 80.6295C88.061 80.6295 82.4785 86.2119 82.4785 93.0982C82.4785 99.9845 88.061 105.567 94.9473 105.567C101.834 105.567 107.416 99.9845 107.416 93.0982C107.416 86.2119 101.834 80.6295 94.9473 80.6295Z" stroke="#FFFF00" stroke-width="1.5" stroke-linecap="round" stroke-linejoin="round"/>
<path d="M78.5234 77.2003H88.1456" stroke="#FFFF00" stroke-width="1.5" stroke-linecap="round" stroke-linejoin="round"/>
<path d="M70.0977 77.2003L72.1691 73.971H76.312L78.3834 77.2003L76.312 80.4298H72.1691L70.0977 77.2003Z" stroke="#FFFF00" stroke-width="1.5" stroke-linecap="round" stroke-linejoin="round"/>
<path d="M74.242 78.6842C74.9063 78.6842 75.4449 78.1404 75.4449 77.4695C75.4449 76.7986 74.9063 76.2548 74.242 76.2548C73.5776 76.2548 73.0391 76.7986 73.0391 77.4695C73.0391 78.1404 73.5776 78.6842 74.242 78.6842Z" stroke="#FFFF00" stroke-width="1.5006" stroke-linecap="round" stroke-linejoin="round"/>
<path d="M84.6445 79.8253H88.1445" stroke="#FFFF00" stroke-width="1.5" stroke-linecap="round" stroke-linejoin="round"/>
<path d="M100.415 96.1966C100.805 96.174 101.184 96.0369 101.522 95.7968C101.86 95.5567 102.147 95.2204 102.359 94.8158C102.571 94.4112 102.702 93.95 102.742 93.4703C102.781 92.9906 102.727 92.5064 102.584 92.0576C102.442 91.6088 102.215 91.2085 101.922 90.8897C101.63 90.571 101.28 90.343 100.902 90.2247C100.524 90.1065 100.129 90.1013 99.7489 90.2096C99.369 90.3179 99.0154 90.5366 98.7174 90.8475" stroke="#FFFF00" stroke-width="1.50063" stroke-linecap="round" stroke-linejoin="round"/>
<path d="M98.6895 90.814C98.4386 89.8885 98.0436 89.0741 97.54 88.4436C97.0363 87.8132 96.4397 87.3865 95.8035 87.2017C95.1674 87.017 94.5116 87.0799 93.8951 87.385C93.2785 87.6901 92.7203 88.2277 92.2706 88.9497" stroke="#FFFF00" stroke-width="1.50063" stroke-linecap="round" stroke-linejoin="round"/>
<path d="M92.2461 88.9401C91.4722 88.4951 90.5973 88.3964 89.7711 88.661C88.9449 88.9256 88.2188 89.537 87.7169 90.3905C87.215 91.244 86.9687 92.2867 87.02 93.34C87.0713 94.3934 87.417 95.392 87.9981 96.1649" stroke="#FFFF00" stroke-width="1.50063" stroke-linecap="round" stroke-linejoin="round"/>
<path d="M92.5789 96.2H88.0156" stroke="#FFFF00" stroke-width="1.50063" stroke-linecap="round" stroke-linejoin="round"/>
<path d="M100.62 96.2H96.5312" stroke="#FFFF00" stroke-width="1.50063" stroke-linecap="round" stroke-linejoin="round"/>
<path d="M94.3174 98.8669V90.866L92.9629 92.1994" stroke="#FFFF00" stroke-width="1.50063" stroke-linecap="round" stroke-linejoin="round"/>
<path d="M94.3184 90.866L95.6729 92.1994" stroke="#FFFF00" stroke-width="1.50063" stroke-linecap="round" stroke-linejoin="round"/>
</g>
<path d="M57.1388 201.276C55.6668 201.276 54.4018 200.931 53.3438 200.241C52.3011 199.536 51.5728 198.57 51.1588 197.343L52.5388 196.538C52.8301 197.535 53.3668 198.317 54.1488 198.884C54.9308 199.436 55.9351 199.712 57.1618 199.712C58.3578 199.712 59.2854 199.451 59.9448 198.93C60.6194 198.393 60.9568 197.688 60.9568 196.814C60.9568 195.971 60.6501 195.334 60.0368 194.905C59.4234 194.476 58.4114 194.031 57.0008 193.571C55.3294 193.019 54.2254 192.574 53.6888 192.237C52.4621 191.501 51.8488 190.435 51.8488 189.04C51.8488 187.675 52.3241 186.602 53.2748 185.82C54.2254 185.023 55.3984 184.624 56.7938 184.624C58.0511 184.624 59.1398 184.954 60.0598 185.613C60.9798 186.257 61.6621 187.085 62.1068 188.097L60.7498 188.856C60.0138 187.077 58.6951 186.188 56.7938 186.188C55.7971 186.188 54.9921 186.433 54.3788 186.924C53.7654 187.415 53.4588 188.097 53.4588 188.971C53.4588 189.768 53.7348 190.366 54.2868 190.765C54.8388 191.164 55.7511 191.57 57.0238 191.984C57.6064 192.183 58.0204 192.329 58.2658 192.421C58.5264 192.498 58.8944 192.636 59.3698 192.835C59.8604 193.019 60.2208 193.188 60.4508 193.341C60.6808 193.479 60.9568 193.678 61.2788 193.939C61.6161 194.184 61.8538 194.437 61.9918 194.698C62.1451 194.943 62.2754 195.25 62.3828 195.618C62.5054 195.971 62.5668 196.354 62.5668 196.768C62.5668 198.133 62.0684 199.229 61.0718 200.057C60.0751 200.87 58.7641 201.276 57.1388 201.276ZM70.6383 189.224C72.3403 189.224 73.7127 189.83 74.7553 191.041C75.8133 192.237 76.3423 193.655 76.3423 195.296C76.3423 195.465 76.327 195.702 76.2963 196.009H66.1993C66.3527 197.174 66.8433 198.102 67.6713 198.792C68.5147 199.467 69.5497 199.804 70.7763 199.804C71.6503 199.804 72.4017 199.628 73.0303 199.275C73.6743 198.907 74.1573 198.432 74.4793 197.849L75.8133 198.631C75.3073 199.444 74.6173 200.088 73.7433 200.563C72.8693 201.038 71.8727 201.276 70.7533 201.276C68.944 201.276 67.472 200.709 66.3373 199.574C65.2027 198.439 64.6353 196.998 64.6353 195.25C64.6353 193.533 65.195 192.099 66.3143 190.949C67.4337 189.799 68.875 189.224 70.6383 189.224ZM70.6383 190.696C69.4423 190.696 68.438 191.056 67.6253 191.777C66.828 192.482 66.3527 193.402 66.1993 194.537H74.7783C74.625 193.326 74.1573 192.383 73.3753 191.708C72.5933 191.033 71.681 190.696 70.6383 190.696ZM91.016 189.224C92.304 189.224 93.339 189.638 94.121 190.466C94.9183 191.294 95.317 192.413 95.317 193.824V201H93.799V193.824C93.799 192.827 93.5383 192.061 93.017 191.524C92.511 190.972 91.8363 190.696 90.993 190.696C90.0423 190.696 89.268 191.018 88.67 191.662C88.0873 192.291 87.796 193.28 87.796 194.629V201H86.278V193.824C86.278 192.812 86.0326 192.038 85.542 191.501C85.0666 190.964 84.415 190.696 83.587 190.696C82.667 190.696 81.885 191.018 81.241 191.662C80.597 192.306 80.275 193.295 80.275 194.629V201H78.757V189.5H80.275V191.179C81.103 189.876 82.276 189.224 83.794 189.224C85.45 189.224 86.6153 189.922 87.29 191.317C88.118 189.922 89.36 189.224 91.016 189.224ZM108.143 189.5H109.661V201H108.143V198.746C107.085 200.433 105.536 201.276 103.497 201.276C101.856 201.276 100.453 200.693 99.2881 199.528C98.1381 198.363 97.5631 196.937 97.5631 195.25C97.5631 193.563 98.1381 192.137 99.2881 190.972C100.453 189.807 101.856 189.224 103.497 189.224C105.536 189.224 107.085 190.067 108.143 191.754V189.5ZM100.392 198.493C101.266 199.367 102.339 199.804 103.612 199.804C104.885 199.804 105.958 199.367 106.832 198.493C107.706 197.604 108.143 196.523 108.143 195.25C108.143 193.977 107.706 192.904 106.832 192.03C105.958 191.141 104.885 190.696 103.612 190.696C102.339 190.696 101.266 191.141 100.392 192.03C99.5181 192.904 99.0811 193.977 99.0811 195.25C99.0811 196.523 99.5181 197.604 100.392 198.493ZM118.257 189.224C119.652 189.224 120.749 189.653 121.546 190.512C122.359 191.355 122.765 192.498 122.765 193.939V201H121.247V193.939C121.247 192.912 120.971 192.114 120.419 191.547C119.882 190.98 119.116 190.696 118.119 190.696C117.015 190.696 116.118 191.049 115.428 191.754C114.738 192.444 114.393 193.517 114.393 194.974V201H112.875V189.5H114.393V191.294C115.252 189.914 116.54 189.224 118.257 189.224ZM131.795 190.972H128.483V197.941C128.483 198.57 128.606 199.022 128.851 199.298C129.097 199.559 129.465 199.697 129.955 199.712C130.446 199.712 131.059 199.697 131.795 199.666V201C130.185 201.245 128.974 201.13 128.161 200.655C127.364 200.18 126.965 199.275 126.965 197.941V190.972H124.55V189.5H126.965V186.74L128.483 186.28V189.5H131.795V190.972ZM135.866 186.74C135.652 186.955 135.391 187.062 135.084 187.062C134.778 187.062 134.517 186.955 134.302 186.74C134.088 186.525 133.98 186.265 133.98 185.958C133.98 185.651 134.088 185.391 134.302 185.176C134.517 184.961 134.778 184.854 135.084 184.854C135.391 184.854 135.652 184.961 135.866 185.176C136.081 185.391 136.188 185.651 136.188 185.958C136.188 186.265 136.081 186.525 135.866 186.74ZM134.325 201V189.5H135.843V201H134.325ZM144.424 201.276C142.691 201.276 141.25 200.701 140.1 199.551C138.95 198.386 138.375 196.952 138.375 195.25C138.375 193.548 138.95 192.122 140.1 190.972C141.25 189.807 142.691 189.224 144.424 189.224C145.558 189.224 146.578 189.5 147.483 190.052C148.387 190.589 149.047 191.317 149.461 192.237L148.219 192.95C147.912 192.26 147.414 191.716 146.724 191.317C146.049 190.903 145.282 190.696 144.424 190.696C143.151 190.696 142.078 191.141 141.204 192.03C140.33 192.904 139.893 193.977 139.893 195.25C139.893 196.523 140.33 197.604 141.204 198.493C142.078 199.367 143.151 199.804 144.424 199.804C145.282 199.804 146.049 199.605 146.724 199.206C147.398 198.792 147.927 198.24 148.311 197.55L149.576 198.286C149.1 199.206 148.403 199.934 147.483 200.471C146.563 201.008 145.543 201.276 144.424 201.276ZM166.935 192.214V193.686H162.841V197.78H161.369V193.686H157.275V192.214H161.369V188.12H162.841V192.214H166.935ZM187.176 201H185.06L177.516 193.203V201H175.906V184.9H177.516V192.26L184.83 184.9H186.946L179.218 192.72L187.176 201ZM193.298 189.224C195 189.224 196.372 189.83 197.415 191.041C198.473 192.237 199.002 193.655 199.002 195.296C199.002 195.465 198.986 195.702 198.956 196.009H188.859C189.012 197.174 189.503 198.102 190.331 198.792C191.174 199.467 192.209 199.804 193.436 199.804C194.31 199.804 195.061 199.628 195.69 199.275C196.334 198.907 196.817 198.432 197.139 197.849L198.473 198.631C197.967 199.444 197.277 200.088 196.403 200.563C195.529 201.038 194.532 201.276 193.413 201.276C191.603 201.276 190.131 200.709 188.997 199.574C187.862 198.439 187.295 196.998 187.295 195.25C187.295 193.533 187.854 192.099 188.974 190.949C190.093 189.799 191.534 189.224 193.298 189.224ZM193.298 190.696C192.102 190.696 191.097 191.056 190.285 191.777C189.487 192.482 189.012 193.402 188.859 194.537H197.438C197.284 193.326 196.817 192.383 196.035 191.708C195.253 191.033 194.34 190.696 193.298 190.696ZM209.247 189.5H210.857L205.935 202.058C205.49 203.193 204.854 204.082 204.026 204.726C203.213 205.385 202.301 205.677 201.289 205.6V204.174C202.669 204.327 203.719 203.53 204.44 201.782L204.739 201.069L199.587 189.5H201.197L205.521 199.137L209.247 189.5ZM226.538 189.5H228.102L224.56 201H222.904L219.937 191.731L216.97 201H215.314L211.772 189.5H213.336L216.165 199.045L219.178 189.5H220.696L223.709 199.045L226.538 189.5ZM239.579 199.551C238.413 200.701 236.987 201.276 235.301 201.276C233.614 201.276 232.18 200.701 231 199.551C229.834 198.386 229.252 196.952 229.252 195.25C229.252 193.548 229.834 192.122 231 190.972C232.18 189.807 233.614 189.224 235.301 189.224C236.987 189.224 238.413 189.807 239.579 190.972C240.759 192.122 241.35 193.548 241.35 195.25C241.35 196.952 240.759 198.386 239.579 199.551ZM232.081 198.493C232.955 199.367 234.028 199.804 235.301 199.804C236.573 199.804 237.647 199.367 238.521 198.493C239.395 197.604 239.832 196.523 239.832 195.25C239.832 193.977 239.395 192.904 238.521 192.03C237.647 191.141 236.573 190.696 235.301 190.696C234.028 190.696 232.955 191.141 232.081 192.03C231.207 192.904 230.77 193.977 230.77 195.25C230.77 196.523 231.207 197.604 232.081 198.493ZM245.408 191.409C246.113 190.014 247.324 189.316 249.042 189.316V190.788C247.999 190.788 247.133 191.095 246.443 191.708C245.753 192.321 245.408 193.287 245.408 194.606V201H243.89V189.5H245.408V191.409ZM260.316 184.9H261.834V201H260.316V198.746C259.258 200.433 257.709 201.276 255.67 201.276C254.029 201.276 252.626 200.693 251.461 199.528C250.311 198.363 249.736 196.937 249.736 195.25C249.736 193.563 250.311 192.137 251.461 190.972C252.626 189.807 254.029 189.224 255.67 189.224C257.709 189.224 259.258 190.067 260.316 191.754V184.9ZM252.565 198.493C253.439 199.367 254.512 199.804 255.785 199.804C257.058 199.804 258.131 199.367 259.005 198.493C259.879 197.604 260.316 196.523 260.316 195.25C260.316 193.977 259.879 192.904 259.005 192.03C258.131 191.141 257.058 190.696 255.785 190.696C254.512 190.696 253.439 191.141 252.565 192.03C251.691 192.904 251.254 193.977 251.254 195.25C251.254 196.523 251.691 197.604 252.565 198.493ZM281.378 184.9H282.988V201H281.378V193.479H272.638V201H271.028V184.9H272.638V191.961H281.378V184.9ZM294.711 189.5H296.321L291.399 202.058C290.954 203.193 290.318 204.082 289.49 204.726C288.677 205.385 287.765 205.677 286.753 205.6V204.174C288.133 204.327 289.183 203.53 289.904 201.782L290.203 201.069L285.051 189.5H286.661L290.985 199.137L294.711 189.5ZM304.319 189.224C305.96 189.224 307.355 189.807 308.505 190.972C309.671 192.137 310.253 193.563 310.253 195.25C310.253 196.937 309.671 198.363 308.505 199.528C307.355 200.693 305.96 201.276 304.319 201.276C302.28 201.276 300.731 200.433 299.673 198.746V201H298.155V184.9H299.673V191.754C300.731 190.067 302.28 189.224 304.319 189.224ZM300.984 198.493C301.858 199.367 302.932 199.804 304.204 199.804C305.477 199.804 306.55 199.367 307.424 198.493C308.298 197.604 308.735 196.523 308.735 195.25C308.735 193.977 308.298 192.904 307.424 192.03C306.55 191.141 305.477 190.696 304.204 190.696C302.932 190.696 301.858 191.141 300.984 192.03C300.11 192.904 299.673 193.977 299.673 195.25C299.673 196.523 300.11 197.604 300.984 198.493ZM314.295 191.409C315.001 190.014 316.212 189.316 317.929 189.316V190.788C316.887 190.788 316.02 191.095 315.33 191.708C314.64 192.321 314.295 193.287 314.295 194.606V201H312.777V189.5H314.295V191.409ZM321.551 186.74C321.336 186.955 321.076 187.062 320.769 187.062C320.462 187.062 320.202 186.955 319.987 186.74C319.772 186.525 319.665 186.265 319.665 185.958C319.665 185.651 319.772 185.391 319.987 185.176C320.202 184.961 320.462 184.854 320.769 184.854C321.076 184.854 321.336 184.961 321.551 185.176C321.766 185.391 321.873 185.651 321.873 185.958C321.873 186.265 321.766 186.525 321.551 186.74ZM320.01 201V189.5H321.528V201H320.01ZM334.639 184.9H336.157V201H334.639V198.746C333.581 200.433 332.032 201.276 329.993 201.276C328.352 201.276 326.949 200.693 325.784 199.528C324.634 198.363 324.059 196.937 324.059 195.25C324.059 193.563 324.634 192.137 325.784 190.972C326.949 189.807 328.352 189.224 329.993 189.224C332.032 189.224 333.581 190.067 334.639 191.754V184.9ZM326.888 198.493C327.762 199.367 328.835 199.804 330.108 199.804C331.381 199.804 332.454 199.367 333.328 198.493C334.202 197.604 334.639 196.523 334.639 195.25C334.639 193.977 334.202 192.904 333.328 192.03C332.454 191.141 331.381 190.696 330.108 190.696C328.835 190.696 327.762 191.141 326.888 192.03C326.014 192.904 325.577 193.977 325.577 195.25C325.577 196.523 326.014 197.604 326.888 198.493Z" fill="white"/>
</g>
<defs>
<filter id="filter0_d_2104_5661" x="0" y="0" width="388" height="279" filterUnits="userSpaceOnUse" color-interpolation-filters="sRGB">
<feFlood flood-opacity="0" result="BackgroundImageFix"/>
<feColorMatrix in="SourceAlpha" type="matrix" values="0 0 0 0 0 0 0 0 0 0 0 0 0 0 0 0 0 0 127 0" result="hardAlpha"/>
<feOffset dy="10"/>
<feGaussianBlur stdDeviation="13"/>
<feComposite in2="hardAlpha" operator="out"/>
<feColorMatrix type="matrix" values="0 0 0 0 0 0 0 0 0 0 0 0 0 0 0 0 0 0 0.2 0"/>
<feBlend mode="normal" in2="BackgroundImageFix" result="effect1_dropShadow_2104_5661"/>
<feBlend mode="normal" in="SourceGraphic" in2="effect1_dropShadow_2104_5661" result="shape"/>
</filter>
<linearGradient id="paint0_linear_2104_5661" x1="362" y1="227.629" x2="3.56335" y2="169.341" gradientUnits="userSpaceOnUse">
<stop offset="0.254808" stop-color="#464646"/>
<stop offset="1" stop-color="#43430D"/>
</linearGradient>
<linearGradient id="paint1_linear_2104_5661" x1="122.104" y1="16" x2="317.048" y2="183.448" gradientUnits="userSpaceOnUse">
<stop stop-color="#9F9F00"/>
<stop offset="0.509615" stop-color="#4D4D00"/>
</linearGradient>
<clipPath id="clip0_2104_5661">
<rect width="42" height="42" fill="white" transform="translate(66 64)"/>
</clipPath>
</defs>
</svg>
