<svg width="416" height="73" viewBox="0 0 416 73" fill="none" xmlns="http://www.w3.org/2000/svg">
<path d="M10 0.850342L406 0.850342C411.247 0.850342 415.5 5.10364 415.5 10.3503V62.3503C415.5 67.597 411.247 71.8503 406 71.8503L10 71.8503C4.7533 71.8503 0.5 67.5971 0.5 62.3503L0.5 10.3503C0.5 5.10364 4.7533 0.850342 10 0.850342Z" fill="url(#paint0_linear_1992_7414)" fill-opacity="0.5"/>
<path d="M10 0.850342L406 0.850342C411.247 0.850342 415.5 5.10364 415.5 10.3503V62.3503C415.5 67.597 411.247 71.8503 406 71.8503L10 71.8503C4.7533 71.8503 0.5 67.5971 0.5 62.3503L0.5 10.3503C0.5 5.10364 4.7533 0.850342 10 0.850342Z" stroke="url(#paint1_linear_1992_7414)"/>
<path d="M35.45 40.8323H42.81V42.3503H33.84V26.2503H35.45V40.8323ZM49.6144 30.5743C51.3164 30.5743 52.6887 31.18 53.7314 32.3913C54.7894 33.5873 55.3184 35.0057 55.3184 36.6463C55.3184 36.815 55.3031 37.0527 55.2724 37.3593H45.1754C45.3287 38.5247 45.8194 39.4523 46.6474 40.1423C47.4907 40.817 48.5257 41.1543 49.7524 41.1543C50.6264 41.1543 51.3777 40.978 52.0064 40.6253C52.6504 40.2573 53.1334 39.782 53.4554 39.1993L54.7894 39.9813C54.2834 40.794 53.5934 41.438 52.7194 41.9133C51.8454 42.3887 50.8487 42.6263 49.7294 42.6263C47.9201 42.6263 46.4481 42.059 45.3134 40.9243C44.1787 39.7897 43.6114 38.3483 43.6114 36.6003C43.6114 34.883 44.1711 33.4493 45.2904 32.2993C46.4097 31.1493 47.8511 30.5743 49.6144 30.5743ZM49.6144 32.0463C48.4184 32.0463 47.4141 32.4067 46.6014 33.1273C45.8041 33.8327 45.3287 34.7527 45.1754 35.8873H53.7544C53.6011 34.676 53.1334 33.733 52.3514 33.0583C51.5694 32.3837 50.6571 32.0463 49.6144 32.0463ZM67.623 30.8503H69.141V41.8903C69.141 43.5463 68.5737 44.8497 67.439 45.8003C66.3044 46.751 64.9474 47.2263 63.368 47.2263C60.6694 47.2263 58.8524 46.291 57.917 44.4203L59.251 43.6613C59.941 45.0567 61.3134 45.7543 63.368 45.7543C64.6867 45.7543 65.7217 45.4017 66.473 44.6963C67.2397 44.0063 67.623 43.071 67.623 41.8903V40.0963C66.565 41.783 65.0164 42.6263 62.977 42.6263C61.3364 42.6263 59.9334 42.0437 58.768 40.8783C57.618 39.713 57.043 38.287 57.043 36.6003C57.043 34.9137 57.618 33.4877 58.768 32.3223C59.9334 31.157 61.3364 30.5743 62.977 30.5743C65.0164 30.5743 66.565 31.4177 67.623 33.1043V30.8503ZM59.872 39.8433C60.746 40.7173 61.8194 41.1543 63.092 41.1543C64.3647 41.1543 65.438 40.7173 66.312 39.8433C67.186 38.954 67.623 37.873 67.623 36.6003C67.623 35.3277 67.186 34.2543 66.312 33.3803C65.438 32.491 64.3647 32.0463 63.092 32.0463C61.8194 32.0463 60.746 32.491 59.872 33.3803C58.998 34.2543 58.561 35.3277 58.561 36.6003C58.561 37.873 58.998 38.954 59.872 39.8433ZM82.2451 30.8503H83.7631V42.3503H82.2451V40.0963C81.1871 41.783 79.6385 42.6263 77.5991 42.6263C75.9585 42.6263 74.5555 42.0437 73.3901 40.8783C72.2401 39.713 71.6651 38.287 71.6651 36.6003C71.6651 34.9137 72.2401 33.4877 73.3901 32.3223C74.5555 31.157 75.9585 30.5743 77.5991 30.5743C79.6385 30.5743 81.1871 31.4177 82.2451 33.1043V30.8503ZM74.4941 39.8433C75.3681 40.7173 76.4415 41.1543 77.7141 41.1543C78.9868 41.1543 80.0601 40.7173 80.9341 39.8433C81.8081 38.954 82.2451 37.873 82.2451 36.6003C82.2451 35.3277 81.8081 34.2543 80.9341 33.3803C80.0601 32.491 78.9868 32.0463 77.7141 32.0463C76.4415 32.0463 75.3681 32.491 74.4941 33.3803C73.6201 34.2543 73.1831 35.3277 73.1831 36.6003C73.1831 37.873 73.6201 38.954 74.4941 39.8433ZM86.9772 42.3503V25.5603H88.4952V42.3503H86.9772ZM110.392 41.8213L108.966 42.6263L107.264 40.8093C106.053 42.0207 104.474 42.6263 102.526 42.6263C100.947 42.6263 99.6668 42.22 98.6854 41.4073C97.7194 40.5793 97.2364 39.4677 97.2364 38.0723C97.2364 37.0603 97.4971 36.148 98.0184 35.3353C98.5398 34.5227 99.3141 33.8787 100.341 33.4033C99.5441 32.4987 99.1454 31.4867 99.1454 30.3673C99.1454 29.0333 99.6054 27.9677 100.525 27.1703C101.445 26.373 102.519 25.9743 103.745 25.9743C104.773 25.9743 105.708 26.2657 106.551 26.8483C107.41 27.4157 108.023 28.19 108.391 29.1713L107.034 29.9533C106.804 29.202 106.39 28.6117 105.792 28.1823C105.21 27.753 104.535 27.5383 103.768 27.5383C102.94 27.5383 102.227 27.7913 101.629 28.2973C101.047 28.8033 100.755 29.4627 100.755 30.2753C100.755 30.812 100.878 31.295 101.123 31.7243C101.384 32.1537 101.76 32.629 102.25 33.1503L107.103 38.3253C107.548 37.4513 107.839 36.4317 107.977 35.2663L109.403 36.0943C109.204 37.4283 108.813 38.5707 108.23 39.5213L110.392 41.8213ZM102.48 41.0623C104.014 41.0623 105.24 40.587 106.16 39.6363L101.422 34.5993C100.518 34.9367 99.8584 35.4197 99.4444 36.0483C99.0458 36.6617 98.8464 37.321 98.8464 38.0263C98.8464 38.9617 99.1684 39.7053 99.8124 40.2573C100.472 40.794 101.361 41.0623 102.48 41.0623ZM123.692 42.6263C121.959 42.6263 120.518 42.0513 119.368 40.9013C118.218 39.736 117.643 38.3023 117.643 36.6003C117.643 34.8983 118.218 33.4723 119.368 32.3223C120.518 31.157 121.959 30.5743 123.692 30.5743C124.826 30.5743 125.846 30.8503 126.751 31.4023C127.655 31.939 128.315 32.6673 128.729 33.5873L127.487 34.3003C127.18 33.6103 126.682 33.066 125.992 32.6673C125.317 32.2533 124.55 32.0463 123.692 32.0463C122.419 32.0463 121.346 32.491 120.472 33.3803C119.598 34.2543 119.161 35.3277 119.161 36.6003C119.161 37.873 119.598 38.954 120.472 39.8433C121.346 40.7173 122.419 41.1543 123.692 41.1543C124.55 41.1543 125.317 40.955 125.992 40.5563C126.666 40.1423 127.195 39.5903 127.579 38.9003L128.844 39.6363C128.368 40.5563 127.671 41.2847 126.751 41.8213C125.831 42.358 124.811 42.6263 123.692 42.6263ZM140.548 40.9013C139.382 42.0513 137.956 42.6263 136.27 42.6263C134.583 42.6263 133.149 42.0513 131.969 40.9013C130.803 39.736 130.221 38.3023 130.221 36.6003C130.221 34.8983 130.803 33.4723 131.969 32.3223C133.149 31.157 134.583 30.5743 136.27 30.5743C137.956 30.5743 139.382 31.157 140.548 32.3223C141.728 33.4723 142.319 34.8983 142.319 36.6003C142.319 38.3023 141.728 39.736 140.548 40.9013ZM133.05 39.8433C133.924 40.7173 134.997 41.1543 136.27 41.1543C137.542 41.1543 138.616 40.7173 139.49 39.8433C140.364 38.954 140.801 37.873 140.801 36.6003C140.801 35.3277 140.364 34.2543 139.49 33.3803C138.616 32.491 137.542 32.0463 136.27 32.0463C134.997 32.0463 133.924 32.491 133.05 33.3803C132.176 34.2543 131.739 35.3277 131.739 36.6003C131.739 37.873 132.176 38.954 133.05 39.8433ZM157.118 30.5743C158.406 30.5743 159.441 30.9883 160.223 31.8163C161.02 32.6443 161.419 33.7637 161.419 35.1743V42.3503H159.901V35.1743C159.901 34.1777 159.64 33.411 159.119 32.8743C158.613 32.3223 157.938 32.0463 157.095 32.0463C156.144 32.0463 155.37 32.3683 154.772 33.0123C154.189 33.641 153.898 34.63 153.898 35.9793V42.3503H152.38V35.1743C152.38 34.1623 152.135 33.388 151.644 32.8513C151.169 32.3147 150.517 32.0463 149.689 32.0463C148.769 32.0463 147.987 32.3683 147.343 33.0123C146.699 33.6563 146.377 34.6453 146.377 35.9793V42.3503H144.859V30.8503H146.377V32.5293C147.205 31.226 148.378 30.5743 149.896 30.5743C151.552 30.5743 152.717 31.272 153.392 32.6673C154.22 31.272 155.462 30.5743 157.118 30.5743ZM170.519 30.5743C172.16 30.5743 173.555 31.157 174.705 32.3223C175.87 33.4877 176.453 34.9137 176.453 36.6003C176.453 38.287 175.87 39.713 174.705 40.8783C173.555 42.0437 172.16 42.6263 170.519 42.6263C168.48 42.6263 166.931 41.783 165.873 40.0963V46.9503H164.355V30.8503H165.873V33.1043C166.931 31.4177 168.48 30.5743 170.519 30.5743ZM167.184 39.8433C168.058 40.7173 169.131 41.1543 170.404 41.1543C171.677 41.1543 172.75 40.7173 173.624 39.8433C174.498 38.954 174.935 37.873 174.935 36.6003C174.935 35.3277 174.498 34.2543 173.624 33.3803C172.75 32.491 171.677 32.0463 170.404 32.0463C169.131 32.0463 168.058 32.491 167.184 33.3803C166.31 34.2543 165.873 35.3277 165.873 36.6003C165.873 37.873 166.31 38.954 167.184 39.8433ZM178.977 42.3503V25.5603H180.495V42.3503H178.977ZM185.257 28.0903C185.043 28.305 184.782 28.4123 184.475 28.4123C184.169 28.4123 183.908 28.305 183.693 28.0903C183.479 27.8757 183.371 27.615 183.371 27.3083C183.371 27.0017 183.479 26.741 183.693 26.5263C183.908 26.3117 184.169 26.2043 184.475 26.2043C184.782 26.2043 185.043 26.3117 185.257 26.5263C185.472 26.741 185.579 27.0017 185.579 27.3083C185.579 27.615 185.472 27.8757 185.257 28.0903ZM183.716 42.3503V30.8503H185.234V42.3503H183.716ZM198.346 30.8503H199.864V42.3503H198.346V40.0963C197.288 41.783 195.739 42.6263 193.7 42.6263C192.059 42.6263 190.656 42.0437 189.491 40.8783C188.341 39.713 187.766 38.287 187.766 36.6003C187.766 34.9137 188.341 33.4877 189.491 32.3223C190.656 31.157 192.059 30.5743 193.7 30.5743C195.739 30.5743 197.288 31.4177 198.346 33.1043V30.8503ZM190.595 39.8433C191.469 40.7173 192.542 41.1543 193.815 41.1543C195.087 41.1543 196.161 40.7173 197.035 39.8433C197.909 38.954 198.346 37.873 198.346 36.6003C198.346 35.3277 197.909 34.2543 197.035 33.3803C196.161 32.491 195.087 32.0463 193.815 32.0463C192.542 32.0463 191.469 32.491 190.595 33.3803C189.721 34.2543 189.284 35.3277 189.284 36.6003C189.284 37.873 189.721 38.954 190.595 39.8433ZM208.46 30.5743C209.855 30.5743 210.951 31.0037 211.749 31.8623C212.561 32.7057 212.968 33.848 212.968 35.2893V42.3503H211.45V35.2893C211.45 34.262 211.174 33.4647 210.622 32.8973C210.085 32.33 209.318 32.0463 208.322 32.0463C207.218 32.0463 206.321 32.399 205.631 33.1043C204.941 33.7943 204.596 34.8677 204.596 36.3243V42.3503H203.078V30.8503H204.596V32.6443C205.454 31.2643 206.742 30.5743 208.46 30.5743ZM221.262 42.6263C219.529 42.6263 218.088 42.0513 216.938 40.9013C215.788 39.736 215.213 38.3023 215.213 36.6003C215.213 34.8983 215.788 33.4723 216.938 32.3223C218.088 31.157 219.529 30.5743 221.262 30.5743C222.397 30.5743 223.416 30.8503 224.321 31.4023C225.226 31.939 225.885 32.6673 226.299 33.5873L225.057 34.3003C224.75 33.6103 224.252 33.066 223.562 32.6673C222.887 32.2533 222.121 32.0463 221.262 32.0463C219.989 32.0463 218.916 32.491 218.042 33.3803C217.168 34.2543 216.731 35.3277 216.731 36.6003C216.731 37.873 217.168 38.954 218.042 39.8433C218.916 40.7173 219.989 41.1543 221.262 41.1543C222.121 41.1543 222.887 40.955 223.562 40.5563C224.237 40.1423 224.766 39.5903 225.149 38.9003L226.414 39.6363C225.939 40.5563 225.241 41.2847 224.321 41.8213C223.401 42.358 222.381 42.6263 221.262 42.6263ZM233.794 30.5743C235.496 30.5743 236.868 31.18 237.911 32.3913C238.969 33.5873 239.498 35.0057 239.498 36.6463C239.498 36.815 239.483 37.0527 239.452 37.3593H229.355C229.508 38.5247 229.999 39.4523 230.827 40.1423C231.67 40.817 232.705 41.1543 233.932 41.1543C234.806 41.1543 235.557 40.978 236.186 40.6253C236.83 40.2573 237.313 39.782 237.635 39.1993L238.969 39.9813C238.463 40.794 237.773 41.438 236.899 41.9133C236.025 42.3887 235.028 42.6263 233.909 42.6263C232.1 42.6263 230.628 42.059 229.493 40.9243C228.358 39.7897 227.791 38.3483 227.791 36.6003C227.791 34.883 228.351 33.4493 229.47 32.2993C230.589 31.1493 232.031 30.5743 233.794 30.5743ZM233.794 32.0463C232.598 32.0463 231.594 32.4067 230.781 33.1273C229.984 33.8327 229.508 34.7527 229.355 35.8873H237.934C237.781 34.676 237.313 33.733 236.531 33.0583C235.749 32.3837 234.837 32.0463 233.794 32.0463ZM257.553 26.2503H259.071V42.3503H257.553V40.0963C256.495 41.783 254.946 42.6263 252.907 42.6263C251.266 42.6263 249.863 42.0437 248.698 40.8783C247.548 39.713 246.973 38.287 246.973 36.6003C246.973 34.9137 247.548 33.4877 248.698 32.3223C249.863 31.157 251.266 30.5743 252.907 30.5743C254.946 30.5743 256.495 31.4177 257.553 33.1043V26.2503ZM249.802 39.8433C250.676 40.7173 251.749 41.1543 253.022 41.1543C254.294 41.1543 255.368 40.7173 256.242 39.8433C257.116 38.954 257.553 37.873 257.553 36.6003C257.553 35.3277 257.116 34.2543 256.242 33.3803C255.368 32.491 254.294 32.0463 253.022 32.0463C251.749 32.0463 250.676 32.491 249.802 33.3803C248.928 34.2543 248.491 35.3277 248.491 36.6003C248.491 37.873 248.928 38.954 249.802 39.8433ZM267.598 30.5743C269.3 30.5743 270.672 31.18 271.715 32.3913C272.773 33.5873 273.302 35.0057 273.302 36.6463C273.302 36.815 273.286 37.0527 273.256 37.3593H263.159C263.312 38.5247 263.803 39.4523 264.631 40.1423C265.474 40.817 266.509 41.1543 267.736 41.1543C268.61 41.1543 269.361 40.978 269.99 40.6253C270.634 40.2573 271.117 39.782 271.439 39.1993L272.773 39.9813C272.267 40.794 271.577 41.438 270.703 41.9133C269.829 42.3887 268.832 42.6263 267.713 42.6263C265.903 42.6263 264.431 42.059 263.297 40.9243C262.162 39.7897 261.595 38.3483 261.595 36.6003C261.595 34.883 262.154 33.4493 263.274 32.2993C264.393 31.1493 265.834 30.5743 267.598 30.5743ZM267.598 32.0463C266.402 32.0463 265.397 32.4067 264.585 33.1273C263.787 33.8327 263.312 34.7527 263.159 35.8873H271.738C271.584 34.676 271.117 33.733 270.335 33.0583C269.553 32.3837 268.64 32.0463 267.598 32.0463ZM281.88 30.5743C283.521 30.5743 284.916 31.157 286.066 32.3223C287.232 33.4877 287.814 34.9137 287.814 36.6003C287.814 38.287 287.232 39.713 286.066 40.8783C284.916 42.0437 283.521 42.6263 281.88 42.6263C279.841 42.6263 278.292 41.783 277.234 40.0963V46.9503H275.716V30.8503H277.234V33.1043C278.292 31.4177 279.841 30.5743 281.88 30.5743ZM278.545 39.8433C279.419 40.7173 280.493 41.1543 281.765 41.1543C283.038 41.1543 284.111 40.7173 284.985 39.8433C285.859 38.954 286.296 37.873 286.296 36.6003C286.296 35.3277 285.859 34.2543 284.985 33.3803C284.111 32.491 283.038 32.0463 281.765 32.0463C280.493 32.0463 279.419 32.491 278.545 33.3803C277.671 34.2543 277.234 35.3277 277.234 36.6003C277.234 37.873 277.671 38.954 278.545 39.8433ZM300.229 30.8503H301.747V42.3503H300.229V40.0963C299.171 41.783 297.622 42.6263 295.583 42.6263C293.942 42.6263 292.539 42.0437 291.374 40.8783C290.224 39.713 289.649 38.287 289.649 36.6003C289.649 34.9137 290.224 33.4877 291.374 32.3223C292.539 31.157 293.942 30.5743 295.583 30.5743C297.622 30.5743 299.171 31.4177 300.229 33.1043V30.8503ZM292.478 39.8433C293.352 40.7173 294.425 41.1543 295.698 41.1543C296.97 41.1543 298.044 40.7173 298.918 39.8433C299.792 38.954 300.229 37.873 300.229 36.6003C300.229 35.3277 299.792 34.2543 298.918 33.3803C298.044 32.491 296.97 32.0463 295.698 32.0463C294.425 32.0463 293.352 32.491 292.478 33.3803C291.604 34.2543 291.167 35.3277 291.167 36.6003C291.167 37.873 291.604 38.954 292.478 39.8433ZM306.479 32.7593C307.184 31.364 308.395 30.6663 310.113 30.6663V32.1383C309.07 32.1383 308.204 32.445 307.514 33.0583C306.824 33.6717 306.479 34.6377 306.479 35.9563V42.3503H304.961V30.8503H306.479V32.7593ZM318.513 32.3223H315.201V39.2913C315.201 39.92 315.323 40.3723 315.569 40.6483C315.814 40.909 316.182 41.047 316.673 41.0623C317.163 41.0623 317.777 41.047 318.513 41.0163V42.3503C316.903 42.5957 315.691 42.4807 314.879 42.0053C314.081 41.53 313.683 40.6253 313.683 39.2913V32.3223H311.268V30.8503H313.683V28.0903L315.201 27.6303V30.8503H318.513V32.3223ZM333.302 30.5743C334.59 30.5743 335.625 30.9883 336.407 31.8163C337.204 32.6443 337.603 33.7637 337.603 35.1743V42.3503H336.085V35.1743C336.085 34.1777 335.824 33.411 335.303 32.8743C334.797 32.3223 334.122 32.0463 333.279 32.0463C332.328 32.0463 331.554 32.3683 330.956 33.0123C330.373 33.641 330.082 34.63 330.082 35.9793V42.3503H328.564V35.1743C328.564 34.1623 328.318 33.388 327.828 32.8513C327.352 32.3147 326.701 32.0463 325.873 32.0463C324.953 32.0463 324.171 32.3683 323.527 33.0123C322.883 33.6563 322.561 34.6453 322.561 35.9793V42.3503H321.043V30.8503H322.561V32.5293C323.389 31.226 324.562 30.5743 326.08 30.5743C327.736 30.5743 328.901 31.272 329.576 32.6673C330.404 31.272 331.646 30.5743 333.302 30.5743ZM345.852 30.5743C347.554 30.5743 348.926 31.18 349.969 32.3913C351.027 33.5873 351.556 35.0057 351.556 36.6463C351.556 36.815 351.54 37.0527 351.51 37.3593H341.413C341.566 38.5247 342.057 39.4523 342.885 40.1423C343.728 40.817 344.763 41.1543 345.99 41.1543C346.864 41.1543 347.615 40.978 348.244 40.6253C348.888 40.2573 349.371 39.782 349.693 39.1993L351.027 39.9813C350.521 40.794 349.831 41.438 348.957 41.9133C348.083 42.3887 347.086 42.6263 345.967 42.6263C344.157 42.6263 342.685 42.059 341.551 40.9243C340.416 39.7897 339.849 38.3483 339.849 36.6003C339.849 34.883 340.408 33.4493 341.528 32.2993C342.647 31.1493 344.088 30.5743 345.852 30.5743ZM345.852 32.0463C344.656 32.0463 343.651 32.4067 342.839 33.1273C342.041 33.8327 341.566 34.7527 341.413 35.8873H349.992C349.838 34.676 349.371 33.733 348.589 33.0583C347.807 32.3837 346.894 32.0463 345.852 32.0463ZM359.352 30.5743C360.748 30.5743 361.844 31.0037 362.641 31.8623C363.454 32.7057 363.86 33.848 363.86 35.2893V42.3503H362.342V35.2893C362.342 34.262 362.066 33.4647 361.514 32.8973C360.978 32.33 360.211 32.0463 359.214 32.0463C358.11 32.0463 357.213 32.399 356.523 33.1043C355.833 33.7943 355.488 34.8677 355.488 36.3243V42.3503H353.97V30.8503H355.488V32.6443C356.347 31.2643 357.635 30.5743 359.352 30.5743ZM372.891 32.3223H369.579V39.2913C369.579 39.92 369.701 40.3723 369.947 40.6483C370.192 40.909 370.56 41.047 371.051 41.0623C371.541 41.0623 372.155 41.047 372.891 41.0163V42.3503C371.281 42.5957 370.069 42.4807 369.257 42.0053C368.459 41.53 368.061 40.6253 368.061 39.2913V32.3223H365.646V30.8503H368.061V28.0903L369.579 27.6303V30.8503H372.891V32.3223ZM375.92 33.8633C375.92 34.3847 376.15 34.7987 376.61 35.1053C377.07 35.412 377.63 35.6497 378.289 35.8183C378.949 35.987 379.608 36.1787 380.267 36.3933C380.927 36.5927 381.486 36.9377 381.946 37.4283C382.406 37.9037 382.636 38.5323 382.636 39.3143C382.636 40.2957 382.245 41.093 381.463 41.7063C380.697 42.3197 379.7 42.6263 378.473 42.6263C377.369 42.6263 376.426 42.381 375.644 41.8903C374.878 41.3997 374.341 40.7633 374.034 39.9813L375.322 39.2223C375.537 39.8203 375.92 40.2957 376.472 40.6483C377.04 40.9857 377.707 41.1543 378.473 41.1543C379.225 41.1543 379.853 41.0087 380.359 40.7173C380.865 40.4107 381.118 39.943 381.118 39.3143C381.118 38.793 380.888 38.379 380.428 38.0723C379.968 37.7657 379.409 37.528 378.749 37.3593C378.09 37.1907 377.431 37.0067 376.771 36.8073C376.112 36.5927 375.552 36.2477 375.092 35.7723C374.632 35.2817 374.402 34.6453 374.402 33.8633C374.402 32.928 374.77 32.146 375.506 31.5173C376.258 30.8887 377.201 30.5743 378.335 30.5743C379.271 30.5743 380.091 30.789 380.796 31.2183C381.502 31.6323 382.023 32.1997 382.36 32.9203L381.095 33.6563C380.651 32.583 379.731 32.0463 378.335 32.0463C377.676 32.0463 377.109 32.2073 376.633 32.5293C376.158 32.836 375.92 33.2807 375.92 33.8633Z" fill="white"/>
<defs>
<linearGradient id="paint0_linear_1992_7414" x1="416" y1="67.4751" x2="91.3147" y2="-138.628" gradientUnits="userSpaceOnUse">
<stop offset="0.254808" stop-color="#464646"/>
<stop offset="1" stop-color="#8C8C4C"/>
</linearGradient>
<linearGradient id="paint1_linear_1992_7414" x1="118.986" y1="0.350342" x2="153.249" y2="115.228" gradientUnits="userSpaceOnUse">
<stop stop-color="#9F9F00"/>
<stop offset="0.509615" stop-color="#4D4D00"/>
</linearGradient>
</defs>
</svg>
