<svg width="107" height="75" viewBox="0 0 107 75" fill="none" xmlns="http://www.w3.org/2000/svg">
<path d="M10 0.850586H393C398.247 0.850586 402.5 5.10388 402.5 10.3506V64.3506C402.5 69.5973 398.247 73.8506 393 73.8506H10C4.75329 73.8506 0.5 69.5973 0.5 64.3506V10.3506L0.512695 9.86133C0.767337 4.842 4.91739 0.850586 10 0.850586Z" fill="url(#paint0_linear_1997_3950)" fill-opacity="0.5"/>
<path d="M10 0.850586H393C398.247 0.850586 402.5 5.10388 402.5 10.3506V64.3506C402.5 69.5973 398.247 73.8506 393 73.8506H10C4.75329 73.8506 0.5 69.5973 0.5 64.3506V10.3506L0.512695 9.86133C0.767337 4.842 4.91739 0.850586 10 0.850586Z" stroke="url(#paint1_linear_1997_3950)"/>
<g clip-path="url(#clip0_1997_3950)">
<path d="M34.1 54.8504H34.8V56.9084C34.7991 57.1719 34.8706 57.4306 35.0068 57.6562C35.1429 57.8818 35.3385 58.0657 35.572 58.1877C35.8056 58.3097 36.0682 58.3652 36.3312 58.3481C36.5941 58.331 36.8473 58.2419 37.0631 58.0907L41.6922 54.8504H50.2C50.757 54.8504 51.2911 54.6291 51.6849 54.2353C52.0788 53.8415 52.3 53.3073 52.3 52.7504V48.5322C52.531 48.5434 52.7795 48.5511 53.0434 48.5511C53.2534 48.5511 53.4746 48.5462 53.7 48.5357V52.7504C53.7 53.3073 53.9212 53.8415 54.3151 54.2353C54.7089 54.6291 55.243 54.8504 55.8 54.8504H64.3078L68.9369 58.0907C69.1528 58.2417 69.4061 58.3306 69.6691 58.3475C69.9321 58.3644 70.1947 58.3088 70.4282 58.1866C70.6617 58.0645 70.8572 57.8806 70.9933 57.6549C71.1294 57.4292 71.2009 57.1705 71.2 56.907V54.8504H71.9C72.457 54.8504 72.9911 54.6291 73.3849 54.2353C73.7787 53.8415 74 53.3073 74 52.7504V40.1504C74 39.5934 73.7787 39.0593 73.3849 38.6654C72.9911 38.2716 72.457 38.0504 71.9 38.0504H65.7967C66.1269 37.3055 66.3893 36.5324 66.5807 35.7404L68.029 35.1601C68.3032 35.0547 68.5425 34.8749 68.7201 34.6409C68.8977 34.407 69.0065 34.1281 69.0342 33.8357C69.1214 32.9147 69.1214 31.9875 69.0342 31.0665C69.0075 30.7748 68.9 30.4963 68.7238 30.2624C68.5476 30.0284 68.3097 29.8482 68.0367 29.7421L66.58 29.1604C66.2432 27.7548 65.6869 26.4111 64.9315 25.1788L65.5433 23.741C65.6634 23.4706 65.7049 23.1718 65.6631 22.8789C65.6212 22.5859 65.4977 22.3107 65.3067 22.0848C64.7207 21.3861 64.0747 20.7401 63.3761 20.1542C63.1508 19.9598 62.8749 19.8334 62.5806 19.7898C62.2863 19.7462 61.9856 19.7871 61.7136 19.9078L60.273 20.5203C59.0404 19.7643 57.6962 19.2075 56.29 18.8704L55.7097 17.4207C55.6039 17.147 55.424 16.9081 55.1903 16.7307C54.9565 16.5533 54.6781 16.4444 54.386 16.4162C53.4653 16.3281 52.5382 16.3281 51.6175 16.4162C51.3258 16.4432 51.0473 16.5508 50.8132 16.727C50.5791 16.9031 50.3985 17.1409 50.2917 17.4137L49.71 18.8704C48.3039 19.207 46.9597 19.7634 45.727 20.5189L44.2892 19.9071C44.0188 19.7866 43.7199 19.745 43.4269 19.787C43.1339 19.829 42.8587 19.9529 42.633 20.1444C41.9346 20.7303 41.2886 21.376 40.7024 22.0743C40.5085 22.2998 40.3824 22.5757 40.3388 22.8699C40.2952 23.1641 40.3358 23.4647 40.456 23.7368L41.0685 25.1774C40.313 26.4101 39.7567 27.7543 39.42 29.1604L37.971 29.7414C37.697 29.8466 37.4578 30.0262 37.2802 30.2599C37.1027 30.4936 36.9938 30.7722 36.9658 31.0644C36.8784 31.9851 36.8784 32.9121 36.9658 33.8329C36.9924 34.1247 37.0998 34.4034 37.276 34.6376C37.4522 34.8718 37.6902 35.0522 37.9633 35.1587L39.4193 35.7418C39.6107 36.5338 39.8731 37.3069 40.2033 38.0518H34.1C33.543 38.0518 33.0089 38.273 32.6151 38.6668C32.2212 39.0607 32 39.5948 32 40.1518V52.7504C32 53.3073 32.2212 53.8415 32.6151 54.2353C33.0089 54.6291 33.543 54.8504 34.1 54.8504ZM44.9661 38.0504C43.8129 36.411 43.1959 34.4547 43.2 32.4504C43.2 29.8512 44.2325 27.3586 46.0704 25.5207C47.9082 23.6829 50.4009 22.6504 53 22.6504C55.5991 22.6504 58.0918 23.6829 59.9296 25.5207C61.7675 27.3586 62.8 29.8512 62.8 32.4504C62.8041 34.4547 62.1871 36.411 61.0339 38.0504H55.8C55.243 38.0504 54.7089 38.2716 54.3151 38.6654C53.9212 39.0593 53.7 39.5934 53.7 40.1504V42.2217C53.234 42.2567 52.766 42.2567 52.3 42.2217V40.1504C52.3 39.5934 52.0788 39.0593 51.6849 38.6654C51.2911 38.2716 50.757 38.0504 50.2 38.0504H44.9661ZM52.3 47.1287V43.6287C52.5352 43.6441 52.769 43.6532 53 43.6532C53.231 43.6532 53.4648 43.6441 53.7 43.6287V47.1357C53.2335 47.1567 52.7663 47.1544 52.3 47.1287ZM72.6 40.1504V52.7504C72.6 52.936 72.5262 53.1141 72.395 53.2453C72.2637 53.3766 72.0857 53.4504 71.9 53.4504H70.5C70.3143 53.4504 70.1363 53.5241 70.005 53.6554C69.8737 53.7867 69.8 53.9647 69.8 54.1504V56.9084L69.7391 56.9434L64.9301 53.5771C64.8125 53.4947 64.6725 53.4505 64.529 53.4504H55.8C55.6143 53.4504 55.4363 53.3766 55.305 53.2453C55.1737 53.1141 55.1 52.936 55.1 52.7504V40.1504C55.1 39.9647 55.1737 39.7867 55.305 39.6554C55.4363 39.5241 55.6143 39.4504 55.8 39.4504H71.9C72.0857 39.4504 72.2637 39.5241 72.395 39.6554C72.5262 39.7867 72.6 39.9647 72.6 40.1504ZM40.7073 35.0873C40.6839 34.9741 40.6329 34.8684 40.5588 34.7797C40.4846 34.691 40.3897 34.6221 40.2824 34.5791L38.4757 33.856C38.4437 33.8433 38.4158 33.822 38.3952 33.7944C38.3745 33.7669 38.3619 33.7341 38.3588 33.6999C38.28 32.8641 38.28 32.0227 38.3588 31.1869C38.3645 31.1538 38.379 31.1229 38.4008 31.0974C38.4226 31.0719 38.4509 31.0527 38.4827 31.042L40.281 30.321C40.3881 30.2783 40.4829 30.2098 40.557 30.1214C40.631 30.0331 40.6819 29.9278 40.7052 29.8149C41.021 28.3217 41.6101 26.8997 42.4426 25.6205C42.5046 25.5244 42.5422 25.4145 42.552 25.3005C42.5617 25.1866 42.5434 25.0719 42.4986 24.9667L41.7433 23.1859C41.7271 23.1537 41.7207 23.1175 41.7246 23.0817C41.7286 23.046 41.7429 23.0121 41.7657 22.9843C42.3078 22.3391 42.9048 21.7421 43.55 21.2C43.5778 21.1828 43.6097 21.1733 43.6424 21.1723C43.675 21.1713 43.7074 21.1789 43.7362 21.1944L45.5163 21.9504C45.6214 21.9957 45.7362 22.0143 45.8502 22.0046C45.9643 21.9948 46.0742 21.9569 46.1701 21.8944C47.4493 21.0618 48.8713 20.4728 50.3645 20.157C50.4774 20.1335 50.5827 20.0824 50.6711 20.0084C50.7595 19.9344 50.8283 19.8397 50.8713 19.7328L51.5944 17.9268C51.6071 17.8947 51.6284 17.8668 51.6559 17.846C51.6835 17.8253 51.7162 17.8125 51.7505 17.8092C52.5863 17.7307 53.4277 17.7307 54.2635 17.8092C54.2965 17.8149 54.3274 17.8295 54.3529 17.8513C54.3784 17.8731 54.3976 17.9013 54.4084 17.9331L55.1287 19.7314C55.1717 19.8383 55.2405 19.933 55.3289 20.007C55.4173 20.081 55.5226 20.1321 55.6355 20.1556C57.1288 20.4718 58.5508 21.0613 59.8299 21.8944C59.9259 21.9568 60.0357 21.9945 60.1498 22.0043C60.2638 22.014 60.3785 21.9955 60.4837 21.9504L62.2645 21.1937C62.2968 21.1779 62.3329 21.1716 62.3686 21.1755C62.4043 21.1795 62.4381 21.1936 62.4661 21.2161C63.1117 21.7577 63.7088 22.3547 64.2504 23.0004C64.2674 23.0283 64.2769 23.0601 64.2778 23.0927C64.2788 23.1254 64.2713 23.1577 64.256 23.1866L63.5 24.9667C63.4552 25.0719 63.4369 25.1866 63.4466 25.3005C63.4564 25.4145 63.494 25.5244 63.556 25.6205C64.3885 26.8997 64.9776 28.3217 65.2934 29.8149C65.3167 29.9278 65.3676 30.0331 65.4416 30.1214C65.5157 30.2098 65.6105 30.2783 65.7176 30.321L67.5243 31.0455C67.5563 31.058 67.5841 31.0792 67.6047 31.1066C67.6254 31.1341 67.638 31.1667 67.6412 31.2009C67.7204 32.0367 67.7204 32.8781 67.6412 33.7139C67.6357 33.747 67.6212 33.778 67.5994 33.8035C67.5775 33.8291 67.5492 33.8482 67.5173 33.8588L65.719 34.5791C65.6117 34.6221 65.5168 34.691 65.4426 34.7797C65.3685 34.8684 65.3175 34.9741 65.2941 35.0873C65.0744 36.1157 64.7231 37.1116 64.249 38.0504H62.6922C63.6828 36.3505 64.2032 34.4178 64.2 32.4504C64.2 29.4799 63.02 26.6312 60.9196 24.5308C58.8192 22.4304 55.9704 21.2504 53 21.2504C50.0296 21.2504 47.1808 22.4304 45.0804 24.5308C42.98 26.6312 41.8 29.4799 41.8 32.4504C41.7968 34.4178 42.3172 36.3505 43.3078 38.0504H41.751C41.2774 37.1116 40.9266 36.1157 40.7073 35.0873ZM33.4 40.1504C33.4 39.9647 33.4737 39.7867 33.605 39.6554C33.7363 39.5241 33.9143 39.4504 34.1 39.4504H50.2C50.3857 39.4504 50.5637 39.5241 50.695 39.6554C50.8263 39.7867 50.9 39.9647 50.9 40.1504V52.7504C50.9 52.936 50.8263 53.1141 50.695 53.2453C50.5637 53.3766 50.3857 53.4504 50.2 53.4504H41.471C41.3275 53.4505 41.1874 53.4947 41.0699 53.5771L36.2609 56.9434L36.662 57.5174L36.2 56.907V54.1504C36.2 53.9647 36.1262 53.7867 35.995 53.6554C35.8637 53.5241 35.6857 53.4504 35.5 53.4504H34.1C33.9143 53.4504 33.7363 53.3766 33.605 53.2453C33.4737 53.1141 33.4 52.936 33.4 52.7504V40.1504Z" fill="#FFFF00"/>
<path d="M39.0008 52.0506C39.1864 52.0506 39.3645 51.9768 39.4958 51.8456C39.627 51.7143 39.7008 51.5362 39.7008 51.3506V47.8506H43.9008V51.3506C43.9008 51.5362 43.9745 51.7143 44.1058 51.8456C44.2371 51.9768 44.4151 52.0506 44.6008 52.0506C44.7864 52.0506 44.9645 51.9768 45.0958 51.8456C45.227 51.7143 45.3008 51.5362 45.3008 51.3506V44.3506C45.3008 43.4223 44.932 42.5321 44.2757 41.8757C43.6193 41.2193 42.729 40.8506 41.8008 40.8506C40.8725 40.8506 39.9823 41.2193 39.3259 41.8757C38.6695 42.5321 38.3008 43.4223 38.3008 44.3506V51.3506C38.3008 51.5362 38.3745 51.7143 38.5058 51.8456C38.6371 51.9768 38.8151 52.0506 39.0008 52.0506ZM41.8008 42.2506C42.3577 42.2506 42.8919 42.4718 43.2857 42.8657C43.6795 43.2595 43.9008 43.7936 43.9008 44.3506V46.4506H39.7008V44.3506C39.7008 43.7936 39.922 43.2595 40.3159 42.8657C40.7097 42.4718 41.2438 42.2506 41.8008 42.2506Z" fill="#FFFF00"/>
<path d="M60.7 44.3506H61.4371C61.5421 46.1155 62.1788 47.8074 63.2634 49.2037C62.6373 49.8184 61.9146 50.3264 61.1242 50.7073C60.9761 50.7708 60.8544 50.8835 60.7798 51.0264C60.7051 51.1693 60.6821 51.3335 60.7145 51.4914C60.7469 51.6493 60.8328 51.7911 60.9577 51.893C61.0826 51.9949 61.2388 52.0505 61.4 52.0506C61.4949 52.051 61.5888 52.0317 61.6758 51.9939C62.6067 51.551 63.4592 50.9594 64.2 50.2425C64.9409 50.9589 65.7934 51.55 66.7242 51.9925C66.8111 52.0308 66.905 52.0506 67 52.0506C67.1612 52.0511 67.3177 51.996 67.443 51.8945C67.5683 51.793 67.6547 51.6514 67.6877 51.4935C67.7206 51.3356 67.698 51.1713 67.6237 51.0281C67.5494 50.885 67.428 50.7719 67.28 50.708C66.4891 50.3267 65.766 49.8186 65.1394 49.2037C66.2228 47.8069 66.8584 46.1152 66.9629 44.3506H67.7C67.8857 44.3506 68.0637 44.2768 68.195 44.1456C68.3263 44.0143 68.4 43.8362 68.4 43.6506C68.4 43.4649 68.3263 43.2869 68.195 43.1556C68.0637 43.0243 67.8857 42.9506 67.7 42.9506H64.9V41.5506C64.9 41.3649 64.8263 41.1869 64.695 41.0556C64.5637 40.9243 64.3857 40.8506 64.2 40.8506C64.0143 40.8506 63.8363 40.9243 63.705 41.0556C63.5737 41.1869 63.5 41.3649 63.5 41.5506V42.9506H60.7C60.5143 42.9506 60.3363 43.0243 60.205 43.1556C60.0737 43.2869 60 43.4649 60 43.6506C60 43.8362 60.0737 44.0143 60.205 44.1456C60.3363 44.2768 60.5143 44.3506 60.7 44.3506ZM64.2 48.1243C63.4086 47.015 62.9371 45.7096 62.8371 44.3506H65.5629C65.4629 45.7096 64.9914 47.015 64.2 48.1243Z" fill="#FFFF00"/>
</g>
<path d="M91.232 43.3506V32.2786H92.8L96.896 41.4306L100.992 32.2786H102.544V43.3506H101.088V35.0946L97.408 43.3506H96.384L92.688 35.0786V43.3506H91.232ZM112.789 34.5826V43.3506H111.333V42.0546C110.773 42.9666 109.701 43.4786 108.533 43.4786C106.517 43.4786 104.933 42.2306 104.933 39.7186V34.5826H106.373V39.5266C106.373 41.3026 107.349 42.2146 108.821 42.2146C110.325 42.2146 111.333 41.2866 111.333 39.3986V34.5826H112.789ZM115.248 43.3506V31.5106H116.704V43.3506H115.248ZM119.505 40.9506V35.7826H118.369V34.5826H119.505V32.3746H120.961V34.5826H123.249V35.7826H120.961V40.9506C120.961 41.8146 121.281 42.1186 122.177 42.1186H123.249V43.3506H121.937C120.385 43.3506 119.505 42.7106 119.505 40.9506ZM125.013 43.3506V34.5826H126.469V43.3506H125.013ZM125.765 33.1586C125.205 33.1586 124.773 32.7266 124.773 32.1666C124.773 31.6066 125.205 31.1746 125.765 31.1746C126.293 31.1746 126.725 31.6066 126.725 32.1666C126.725 32.7266 126.293 33.1586 125.765 33.1586ZM128.951 43.3506V31.5106H130.407V43.3506H128.951ZM132.888 43.3506V34.5826H134.344V43.3506H132.888ZM133.64 33.1586C133.08 33.1586 132.648 32.7266 132.648 32.1666C132.648 31.6066 133.08 31.1746 133.64 31.1746C134.168 31.1746 134.6 31.6066 134.6 32.1666C134.6 32.7266 134.168 33.1586 133.64 33.1586ZM143.242 43.3506V38.3906C143.242 36.5986 142.266 35.6866 140.794 35.6866C139.306 35.6866 138.282 36.6146 138.282 38.5026V43.3506H136.826V34.5826H138.282V35.8306C138.858 34.9186 139.914 34.4226 141.098 34.4226C143.13 34.4226 144.682 35.6706 144.682 38.1826V43.3506H143.242ZM146.516 38.9346C146.516 36.1986 148.324 34.4386 150.676 34.4386C152.276 34.4386 153.428 35.2386 153.94 36.1826V34.5826H155.412V43.5426C155.412 45.9586 153.796 47.6706 151.22 47.6706C148.916 47.6706 147.268 46.5026 146.98 44.6306H148.42C148.74 45.6866 149.78 46.4066 151.22 46.4066C152.772 46.4066 153.94 45.4146 153.94 43.5426V41.7026C153.412 42.6466 152.276 43.4946 150.676 43.4946C148.324 43.4946 146.516 41.6546 146.516 38.9346ZM153.94 38.9506C153.94 36.9186 152.564 35.7026 150.964 35.7026C149.364 35.7026 148.004 36.8706 148.004 38.9346C148.004 40.9986 149.364 42.2146 150.964 42.2146C152.564 42.2146 153.94 41.0146 153.94 38.9506ZM165.649 34.5826V43.3506H164.193V42.0546C163.633 42.9666 162.561 43.4786 161.393 43.4786C159.377 43.4786 157.793 42.2306 157.793 39.7186V34.5826H159.233V39.5266C159.233 41.3026 160.209 42.2146 161.681 42.2146C163.185 42.2146 164.193 41.2866 164.193 39.3986V34.5826H165.649ZM167.563 38.9346C167.563 36.1986 169.371 34.4386 171.723 34.4386C173.355 34.4386 174.475 35.2706 174.987 36.1826V34.5826H176.459V43.3506H174.987V41.7186C174.459 42.6626 173.323 43.4946 171.707 43.4946C169.371 43.4946 167.563 41.6546 167.563 38.9346ZM174.987 38.9506C174.987 36.9186 173.611 35.7026 172.011 35.7026C170.411 35.7026 169.051 36.8706 169.051 38.9346C169.051 40.9986 170.411 42.2146 172.011 42.2146C173.611 42.2146 174.987 41.0146 174.987 38.9506ZM178.919 43.3506V31.5106H180.375V43.3506H178.919ZM192.179 32.0706C194.531 32.0706 196.483 33.2866 197.315 35.4306H195.571C194.963 34.1346 193.747 33.3826 192.179 33.3826C189.827 33.3826 188.067 35.0786 188.067 37.7666C188.067 40.4386 189.827 42.1346 192.179 42.1346C194.371 42.1346 195.875 40.7266 196.099 38.5186H191.651V37.3346H197.651V38.4546C197.395 41.2226 195.203 43.4466 192.179 43.4466C189.043 43.4466 186.579 41.1106 186.579 37.7666C186.579 34.4226 189.043 32.0706 192.179 32.0706ZM207.896 38.9506C207.896 41.7346 205.896 43.4946 203.4 43.4946C200.92 43.4946 199.032 41.7346 199.032 38.9506C199.032 36.1826 200.984 34.4386 203.464 34.4386C205.96 34.4386 207.896 36.1826 207.896 38.9506ZM200.52 38.9506C200.52 41.1746 201.88 42.2146 203.4 42.2146C204.92 42.2146 206.408 41.1746 206.408 38.9506C206.408 36.7426 204.952 35.7026 203.448 35.7026C201.912 35.7026 200.52 36.7426 200.52 38.9506ZM208.77 34.5826H210.338L213.074 42.0066L215.794 34.5826H217.346L213.906 43.3506H212.21L208.77 34.5826ZM222.507 35.6706C221.083 35.6706 219.899 36.6146 219.739 38.3266H225.275C225.291 36.6146 224.011 35.6706 222.507 35.6706ZM226.603 40.6466C226.155 42.2466 224.747 43.4946 222.571 43.4946C220.075 43.4946 218.235 41.7346 218.235 38.9506C218.235 36.1826 220.011 34.4386 222.571 34.4386C225.115 34.4386 226.779 36.2306 226.779 38.6306C226.779 38.9506 226.763 39.2066 226.731 39.5106H219.723C219.835 41.2866 221.083 42.2626 222.571 42.2626C223.883 42.2626 224.715 41.5906 225.035 40.6466H226.603ZM230.157 38.5826V43.3506H228.701V34.5826H230.157V36.0066C230.653 35.0306 231.597 34.4226 232.989 34.4226V35.9266H232.605C231.213 35.9266 230.157 36.5506 230.157 38.5826ZM241.085 43.3506V38.3906C241.085 36.5986 240.109 35.6866 238.637 35.6866C237.149 35.6866 236.125 36.6146 236.125 38.5026V43.3506H234.669V34.5826H236.125V35.8306C236.701 34.9186 237.757 34.4226 238.941 34.4226C240.973 34.4226 242.525 35.6706 242.525 38.1826V43.3506H241.085ZM244.36 38.9346C244.36 36.1986 246.168 34.4386 248.52 34.4386C250.152 34.4386 251.272 35.2706 251.784 36.1826V34.5826H253.256V43.3506H251.784V41.7186C251.256 42.6626 250.12 43.4946 248.504 43.4946C246.168 43.4946 244.36 41.6546 244.36 38.9346ZM251.784 38.9506C251.784 36.9186 250.408 35.7026 248.808 35.7026C247.208 35.7026 245.848 36.8706 245.848 38.9346C245.848 40.9986 247.208 42.2146 248.808 42.2146C250.408 42.2146 251.784 41.0146 251.784 38.9506ZM262.132 43.3506V38.3906C262.132 36.5986 261.156 35.6866 259.684 35.6866C258.196 35.6866 257.172 36.6146 257.172 38.5026V43.3506H255.716V34.5826H257.172V35.8306C257.748 34.9186 258.804 34.4226 259.988 34.4226C262.02 34.4226 263.572 35.6706 263.572 38.1826V43.3506H262.132ZM265.407 38.9506C265.407 36.1986 267.183 34.4386 269.679 34.4386C271.855 34.4386 273.279 35.5586 273.727 37.3986H272.159C271.855 36.3426 270.975 35.6706 269.679 35.6706C268.079 35.6706 266.895 36.8066 266.895 38.9506C266.895 41.1266 268.079 42.2626 269.679 42.2626C270.975 42.2626 271.839 41.6386 272.159 40.5346H273.727C273.279 42.2786 271.855 43.4946 269.679 43.4946C267.183 43.4946 265.407 41.7346 265.407 38.9506ZM279.397 35.6706C277.973 35.6706 276.789 36.6146 276.629 38.3266H282.165C282.181 36.6146 280.901 35.6706 279.397 35.6706ZM283.493 40.6466C283.045 42.2466 281.637 43.4946 279.461 43.4946C276.965 43.4946 275.125 41.7346 275.125 38.9506C275.125 36.1826 276.901 34.4386 279.461 34.4386C282.005 34.4386 283.669 36.2306 283.669 38.6306C283.669 38.9506 283.653 39.2066 283.621 39.5106H276.613C276.725 41.2866 277.973 42.2626 279.461 42.2626C280.773 42.2626 281.605 41.5906 281.925 40.6466H283.493ZM296.993 43.3506V38.2946H291.313V43.3506H289.857V32.1986H291.313V37.0946H296.993V32.1986H298.449V43.3506H296.993ZM304.647 35.6706C303.223 35.6706 302.039 36.6146 301.879 38.3266H307.415C307.431 36.6146 306.151 35.6706 304.647 35.6706ZM308.743 40.6466C308.295 42.2466 306.887 43.4946 304.711 43.4946C302.215 43.4946 300.375 41.7346 300.375 38.9506C300.375 36.1826 302.151 34.4386 304.711 34.4386C307.255 34.4386 308.919 36.2306 308.919 38.6306C308.919 38.9506 308.903 39.2066 308.871 39.5106H301.863C301.975 41.2866 303.223 42.2626 304.711 42.2626C306.023 42.2626 306.855 41.5906 307.175 40.6466H308.743ZM310.841 43.3506V31.5106H312.297V43.3506H310.841ZM316.235 36.1986C316.763 35.2706 317.915 34.4386 319.515 34.4386C321.867 34.4386 323.675 36.1986 323.675 38.9346C323.675 41.6546 321.867 43.4946 319.515 43.4946C317.915 43.4946 316.779 42.6306 316.235 41.7346V47.5106H314.779V34.5826H316.235V36.1986ZM322.187 38.9346C322.187 36.8706 320.827 35.7026 319.211 35.7026C317.627 35.7026 316.235 36.9186 316.235 38.9506C316.235 41.0146 317.627 42.2146 319.211 42.2146C320.827 42.2146 322.187 40.9986 322.187 38.9346ZM325.047 38.9346C325.047 36.1986 326.855 34.4386 329.223 34.4386C330.599 34.4386 331.863 35.1426 332.471 36.1506V31.5106H333.943V43.3506H332.471V41.7026C331.943 42.6786 330.807 43.4946 329.207 43.4946C326.855 43.4946 325.047 41.6546 325.047 38.9346ZM332.471 38.9506C332.471 36.9186 331.095 35.7026 329.495 35.7026C327.895 35.7026 326.535 36.8706 326.535 38.9346C326.535 40.9986 327.895 42.2146 329.495 42.2146C331.095 42.2146 332.471 41.0146 332.471 38.9506ZM340.132 35.6706C338.708 35.6706 337.524 36.6146 337.364 38.3266H342.9C342.916 36.6146 341.636 35.6706 340.132 35.6706ZM344.228 40.6466C343.78 42.2466 342.372 43.4946 340.196 43.4946C337.7 43.4946 335.86 41.7346 335.86 38.9506C335.86 36.1826 337.636 34.4386 340.196 34.4386C342.74 34.4386 344.404 36.2306 344.404 38.6306C344.404 38.9506 344.388 39.2066 344.356 39.5106H337.348C337.46 41.2866 338.708 42.2626 340.196 42.2626C341.508 42.2626 342.34 41.5906 342.66 40.6466H344.228ZM352.63 40.9666C352.63 42.4066 351.366 43.4946 349.43 43.4946C347.382 43.4946 345.942 42.3746 345.846 40.7746H347.35C347.43 41.6226 348.182 42.2626 349.414 42.2626C350.566 42.2626 351.206 41.6866 351.206 40.9666C351.206 39.0146 346.022 40.1506 346.022 36.8866C346.022 35.5426 347.286 34.4386 349.238 34.4386C351.174 34.4386 352.454 35.4786 352.55 37.1906H351.094C351.03 36.3106 350.358 35.6706 349.19 35.6706C348.118 35.6706 347.478 36.1826 347.478 36.8866C347.478 38.9666 352.566 37.8306 352.63 40.9666ZM354.685 43.3506V31.5106H356.141V38.4706L359.517 34.5826H361.549L357.421 38.9506L361.565 43.3506H359.581L356.141 39.4786V43.3506H354.685ZM369.223 40.9666C369.223 42.4066 367.959 43.4946 366.023 43.4946C363.975 43.4946 362.535 42.3746 362.439 40.7746H363.943C364.023 41.6226 364.775 42.2626 366.007 42.2626C367.159 42.2626 367.799 41.6866 367.799 40.9666C367.799 39.0146 362.615 40.1506 362.615 36.8866C362.615 35.5426 363.879 34.4386 365.831 34.4386C367.767 34.4386 369.047 35.4786 369.143 37.1906H367.687C367.623 36.3106 366.951 35.6706 365.783 35.6706C364.711 35.6706 364.071 36.1826 364.071 36.8866C364.071 38.9666 369.159 37.8306 369.223 40.9666Z" fill="white"/>
<defs>
<linearGradient id="paint0_linear_1997_3950" x1="403" y1="69.3399" x2="78.0486" y2="-125.085" gradientUnits="userSpaceOnUse">
<stop offset="0.254808" stop-color="#464646"/>
<stop offset="1" stop-color="#8C8C4C"/>
</linearGradient>
<linearGradient id="paint1_linear_1997_3950" x1="115.268" y1="0.350586" x2="152.249" y2="117.221" gradientUnits="userSpaceOnUse">
<stop stop-color="#9F9F00"/>
<stop offset="0.509615" stop-color="#4D4D00"/>
</linearGradient>
<clipPath id="clip0_1997_3950">
<rect width="42" height="42" fill="white" transform="translate(32 16.3506)"/>
</clipPath>
</defs>
</svg>
