<svg width="371" height="285" viewBox="0 0 371 285" fill="none" xmlns="http://www.w3.org/2000/svg">
<g filter="url(#filter0_d_2094_13641)">
<path d="M26.5 26.3503C26.5 20.8275 30.9772 16.3503 36.5 16.3503H334.5C340.023 16.3503 344.5 20.8275 344.5 26.3503V238.35C344.5 243.873 340.023 248.35 334.5 248.35H36.5C30.9771 248.35 26.5 243.873 26.5 238.35V26.3503Z" fill="url(#paint0_linear_2094_13641)" fill-opacity="0.6" shape-rendering="crispEdges"/>
<path d="M36.5 16.8503H334.5C339.747 16.8503 344 21.1036 344 26.3503V238.35C344 243.597 339.747 247.85 334.5 247.85H36.5C31.2533 247.85 27 243.597 27 238.35V26.3503L27.0127 25.8611C27.2673 20.8418 31.4174 16.8503 36.5 16.8503Z" stroke="url(#paint1_linear_2094_13641)" shape-rendering="crispEdges"/>
<path d="M83.5191 70.0066H87.5911C87.7651 70.0066 87.9321 69.9375 88.0551 69.8144C88.1782 69.6914 88.2473 69.5244 88.2473 69.3504C88.2473 69.1763 88.1782 69.0094 88.0551 68.8864C87.9321 68.7633 87.7651 68.6941 87.5911 68.6941H83.5191C83.3548 65.7338 82.1049 62.9379 80.0084 60.8413C77.912 58.7448 75.1161 57.4948 72.1557 57.3305V53.2588C72.153 53.0865 72.0827 52.9222 71.9599 52.8013C71.8372 52.6804 71.6718 52.6127 71.4995 52.6127C71.3271 52.6127 71.1617 52.6804 71.039 52.8013C70.9162 52.9222 70.8459 53.0866 70.8432 53.2589V57.3305C67.8829 57.4948 65.087 58.7448 62.9905 60.8413C60.894 62.9379 59.6441 65.7338 59.4799 68.6941H55.4079C55.2356 68.6968 55.0712 68.7671 54.9504 68.8899C54.8295 69.0127 54.7617 69.1781 54.7617 69.3504C54.7617 69.5227 54.8295 69.6881 54.9504 69.8109C55.0713 69.9337 55.2356 70.004 55.4079 70.0066H59.4799C59.6441 72.967 60.894 75.7629 62.9905 77.8595C65.087 79.956 67.8829 81.206 70.8432 81.3703V85.4419C70.8459 85.6142 70.9162 85.7786 71.039 85.8995C71.1618 86.0203 71.3272 86.0881 71.4995 86.0881C71.6718 86.0881 71.8372 86.0203 71.96 85.8994C72.0827 85.7785 72.1531 85.6142 72.1557 85.4419V81.3703C75.1161 81.206 77.912 79.956 80.0084 77.8595C82.1049 75.7629 83.3548 72.967 83.5191 70.0066ZM60.7602 69.3707C60.7594 67.9574 61.0372 66.5578 61.5777 65.2519C62.1183 63.9461 62.9109 62.7595 63.9103 61.7602C64.9097 60.7609 66.0963 59.9684 67.4022 59.428C68.7081 58.8876 70.1078 58.6099 71.5211 58.6109C85.7471 59.2432 85.7429 79.4598 71.521 80.09C68.6736 80.0921 65.9416 78.9648 63.9243 76.9553C61.9069 74.9457 60.769 72.2181 60.7602 69.3707Z" fill="#FFFF00"/>
<path d="M71.4915 76.6672C77.4146 76.789 80.9936 69.627 77.3502 64.9578C74.6227 61.09 68.376 61.1007 65.65 64.9586C62.0236 69.6631 65.547 76.7427 71.4915 76.6672ZM67.0985 65.2736C67.6268 64.7016 68.2613 64.2378 68.9667 63.908C68.5647 64.6558 68.2725 65.4577 68.0991 66.2888C67.8208 66.0274 67.0212 65.6196 67.0985 65.2736ZM74.3344 64.0584C74.9537 64.3895 75.5085 64.8291 75.9723 65.3564C75.6533 65.7082 75.294 66.0211 74.9018 66.2888C74.7284 65.4576 74.4362 64.6558 74.0341 63.908C74.1373 63.9515 74.2354 64.0061 74.3344 64.0584ZM75.9025 73.427C75.3741 73.999 74.7396 74.4629 74.0342 74.7926C74.4362 74.0448 74.7284 73.243 74.9018 72.4118C75.1801 72.6732 75.9798 73.081 75.9025 73.427ZM69.0908 69.3503C69.0908 68.9793 69.1083 68.6207 69.1361 68.2721C70.6675 68.8035 72.3333 68.8036 73.8648 68.2722C73.8927 68.6209 73.9101 68.9793 73.9101 69.3503C73.9101 69.7219 73.8926 70.081 73.8647 70.4302C72.3321 69.9063 70.6689 69.9062 69.1362 70.4299C69.1083 70.0808 69.0908 69.7219 69.0908 69.3503ZM69.3136 66.9326C70.2698 62.2012 72.7317 62.203 73.6873 66.9328C72.2819 67.486 70.719 67.486 69.3136 66.9326ZM73.6873 71.768C72.7311 76.4995 70.2693 76.4976 69.3136 71.7678C70.719 71.2146 72.2819 71.2147 73.6873 71.768ZM68.9668 74.7927C68.2273 74.4495 67.5673 73.9562 67.0287 73.3443C67.3476 72.9925 67.7069 72.6795 68.0991 72.4119C68.2725 73.243 68.5647 74.0449 68.9668 74.7927ZM76.7486 72.2573C76.2701 71.7691 75.7256 71.3503 75.1309 71.0131C75.2519 69.9079 75.2519 68.7927 75.1309 67.6875C75.7255 67.3503 76.27 66.9316 76.7485 66.4435C77.2428 67.3326 77.5022 68.3331 77.5022 69.3504C77.5022 70.3676 77.2429 71.3681 76.7486 72.2573ZM66.2524 66.4435C66.7309 66.9316 67.2754 67.3504 67.87 67.6876C67.7491 68.7928 67.7491 69.908 67.87 71.0132C67.2754 71.3504 66.731 71.7691 66.2525 72.2572C65.7582 71.3681 65.4987 70.3676 65.4987 69.3503C65.4987 68.333 65.7581 67.3326 66.2524 66.4435Z" fill="#FFFF00"/>
<path d="M53.7812 62.4126C53.8674 62.4126 53.9528 62.3957 54.0324 62.3627C54.112 62.3297 54.1844 62.2814 54.2453 62.2204C54.3063 62.1595 54.3546 62.0872 54.3876 62.0075C54.4206 61.9279 54.4375 61.8425 54.4375 61.7564V52.2878H63.9063C64.0804 52.2878 64.2473 52.2187 64.3704 52.0956C64.4934 51.9726 64.5626 51.8056 64.5626 51.6316C64.5626 51.4575 64.4934 51.2906 64.3704 51.1676C64.2473 51.0445 64.0804 50.9753 63.9063 50.9753H53.7812C53.6951 50.9753 53.6097 50.9923 53.5301 51.0253C53.4505 51.0582 53.3781 51.1066 53.3172 51.1675C53.2562 51.2284 53.2079 51.3008 53.1749 51.3804C53.1419 51.4601 53.125 51.5454 53.125 51.6316V61.7564C53.125 61.8425 53.1419 61.9279 53.1749 62.0075C53.2079 62.0872 53.2562 62.1595 53.3172 62.2204C53.3781 62.2814 53.4505 62.3297 53.5301 62.3627C53.6097 62.3957 53.6951 62.4126 53.7812 62.4126Z" fill="#FFFF00"/>
<path d="M63.9063 86.4129H54.4375V76.9441C54.4349 76.7717 54.3647 76.6073 54.2419 76.4863C54.1191 76.3653 53.9536 76.2975 53.7812 76.2975C53.6089 76.2975 53.4434 76.3653 53.3206 76.4863C53.1978 76.6073 53.1276 76.7717 53.125 76.9441V87.0691C53.125 87.1553 53.1419 87.2407 53.1749 87.3203C53.2079 87.3999 53.2562 87.4723 53.3172 87.5332C53.3781 87.5942 53.4505 87.6425 53.5301 87.6755C53.6097 87.7085 53.6951 87.7254 53.7812 87.7254H63.9063C64.0782 87.722 64.2418 87.6514 64.3622 87.5287C64.4825 87.406 64.5499 87.241 64.5499 87.0691C64.5499 86.8973 64.4825 86.7323 64.3622 86.6096C64.2418 86.4869 64.0782 86.4162 63.9063 86.4129Z" fill="#FFFF00"/>
<path d="M89.2188 76.2877C89.1327 76.2877 89.0473 76.3047 88.9677 76.3376C88.888 76.3706 88.8157 76.4189 88.7548 76.4799C88.6938 76.5408 88.6455 76.6132 88.6125 76.6928C88.5795 76.7724 88.5626 76.8578 88.5626 76.944V86.4128H79.0937C78.9197 86.4128 78.7528 86.482 78.6297 86.605C78.5066 86.7281 78.4375 86.895 78.4375 87.0691C78.4375 87.2431 78.5066 87.41 78.6297 87.5331C78.7528 87.6562 78.9197 87.7253 79.0937 87.7253H89.2188C89.305 87.7253 89.3904 87.7084 89.47 87.6754C89.5496 87.6424 89.622 87.5941 89.6829 87.5332C89.7439 87.4722 89.7922 87.3999 89.8252 87.3202C89.8582 87.2406 89.8751 87.1552 89.8751 87.0691V76.944C89.8751 76.8578 89.8582 76.7724 89.8252 76.6928C89.7922 76.6132 89.7439 76.5408 89.6829 76.4799C89.622 76.4189 89.5496 76.3706 89.47 76.3376C89.3904 76.3047 89.305 76.2877 89.2188 76.2877Z" fill="#FFFF00"/>
<path d="M89.2179 50.9753H79.0928C78.9209 50.9787 78.7573 51.0493 78.6369 51.172C78.5166 51.2947 78.4492 51.4597 78.4492 51.6316C78.4492 51.8035 78.5166 51.9685 78.637 52.0912C78.7573 52.2139 78.921 52.2845 79.0928 52.2878H88.5616V61.7564C88.5616 61.9304 88.6308 62.0973 88.7538 62.2204C88.8769 62.3435 89.0438 62.4126 89.2179 62.4126C89.3919 62.4126 89.5588 62.3435 89.6819 62.2204C89.805 62.0973 89.8741 61.9304 89.8741 61.7564V51.6316C89.8741 51.5454 89.8572 51.4601 89.8242 51.3804C89.7912 51.3008 89.7429 51.2284 89.682 51.1675C89.621 51.1066 89.5487 51.0582 89.469 51.0253C89.3894 50.9923 89.3041 50.9753 89.2179 50.9753Z" fill="#FFFF00"/>
<path d="M51.732 189.35V178.198H53.188V189.35H51.732ZM62.0855 189.35V184.39C62.0855 182.598 61.1095 181.686 59.6375 181.686C58.1495 181.686 57.1255 182.614 57.1255 184.502V189.35H55.6695V180.582H57.1255V181.83C57.7015 180.918 58.7575 180.422 59.9415 180.422C61.9735 180.422 63.5255 181.67 63.5255 184.182V189.35H62.0855ZM72.2079 186.966C72.2079 188.406 70.9439 189.494 69.0079 189.494C66.9599 189.494 65.5199 188.374 65.4239 186.774H66.9279C67.0079 187.622 67.7599 188.262 68.9919 188.262C70.1439 188.262 70.7839 187.686 70.7839 186.966C70.7839 185.014 65.5999 186.15 65.5999 182.886C65.5999 181.542 66.8639 180.438 68.8159 180.438C70.7519 180.438 72.0319 181.478 72.1279 183.19H70.6719C70.6079 182.31 69.9359 181.67 68.7679 181.67C67.6959 181.67 67.0559 182.182 67.0559 182.886C67.0559 184.966 72.1439 183.83 72.2079 186.966ZM74.5833 186.95V181.782H73.4473V180.582H74.5833V178.374H76.0393V180.582H78.3273V181.782H76.0393V186.95C76.0393 187.814 76.3593 188.118 77.2552 188.118H78.3273V189.35H77.0153C75.4633 189.35 74.5833 188.71 74.5833 186.95ZM79.5474 184.934C79.5474 182.198 81.3554 180.438 83.7074 180.438C85.3394 180.438 86.4594 181.27 86.9714 182.182V180.582H88.4434V189.35H86.9714V187.718C86.4434 188.662 85.3074 189.494 83.6914 189.494C81.3554 189.494 79.5474 187.654 79.5474 184.934ZM86.9714 184.95C86.9714 182.918 85.5954 181.702 83.9954 181.702C82.3954 181.702 81.0354 182.87 81.0354 184.934C81.0354 186.998 82.3954 188.214 83.9954 188.214C85.5954 188.214 86.9714 187.014 86.9714 184.95ZM97.3199 189.35V184.39C97.3199 182.598 96.3439 181.686 94.8719 181.686C93.3839 181.686 92.3599 182.614 92.3599 184.502V189.35H90.9039V180.582H92.3599V181.83C92.9359 180.918 93.9919 180.422 95.1759 180.422C97.2079 180.422 98.7599 181.67 98.7599 184.182V189.35H97.3199ZM101.458 186.95V181.782H100.322V180.582H101.458V178.374H102.914V180.582H105.202V181.782H102.914V186.95C102.914 187.814 103.234 188.118 104.13 188.118H105.202V189.35H103.89C102.338 189.35 101.458 188.71 101.458 186.95ZM117.536 186.966C117.536 188.406 116.272 189.494 114.336 189.494C112.288 189.494 110.848 188.374 110.752 186.774H112.256C112.336 187.622 113.088 188.262 114.32 188.262C115.472 188.262 116.112 187.686 116.112 186.966C116.112 185.014 110.928 186.15 110.928 182.886C110.928 181.542 112.192 180.438 114.144 180.438C116.08 180.438 117.36 181.478 117.456 183.19H116C115.936 182.31 115.264 181.67 114.096 181.67C113.024 181.67 112.384 182.182 112.384 182.886C112.384 184.966 117.472 183.83 117.536 186.966ZM127.367 180.582V189.35H125.911V188.054C125.351 188.966 124.279 189.478 123.111 189.478C121.095 189.478 119.511 188.23 119.511 185.718V180.582H120.951V185.526C120.951 187.302 121.927 188.214 123.399 188.214C124.903 188.214 125.911 187.286 125.911 185.398V180.582H127.367ZM142.482 189.35V184.39C142.482 182.598 141.522 181.686 140.082 181.686C138.61 181.686 137.602 182.63 137.602 184.518V189.35H136.162V184.39C136.162 182.598 135.202 181.686 133.762 181.686C132.29 181.686 131.282 182.63 131.282 184.518V189.35H129.826V180.582H131.282V181.846C131.858 180.918 132.898 180.422 134.05 180.422C135.49 180.422 136.69 181.062 137.266 182.374C137.778 181.11 139.026 180.422 140.37 180.422C142.37 180.422 143.922 181.67 143.922 184.182V189.35H142.482ZM158.966 189.35V184.39C158.966 182.598 158.006 181.686 156.566 181.686C155.094 181.686 154.086 182.63 154.086 184.518V189.35H152.646V184.39C152.646 182.598 151.686 181.686 150.246 181.686C148.774 181.686 147.766 182.63 147.766 184.518V189.35H146.31V180.582H147.766V181.846C148.342 180.918 149.382 180.422 150.534 180.422C151.974 180.422 153.174 181.062 153.75 182.374C154.262 181.11 155.51 180.422 156.854 180.422C158.854 180.422 160.406 181.67 160.406 184.182V189.35H158.966ZM162.251 184.934C162.251 182.198 164.059 180.438 166.411 180.438C168.043 180.438 169.163 181.27 169.675 182.182V180.582H171.147V189.35H169.675V187.718C169.147 188.662 168.011 189.494 166.395 189.494C164.059 189.494 162.251 187.654 162.251 184.934ZM169.675 184.95C169.675 182.918 168.299 181.702 166.699 181.702C165.099 181.702 163.739 182.87 163.739 184.934C163.739 186.998 165.099 188.214 166.699 188.214C168.299 188.214 169.675 187.014 169.675 184.95ZM175.063 184.582V189.35H173.607V180.582H175.063V182.006C175.559 181.03 176.503 180.422 177.895 180.422V181.926H177.511C176.119 181.926 175.063 182.55 175.063 184.582ZM179.576 189.35V180.582H181.032V189.35H179.576ZM180.328 179.158C179.768 179.158 179.336 178.726 179.336 178.166C179.336 177.606 179.768 177.174 180.328 177.174C180.856 177.174 181.288 177.606 181.288 178.166C181.288 178.726 180.856 179.158 180.328 179.158ZM187.241 181.67C185.817 181.67 184.633 182.614 184.473 184.326H190.009C190.025 182.614 188.745 181.67 187.241 181.67ZM191.337 186.646C190.889 188.246 189.481 189.494 187.305 189.494C184.809 189.494 182.969 187.734 182.969 184.95C182.969 182.182 184.745 180.438 187.305 180.438C189.849 180.438 191.513 182.23 191.513 184.63C191.513 184.95 191.497 185.206 191.465 185.51H184.457C184.569 187.286 185.817 188.262 187.305 188.262C188.617 188.262 189.449 187.59 189.769 186.646H191.337ZM199.739 186.966C199.739 188.406 198.475 189.494 196.539 189.494C194.491 189.494 193.051 188.374 192.955 186.774H194.459C194.539 187.622 195.291 188.262 196.523 188.262C197.675 188.262 198.315 187.686 198.315 186.966C198.315 185.014 193.131 186.15 193.131 182.886C193.131 181.542 194.395 180.438 196.347 180.438C198.283 180.438 199.563 181.478 199.659 183.19H198.203C198.139 182.31 197.467 181.67 196.299 181.67C195.227 181.67 194.587 182.182 194.587 182.886C194.587 184.966 199.675 183.83 199.739 186.966ZM212.78 180.582H211.324C211.356 179.67 210.748 179.174 209.964 179.174C209.1 179.174 208.54 179.718 208.54 180.454C208.54 181.11 208.908 181.654 209.692 182.486L213.02 185.83C213.116 185.686 213.212 185.542 213.308 185.382L214.396 183.558H215.964L214.652 185.83C214.444 186.198 214.236 186.518 214.012 186.838L216.524 189.35H214.62L213.164 187.878C212.092 188.998 210.892 189.542 209.324 189.542C207.004 189.542 205.42 188.214 205.42 186.15C205.42 184.614 206.3 183.382 208.044 182.694C207.356 181.894 207.084 181.27 207.084 180.454C207.084 179.03 208.22 177.974 210.028 177.974C211.788 177.974 212.86 179.094 212.78 180.582ZM209.324 188.294C210.476 188.294 211.372 187.846 212.204 186.918L208.924 183.622C207.532 184.15 206.876 184.982 206.876 186.102C206.876 187.35 207.868 188.294 209.324 188.294ZM228.458 186.966C228.458 188.406 227.194 189.494 225.258 189.494C223.21 189.494 221.77 188.374 221.674 186.774H223.178C223.258 187.622 224.01 188.262 225.242 188.262C226.394 188.262 227.034 187.686 227.034 186.966C227.034 185.014 221.85 186.15 221.85 182.886C221.85 181.542 223.114 180.438 225.066 180.438C227.002 180.438 228.282 181.478 228.378 183.19H226.922C226.858 182.31 226.186 181.67 225.018 181.67C223.946 181.67 223.306 182.182 223.306 182.886C223.306 184.966 228.394 183.83 228.458 186.966ZM243.169 189.35V184.39C243.169 182.598 242.209 181.686 240.769 181.686C239.297 181.686 238.289 182.63 238.289 184.518V189.35H236.849V184.39C236.849 182.598 235.889 181.686 234.449 181.686C232.977 181.686 231.969 182.63 231.969 184.518V189.35H230.513V180.582H231.969V181.846C232.545 180.918 233.585 180.422 234.737 180.422C236.177 180.422 237.377 181.062 237.953 182.374C238.465 181.11 239.713 180.422 241.057 180.422C243.057 180.422 244.609 181.67 244.609 184.182V189.35H243.169ZM246.454 184.934C246.454 182.198 248.262 180.438 250.614 180.438C252.246 180.438 253.366 181.27 253.878 182.182V180.582H255.35V189.35H253.878V187.718C253.35 188.662 252.214 189.494 250.598 189.494C248.262 189.494 246.454 187.654 246.454 184.934ZM253.878 184.95C253.878 182.918 252.502 181.702 250.902 181.702C249.302 181.702 247.942 182.87 247.942 184.934C247.942 186.998 249.302 188.214 250.902 188.214C252.502 188.214 253.878 187.014 253.878 184.95ZM259.266 184.582V189.35H257.81V180.582H259.266V182.006C259.762 181.03 260.706 180.422 262.098 180.422V181.926H261.714C260.322 181.926 259.266 182.55 259.266 184.582ZM264.099 186.95V181.782H262.963V180.582H264.099V178.374H265.555V180.582H267.843V181.782H265.555V186.95C265.555 187.814 265.875 188.118 266.771 188.118H267.843V189.35H266.531C264.979 189.35 264.099 188.71 264.099 186.95ZM274.145 189.35V181.782H273.009V180.582H274.145V179.958C274.145 178.006 275.105 177.126 277.345 177.126V178.342C276.033 178.342 275.601 178.822 275.601 179.958V180.582H277.441V181.782H275.601V189.35H274.145ZM279.138 189.35V180.582H280.594V189.35H279.138ZM279.89 179.158C279.33 179.158 278.898 178.726 278.898 178.166C278.898 177.606 279.33 177.174 279.89 177.174C280.418 177.174 280.85 177.606 280.85 178.166C280.85 178.726 280.418 179.158 279.89 179.158ZM283.076 189.35V177.51H284.532V189.35H283.076ZM290.741 181.67C289.317 181.67 288.133 182.614 287.973 184.326H293.509C293.525 182.614 292.245 181.67 290.741 181.67ZM294.837 186.646C294.389 188.246 292.981 189.494 290.805 189.494C288.309 189.494 286.469 187.734 286.469 184.95C286.469 182.182 288.245 180.438 290.805 180.438C293.349 180.438 295.013 182.23 295.013 184.63C295.013 184.95 294.997 185.206 294.965 185.51H287.957C288.069 187.286 289.317 188.262 290.805 188.262C292.117 188.262 292.949 187.59 293.269 186.646H294.837ZM58.036 208.966C58.036 210.406 56.772 211.494 54.836 211.494C52.788 211.494 51.348 210.374 51.252 208.774H52.756C52.836 209.622 53.588 210.262 54.82 210.262C55.972 210.262 56.612 209.686 56.612 208.966C56.612 207.014 51.428 208.15 51.428 204.886C51.428 203.542 52.692 202.438 54.644 202.438C56.58 202.438 57.86 203.478 57.956 205.19H56.5C56.436 204.31 55.764 203.67 54.596 203.67C53.524 203.67 52.884 204.182 52.884 204.886C52.884 206.966 57.972 205.83 58.036 208.966ZM67.8674 202.582V211.35H66.4114V210.054C65.8514 210.966 64.7794 211.478 63.6114 211.478C61.5954 211.478 60.0114 210.23 60.0114 207.718V202.582H61.4514V207.526C61.4514 209.302 62.4274 210.214 63.8994 210.214C65.4034 210.214 66.4114 209.286 66.4114 207.398V202.582H67.8674ZM69.7818 206.934C69.7818 204.198 71.5898 202.438 73.9418 202.438C75.5418 202.438 76.6938 203.238 77.2058 204.182V202.582H78.6778V211.542C78.6778 213.958 77.0618 215.67 74.4858 215.67C72.1818 215.67 70.5338 214.502 70.2458 212.63H71.6858C72.0058 213.686 73.0458 214.406 74.4858 214.406C76.0378 214.406 77.2058 213.414 77.2058 211.542V209.702C76.6778 210.646 75.5418 211.494 73.9418 211.494C71.5898 211.494 69.7818 209.654 69.7818 206.934ZM77.2058 206.95C77.2058 204.918 75.8298 203.702 74.2298 203.702C72.6298 203.702 71.2698 204.87 71.2698 206.934C71.2698 208.998 72.6298 210.214 74.2298 210.214C75.8298 210.214 77.2058 209.014 77.2058 206.95ZM80.5943 206.934C80.5943 204.198 82.4023 202.438 84.7543 202.438C86.3543 202.438 87.5063 203.238 88.0183 204.182V202.582H89.4903V211.542C89.4903 213.958 87.8743 215.67 85.2983 215.67C82.9943 215.67 81.3463 214.502 81.0583 212.63H82.4983C82.8183 213.686 83.8583 214.406 85.2983 214.406C86.8503 214.406 88.0183 213.414 88.0183 211.542V209.702C87.4903 210.646 86.3543 211.494 84.7543 211.494C82.4023 211.494 80.5943 209.654 80.5943 206.934ZM88.0183 206.95C88.0183 204.918 86.6423 203.702 85.0423 203.702C83.4423 203.702 82.0823 204.87 82.0823 206.934C82.0823 208.998 83.4423 210.214 85.0423 210.214C86.6423 210.214 88.0183 209.014 88.0183 206.95ZM95.6788 203.67C94.2548 203.67 93.0707 204.614 92.9108 206.326H98.4468C98.4628 204.614 97.1828 203.67 95.6788 203.67ZM99.7748 208.646C99.3268 210.246 97.9188 211.494 95.7428 211.494C93.2468 211.494 91.4068 209.734 91.4068 206.95C91.4068 204.182 93.1828 202.438 95.7428 202.438C98.2868 202.438 99.9508 204.23 99.9508 206.63C99.9508 206.95 99.9348 207.206 99.9028 207.51H92.8948C93.0068 209.286 94.2548 210.262 95.7428 210.262C97.0548 210.262 97.8868 209.59 98.2068 208.646H99.7748ZM108.177 208.966C108.177 210.406 106.913 211.494 104.977 211.494C102.929 211.494 101.489 210.374 101.393 208.774H102.897C102.977 209.622 103.729 210.262 104.961 210.262C106.113 210.262 106.753 209.686 106.753 208.966C106.753 207.014 101.569 208.15 101.569 204.886C101.569 203.542 102.833 202.438 104.785 202.438C106.721 202.438 108.001 203.478 108.097 205.19H106.641C106.577 204.31 105.905 203.67 104.737 203.67C103.665 203.67 103.025 204.182 103.025 204.886C103.025 206.966 108.113 205.83 108.177 208.966ZM110.552 208.95V203.782H109.416V202.582H110.552V200.374H112.008V202.582H114.296V203.782H112.008V208.95C112.008 209.814 112.328 210.118 113.224 210.118H114.296V211.35H112.984C111.432 211.35 110.552 210.71 110.552 208.95ZM116.06 211.35V202.582H117.516V211.35H116.06ZM116.812 201.158C116.252 201.158 115.82 200.726 115.82 200.166C115.82 199.606 116.252 199.174 116.812 199.174C117.34 199.174 117.772 199.606 117.772 200.166C117.772 200.726 117.34 201.158 116.812 201.158ZM128.318 206.95C128.318 209.734 126.318 211.494 123.822 211.494C121.342 211.494 119.454 209.734 119.454 206.95C119.454 204.182 121.406 202.438 123.886 202.438C126.382 202.438 128.318 204.182 128.318 206.95ZM120.942 206.95C120.942 209.174 122.302 210.214 123.822 210.214C125.342 210.214 126.83 209.174 126.83 206.95C126.83 204.742 125.374 203.702 123.87 203.702C122.334 203.702 120.942 204.742 120.942 206.95ZM136.648 211.35V206.39C136.648 204.598 135.672 203.686 134.2 203.686C132.712 203.686 131.688 204.614 131.688 206.502V211.35H130.232V202.582H131.688V203.83C132.264 202.918 133.32 202.422 134.504 202.422C136.536 202.422 138.088 203.67 138.088 206.182V211.35H136.648ZM146.77 208.966C146.77 210.406 145.506 211.494 143.57 211.494C141.522 211.494 140.082 210.374 139.986 208.774H141.49C141.57 209.622 142.322 210.262 143.554 210.262C144.706 210.262 145.346 209.686 145.346 208.966C145.346 207.014 140.162 208.15 140.162 204.886C140.162 203.542 141.426 202.438 143.378 202.438C145.314 202.438 146.594 203.478 146.69 205.19H145.234C145.17 204.31 144.498 203.67 143.33 203.67C142.258 203.67 141.618 204.182 141.618 204.886C141.618 206.966 146.706 205.83 146.77 208.966Z" fill="#E6E6E6"/>
</g>
<defs>
<filter id="filter0_d_2094_13641" x="0.5" y="0.350342" width="370" height="284" filterUnits="userSpaceOnUse" color-interpolation-filters="sRGB">
<feFlood flood-opacity="0" result="BackgroundImageFix"/>
<feColorMatrix in="SourceAlpha" type="matrix" values="0 0 0 0 0 0 0 0 0 0 0 0 0 0 0 0 0 0 127 0" result="hardAlpha"/>
<feOffset dy="10"/>
<feGaussianBlur stdDeviation="13"/>
<feComposite in2="hardAlpha" operator="out"/>
<feColorMatrix type="matrix" values="0 0 0 0 0 0 0 0 0 0 0 0 0 0 0 0 0 0 0.2 0"/>
<feBlend mode="normal" in2="BackgroundImageFix" result="effect1_dropShadow_2094_13641"/>
<feBlend mode="normal" in="SourceGraphic" in2="effect1_dropShadow_2094_13641" result="shape"/>
</filter>
<linearGradient id="paint0_linear_2094_13641" x1="344.5" y1="232.641" x2="4.01557" y2="181.367" gradientUnits="userSpaceOnUse">
<stop offset="0.254808" stop-color="#464646"/>
<stop offset="1" stop-color="#43430D"/>
</linearGradient>
<linearGradient id="paint1_linear_2094_13641" x1="117.456" y1="16.3503" x2="313.834" y2="172.553" gradientUnits="userSpaceOnUse">
<stop stop-color="#9F9F00"/>
<stop offset="0.509615" stop-color="#4D4D00"/>
</linearGradient>
</defs>
</svg>
