<svg width="402" height="279" viewBox="0 0 402 279" fill="none" xmlns="http://www.w3.org/2000/svg">
<g filter="url(#filter0_d_2104_5766)">
<path d="M26 26C26 20.4771 30.4772 16 36 16H366C371.523 16 376 20.4772 376 26V233C376 238.523 371.523 243 366 243H36C30.4772 243 26 238.523 26 233V26Z" fill="url(#paint0_linear_2104_5766)" fill-opacity="0.6" shape-rendering="crispEdges"/>
<path d="M36 16.5H366C371.247 16.5 375.5 20.7533 375.5 26V233C375.5 238.247 371.247 242.5 366 242.5H36C30.7533 242.5 26.5 238.247 26.5 233V26C26.5 20.7533 30.7533 16.5 36 16.5Z" stroke="url(#paint1_linear_2104_5766)" shape-rendering="crispEdges"/>
<rect x="50" y="48" width="75" height="75"/>
<path d="M56.6196 201L50.6856 184.9H52.4336L57.4476 198.861L62.4616 184.9H64.2096L58.2756 201H56.6196ZM67.1505 186.74C66.9358 186.955 66.6752 187.062 66.3685 187.062C66.0618 187.062 65.8012 186.955 65.5865 186.74C65.3718 186.525 65.2645 186.265 65.2645 185.958C65.2645 185.651 65.3718 185.391 65.5865 185.176C65.8012 184.961 66.0618 184.854 66.3685 184.854C66.6752 184.854 66.9358 184.961 67.1505 185.176C67.3652 185.391 67.4725 185.651 67.4725 185.958C67.4725 186.265 67.3652 186.525 67.1505 186.74ZM65.6095 201V189.5H67.1275V201H65.6095ZM71.5448 192.513C71.5448 193.034 71.7748 193.448 72.2348 193.755C72.6948 194.062 73.2544 194.299 73.9138 194.468C74.5731 194.637 75.2324 194.828 75.8918 195.043C76.5511 195.242 77.1108 195.587 77.5708 196.078C78.0308 196.553 78.2608 197.182 78.2608 197.964C78.2608 198.945 77.8698 199.743 77.0878 200.356C76.3211 200.969 75.3244 201.276 74.0978 201.276C72.9938 201.276 72.0508 201.031 71.2688 200.54C70.5021 200.049 69.9654 199.413 69.6588 198.631L70.9468 197.872C71.1614 198.47 71.5448 198.945 72.0968 199.298C72.6641 199.635 73.3311 199.804 74.0978 199.804C74.8491 199.804 75.4778 199.658 75.9838 199.367C76.4898 199.06 76.7428 198.593 76.7428 197.964C76.7428 197.443 76.5128 197.029 76.0528 196.722C75.5928 196.415 75.0331 196.178 74.3738 196.009C73.7144 195.84 73.0551 195.656 72.3958 195.457C71.7364 195.242 71.1768 194.897 70.7168 194.422C70.2568 193.931 70.0268 193.295 70.0268 192.513C70.0268 191.578 70.3948 190.796 71.1308 190.167C71.8821 189.538 72.8251 189.224 73.9598 189.224C74.8951 189.224 75.7154 189.439 76.4208 189.868C77.1261 190.282 77.6474 190.849 77.9848 191.57L76.7198 192.306C76.2751 191.233 75.3551 190.696 73.9598 190.696C73.3004 190.696 72.7331 190.857 72.2578 191.179C71.7824 191.486 71.5448 191.93 71.5448 192.513ZM82.2218 186.74C82.0071 186.955 81.7465 187.062 81.4398 187.062C81.1331 187.062 80.8725 186.955 80.6578 186.74C80.4431 186.525 80.3358 186.265 80.3358 185.958C80.3358 185.651 80.4431 185.391 80.6578 185.176C80.8725 184.961 81.1331 184.854 81.4398 184.854C81.7465 184.854 82.0071 184.961 82.2218 185.176C82.4365 185.391 82.5438 185.651 82.5438 185.958C82.5438 186.265 82.4365 186.525 82.2218 186.74ZM80.6808 201V189.5H82.1988V201H80.6808ZM95.0571 199.551C93.8917 200.701 92.4657 201.276 90.7791 201.276C89.0924 201.276 87.6587 200.701 86.4781 199.551C85.3127 198.386 84.7301 196.952 84.7301 195.25C84.7301 193.548 85.3127 192.122 86.4781 190.972C87.6587 189.807 89.0924 189.224 90.7791 189.224C92.4657 189.224 93.8917 189.807 95.0571 190.972C96.2377 192.122 96.8281 193.548 96.8281 195.25C96.8281 196.952 96.2377 198.386 95.0571 199.551ZM87.5591 198.493C88.4331 199.367 89.5064 199.804 90.7791 199.804C92.0517 199.804 93.1251 199.367 93.9991 198.493C94.8731 197.604 95.3101 196.523 95.3101 195.25C95.3101 193.977 94.8731 192.904 93.9991 192.03C93.1251 191.141 92.0517 190.696 90.7791 190.696C89.5064 190.696 88.4331 191.141 87.5591 192.03C86.6851 192.904 86.2481 193.977 86.2481 195.25C86.2481 196.523 86.6851 197.604 87.5591 198.493ZM104.75 189.224C106.146 189.224 107.242 189.653 108.039 190.512C108.852 191.355 109.258 192.498 109.258 193.939V201H107.74V193.939C107.74 192.912 107.464 192.114 106.912 191.547C106.376 190.98 105.609 190.696 104.612 190.696C103.508 190.696 102.611 191.049 101.921 191.754C101.231 192.444 100.886 193.517 100.886 194.974V201H99.3683V189.5H100.886V191.294C101.745 189.914 103.033 189.224 104.75 189.224ZM112.423 194.629V193.157H120.703V194.629H112.423ZM134.394 201L132.899 197.044H125.263L123.768 201H122.066L128.253 184.9H129.909L136.096 201H134.394ZM125.838 195.526H132.324L129.081 186.901L125.838 195.526ZM138.164 184.9H139.774V201H138.164V184.9ZM155.149 189.224C156.789 189.224 158.185 189.807 159.335 190.972C160.5 192.137 161.083 193.563 161.083 195.25C161.083 196.937 160.5 198.363 159.335 199.528C158.185 200.693 156.789 201.276 155.149 201.276C153.109 201.276 151.561 200.433 150.503 198.746V205.6H148.985V189.5H150.503V191.754C151.561 190.067 153.109 189.224 155.149 189.224ZM151.814 198.493C152.688 199.367 153.761 199.804 155.034 199.804C156.306 199.804 157.38 199.367 158.254 198.493C159.128 197.604 159.565 196.523 159.565 195.25C159.565 193.977 159.128 192.904 158.254 192.03C157.38 191.141 156.306 190.696 155.034 190.696C153.761 190.696 152.688 191.141 151.814 192.03C150.94 192.904 150.503 193.977 150.503 195.25C150.503 196.523 150.94 197.604 151.814 198.493ZM173.244 199.551C172.078 200.701 170.652 201.276 168.966 201.276C167.279 201.276 165.845 200.701 164.665 199.551C163.499 198.386 162.917 196.952 162.917 195.25C162.917 193.548 163.499 192.122 164.665 190.972C165.845 189.807 167.279 189.224 168.966 189.224C170.652 189.224 172.078 189.807 173.244 190.972C174.424 192.122 175.015 193.548 175.015 195.25C175.015 196.952 174.424 198.386 173.244 199.551ZM165.746 198.493C166.62 199.367 167.693 199.804 168.966 199.804C170.238 199.804 171.312 199.367 172.186 198.493C173.06 197.604 173.497 196.523 173.497 195.25C173.497 193.977 173.06 192.904 172.186 192.03C171.312 191.141 170.238 190.696 168.966 190.696C167.693 190.696 166.62 191.141 165.746 192.03C164.872 192.904 164.435 193.977 164.435 195.25C164.435 196.523 164.872 197.604 165.746 198.493ZM190.952 189.5H192.516L188.974 201H187.318L184.351 191.731L181.384 201H179.728L176.186 189.5H177.75L180.579 199.045L183.592 189.5H185.11L188.123 199.045L190.952 189.5ZM199.669 189.224C201.371 189.224 202.743 189.83 203.786 191.041C204.844 192.237 205.373 193.655 205.373 195.296C205.373 195.465 205.357 195.702 205.327 196.009H195.23C195.383 197.174 195.874 198.102 196.702 198.792C197.545 199.467 198.58 199.804 199.807 199.804C200.681 199.804 201.432 199.628 202.061 199.275C202.705 198.907 203.188 198.432 203.51 197.849L204.844 198.631C204.338 199.444 203.648 200.088 202.774 200.563C201.9 201.038 200.903 201.276 199.784 201.276C197.974 201.276 196.502 200.709 195.368 199.574C194.233 198.439 193.666 196.998 193.666 195.25C193.666 193.533 194.225 192.099 195.345 190.949C196.464 189.799 197.905 189.224 199.669 189.224ZM199.669 190.696C198.473 190.696 197.468 191.056 196.656 191.777C195.858 192.482 195.383 193.402 195.23 194.537H203.809C203.655 193.326 203.188 192.383 202.406 191.708C201.624 191.033 200.711 190.696 199.669 190.696ZM209.305 191.409C210.011 190.014 211.222 189.316 212.939 189.316V190.788C211.897 190.788 211.03 191.095 210.34 191.708C209.65 192.321 209.305 193.287 209.305 194.606V201H207.787V189.5H209.305V191.409ZM219.636 189.224C221.338 189.224 222.711 189.83 223.753 191.041C224.811 192.237 225.34 193.655 225.34 195.296C225.34 195.465 225.325 195.702 225.294 196.009H215.197C215.351 197.174 215.841 198.102 216.669 198.792C217.513 199.467 218.548 199.804 219.774 199.804C220.648 199.804 221.4 199.628 222.028 199.275C222.672 198.907 223.155 198.432 223.477 197.849L224.811 198.631C224.305 199.444 223.615 200.088 222.741 200.563C221.867 201.038 220.871 201.276 219.751 201.276C217.942 201.276 216.47 200.709 215.335 199.574C214.201 198.439 213.633 196.998 213.633 195.25C213.633 193.533 214.193 192.099 215.312 190.949C216.432 189.799 217.873 189.224 219.636 189.224ZM219.636 190.696C218.44 190.696 217.436 191.056 216.623 191.777C215.826 192.482 215.351 193.402 215.197 194.537H223.776C223.623 193.326 223.155 192.383 222.373 191.708C221.591 191.033 220.679 190.696 219.636 190.696ZM237.645 184.9H239.163V201H237.645V198.746C236.587 200.433 235.038 201.276 232.999 201.276C231.358 201.276 229.955 200.693 228.79 199.528C227.64 198.363 227.065 196.937 227.065 195.25C227.065 193.563 227.64 192.137 228.79 190.972C229.955 189.807 231.358 189.224 232.999 189.224C235.038 189.224 236.587 190.067 237.645 191.754V184.9ZM229.894 198.493C230.768 199.367 231.841 199.804 233.114 199.804C234.387 199.804 235.46 199.367 236.334 198.493C237.208 197.604 237.645 196.523 237.645 195.25C237.645 193.977 237.208 192.904 236.334 192.03C235.46 191.141 234.387 190.696 233.114 190.696C231.841 190.696 230.768 191.141 229.894 192.03C229.02 192.904 228.583 193.977 228.583 195.25C228.583 196.523 229.02 197.604 229.894 198.493ZM256.407 189.5H258.017L253.302 201H251.462L246.747 189.5H248.357L252.382 199.413L256.407 189.5ZM261.393 186.74C261.178 186.955 260.917 187.062 260.611 187.062C260.304 187.062 260.043 186.955 259.829 186.74C259.614 186.525 259.507 186.265 259.507 185.958C259.507 185.651 259.614 185.391 259.829 185.176C260.043 184.961 260.304 184.854 260.611 184.854C260.917 184.854 261.178 184.961 261.393 185.176C261.607 185.391 261.715 185.651 261.715 185.958C261.715 186.265 261.607 186.525 261.393 186.74ZM259.852 201V189.5H261.37V201H259.852ZM274.481 189.5H275.999V201H274.481V198.746C273.423 200.433 271.874 201.276 269.835 201.276C268.194 201.276 266.791 200.693 265.626 199.528C264.476 198.363 263.901 196.937 263.901 195.25C263.901 193.563 264.476 192.137 265.626 190.972C266.791 189.807 268.194 189.224 269.835 189.224C271.874 189.224 273.423 190.067 274.481 191.754V189.5ZM266.73 198.493C267.604 199.367 268.677 199.804 269.95 199.804C271.223 199.804 272.296 199.367 273.17 198.493C274.044 197.604 274.481 196.523 274.481 195.25C274.481 193.977 274.044 192.904 273.17 192.03C272.296 191.141 271.223 190.696 269.95 190.696C268.677 190.696 267.604 191.141 266.73 192.03C265.856 192.904 265.419 193.977 265.419 195.25C265.419 196.523 265.856 197.604 266.73 198.493ZM286.803 199.482H294.163V201H285.193V184.9H286.803V199.482ZM304.222 189.5H305.74V201H304.222V199.206C303.363 200.586 302.075 201.276 300.358 201.276C298.963 201.276 297.859 200.854 297.046 200.011C296.249 199.152 295.85 198.002 295.85 196.561V189.5H297.368V196.561C297.368 197.588 297.636 198.386 298.173 198.953C298.725 199.52 299.499 199.804 300.496 199.804C301.6 199.804 302.497 199.459 303.187 198.769C303.877 198.064 304.222 196.983 304.222 195.526V189.5ZM321.21 189.224C322.498 189.224 323.533 189.638 324.315 190.466C325.113 191.294 325.511 192.413 325.511 193.824V201H323.993V193.824C323.993 192.827 323.733 192.061 323.211 191.524C322.705 190.972 322.031 190.696 321.187 190.696C320.237 190.696 319.462 191.018 318.864 191.662C318.282 192.291 317.99 193.28 317.99 194.629V201H316.472V193.824C316.472 192.812 316.227 192.038 315.736 191.501C315.261 190.964 314.609 190.696 313.781 190.696C312.861 190.696 312.079 191.018 311.435 191.662C310.791 192.306 310.469 193.295 310.469 194.629V201H308.951V189.5H310.469V191.179C311.297 189.876 312.47 189.224 313.988 189.224C315.644 189.224 316.81 189.922 317.484 191.317C318.312 189.922 319.554 189.224 321.21 189.224ZM333.76 189.224C335.462 189.224 336.835 189.83 337.877 191.041C338.935 192.237 339.464 193.655 339.464 195.296C339.464 195.465 339.449 195.702 339.418 196.009H329.321C329.475 197.174 329.965 198.102 330.793 198.792C331.637 199.467 332.672 199.804 333.898 199.804C334.772 199.804 335.524 199.628 336.152 199.275C336.796 198.907 337.279 198.432 337.601 197.849L338.935 198.631C338.429 199.444 337.739 200.088 336.865 200.563C335.991 201.038 334.995 201.276 333.875 201.276C332.066 201.276 330.594 200.709 329.459 199.574C328.325 198.439 327.757 196.998 327.757 195.25C327.757 193.533 328.317 192.099 329.436 190.949C330.556 189.799 331.997 189.224 333.76 189.224ZM333.76 190.696C332.564 190.696 331.56 191.056 330.747 191.777C329.95 192.482 329.475 193.402 329.321 194.537H337.9C337.747 193.326 337.279 192.383 336.497 191.708C335.715 191.033 334.803 190.696 333.76 190.696ZM351.09 201H349.273L345.685 196.262L342.097 201H340.28L344.788 195.043L340.579 189.5H342.396L345.685 193.847L348.974 189.5H350.791L346.605 195.043L351.09 201Z" fill="white"/>
</g>
<defs>
<filter id="filter0_d_2104_5766" x="0" y="0" width="402" height="279" filterUnits="userSpaceOnUse" color-interpolation-filters="sRGB">
<feFlood flood-opacity="0" result="BackgroundImageFix"/>
<feColorMatrix in="SourceAlpha" type="matrix" values="0 0 0 0 0 0 0 0 0 0 0 0 0 0 0 0 0 0 127 0" result="hardAlpha"/>
<feOffset dy="10"/>
<feGaussianBlur stdDeviation="13"/>
<feComposite in2="hardAlpha" operator="out"/>
<feColorMatrix type="matrix" values="0 0 0 0 0 0 0 0 0 0 0 0 0 0 0 0 0 0 0.2 0"/>
<feBlend mode="normal" in2="BackgroundImageFix" result="effect1_dropShadow_2104_5766"/>
<feBlend mode="normal" in="SourceGraphic" in2="effect1_dropShadow_2104_5766" result="shape"/>
</filter>
<linearGradient id="paint0_linear_2104_5766" x1="376" y1="227.629" x2="3.44502" y2="164.52" gradientUnits="userSpaceOnUse">
<stop offset="0.254808" stop-color="#464646"/>
<stop offset="1" stop-color="#43430D"/>
</linearGradient>
<linearGradient id="paint1_linear_2104_5766" x1="126.109" y1="16" x2="322.097" y2="191.359" gradientUnits="userSpaceOnUse">
<stop stop-color="#9F9F00"/>
<stop offset="0.509615" stop-color="#4D4D00"/>
</linearGradient>
</defs>
</svg>
