<svg width="386" height="279" viewBox="0 0 386 279" fill="none" xmlns="http://www.w3.org/2000/svg">
<g filter="url(#filter0_d_2104_5757)">
<path d="M26 26C26 20.4771 30.4772 16 36 16H350C355.523 16 360 20.4772 360 26V233C360 238.523 355.523 243 350 243H36C30.4772 243 26 238.523 26 233V26Z" fill="url(#paint0_linear_2104_5757)" fill-opacity="0.6" shape-rendering="crispEdges"/>
<path d="M36 16.5H350C355.247 16.5 359.5 20.7533 359.5 26V233C359.5 238.247 355.247 242.5 350 242.5H36C30.7533 242.5 26.5 238.247 26.5 233V26C26.5 20.7533 30.7533 16.5 36 16.5Z" stroke="url(#paint1_linear_2104_5757)" shape-rendering="crispEdges"/>
<rect x="50" y="48" width="74" height="74" rx="37" stroke="#FFFF00" stroke-width="1.5"/>
<path d="M72.7611 86.6694H75.7295V87.844C74.1692 88.2327 73.0047 89.7791 73.0047 91.6213C73.0047 93.7592 74.5726 95.4916 76.4906 95.4916C78.4087 95.4916 79.9766 93.7508 79.9766 91.6213C79.9766 91.1565 79.6341 90.7762 79.2155 90.7762C78.7968 90.7762 78.4543 91.1565 78.4543 91.6213C78.4543 92.8297 77.5714 93.8015 76.4906 93.8015C75.4098 93.8015 74.5269 92.8212 74.5269 91.6213C74.5269 90.4213 75.4098 89.4411 76.4906 89.4411C76.9093 89.4411 77.2518 89.0608 77.2518 88.5961V86.6694H81.0345V94.655C81.0345 95.1197 81.377 95.5 81.7957 95.5C82.2143 95.5 82.5568 95.1197 82.5568 94.655V86.6694H84.2389C84.6575 86.6694 85 86.2891 85 85.8243C85 85.3596 84.6575 84.9793 84.2389 84.9793H82.3437L78.5533 81.8442C78.1727 81.4808 77.6475 81.3963 77.1833 81.633C76.7266 81.8696 76.4374 82.3597 76.4374 82.9259C76.4374 82.985 76.445 83.0442 76.4526 83.1033L76.8103 84.9877H76.483H72.7611C72.3425 84.9877 72 85.368 72 85.8328C72 86.2976 72.3425 86.6694 72.7611 86.6694ZM78.1118 83.5765L79.8091 84.9793H78.3782L78.1118 83.5765Z" fill="#FFFF00"/>
<path d="M95.9961 83.5C96.4288 83.5 96.7828 83.1256 96.7828 82.6679V74.1641H100.213C100.646 74.1641 101 73.7897 101 73.3321C101 72.8744 100.646 72.5 100.213 72.5H91.7868C91.3541 72.5 91 72.8744 91 73.3321C91 73.7897 91.3541 74.1641 91.7868 74.1641H95.2171V82.6679C95.2093 83.1256 95.5633 83.5 95.9961 83.5Z" fill="#FFFF00"/>
<path d="M69.3184 102.597C69.2849 102.925 69.4609 103.246 69.7626 103.401C69.8883 103.467 70.0223 103.5 70.1564 103.5C70.3492 103.5 70.5335 103.434 70.6927 103.311L75.1927 99.6745C76.1229 99.8962 77.0698 100.011 78 100.011C84.6117 100.011 90 94.7408 90 88.2555C90 81.7703 84.6201 76.5 78 76.5C71.3799 76.5 66 81.7785 66 88.2555C66 91.5474 67.4078 94.6751 69.8799 96.8998L69.3184 102.597ZM67.676 88.2555C67.676 82.6815 72.3017 78.1418 78 78.1418C83.6983 78.1418 88.324 82.6733 88.324 88.2555C88.324 93.8378 83.6983 98.3693 78 98.3693C77.0782 98.3693 76.148 98.2379 75.2179 97.9834C74.9581 97.9095 74.6732 97.967 74.4553 98.1394L71.1872 100.783L71.5978 96.6453C71.6229 96.3826 71.514 96.1199 71.3045 95.9393C69 94.0184 67.676 91.2109 67.676 88.2555Z" fill="#FFFF00"/>
<path d="M95.8942 66.5C90.1119 66.5 85.1157 70.4897 84.0167 75.998C83.9237 76.4413 84.2281 76.8764 84.6846 76.9585C85.1411 77.0406 85.5891 76.7533 85.6737 76.31C86.6205 71.5815 90.9234 68.1418 95.8942 68.1418C101.634 68.1418 106.309 72.6815 106.309 78.2555C106.309 81.2109 104.974 84.0102 102.649 85.9393C102.437 86.1117 102.328 86.3744 102.353 86.6453L102.767 90.7828L99.4617 88.1394C99.2504 87.967 98.963 87.9095 98.7009 87.9834C96.6635 88.5334 94.6177 88.476 92.7156 87.8849C92.2676 87.7454 91.7942 87.9834 91.6505 88.4185C91.5068 88.8536 91.7519 89.3133 92.2 89.4529C94.2796 90.1014 96.5114 90.1999 98.7262 89.6745L103.266 93.3112C103.418 93.4343 103.613 93.5 103.807 93.5C103.942 93.5 104.077 93.4672 104.204 93.4015C104.509 93.2455 104.678 92.9254 104.652 92.597L104.086 86.8998C106.58 84.6751 108 81.5474 108 78.2555C108 71.7703 102.573 66.5 95.8942 66.5Z" fill="#FFFF00"/>
<path d="M66.978 184.9V201H65.368V187.338L59.733 196.768H59.503L53.868 187.338V201H52.258V184.9H54.259L59.618 193.87L64.977 184.9H66.978ZM78.5195 189.5H80.0375V201H78.5195V199.206C77.6608 200.586 76.3728 201.276 74.6555 201.276C73.2601 201.276 72.1561 200.854 71.3435 200.011C70.5461 199.152 70.1475 198.002 70.1475 196.561V189.5H71.6655V196.561C71.6655 197.588 71.9338 198.386 72.4705 198.953C73.0225 199.52 73.7968 199.804 74.7935 199.804C75.8975 199.804 76.7945 199.459 77.4845 198.769C78.1745 198.064 78.5195 196.983 78.5195 195.526V189.5ZM83.2487 201V184.21H84.7667V201H83.2487ZM94.0829 190.972H90.7709V197.941C90.7709 198.57 90.8936 199.022 91.1389 199.298C91.3843 199.559 91.7523 199.697 92.2429 199.712C92.7336 199.712 93.3469 199.697 94.0829 199.666V201C92.4729 201.245 91.2616 201.13 90.4489 200.655C89.6516 200.18 89.2529 199.275 89.2529 197.941V190.972H86.8379V189.5H89.2529V186.74L90.7709 186.28V189.5H94.0829V190.972ZM98.1539 186.74C97.9393 186.955 97.6786 187.062 97.3719 187.062C97.0653 187.062 96.8046 186.955 96.5899 186.74C96.3753 186.525 96.2679 186.265 96.2679 185.958C96.2679 185.651 96.3753 185.391 96.5899 185.176C96.8046 184.961 97.0653 184.854 97.3719 184.854C97.6786 184.854 97.9393 184.961 98.1539 185.176C98.3686 185.391 98.4759 185.651 98.4759 185.958C98.4759 186.265 98.3686 186.525 98.1539 186.74ZM96.6129 201V189.5H98.1309V201H96.6129ZM101.352 201V184.21H102.87V201H101.352ZM107.632 186.74C107.418 186.955 107.157 187.062 106.85 187.062C106.544 187.062 106.283 186.955 106.068 186.74C105.854 186.525 105.746 186.265 105.746 185.958C105.746 185.651 105.854 185.391 106.068 185.176C106.283 184.961 106.544 184.854 106.85 184.854C107.157 184.854 107.418 184.961 107.632 185.176C107.847 185.391 107.954 185.651 107.954 185.958C107.954 186.265 107.847 186.525 107.632 186.74ZM106.091 201V189.5H107.609V201H106.091ZM116.213 189.224C117.608 189.224 118.704 189.653 119.502 190.512C120.314 191.355 120.721 192.498 120.721 193.939V201H119.203V193.939C119.203 192.912 118.927 192.114 118.375 191.547C117.838 190.98 117.071 190.696 116.075 190.696C114.971 190.696 114.074 191.049 113.384 191.754C112.694 192.444 112.349 193.517 112.349 194.974V201H110.831V189.5H112.349V191.294C113.207 189.914 114.495 189.224 116.213 189.224ZM133.546 189.5H135.064V200.54C135.064 202.196 134.497 203.499 133.362 204.45C132.227 205.401 130.87 205.876 129.291 205.876C126.592 205.876 124.775 204.941 123.84 203.07L125.174 202.311C125.864 203.706 127.236 204.404 129.291 204.404C130.61 204.404 131.645 204.051 132.396 203.346C133.163 202.656 133.546 201.721 133.546 200.54V198.746C132.488 200.433 130.939 201.276 128.9 201.276C127.259 201.276 125.856 200.693 124.691 199.528C123.541 198.363 122.966 196.937 122.966 195.25C122.966 193.563 123.541 192.137 124.691 190.972C125.856 189.807 127.259 189.224 128.9 189.224C130.939 189.224 132.488 190.067 133.546 191.754V189.5ZM125.795 198.493C126.669 199.367 127.742 199.804 129.015 199.804C130.288 199.804 131.361 199.367 132.235 198.493C133.109 197.604 133.546 196.523 133.546 195.25C133.546 193.977 133.109 192.904 132.235 192.03C131.361 191.141 130.288 190.696 129.015 190.696C127.742 190.696 126.669 191.141 125.795 192.03C124.921 192.904 124.484 193.977 124.484 195.25C124.484 196.523 124.921 197.604 125.795 198.493ZM146.374 189.5H147.892V201H146.374V199.206C145.515 200.586 144.227 201.276 142.51 201.276C141.115 201.276 140.011 200.854 139.198 200.011C138.401 199.152 138.002 198.002 138.002 196.561V189.5H139.52V196.561C139.52 197.588 139.788 198.386 140.325 198.953C140.877 199.52 141.651 199.804 142.648 199.804C143.752 199.804 144.649 199.459 145.339 198.769C146.029 198.064 146.374 196.983 146.374 195.526V189.5ZM160.993 189.5H162.511V201H160.993V198.746C159.935 200.433 158.386 201.276 156.347 201.276C154.706 201.276 153.303 200.693 152.138 199.528C150.988 198.363 150.413 196.937 150.413 195.25C150.413 193.563 150.988 192.137 152.138 190.972C153.303 189.807 154.706 189.224 156.347 189.224C158.386 189.224 159.935 190.067 160.993 191.754V189.5ZM153.242 198.493C154.116 199.367 155.189 199.804 156.462 199.804C157.735 199.804 158.808 199.367 159.682 198.493C160.556 197.604 160.993 196.523 160.993 195.25C160.993 193.977 160.556 192.904 159.682 192.03C158.808 191.141 157.735 190.696 156.462 190.696C155.189 190.696 154.116 191.141 153.242 192.03C152.368 192.904 151.931 193.977 151.931 195.25C151.931 196.523 152.368 197.604 153.242 198.493ZM165.725 201V184.21H167.243V201H165.725ZM178.514 203.3C176.828 199.927 175.984 196.477 175.984 192.95C175.984 189.423 176.828 185.973 178.514 182.6H180.032C178.346 185.973 177.502 189.423 177.502 192.95C177.502 196.477 178.346 199.927 180.032 203.3H178.514ZM192.904 184.9H194.514V201H192.904V193.479H184.164V201H182.554V184.9H184.164V191.961H192.904V184.9ZM199.498 186.74C199.283 186.955 199.022 187.062 198.716 187.062C198.409 187.062 198.148 186.955 197.934 186.74C197.719 186.525 197.612 186.265 197.612 185.958C197.612 185.651 197.719 185.391 197.934 185.176C198.148 184.961 198.409 184.854 198.716 184.854C199.022 184.854 199.283 184.961 199.498 185.176C199.712 185.391 199.82 185.651 199.82 185.958C199.82 186.265 199.712 186.525 199.498 186.74ZM197.957 201V189.5H199.475V201H197.957ZM208.078 189.224C209.473 189.224 210.57 189.653 211.367 190.512C212.18 191.355 212.586 192.498 212.586 193.939V201H211.068V193.939C211.068 192.912 210.792 192.114 210.24 191.547C209.703 190.98 208.937 190.696 207.94 190.696C206.836 190.696 205.939 191.049 205.249 191.754C204.559 192.444 204.214 193.517 204.214 194.974V201H202.696V189.5H204.214V191.294C205.073 189.914 206.361 189.224 208.078 189.224ZM225.411 184.9H226.929V201H225.411V198.746C224.353 200.433 222.804 201.276 220.765 201.276C219.124 201.276 217.721 200.693 216.556 199.528C215.406 198.363 214.831 196.937 214.831 195.25C214.831 193.563 215.406 192.137 216.556 190.972C217.721 189.807 219.124 189.224 220.765 189.224C222.804 189.224 224.353 190.067 225.411 191.754V184.9ZM217.66 198.493C218.534 199.367 219.607 199.804 220.88 199.804C222.153 199.804 223.226 199.367 224.1 198.493C224.974 197.604 225.411 196.523 225.411 195.25C225.411 193.977 224.974 192.904 224.1 192.03C223.226 191.141 222.153 190.696 220.88 190.696C219.607 190.696 218.534 191.141 217.66 192.03C216.786 192.904 216.349 193.977 216.349 195.25C216.349 196.523 216.786 197.604 217.66 198.493ZM231.684 186.74C231.47 186.955 231.209 187.062 230.902 187.062C230.596 187.062 230.335 186.955 230.12 186.74C229.906 186.525 229.798 186.265 229.798 185.958C229.798 185.651 229.906 185.391 230.12 185.176C230.335 184.961 230.596 184.854 230.902 184.854C231.209 184.854 231.47 184.961 231.684 185.176C231.899 185.391 232.006 185.651 232.006 185.958C232.006 186.265 231.899 186.525 231.684 186.74ZM230.143 201V189.5H231.661V201H230.143ZM250.062 192.214V193.686H245.968V197.78H244.496V193.686H240.402V192.214H244.496V188.12H245.968V192.214H250.062ZM260.643 199.482H268.463V201H259.033V184.9H268.348V186.418H260.643V192.122H267.773V193.64H260.643V199.482ZM276.382 189.224C277.777 189.224 278.873 189.653 279.671 190.512C280.483 191.355 280.89 192.498 280.89 193.939V201H279.372V193.939C279.372 192.912 279.096 192.114 278.544 191.547C278.007 190.98 277.24 190.696 276.244 190.696C275.14 190.696 274.243 191.049 273.553 191.754C272.863 192.444 272.518 193.517 272.518 194.974V201H271V189.5H272.518V191.294C273.376 189.914 274.664 189.224 276.382 189.224ZM293.715 189.5H295.233V200.54C295.233 202.196 294.666 203.499 293.531 204.45C292.396 205.401 291.039 205.876 289.46 205.876C286.761 205.876 284.944 204.941 284.009 203.07L285.343 202.311C286.033 203.706 287.405 204.404 289.46 204.404C290.779 204.404 291.814 204.051 292.565 203.346C293.332 202.656 293.715 201.721 293.715 200.54V198.746C292.657 200.433 291.108 201.276 289.069 201.276C287.428 201.276 286.025 200.693 284.86 199.528C283.71 198.363 283.135 196.937 283.135 195.25C283.135 193.563 283.71 192.137 284.86 190.972C286.025 189.807 287.428 189.224 289.069 189.224C291.108 189.224 292.657 190.067 293.715 191.754V189.5ZM285.964 198.493C286.838 199.367 287.911 199.804 289.184 199.804C290.457 199.804 291.53 199.367 292.404 198.493C293.278 197.604 293.715 196.523 293.715 195.25C293.715 193.977 293.278 192.904 292.404 192.03C291.53 191.141 290.457 190.696 289.184 190.696C287.911 190.696 286.838 191.141 285.964 192.03C285.09 192.904 284.653 193.977 284.653 195.25C284.653 196.523 285.09 197.604 285.964 198.493ZM298.447 201V184.21H299.965V201H298.447ZM304.727 186.74C304.513 186.955 304.252 187.062 303.945 187.062C303.639 187.062 303.378 186.955 303.163 186.74C302.949 186.525 302.841 186.265 302.841 185.958C302.841 185.651 302.949 185.391 303.163 185.176C303.378 184.961 303.639 184.854 303.945 184.854C304.252 184.854 304.513 184.961 304.727 185.176C304.942 185.391 305.049 185.651 305.049 185.958C305.049 186.265 304.942 186.525 304.727 186.74ZM303.186 201V189.5H304.704V201H303.186ZM309.121 192.513C309.121 193.034 309.351 193.448 309.811 193.755C310.271 194.062 310.831 194.299 311.49 194.468C312.15 194.637 312.809 194.828 313.468 195.043C314.128 195.242 314.687 195.587 315.147 196.078C315.607 196.553 315.837 197.182 315.837 197.964C315.837 198.945 315.446 199.743 314.664 200.356C313.898 200.969 312.901 201.276 311.674 201.276C310.57 201.276 309.627 201.031 308.845 200.54C308.079 200.049 307.542 199.413 307.235 198.631L308.523 197.872C308.738 198.47 309.121 198.945 309.673 199.298C310.241 199.635 310.908 199.804 311.674 199.804C312.426 199.804 313.054 199.658 313.56 199.367C314.066 199.06 314.319 198.593 314.319 197.964C314.319 197.443 314.089 197.029 313.629 196.722C313.169 196.415 312.61 196.178 311.95 196.009C311.291 195.84 310.632 195.656 309.972 195.457C309.313 195.242 308.753 194.897 308.293 194.422C307.833 193.931 307.603 193.295 307.603 192.513C307.603 191.578 307.971 190.796 308.707 190.167C309.459 189.538 310.402 189.224 311.536 189.224C312.472 189.224 313.292 189.439 313.997 189.868C314.703 190.282 315.224 190.849 315.561 191.57L314.296 192.306C313.852 191.233 312.932 190.696 311.536 190.696C310.877 190.696 310.31 190.857 309.834 191.179C309.359 191.486 309.121 191.93 309.121 192.513ZM323.639 189.224C325.035 189.224 326.131 189.653 326.928 190.512C327.741 191.355 328.147 192.498 328.147 193.939V201H326.629V193.939C326.629 192.912 326.353 192.114 325.801 191.547C325.265 190.98 324.498 190.696 323.501 190.696C322.397 190.696 321.5 191.049 320.81 191.754C320.12 192.444 319.775 193.517 319.775 194.974V201H318.257V184.9H319.775V191.294C320.634 189.914 321.922 189.224 323.639 189.224ZM331.681 203.3H330.163C331.849 199.927 332.693 196.477 332.693 192.95C332.693 189.423 331.849 185.973 330.163 182.6H331.681C333.367 185.973 334.211 189.423 334.211 192.95C334.211 196.477 333.367 199.927 331.681 203.3Z" fill="white"/>
</g>
<defs>
<filter id="filter0_d_2104_5757" x="0" y="0" width="386" height="279" filterUnits="userSpaceOnUse" color-interpolation-filters="sRGB">
<feFlood flood-opacity="0" result="BackgroundImageFix"/>
<feColorMatrix in="SourceAlpha" type="matrix" values="0 0 0 0 0 0 0 0 0 0 0 0 0 0 0 0 0 0 127 0" result="hardAlpha"/>
<feOffset dy="10"/>
<feGaussianBlur stdDeviation="13"/>
<feComposite in2="hardAlpha" operator="out"/>
<feColorMatrix type="matrix" values="0 0 0 0 0 0 0 0 0 0 0 0 0 0 0 0 0 0 0.2 0"/>
<feBlend mode="normal" in2="BackgroundImageFix" result="effect1_dropShadow_2104_5757"/>
<feBlend mode="normal" in="SourceGraphic" in2="effect1_dropShadow_2104_5757" result="shape"/>
</filter>
<linearGradient id="paint0_linear_2104_5757" x1="360" y1="227.629" x2="3.58791" y2="170.015" gradientUnits="userSpaceOnUse">
<stop offset="0.254808" stop-color="#464646"/>
<stop offset="1" stop-color="#43430D"/>
</linearGradient>
<linearGradient id="paint1_linear_2104_5757" x1="121.532" y1="16" x2="316.297" y2="182.298" gradientUnits="userSpaceOnUse">
<stop stop-color="#9F9F00"/>
<stop offset="0.509615" stop-color="#4D4D00"/>
</linearGradient>
</defs>
</svg>
