<svg width="232" height="300" viewBox="0 0 232 300" fill="none" xmlns="http://www.w3.org/2000/svg">
<path d="M10 0.551758H222C227.247 0.551758 231.5 4.80505 231.5 10.0518V289.052C231.5 294.298 227.247 298.552 222 298.552H10C4.7533 298.552 0.5 294.298 0.5 289.052V10.0518C0.500001 4.80505 4.7533 0.551758 10 0.551758Z" fill="url(#paint0_linear_2086_13070)" fill-opacity="0.3"/>
<path d="M10 0.551758H222C227.247 0.551758 231.5 4.80505 231.5 10.0518V289.052C231.5 294.298 227.247 298.552 222 298.552H10C4.7533 298.552 0.5 294.298 0.5 289.052V10.0518C0.500001 4.80505 4.7533 0.551758 10 0.551758Z" stroke="url(#paint1_linear_2086_13070)"/>
<rect x="25" y="25.0518" width="72" height="72" rx="36" stroke="#FFFF00" stroke-width="2"/>
<path d="M75.018 72.4442L66.3555 63.7817" stroke="#FFFF00" stroke-width="3.75" stroke-miterlimit="10" stroke-linecap="round" stroke-linejoin="round"/>
<path d="M66.3549 63.7818L60.1599 69.9768C58.7949 71.3418 56.5724 71.3418 55.2074 69.9768L47.7874 62.5568C46.4224 61.1918 46.4224 58.9693 47.7874 57.6043L60.1599 45.2318C61.5249 43.8668 63.7474 43.8668 65.1124 45.2318L72.5324 52.6518C73.8974 54.0168 73.8974 56.2393 72.5324 57.6043L66.3549 63.7818Z" stroke="#FFFF00" stroke-width="3.75" stroke-miterlimit="10" stroke-linecap="round" stroke-linejoin="round"/>
<path opacity="0.4" d="M43.5 76.8018H54" stroke="#FFFF00" stroke-width="3.75" stroke-miterlimit="10" stroke-linecap="round" stroke-linejoin="round"/>
<path opacity="0.4" d="M51.4805 53.9116L63.8531 66.2841" stroke="#FFFF00" stroke-width="3.75" stroke-miterlimit="10" stroke-linecap="round" stroke-linejoin="round"/>
<path d="M30.992 170.374C29.3973 170.374 28.0557 170.021 26.967 169.316C25.8783 168.595 25.1117 167.621 24.667 166.395L27.381 164.808C28.0097 166.448 29.244 167.269 31.084 167.269C31.9733 167.269 32.625 167.108 33.039 166.786C33.453 166.464 33.66 166.057 33.66 165.567C33.66 164.999 33.407 164.562 32.901 164.256C32.395 163.934 31.4903 163.589 30.187 163.221C29.4663 163.006 28.853 162.791 28.347 162.577C27.8563 162.362 27.358 162.078 26.852 161.726C26.3613 161.358 25.9857 160.898 25.725 160.346C25.4643 159.794 25.334 159.15 25.334 158.414C25.334 156.957 25.8477 155.799 26.875 154.941C27.9177 154.067 29.1673 153.63 30.624 153.63C31.9273 153.63 33.0697 153.952 34.051 154.596C35.0477 155.224 35.822 156.106 36.374 157.241L33.706 158.782C33.062 157.402 32.0347 156.712 30.624 156.712C29.9647 156.712 29.4433 156.865 29.06 157.172C28.692 157.463 28.508 157.846 28.508 158.322C28.508 158.828 28.715 159.242 29.129 159.564C29.5583 159.87 30.371 160.208 31.567 160.576C32.0577 160.729 32.4257 160.852 32.671 160.944C32.9317 161.02 33.2767 161.151 33.706 161.335C34.1507 161.503 34.488 161.664 34.718 161.818C34.9633 161.971 35.2393 162.178 35.546 162.439C35.8527 162.699 36.0827 162.968 36.236 163.244C36.4047 163.52 36.5427 163.857 36.65 164.256C36.7727 164.639 36.834 165.061 36.834 165.521C36.834 167.008 36.2897 168.189 35.201 169.063C34.1277 169.937 32.7247 170.374 30.992 170.374ZM45.0073 161.404H42.4083V166.188C42.4083 166.586 42.5079 166.878 42.7073 167.062C42.9066 167.246 43.1979 167.353 43.5813 167.384C43.9646 167.399 44.4399 167.391 45.0073 167.361V170.052C42.9679 170.282 41.5266 170.09 40.6833 169.477C39.8553 168.863 39.4413 167.767 39.4413 166.188V161.404H37.4403V158.552H39.4413V156.229L42.4083 155.332V158.552H45.0073V161.404ZM55.4798 158.552H58.4468V170.052H55.4798V168.695C54.5905 169.814 53.3408 170.374 51.7308 170.374C50.1975 170.374 48.8788 169.791 47.7748 168.626C46.6861 167.445 46.1418 166.004 46.1418 164.302C46.1418 162.6 46.6861 161.166 47.7748 160.001C48.8788 158.82 50.1975 158.23 51.7308 158.23C53.3408 158.23 54.5905 158.789 55.4798 159.909V158.552ZM50.0058 166.648C50.6038 167.246 51.3628 167.545 52.2828 167.545C53.2028 167.545 53.9618 167.246 54.5598 166.648C55.1731 166.034 55.4798 165.252 55.4798 164.302C55.4798 163.351 55.1731 162.577 54.5598 161.979C53.9618 161.365 53.2028 161.059 52.2828 161.059C51.3628 161.059 50.6038 161.365 50.0058 161.979C49.4078 162.577 49.1088 163.351 49.1088 164.302C49.1088 165.252 49.4078 166.034 50.0058 166.648ZM67.7153 161.404H65.1163V166.188C65.1163 166.586 65.2159 166.878 65.4153 167.062C65.6146 167.246 65.9059 167.353 66.2893 167.384C66.6726 167.399 67.1479 167.391 67.7153 167.361V170.052C65.6759 170.282 64.2346 170.09 63.3913 169.477C62.5633 168.863 62.1493 167.767 62.1493 166.188V161.404H60.1483V158.552H62.1493V156.229L65.1163 155.332V158.552H67.7153V161.404ZM71.9548 165.521C72.3535 166.962 73.4345 167.683 75.1978 167.683C76.3325 167.683 77.1912 167.299 77.7738 166.533L80.1658 167.913C79.0312 169.553 77.3598 170.374 75.1518 170.374C73.2505 170.374 71.7248 169.799 70.5748 168.649C69.4248 167.499 68.8498 166.05 68.8498 164.302C68.8498 162.569 69.4172 161.128 70.5518 159.978C71.6865 158.812 73.1432 158.23 74.9218 158.23C76.6085 158.23 77.9962 158.812 79.0848 159.978C80.1888 161.143 80.7408 162.584 80.7408 164.302C80.7408 164.685 80.7025 165.091 80.6258 165.521H71.9548ZM71.9088 163.221H77.7738C77.6052 162.439 77.2525 161.856 76.7158 161.473C76.1945 161.089 75.5965 160.898 74.9218 160.898C74.1245 160.898 73.4652 161.105 72.9438 161.519C72.4225 161.917 72.0775 162.485 71.9088 163.221ZM91.8741 167.016H98.0151V170.052H88.7001V153.952H91.8741V167.016ZM101.963 165.521C102.361 166.962 103.442 167.683 105.206 167.683C106.34 167.683 107.199 167.299 107.782 166.533L110.174 167.913C109.039 169.553 107.368 170.374 105.16 170.374C103.258 170.374 101.733 169.799 100.583 168.649C99.4326 167.499 98.8576 166.05 98.8576 164.302C98.8576 162.569 99.425 161.128 100.56 159.978C101.694 158.812 103.151 158.23 104.93 158.23C106.616 158.23 108.004 158.812 109.093 159.978C110.197 161.143 110.749 162.584 110.749 164.302C110.749 164.685 110.71 165.091 110.634 165.521H101.963ZM101.917 163.221H107.782C107.613 162.439 107.26 161.856 106.724 161.473C106.202 161.089 105.604 160.898 104.93 160.898C104.132 160.898 103.473 161.105 102.952 161.519C102.43 161.917 102.085 162.485 101.917 163.221ZM121.539 158.552H124.437V169.5C124.437 171.278 123.847 172.635 122.666 173.571C121.501 174.506 120.09 174.974 118.434 174.974C117.192 174.974 116.096 174.736 115.145 174.261C114.21 173.785 113.489 173.088 112.983 172.168L115.513 170.719C116.096 171.792 117.1 172.329 118.526 172.329C119.461 172.329 120.197 172.083 120.734 171.593C121.271 171.102 121.539 170.404 121.539 169.5V168.258C120.665 169.423 119.438 170.006 117.859 170.006C116.234 170.006 114.869 169.438 113.765 168.304C112.676 167.154 112.132 165.758 112.132 164.118C112.132 162.492 112.684 161.105 113.788 159.955C114.892 158.805 116.249 158.23 117.859 158.23C119.438 158.23 120.665 158.812 121.539 159.978V158.552ZM115.996 166.395C116.609 166.977 117.384 167.269 118.319 167.269C119.254 167.269 120.021 166.977 120.619 166.395C121.232 165.797 121.539 165.038 121.539 164.118C121.539 163.213 121.232 162.469 120.619 161.887C120.021 161.289 119.254 160.99 118.319 160.99C117.384 160.99 116.609 161.289 115.996 161.887C115.398 162.469 115.099 163.213 115.099 164.118C115.099 165.038 115.398 165.797 115.996 166.395ZM135.868 158.552H138.835V170.052H135.868V168.695C134.978 169.814 133.729 170.374 132.119 170.374C130.585 170.374 129.267 169.791 128.163 168.626C127.074 167.445 126.53 166.004 126.53 164.302C126.53 162.6 127.074 161.166 128.163 160.001C129.267 158.82 130.585 158.23 132.119 158.23C133.729 158.23 134.978 158.789 135.868 159.909V158.552ZM130.394 166.648C130.992 167.246 131.751 167.545 132.671 167.545C133.591 167.545 134.35 167.246 134.948 166.648C135.561 166.034 135.868 165.252 135.868 164.302C135.868 163.351 135.561 162.577 134.948 161.979C134.35 161.365 133.591 161.059 132.671 161.059C131.751 161.059 130.992 161.365 130.394 161.979C129.796 162.577 129.497 163.351 129.497 164.302C129.497 165.252 129.796 166.034 130.394 166.648ZM141.525 170.052V153.262H144.492V170.052H141.525ZM30.992 195.374C29.3973 195.374 28.0557 195.021 26.967 194.316C25.8783 193.595 25.1117 192.621 24.667 191.395L27.381 189.808C28.0097 191.448 29.244 192.269 31.084 192.269C31.9733 192.269 32.625 192.108 33.039 191.786C33.453 191.464 33.66 191.057 33.66 190.567C33.66 189.999 33.407 189.562 32.901 189.256C32.395 188.934 31.4903 188.589 30.187 188.221C29.4663 188.006 28.853 187.791 28.347 187.577C27.8563 187.362 27.358 187.078 26.852 186.726C26.3613 186.358 25.9857 185.898 25.725 185.346C25.4643 184.794 25.334 184.15 25.334 183.414C25.334 181.957 25.8477 180.799 26.875 179.941C27.9177 179.067 29.1673 178.63 30.624 178.63C31.9273 178.63 33.0697 178.952 34.051 179.596C35.0477 180.224 35.822 181.106 36.374 182.241L33.706 183.782C33.062 182.402 32.0347 181.712 30.624 181.712C29.9647 181.712 29.4433 181.865 29.06 182.172C28.692 182.463 28.508 182.846 28.508 183.322C28.508 183.828 28.715 184.242 29.129 184.564C29.5583 184.87 30.371 185.208 31.567 185.576C32.0577 185.729 32.4257 185.852 32.671 185.944C32.9317 186.02 33.2767 186.151 33.706 186.335C34.1507 186.503 34.488 186.664 34.718 186.818C34.9633 186.971 35.2393 187.178 35.546 187.439C35.8527 187.699 36.0827 187.968 36.236 188.244C36.4047 188.52 36.5427 188.857 36.65 189.256C36.7727 189.639 36.834 190.061 36.834 190.521C36.834 192.008 36.2897 193.189 35.201 194.063C34.1277 194.937 32.7247 195.374 30.992 195.374ZM41.5876 190.521C41.9863 191.962 43.0673 192.683 44.8306 192.683C45.9653 192.683 46.824 192.299 47.4066 191.533L49.7986 192.913C48.664 194.553 46.9926 195.374 44.7846 195.374C42.8833 195.374 41.3576 194.799 40.2076 193.649C39.0576 192.499 38.4826 191.05 38.4826 189.302C38.4826 187.569 39.05 186.128 40.1846 184.978C41.3193 183.812 42.776 183.23 44.5546 183.23C46.2413 183.23 47.629 183.812 48.7176 184.978C49.8216 186.143 50.3736 187.584 50.3736 189.302C50.3736 189.685 50.3353 190.091 50.2586 190.521H41.5876ZM41.5416 188.221H47.4066C47.238 187.439 46.8853 186.856 46.3486 186.473C45.8273 186.089 45.2293 185.898 44.5546 185.898C43.7573 185.898 43.098 186.105 42.5766 186.519C42.0553 186.917 41.7103 187.485 41.5416 188.221ZM55.4119 185.53C55.6879 184.794 56.1402 184.242 56.7689 183.874C57.4129 183.506 58.1259 183.322 58.9079 183.322V186.634C58.0032 186.526 57.1906 186.71 56.4699 187.186C55.7646 187.661 55.4119 188.451 55.4119 189.555V195.052H52.4449V183.552H55.4119V185.53ZM68.2101 183.552H71.4761L67.1061 195.052H63.7251L59.3551 183.552H62.6211L65.4041 191.602L68.2101 183.552ZM74.3788 182.172C73.8881 182.172 73.4588 181.995 73.0908 181.643C72.7381 181.275 72.5618 180.845 72.5618 180.355C72.5618 179.864 72.7381 179.435 73.0908 179.067C73.4588 178.699 73.8881 178.515 74.3788 178.515C74.8848 178.515 75.3141 178.699 75.6668 179.067C76.0348 179.435 76.2188 179.864 76.2188 180.355C76.2188 180.845 76.0348 181.275 75.6668 181.643C75.3141 181.995 74.8848 182.172 74.3788 182.172ZM72.9068 195.052V183.552H75.8738V195.052H72.9068ZM84.0634 195.374C82.3308 195.374 80.8818 194.791 79.7164 193.626C78.5664 192.46 77.9914 191.019 77.9914 189.302C77.9914 187.584 78.5664 186.143 79.7164 184.978C80.8818 183.812 82.3308 183.23 84.0634 183.23C85.1828 183.23 86.2024 183.498 87.1224 184.035C88.0424 184.571 88.7401 185.292 89.2154 186.197L86.6624 187.692C86.4324 187.216 86.0798 186.841 85.6044 186.565C85.1444 186.289 84.6231 186.151 84.0404 186.151C83.1511 186.151 82.4151 186.45 81.8324 187.048C81.2498 187.63 80.9584 188.382 80.9584 189.302C80.9584 190.206 81.2498 190.958 81.8324 191.556C82.4151 192.138 83.1511 192.43 84.0404 192.43C84.6384 192.43 85.1674 192.299 85.6274 192.039C86.1028 191.763 86.4554 191.387 86.6854 190.912L89.2614 192.384C88.7554 193.288 88.0424 194.017 87.1224 194.569C86.2024 195.105 85.1828 195.374 84.0634 195.374ZM93.1579 190.521C93.5566 191.962 94.6376 192.683 96.4009 192.683C97.5356 192.683 98.3943 192.299 98.9769 191.533L101.369 192.913C100.234 194.553 98.5629 195.374 96.3549 195.374C94.4536 195.374 92.9279 194.799 91.7779 193.649C90.6279 192.499 90.0529 191.05 90.0529 189.302C90.0529 187.569 90.6203 186.128 91.7549 184.978C92.8896 183.812 94.3463 183.23 96.1249 183.23C97.8116 183.23 99.1993 183.812 100.288 184.978C101.392 186.143 101.944 187.584 101.944 189.302C101.944 189.685 101.906 190.091 101.829 190.521H93.1579ZM93.1119 188.221H98.9769C98.8083 187.439 98.4556 186.856 97.9189 186.473C97.3976 186.089 96.7996 185.898 96.1249 185.898C95.3276 185.898 94.6683 186.105 94.1469 186.519C93.6256 186.917 93.2806 187.485 93.1119 188.221ZM106.303 186.818C106.303 187.124 106.502 187.377 106.901 187.577C107.315 187.761 107.813 187.929 108.396 188.083C108.979 188.221 109.561 188.405 110.144 188.635C110.727 188.849 111.217 189.217 111.616 189.739C112.03 190.26 112.237 190.912 112.237 191.694C112.237 192.874 111.792 193.787 110.903 194.431C110.029 195.059 108.933 195.374 107.614 195.374C105.253 195.374 103.643 194.461 102.784 192.637L105.36 191.188C105.697 192.184 106.449 192.683 107.614 192.683C108.672 192.683 109.201 192.353 109.201 191.694C109.201 191.387 108.994 191.142 108.58 190.958C108.181 190.758 107.691 190.582 107.108 190.429C106.525 190.275 105.943 190.084 105.36 189.854C104.777 189.624 104.279 189.263 103.865 188.773C103.466 188.267 103.267 187.638 103.267 186.887C103.267 185.752 103.681 184.863 104.509 184.219C105.352 183.559 106.395 183.23 107.637 183.23C108.572 183.23 109.423 183.444 110.19 183.874C110.957 184.288 111.562 184.886 112.007 185.668L109.477 187.048C109.109 186.266 108.496 185.875 107.637 185.875C107.254 185.875 106.932 185.959 106.671 186.128C106.426 186.296 106.303 186.526 106.303 186.818Z" fill="#FFFF00"/>
<path d="M32.48 223.012C32.48 224.596 31.184 226.164 28.768 226.164C26.528 226.164 24.944 224.916 24.912 223.076H26.464C26.56 224.004 27.216 224.932 28.768 224.932C30.176 224.932 31.008 224.132 31.008 223.076C31.008 220.068 24.976 221.988 24.976 217.844C24.976 216.004 26.464 214.756 28.672 214.756C30.8 214.756 32.192 215.924 32.368 217.62H30.768C30.672 216.868 29.968 216.02 28.608 216.004C27.408 215.972 26.464 216.596 26.464 217.796C26.464 220.676 32.48 218.884 32.48 223.012ZM38.3506 218.372C36.9266 218.372 35.7426 219.316 35.5826 221.028H41.1186C41.1346 219.316 39.8546 218.372 38.3506 218.372ZM42.4466 223.348C41.9986 224.948 40.5906 226.196 38.4146 226.196C35.9186 226.196 34.0786 224.436 34.0786 221.652C34.0786 218.884 35.8546 217.14 38.4146 217.14C40.9586 217.14 42.6226 218.932 42.6226 221.332C42.6226 221.652 42.6066 221.908 42.5746 222.212H35.5666C35.6786 223.988 36.9266 224.964 38.4146 224.964C39.7266 224.964 40.5586 224.292 40.8786 223.348H42.4466ZM57.2005 226.052V221.092C57.2005 219.3 56.2405 218.388 54.8005 218.388C53.3285 218.388 52.3205 219.332 52.3205 221.22V226.052H50.8805V221.092C50.8805 219.3 49.9205 218.388 48.4805 218.388C47.0085 218.388 46.0005 219.332 46.0005 221.22V226.052H44.5445V217.284H46.0005V218.548C46.5765 217.62 47.6165 217.124 48.7685 217.124C50.2085 217.124 51.4085 217.764 51.9845 219.076C52.4965 217.812 53.7445 217.124 55.0885 217.124C57.0885 217.124 58.6405 218.372 58.6405 220.884V226.052H57.2005ZM60.4849 221.636C60.4849 218.9 62.2929 217.14 64.6449 217.14C66.2769 217.14 67.3969 217.972 67.9089 218.884V217.284H69.3809V226.052H67.9089V224.42C67.3809 225.364 66.2449 226.196 64.6289 226.196C62.2929 226.196 60.4849 224.356 60.4849 221.636ZM67.9089 221.652C67.9089 219.62 66.5329 218.404 64.9329 218.404C63.3329 218.404 61.9729 219.572 61.9729 221.636C61.9729 223.7 63.3329 224.916 64.9329 224.916C66.5329 224.916 67.9089 223.716 67.9089 221.652ZM78.2574 226.052V221.092C78.2574 219.3 77.2814 218.388 75.8094 218.388C74.3214 218.388 73.2974 219.316 73.2974 221.204V226.052H71.8414V217.284H73.2974V218.532C73.8734 217.62 74.9294 217.124 76.1134 217.124C78.1454 217.124 79.6974 218.372 79.6974 220.884V226.052H78.2574ZM82.3958 223.652V218.484H81.2598V217.284H82.3958V215.076H83.8518V217.284H86.1398V218.484H83.8518V223.652C83.8518 224.516 84.1718 224.82 85.0677 224.82H86.1398V226.052H84.8278C83.2758 226.052 82.3958 225.412 82.3958 223.652ZM87.9039 226.052V217.284H89.3599V226.052H87.9039ZM88.6559 215.86C88.0959 215.86 87.6639 215.428 87.6639 214.868C87.6639 214.308 88.0959 213.876 88.6559 213.876C89.1839 213.876 89.6159 214.308 89.6159 214.868C89.6159 215.428 89.1839 215.86 88.6559 215.86ZM91.2974 221.652C91.2974 218.9 93.0734 217.14 95.5694 217.14C97.7454 217.14 99.1694 218.26 99.6174 220.1H98.0494C97.7454 219.044 96.8654 218.372 95.5694 218.372C93.9694 218.372 92.7854 219.508 92.7854 221.652C92.7854 223.828 93.9694 224.964 95.5694 224.964C96.8654 224.964 97.7294 224.34 98.0494 223.236H99.6174C99.1694 224.98 97.7454 226.196 95.5694 226.196C93.0734 226.196 91.2974 224.436 91.2974 221.652ZM112.13 223.668C112.13 225.108 110.866 226.196 108.93 226.196C106.882 226.196 105.442 225.076 105.346 223.476H106.85C106.93 224.324 107.682 224.964 108.914 224.964C110.066 224.964 110.706 224.388 110.706 223.668C110.706 221.716 105.522 222.852 105.522 219.588C105.522 218.244 106.786 217.14 108.738 217.14C110.674 217.14 111.954 218.18 112.05 219.892H110.594C110.53 219.012 109.858 218.372 108.69 218.372C107.618 218.372 106.978 218.884 106.978 219.588C106.978 221.668 112.066 220.532 112.13 223.668ZM117.913 218.372C116.489 218.372 115.305 219.316 115.145 221.028H120.681C120.697 219.316 119.417 218.372 117.913 218.372ZM122.009 223.348C121.561 224.948 120.153 226.196 117.977 226.196C115.481 226.196 113.641 224.436 113.641 221.652C113.641 218.884 115.417 217.14 117.977 217.14C120.521 217.14 122.185 218.932 122.185 221.332C122.185 221.652 122.169 221.908 122.137 222.212H115.129C115.241 223.988 116.489 224.964 117.977 224.964C119.289 224.964 120.121 224.292 120.441 223.348H122.009ZM123.563 221.636C123.563 218.9 125.371 217.14 127.723 217.14C129.355 217.14 130.475 217.972 130.987 218.884V217.284H132.459V226.052H130.987V224.42C130.459 225.364 129.323 226.196 127.707 226.196C125.371 226.196 123.563 224.356 123.563 221.636ZM130.987 221.652C130.987 219.62 129.611 218.404 128.011 218.404C126.411 218.404 125.051 219.572 125.051 221.636C125.051 223.7 126.411 224.916 128.011 224.916C129.611 224.916 130.987 223.716 130.987 221.652ZM136.376 221.284V226.052H134.92V217.284H136.376V218.708C136.872 217.732 137.816 217.124 139.208 217.124V218.628H138.824C137.432 218.628 136.376 219.252 136.376 221.284ZM140.344 221.652C140.344 218.9 142.12 217.14 144.616 217.14C146.792 217.14 148.216 218.26 148.664 220.1H147.096C146.792 219.044 145.912 218.372 144.616 218.372C143.016 218.372 141.832 219.508 141.832 221.652C141.832 223.828 143.016 224.964 144.616 224.964C145.912 224.964 146.776 224.34 147.096 223.236H148.664C148.216 224.98 146.792 226.196 144.616 226.196C142.12 226.196 140.344 224.436 140.344 221.652ZM150.607 226.052V214.212H152.063V218.548C152.639 217.62 153.727 217.124 154.959 217.124C156.911 217.124 158.463 218.372 158.463 220.884V226.052H157.023V221.092C157.023 219.3 156.047 218.388 154.575 218.388C153.087 218.388 152.063 219.316 152.063 221.204V226.052H150.607ZM165.107 226.052V217.284H166.563V226.052H165.107ZM165.859 215.86C165.299 215.86 164.867 215.428 164.867 214.868C164.867 214.308 165.299 213.876 165.859 213.876C166.387 213.876 166.819 214.308 166.819 214.868C166.819 215.428 166.387 215.86 165.859 215.86ZM175.461 226.052V221.092C175.461 219.3 174.485 218.388 173.013 218.388C171.525 218.388 170.501 219.316 170.501 221.204V226.052H169.045V217.284H170.501V218.532C171.077 217.62 172.133 217.124 173.317 217.124C175.349 217.124 176.901 218.372 176.901 220.884V226.052H175.461ZM24.688 243.652C24.688 240.9 26.464 239.14 28.96 239.14C31.136 239.14 32.56 240.26 33.008 242.1H31.44C31.136 241.044 30.256 240.372 28.96 240.372C27.36 240.372 26.176 241.508 26.176 243.652C26.176 245.828 27.36 246.964 28.96 246.964C30.256 246.964 31.12 246.34 31.44 245.236H33.008C32.56 246.98 31.136 248.196 28.96 248.196C26.464 248.196 24.688 246.436 24.688 243.652ZM34.4068 243.636C34.4068 240.9 36.2148 239.14 38.5668 239.14C40.1988 239.14 41.3188 239.972 41.8308 240.884V239.284H43.3028V248.052H41.8308V246.42C41.3028 247.364 40.1668 248.196 38.5508 248.196C36.2148 248.196 34.4068 246.356 34.4068 243.636ZM41.8308 243.652C41.8308 241.62 40.4548 240.404 38.8548 240.404C37.2548 240.404 35.8948 241.572 35.8948 243.636C35.8948 245.7 37.2548 246.916 38.8548 246.916C40.4548 246.916 41.8308 245.716 41.8308 243.652ZM52.0673 245.668C52.0673 247.108 50.8033 248.196 48.8673 248.196C46.8193 248.196 45.3793 247.076 45.2833 245.476H46.7873C46.8673 246.324 47.6193 246.964 48.8513 246.964C50.0033 246.964 50.6433 246.388 50.6433 245.668C50.6433 243.716 45.4593 244.852 45.4593 241.588C45.4593 240.244 46.7233 239.14 48.6753 239.14C50.6113 239.14 51.8913 240.18 51.9873 241.892H50.5313C50.4673 241.012 49.7953 240.372 48.6273 240.372C47.5553 240.372 46.9153 240.884 46.9153 241.588C46.9153 243.668 52.0033 242.532 52.0673 245.668ZM57.8506 240.372C56.4266 240.372 55.2426 241.316 55.0826 243.028H60.6186C60.6346 241.316 59.3546 240.372 57.8506 240.372ZM61.9466 245.348C61.4986 246.948 60.0906 248.196 57.9146 248.196C55.4186 248.196 53.5786 246.436 53.5786 243.652C53.5786 240.884 55.3546 239.14 57.9146 239.14C60.4586 239.14 62.1226 240.932 62.1226 243.332C62.1226 243.652 62.1066 243.908 62.0746 244.212H55.0666C55.1786 245.988 56.4266 246.964 57.9146 246.964C59.2266 246.964 60.0586 246.292 60.3786 245.348H61.9466ZM68.3101 248.052V236.212H69.7661V248.052H68.3101ZM71.7036 243.636C71.7036 240.9 73.5116 239.14 75.8636 239.14C77.4956 239.14 78.6156 239.972 79.1276 240.884V239.284H80.5996V248.052H79.1276V246.42C78.5996 247.364 77.4636 248.196 75.8476 248.196C73.5116 248.196 71.7036 246.356 71.7036 243.636ZM79.1276 243.652C79.1276 241.62 77.7516 240.404 76.1516 240.404C74.5516 240.404 73.1916 241.572 73.1916 243.636C73.1916 245.7 74.5516 246.916 76.1516 246.916C77.7516 246.916 79.1276 245.716 79.1276 243.652ZM84.7721 248.052L82.0201 239.284H83.5081L85.5241 246.644L87.7001 239.284H89.1881L91.3161 246.66L93.3001 239.284H94.7401L92.0041 248.052H90.5001L88.3881 241.092L86.2761 248.052H84.7721ZM99.9068 243.636C99.9068 240.9 101.715 239.14 104.067 239.14C105.699 239.14 106.819 239.972 107.331 240.884V239.284H108.803V248.052H107.331V246.42C106.803 247.364 105.667 248.196 104.051 248.196C101.715 248.196 99.9068 246.356 99.9068 243.636ZM107.331 243.652C107.331 241.62 105.955 240.404 104.355 240.404C102.755 240.404 101.395 241.572 101.395 243.636C101.395 245.7 102.755 246.916 104.355 246.916C105.955 246.916 107.331 245.716 107.331 243.652ZM117.679 248.052V243.092C117.679 241.3 116.703 240.388 115.231 240.388C113.743 240.388 112.719 241.316 112.719 243.204V248.052H111.263V239.284H112.719V240.532C113.295 239.62 114.351 239.124 115.535 239.124C117.567 239.124 119.119 240.372 119.119 242.884V248.052H117.679ZM120.954 243.636C120.954 240.9 122.762 239.14 125.13 239.14C126.506 239.14 127.77 239.844 128.378 240.852V236.212H129.85V248.052H128.378V246.404C127.85 247.38 126.714 248.196 125.114 248.196C122.762 248.196 120.954 246.356 120.954 243.636ZM128.378 243.652C128.378 241.62 127.002 240.404 125.402 240.404C123.802 240.404 122.442 241.572 122.442 243.636C122.442 245.7 123.802 246.916 125.402 246.916C127.002 246.916 128.378 245.716 128.378 243.652ZM142.88 245.668C142.88 247.108 141.616 248.196 139.68 248.196C137.632 248.196 136.192 247.076 136.096 245.476H137.6C137.68 246.324 138.432 246.964 139.664 246.964C140.816 246.964 141.456 246.388 141.456 245.668C141.456 243.716 136.272 244.852 136.272 241.588C136.272 240.244 137.536 239.14 139.488 239.14C141.424 239.14 142.704 240.18 142.8 241.892H141.344C141.28 241.012 140.608 240.372 139.44 240.372C138.368 240.372 137.728 240.884 137.728 241.588C137.728 243.668 142.816 242.532 142.88 245.668ZM145.255 245.652V240.484H144.119V239.284H145.255V237.076H146.711V239.284H148.999V240.484H146.711V245.652C146.711 246.516 147.031 246.82 147.927 246.82H148.999V248.052H147.687C146.135 248.052 145.255 247.412 145.255 245.652ZM150.219 243.636C150.219 240.9 152.027 239.14 154.379 239.14C156.011 239.14 157.131 239.972 157.643 240.884V239.284H159.115V248.052H157.643V246.42C157.115 247.364 155.979 248.196 154.363 248.196C152.027 248.196 150.219 246.356 150.219 243.636ZM157.643 243.652C157.643 241.62 156.267 240.404 154.667 240.404C153.067 240.404 151.707 241.572 151.707 243.636C151.707 245.7 153.067 246.916 154.667 246.916C156.267 246.916 157.643 245.716 157.643 243.652ZM161.896 245.652V240.484H160.76V239.284H161.896V237.076H163.352V239.284H165.64V240.484H163.352V245.652C163.352 246.516 163.672 246.82 164.568 246.82H165.64V248.052H164.328C162.776 248.052 161.896 247.412 161.896 245.652ZM175.18 239.284V248.052H173.724V246.756C173.164 247.668 172.092 248.18 170.924 248.18C168.908 248.18 167.324 246.932 167.324 244.42V239.284H168.764V244.228C168.764 246.004 169.74 246.916 171.212 246.916C172.716 246.916 173.724 245.988 173.724 244.1V239.284H175.18ZM177.958 245.652V240.484H176.822V239.284H177.958V237.076H179.414V239.284H181.702V240.484H179.414V245.652C179.414 246.516 179.734 246.82 180.63 246.82H181.702V248.052H180.39C178.838 248.052 177.958 247.412 177.958 245.652ZM187.194 240.372C185.77 240.372 184.586 241.316 184.426 243.028H189.962C189.978 241.316 188.698 240.372 187.194 240.372ZM191.29 245.348C190.842 246.948 189.434 248.196 187.258 248.196C184.762 248.196 182.922 246.436 182.922 243.652C182.922 240.884 184.698 239.14 187.258 239.14C189.802 239.14 191.466 240.932 191.466 243.332C191.466 243.652 191.45 243.908 191.418 244.212H184.41C184.522 245.988 185.77 246.964 187.258 246.964C188.57 246.964 189.402 246.292 189.722 245.348H191.29ZM26.688 265.284V270.052H25.232V261.284H26.688V262.708C27.184 261.732 28.128 261.124 29.52 261.124V262.628H29.136C27.744 262.628 26.688 263.252 26.688 265.284ZM34.9288 262.372C33.5048 262.372 32.3207 263.316 32.1608 265.028H37.6968C37.7128 263.316 36.4328 262.372 34.9288 262.372ZM39.0248 267.348C38.5768 268.948 37.1688 270.196 34.9928 270.196C32.4968 270.196 30.6568 268.436 30.6568 265.652C30.6568 262.884 32.4328 261.14 34.9928 261.14C37.5368 261.14 39.2008 262.932 39.2008 265.332C39.2008 265.652 39.1848 265.908 39.1528 266.212H32.1448C32.2568 267.988 33.5048 268.964 34.9928 268.964C36.3048 268.964 37.1368 268.292 37.4568 267.348H39.0248ZM42.5786 262.9C43.1066 261.972 44.2586 261.14 45.8586 261.14C48.2106 261.14 50.0186 262.9 50.0186 265.636C50.0186 268.356 48.2106 270.196 45.8586 270.196C44.2586 270.196 43.1226 269.332 42.5786 268.436V274.212H41.1226V261.284H42.5786V262.9ZM48.5306 265.636C48.5306 263.572 47.1706 262.404 45.5546 262.404C43.9706 262.404 42.5786 263.62 42.5786 265.652C42.5786 267.716 43.9706 268.916 45.5546 268.916C47.1706 268.916 48.5306 267.7 48.5306 265.636ZM60.2551 265.652C60.2551 268.436 58.2551 270.196 55.7591 270.196C53.2791 270.196 51.3911 268.436 51.3911 265.652C51.3911 262.884 53.3431 261.14 55.8231 261.14C58.3191 261.14 60.2551 262.884 60.2551 265.652ZM52.8791 265.652C52.8791 267.876 54.2391 268.916 55.7591 268.916C57.2791 268.916 58.7671 267.876 58.7671 265.652C58.7671 263.444 57.3111 262.404 55.8071 262.404C54.2711 262.404 52.8791 263.444 52.8791 265.652ZM68.4735 267.668C68.4735 269.108 67.2095 270.196 65.2735 270.196C63.2255 270.196 61.7855 269.076 61.6895 267.476H63.1935C63.2735 268.324 64.0255 268.964 65.2575 268.964C66.4095 268.964 67.0495 268.388 67.0495 267.668C67.0495 265.716 61.8655 266.852 61.8655 263.588C61.8655 262.244 63.1295 261.14 65.0815 261.14C67.0175 261.14 68.2975 262.18 68.3935 263.892H66.9375C66.8735 263.012 66.2015 262.372 65.0335 262.372C63.9615 262.372 63.3215 262.884 63.3215 263.588C63.3215 265.668 68.4095 264.532 68.4735 267.668ZM70.5289 270.052V261.284H71.9849V270.052H70.5289ZM71.2809 259.86C70.7209 259.86 70.2889 259.428 70.2889 258.868C70.2889 258.308 70.7209 257.876 71.2809 257.876C71.8089 257.876 72.2409 258.308 72.2409 258.868C72.2409 259.428 71.8089 259.86 71.2809 259.86ZM74.7864 267.652V262.484H73.6504V261.284H74.7864V259.076H76.2424V261.284H78.5304V262.484H76.2424V267.652C76.2424 268.516 76.5624 268.82 77.4584 268.82H78.5304V270.052H77.2184C75.6664 270.052 74.7864 269.412 74.7864 267.652ZM88.6145 265.652C88.6145 268.436 86.6145 270.196 84.1185 270.196C81.6385 270.196 79.7505 268.436 79.7505 265.652C79.7505 262.884 81.7025 261.14 84.1825 261.14C86.6785 261.14 88.6145 262.884 88.6145 265.652ZM81.2385 265.652C81.2385 267.876 82.5985 268.916 84.1185 268.916C85.6385 268.916 87.1265 267.876 87.1265 265.652C87.1265 263.444 85.6705 262.404 84.1665 262.404C82.6305 262.404 81.2385 263.444 81.2385 265.652ZM91.9849 265.284V270.052H90.5289V261.284H91.9849V262.708C92.4809 261.732 93.4249 261.124 94.8169 261.124V262.628H94.4329C93.0409 262.628 91.9849 263.252 91.9849 265.284ZM96.4976 270.052V261.284H97.9536V270.052H96.4976ZM97.2496 259.86C96.6896 259.86 96.2576 259.428 96.2576 258.868C96.2576 258.308 96.6896 257.876 97.2496 257.876C97.7776 257.876 98.2096 258.308 98.2096 258.868C98.2096 259.428 97.7776 259.86 97.2496 259.86ZM104.163 262.372C102.739 262.372 101.555 263.316 101.395 265.028H106.931C106.947 263.316 105.667 262.372 104.163 262.372ZM108.259 267.348C107.811 268.948 106.403 270.196 104.227 270.196C101.731 270.196 99.8911 268.436 99.8911 265.652C99.8911 262.884 101.667 261.14 104.227 261.14C106.771 261.14 108.435 262.932 108.435 265.332C108.435 265.652 108.419 265.908 108.387 266.212H101.379C101.491 267.988 102.739 268.964 104.227 268.964C105.539 268.964 106.371 268.292 106.691 267.348H108.259ZM116.661 267.668C116.661 269.108 115.397 270.196 113.461 270.196C111.413 270.196 109.973 269.076 109.877 267.476H111.381C111.461 268.324 112.213 268.964 113.445 268.964C114.597 268.964 115.237 268.388 115.237 267.668C115.237 265.716 110.053 266.852 110.053 263.588C110.053 262.244 111.317 261.14 113.269 261.14C115.205 261.14 116.485 262.18 116.581 263.892H115.125C115.061 263.012 114.389 262.372 113.221 262.372C112.149 262.372 111.509 262.884 111.509 263.588C111.509 265.668 116.597 264.532 116.661 267.668Z" fill="#E6E6E6"/>
<defs>
<linearGradient id="paint0_linear_2086_13070" x1="232" y1="278.806" x2="-20.2042" y2="257.306" gradientUnits="userSpaceOnUse">
<stop offset="0.254808" stop-color="#464646"/>
<stop offset="1" stop-color="#8C8C4C"/>
</linearGradient>
<linearGradient id="paint1_linear_2086_13070" x1="66.3578" y1="0.0517594" x2="260.843" y2="87.6224" gradientUnits="userSpaceOnUse">
<stop stop-color="#9F9F00"/>
<stop offset="0.509615" stop-color="#4D4D00"/>
</linearGradient>
</defs>
</svg>
