<svg width="302" height="109" viewBox="0 0 302 109" fill="none" xmlns="http://www.w3.org/2000/svg">
<path d="M10 0.5H292C297.247 0.5 301.5 4.75329 301.5 10V99C301.5 104.247 297.247 108.5 292 108.5H10C4.7533 108.5 0.5 104.247 0.5 99V10C0.5 4.7533 4.75329 0.5 10 0.5Z" fill="#2C2C2C"/>
<path d="M10 0.5H292C297.247 0.5 301.5 4.75329 301.5 10V99C301.5 104.247 297.247 108.5 292 108.5H10C4.7533 108.5 0.5 104.247 0.5 99V10C0.5 4.7533 4.75329 0.5 10 0.5Z" stroke="url(#paint0_linear_2119_9609)"/>
<rect x="24" y="16" width="77" height="77" rx="38.5" stroke="#FFFF00" stroke-width="1.5"/>
<g clip-path="url(#clip0_2119_9609)">
<path d="M83.1544 60.2445C83.1544 64.625 79.1123 68.188 74.1439 68.188H64.8644C64.4759 68.188 64.1604 67.8734 64.1604 67.484C64.1604 67.0947 64.475 66.78 64.8644 66.78H74.1447C78.3371 66.78 81.7473 63.848 81.7473 60.2436C81.7473 56.6392 78.3363 53.7089 74.1447 53.7089H55.5814C50.6147 53.7089 46.5735 50.145 46.5735 45.7654C46.5735 41.3858 50.6147 37.8218 55.5814 37.8218H64.8644C65.2529 37.8218 65.5684 38.1365 65.5684 38.5258C65.5684 38.9152 65.2537 39.2298 64.8644 39.2298H55.5814C51.3907 39.2298 47.9815 42.1619 47.9815 45.7663C47.9815 49.3707 51.3907 52.3027 55.5814 52.3027H74.1447C79.1132 52.3009 83.1544 55.8649 83.1544 60.2445ZM64.0259 71.5534C64.1964 72.5131 63.72 73.4712 62.9422 73.7313L53.3709 76.9323C53.2356 76.9789 53.0949 77.0026 52.9543 77.0026C52.8058 77.0026 52.6564 76.9762 52.5113 76.9244L42.9612 73.7304C42.1833 73.4694 41.7078 72.5114 41.8783 71.5499C41.9741 70.9953 42.2695 70.5321 42.6887 70.2816C42.875 70.1709 43.0754 70.1085 43.2802 70.0926V67.6326C43.2802 67.2485 43.4182 66.9013 43.6687 66.6561C44.0044 66.3344 44.457 66.2597 44.8552 66.4548L52.9534 70.4837L61.0455 66.4566C61.4516 66.2571 61.906 66.3344 62.2347 66.6552C62.4869 66.9022 62.6258 67.2494 62.6258 67.6317V70.0918C62.8288 70.1076 63.0283 70.17 63.2138 70.2798C63.633 70.5312 63.9292 70.9944 64.0259 71.5534ZM53.6566 71.7054V72.9825L61.2178 70.453V67.9428L53.6566 71.7054ZM44.6873 67.9437V70.453L52.2486 72.9825V71.7054L44.6873 67.9437ZM62.639 71.796C62.61 71.6281 62.5458 71.5384 62.5107 71.5042L62.1679 71.6193C62.1512 71.6255 62.1336 71.6316 62.116 71.6369L53.1758 74.6269C53.0308 74.6753 52.8743 74.6753 52.7293 74.6269L43.79 71.636C43.7715 71.6307 43.7539 71.6246 43.7363 71.6184L43.3927 71.5033C43.3575 71.5367 43.2934 71.6255 43.2644 71.7924C43.2081 72.1088 43.3435 72.3629 43.4112 72.3971L52.9526 75.5876L62.4957 72.3954C62.5608 72.3629 62.6952 72.1106 62.639 71.796ZM52.9526 68.9536C49.9238 68.9536 47.4603 66.49 47.4603 63.4613C47.4603 60.4343 49.9238 57.9716 52.9526 57.9716C55.9795 57.9716 58.4422 60.4343 58.4422 63.4613C58.4431 66.49 55.9804 68.9536 52.9526 68.9536ZM52.9526 67.5456C55.2034 67.5456 57.0351 65.713 57.0351 63.4613C57.0351 61.2104 55.2034 59.3788 52.9526 59.3788C50.6999 59.3788 48.8683 61.2104 48.8683 63.4613C48.8683 65.7139 50.7008 67.5456 52.9526 67.5456ZM55.8705 64.1653C56.259 64.1653 56.5745 63.8506 56.5745 63.4613C56.5745 63.0719 56.2599 62.7573 55.8705 62.7573H53.6566V60.5433C53.6566 60.1548 53.3419 59.8393 52.9526 59.8393C52.5632 59.8393 52.2486 60.154 52.2486 60.5433V63.4604C52.2486 63.8489 52.5632 64.1644 52.9526 64.1644H55.8705V64.1653ZM67.1601 40.6361C66.0087 37.2145 67.8527 33.4959 71.2716 32.3445C72.9275 31.7855 74.7011 31.905 76.2673 32.6811C77.8335 33.4572 79.0042 34.7975 79.5623 36.4534C80.7128 39.8723 78.8689 43.5919 75.4508 44.745C74.76 44.9779 74.0569 45.0886 73.3652 45.0886C70.6344 45.0895 68.0812 43.3642 67.1601 40.6361ZM68.4934 40.1861C69.2167 42.3271 71.2206 43.6806 73.3634 43.6815C73.9066 43.6815 74.4585 43.5945 74.9999 43.4117C77.6832 42.5064 79.1308 39.5867 78.2281 36.9034C77.7904 35.6035 76.8711 34.5514 75.6424 33.9423C74.9226 33.5855 74.1474 33.4053 73.3678 33.4053C72.815 33.4053 72.2604 33.4959 71.7216 33.6778C71.7216 33.6778 71.7216 33.6778 71.7207 33.6778C70.4208 34.1155 69.3688 35.0331 68.7597 36.2627C68.1506 37.4922 68.0557 38.8862 68.4934 40.1861ZM72.0398 40.2529C72.1575 40.3979 72.3289 40.4893 72.5144 40.5078C72.5381 40.5104 72.561 40.5113 72.5847 40.5113C72.7464 40.5113 72.9037 40.4559 73.0303 40.3522L76.1196 37.8262C76.4202 37.5801 76.4651 37.1372 76.219 36.8357C75.9729 36.5351 75.5299 36.4903 75.2284 36.7364L72.684 38.8168L71.7946 37.7278C71.5485 37.4272 71.1055 37.3824 70.804 37.6285C70.5034 37.8746 70.4586 38.3175 70.7047 38.619L72.0398 40.2529Z" fill="#FFFF00"/>
</g>
<path d="M145.41 46.4V49.436H141.063V62.5H137.889V49.436H133.565V46.4H145.41ZM148.551 52.978C148.827 52.242 149.279 51.69 149.908 51.322C150.552 50.954 151.265 50.77 152.047 50.77V54.082C151.142 53.9747 150.329 54.1587 149.609 54.634C148.903 55.1093 148.551 55.899 148.551 57.003V62.5H145.584V51H148.551V52.978ZM162.095 51H165.062V62.5H162.095V61.143C161.206 62.2623 159.956 62.822 158.346 62.822C156.813 62.822 155.494 62.2393 154.39 61.074C153.301 59.8933 152.757 58.452 152.757 56.75C152.757 55.048 153.301 53.6143 154.39 52.449C155.494 51.2683 156.813 50.678 158.346 50.678C159.956 50.678 161.206 51.2377 162.095 52.357V51ZM156.621 59.096C157.219 59.694 157.978 59.993 158.898 59.993C159.818 59.993 160.577 59.694 161.175 59.096C161.788 58.4827 162.095 57.7007 162.095 56.75C162.095 55.7993 161.788 55.025 161.175 54.427C160.577 53.8137 159.818 53.507 158.898 53.507C157.978 53.507 157.219 53.8137 156.621 54.427C156.023 55.025 155.724 55.7993 155.724 56.75C155.724 57.7007 156.023 58.4827 156.621 59.096ZM173.227 62.822C171.494 62.822 170.045 62.2393 168.88 61.074C167.73 59.9087 167.155 58.4673 167.155 56.75C167.155 55.0327 167.73 53.5913 168.88 52.426C170.045 51.2607 171.494 50.678 173.227 50.678C174.346 50.678 175.366 50.9463 176.286 51.483C177.206 52.0197 177.903 52.7403 178.379 53.645L175.826 55.14C175.596 54.6647 175.243 54.289 174.768 54.013C174.308 53.737 173.786 53.599 173.204 53.599C172.314 53.599 171.578 53.898 170.996 54.496C170.413 55.0787 170.122 55.83 170.122 56.75C170.122 57.6547 170.413 58.406 170.996 59.004C171.578 59.5867 172.314 59.878 173.204 59.878C173.802 59.878 174.331 59.7477 174.791 59.487C175.266 59.211 175.619 58.8353 175.849 58.36L178.425 59.832C177.919 60.7367 177.206 61.465 176.286 62.017C175.366 62.5537 174.346 62.822 173.227 62.822ZM190.597 62.5H187.147L182.961 57.279V62.5H179.994V46.4H182.961V56.06L186.917 51H190.459L185.836 56.681L190.597 62.5ZM211.467 61.58L208.937 63.029L207.465 61.442C206.223 62.362 204.781 62.822 203.141 62.822C201.485 62.822 200.128 62.3927 199.07 61.534C198.027 60.66 197.506 59.4947 197.506 58.038C197.506 57.0873 197.736 56.2057 198.196 55.393C198.656 54.5803 199.323 53.921 200.197 53.415C199.675 52.587 199.415 51.69 199.415 50.724C199.415 49.3593 199.89 48.2477 200.841 47.389C201.791 46.515 202.995 46.078 204.452 46.078C205.602 46.078 206.629 46.377 207.534 46.975C208.454 47.5577 209.136 48.4087 209.581 49.528L206.867 51.092C206.422 49.804 205.632 49.16 204.498 49.16C203.946 49.16 203.486 49.321 203.118 49.643C202.765 49.965 202.589 50.3713 202.589 50.862C202.589 51.2913 202.688 51.6823 202.888 52.035C203.102 52.3877 203.44 52.8093 203.9 53.3L207.35 57.072C207.687 56.3513 207.948 55.462 208.132 54.404L210.8 55.922C210.508 57.164 210.041 58.291 209.397 59.303L211.467 61.58ZM203.348 59.901C204.145 59.901 204.858 59.7093 205.487 59.326L202.014 55.554C201.983 55.5233 201.968 55.5003 201.968 55.485C201.124 56.0063 200.703 56.75 200.703 57.716C200.703 58.3753 200.925 58.9043 201.37 59.303C201.83 59.7017 202.489 59.901 203.348 59.901ZM222.365 59.464H228.506V62.5H219.191V46.4H222.365V59.464ZM232.454 57.969C232.853 59.4103 233.934 60.131 235.697 60.131C236.832 60.131 237.69 59.7477 238.273 58.981L240.665 60.361C239.53 62.0017 237.859 62.822 235.651 62.822C233.75 62.822 232.224 62.247 231.074 61.097C229.924 59.947 229.349 58.498 229.349 56.75C229.349 55.0173 229.916 53.576 231.051 52.426C232.186 51.2607 233.642 50.678 235.421 50.678C237.108 50.678 238.495 51.2607 239.584 52.426C240.688 53.5913 241.24 55.0327 241.24 56.75C241.24 57.1333 241.202 57.5397 241.125 57.969H232.454ZM232.408 55.669H238.273C238.104 54.887 237.752 54.3043 237.215 53.921C236.694 53.5377 236.096 53.346 235.421 53.346C234.624 53.346 233.964 53.553 233.443 53.967C232.922 54.3657 232.577 54.933 232.408 55.669ZM251.961 51H254.928V62.5H251.961V61.143C251.072 62.2623 249.822 62.822 248.212 62.822C246.679 62.822 245.36 62.2393 244.256 61.074C243.168 59.8933 242.623 58.452 242.623 56.75C242.623 55.048 243.168 53.6143 244.256 52.449C245.36 51.2683 246.679 50.678 248.212 50.678C249.822 50.678 251.072 51.2377 251.961 52.357V51ZM246.487 59.096C247.085 59.694 247.844 59.993 248.764 59.993C249.684 59.993 250.443 59.694 251.041 59.096C251.655 58.4827 251.961 57.7007 251.961 56.75C251.961 55.7993 251.655 55.025 251.041 54.427C250.443 53.8137 249.684 53.507 248.764 53.507C247.844 53.507 247.085 53.8137 246.487 54.427C245.889 55.025 245.59 55.7993 245.59 56.75C245.59 57.7007 245.889 58.4827 246.487 59.096ZM260.586 52.978C260.862 52.242 261.314 51.69 261.943 51.322C262.587 50.954 263.3 50.77 264.082 50.77V54.082C263.177 53.9747 262.364 54.1587 261.644 54.634C260.938 55.1093 260.586 55.899 260.586 57.003V62.5H257.619V51H260.586V52.978ZM272.211 50.678C273.468 50.678 274.503 51.0997 275.316 51.943C276.144 52.7863 276.558 53.9517 276.558 55.439V62.5H273.591V55.807C273.591 55.0403 273.384 54.4577 272.97 54.059C272.556 53.645 272.004 53.438 271.314 53.438C270.547 53.438 269.934 53.6757 269.474 54.151C269.014 54.6263 268.784 55.3393 268.784 56.29V62.5H265.817V51H268.784V52.288C269.505 51.2147 270.647 50.678 272.211 50.678Z" fill="white"/>
<defs>
<linearGradient id="paint0_linear_2119_9609" x1="86.3795" y1="5.84669e-07" x2="171.313" y2="136.558" gradientUnits="userSpaceOnUse">
<stop stop-color="#9F9F00"/>
<stop offset="0.509615" stop-color="#4D4D00"/>
</linearGradient>
<clipPath id="clip0_2119_9609">
<rect width="45" height="45" fill="white" transform="translate(40 32)"/>
</clipPath>
</defs>
</svg>
