<svg width="360" height="109" viewBox="0 0 360 109" fill="none" xmlns="http://www.w3.org/2000/svg">
<path d="M10 1H350C355.247 1 359.5 5.2533 359.5 10.5V98.5C359.5 103.747 355.247 108 350 108H10C4.7533 108 0.5 103.747 0.5 98.5V10.5C0.5 5.2533 4.7533 1 10 1Z" fill="#2C2C2C"/>
<path d="M10 1H350C355.247 1 359.5 5.2533 359.5 10.5V98.5C359.5 103.747 355.247 108 350 108H10C4.7533 108 0.5 103.747 0.5 98.5V10.5C0.5 5.2533 4.7533 1 10 1Z" stroke="url(#paint0_linear_2119_9525)"/>
<rect x="24" y="16.5" width="77" height="76" rx="38" stroke="#FFFF00" stroke-width="1.5"/>
<path d="M78.5549 47.1902C78.4384 47.1902 78.322 47.1937 78.2055 47.1996C77.7073 45.6098 76.7537 44.2283 75.5078 43.1826V35.0781C75.5078 33.6564 74.3251 32.5 72.8711 32.5H44.043C41.8138 32.5 40 34.2735 40 36.4531V72.5469C40 74.7265 41.8138 76.5 44.043 76.5H72.8711C74.3251 76.5 75.5078 75.3436 75.5078 73.9219V59.7946H78.5549C82.1084 59.7946 85 56.9677 85 53.4927C85 50.0176 82.1084 47.1902 78.5549 47.1902ZM73.75 67.7344C73.75 68.2084 73.3559 68.5938 72.8711 68.5938H65.2686C64.783 68.5938 64.3896 68.9783 64.3896 69.4531C64.3896 69.9279 64.783 70.3125 65.2686 70.3125H72.8711C73.1793 70.3125 73.4751 70.2601 73.75 70.1648V73.9219C73.75 74.3959 73.3559 74.7812 72.8711 74.7812H44.043C42.7828 74.7812 41.7578 73.779 41.7578 72.5469C41.7578 71.3147 42.7828 70.3125 44.043 70.3125H57.7539C58.2395 70.3125 58.6328 69.9279 58.6328 69.4531C58.6328 68.9783 58.2395 68.5938 57.7539 68.5938H47.3828V43.9727C47.3828 43.4979 46.9895 43.1133 46.5039 43.1133C46.0183 43.1133 45.625 43.4979 45.625 43.9727V68.5938H44.043C43.1954 68.5938 42.4085 68.8505 41.7578 69.288V36.4531C41.7578 35.221 42.7828 34.2188 44.043 34.2188H72.8711C73.3559 34.2188 73.75 34.6041 73.75 35.0781V42.0297C72.5374 41.4241 71.1726 41.0841 69.7455 41.0841C65.7651 41.0841 62.2663 43.7197 61.2184 47.426C58.4658 48.1814 56.5234 50.6484 56.5234 53.4927C56.5234 56.9675 59.415 59.7946 62.9686 59.7946H68.125V62.8069C68.125 63.2817 68.5183 63.6663 69.0039 63.6663H72.5195C73.0051 63.6663 73.3984 63.2817 73.3984 62.8069V59.7946H73.75V67.7344ZM72.1831 52.5742C71.8549 52.7071 71.6406 53.0203 71.6406 53.368V61.9481H69.8828V53.368C69.8828 53.0203 69.6686 52.7071 69.3404 52.5742C69.0119 52.4407 68.6337 52.5143 68.3826 52.76L66.9442 54.1667L65.7011 52.951L70.7617 48.0031L75.8223 52.951L74.5792 54.1667L73.1408 52.76C72.8898 52.5143 72.5116 52.4407 72.1831 52.5742ZM78.5549 58.0758H73.3984V55.4426L73.9576 55.9899C74.301 56.3251 74.8574 56.3251 75.2007 55.9899L77.6864 53.559C78.0297 53.2233 78.0297 52.6792 77.6864 52.3435L71.383 46.1802C71.2182 46.019 70.9949 45.9283 70.7617 45.9283C70.5285 45.9283 70.3052 46.019 70.1404 46.1802L63.837 52.3435C63.4937 52.6792 63.4937 53.2233 63.837 53.559L66.3227 55.9899C66.666 56.3251 67.2225 56.3251 67.5658 55.9899L68.125 55.4426V58.0758H62.9686C60.384 58.0758 58.2812 56.0198 58.2812 53.4927C58.2812 51.2849 59.8896 49.3897 62.1059 48.9868C62.4566 48.9232 62.7332 48.6584 62.8054 48.3168C63.4838 45.1218 66.4026 42.8028 69.7458 42.8028C73.0875 42.8028 76.006 45.1207 76.6855 48.3141C76.7825 48.7712 77.234 49.0685 77.704 48.9844C77.9836 48.9345 78.2698 48.9092 78.5549 48.9092C81.1394 48.9092 83.2422 50.9653 83.2422 53.4927C83.2422 56.0198 81.1394 58.0758 78.5549 58.0758Z" fill="#FFFF00"/>
<path d="M140.621 62.822C138.827 62.822 137.355 62.316 136.205 61.304C135.055 60.292 134.48 58.935 134.48 57.233V46.4H137.631V56.98C137.631 57.8233 137.868 58.4903 138.344 58.981C138.834 59.4717 139.593 59.717 140.621 59.717C141.648 59.717 142.399 59.4717 142.875 58.981C143.365 58.4903 143.611 57.8233 143.611 56.98V46.4H146.785V57.233C146.785 58.935 146.21 60.292 145.06 61.304C143.91 62.316 142.43 62.822 140.621 62.822ZM156.199 50.678C157.748 50.678 159.066 51.2683 160.155 52.449C161.259 53.6143 161.811 55.048 161.811 56.75C161.811 58.452 161.259 59.8933 160.155 61.074C159.066 62.2393 157.748 62.822 156.199 62.822C154.589 62.822 153.347 62.2623 152.473 61.143V67.1H149.506V51H152.473V52.357C153.347 51.2377 154.589 50.678 156.199 50.678ZM153.37 59.096C153.968 59.694 154.727 59.993 155.647 59.993C156.567 59.993 157.326 59.694 157.924 59.096C158.537 58.4827 158.844 57.7007 158.844 56.75C158.844 55.7993 158.537 55.025 157.924 54.427C157.326 53.8137 156.567 53.507 155.647 53.507C154.727 53.507 153.968 53.8137 153.37 54.427C152.772 55.025 152.473 55.7993 152.473 56.75C152.473 57.7007 152.772 58.4827 153.37 59.096ZM163.903 62.5V45.71H166.87V62.5H163.903ZM179.384 61.074C178.203 62.2393 176.762 62.822 175.06 62.822C173.358 62.822 171.917 62.2393 170.736 61.074C169.571 59.8933 168.988 58.452 168.988 56.75C168.988 55.048 169.571 53.6143 170.736 52.449C171.917 51.2683 173.358 50.678 175.06 50.678C176.762 50.678 178.203 51.2683 179.384 52.449C180.565 53.6143 181.155 55.048 181.155 56.75C181.155 58.452 180.565 59.8933 179.384 61.074ZM172.829 59.027C173.427 59.625 174.171 59.924 175.06 59.924C175.949 59.924 176.693 59.625 177.291 59.027C177.889 58.429 178.188 57.67 178.188 56.75C178.188 55.83 177.889 55.071 177.291 54.473C176.693 53.875 175.949 53.576 175.06 53.576C174.171 53.576 173.427 53.875 172.829 54.473C172.246 55.071 171.955 55.83 171.955 56.75C171.955 57.67 172.246 58.429 172.829 59.027ZM191.982 51H194.949V62.5H191.982V61.143C191.093 62.2623 189.843 62.822 188.233 62.822C186.7 62.822 185.381 62.2393 184.277 61.074C183.189 59.8933 182.644 58.452 182.644 56.75C182.644 55.048 183.189 53.6143 184.277 52.449C185.381 51.2683 186.7 50.678 188.233 50.678C189.843 50.678 191.093 51.2377 191.982 52.357V51ZM186.508 59.096C187.106 59.694 187.865 59.993 188.785 59.993C189.705 59.993 190.464 59.694 191.062 59.096C191.676 58.4827 191.982 57.7007 191.982 56.75C191.982 55.7993 191.676 55.025 191.062 54.427C190.464 53.8137 189.705 53.507 188.785 53.507C187.865 53.507 187.106 53.8137 186.508 54.427C185.91 55.025 185.611 55.7993 185.611 56.75C185.611 57.7007 185.91 58.4827 186.508 59.096ZM206.357 46.4H209.324V62.5H206.357V61.143C205.483 62.2623 204.241 62.822 202.631 62.822C201.082 62.822 199.756 62.2393 198.652 61.074C197.563 59.8933 197.019 58.452 197.019 56.75C197.019 55.048 197.563 53.6143 198.652 52.449C199.756 51.2683 201.082 50.678 202.631 50.678C204.241 50.678 205.483 51.2377 206.357 52.357V46.4ZM200.883 59.096C201.496 59.694 202.263 59.993 203.183 59.993C204.103 59.993 204.862 59.694 205.46 59.096C206.058 58.4827 206.357 57.7007 206.357 56.75C206.357 55.7993 206.058 55.025 205.46 54.427C204.862 53.8137 204.103 53.507 203.183 53.507C202.263 53.507 201.496 53.8137 200.883 54.427C200.285 55.025 199.986 55.7993 199.986 56.75C199.986 57.7007 200.285 58.4827 200.883 59.096ZM230.506 62.5H226.849L221.099 54.956V62.5H217.925V46.4H221.099V53.507L226.619 46.4H230.276L224.319 54.22L230.506 62.5ZM238.332 50.678C239.589 50.678 240.624 51.0997 241.437 51.943C242.265 52.7863 242.679 53.9517 242.679 55.439V62.5H239.712V55.807C239.712 55.0403 239.505 54.4577 239.091 54.059C238.677 53.645 238.125 53.438 237.435 53.438C236.668 53.438 236.055 53.6757 235.595 54.151C235.135 54.6263 234.905 55.3393 234.905 56.29V62.5H231.938V51H234.905V52.288C235.625 51.2147 236.768 50.678 238.332 50.678ZM255.01 61.074C253.829 62.2393 252.388 62.822 250.686 62.822C248.984 62.822 247.543 62.2393 246.362 61.074C245.197 59.8933 244.614 58.452 244.614 56.75C244.614 55.048 245.197 53.6143 246.362 52.449C247.543 51.2683 248.984 50.678 250.686 50.678C252.388 50.678 253.829 51.2683 255.01 52.449C256.191 53.6143 256.781 55.048 256.781 56.75C256.781 58.452 256.191 59.8933 255.01 61.074ZM248.455 59.027C249.053 59.625 249.797 59.924 250.686 59.924C251.575 59.924 252.319 59.625 252.917 59.027C253.515 58.429 253.814 57.67 253.814 56.75C253.814 55.83 253.515 55.071 252.917 54.473C252.319 53.875 251.575 53.576 250.686 53.576C249.797 53.576 249.053 53.875 248.455 54.473C247.872 55.071 247.581 55.83 247.581 56.75C247.581 57.67 247.872 58.429 248.455 59.027ZM271.368 51H274.519L270.862 62.5H268.033L265.917 55.531L263.801 62.5H260.972L257.315 51H260.466L262.421 58.061L264.514 51H267.32L269.413 58.084L271.368 51ZM276.118 62.5V45.71H279.085V62.5H276.118ZM284.308 57.969C284.707 59.4103 285.788 60.131 287.551 60.131C288.686 60.131 289.544 59.7477 290.127 58.981L292.519 60.361C291.384 62.0017 289.713 62.822 287.505 62.822C285.604 62.822 284.078 62.247 282.928 61.097C281.778 59.947 281.203 58.498 281.203 56.75C281.203 55.0173 281.77 53.576 282.905 52.426C284.04 51.2607 285.496 50.678 287.275 50.678C288.962 50.678 290.349 51.2607 291.438 52.426C292.542 53.5913 293.094 55.0327 293.094 56.75C293.094 57.1333 293.056 57.5397 292.979 57.969H284.308ZM284.262 55.669H290.127C289.958 54.887 289.606 54.3043 289.069 53.921C288.548 53.5377 287.95 53.346 287.275 53.346C286.478 53.346 285.818 53.553 285.297 53.967C284.776 54.3657 284.431 54.933 284.262 55.669ZM303.792 46.4H306.759V62.5H303.792V61.143C302.918 62.2623 301.676 62.822 300.066 62.822C298.518 62.822 297.191 62.2393 296.087 61.074C294.999 59.8933 294.454 58.452 294.454 56.75C294.454 55.048 294.999 53.6143 296.087 52.449C297.191 51.2683 298.518 50.678 300.066 50.678C301.676 50.678 302.918 51.2377 303.792 52.357V46.4ZM298.318 59.096C298.932 59.694 299.698 59.993 300.618 59.993C301.538 59.993 302.297 59.694 302.895 59.096C303.493 58.4827 303.792 57.7007 303.792 56.75C303.792 55.7993 303.493 55.025 302.895 54.427C302.297 53.8137 301.538 53.507 300.618 53.507C299.698 53.507 298.932 53.8137 298.318 54.427C297.72 55.025 297.421 55.7993 297.421 56.75C297.421 57.7007 297.72 58.4827 298.318 59.096ZM318.282 51H321.18V61.948C321.18 63.7267 320.589 65.0837 319.409 66.019C318.243 66.9543 316.833 67.422 315.177 67.422C313.935 67.422 312.838 67.1843 311.888 66.709C310.952 66.2337 310.232 65.536 309.726 64.616L312.256 63.167C312.838 64.2403 313.843 64.777 315.269 64.777C316.204 64.777 316.94 64.5317 317.477 64.041C318.013 63.5503 318.282 62.8527 318.282 61.948V60.706C317.408 61.8713 316.181 62.454 314.602 62.454C312.976 62.454 311.612 61.8867 310.508 60.752C309.419 59.602 308.875 58.2067 308.875 56.566C308.875 54.9407 309.427 53.553 310.531 52.403C311.635 51.253 312.992 50.678 314.602 50.678C316.181 50.678 317.408 51.2607 318.282 52.426V51ZM312.739 58.843C313.352 59.4257 314.126 59.717 315.062 59.717C315.997 59.717 316.764 59.4257 317.362 58.843C317.975 58.245 318.282 57.486 318.282 56.566C318.282 55.6613 317.975 54.9177 317.362 54.335C316.764 53.737 315.997 53.438 315.062 53.438C314.126 53.438 313.352 53.737 312.739 54.335C312.141 54.9177 311.842 55.6613 311.842 56.566C311.842 57.486 312.141 58.245 312.739 58.843ZM326.377 57.969C326.776 59.4103 327.857 60.131 329.62 60.131C330.755 60.131 331.614 59.7477 332.196 58.981L334.588 60.361C333.454 62.0017 331.782 62.822 329.574 62.822C327.673 62.822 326.147 62.247 324.997 61.097C323.847 59.947 323.272 58.498 323.272 56.75C323.272 55.0173 323.84 53.576 324.974 52.426C326.109 51.2607 327.566 50.678 329.344 50.678C331.031 50.678 332.419 51.2607 333.507 52.426C334.611 53.5913 335.163 55.0327 335.163 56.75C335.163 57.1333 335.125 57.5397 335.048 57.969H326.377ZM326.331 55.669H332.196C332.028 54.887 331.675 54.3043 331.138 53.921C330.617 53.5377 330.019 53.346 329.344 53.346C328.547 53.346 327.888 53.553 327.366 53.967C326.845 54.3657 326.5 54.933 326.331 55.669Z" fill="white"/>
<defs>
<linearGradient id="paint0_linear_2119_9525" x1="102.969" y1="0.500001" x2="179.518" y2="148.572" gradientUnits="userSpaceOnUse">
<stop stop-color="#9F9F00"/>
<stop offset="0.509615" stop-color="#4D4D00"/>
</linearGradient>
</defs>
</svg>
