<svg width="344" height="109" viewBox="0 0 344 109" fill="none" xmlns="http://www.w3.org/2000/svg">
<path d="M10 0.5H334C339.247 0.5 343.5 4.75329 343.5 10V99C343.5 104.247 339.247 108.5 334 108.5H10C4.7533 108.5 0.5 104.247 0.5 99V10C0.5 4.7533 4.7533 0.5 10 0.5Z" fill="#2C2C2C"/>
<path d="M10 0.5H334C339.247 0.5 343.5 4.75329 343.5 10V99C343.5 104.247 339.247 108.5 334 108.5H10C4.7533 108.5 0.5 104.247 0.5 99V10C0.5 4.7533 4.7533 0.5 10 0.5Z" stroke="url(#paint0_linear_2119_9596)"/>
<rect x="24" y="16" width="77" height="77" rx="38.5" stroke="#FFFF00" stroke-width="1.5"/>
<g clip-path="url(#clip0_2119_9596)">
<path d="M80.8396 47.2329C79.9963 46.9936 79.1256 46.8676 78.2492 46.8575C76.9309 38.3099 69.5757 32.0011 60.927 32C51.2593 32 43.4023 39.8573 43.4023 49.5246C43.4102 57.7208 49.0902 64.8199 57.0848 66.6257C57.0946 66.6257 57.1044 66.6351 57.1235 66.6351H57.1329L62.2558 71.7576C62.4721 71.9761 62.8091 72.0198 63.0743 71.8637L66.3575 69.9089L69.8239 73.3753C69.9488 73.5017 70.118 73.5743 70.296 73.5777C70.4742 73.5788 70.6454 73.5055 70.7676 73.3753L74.0704 70.0725C74.2498 69.8943 74.3134 69.6295 74.234 69.3891L72.6742 64.5073L78.0856 59.0956C79.944 57.2375 82.7075 52.7503 81.3113 47.7143C81.2503 47.4819 81.0709 47.2987 80.8396 47.2329ZM55.1786 58.73L58.645 62.1964L57.7205 63.7464C55.9101 62.1768 54.485 60.1356 53.5127 57.7475C54.4098 57.2913 55.3478 56.9204 56.3145 56.6402L55.1786 57.7765C55.0522 57.9014 54.9796 58.0706 54.9762 58.2485C54.9792 58.4287 55.0518 58.6014 55.1786 58.73ZM58.481 54.4737L58.0958 54.8589C56.3389 55.1402 54.6347 55.6856 53.0407 56.4766C52.3858 54.4432 52.0323 52.3249 51.9913 50.1889H60.2529V54.6569L59.1648 54.3007C58.9222 54.233 58.6623 54.2992 58.481 54.4737ZM44.7598 48.8506C44.9039 45.3315 46.1959 41.9565 48.4383 39.2409C49.4505 40.2669 50.5894 41.1602 51.8276 41.8986C51.1055 44.0169 50.7011 46.3471 50.6334 48.8408H44.7598V48.8506ZM53.0407 42.5628C55.2873 43.6788 57.746 44.3024 60.2529 44.3923V48.8408H51.9913C52.0315 46.7082 52.3851 44.5928 53.0407 42.5628ZM61.601 44.3923C64.1071 44.2972 66.5636 43.6634 68.8035 42.5339C69.4388 44.4597 69.7949 46.5878 69.8627 48.8506H61.601V44.3923ZM61.601 43.0443V33.5504C64.6243 35.1678 66.9352 37.8544 68.3314 41.2535C66.2477 42.3398 63.9491 42.9518 61.601 43.0443ZM60.2529 43.0443C57.9021 42.9521 55.5991 42.3511 53.5029 41.2821C54.8991 37.8639 57.21 35.1678 60.2529 33.5504V43.0443ZM61.601 50.1986H69.7374C69.643 50.2803 69.5527 50.3671 69.4677 50.4585L69.4388 50.4875C69.2172 50.7474 65.905 54.06 64.0563 55.8989L61.6104 55.0996V50.1986H61.601ZM71.509 48.8506H71.2107C71.143 46.3471 70.7387 43.9978 70.0071 41.8696C71.2393 41.1241 72.3718 40.2244 73.3772 39.1927C75.2263 41.4021 76.4438 44.0704 76.9012 46.915C74.802 47.1463 72.9341 47.9456 71.509 48.8506ZM72.4625 38.1915C71.5789 39.1051 70.5901 39.91 69.5159 40.5889C68.3314 37.7871 66.5693 35.4374 64.3163 33.7042C67.4125 34.3696 70.2452 35.9302 72.4625 38.1915ZM57.5377 33.7042C55.2749 35.4374 53.5029 37.7965 52.3185 40.6179C51.236 39.9461 50.2374 39.1476 49.3433 38.2396C51.5685 35.9535 54.4192 34.376 57.5377 33.7042ZM44.7598 50.1986H50.6432C50.7105 52.6732 51.1149 55.0131 51.8468 57.1412C50.6045 57.8811 49.4622 58.7774 48.4477 59.8084C48.4188 59.7696 48.3902 59.741 48.3612 59.7023C46.1691 57.0047 44.9065 53.6714 44.7598 50.1986ZM49.3433 60.8096C50.2381 59.8934 51.2405 59.0881 52.3283 58.4122C53.4164 61.012 55.0052 63.2266 57.0175 64.9211L56.8636 65.1814C54.0032 64.4411 51.4019 62.9291 49.3433 60.8096ZM62.8238 70.4291L58.1154 65.7204L59.627 63.1879L65.3657 68.9269L62.8238 70.4291ZM77.1325 58.1327L71.4319 63.8427C71.2524 64.0214 71.1889 64.2858 71.2682 64.5265L72.8281 69.4083L70.296 71.9408L66.945 68.5898L59.9735 61.6281L56.6033 58.2579L59.1358 55.7255L64.0176 57.324C64.2583 57.4045 64.5235 57.3409 64.7014 57.1604C67.4073 54.4545 70.0744 51.7776 70.4208 51.412C72.0292 49.8135 75.8228 47.4544 80.1077 48.4556C81.1089 52.7311 78.7404 56.5345 77.1325 58.1327Z" fill="#FFFF00"/>
<path d="M51.5449 76.0466L55.7459 71.8459L56.699 72.7991L52.498 77L51.5449 76.0466Z" fill="#FFFF00"/>
<path d="M57.6895 75.2113L59.8409 73.0598L60.7944 74.0129L58.6426 76.1644L57.6895 75.2113Z" fill="#FFFF00"/>
<path d="M52.3613 69.9187L54.5128 67.7668L55.4663 68.7203L53.3148 70.8718L52.3613 69.9187Z" fill="#FFFF00"/>
<path d="M73.9177 52.2688C72.6148 52.2688 71.5586 53.325 71.5586 54.6279C71.5586 55.9308 72.6148 56.987 73.9177 56.987C75.2206 56.987 76.2768 55.9308 76.2768 54.6279C76.2749 53.3257 75.2198 52.2711 73.9177 52.2688ZM73.9177 55.6389C73.3595 55.6389 72.9066 55.1864 72.9066 54.6279C72.9066 54.0693 73.3595 53.6168 73.9177 53.6168C74.4762 53.6168 74.9287 54.0693 74.9287 54.6279C74.9287 55.1864 74.4762 55.6389 73.9177 55.6389Z" fill="#FFFF00"/>
</g>
<path d="M140.974 46.4C143.182 46.4 145.022 47.1743 146.494 48.723C147.981 50.2717 148.725 52.1807 148.725 54.45C148.725 56.7193 147.981 58.6283 146.494 60.177C145.022 61.7257 143.182 62.5 140.974 62.5H134.58V46.4H140.974ZM140.974 59.464C142.369 59.464 143.504 59.004 144.378 58.084C145.252 57.1487 145.689 55.9373 145.689 54.45C145.689 52.9627 145.252 51.759 144.378 50.839C143.504 49.9037 142.369 49.436 140.974 49.436H137.754V59.464H140.974ZM153.345 57.969C153.744 59.4103 154.825 60.131 156.588 60.131C157.723 60.131 158.582 59.7477 159.164 58.981L161.556 60.361C160.422 62.0017 158.75 62.822 156.542 62.822C154.641 62.822 153.115 62.247 151.965 61.097C150.815 59.947 150.24 58.498 150.24 56.75C150.24 55.0173 150.808 53.576 151.942 52.426C153.077 51.2607 154.534 50.678 156.312 50.678C157.999 50.678 159.387 51.2607 160.475 52.426C161.579 53.5913 162.131 55.0327 162.131 56.75C162.131 57.1333 162.093 57.5397 162.016 57.969H153.345ZM153.299 55.669H159.164C158.996 54.887 158.643 54.3043 158.106 53.921C157.585 53.5377 156.987 53.346 156.312 53.346C155.515 53.346 154.856 53.553 154.334 53.967C153.813 54.3657 153.468 54.933 153.299 55.669ZM170.896 50.678C172.444 50.678 173.763 51.2683 174.852 52.449C175.956 53.6143 176.508 55.048 176.508 56.75C176.508 58.452 175.956 59.8933 174.852 61.074C173.763 62.2393 172.444 62.822 170.896 62.822C169.286 62.822 168.044 62.2623 167.17 61.143V67.1H164.203V51H167.17V52.357C168.044 51.2377 169.286 50.678 170.896 50.678ZM168.067 59.096C168.665 59.694 169.424 59.993 170.344 59.993C171.264 59.993 172.023 59.694 172.621 59.096C173.234 58.4827 173.541 57.7007 173.541 56.75C173.541 55.7993 173.234 55.025 172.621 54.427C172.023 53.8137 171.264 53.507 170.344 53.507C169.424 53.507 168.665 53.8137 168.067 54.427C167.469 55.025 167.17 55.7993 167.17 56.75C167.17 57.7007 167.469 58.4827 168.067 59.096ZM178.6 62.5V45.71H181.567V62.5H178.6ZM194.081 61.074C192.9 62.2393 191.459 62.822 189.757 62.822C188.055 62.822 186.613 62.2393 185.433 61.074C184.267 59.8933 183.685 58.452 183.685 56.75C183.685 55.048 184.267 53.6143 185.433 52.449C186.613 51.2683 188.055 50.678 189.757 50.678C191.459 50.678 192.9 51.2683 194.081 52.449C195.261 53.6143 195.852 55.048 195.852 56.75C195.852 58.452 195.261 59.8933 194.081 61.074ZM187.526 59.027C188.124 59.625 188.867 59.924 189.757 59.924C190.646 59.924 191.39 59.625 191.988 59.027C192.586 58.429 192.885 57.67 192.885 56.75C192.885 55.83 192.586 55.071 191.988 54.473C191.39 53.875 190.646 53.576 189.757 53.576C188.867 53.576 188.124 53.875 187.526 54.473C186.943 55.071 186.652 55.83 186.652 56.75C186.652 57.67 186.943 58.429 187.526 59.027ZM204.988 51H208.162L203.976 62.5C203.378 64.156 202.58 65.352 201.584 66.088C200.602 66.8393 199.376 67.1767 197.904 67.1V64.34C198.701 64.3553 199.33 64.1867 199.79 63.834C200.265 63.4813 200.641 62.914 200.917 62.132L196.202 51H199.445L202.435 58.728L204.988 51ZM225.812 62.5L224.846 59.602H218.429L217.463 62.5H214.036L219.671 46.4H223.604L229.262 62.5H225.812ZM219.441 56.635H223.857L221.649 50.057L219.441 56.635ZM237.081 50.678C238.338 50.678 239.373 51.0997 240.186 51.943C241.014 52.7863 241.428 53.9517 241.428 55.439V62.5H238.461V55.807C238.461 55.0403 238.254 54.4577 237.84 54.059C237.426 53.645 236.874 53.438 236.184 53.438C235.417 53.438 234.804 53.6757 234.344 54.151C233.884 54.6263 233.654 55.3393 233.654 56.29V62.5H230.687V51H233.654V52.288C234.375 51.2147 235.517 50.678 237.081 50.678ZM251.212 51H254.386L250.2 62.5C249.602 64.156 248.805 65.352 247.808 66.088C246.827 66.8393 245.6 67.1767 244.128 67.1V64.34C244.926 64.3553 245.554 64.1867 246.014 63.834C246.49 63.4813 246.865 62.914 247.141 62.132L242.426 51H245.669L248.659 58.728L251.212 51ZM268.747 51H271.898L268.241 62.5H265.412L263.296 55.531L261.18 62.5H258.351L254.694 51H257.845L259.8 58.061L261.893 51H264.699L266.792 58.084L268.747 51ZM279.892 50.678C281.149 50.678 282.184 51.0997 282.997 51.943C283.825 52.7863 284.239 53.9517 284.239 55.439V62.5H281.272V55.807C281.272 55.0403 281.065 54.4577 280.651 54.059C280.237 53.645 279.685 53.438 278.995 53.438C278.228 53.438 277.615 53.6757 277.155 54.151C276.695 54.6263 276.465 55.3393 276.465 56.29V62.5H273.498V46.4H276.465V52.288C277.185 51.2147 278.328 50.678 279.892 50.678ZM289.279 57.969C289.678 59.4103 290.759 60.131 292.522 60.131C293.657 60.131 294.515 59.7477 295.098 58.981L297.49 60.361C296.355 62.0017 294.684 62.822 292.476 62.822C290.575 62.822 289.049 62.247 287.899 61.097C286.749 59.947 286.174 58.498 286.174 56.75C286.174 55.0173 286.741 53.576 287.876 52.426C289.011 51.2607 290.467 50.678 292.246 50.678C293.933 50.678 295.32 51.2607 296.409 52.426C297.513 53.5913 298.065 55.0327 298.065 56.75C298.065 57.1333 298.027 57.5397 297.95 57.969H289.279ZM289.233 55.669H295.098C294.929 54.887 294.577 54.3043 294.04 53.921C293.519 53.5377 292.921 53.346 292.246 53.346C291.449 53.346 290.789 53.553 290.268 53.967C289.747 54.3657 289.402 54.933 289.233 55.669ZM303.103 52.978C303.379 52.242 303.832 51.69 304.46 51.322C305.104 50.954 305.817 50.77 306.599 50.77V54.082C305.695 53.9747 304.882 54.1587 304.161 54.634C303.456 55.1093 303.103 55.899 303.103 57.003V62.5H300.136V51H303.103V52.978ZM310.415 57.969C310.813 59.4103 311.894 60.131 313.658 60.131C314.792 60.131 315.651 59.7477 316.234 58.981L318.626 60.361C317.491 62.0017 315.82 62.822 313.612 62.822C311.71 62.822 310.185 62.247 309.035 61.097C307.885 59.947 307.31 58.498 307.31 56.75C307.31 55.0173 307.877 53.576 309.012 52.426C310.146 51.2607 311.603 50.678 313.382 50.678C315.068 50.678 316.456 51.2607 317.545 52.426C318.649 53.5913 319.201 55.0327 319.201 56.75C319.201 57.1333 319.162 57.5397 319.086 57.969H310.415ZM310.369 55.669H316.234C316.065 54.887 315.712 54.3043 315.176 53.921C314.654 53.5377 314.056 53.346 313.382 53.346C312.584 53.346 311.925 53.553 311.404 53.967C310.882 54.3657 310.537 54.933 310.369 55.669Z" fill="white"/>
<defs>
<linearGradient id="paint0_linear_2119_9596" x1="98.3925" y1="5.84669e-07" x2="178.051" y2="145.888" gradientUnits="userSpaceOnUse">
<stop stop-color="#9F9F00"/>
<stop offset="0.509615" stop-color="#4D4D00"/>
</linearGradient>
<clipPath id="clip0_2119_9596">
<rect width="45" height="45" fill="white" transform="translate(40 32)"/>
</clipPath>
</defs>
</svg>
