<svg width="371" height="109" viewBox="0 0 371 109" fill="none" xmlns="http://www.w3.org/2000/svg">
<path d="M10 0.5H361C366.247 0.5 370.5 4.75329 370.5 10V99C370.5 104.247 366.247 108.5 361 108.5H10C4.75329 108.5 0.5 104.247 0.5 99V10C0.5 4.7533 4.7533 0.5 10 0.5Z" fill="#2C2C2C"/>
<path d="M10 0.5H361C366.247 0.5 370.5 4.75329 370.5 10V99C370.5 104.247 366.247 108.5 361 108.5H10C4.75329 108.5 0.5 104.247 0.5 99V10C0.5 4.7533 4.7533 0.5 10 0.5Z" stroke="url(#paint0_linear_2119_9533)"/>
<rect x="24" y="16" width="77" height="77" rx="38.5" stroke="#FFFF00" stroke-width="1.5"/>
<path d="M78.875 44.5625C78.5 44.5625 78.25 44.3125 78.25 43.9375V40.75H67.5C67.125 40.75 66.875 40.5 66.875 40.125C66.875 39.75 67.125 39.5 67.5 39.5H78.875C79.25 39.5 79.5 39.75 79.5 40.125V44C79.5 44.3125 79.1875 44.5625 78.875 44.5625Z" fill="#FFFF00"/>
<path d="M64.0625 40.75H59.375C59.1875 40.75 59.0625 40.6875 58.9375 40.5625L56.125 37.75H52.1875C51.8125 37.75 51.5625 37.5 51.5625 37.125C51.5625 36.75 51.8125 36.5 52.1875 36.5H56.375C56.5625 36.5 56.6875 36.5625 56.8125 36.6875L59.625 39.5H64.0625C64.4375 39.5 64.6875 39.75 64.6875 40.125C64.6875 40.5 64.4375 40.75 64.0625 40.75Z" fill="#FFFF00"/>
<path d="M46.125 44.5625C45.75 44.5625 45.5 44.3125 45.5 43.9375V37.125C45.5 36.75 45.75 36.5 46.125 36.5H49.375C49.75 36.5 50 36.75 50 37.125C50 37.5 49.75 37.75 49.375 37.75H46.75V43.9375C46.75 44.3125 46.5 44.5625 46.125 44.5625Z" fill="#FFFF00"/>
<path d="M69.3125 63H68.25C67.875 63 67.625 62.75 67.625 62.375C67.625 62 67.875 61.75 68.25 61.75H69.3125C69.6875 61.75 69.9375 62 69.9375 62.375C69.9375 62.75 69.625 63 69.3125 63Z" fill="#FFFF00"/>
<path d="M77.1875 62.9999C76.8125 62.9999 76.5625 62.7499 76.5625 62.3749C76.5625 61.9999 76.8125 61.7499 77.1875 61.7499C77.875 61.7499 78.4375 61.2499 78.5 60.6249L79.1875 56.3124C79.25 55.9999 79.5625 55.7499 79.875 55.8124C80.1875 55.8749 80.4375 56.1874 80.375 56.4999L79.6875 60.8124C79.5 62.1249 78.4375 62.9999 77.1875 62.9999Z" fill="#FFFF00"/>
<path d="M80.3125 54.25C80.25 54.25 80.25 54.25 80.1875 54.25C79.875 54.1875 79.625 53.875 79.6875 53.5625L81.125 44.625H43.875L44.6875 49.5C44.75 49.8125 44.5 50.1875 44.1875 50.1875C43.875 50.25 43.5 50 43.5 49.6875L42.5625 44.0625C42.5625 43.875 42.5625 43.6875 42.6875 43.5625C42.8125 43.4375 43 43.3125 43.1875 43.3125H81.9375C82.125 43.3125 82.3125 43.375 82.4375 43.5625C82.5625 43.75 82.5 43.875 82.5 44.0625L80.9375 53.75C80.875 54.0625 80.5625 54.25 80.3125 54.25Z" fill="#FFFF00"/>
<path d="M53.9999 62.9999H47.8124C46.5624 62.9999 45.4374 62.0624 45.2499 60.8124L43.8124 52.1874C43.7499 51.8749 43.9999 51.4999 44.3124 51.4999C44.6874 51.4374 44.9999 51.6249 45.0624 51.9999L46.4999 60.6874C46.6249 61.3124 47.1874 61.8124 47.8124 61.8124H53.9999C54.3749 61.8124 54.6249 62.0624 54.6249 62.4374C54.6249 62.8124 54.3124 62.9999 53.9999 62.9999Z" fill="#FFFF00"/>
<path d="M57.1875 50.9374C57 50.9374 56.875 50.8749 56.75 50.7499C56.5 50.4999 56.5 50.1249 56.75 49.8749C59.5 47.1249 63.75 46.4999 67.125 48.3124C67.4375 48.4999 67.5625 48.8749 67.375 49.1874C67.1875 49.4999 66.8125 49.6249 66.5 49.4374C63.6875 47.8749 60 48.4374 57.6875 50.7499C57.5625 50.8749 57.375 50.9374 57.1875 50.9374Z" fill="#FFFF00"/>
<path d="M57.1879 62.4998C57.0004 62.4998 56.8754 62.4373 56.7504 62.3123C54.1254 59.6873 53.4379 55.6248 55.0629 52.2498C55.1879 51.9373 55.5629 51.8123 55.8754 51.9373C56.1879 52.0623 56.3129 52.4373 56.1879 52.7498C54.8129 55.6248 55.3754 59.1248 57.6879 61.3748C57.9379 61.6248 57.9379 61.9998 57.6879 62.2498C57.5629 62.4373 57.3754 62.4998 57.1879 62.4998Z" fill="#FFFF00"/>
<path d="M63.0001 64.9375C61.9376 64.9375 60.8126 64.75 59.7501 64.3125C59.4376 64.1875 59.2501 63.8125 59.3751 63.5C59.5001 63.1875 59.8751 63 60.1876 63.125C63.0001 64.25 66.1876 63.5625 68.3126 61.4375C69.7501 60 70.5001 58.125 70.5001 56.0625C70.5001 54 69.6876 52.125 68.3126 50.6875C68.0626 50.4375 68.0626 50.0625 68.3126 49.8125C68.5626 49.5625 68.9376 49.5625 69.1876 49.8125C70.8751 51.5 71.7501 53.6875 71.7501 56.0625C71.7501 58.4375 70.8126 60.625 69.1876 62.3125C67.5626 64 65.3126 64.9375 63.0001 64.9375Z" fill="#FFFF00"/>
<path d="M76.0625 72.5C75.1875 72.5 74.3125 72.1875 73.6875 71.5L68.875 66.6875C68.625 66.4375 68.625 66.0625 68.875 65.8125L72.75 61.9375C73 61.6875 73.375 61.6875 73.625 61.9375L78.4375 66.75C79.75 68.0625 79.75 70.1875 78.4375 71.5C77.75 72.1875 76.875 72.5 76.0625 72.5ZM70.1875 66.25L74.5625 70.625C75.375 71.4375 76.75 71.4375 77.5625 70.625C78.375 69.8125 78.375 68.4375 77.5625 67.625L73.1875 63.25L70.1875 66.25Z" fill="#FFFF00"/>
<path d="M71.1875 64.9375C71 64.9375 70.875 64.875 70.75 64.75L68.3125 62.3125C68.0625 62.0625 68.0625 61.6875 68.3125 61.4375C68.5625 61.1875 68.9375 61.1875 69.1875 61.4375L71.625 63.875C71.875 64.125 71.875 64.5 71.625 64.75C71.5625 64.875 71.375 64.9375 71.1875 64.9375Z" fill="#FFFF00"/>
<path d="M150.336 46.4V62.5H147.185V52.058L142.654 59.533H142.286L137.755 52.081V62.5H134.581V46.4H137.847L142.47 54.013L147.07 46.4H150.336ZM161.938 51H164.905V62.5H161.938V61.143C161.048 62.2623 159.799 62.822 158.189 62.822C156.655 62.822 155.337 62.2393 154.233 61.074C153.144 59.8933 152.6 58.452 152.6 56.75C152.6 55.048 153.144 53.6143 154.233 52.449C155.337 51.2683 156.655 50.678 158.189 50.678C159.799 50.678 161.048 51.2377 161.938 52.357V51ZM156.464 59.096C157.062 59.694 157.821 59.993 158.741 59.993C159.661 59.993 160.42 59.694 161.018 59.096C161.631 58.4827 161.938 57.7007 161.938 56.75C161.938 55.7993 161.631 55.025 161.018 54.427C160.42 53.8137 159.661 53.507 158.741 53.507C157.821 53.507 157.062 53.8137 156.464 54.427C155.866 55.025 155.567 55.7993 155.567 56.75C155.567 57.7007 155.866 58.4827 156.464 59.096ZM173.989 50.678C175.247 50.678 176.282 51.0997 177.094 51.943C177.922 52.7863 178.336 53.9517 178.336 55.439V62.5H175.369V55.807C175.369 55.0403 175.162 54.4577 174.748 54.059C174.334 53.645 173.782 53.438 173.092 53.438C172.326 53.438 171.712 53.6757 171.252 54.151C170.792 54.6263 170.562 55.3393 170.562 56.29V62.5H167.595V51H170.562V52.288C171.283 51.2147 172.425 50.678 173.989 50.678ZM187.448 53.852H184.849V58.636C184.849 59.0347 184.948 59.326 185.148 59.51C185.347 59.694 185.638 59.8013 186.022 59.832C186.405 59.8473 186.88 59.8397 187.448 59.809V62.5C185.408 62.73 183.967 62.5383 183.124 61.925C182.296 61.3117 181.882 60.2153 181.882 58.636V53.852H179.881V51H181.882V48.677L184.849 47.78V51H187.448V53.852ZM195.934 50.678C197.191 50.678 198.226 51.0997 199.039 51.943C199.867 52.7863 200.281 53.9517 200.281 55.439V62.5H197.314V55.807C197.314 55.0403 197.107 54.4577 196.693 54.059C196.279 53.645 195.727 53.438 195.037 53.438C194.27 53.438 193.657 53.6757 193.197 54.151C192.737 54.6263 192.507 55.3393 192.507 56.29V62.5H189.54V46.4H192.507V52.288C193.227 51.2147 194.37 50.678 195.934 50.678ZM211.554 51H214.521V62.5H211.554V61.143C210.665 62.2623 209.415 62.822 207.805 62.822C206.272 62.822 204.953 62.2393 203.849 61.074C202.76 59.8933 202.216 58.452 202.216 56.75C202.216 55.048 202.76 53.6143 203.849 52.449C204.953 51.2683 206.272 50.678 207.805 50.678C209.415 50.678 210.665 51.2377 211.554 52.357V51ZM206.08 59.096C206.678 59.694 207.437 59.993 208.357 59.993C209.277 59.993 210.036 59.694 210.634 59.096C211.247 58.4827 211.554 57.7007 211.554 56.75C211.554 55.7993 211.247 55.025 210.634 54.427C210.036 53.8137 209.277 53.507 208.357 53.507C207.437 53.507 206.678 53.8137 206.08 54.427C205.482 55.025 205.183 55.7993 205.183 56.75C205.183 57.7007 205.482 58.4827 206.08 59.096ZM225.951 51H228.918V62.5H225.951V61.143C225.062 62.2623 223.812 62.822 222.202 62.822C220.669 62.822 219.35 62.2393 218.246 61.074C217.158 59.8933 216.613 58.452 216.613 56.75C216.613 55.048 217.158 53.6143 218.246 52.449C219.35 51.2683 220.669 50.678 222.202 50.678C223.812 50.678 225.062 51.2377 225.951 52.357V51ZM220.477 59.096C221.075 59.694 221.834 59.993 222.754 59.993C223.674 59.993 224.433 59.694 225.031 59.096C225.645 58.4827 225.951 57.7007 225.951 56.75C225.951 55.7993 225.645 55.025 225.031 54.427C224.433 53.8137 223.674 53.507 222.754 53.507C221.834 53.507 221.075 53.8137 220.477 54.427C219.879 55.025 219.58 55.7993 219.58 56.75C219.58 57.7007 219.879 58.4827 220.477 59.096ZM238.003 50.678C239.26 50.678 240.295 51.0997 241.108 51.943C241.936 52.7863 242.35 53.9517 242.35 55.439V62.5H239.383V55.807C239.383 55.0403 239.176 54.4577 238.762 54.059C238.348 53.645 237.796 53.438 237.106 53.438C236.339 53.438 235.726 53.6757 235.266 54.151C234.806 54.6263 234.576 55.3393 234.576 56.29V62.5H231.609V51H234.576V52.288C235.297 51.2147 236.439 50.678 238.003 50.678ZM259.603 62.5L256.36 56.911H253.945V62.5H250.771V46.4H257.211C258.699 46.4 259.964 46.9213 261.006 47.964C262.049 49.0067 262.57 50.264 262.57 51.736C262.57 52.7327 262.287 53.6603 261.719 54.519C261.152 55.3623 260.401 55.9987 259.465 56.428L263.03 62.5H259.603ZM253.945 49.367V54.128H257.211C257.809 54.128 258.323 53.898 258.752 53.438C259.182 52.9627 259.396 52.3953 259.396 51.736C259.396 51.0767 259.182 50.517 258.752 50.057C258.323 49.597 257.809 49.367 257.211 49.367H253.945ZM266.684 57.969C267.083 59.4103 268.164 60.131 269.927 60.131C271.062 60.131 271.921 59.7477 272.503 58.981L274.895 60.361C273.761 62.0017 272.089 62.822 269.881 62.822C267.98 62.822 266.454 62.247 265.304 61.097C264.154 59.947 263.579 58.498 263.579 56.75C263.579 55.0173 264.147 53.576 265.281 52.426C266.416 51.2607 267.873 50.678 269.651 50.678C271.338 50.678 272.726 51.2607 273.814 52.426C274.918 53.5913 275.47 55.0327 275.47 56.75C275.47 57.1333 275.432 57.5397 275.355 57.969H266.684ZM266.638 55.669H272.503C272.335 54.887 271.982 54.3043 271.445 53.921C270.924 53.5377 270.326 53.346 269.651 53.346C268.854 53.346 268.195 53.553 267.673 53.967C267.152 54.3657 266.807 54.933 266.638 55.669ZM283.783 53.852H281.184V58.636C281.184 59.0347 281.283 59.326 281.483 59.51C281.682 59.694 281.973 59.8013 282.357 59.832C282.74 59.8473 283.215 59.8397 283.783 59.809V62.5C281.743 62.73 280.302 62.5383 279.459 61.925C278.631 61.3117 278.217 60.2153 278.217 58.636V53.852H276.216V51H278.217V48.677L281.184 47.78V51H283.783V53.852ZM289.021 52.978C289.297 52.242 289.75 51.69 290.378 51.322C291.022 50.954 291.735 50.77 292.517 50.77V54.082C291.613 53.9747 290.8 54.1587 290.079 54.634C289.374 55.1093 289.021 55.899 289.021 57.003V62.5H286.054V51H289.021V52.978ZM295.725 49.62C295.234 49.62 294.805 49.4437 294.437 49.091C294.084 48.723 293.908 48.2937 293.908 47.803C293.908 47.3123 294.084 46.883 294.437 46.515C294.805 46.147 295.234 45.963 295.725 45.963C296.231 45.963 296.66 46.147 297.013 46.515C297.381 46.883 297.565 47.3123 297.565 47.803C297.565 48.2937 297.381 48.723 297.013 49.091C296.66 49.4437 296.231 49.62 295.725 49.62ZM294.253 62.5V51H297.22V62.5H294.253ZM302.442 57.969C302.841 59.4103 303.922 60.131 305.685 60.131C306.82 60.131 307.678 59.7477 308.261 58.981L310.653 60.361C309.518 62.0017 307.847 62.822 305.639 62.822C303.738 62.822 302.212 62.247 301.062 61.097C299.912 59.947 299.337 58.498 299.337 56.75C299.337 55.0173 299.904 53.576 301.039 52.426C302.174 51.2607 303.63 50.678 305.409 50.678C307.096 50.678 308.483 51.2607 309.572 52.426C310.676 53.5913 311.228 55.0327 311.228 56.75C311.228 57.1333 311.19 57.5397 311.113 57.969H302.442ZM302.396 55.669H308.261C308.092 54.887 307.74 54.3043 307.203 53.921C306.682 53.5377 306.084 53.346 305.409 53.346C304.612 53.346 303.952 53.553 303.431 53.967C302.91 54.3657 302.565 54.933 302.396 55.669ZM320.417 51H323.683L319.313 62.5H315.932L311.562 51H314.828L317.611 59.05L320.417 51ZM327.172 57.969C327.57 59.4103 328.651 60.131 330.415 60.131C331.549 60.131 332.408 59.7477 332.991 58.981L335.383 60.361C334.248 62.0017 332.577 62.822 330.369 62.822C328.467 62.822 326.942 62.247 325.792 61.097C324.642 59.947 324.067 58.498 324.067 56.75C324.067 55.0173 324.634 53.576 325.769 52.426C326.903 51.2607 328.36 50.678 330.139 50.678C331.825 50.678 333.213 51.2607 334.302 52.426C335.406 53.5913 335.958 55.0327 335.958 56.75C335.958 57.1333 335.919 57.5397 335.843 57.969H327.172ZM327.126 55.669H332.991C332.822 54.887 332.469 54.3043 331.933 53.921C331.411 53.5377 330.813 53.346 330.139 53.346C329.341 53.346 328.682 53.553 328.161 53.967C327.639 54.3657 327.294 54.933 327.126 55.669ZM340.317 54.266C340.317 54.5727 340.516 54.8257 340.915 55.025C341.329 55.209 341.827 55.3777 342.41 55.531C342.992 55.669 343.575 55.853 344.158 56.083C344.74 56.2977 345.231 56.6657 345.63 57.187C346.044 57.7083 346.251 58.36 346.251 59.142C346.251 60.3227 345.806 61.235 344.917 61.879C344.043 62.5077 342.946 62.822 341.628 62.822C339.266 62.822 337.656 61.9097 336.798 60.085L339.374 58.636C339.711 59.6327 340.462 60.131 341.628 60.131C342.686 60.131 343.215 59.8013 343.215 59.142C343.215 58.8353 343.008 58.59 342.594 58.406C342.195 58.2067 341.704 58.0303 341.122 57.877C340.539 57.7237 339.956 57.532 339.374 57.302C338.791 57.072 338.293 56.7117 337.879 56.221C337.48 55.715 337.281 55.0863 337.281 54.335C337.281 53.2003 337.695 52.311 338.523 51.667C339.366 51.0077 340.409 50.678 341.651 50.678C342.586 50.678 343.437 50.8927 344.204 51.322C344.97 51.736 345.576 52.334 346.021 53.116L343.491 54.496C343.123 53.714 342.509 53.323 341.651 53.323C341.267 53.323 340.945 53.4073 340.685 53.576C340.439 53.7447 340.317 53.9747 340.317 54.266Z" fill="white"/>
<defs>
<linearGradient id="paint0_linear_2119_9533" x1="106.115" y1="5.84669e-07" x2="182.435" y2="150.743" gradientUnits="userSpaceOnUse">
<stop stop-color="#9F9F00"/>
<stop offset="0.509615" stop-color="#4D4D00"/>
</linearGradient>
</defs>
</svg>
