<svg width="295" height="419" viewBox="0 0 295 419" fill="none" xmlns="http://www.w3.org/2000/svg">
<path d="M10.5 0.850586H285C290.247 0.850586 294.5 5.10388 294.5 10.3506V408.351C294.5 413.597 290.247 417.851 285 417.851H10.5C5.2533 417.851 1 413.597 1 408.351V10.3506C1 5.10388 5.2533 0.850586 10.5 0.850586Z" fill="url(#paint0_linear_2086_12828)" fill-opacity="0.3"/>
<path d="M10.5 0.850586H285C290.247 0.850586 294.5 5.10388 294.5 10.3506V408.351C294.5 413.597 290.247 417.851 285 417.851H10.5C5.2533 417.851 1 413.597 1 408.351V10.3506C1 5.10388 5.2533 0.850586 10.5 0.850586Z" stroke="url(#paint1_linear_2086_12828)"/>
<rect x="33.5" y="33.3506" width="72" height="72" rx="36" stroke="#FFFF00" stroke-width="2"/>
<path d="M74.8872 73.2615C75.1528 72.9915 75.1494 72.5574 74.8795 72.2915C74.6095 72.0262 74.1754 72.0289 73.9091 72.2995C72.7331 73.4946 71.1672 74.1525 69.5001 74.1525C67.833 74.1525 66.2671 73.4946 65.0911 72.2995C64.8258 72.0295 64.3914 72.0268 64.1207 72.2915C63.8508 72.5574 63.8474 72.9915 64.113 73.2615C65.5493 74.7205 67.4622 75.5244 69.5001 75.5244C71.538 75.5244 73.4509 74.7205 74.8872 73.2615Z" fill="#FFFF00"/>
<path d="M65.0911 63.6578C66.2671 62.4627 67.833 61.8048 69.5001 61.8048C71.1671 61.8048 72.733 62.4626 73.909 63.6577C74.1691 63.922 74.6162 63.9245 74.8795 63.6658C75.1494 63.3999 75.1528 62.9658 74.8872 62.6958C73.4509 61.2368 71.538 60.4329 69.5001 60.4329C67.4622 60.4329 65.5493 61.2368 64.113 62.6958C63.8474 62.9658 63.8508 63.3999 64.1207 63.6658C64.3904 63.9311 64.8248 63.9284 65.0911 63.6578Z" fill="#FFFF00"/>
<path d="M58.7074 79.489C58.968 79.733 59.4186 79.7326 59.6771 79.4575C59.9361 79.1808 59.922 78.7467 59.6453 78.4881C56.7533 75.7784 55.0946 71.9478 55.0946 67.9786C55.0946 60.0355 61.5569 53.5729 69.5003 53.5729C77.4438 53.5729 83.9061 60.0355 83.9061 67.9786C83.9061 71.4441 82.6668 74.7379 80.427 77.3457L80.4004 77.0894C80.3616 76.7129 80.0303 76.4456 79.6474 76.4777C79.2706 76.5173 78.9966 76.8542 79.0358 77.2314C79.0358 77.2314 79.2349 79.1525 79.2358 79.1607C79.2734 79.5235 79.6296 79.8023 79.9888 79.7724L81.9188 79.5727C82.2956 79.5332 82.5696 79.1962 82.5304 78.8197C82.4915 78.4432 82.1596 78.1773 81.7774 78.2074L81.4649 78.2398C83.9197 75.3835 85.278 71.7747 85.278 67.9786C85.278 59.2785 78.2001 52.2009 69.5003 52.2009C60.8006 52.2009 53.7227 59.2785 53.7227 67.9786C53.7227 72.3263 55.5394 76.5212 58.7074 79.489Z" fill="#FFFF00"/>
<path d="M82.5341 81.0124C81.2593 81.0124 80.1943 81.8901 79.8875 83.0704H71.4319C71.2247 82.4892 70.7675 82.032 70.1863 81.8248V79.6404H71.5583C71.9207 79.6404 72.2205 79.3591 72.2429 78.9973C72.2885 78.2664 72.7196 77.6635 73.3959 77.3828C74.0718 77.1042 74.804 77.2247 75.3523 77.7091C75.6233 77.9482 76.0353 77.9362 76.2912 77.6796L79.2016 74.7695C79.4579 74.5136 79.4706 74.1023 79.2311 73.8303C78.7468 73.2817 78.6248 72.5501 78.9048 71.8742C79.1849 71.1976 79.7885 70.7668 80.519 70.7213C80.8804 70.6985 81.1621 70.399 81.1621 70.0366V65.9207C81.1621 65.5583 80.8804 65.2588 80.519 65.2361C79.7885 65.1905 79.1849 64.7597 78.9049 64.0831C78.6248 63.4072 78.7468 62.6757 79.2311 62.127C79.4706 61.855 79.4579 61.4437 79.2016 61.1878L76.2912 58.2771C76.0353 58.0211 75.6236 58.0084 75.3523 58.2476C74.8033 58.7313 74.0725 58.8532 73.3955 58.5738C72.7193 58.2938 72.2885 57.6902 72.2429 56.96C72.2205 56.5983 71.9207 56.3169 71.5583 56.3169H67.4424C67.08 56.3169 66.7802 56.5983 66.7577 56.96C66.7122 57.6902 66.2814 58.2938 65.6052 58.5738C64.9282 58.8538 64.1973 58.7319 63.6483 58.2476C63.377 58.0084 62.9654 58.0211 62.7095 58.277L59.7991 61.1878C59.5428 61.4437 59.5301 61.855 59.7696 62.127C60.2539 62.6757 60.3758 63.4072 60.0958 64.0831C59.8158 64.7597 59.2122 65.1905 58.4817 65.236C58.1203 65.2588 57.8386 65.5583 57.8386 65.9207V70.0366C57.8386 70.399 58.1203 70.6985 58.4817 70.7213C59.2122 70.7668 59.8158 71.1976 60.0958 71.8742C60.3759 72.5501 60.2539 73.2817 59.7696 73.8303C59.5301 74.1023 59.5428 74.5136 59.7991 74.7695L62.7095 77.6796C62.9661 77.9362 63.3774 77.9489 63.6484 77.7091C64.1973 77.2247 64.9296 77.1042 65.6048 77.3828C66.2811 77.6635 66.7122 78.2664 66.7577 78.9973C66.7802 79.3591 67.08 79.6404 67.4424 79.6404H68.8144V81.8248C68.2332 82.032 67.776 82.4892 67.5688 83.0704H59.1132C58.8064 81.8901 57.7414 81.0124 56.4666 81.0124C54.9536 81.0124 53.7227 82.243 53.7227 83.7563C53.7227 85.2697 54.9536 86.5003 56.4666 86.5003C57.7414 86.5003 58.8064 85.6226 59.1132 84.4423H67.5688C67.8529 85.2391 68.6072 85.8143 69.5003 85.8143C70.3934 85.8143 71.1478 85.2391 71.4319 84.4423H79.8875C80.1943 85.6226 81.2593 86.5003 82.5341 86.5003C84.0471 86.5003 85.278 85.2697 85.278 83.7563C85.278 82.243 84.0471 81.0124 82.5341 81.0124ZM66.13 76.1154C65.1794 75.7215 64.132 75.7992 63.2692 76.2989L61.1794 74.2095C61.6798 73.3466 61.7569 72.2989 61.3633 71.349C60.9701 70.399 60.1745 69.7131 59.2105 69.4565V66.5008C60.1745 66.2443 60.9701 65.5583 61.3633 64.6083C61.7569 63.6584 61.6798 62.6107 61.1794 61.7472L63.2692 59.6577C64.132 60.1568 65.1801 60.2345 66.1304 59.8413C67.08 59.448 67.7659 58.6529 68.0229 57.6889H70.9778C71.2347 58.6529 71.9207 59.448 72.8703 59.8413C73.8199 60.2345 74.8676 60.1568 75.7315 59.6577L77.8213 61.7472C77.3209 62.6107 77.2438 63.6584 77.6374 64.6083C78.0306 65.5583 78.8261 66.2443 79.7901 66.5008V69.4565C78.8261 69.713 78.0306 70.399 77.6374 71.349C77.2438 72.2989 77.3209 73.3466 77.8213 74.2095L75.7315 76.2989C74.8676 75.7998 73.8202 75.7215 72.8707 76.1154C71.9211 76.5093 71.2347 77.3045 70.9778 78.2685H68.0229C67.7659 77.3045 67.0796 76.5093 66.13 76.1154ZM56.4666 85.1283C55.7099 85.1283 55.0946 84.5127 55.0946 83.7563C55.0946 83 55.7099 82.3844 56.4666 82.3844C57.2233 82.3844 57.8386 83 57.8386 83.7563C57.8386 84.5127 57.2233 85.1283 56.4666 85.1283ZM69.5003 84.4423C69.1222 84.4423 68.8144 84.1348 68.8144 83.7563C68.8144 83.3778 69.1222 83.0704 69.5003 83.0704C69.8785 83.0704 70.1863 83.3778 70.1863 83.7563C70.1863 84.1348 69.8785 84.4423 69.5003 84.4423ZM82.5341 85.1283C81.7774 85.1283 81.1621 84.5127 81.1621 83.7563C81.1621 83 81.7774 82.3844 82.5341 82.3844C83.2907 82.3844 83.9061 83 83.9061 83.7563C83.9061 84.5127 83.2907 85.1283 82.5341 85.1283Z" fill="#FFFF00"/>
<path d="M64.0678 70.0365H66.0116L66.1216 70.3005C66.2654 70.6456 66.6746 70.8136 67.0186 70.6696C67.3683 70.5242 67.5334 70.1223 67.3877 69.7726L65.6727 65.6567C65.5662 65.4014 65.3167 65.2346 65.0397 65.2346C64.7627 65.2346 64.5131 65.4014 64.4066 65.6567L62.6916 69.7726C62.5459 70.1223 62.7111 70.5242 63.0608 70.6696C63.4121 70.817 63.8124 70.6502 63.9578 70.3005L64.0678 70.0365ZM65.44 68.6646H64.6394L65.0397 67.7039L65.44 68.6646Z" fill="#FFFF00"/>
<path d="M69.1567 65.2346C68.7779 65.2346 68.4707 65.5414 68.4707 65.9206V70.0365C68.4707 70.4157 68.7779 70.7225 69.1567 70.7225C69.5355 70.7225 69.8427 70.4157 69.8427 70.0365V69.0075H70.3572C71.3975 69.0075 72.2436 68.1614 72.2436 67.1211C72.2436 66.0807 71.3975 65.2346 70.3572 65.2346H69.1567ZM70.8717 67.1211C70.8717 67.4045 70.6409 67.6356 70.3572 67.6356H69.8427V66.6066H70.3572C70.6409 66.6066 70.8717 66.8377 70.8717 67.1211Z" fill="#FFFF00"/>
<path d="M73.9594 65.2346C73.5806 65.2346 73.2734 65.5414 73.2734 65.9206C73.2734 66.2998 73.5806 66.6066 73.9594 66.6066H74.1309V69.3505H73.9594C73.5806 69.3505 73.2734 69.6574 73.2734 70.0365C73.2734 70.4157 73.5806 70.7225 73.9594 70.7225H75.6744C76.0532 70.7225 76.3604 70.4157 76.3604 70.0365C76.3604 69.6574 76.0532 69.3505 75.6744 69.3505H75.5029V66.6066H75.6744C76.0532 66.6066 76.3604 66.2998 76.3604 65.9206C76.3604 65.5414 76.0532 65.2346 75.6744 65.2346H73.9594Z" fill="#FFFF00"/>
<path d="M49.495 229.351L48.109 225.193H38.902L37.516 229.351H32.599L40.684 206.251H46.327L54.445 229.351H49.495ZM40.354 220.936H46.69L43.522 211.498L40.354 220.936ZM65.301 206.251C67.523 206.251 69.393 206.999 70.911 208.495C72.429 209.991 73.188 211.828 73.188 214.006C73.188 216.184 72.429 218.021 70.911 219.517C69.393 221.013 67.523 221.761 65.301 221.761H61.242V229.351H56.688V206.251H65.301ZM65.301 217.504C66.269 217.504 67.072 217.174 67.71 216.514C68.348 215.832 68.667 214.996 68.667 214.006C68.667 212.994 68.348 212.158 67.71 211.498C67.072 210.838 66.269 210.508 65.301 210.508H61.242V217.504H65.301ZM76.1528 206.251H80.7068V229.351H76.1528V206.251ZM84.9829 221.431V217.339H97.3579V221.431H84.9829ZM113.986 212.851H118.243V229.351H113.986V227.404C112.71 229.01 110.917 229.813 108.607 229.813C106.407 229.813 104.515 228.977 102.931 227.305C101.369 225.611 100.588 223.543 100.588 221.101C100.588 218.659 101.369 216.602 102.931 214.93C104.515 213.236 106.407 212.389 108.607 212.389C110.917 212.389 112.71 213.192 113.986 214.798V212.851ZM106.132 224.467C106.99 225.325 108.079 225.754 109.399 225.754C110.719 225.754 111.808 225.325 112.666 224.467C113.546 223.587 113.986 222.465 113.986 221.101C113.986 219.737 113.546 218.626 112.666 217.768C111.808 216.888 110.719 216.448 109.399 216.448C108.079 216.448 106.99 216.888 106.132 217.768C105.274 218.626 104.845 219.737 104.845 221.101C104.845 222.465 105.274 223.587 106.132 224.467ZM125.901 217.537C125.901 217.977 126.187 218.34 126.759 218.626C127.353 218.89 128.068 219.132 128.904 219.352C129.74 219.55 130.576 219.814 131.412 220.144C132.248 220.452 132.952 220.98 133.524 221.728C134.118 222.476 134.415 223.411 134.415 224.533C134.415 226.227 133.777 227.536 132.501 228.46C131.247 229.362 129.674 229.813 127.782 229.813C124.394 229.813 122.084 228.504 120.852 225.886L124.548 223.807C125.032 225.237 126.11 225.952 127.782 225.952C129.3 225.952 130.059 225.479 130.059 224.533C130.059 224.093 129.762 223.741 129.168 223.477C128.596 223.191 127.892 222.938 127.056 222.718C126.22 222.498 125.384 222.223 124.548 221.893C123.712 221.563 122.997 221.046 122.403 220.342C121.831 219.616 121.545 218.714 121.545 217.636C121.545 216.008 122.139 214.732 123.327 213.808C124.537 212.862 126.033 212.389 127.815 212.389C129.157 212.389 130.378 212.697 131.478 213.313C132.578 213.907 133.447 214.765 134.085 215.887L130.455 217.867C129.927 216.745 129.047 216.184 127.815 216.184C127.265 216.184 126.803 216.305 126.429 216.547C126.077 216.789 125.901 217.119 125.901 217.537ZM136.868 221.431V217.339H149.243V221.431H136.868ZM165.871 212.851H170.128V229.351H165.871V227.404C164.595 229.01 162.802 229.813 160.492 229.813C158.292 229.813 156.4 228.977 154.816 227.305C153.254 225.611 152.473 223.543 152.473 221.101C152.473 218.659 153.254 216.602 154.816 214.93C156.4 213.236 158.292 212.389 160.492 212.389C162.802 212.389 164.595 213.192 165.871 214.798V212.851ZM158.017 224.467C158.875 225.325 159.964 225.754 161.284 225.754C162.604 225.754 163.693 225.325 164.551 224.467C165.431 223.587 165.871 222.465 165.871 221.101C165.871 219.737 165.431 218.626 164.551 217.768C163.693 216.888 162.604 216.448 161.284 216.448C159.964 216.448 158.875 216.888 158.017 217.768C157.159 218.626 156.73 219.737 156.73 221.101C156.73 222.465 157.159 223.587 158.017 224.467ZM174.186 221.431V217.339H186.561V221.431H174.186ZM42.532 265.813C40.244 265.813 38.319 265.307 36.757 264.295C35.195 263.261 34.095 261.864 33.457 260.104L37.351 257.827C38.253 260.181 40.024 261.358 42.664 261.358C43.94 261.358 44.875 261.127 45.469 260.665C46.063 260.203 46.36 259.62 46.36 258.916C46.36 258.102 45.997 257.475 45.271 257.035C44.545 256.573 43.247 256.078 41.377 255.55C40.343 255.242 39.463 254.934 38.737 254.626C38.033 254.318 37.318 253.911 36.592 253.405C35.888 252.877 35.349 252.217 34.975 251.425C34.601 250.633 34.414 249.709 34.414 248.653C34.414 246.563 35.151 244.902 36.625 243.67C38.121 242.416 39.914 241.789 42.004 241.789C43.874 241.789 45.513 242.251 46.921 243.175C48.351 244.077 49.462 245.342 50.254 246.97L46.426 249.181C45.502 247.201 44.028 246.211 42.004 246.211C41.058 246.211 40.31 246.431 39.76 246.871C39.232 247.289 38.968 247.839 38.968 248.521C38.968 249.247 39.265 249.841 39.859 250.303C40.475 250.743 41.641 251.227 43.357 251.755C44.061 251.975 44.589 252.151 44.941 252.283C45.315 252.393 45.81 252.58 46.426 252.844C47.064 253.086 47.548 253.317 47.878 253.537C48.23 253.757 48.626 254.054 49.066 254.428C49.506 254.802 49.836 255.187 50.056 255.583C50.298 255.979 50.496 256.463 50.65 257.035C50.826 257.585 50.914 258.19 50.914 258.85C50.914 260.984 50.133 262.678 48.571 263.932C47.031 265.186 45.018 265.813 42.532 265.813ZM57.7344 258.85C58.3064 260.918 59.8574 261.952 62.3874 261.952C64.0154 261.952 65.2474 261.402 66.0834 260.302L69.5154 262.282C67.8874 264.636 65.4894 265.813 62.3214 265.813C59.5934 265.813 57.4044 264.988 55.7544 263.338C54.1044 261.688 53.2794 259.609 53.2794 257.101C53.2794 254.615 54.0934 252.547 55.7214 250.897C57.3494 249.225 59.4394 248.389 61.9914 248.389C64.4114 248.389 66.4024 249.225 67.9644 250.897C69.5484 252.569 70.3404 254.637 70.3404 257.101C70.3404 257.651 70.2854 258.234 70.1754 258.85H57.7344ZM57.6684 255.55H66.0834C65.8414 254.428 65.3354 253.592 64.5654 253.042C63.8174 252.492 62.9594 252.217 61.9914 252.217C60.8474 252.217 59.9014 252.514 59.1534 253.108C58.4054 253.68 57.9104 254.494 57.6684 255.55ZM77.5692 251.689C77.9652 250.633 78.6142 249.841 79.5162 249.313C80.4402 248.785 81.4632 248.521 82.5852 248.521V253.273C81.2872 253.119 80.1212 253.383 79.0872 254.065C78.0752 254.747 77.5692 255.88 77.5692 257.464V265.351H73.3122V248.851H77.5692V251.689ZM95.9319 248.851H100.618L94.3479 265.351H89.4969L83.2269 248.851H87.9129L91.9059 260.401L95.9319 248.851ZM104.783 246.871C104.079 246.871 103.463 246.618 102.935 246.112C102.429 245.584 102.176 244.968 102.176 244.264C102.176 243.56 102.429 242.944 102.935 242.416C103.463 241.888 104.079 241.624 104.783 241.624C105.509 241.624 106.125 241.888 106.631 242.416C107.159 242.944 107.423 243.56 107.423 244.264C107.423 244.968 107.159 245.584 106.631 246.112C106.125 246.618 105.509 246.871 104.783 246.871ZM102.671 265.351V248.851H106.928V265.351H102.671ZM118.678 265.813C116.192 265.813 114.113 264.977 112.441 263.305C110.791 261.633 109.966 259.565 109.966 257.101C109.966 254.637 110.791 252.569 112.441 250.897C114.113 249.225 116.192 248.389 118.678 248.389C120.284 248.389 121.747 248.774 123.067 249.544C124.387 250.314 125.388 251.348 126.07 252.646L122.407 254.791C122.077 254.109 121.571 253.57 120.889 253.174C120.229 252.778 119.481 252.58 118.645 252.58C117.369 252.58 116.313 253.009 115.477 253.867C114.641 254.703 114.223 255.781 114.223 257.101C114.223 258.399 114.641 259.477 115.477 260.335C116.313 261.171 117.369 261.589 118.645 261.589C119.503 261.589 120.262 261.402 120.922 261.028C121.604 260.632 122.11 260.093 122.44 259.411L126.136 261.523C125.41 262.821 124.387 263.866 123.067 264.658C121.747 265.428 120.284 265.813 118.678 265.813ZM131.727 258.85C132.299 260.918 133.85 261.952 136.38 261.952C138.008 261.952 139.24 261.402 140.076 260.302L143.508 262.282C141.88 264.636 139.482 265.813 136.314 265.813C133.586 265.813 131.397 264.988 129.747 263.338C128.097 261.688 127.272 259.609 127.272 257.101C127.272 254.615 128.086 252.547 129.714 250.897C131.342 249.225 133.432 248.389 135.984 248.389C138.404 248.389 140.395 249.225 141.957 250.897C143.541 252.569 144.333 254.637 144.333 257.101C144.333 257.651 144.278 258.234 144.168 258.85H131.727ZM131.661 255.55H140.076C139.834 254.428 139.328 253.592 138.558 253.042C137.81 252.492 136.952 252.217 135.984 252.217C134.84 252.217 133.894 252.514 133.146 253.108C132.398 253.68 131.903 254.494 131.661 255.55Z" fill="white"/>
<path d="M34.34 296.251H35.95V312.351H34.34V296.251ZM44.7928 300.575C46.1881 300.575 47.2844 301.004 48.0818 301.863C48.8944 302.706 49.3008 303.848 49.3008 305.29V312.351H47.7828V305.29C47.7828 304.262 47.5068 303.465 46.9548 302.898C46.4181 302.33 45.6514 302.047 44.6548 302.047C43.5508 302.047 42.6538 302.399 41.9638 303.105C41.2738 303.795 40.9288 304.868 40.9288 306.325V312.351H39.4108V300.851H40.9288V302.645C41.7874 301.265 43.0754 300.575 44.7928 300.575ZM58.331 302.323H55.019V309.292C55.019 309.92 55.1416 310.373 55.387 310.649C55.6323 310.909 56.0003 311.047 56.491 311.063C56.9816 311.063 57.595 311.047 58.331 311.017V312.351C56.721 312.596 55.5096 312.481 54.697 312.006C53.8996 311.53 53.501 310.626 53.501 309.292V302.323H51.086V300.851H53.501V298.091L55.019 297.631V300.851H58.331V302.323ZM65.4777 300.575C67.1797 300.575 68.552 301.18 69.5947 302.392C70.6527 303.588 71.1817 305.006 71.1817 306.647C71.1817 306.815 71.1664 307.053 71.1357 307.36H61.0387C61.192 308.525 61.6827 309.453 62.5107 310.143C63.354 310.817 64.389 311.155 65.6157 311.155C66.4897 311.155 67.241 310.978 67.8697 310.626C68.5137 310.258 68.9967 309.782 69.3187 309.2L70.6527 309.982C70.1467 310.794 69.4567 311.438 68.5827 311.914C67.7087 312.389 66.712 312.627 65.5927 312.627C63.7834 312.627 62.3114 312.059 61.1767 310.925C60.042 309.79 59.4747 308.349 59.4747 306.601C59.4747 304.883 60.0344 303.45 61.1537 302.3C62.273 301.15 63.7144 300.575 65.4777 300.575ZM65.4777 302.047C64.2817 302.047 63.2774 302.407 62.4647 303.128C61.6674 303.833 61.192 304.753 61.0387 305.888H69.6177C69.4644 304.676 68.9967 303.733 68.2147 303.059C67.4327 302.384 66.5204 302.047 65.4777 302.047ZM83.4863 300.851H85.0043V311.891C85.0043 313.547 84.437 314.85 83.3023 315.801C82.1677 316.751 80.8107 317.227 79.2313 317.227C76.5327 317.227 74.7157 316.291 73.7803 314.421L75.1143 313.662C75.8043 315.057 77.1767 315.755 79.2313 315.755C80.55 315.755 81.585 315.402 82.3363 314.697C83.103 314.007 83.4863 313.071 83.4863 311.891V310.097C82.4283 311.783 80.8797 312.627 78.8403 312.627C77.1997 312.627 75.7967 312.044 74.6313 310.879C73.4813 309.713 72.9063 308.287 72.9063 306.601C72.9063 304.914 73.4813 303.488 74.6313 302.323C75.7967 301.157 77.1997 300.575 78.8403 300.575C80.8797 300.575 82.4283 301.418 83.4863 303.105V300.851ZM75.7353 309.844C76.6093 310.718 77.6827 311.155 78.9553 311.155C80.228 311.155 81.3013 310.718 82.1753 309.844C83.0493 308.954 83.4863 307.873 83.4863 306.601C83.4863 305.328 83.0493 304.255 82.1753 303.381C81.3013 302.491 80.228 302.047 78.9553 302.047C77.6827 302.047 76.6093 302.491 75.7353 303.381C74.8613 304.255 74.4243 305.328 74.4243 306.601C74.4243 307.873 74.8613 308.954 75.7353 309.844ZM89.7364 302.76C90.4417 301.364 91.6531 300.667 93.3704 300.667V302.139C92.3277 302.139 91.4614 302.445 90.7714 303.059C90.0814 303.672 89.7364 304.638 89.7364 305.957V312.351H88.2184V300.851H89.7364V302.76ZM104.645 300.851H106.163V312.351H104.645V310.097C103.587 311.783 102.038 312.627 99.9985 312.627C98.3579 312.627 96.9549 312.044 95.7895 310.879C94.6395 309.713 94.0645 308.287 94.0645 306.601C94.0645 304.914 94.6395 303.488 95.7895 302.323C96.9549 301.157 98.3579 300.575 99.9985 300.575C102.038 300.575 103.587 301.418 104.645 303.105V300.851ZM96.8935 309.844C97.7675 310.718 98.8409 311.155 100.114 311.155C101.386 311.155 102.46 310.718 103.334 309.844C104.208 308.954 104.645 307.873 104.645 306.601C104.645 305.328 104.208 304.255 103.334 303.381C102.46 302.491 101.386 302.047 100.114 302.047C98.8409 302.047 97.7675 302.491 96.8935 303.381C96.0195 304.255 95.5825 305.328 95.5825 306.601C95.5825 307.873 96.0195 308.954 96.8935 309.844ZM115.472 302.323H112.16V309.292C112.16 309.92 112.282 310.373 112.528 310.649C112.773 310.909 113.141 311.047 113.632 311.063C114.122 311.063 114.736 311.047 115.472 311.017V312.351C113.862 312.596 112.65 312.481 111.838 312.006C111.04 311.53 110.642 310.626 110.642 309.292V302.323H108.227V300.851H110.642V298.091L112.16 297.631V300.851H115.472V302.323ZM122.618 300.575C124.32 300.575 125.693 301.18 126.735 302.392C127.793 303.588 128.322 305.006 128.322 306.647C128.322 306.815 128.307 307.053 128.276 307.36H118.179C118.333 308.525 118.823 309.453 119.651 310.143C120.495 310.817 121.53 311.155 122.756 311.155C123.63 311.155 124.382 310.978 125.01 310.626C125.654 310.258 126.137 309.782 126.459 309.2L127.793 309.982C127.287 310.794 126.597 311.438 125.723 311.914C124.849 312.389 123.853 312.627 122.733 312.627C120.924 312.627 119.452 312.059 118.317 310.925C117.183 309.79 116.615 308.349 116.615 306.601C116.615 304.883 117.175 303.45 118.294 302.3C119.414 301.15 120.855 300.575 122.618 300.575ZM122.618 302.047C121.422 302.047 120.418 302.407 119.605 303.128C118.808 303.833 118.333 304.753 118.179 305.888H126.758C126.605 304.676 126.137 303.733 125.355 303.059C124.573 302.384 123.661 302.047 122.618 302.047ZM151.437 296.251V312.351H149.827V298.689L144.192 308.119H143.962L138.327 298.689V312.351H136.717V296.251H138.718L144.077 305.221L149.436 296.251H151.437ZM164.772 300.851H166.29V312.351H164.772V310.097C163.714 311.783 162.166 312.627 160.126 312.627C158.486 312.627 157.083 312.044 155.917 310.879C154.767 309.713 154.192 308.287 154.192 306.601C154.192 304.914 154.767 303.488 155.917 302.323C157.083 301.157 158.486 300.575 160.126 300.575C162.166 300.575 163.714 301.418 164.772 303.105V300.851ZM157.021 309.844C157.895 310.718 158.969 311.155 160.241 311.155C161.514 311.155 162.587 310.718 163.461 309.844C164.335 308.954 164.772 307.873 164.772 306.601C164.772 305.328 164.335 304.255 163.461 303.381C162.587 302.491 161.514 302.047 160.241 302.047C158.969 302.047 157.895 302.491 157.021 303.381C156.147 304.255 155.71 305.328 155.71 306.601C155.71 307.873 156.147 308.954 157.021 309.844ZM174.887 300.575C176.282 300.575 177.378 301.004 178.176 301.863C178.988 302.706 179.395 303.848 179.395 305.29V312.351H177.877V305.29C177.877 304.262 177.601 303.465 177.049 302.898C176.512 302.33 175.745 302.047 174.749 302.047C173.645 302.047 172.748 302.399 172.058 303.105C171.368 303.795 171.023 304.868 171.023 306.325V312.351H169.505V300.851H171.023V302.645C171.881 301.265 173.169 300.575 174.887 300.575ZM188.425 302.323H185.113V309.292C185.113 309.92 185.235 310.373 185.481 310.649C185.726 310.909 186.094 311.047 186.585 311.063C187.075 311.063 187.689 311.047 188.425 311.017V312.351C186.815 312.596 185.603 312.481 184.791 312.006C183.993 311.53 183.595 310.626 183.595 309.292V302.323H181.18V300.851H183.595V298.091L185.113 297.631V300.851H188.425V302.323ZM196.337 300.575C197.732 300.575 198.828 301.004 199.626 301.863C200.438 302.706 200.845 303.848 200.845 305.29V312.351H199.327V305.29C199.327 304.262 199.051 303.465 198.499 302.898C197.962 302.33 197.195 302.047 196.199 302.047C195.095 302.047 194.198 302.399 193.508 303.105C192.818 303.795 192.473 304.868 192.473 306.325V312.351H190.955V296.251H192.473V302.645C193.331 301.265 194.619 300.575 196.337 300.575ZM213.67 300.851H215.188V312.351H213.67V310.097C212.612 311.783 211.063 312.627 209.024 312.627C207.383 312.627 205.98 312.044 204.815 310.879C203.665 309.713 203.09 308.287 203.09 306.601C203.09 304.914 203.665 303.488 204.815 302.323C205.98 301.157 207.383 300.575 209.024 300.575C211.063 300.575 212.612 301.418 213.67 303.105V300.851ZM205.919 309.844C206.793 310.718 207.866 311.155 209.139 311.155C210.412 311.155 211.485 310.718 212.359 309.844C213.233 308.954 213.67 307.873 213.67 306.601C213.67 305.328 213.233 304.255 212.359 303.381C211.485 302.491 210.412 302.047 209.139 302.047C207.866 302.047 206.793 302.491 205.919 303.381C205.045 304.255 204.608 305.328 204.608 306.601C204.608 307.873 205.045 308.954 205.919 309.844ZM228.292 300.851H229.81V312.351H228.292V310.097C227.234 311.783 225.685 312.627 223.646 312.627C222.005 312.627 220.602 312.044 219.437 310.879C218.287 309.713 217.712 308.287 217.712 306.601C217.712 304.914 218.287 303.488 219.437 302.323C220.602 301.157 222.005 300.575 223.646 300.575C225.685 300.575 227.234 301.418 228.292 303.105V300.851ZM220.541 309.844C221.415 310.718 222.488 311.155 223.761 311.155C225.034 311.155 226.107 310.718 226.981 309.844C227.855 308.954 228.292 307.873 228.292 306.601C228.292 305.328 227.855 304.255 226.981 303.381C226.107 302.491 225.034 302.047 223.761 302.047C222.488 302.047 221.415 302.491 220.541 303.381C219.667 304.255 219.23 305.328 219.23 306.601C219.23 307.873 219.667 308.954 220.541 309.844ZM238.406 300.575C239.801 300.575 240.898 301.004 241.695 301.863C242.508 302.706 242.914 303.848 242.914 305.29V312.351H241.396V305.29C241.396 304.262 241.12 303.465 240.568 302.898C240.031 302.33 239.265 302.047 238.268 302.047C237.164 302.047 236.267 302.399 235.577 303.105C234.887 303.795 234.542 304.868 234.542 306.325V312.351H233.024V300.851H234.542V302.645C235.401 301.265 236.689 300.575 238.406 300.575ZM44 328.251H45.518V344.351H44V342.097C42.942 343.783 41.3933 344.627 39.354 344.627C37.7133 344.627 36.3103 344.044 35.145 342.879C33.995 341.713 33.42 340.287 33.42 338.601C33.42 336.914 33.995 335.488 35.145 334.323C36.3103 333.157 37.7133 332.575 39.354 332.575C41.3933 332.575 42.942 333.418 44 335.105V328.251ZM36.249 341.844C37.123 342.718 38.1963 343.155 39.469 343.155C40.7417 343.155 41.815 342.718 42.689 341.844C43.563 340.954 44 339.873 44 338.601C44 337.328 43.563 336.255 42.689 335.381C41.815 334.491 40.7417 334.047 39.469 334.047C38.1963 334.047 37.123 334.491 36.249 335.381C35.375 336.255 34.938 337.328 34.938 338.601C34.938 339.873 35.375 340.954 36.249 341.844ZM50.2731 330.091C50.0584 330.305 49.7977 330.413 49.4911 330.413C49.1844 330.413 48.9237 330.305 48.7091 330.091C48.4944 329.876 48.3871 329.615 48.3871 329.309C48.3871 329.002 48.4944 328.741 48.7091 328.527C48.9237 328.312 49.1844 328.205 49.4911 328.205C49.7977 328.205 50.0584 328.312 50.2731 328.527C50.4877 328.741 50.5951 329.002 50.5951 329.309C50.5951 329.615 50.4877 329.876 50.2731 330.091ZM48.7321 344.351V332.851H50.2501V344.351H48.7321ZM54.9893 334.76C55.6947 333.364 56.906 332.667 58.6233 332.667V334.139C57.5807 334.139 56.7143 334.445 56.0243 335.059C55.3343 335.672 54.9893 336.638 54.9893 337.957V344.351H53.4713V332.851H54.9893V334.76ZM65.3205 332.575C67.0225 332.575 68.3948 333.18 69.4375 334.392C70.4955 335.588 71.0245 337.006 71.0245 338.647C71.0245 338.815 71.0091 339.053 70.9785 339.36H60.8815C61.0348 340.525 61.5255 341.453 62.3535 342.143C63.1968 342.817 64.2318 343.155 65.4585 343.155C66.3325 343.155 67.0838 342.978 67.7125 342.626C68.3565 342.258 68.8395 341.782 69.1615 341.2L70.4955 341.982C69.9895 342.794 69.2995 343.438 68.4255 343.914C67.5515 344.389 66.5548 344.627 65.4355 344.627C63.6261 344.627 62.1541 344.059 61.0195 342.925C59.8848 341.79 59.3175 340.349 59.3175 338.601C59.3175 336.883 59.8771 335.45 60.9965 334.3C62.1158 333.15 63.5571 332.575 65.3205 332.575ZM65.3205 334.047C64.1245 334.047 63.1201 334.407 62.3075 335.128C61.5101 335.833 61.0348 336.753 60.8815 337.888H69.4605C69.3071 336.676 68.8395 335.733 68.0575 335.059C67.2755 334.384 66.3631 334.047 65.3205 334.047ZM78.7981 344.627C77.0654 344.627 75.6241 344.052 74.4741 342.902C73.3241 341.736 72.7491 340.303 72.7491 338.601C72.7491 336.899 73.3241 335.473 74.4741 334.323C75.6241 333.157 77.0654 332.575 78.7981 332.575C79.9328 332.575 80.9524 332.851 81.8571 333.403C82.7618 333.939 83.4211 334.668 83.8351 335.588L82.5931 336.301C82.2864 335.611 81.7881 335.066 81.0981 334.668C80.4234 334.254 79.6568 334.047 78.7981 334.047C77.5254 334.047 76.4521 334.491 75.5781 335.381C74.7041 336.255 74.2671 337.328 74.2671 338.601C74.2671 339.873 74.7041 340.954 75.5781 341.844C76.4521 342.718 77.5254 343.155 78.7981 343.155C79.6568 343.155 80.4234 342.955 81.0981 342.557C81.7728 342.143 82.3018 341.591 82.6851 340.901L83.9501 341.637C83.4748 342.557 82.7771 343.285 81.8571 343.822C80.9371 344.358 79.9174 344.627 78.7981 344.627ZM92.2245 334.323H88.9125V341.292C88.9125 341.92 89.0352 342.373 89.2805 342.649C89.5259 342.909 89.8939 343.047 90.3845 343.063C90.8752 343.063 91.4885 343.047 92.2245 343.017V344.351C90.6145 344.596 89.4032 344.481 88.5905 344.006C87.7932 343.53 87.3945 342.626 87.3945 341.292V334.323H84.9795V332.851H87.3945V330.091L88.9125 329.631V332.851H92.2245V334.323ZM94.7545 344.351V327.561H96.2725V344.351H94.7545ZM107.774 332.851H109.384L104.462 345.409C104.017 346.543 103.381 347.433 102.553 348.077C101.74 348.736 100.828 349.027 99.8158 348.951V347.525C101.196 347.678 102.246 346.881 102.967 345.133L103.266 344.42L98.1138 332.851H99.7238L104.048 342.488L107.774 332.851ZM118.509 330.091C118.295 330.305 118.034 330.413 117.727 330.413C117.421 330.413 117.16 330.305 116.945 330.091C116.731 329.876 116.623 329.615 116.623 329.309C116.623 329.002 116.731 328.741 116.945 328.527C117.16 328.312 117.421 328.205 117.727 328.205C118.034 328.205 118.295 328.312 118.509 328.527C118.724 328.741 118.831 329.002 118.831 329.309C118.831 329.615 118.724 329.876 118.509 330.091ZM116.968 344.351V332.851H118.486V344.351H116.968ZM127.09 332.575C128.485 332.575 129.581 333.004 130.379 333.863C131.191 334.706 131.598 335.848 131.598 337.29V344.351H130.08V337.29C130.08 336.262 129.804 335.465 129.252 334.898C128.715 334.33 127.948 334.047 126.952 334.047C125.848 334.047 124.951 334.399 124.261 335.105C123.571 335.795 123.226 336.868 123.226 338.325V344.351H121.708V332.851H123.226V334.645C124.084 333.265 125.372 332.575 127.09 332.575ZM140.628 334.323H137.316V341.292C137.316 341.92 137.439 342.373 137.684 342.649C137.929 342.909 138.297 343.047 138.788 343.063C139.279 343.063 139.892 343.047 140.628 343.017V344.351C139.018 344.596 137.807 344.481 136.994 344.006C136.197 343.53 135.798 342.626 135.798 341.292V334.323H133.383V332.851H135.798V330.091L137.316 329.631V332.851H140.628V334.323ZM152.099 342.902C150.933 344.052 149.507 344.627 147.821 344.627C146.134 344.627 144.7 344.052 143.52 342.902C142.354 341.736 141.772 340.303 141.772 338.601C141.772 336.899 142.354 335.473 143.52 334.323C144.7 333.157 146.134 332.575 147.821 332.575C149.507 332.575 150.933 333.157 152.099 334.323C153.279 335.473 153.87 336.899 153.87 338.601C153.87 340.303 153.279 341.736 152.099 342.902ZM144.601 341.844C145.475 342.718 146.548 343.155 147.821 343.155C149.093 343.155 150.167 342.718 151.041 341.844C151.915 340.954 152.352 339.873 152.352 338.601C152.352 337.328 151.915 336.255 151.041 335.381C150.167 334.491 149.093 334.047 147.821 334.047C146.548 334.047 145.475 334.491 144.601 335.381C143.727 336.255 143.29 337.328 143.29 338.601C143.29 339.873 143.727 340.954 144.601 341.844ZM170.44 332.851H172.05L167.128 345.409C166.683 346.543 166.047 347.433 165.219 348.077C164.406 348.736 163.494 349.027 162.482 348.951V347.525C163.862 347.678 164.912 346.881 165.633 345.133L165.932 344.42L160.78 332.851H162.39L166.714 342.488L170.44 332.851ZM183.072 342.902C181.907 344.052 180.481 344.627 178.794 344.627C177.108 344.627 175.674 344.052 174.493 342.902C173.328 341.736 172.745 340.303 172.745 338.601C172.745 336.899 173.328 335.473 174.493 334.323C175.674 333.157 177.108 332.575 178.794 332.575C180.481 332.575 181.907 333.157 183.072 334.323C184.253 335.473 184.843 336.899 184.843 338.601C184.843 340.303 184.253 341.736 183.072 342.902ZM175.574 341.844C176.448 342.718 177.522 343.155 178.794 343.155C180.067 343.155 181.14 342.718 182.014 341.844C182.888 340.954 183.325 339.873 183.325 338.601C183.325 337.328 182.888 336.255 182.014 335.381C181.14 334.491 180.067 334.047 178.794 334.047C177.522 334.047 176.448 334.491 175.574 335.381C174.7 336.255 174.263 337.328 174.263 338.601C174.263 339.873 174.7 340.954 175.574 341.844ZM195.479 332.851H196.997V344.351H195.479V342.557C194.621 343.937 193.333 344.627 191.615 344.627C190.22 344.627 189.116 344.205 188.303 343.362C187.506 342.503 187.107 341.353 187.107 339.912V332.851H188.625V339.912C188.625 340.939 188.894 341.736 189.43 342.304C189.982 342.871 190.757 343.155 191.753 343.155C192.857 343.155 193.754 342.81 194.444 342.12C195.134 341.414 195.479 340.333 195.479 338.877V332.851ZM201.727 334.76C202.432 333.364 203.643 332.667 205.361 332.667V334.139C204.318 334.139 203.452 334.445 202.762 335.059C202.072 335.672 201.727 336.638 201.727 337.957V344.351H200.209V332.851H201.727V334.76ZM44 364.851H45.518V376.351H44V374.097C42.942 375.783 41.3933 376.627 39.354 376.627C37.7133 376.627 36.3103 376.044 35.145 374.879C33.995 373.713 33.42 372.287 33.42 370.601C33.42 368.914 33.995 367.488 35.145 366.323C36.3103 365.157 37.7133 364.575 39.354 364.575C41.3933 364.575 42.942 365.418 44 367.105V364.851ZM36.249 373.844C37.123 374.718 38.1963 375.155 39.469 375.155C40.7417 375.155 41.815 374.718 42.689 373.844C43.563 372.954 44 371.873 44 370.601C44 369.328 43.563 368.255 42.689 367.381C41.815 366.491 40.7417 366.047 39.469 366.047C38.1963 366.047 37.123 366.491 36.249 367.381C35.375 368.255 34.938 369.328 34.938 370.601C34.938 371.873 35.375 372.954 36.249 373.844ZM54.8961 364.575C56.5367 364.575 57.9321 365.157 59.0821 366.323C60.2474 367.488 60.8301 368.914 60.8301 370.601C60.8301 372.287 60.2474 373.713 59.0821 374.879C57.9321 376.044 56.5367 376.627 54.8961 376.627C52.8567 376.627 51.3081 375.783 50.2501 374.097V380.951H48.7321V364.851H50.2501V367.105C51.3081 365.418 52.8567 364.575 54.8961 364.575ZM51.5611 373.844C52.4351 374.718 53.5084 375.155 54.7811 375.155C56.0537 375.155 57.1271 374.718 58.0011 373.844C58.8751 372.954 59.3121 371.873 59.3121 370.601C59.3121 369.328 58.8751 368.255 58.0011 367.381C57.1271 366.491 56.0537 366.047 54.7811 366.047C53.5084 366.047 52.4351 366.491 51.5611 367.381C50.6871 368.255 50.2501 369.328 50.2501 370.601C50.2501 371.873 50.6871 372.954 51.5611 373.844ZM69.5181 364.575C71.1588 364.575 72.5541 365.157 73.7041 366.323C74.8695 367.488 75.4521 368.914 75.4521 370.601C75.4521 372.287 74.8695 373.713 73.7041 374.879C72.5541 376.044 71.1588 376.627 69.5181 376.627C67.4788 376.627 65.9301 375.783 64.8721 374.097V380.951H63.3541V364.851H64.8721V367.105C65.9301 365.418 67.4788 364.575 69.5181 364.575ZM66.1831 373.844C67.0571 374.718 68.1305 375.155 69.4031 375.155C70.6758 375.155 71.7491 374.718 72.6231 373.844C73.4971 372.954 73.9341 371.873 73.9341 370.601C73.9341 369.328 73.4971 368.255 72.6231 367.381C71.7491 366.491 70.6758 366.047 69.4031 366.047C68.1305 366.047 67.0571 366.491 66.1831 367.381C65.3091 368.255 64.8721 369.328 64.8721 370.601C64.8721 371.873 65.3091 372.954 66.1831 373.844ZM78.9476 367.864C78.9476 368.385 79.1776 368.799 79.6376 369.106C80.0976 369.412 80.6573 369.65 81.3166 369.819C81.9759 369.987 82.6353 370.179 83.2946 370.394C83.9539 370.593 84.5136 370.938 84.9736 371.429C85.4336 371.904 85.6636 372.533 85.6636 373.315C85.6636 374.296 85.2726 375.093 84.4906 375.707C83.7239 376.32 82.7273 376.627 81.5006 376.627C80.3966 376.627 79.4536 376.381 78.6716 375.891C77.9049 375.4 77.3683 374.764 77.0616 373.982L78.3496 373.223C78.5643 373.821 78.9476 374.296 79.4996 374.649C80.0669 374.986 80.7339 375.155 81.5006 375.155C82.2519 375.155 82.8806 375.009 83.3866 374.718C83.8926 374.411 84.1456 373.943 84.1456 373.315C84.1456 372.793 83.9156 372.379 83.4556 372.073C82.9956 371.766 82.4359 371.528 81.7766 371.36C81.1173 371.191 80.4579 371.007 79.7986 370.808C79.1393 370.593 78.5796 370.248 78.1196 369.773C77.6596 369.282 77.4296 368.646 77.4296 367.864C77.4296 366.928 77.7976 366.146 78.5336 365.518C79.2849 364.889 80.2279 364.575 81.3626 364.575C82.2979 364.575 83.1183 364.789 83.8236 365.219C84.5289 365.633 85.0503 366.2 85.3876 366.921L84.1226 367.657C83.6779 366.583 82.7579 366.047 81.3626 366.047C80.7033 366.047 80.1359 366.208 79.6606 366.53C79.1853 366.836 78.9476 367.281 78.9476 367.864ZM103.583 374.902C102.418 376.052 100.992 376.627 99.3049 376.627C97.6183 376.627 96.1846 376.052 95.0039 374.902C93.8386 373.736 93.2559 372.303 93.2559 370.601C93.2559 368.899 93.8386 367.473 95.0039 366.323C96.1846 365.157 97.6183 364.575 99.3049 364.575C100.992 364.575 102.418 365.157 103.583 366.323C104.764 367.473 105.354 368.899 105.354 370.601C105.354 372.303 104.764 373.736 103.583 374.902ZM96.0849 373.844C96.9589 374.718 98.0323 375.155 99.3049 375.155C100.578 375.155 101.651 374.718 102.525 373.844C103.399 372.954 103.836 371.873 103.836 370.601C103.836 369.328 103.399 368.255 102.525 367.381C101.651 366.491 100.578 366.047 99.3049 366.047C98.0323 366.047 96.9589 366.491 96.0849 367.381C95.2109 368.255 94.7739 369.328 94.7739 370.601C94.7739 371.873 95.2109 372.954 96.0849 373.844ZM109.412 366.76C110.118 365.364 111.329 364.667 113.046 364.667V366.139C112.004 366.139 111.137 366.445 110.447 367.059C109.757 367.672 109.412 368.638 109.412 369.957V376.351H107.894V364.851H109.412V366.76ZM127.041 364.575C128.681 364.575 130.077 365.157 131.227 366.323C132.392 367.488 132.975 368.914 132.975 370.601C132.975 372.287 132.392 373.713 131.227 374.879C130.077 376.044 128.681 376.627 127.041 376.627C125.001 376.627 123.453 375.783 122.395 374.097V380.951H120.877V364.851H122.395V367.105C123.453 365.418 125.001 364.575 127.041 364.575ZM123.706 373.844C124.58 374.718 125.653 375.155 126.926 375.155C128.198 375.155 129.272 374.718 130.146 373.844C131.02 372.954 131.457 371.873 131.457 370.601C131.457 369.328 131.02 368.255 130.146 367.381C129.272 366.491 128.198 366.047 126.926 366.047C125.653 366.047 124.58 366.491 123.706 367.381C122.832 368.255 122.395 369.328 122.395 370.601C122.395 371.873 122.832 372.954 123.706 373.844ZM145.136 374.902C143.97 376.052 142.544 376.627 140.858 376.627C139.171 376.627 137.737 376.052 136.557 374.902C135.391 373.736 134.809 372.303 134.809 370.601C134.809 368.899 135.391 367.473 136.557 366.323C137.737 365.157 139.171 364.575 140.858 364.575C142.544 364.575 143.97 365.157 145.136 366.323C146.316 367.473 146.907 368.899 146.907 370.601C146.907 372.303 146.316 373.736 145.136 374.902ZM137.638 373.844C138.512 374.718 139.585 375.155 140.858 375.155C142.13 375.155 143.204 374.718 144.078 373.844C144.952 372.954 145.389 371.873 145.389 370.601C145.389 369.328 144.952 368.255 144.078 367.381C143.204 366.491 142.13 366.047 140.858 366.047C139.585 366.047 138.512 366.491 137.638 367.381C136.764 368.255 136.327 369.328 136.327 370.601C136.327 371.873 136.764 372.954 137.638 373.844ZM150.965 366.76C151.67 365.364 152.882 364.667 154.599 364.667V366.139C153.556 366.139 152.69 366.445 152 367.059C151.31 367.672 150.965 368.638 150.965 369.957V376.351H149.447V364.851H150.965V366.76ZM162.999 366.323H159.687V373.292C159.687 373.92 159.81 374.373 160.055 374.649C160.3 374.909 160.668 375.047 161.159 375.063C161.65 375.063 162.263 375.047 162.999 375.017V376.351C161.389 376.596 160.178 376.481 159.365 376.006C158.568 375.53 158.169 374.626 158.169 373.292V366.323H155.754V364.851H158.169V362.091L159.687 361.631V364.851H162.999V366.323ZM174.723 364.851H176.241V376.351H174.723V374.097C173.665 375.783 172.116 376.627 170.077 376.627C168.436 376.627 167.033 376.044 165.868 374.879C164.718 373.713 164.143 372.287 164.143 370.601C164.143 368.914 164.718 367.488 165.868 366.323C167.033 365.157 168.436 364.575 170.077 364.575C172.116 364.575 173.665 365.418 174.723 367.105V364.851ZM166.972 373.844C167.846 374.718 168.919 375.155 170.192 375.155C171.464 375.155 172.538 374.718 173.412 373.844C174.286 372.954 174.723 371.873 174.723 370.601C174.723 369.328 174.286 368.255 173.412 367.381C172.538 366.491 171.464 366.047 170.192 366.047C168.919 366.047 167.846 366.491 166.972 367.381C166.098 368.255 165.661 369.328 165.661 370.601C165.661 371.873 166.098 372.954 166.972 373.844ZM179.455 376.351V359.561H180.973V376.351H179.455ZM185.39 367.864C185.39 368.385 185.62 368.799 186.08 369.106C186.54 369.412 187.1 369.65 187.759 369.819C188.418 369.987 189.078 370.179 189.737 370.394C190.396 370.593 190.956 370.938 191.416 371.429C191.876 371.904 192.106 372.533 192.106 373.315C192.106 374.296 191.715 375.093 190.933 375.707C190.166 376.32 189.17 376.627 187.943 376.627C186.839 376.627 185.896 376.381 185.114 375.891C184.347 375.4 183.811 374.764 183.504 373.982L184.792 373.223C185.007 373.821 185.39 374.296 185.942 374.649C186.509 374.986 187.176 375.155 187.943 375.155C188.694 375.155 189.323 375.009 189.829 374.718C190.335 374.411 190.588 373.943 190.588 373.315C190.588 372.793 190.358 372.379 189.898 372.073C189.438 371.766 188.878 371.528 188.219 371.36C187.56 371.191 186.9 371.007 186.241 370.808C185.582 370.593 185.022 370.248 184.562 369.773C184.102 369.282 183.872 368.646 183.872 367.864C183.872 366.928 184.24 366.146 184.976 365.518C185.727 364.889 186.67 364.575 187.805 364.575C188.74 364.575 189.561 364.789 190.266 365.219C190.971 365.633 191.493 366.2 191.83 366.921L190.565 367.657C190.12 366.583 189.2 366.047 187.805 366.047C187.146 366.047 186.578 366.208 186.103 366.53C185.628 366.836 185.39 367.281 185.39 367.864Z" fill="white"/>
<defs>
<linearGradient id="paint0_linear_2086_12828" x1="295" y1="390.047" x2="-25.553" y2="365.235" gradientUnits="userSpaceOnUse">
<stop offset="0.254808" stop-color="#464646"/>
<stop offset="1" stop-color="#8C8C4C"/>
</linearGradient>
<linearGradient id="paint1_linear_2086_12828" x1="84.7343" y1="0.350588" x2="339.139" y2="104.364" gradientUnits="userSpaceOnUse">
<stop stop-color="#9F9F00"/>
<stop offset="0.509615" stop-color="#4D4D00"/>
</linearGradient>
</defs>
</svg>
